<?xml version="1.0" standalone="no"?>
<!DOCTYPE svg PUBLIC "-//W3C//DTD SVG 1.1//EN" "http://www.w3.org/Graphics/SVG/1.1/DTD/svg11.dtd" >
<svg xmlns="http://www.w3.org/2000/svg" xmlns:xlink="http://www.w3.org/1999/xlink" version="1.1">
<metadata>
Created by FontForge 20190801 at Tue Sep 12 22:01:47 2017
 By Jimmy Wärting
Copyright (c) 2017 by Enrique Hernandez Vasquez. All rights reserved.
</metadata>
<defs>
<font id="IsidoraSans-Black" horiz-adv-x="1261" >
  <font-face 
    font-family="Isidora Sans Black"
    font-weight="900"
    font-stretch="normal"
    units-per-em="2048"
    panose-1="0 0 10 0 0 0 0 0 0 0"
    ascent="1638"
    descent="-410"
    x-height="1024"
    cap-height="1331"
    bbox="-475 -618 2720 1995"
    underline-thickness="0"
    underline-position="0"
    unicode-range="U+0020-FB02"
  />
<missing-glyph horiz-adv-x="1228" 
 />
    <glyph glyph-name="uniFB01" unicode="fi" horiz-adv-x="1523" 
d="M1214 1104q-83 0 -142 59q-58 58 -58 140t58 141q59 59 142 59q82 0 141 -59q58 -59 58 -141t-58 -140q-59 -59 -141 -59zM631 1024h780v-1024h-401v737h-379v-737h-402v737h-178v287h178q0 194 129 318q128 124 330 124q122 0 225 -45l17 -26l-66 -236l-28 -18
q-43 25 -91 24q-52 0 -83 -36.5t-31 -104.5z" />
    <glyph glyph-name="uniFB02" unicode="fl" horiz-adv-x="1423" 
d="M918 1405l362 33l31 -19v-1419h-402v1112q-50 53 -137 53q-66 0 -103.5 -39t-37.5 -102h186v-287h-186v-737h-402v737h-178v287h178q0 194 132 319q131 123 307 123q140 0 250 -61z" />
    <glyph glyph-name=".notdef" horiz-adv-x="1228" 
 />
    <glyph glyph-name="glyph1" horiz-adv-x="0" 
 />
    <glyph glyph-name="glyph2" horiz-adv-x="681" 
 />
    <glyph glyph-name="space" unicode=" " horiz-adv-x="413" 
 />
    <glyph glyph-name="exclam" unicode="!" horiz-adv-x="610" 
d="M434 543h-258l-24 24l-39 781l24 24h336l25 -24l-39 -781zM470 44q-69 -69 -165 -69q-97 0 -164 69q-69 69 -69 165t69 165q68 68 164 68q95 0 165 -68q69 -69 69 -165t-69 -165z" />
    <glyph glyph-name="quotedbl" unicode="&#x22;" horiz-adv-x="843" 
d="M330 776h-205l-53 555h311zM719 776h-205l-53 555h311z" />
    <glyph glyph-name="numbersign" unicode="#" horiz-adv-x="1413" 
d="M506 0h-297l47 336h-199l29 205h199l34 250h-198l29 204h198l45 336h299l-47 -336h248l45 336h297l-47 -336h166l-29 -204h-166l-35 -250h166l-28 -205h-166l-47 -336h-295l47 336h-248zM616 791l-34 -250h245l37 250h-248z" />
    <glyph glyph-name="dollar" unicode="$" horiz-adv-x="1110" 
d="M1038 434q0 -144 -88 -232q-90 -90 -231 -118v-152h-289v146q-241 40 -371 190v29l156 192h29q57 -52 141 -92q87 -41 162 -41q62 0 99.5 21t37.5 57q0 31 -18 45q-24 19 -50 27q-30 9 -76 22q-33 9 -46 13q-383 113 -383 381q0 130 87 221q87 92 232 123v149h289v-151
q204 -44 303 -158v-29l-160 -190h-28q-121 121 -259 121q-51 0 -81.5 -19.5t-30.5 -52.5q0 -39 37 -63.5t121 -51.5q74 -24 86 -27q24 -8 81 -30q58 -24 82 -39q29 -19 64 -47q37 -29 56 -60.5t34 -81.5q14 -48 14 -102z" />
    <glyph glyph-name="percent" unicode="%" horiz-adv-x="1933" 
d="M670 700q-104 -114 -258 -114q-156 0 -258 114q-103 112 -103 294q0 181 103 293q102 112 258 112q155 0 258 -112q102 -113 102 -293q0 -182 -102 -294zM289 -20l-19 28l1078 1364h294l19 -29l-1077 -1363h-295zM412 807q47 0 82 53q34 52 34 133q0 83 -31.5 134
t-84.5 51t-85 -51t-32 -134q0 -84 32 -135t85 -51zM1776 67q-104 -114 -258 -114q-156 0 -258 114q-103 112 -103 294q0 181 103 293q102 112 258 112q155 0 258 -112q102 -112 102 -293t-102 -294zM1433 225q31 -51 85 -51t85 51q31 50 31 135q0 83 -31.5 134t-84.5 51
t-85 -51t-32 -134t32 -135z" />
    <glyph glyph-name="ampersand" unicode="&#x26;" horiz-adv-x="1456" 
d="M1360 250l29 -12l88 -203l-11 -29q-46 -39 -134 -66q-89 -26 -183 -26q-120 0 -217 49q-109 -31 -238 -31q-291 0 -465 149q-176 149 -176 380q0 257 223 405q-24 46 -32 74q-20 62 -21 113q0 167 115 270q116 104 297 104q249 0 379 -202v-29l-176 -139h-29
q-53 104 -141 104q-53 0 -87 -30.5t-34 -79.5q0 -54 59 -148l365 -561q32 59 30 131q0 118 -73 195v28l227 146h29q64 -66 109 -175q42 -108 42 -210q0 -147 -75 -264q69 26 100 57zM406 479q0 -125 83 -202q83 -78 213 -78h5l-220 336l-45 73q-36 -58 -36 -129z" />
    <glyph glyph-name="quotesingle" unicode="'" horiz-adv-x="454" 
d="M330 776h-205l-53 555h311z" />
    <glyph glyph-name="parenleft" unicode="(" horiz-adv-x="751" 
d="M525 1104q-170 -470 -1 -936q84 -231 226 -406h-392q-138 184 -217 411q-80 229 -80 462q0 234 80 465q79 227 217 411h392q-141 -174 -225 -407z" />
    <glyph glyph-name="parenright" unicode=")" horiz-adv-x="749" 
d="M393 -238h-391q141 174 225 406q84 231 84 467q0 235 -84 469q-84 233 -225 407h391q138 -184 217 -411q80 -231 80 -465q0 -232 -80 -461q-78 -226 -217 -412z" />
    <glyph glyph-name="asterisk" unicode="*" horiz-adv-x="868" 
d="M328 1190v182h215v-182l157 92l109 -186l-160 -92l160 -93l-109 -186l-157 92v-184h-215v184l-160 -92l-107 186l160 93l-160 92l107 186z" />
    <glyph glyph-name="plus" unicode="+" horiz-adv-x="1193" 
d="M762 756h379v-295h-379v-383h-330v383h-379v295h379v385h330v-385z" />
    <glyph glyph-name="comma" unicode="," horiz-adv-x="608" 
d="M197 -438h-29l-80 94v29q170 185 170 282q-86 17 -141 82q-56 67 -56 154q0 100 70 170q71 69 170 69q109 0 175 -68q65 -70 65 -181q0 -150 -104 -335q-104 -183 -240 -296z" />
    <glyph glyph-name="hyphen" unicode="-" horiz-adv-x="1042" 
d="M100 461v307h842v-307h-842z" />
    <glyph glyph-name="period" unicode="." horiz-adv-x="581" 
d="M456 44q-69 -69 -165 -69t-165 69t-69 165t69 165q70 68 165 68t165 -68q68 -70 68 -165t-68 -165z" />
    <glyph glyph-name="slash" unicode="/" horiz-adv-x="1259" 
d="M33 -80l819 1522h358l19 -29l-819 -1522h-359z" />
    <glyph glyph-name="zero" unicode="0" horiz-adv-x="1372" 
d="M1132 1204q171 -200 171 -526t-171 -525q-171 -200 -445 -200q-275 0 -446 200q-171 199 -171 525t171 526q171 199 446 199q274 0 445 -199zM528 965q-61 -109 -61 -287q0 -179 61 -286q60 -109 158 -109t159 109q60 108 60 286t-60 287q-61 108 -159 108t-158 -108z
" />
    <glyph glyph-name="one" unicode="1" horiz-adv-x="882" 
d="M25 1059v317h698v-1396h-401v1079h-297z" />
    <glyph glyph-name="two" unicode="2" horiz-adv-x="1179" 
d="M625 303h479v-323h-1024v282q96 98 252 246q162 155 209 205q137 143 137 237q0 63 -44 102.5t-112 39.5q-147 0 -264 -152h-29l-180 197v28q201 238 537 238q212 0 343 -121q132 -122 132 -311q0 -188 -141 -371q-91 -117 -295 -297z" />
    <glyph glyph-name="three" unicode="3" horiz-adv-x="1183" 
d="M901 702q215 -119 215 -323q0 -189 -154 -307q-155 -119 -401 -119q-166 0 -314 68q-150 67 -227 174v28l189 197h29q52 -70 137 -114t160 -44t123 42q47 42 47 108q0 65 -60 107q-61 42 -158 42h-143v266h174q71 0 116.5 38t45.5 96t-45.5 95.5t-116.5 37.5
q-137 0 -244 -95h-28l-154 207v29q200 168 486 168q219 0 358 -112t139 -292q0 -185 -174 -297z" />
    <glyph glyph-name="four" unicode="4" horiz-adv-x="1267" 
d="M1028 -20h-407v258h-590v274l639 864h358v-837h174l2 -301h-176v-258zM651 860l-225 -321h225v321z" />
    <glyph glyph-name="five" unicode="5" horiz-adv-x="1243" 
d="M659 928q232 0 375 -130q144 -130 144 -347q0 -223 -158 -360q-158 -138 -418 -138q-172 0 -321 65q-152 65 -230 168v29l189 195h28q59 -67 144 -107q85 -41 161 -41q89 0 147 50q56 50 56 132t-56 133q-56 50 -147 50q-124 0 -194 -76h-29l-246 108l123 717h850v-317
h-590l-26 -158q91 27 198 27z" />
    <glyph glyph-name="six" unicode="6" horiz-adv-x="1222" 
d="M668 928q238 0 381 -131t143 -351t-155 -357q-155 -136 -410 -136q-280 0 -434 172q-131 143 -132 360q0 332 324 713q87 103 250 266h29l219 -209v-28q-115 -97 -201 -201q-44 -51 -82 -104q31 6 68 6zM503 306q48 -52 124 -52q75 0 124 52q48 52 48 134t-48 135
q-49 52 -124 52q-76 0 -124 -52q-48 -53 -48 -135t48 -134z" />
    <glyph glyph-name="seven" unicode="7" horiz-adv-x="1085" 
d="M35 1376h1018v-227l-484 -1169h-385l-18 28l446 1051h-577v317z" />
    <glyph glyph-name="eight" unicode="8" horiz-adv-x="1286" 
d="M1012 743q213 -117 213 -354q0 -195 -161 -315q-160 -121 -421 -121q-259 0 -420 121q-162 122 -162 315q0 239 213 354q-125 98 -124 273q0 172 137 280q137 107 356 107q218 0 357 -107q137 -108 137 -280q0 -175 -125 -273zM739 1091q-38 37 -96 37t-96 -37
q-39 -37 -39 -97q0 -59 38 -99q38 -39 97 -39t97 39q38 40 38 99q0 60 -39 97zM512 289q51 -51 131 -51t131 51t51 131q0 82 -51 134t-131 52t-131 -52t-51 -134q0 -80 51 -131z" />
    <glyph glyph-name="nine" unicode="9" horiz-adv-x="1220" 
d="M594 1403q252 0 409 -148q156 -149 156 -385q0 -296 -256 -628q-115 -148 -317 -351h-29l-219 209v29q109 94 207 205q53 66 78 102q-34 -8 -70 -8q-238 0 -381 131t-143 350q0 217 156 356q154 138 409 138zM470 1050q-48 -52 -48 -134t48 -134q48 -53 124 -53t124 53
q48 52 48 134t-48 134t-124 52t-124 -52z" />
    <glyph glyph-name="colon" unicode=":" horiz-adv-x="622" 
d="M477 651q-69 -69 -165 -69q-98 0 -165 69q-69 67 -69 164q0 96 69 165q67 69 165 69q96 0 165 -69q68 -70 68 -165q0 -96 -68 -164zM477 44q-69 -69 -165 -69q-98 0 -165 69q-69 69 -69 165t69 165q68 68 165 68q95 0 165 -68q68 -70 68 -165t-68 -165z" />
    <glyph glyph-name="semicolon" unicode=";" horiz-adv-x="638" 
d="M317 569q-98 0 -167 71q-70 70 -70 169q0 100 70 170q69 70 167 70q100 0 170 -70t70 -170q0 -99 -70 -169q-71 -71 -170 -71zM213 -438h-29l-80 94v29q170 185 170 282q-86 17 -141 82t-55 154q0 100 70 170q69 69 169 69q109 0 175 -68q65 -70 65 -181
q0 -150 -104 -335q-104 -183 -240 -296z" />
    <glyph glyph-name="less" unicode="&#x3c;" horiz-adv-x="1046" 
d="M913 1290l23 -18v-309l-490 -304l490 -290v-312l-23 -18l-860 504v225z" />
    <glyph glyph-name="equal" unicode="=" horiz-adv-x="1277" 
d="M106 684v266h1065v-266h-1065zM106 279v266h1065v-266h-1065z" />
    <glyph glyph-name="greater" unicode="&#x3e;" horiz-adv-x="1046" 
d="M111 1272l22 18l860 -522v-225l-860 -504l-22 18v312l489 290l-489 304v309z" />
    <glyph glyph-name="question" unicode="?" horiz-adv-x="1032" 
d="M666 457h-338v53q0 85 86 195q16 21 71 72q53 48 84 90q31 41 31 77q0 45 -32 71.5t-89 26.5q-45 0 -88.5 -27.5t-64.5 -74.5l-29 -12l-246 96l-8 29q47 131 175 217t300 86q187 0 311 -95q123 -96 123 -243q0 -80 -36.5 -150.5t-117.5 -154.5q-82 -85 -87 -92
q-45 -57 -45 -113v-51zM649 -4q-64 -62 -151 -62q-88 0 -150 62q-63 63 -63 152q0 88 63 150q62 62 150 62q87 0 151 -62q62 -62 62 -150t-62 -152z" />
    <glyph glyph-name="at" unicode="@" horiz-adv-x="1871" 
d="M922 -309q-366 0 -614 233q-247 234 -247 590q0 354 248 587q247 232 629 232q370 0 617 -217t247 -541q0 -215 -114 -330q-116 -116 -304 -116q-206 0 -270 129q-111 -115 -278 -115q-158 0 -268 104q-111 103 -111 267q0 166 111 277q110 110 263 110q130 0 240 -92v72
h258v-396q0 -59 12 -96q14 -45 68 -45q63 0 102 58t39 173q0 249 -176 398q-176 147 -430 147q-274 0 -453 -171q-180 -171 -180 -437t180 -437q179 -171 447 -171q181 0 348 106h29l94 -149v-29q-187 -141 -487 -141zM897 371q55 0 91 43t36 109q0 65 -36 107t-91 42
q-57 0 -93 -42t-36 -107q0 -66 36 -109t93 -43z" />
    <glyph glyph-name="A" unicode="A" horiz-adv-x="1470" 
d="M606 1331h258l613 -1300l-19 -31h-414l-77 201h-478l-81 -201h-396l-18 31zM735 807l-139 -340h268z" />
    <glyph glyph-name="B" unicode="B" horiz-adv-x="1325" 
d="M1028 711q103 -40 174 -125q70 -83 70 -211q0 -173 -133 -273q-133 -102 -355 -102h-651v1331h621q202 0 324 -97q122 -98 122 -251q0 -187 -172 -272zM778 834q37 31 37 88q0 55 -37 88q-38 32 -96 32h-143v-241h143q58 0 96 33zM539 289h176q72 0 115.5 36.5t43.5 96.5
q0 59 -44 96t-115 37h-176v-266z" />
    <glyph glyph-name="C" unicode="C" horiz-adv-x="1394" 
d="M797 -25q-311 0 -523 198q-213 198 -213 493q0 297 212 494q211 196 530 196q166 0 316 -68q147 -69 245 -188v-29l-246 -209h-28q-119 129 -289 129q-137 0 -231 -93q-95 -93 -95 -232q0 -140 95 -233q94 -93 231 -93q171 0 289 129h28l246 -209v-29
q-213 -256 -567 -256z" />
    <glyph glyph-name="D" unicode="D" horiz-adv-x="1523" 
d="M133 1331h621q324 0 514 -181t190 -482q0 -304 -189 -485q-191 -183 -515 -183h-621v1331zM539 328h198q136 0 222 89q85 88 85 249q0 160 -85 249q-86 89 -222 89h-198v-676z" />
    <glyph glyph-name="E" unicode="E" horiz-adv-x="1236" 
d="M1147 1331v-327h-608v-185h462v-307h-462v-184h614v-328h-1020v1331h1014z" />
    <glyph glyph-name="F" unicode="F" horiz-adv-x="1173" 
d="M1133 1331v-327h-594v-216h442v-307h-442v-481h-406v1331h1000z" />
    <glyph glyph-name="G" unicode="G" horiz-adv-x="1544" 
d="M1452 793l29 -25q6 -50 6 -117q0 -287 -207 -481q-201 -195 -506 -195q-304 0 -509 197q-204 196 -204 494q0 295 205 493q206 197 508 197q172 0 321 -69q148 -70 244 -187v-29l-245 -209h-29q-119 129 -277 129q-130 0 -222 -93q-91 -92 -91 -234q0 -139 92 -231
q91 -93 232 -93q113 0 190 59q57 40 84 107h-282v287h661z" />
    <glyph glyph-name="H" unicode="H" horiz-adv-x="1521" 
d="M983 827v504h406v-1331h-406v500h-444v-500h-406v1331h406v-504h444z" />
    <glyph glyph-name="I" unicode="I" horiz-adv-x="671" 
d="M133 0v1331h406v-1331h-406z" />
    <glyph glyph-name="J" unicode="J" horiz-adv-x="1101" 
d="M580 528v803h405v-721q0 -334 -129 -484q-129 -151 -416 -151q-121 0 -254 56q-136 56 -204 151v29l219 225h28q76 -100 181 -100q170 0 170 192z" />
    <glyph glyph-name="K" unicode="K" horiz-adv-x="1386" 
d="M1364 1300l-459 -565l494 -704l-19 -31h-424l-344 496l-73 -86v-410h-406v1331h406v-473l374 473h433z" />
    <glyph glyph-name="L" unicode="L" horiz-adv-x="1071" 
d="M539 328h508v-328h-914v1331h406v-1003z" />
    <glyph glyph-name="M" unicode="M" horiz-adv-x="1773" 
d="M1516 1331l202 -1331h-375l-71 596l-254 -596h-234l-254 600l-71 -600h-404l205 1331h246l393 -831l371 831h246z" />
    <glyph glyph-name="N" unicode="N" horiz-adv-x="1519" 
d="M981 664v667h405v-1331h-266l-581 668v-668h-406v1331h266z" />
    <glyph glyph-name="O" unicode="O" horiz-adv-x="1609" 
d="M1335 173q-213 -198 -530 -198t-531 197q-213 196 -213 494t213 494q212 196 531 196q318 0 530 -196q213 -196 213 -494q0 -295 -213 -493zM571 432q95 -92 234 -92q138 0 235 92q95 92 95 234q0 141 -95 233q-97 92 -235 92q-139 0 -234 -92q-96 -91 -96 -233t96 -234z
" />
    <glyph glyph-name="P" unicode="P" horiz-adv-x="1339" 
d="M133 1331h631q257 0 399 -122q140 -122 140 -330q0 -211 -139 -332t-400 -121h-225v-426h-406v1331zM539 733h211q61 0 100 35.5t39 97.5q0 64 -39 101t-100 37h-211v-271z" />
    <glyph glyph-name="Q" unicode="Q" horiz-adv-x="1609" 
d="M1548 666q0 -179 -82 -325q-83 -150 -227 -243l285 -344l-19 -30h-436l-221 251h-43q-316 0 -530 197q-214 196 -214 494t213 494q212 196 531 196q318 0 530 -196q213 -196 213 -494zM571 899q-96 -91 -96 -233t96 -234q95 -92 234 -92q138 0 235 92q95 92 95 234
q0 141 -95 233q-97 92 -235 92q-139 0 -234 -92z" />
    <glyph glyph-name="R" unicode="R" horiz-adv-x="1363" 
d="M1038 524l271 -493l-19 -31h-403l-252 467h-96v-467h-406v1331h610q259 0 399 -118q140 -119 140 -326q0 -251 -244 -363zM727 1004h-188v-271h188q62 0 101.5 35t39.5 96q0 64 -40 102t-101 38z" />
    <glyph glyph-name="S" unicode="S" horiz-adv-x="1263" 
d="M639 -25q-184 0 -340 63q-155 61 -250 165v28l189 234h28q58 -58 161 -105q102 -47 189 -47q75 0 118.5 21.5t43.5 60.5q0 31 -21 49q-24 18 -58 28q-15 5 -41.5 11.5t-47.5 12.5q-23 6 -55 14q-446 125 -446 434q0 181 149 297q148 115 385 115q165 0 309 -55t222 -144
v-29l-191 -225h-29q-146 135 -303 135q-59 0 -94 -20.5t-35 -54.5q0 -31 30 -55q28 -24 63 -38q31 -14 90 -30q21 -6 54 -15.5t46 -13.5q43 -14 97 -34q59 -23 94 -44q32 -21 76 -57q75 -63 106 -164q16 -51 16 -117q0 -199 -159 -309q-161 -111 -396 -111z" />
    <glyph glyph-name="T" unicode="T" horiz-adv-x="1265" 
d="M1241 1004h-405v-1004h-406v1004h-405v327h1216v-327z" />
    <glyph glyph-name="U" unicode="U" horiz-adv-x="1517" 
d="M113 627v704h405v-729q0 -118 68 -192t176 -74t176 74t68 192v729h399v-704q0 -293 -177 -472q-177 -180 -466 -180q-292 0 -471 180q-178 178 -178 472z" />
    <glyph glyph-name="V" unicode="V" horiz-adv-x="1460" 
d="M1053 1331h397l18 -31l-612 -1300h-250l-614 1300l18 31h414l307 -758z" />
    <glyph glyph-name="W" unicode="W" horiz-adv-x="2033" 
d="M1632 1331h387l19 -31l-496 -1300h-246l-280 725l-279 -725h-245l-496 1300l18 31h387l240 -733l252 733h246l254 -737z" />
    <glyph glyph-name="X" unicode="X" horiz-adv-x="1398" 
d="M1376 1300l-436 -610l455 -659l-19 -31h-450l-232 377l-243 -377h-431l-18 31l455 639l-432 630l18 31h451l213 -342l221 342h430z" />
    <glyph glyph-name="Y" unicode="Y" horiz-adv-x="1374" 
d="M1341 1331l19 -31l-467 -811v-489h-406v483l-485 817l18 31h398l274 -493l262 493h387z" />
    <glyph glyph-name="Z" unicode="Z" horiz-adv-x="1294" 
d="M1200 1044l-610 -722h639v-322h-1155v287l618 723h-598v321h1106v-287z" />
    <glyph glyph-name="bracketleft" unicode="[" horiz-adv-x="780" 
d="M725 1511v-266h-227v-1216h227v-267h-596v1749h596z" />
    <glyph glyph-name="backslash" unicode="\" horiz-adv-x="1259" 
d="M49 1442h359l819 -1522l-19 -29h-358l-819 1522z" />
    <glyph glyph-name="bracketright" unicode="]" horiz-adv-x="780" 
d="M283 1245h-228v266h596v-1749h-596v267h228v1216z" />
    <glyph glyph-name="asciicircum" unicode="^" horiz-adv-x="1372" 
d="M573 1331h226l522 -758l-16 -16h-328l-291 424l-293 -424h-325l-17 16z" />
    <glyph glyph-name="underscore" unicode="_" horiz-adv-x="1294" 
d="M113 -311v307h1069v-307h-1069z" />
    <glyph glyph-name="grave" unicode="`" horiz-adv-x="774" 
d="M199 1642h20l490 -276v-20l-97 -175h-20l-529 193v20z" />
    <glyph glyph-name="a" unicode="a" horiz-adv-x="1167" 
d="M557 1049q202 0 346 -91q77 -50 120.5 -139.5t43.5 -210.5v-608h-313v82q-135 -105 -310 -107q-181 0 -293 89q-112 88 -112 233q0 157 122 255q121 97 320 97q95 0 217 -39v29q0 57 -60 93t-146 36q-118 0 -216 -70h-28l-121 195v29q85 64 203 95q120 32 227 32z
M551 211q69 0 113 42q43 42 43 91v49q-77 37 -156 37q-63 0 -101 -30t-38 -80q0 -49 38 -79t101 -30z" />
    <glyph glyph-name="b" unicode="b" horiz-adv-x="1310" 
d="M748 1049q219 0 364 -154t145 -383q0 -228 -145 -382q-146 -155 -364 -155q-181 0 -308 121v-96h-327v1358l370 39l31 -19v-389q112 60 234 60zM548 370q52 -57 132 -57t132 57q52 55 52 142t-52 143q-53 56 -132 56t-132 -56q-52 -56 -52 -143t52 -142z" />
    <glyph glyph-name="c" unicode="c" horiz-adv-x="1071" 
d="M614 -25q-241 0 -401 152q-160 151 -160 385t160 385q161 152 401 152q259 0 428 -181v-28l-219 -205h-28q-61 76 -162 76q-81 0 -134 -56q-53 -58 -53 -143q0 -86 53 -142q53 -57 134 -57q101 0 162 76h28l219 -205v-28q-169 -181 -428 -181z" />
    <glyph glyph-name="d" unicode="d" horiz-adv-x="1310" 
d="M797 1358l370 39l31 -19v-1378h-328v96q-127 -121 -307 -121q-218 0 -364 155t-146 382q0 228 146 383q145 154 364 154q121 0 234 -60v369zM499 370q53 -57 132 -57t132 57q52 55 52 142t-52 143q-53 56 -132 56t-132 -56q-53 -58 -53 -143q0 -86 53 -142z" />
    <glyph glyph-name="e" unicode="e" horiz-adv-x="1206" 
d="M1147 428h-709q10 -82 67.5 -126t149.5 -44q149 0 246 92h29l168 -166v-28q-162 -179 -467 -181q-257 0 -417 151q-161 150 -161 386t157 387q158 150 406 150q238 0 392 -148q147 -147 147 -381q0 -49 -8 -92zM604 780q-141 0 -166 -145h330q-8 59 -47 98
q-47 47 -117 47z" />
    <glyph glyph-name="f" unicode="f" horiz-adv-x="921" 
d="M770 1165q-61 0 -100 -38t-39 -103h268v-287h-268v-737h-402v737h-178v287h178q0 215 143 329q143 113 341 113q133 0 237 -45l19 -28l-66 -236l-29 -18q-47 26 -104 26z" />
    <glyph glyph-name="g" unicode="g" horiz-adv-x="1259" 
d="M836 944v80h313v-840q0 -255 -164 -392q-163 -136 -430 -136q-311 0 -485 180v27l151 205h27q50 -53 139 -92q84 -37 172 -37q93 0 160 42t67 123v58q-117 -72 -254 -72q-206 0 -342 136q-137 137 -137 343q0 207 138 344q136 136 341 136q168 0 304 -105zM499 430
q52 -55 132 -55t132 55t52 139q0 85 -52 140t-132 55t-132 -55q-53 -56 -53 -140q0 -83 53 -139z" />
    <glyph glyph-name="h" unicode="h" horiz-adv-x="1277" 
d="M750 1049q188 0 308 -123t120 -328v-598h-402v569q0 64 -35.5 103t-96.5 39t-97.5 -39t-36.5 -103v-569h-397v1358l366 39l31 -19v-407q105 78 240 78z" />
    <glyph glyph-name="i" unicode="i" horiz-adv-x="626" 
d="M479 1245q-69 -69 -165 -69q-98 0 -165 69q-69 67 -69 164q0 96 69 165q68 68 165 68q95 0 165 -68q68 -70 68 -165q0 -96 -68 -164zM514 0h-401v1024h401v-1024z" />
    <glyph glyph-name="j" unicode="j" horiz-adv-x="636" 
d="M491 1245q-69 -69 -165 -69q-98 0 -165 69q-69 67 -69 164q0 96 69 165q68 68 165 68q95 0 165 -68q68 -70 68 -165q0 -96 -68 -164zM125 358v666h401v-719q0 -129 -6 -203q-6 -71 -26 -151q-21 -76 -65 -126q-91 -103 -292 -192h-28l-154 287v29q123 67 147 131
q23 64 23 278z" />
    <glyph glyph-name="k" unicode="k" horiz-adv-x="1239" 
d="M1231 995l-365 -440l379 -526l-18 -29h-434l-230 358l-49 -57v-301h-401v1358l370 39l31 -19v-731l287 377h411z" />
    <glyph glyph-name="l" unicode="l" horiz-adv-x="626" 
d="M514 0h-401v1358l370 39l31 -19v-1378z" />
    <glyph glyph-name="m" unicode="m" horiz-adv-x="1925" 
d="M1061 924q136 125 328 125q193 0 314 -123q122 -124 122 -328v-598h-402v569q0 66 -33.5 104t-93.5 38q-57 0 -92 -38.5t-35 -103.5v-569h-401v569q0 66 -34 104t-93 38q-57 0 -92 -38.5t-35 -103.5v-569h-401v1024h327v-125q118 150 314 150q193 0 307 -125z" />
    <glyph glyph-name="n" unicode="n" horiz-adv-x="1282" 
d="M754 1049q188 0 308 -126t120 -325v-598h-402v569q0 65 -35 103.5t-100 38.5q-59 0 -95 -39t-36 -103v-569h-401v1024h327v-125q118 150 314 150z" />
    <glyph glyph-name="o" unicode="o" 
d="M1046 127q-164 -152 -415 -152t-415 152q-163 151 -163 385t163 385q164 152 415 152t415 -152q162 -152 162 -385q0 -234 -162 -385zM499 370q53 -57 132 -57t132 57q52 55 52 142t-52 143q-53 56 -132 56t-132 -56q-53 -58 -53 -143q0 -86 53 -142z" />
    <glyph glyph-name="p" unicode="p" horiz-adv-x="1310" 
d="M748 1049q218 0 364 -155q145 -154 145 -382q0 -229 -145 -383t-364 -154q-122 0 -234 60v-354h-401v1343h327v-82q139 107 308 107zM548 370q52 -57 132 -57t132 57q52 55 52 142t-52 143q-53 56 -132 56t-132 -56q-52 -56 -52 -143t52 -142z" />
    <glyph glyph-name="q" unicode="q" horiz-adv-x="1310" 
d="M870 942v82h328v-1343h-401v354q-113 -59 -234 -60q-219 0 -364 154q-146 155 -146 383q0 227 146 382t364 155q170 0 307 -107zM499 370q53 -57 132 -57t132 57q52 55 52 142t-52 143q-53 56 -132 56t-132 -56q-53 -58 -53 -143q0 -86 53 -142z" />
    <glyph glyph-name="r" unicode="r" horiz-adv-x="927" 
d="M918 1010l18 -29l-74 -276l-28 -19q-50 25 -129 25q-86 0 -138.5 -49.5t-52.5 -129.5v-532h-401v1024h327v-135q117 160 289 160q103 0 189 -39z" />
    <glyph glyph-name="s" unicode="s" horiz-adv-x="1056" 
d="M535 -29q-157 0 -289 53q-134 52 -205 138v28l166 197h29q50 -47 140 -86q86 -37 167 -37q73 0 71 41q0 35 -102 66q-93 26 -146 45q-57 20 -126 60q-142 81 -142 249q0 152 121 240t326 88q141 0 264 -45q124 -45 186 -121v-29l-164 -184h-28q-119 98 -254 98
q-76 0 -76 -35q-4 -15 23 -31.5t69 -28.5q9 -3 65 -19q54 -17 75 -25q142 -51 213 -127q71 -77 71 -209q0 -148 -124 -236q-125 -90 -330 -90z" />
    <glyph glyph-name="t" unicode="t" horiz-adv-x="950" 
d="M795 346l28 -14l105 -238l-13 -31q-118 -88 -286 -88q-175 0 -300 104q-124 103 -124 310v348h-180v287h180v297l366 39l31 -19v-317h291v-287h-291v-303q0 -121 103 -121q45 0 90 33z" />
    <glyph glyph-name="u" unicode="u" 
d="M748 453v571h401v-1024h-328v111q-111 -134 -293 -136q-188 0 -308 123t-120 328v598h402v-571q0 -62 33 -101t90 -39t90 38t33 102z" />
    <glyph glyph-name="v" unicode="v" horiz-adv-x="1179" 
d="M811 1024h350l19 -27l-437 -997h-307l-436 997l18 27h375l199 -612z" />
    <glyph glyph-name="w" unicode="w" horiz-adv-x="1679" 
d="M1296 1024h365l18 -27l-352 -997h-307l-182 532l-183 -532h-307l-338 997l19 27h370l150 -580l176 580h225l187 -553z" />
    <glyph glyph-name="x" unicode="x" horiz-adv-x="1193" 
d="M1186 997l-367 -483l375 -487l-18 -27h-416l-180 264l-183 -264h-379l-18 27l377 487l-367 483l19 27h415l172 -258l172 258h379z" />
    <glyph glyph-name="y" unicode="y" horiz-adv-x="1175" 
d="M815 1024h344l19 -27l-451 -1054q-123 -287 -420 -287q-116 0 -205 47l-14 27l66 241l26 15q51 -23 105 -23q79 0 108 60l35 71l-426 903l18 27h392l204 -553z" />
    <glyph glyph-name="z" unicode="z" horiz-adv-x="1097" 
d="M1032 0h-958v285l475 452h-467v287h922v-287l-445 -450h473v-287z" />
    <glyph glyph-name="braceleft" unicode="{" horiz-adv-x="839" 
d="M793 -238h-111q-286 0 -393 100q-109 100 -109 378v86q0 93 -18 137q-12 28 -40 39.5t-79 11.5v246q93 0 115 42q22 41 22 146v86q0 277 109 377q107 100 393 100h111v-266h-50q-117 0 -154 -30q-38 -32 -38 -162v-205q0 -96 -64 -153q-64 -58 -163 -58q98 0 163 -57
q64 -58 64 -154v-205q0 -131 38 -161q37 -31 154 -31h50v-267z" />
    <glyph glyph-name="bar" unicode="|" horiz-adv-x="544" 
d="M416 -299h-287v1749h287v-1749z" />
    <glyph glyph-name="braceright" unicode="}" horiz-adv-x="839" 
d="M289 848v205q0 130 -38 162q-38 30 -155 30h-49v266h111q286 0 393 -100q108 -100 108 -377v-86q0 -91 19 -137q12 -28 40 -39.5t79 -11.5v-246q-93 0 -115 -42q-23 -43 -23 -146v-86q0 -276 -108 -377q-110 -101 -393 -101h-111v267h49q118 0 155 31q38 30 38 161v205
q0 95 65 154q64 57 162 57q-98 0 -162 58q-65 57 -65 153z" />
    <glyph glyph-name="asciitilde" unicode="~" horiz-adv-x="1204" 
d="M823 500q-68 0 -221 36q-155 35 -219 35q-129 0 -176 -71h-29l-104 188v29q85 121 309 121q88 0 247 -36q158 -36 193 -36q129 0 176 72h29l105 -189v-28q-27 -37 -49 -56q-25 -22 -94 -43q-67 -22 -167 -22z" />
    <glyph glyph-name="exclamdown" unicode="&#xa1;" horiz-adv-x="589" 
d="M460 651q-69 -69 -165 -69t-165 69q-69 67 -69 164q0 96 69 165t165 69t165 -69q68 -70 68 -165q0 -96 -68 -164zM463 -348h-336l-25 24l39 781l25 24h258l25 -24l38 -781z" />
    <glyph glyph-name="cent" unicode="&#xa2;" horiz-adv-x="1044" 
d="M604 856q-76 0 -125 -52t-49 -132q0 -82 49 -134q50 -53 125 -53q94 0 150 72h28l203 -188v-29q-124 -132 -295 -160v-205h-287v226q-154 49 -245 176q-92 128 -92 295t92 294q91 125 245 175v211h287v-191q171 -28 295 -160v-28l-203 -189h-28q-56 72 -150 72z" />
    <glyph glyph-name="sterling" unicode="&#xa3;" horiz-adv-x="1257" 
d="M772 1044q-72 0 -110.5 -38t-38.5 -107v-80h350v-287h-350v-245h559v-287h-1092v287h131v245h-131v287h131v80q0 114 44 205t121 146q149 106 349 106q142 0 264 -55t199 -152v-29l-199 -174h-28q-93 98 -199 98z" />
    <glyph glyph-name="currency" unicode="&#xa4;" horiz-adv-x="1433" 
d="M1210 432l160 -153l-237 -232l-181 172q-117 -45 -235 -45q-121 0 -234 45l-180 -172l-237 232l157 151q-71 113 -69 242q0 133 69 241l-157 154l237 231l180 -172q114 43 236 43q127 0 231 -45l183 174l237 -231l-160 -154q70 -109 70 -239t-70 -242zM570 525
q58 -60 147 -60q88 0 148 60q59 59 59 147q0 87 -59 148q-61 59 -148 59q-88 0 -147 -59q-60 -60 -60 -148t60 -147z" />
    <glyph glyph-name="yen" unicode="&#xa5;" horiz-adv-x="1435" 
d="M1376 1331l19 -31l-424 -737h178v-184h-221v-70h221v-184h-221v-125h-406v125h-221v184h221v70h-221v184h174l-438 737l18 31h398l274 -493l262 493h387z" />
    <glyph glyph-name="brokenbar" unicode="&#xa6;" horiz-adv-x="544" 
d="M129 698v752h287v-752h-287zM129 -299v793h287v-793h-287z" />
    <glyph glyph-name="section" unicode="&#xa7;" horiz-adv-x="1202" 
d="M926 987h-29q-101 94 -219 94q-117 0 -117 -77q0 -74 127 -113q91 -29 128 -42q42 -14 116 -50q70 -34 109 -71q40 -40 68 -100t28 -126q0 -164 -127 -264q63 -102 63 -201q0 -118 -76 -198q-77 -82 -189 -116q-111 -34 -247 -34q-315 0 -498 196v29l175 190h28
q45 -48 128 -85q80 -37 151 -37q50 0 82 20.5t32 50.5q0 27 -28 48q-31 21 -53 28q-5 1 -18.5 5.5t-28.5 9t-31 8.5q-197 56 -311 146q-113 89 -113 232q0 171 143 269q-78 84 -78 198q0 174 143 267q143 92 357 92q284 0 475 -170v-29zM465 563q0 -27 21 -49.5t50 -35.5
q26 -10 81 -30q42 -15 83 -32q62 33 64 90q8 55 -99 101q-27 11 -64 24q-29 9 -62 22q-74 -27 -74 -90z" />
    <glyph glyph-name="dieresis" unicode="&#xa8;" horiz-adv-x="1064" 
d="M436 1232q-61 -61 -147 -61t-146 61q-61 60 -61 146t61 147q60 60 146 60q85 0 147 -60q60 -61 60 -147t-60 -146zM923 1232q-61 -61 -147 -61t-146 61q-61 60 -61 146t61 147q60 60 146 60t147 -60q60 -61 60 -147t-60 -146z" />
    <glyph glyph-name="copyright" unicode="&#xa9;" horiz-adv-x="1536" 
d="M1270 172q-203 -197 -502 -197t-502 197t-203 492q0 294 204 493q203 199 501 199t501 -199q204 -199 204 -493q0 -295 -203 -492zM768 125q232 0 389 156q158 155 158 385q0 229 -158 385q-158 155 -389 155t-389 -155q-158 -156 -158 -385q0 -232 159 -386
q160 -155 388 -155zM786 268q-185 0 -306 113q-120 113 -120 289t120 289q119 112 306 112q207 0 336 -133v-23l-161 -153h-23q-39 61 -123 61q-63 0 -106 -45q-43 -44 -43 -112q0 -66 41 -108t106 -42q86 0 125 62h23l161 -154v-23q-129 -133 -336 -133z" />
    <glyph glyph-name="ordfeminine" unicode="&#xaa;" horiz-adv-x="792" 
d="M381 1352q131 0 224 -60q93 -61 93 -184v-399h-196v55q-82 -70 -189 -70q-119 0 -190 57q-72 55 -72 150q0 88 79 143q80 54 208 54q64 0 121 -17v21q0 37 -29 59.5t-74 22.5q-78 0 -137 -51h-20l-84 98v20q110 101 266 101zM371 838q39 0 63.5 22.5t24.5 52.5v39
q-39 14 -76 15q-39 0 -63.5 -18.5t-24.5 -47.5t20.5 -46t55.5 -17z" />
    <glyph glyph-name="guillemotleft" unicode="&#xab;" horiz-adv-x="1255" 
d="M653 907v-22l-243 -273l243 -274v-21l-180 -172h-18l-406 451v35l406 448h18zM1004 1079l180 -172v-22l-244 -273l244 -274v-21l-180 -172h-19l-405 451v35l405 448h19z" />
    <glyph glyph-name="registered" unicode="&#xae;" horiz-adv-x="921" 
d="M463 1395q168 0 284 -113q115 -112 115 -283q0 -166 -116 -279q-117 -114 -283 -114q-170 0 -287 114t-117 279q0 171 117 283q118 113 287 113zM255 796q86 -83 208 -83q124 0 207 82q84 83 84 204q0 125 -84 208q-85 83 -207 83t-208 -83q-85 -82 -85 -205
q0 -124 85 -206zM639 1063q0 -65 -66 -100l80 -144h-137l-67 125h-17v-125h-123v373h174q156 0 156 -129zM477 1090h-45v-62h45q33 0 33 31t-33 31z" />
    <glyph glyph-name="overscore" unicode="&#xaf;" horiz-adv-x="1146" 
d="M205 1239v246h737v-246h-737z" />
    <glyph glyph-name="degree" unicode="&#xb0;" horiz-adv-x="630" 
d="M315 827q-109 0 -186 78q-78 78 -78 187q0 112 78 188q77 76 186 76q111 0 188 -77t77 -187q0 -108 -77 -187q-76 -78 -188 -78zM315 1016q33 0 52.5 21.5t19.5 54.5t-19.5 54t-52.5 21q-31 0 -51 -21.5t-20 -53.5q0 -33 20 -54.5t51 -21.5z" />
    <glyph glyph-name="plusminus" unicode="&#xb1;" horiz-adv-x="1259" 
d="M795 1331v-385h379v-295h-379v-383h-330v383h-379v295h379v385h330zM1174 -137h-1088v293h1088v-293z" />
    <glyph glyph-name="acute" unicode="&#xb4;" horiz-adv-x="774" 
d="M41 1366l491 276h21l133 -258v-20l-528 -193h-21l-96 175v20z" />
    <glyph glyph-name="paragraph" unicode="&#xb6;" horiz-adv-x="1507" 
d="M1423 1450v-225h-512v-1485h-266v764h-80q-214 0 -365 125q-151 124 -151 352q0 227 150 348q148 121 366 121h858zM1075 1040h266v-1300h-266v1300z" />
    <glyph glyph-name="middot" unicode="&#xb7;" horiz-adv-x="598" 
d="M464 411q-69 -69 -165 -69t-164 69q-69 67 -69 165q0 96 69 165q68 68 164 68q95 0 165 -68q68 -70 68 -165q0 -97 -68 -165z" />
    <glyph glyph-name="cedilla" unicode="&#xb8;" horiz-adv-x="790" 
d="M428 -618q-194 0 -334 102v29l88 125h29q76 -48 176 -50q55 0 89 23.5t34 64.5q0 58 -63.5 82.5t-174.5 3.5l-41 27l82 264v23l217 2v-25l-47 -147q125 0 204 -66q79 -64 79 -170q0 -127 -94 -208q-95 -80 -244 -80z" />
    <glyph glyph-name="ordmasculine" unicode="&#xba;" horiz-adv-x="808" 
d="M403 698q-157 0 -254 93q-98 92 -98 237q0 143 99 236q98 92 253 92q157 0 257 -92q98 -93 98 -236q0 -145 -98 -237q-99 -93 -257 -93zM323 940q32 -35 81 -35t82 35q32 35 32 88q0 51 -32.5 86t-81.5 35q-50 0 -81 -34q-32 -35 -32 -87q0 -53 32 -88z" />
    <glyph glyph-name="guillemotright" unicode="&#xbb;" horiz-adv-x="1255" 
d="M270 1079l406 -448v-35l-406 -451h-18l-180 172v21l243 274l-243 273v22l180 172h18zM782 1079h19l405 -448v-35l-405 -451h-19l-180 172v21l244 274l-244 273v22z" />
    <glyph glyph-name="onequarter" unicode="&#xbc;" horiz-adv-x="1753" 
d="M561 590h-305v551h-207v235h512v-786zM233 -20l-18 28l1077 1364h295l19 -29l-1078 -1363h-295zM1589 -20h-262v141h-369v178l345 467h286v-451h86v-194h-86v-141zM1341 528l-155 -213h155v213z" />
    <glyph glyph-name="onehalf" unicode="&#xbd;" horiz-adv-x="1941" 
d="M561 590h-305v561h-207v225h512v-786zM244 -20l-19 28l1078 1364h294l19 -29l-1077 -1363h-295zM1870 -20h-639v190q201 141 264 205q68 68 68 117q0 34 -24.5 54.5t-59.5 20.5q-37 0 -87 -26q-51 -27 -85 -64h-21l-94 133v21q64 68 159 110q96 41 185 41q132 0 227 -64
q95 -65 95 -179q0 -115 -119 -228q-57 -56 -121 -104h252v-227z" />
    <glyph glyph-name="threequarters" unicode="&#xbe;" horiz-adv-x="1806" 
d="M569 1012q127 -66 127 -193q0 -109 -92 -175t-242 -66q-89 0 -179 38q-89 38 -132 99v20l105 123h20q56 -72 172 -72q36 0 59 17t23 47q0 32 -30 51t-78 19h-82v157h98q39 0 62.5 17.5t23.5 46.5t-23.5 46t-62.5 17q-76 0 -137 -55h-21l-84 135v21q110 98 277 98
q126 0 206 -63q78 -64 78 -166q0 -99 -88 -162zM283 -20l-19 28l1077 1364h295l19 -29l-1077 -1363h-295zM1642 -20h-262v141h-368v178l344 467h286v-451h87v-194h-87v-141zM1395 528l-156 -213h156v213z" />
    <glyph glyph-name="questiondown" unicode="&#xbf;" horiz-adv-x="1017" 
d="M675 718q-63 -63 -151 -63t-150 63q-63 62 -63 150t63 151q62 62 150 62q87 0 151 -62q62 -64 62 -151q0 -88 -62 -150zM504 -340q-187 0 -311 95q-123 95 -123 243q0 80 36.5 150.5t117.5 154.5q82 85 87 92q45 57 45 113v51h338v-53q0 -85 -86 -195q-20 -24 -70 -72
q-54 -51 -84 -91q-32 -43 -32 -76q0 -46 32 -72.5t89 -26.5q45 0 88.5 28t64.5 75l29 12l246 -96l8 -29q-47 -131 -175 -217t-300 -86z" />
    <glyph glyph-name="Agrave" unicode="&#xc0;" horiz-adv-x="1470" 
d="M1087 1630l-90 -155h-28l-539 219v28l139 244h29l489 -307v-29zM606 1331h258l613 -1300l-19 -31h-414l-77 201h-478l-81 -201h-396l-18 31zM735 807l-139 -340h268z" />
    <glyph glyph-name="Aacute" unicode="&#xc1;" horiz-adv-x="1470" 
d="M1057 1694l-539 -219h-29l-90 155v29l490 307h29l139 -244v-28zM606 1331h258l613 -1300l-19 -31h-414l-77 201h-478l-81 -201h-396l-18 31zM735 807l-139 -340h268z" />
    <glyph glyph-name="Acircumflex" unicode="&#xc2;" horiz-adv-x="1470" 
d="M735 1642l-303 -141h-29l-100 170v29l416 235h31l415 -235v-29l-100 -170h-29zM606 1331h258l613 -1300l-19 -31h-414l-77 201h-478l-81 -201h-396l-18 31zM735 807l-139 -340h268z" />
    <glyph glyph-name="Atilde" unicode="&#xc3;" horiz-adv-x="1470" 
d="M352 1505h-16l-23 15v254q78 102 203 102q73 0 226 -43q151 -43 208 -43q116 0 166 86h17l20 -14v-254q-76 -102 -203 -103q-76 0 -230 43q-156 43 -204 43q-119 0 -164 -86zM606 1331h258l613 -1300l-19 -31h-414l-77 201h-478l-81 -201h-396l-18 31zM735 807l-139 -340
h268z" />
    <glyph glyph-name="Adieresis" unicode="&#xc4;" horiz-adv-x="1470" 
d="M619 1547q-66 -66 -156 -66q-91 0 -155 66q-66 65 -66 155t66 156q65 65 155 65q89 0 156 -65q65 -67 65 -156q0 -90 -65 -155zM1158 1547q-66 -66 -156 -66q-92 0 -156 66q-66 65 -66 155t66 156q65 65 156 65q89 0 156 -65q65 -67 65 -156q0 -90 -65 -155zM606 1331
h258l613 -1300l-19 -31h-414l-77 201h-478l-81 -201h-396l-18 31zM735 807l-139 -340h268z" />
    <glyph glyph-name="Aring" unicode="&#xc5;" horiz-adv-x="1470" 
d="M933 1523q-83 -81 -197 -81q-116 0 -198 81q-83 81 -83 196q0 114 83 195q82 81 198 81q114 0 197 -81t83 -195q0 -115 -83 -196zM789 1774q-23 22 -53.5 22t-53.5 -22t-23 -55t23 -56t53.5 -23t53.5 23t23 56t-23 55zM606 1331h258l613 -1300l-19 -31h-414l-77 201h-478
l-81 -201h-396l-18 31zM735 807l-139 -340h268z" />
    <glyph glyph-name="AE" unicode="&#xc6;" horiz-adv-x="2181" 
d="M1483 512v-184h614v-328h-1020v201h-522l-141 -201h-434l-19 31l961 1300h1169v-327h-608v-185h463v-307h-463zM1077 946l-336 -479h336v479z" />
    <glyph glyph-name="Ccedilla" unicode="&#xc7;" horiz-adv-x="1394" 
d="M801 991q-137 0 -231 -93q-95 -93 -95 -232q0 -140 95 -233q94 -93 231 -93q171 0 289 129h28l246 -209v-29q-179 -212 -461 -249l-16 -52q125 0 204 -66q78 -65 78 -169q0 -127 -94 -208q-95 -81 -244 -81q-195 0 -333 102v29l88 125h28q77 -49 177 -49q55 0 88.5 23.5
t33.5 64.5q0 58 -63.5 82t-173.5 4l-41 27l53 168q-272 35 -449 225q-178 190 -178 459q0 297 212 494q211 196 530 196q166 0 316 -68q147 -69 245 -188v-29l-246 -209h-28q-119 129 -289 129z" />
    <glyph glyph-name="Egrave" unicode="&#xc8;" horiz-adv-x="1236" 
d="M467 1966h29l489 -307v-29l-90 -155h-29l-538 219v28zM1147 1331v-327h-608v-185h462v-307h-462v-184h614v-328h-1020v1331h1014z" />
    <glyph glyph-name="Eacute" unicode="&#xc9;" horiz-adv-x="1236" 
d="M340 1659l489 307h29l139 -244v-28l-538 -219h-29l-90 155v29zM1147 1331v-327h-608v-185h462v-307h-462v-184h614v-328h-1020v1331h1014z" />
    <glyph glyph-name="Ecircumflex" unicode="&#xca;" horiz-adv-x="1236" 
d="M643 1642l-303 -141h-29l-100 170v29l416 235h30l416 -235v-29l-100 -170h-29zM539 512v-184h614v-328h-1020v1331h1014v-327h-608v-185h462v-307h-462z" />
    <glyph glyph-name="Edieresis" unicode="&#xcb;" horiz-adv-x="1236" 
d="M527 1547q-66 -66 -156 -66q-91 0 -155 66q-66 65 -66 155t66 156q65 65 155 65q89 0 156 -65q65 -67 65 -156q0 -90 -65 -155zM1065 1547q-66 -66 -156 -66q-91 0 -155 66q-66 65 -66 155t66 156q65 65 155 65q89 0 156 -65q65 -67 65 -156q0 -90 -65 -155zM1147 1331
v-327h-608v-185h462v-307h-462v-184h614v-328h-1020v1331h1014z" />
    <glyph glyph-name="Igrave" unicode="&#xcc;" horiz-adv-x="671" 
d="M186 1966h29l490 -307v-29l-91 -155h-28l-539 219v28zM133 0v1331h406v-1331h-406z" />
    <glyph glyph-name="Iacute" unicode="&#xcd;" horiz-adv-x="671" 
d="M-16 1659l489 307h29l139 -244v-28l-539 -219h-28l-90 155v29zM133 0v1331h406v-1331h-406z" />
    <glyph glyph-name="Icircumflex" unicode="&#xce;" horiz-adv-x="671" 
d="M322 1935h30l416 -235v-29l-100 -170h-29l-301 141l-303 -141h-29l-100 170v29zM539 0h-406v1331h406v-1331z" />
    <glyph glyph-name="Idieresis" unicode="&#xcf;" horiz-adv-x="671" 
d="M222 1547q-66 -66 -156 -66q-91 0 -157 66q-65 65 -65 155q0 89 65 156q67 65 157 65q89 0 156 -65q65 -67 65 -156q0 -90 -65 -155zM760 1547q-66 -66 -156 -66t-155 66q-66 65 -66 155t66 156q65 65 155 65q89 0 156 -65q65 -67 65 -156q0 -90 -65 -155zM133 0v1331
h406v-1331h-406z" />
    <glyph glyph-name="Eth" unicode="&#xd0;" horiz-adv-x="1566" 
d="M176 1331h621q324 0 514 -181t190 -482q0 -304 -189 -485q-190 -183 -515 -183h-621v520h-139v287h139v524zM582 328h198q136 0 222 89q85 88 85 249q0 159 -84 249q-86 89 -223 89h-198v-197h280v-287h-280v-192z" />
    <glyph glyph-name="Ntilde" unicode="&#xd1;" horiz-adv-x="1519" 
d="M369 1505h-17l-22 15v254q78 102 202 102q73 0 226 -43q151 -43 209 -43q116 0 166 86h16l20 -14v-254q-76 -102 -202 -103q-76 0 -230 43q-156 43 -205 43q-118 0 -163 -86zM981 664v667h405v-1331h-266l-581 668v-668h-406v1331h266z" />
    <glyph glyph-name="Ograve" unicode="&#xd2;" horiz-adv-x="1609" 
d="M631 1966h28l490 -307v-29l-90 -155h-29l-538 219v28zM1335 173q-213 -198 -530 -198t-531 197q-213 196 -213 494t213 494q212 196 531 196q318 0 530 -196q213 -196 213 -494q0 -295 -213 -493zM571 432q95 -92 234 -92q138 0 235 92q95 92 95 234q0 141 -95 233
q-97 92 -235 92q-139 0 -234 -92q-96 -91 -96 -233t96 -234z" />
    <glyph glyph-name="Oacute" unicode="&#xd3;" horiz-adv-x="1609" 
d="M504 1659l489 307h29l139 -244v-28l-538 -219h-29l-90 155v29zM1335 173q-213 -198 -530 -198t-531 197q-213 196 -213 494t213 494q212 196 531 196q318 0 530 -196q213 -196 213 -494q0 -295 -213 -493zM571 432q95 -92 234 -92q138 0 235 92q95 92 95 234
q0 141 -95 233q-97 92 -235 92q-139 0 -234 -92q-96 -91 -96 -233t96 -234z" />
    <glyph glyph-name="Ocircumflex" unicode="&#xd4;" horiz-adv-x="1609" 
d="M807 1642l-303 -141h-29l-100 170v29l416 235h30l416 -235v-29l-100 -170h-29zM274 1160q212 196 531 196q318 0 530 -196q213 -196 213 -494q0 -295 -213 -493t-530 -198t-531 197q-213 196 -213 494t213 494zM571 432q95 -92 234 -92q138 0 235 92q95 92 95 234
q0 141 -95 233q-97 92 -235 92q-139 0 -234 -92q-96 -91 -96 -233t96 -234z" />
    <glyph glyph-name="Otilde" unicode="&#xd5;" horiz-adv-x="1609" 
d="M1022 1505q-76 0 -230 43q-156 43 -204 43q-119 0 -164 -86h-16l-23 15v254q78 102 203 102q73 0 226 -43q151 -43 208 -43q116 0 166 86h16l21 -14v-254q-76 -103 -203 -103zM1335 173q-213 -198 -530 -198t-531 197q-213 196 -213 494t213 494q212 196 531 196
q318 0 530 -196q213 -196 213 -494q0 -295 -213 -493zM571 432q95 -92 234 -92q138 0 235 92q95 92 95 234q0 141 -95 233q-97 92 -235 92q-139 0 -234 -92q-96 -91 -96 -233t96 -234z" />
    <glyph glyph-name="Odieresis" unicode="&#xd6;" horiz-adv-x="1609" 
d="M691 1547q-66 -66 -156 -66q-91 0 -156 66q-66 65 -66 155t66 156q65 65 156 65q89 0 156 -65q65 -67 65 -156q0 -90 -65 -155zM1229 1547q-66 -66 -156 -66q-91 0 -155 66q-66 65 -66 155t66 156q65 65 155 65q89 0 156 -65q65 -67 65 -156q0 -90 -65 -155zM1335 173
q-213 -198 -530 -198t-531 197q-213 196 -213 494t213 494q212 196 531 196q318 0 530 -196q213 -196 213 -494q0 -295 -213 -493zM571 432q95 -92 234 -92q138 0 235 92q95 92 95 234q0 141 -95 233q-97 92 -235 92q-139 0 -234 -92q-96 -91 -96 -233t96 -234z" />
    <glyph glyph-name="multiply" unicode="&#xd7;" horiz-adv-x="1290" 
d="M641 440l-340 -352l-238 238l349 344l-349 344l250 243l334 -348l344 351l238 -238l-352 -342l352 -346l-246 -246z" />
    <glyph glyph-name="Oslash" unicode="&#xd8;" horiz-adv-x="1609" 
d="M1536 1460l-201 -301q213 -197 213 -493q0 -295 -213 -493t-530 -198q-127 0 -232 31l-84 -127h-374l-19 31l176 264q-211 199 -211 492q0 298 213 494q212 196 531 196q126 0 231 -31l111 166h371zM571 432q95 -92 234 -92q138 0 235 92q95 92 95 234q0 141 -95 233
q-97 92 -235 92q-139 0 -234 -92q-96 -91 -96 -233t96 -234z" />
    <glyph glyph-name="Ugrave" unicode="&#xd9;" horiz-adv-x="1517" 
d="M588 1966h28l490 -307v-29l-90 -155h-29l-538 219v28zM113 627v704h405v-729q0 -118 68 -192t176 -74t176 74t68 192v729h399v-704q0 -293 -177 -472q-177 -180 -466 -180q-292 0 -471 180q-178 178 -178 472z" />
    <glyph glyph-name="Uacute" unicode="&#xda;" horiz-adv-x="1517" 
d="M461 1659l489 307h29l139 -244v-28l-538 -219h-29l-90 155v29zM113 627v704h405v-729q0 -118 68 -192t176 -74t176 74t68 192v729h399v-704q0 -293 -177 -472q-177 -180 -466 -180q-292 0 -471 180q-178 178 -178 472z" />
    <glyph glyph-name="Ucircumflex" unicode="&#xdb;" horiz-adv-x="1517" 
d="M764 1642l-303 -141h-29l-100 170v29l416 235h30l416 -235v-29l-100 -170h-29zM1006 602v729h399v-704q0 -293 -177 -472q-177 -180 -466 -180q-292 0 -471 180q-178 178 -178 472v704h405v-729q0 -118 68 -192t176 -74t176 74t68 192z" />
    <glyph glyph-name="Udieresis" unicode="&#xdc;" horiz-adv-x="1517" 
d="M648 1547q-66 -66 -156 -66q-92 0 -156 66q-66 65 -66 155t66 156q65 65 156 65q89 0 156 -65q65 -67 65 -156q0 -90 -65 -155zM1186 1547q-66 -66 -156 -66t-155 66q-66 65 -66 155t66 156q65 65 155 65q89 0 156 -65q65 -67 65 -156q0 -90 -65 -155zM113 627v704h405
v-729q0 -118 68 -192t176 -74t176 74t68 192v729h399v-704q0 -293 -177 -472q-177 -180 -466 -180q-292 0 -471 180q-178 178 -178 472z" />
    <glyph glyph-name="Yacute" unicode="&#xdd;" horiz-adv-x="1374" 
d="M1047 1694l-539 -219h-29l-90 155v29l490 307h28l140 -244v-28zM1341 1331l19 -31l-467 -811v-489h-406v483l-485 817l18 31h398l274 -493l262 493h387z" />
    <glyph glyph-name="Thorn" unicode="&#xde;" horiz-adv-x="1357" 
d="M539 0h-406v1331h406v-201h225q259 0 399 -121q140 -122 140 -331q0 -211 -139 -334q-140 -124 -400 -119h-225v-225zM539 801v-271h213q60 0 98.5 36.5t38.5 99.5t-42 99t-95 36h-213z" />
    <glyph glyph-name="germandbls" unicode="&#xdf;" horiz-adv-x="1329" 
d="M1024 745q118 -40 188 -139q68 -98 68 -229q0 -174 -126 -288t-320 -114q-165 0 -269 68l-18 29l108 241l33 19q44 -29 82 -29q63 0 102 43t39 111t-47 110.5t-121 42.5h-110l2 242h20q53 0 87 33t34 84t-35 84q-37 32 -93 32q-59 0 -96 -40q-38 -41 -38 -107v-938h-401
v883q0 255 145 394q146 140 389 140q216 0 358 -116q140 -117 140 -297q0 -165 -121 -259z" />
    <glyph glyph-name="agrave" unicode="&#xe0;" horiz-adv-x="1167" 
d="M920 1346l-97 -175h-20l-529 193v20l136 258h20l490 -276v-20zM557 1049q202 0 346 -91q77 -50 120.5 -139.5t43.5 -210.5v-608h-313v82q-135 -105 -310 -107q-181 0 -293 89q-112 88 -112 233q0 157 122 255q121 97 320 97q95 0 217 -39v29q0 57 -60 93t-146 36
q-118 0 -216 -70h-28l-121 195v29q85 64 203 95q120 32 227 32zM551 211q69 0 113 42q43 42 43 91v49q-77 37 -156 37q-63 0 -101 -30t-38 -80q0 -49 38 -79t101 -30z" />
    <glyph glyph-name="aacute" unicode="&#xe1;" horiz-adv-x="1167" 
d="M897 1364l-528 -193h-21l-96 175v20l491 276h21l133 -258v-20zM557 1049q202 0 346 -91q77 -50 120.5 -139.5t43.5 -210.5v-608h-313v82q-135 -105 -310 -107q-181 0 -293 89q-112 88 -112 233q0 157 122 255q121 97 320 97q95 0 217 -39v29q0 57 -60 93t-146 36
q-118 0 -216 -70h-28l-121 195v29q85 64 203 95q120 32 227 32zM551 211q69 0 113 42q43 42 43 91v49q-77 37 -156 37q-63 0 -101 -30t-38 -80q0 -49 38 -79t101 -30z" />
    <glyph glyph-name="acircumflex" unicode="&#xe2;" horiz-adv-x="1167" 
d="M598 1327l-287 -135h-20l-103 160v20l394 238h32l394 -238v-20l-103 -160h-20zM557 1049q202 0 346 -91q77 -50 120.5 -139.5t43.5 -210.5v-608h-313v82q-135 -105 -310 -107q-181 0 -293 89q-112 88 -112 233q0 157 122 255q121 97 320 97q95 0 217 -39v29q0 57 -60 93
t-146 36q-118 0 -216 -70h-28l-121 195v29q85 64 203 95q120 32 227 32zM551 211q69 0 113 42q43 42 43 91v49q-77 37 -156 37q-63 0 -101 -30t-38 -80q0 -49 38 -79t101 -30z" />
    <glyph glyph-name="atilde" unicode="&#xe3;" horiz-adv-x="1167" 
d="M264 1210h-16l-23 17v223q79 94 213 94q68 0 173 -40t153 -40q123 0 168 80h16l23 -16v-223q-79 -93 -213 -95q-68 0 -179 40q-113 40 -153 40q-117 0 -162 -80zM557 1049q202 0 346 -91q77 -50 120.5 -139.5t43.5 -210.5v-608h-313v82q-135 -105 -310 -107
q-181 0 -293 89q-112 88 -112 233q0 157 122 255q121 97 320 97q95 0 217 -39v29q0 57 -60 93t-146 36q-118 0 -216 -70h-28l-121 195v29q85 64 203 95q120 32 227 32zM551 211q69 0 113 42q43 42 43 91v49q-77 37 -156 37q-63 0 -101 -30t-38 -80q0 -49 38 -79t101 -30z
" />
    <glyph glyph-name="adieresis" unicode="&#xe4;" horiz-adv-x="1167" 
d="M501 1232q-61 -61 -147 -61t-146 61q-61 60 -61 146t61 147q60 60 146 60t147 -60q60 -61 60 -147t-60 -146zM989 1232q-61 -61 -147 -61t-146 61q-61 60 -61 146t61 147q60 60 146 60t147 -60q60 -61 60 -147t-60 -146zM557 1049q202 0 346 -91q77 -50 120.5 -139.5
t43.5 -210.5v-608h-313v82q-135 -105 -310 -107q-181 0 -293 89q-112 88 -112 233q0 157 122 255q121 97 320 97q95 0 217 -39v29q0 57 -60 93t-146 36q-118 0 -216 -70h-28l-121 195v29q85 64 203 95q120 32 227 32zM551 211q69 0 113 42q43 42 43 91v49q-77 37 -156 37
q-63 0 -101 -30t-38 -80q0 -49 38 -79t101 -30z" />
    <glyph glyph-name="aring" unicode="&#xe5;" horiz-adv-x="1167" 
d="M598 1116q-122 0 -205 82q-84 82 -84 197q0 113 84 196q83 82 205 82t205 -82q84 -82 84 -196q0 -115 -85 -197t-204 -82zM653 1448q-22 22 -55 22t-54 -22q-22 -22 -22 -53t22 -53q21 -22 54 -22t55 22q21 22 21 53t-21 53zM557 1049q202 0 346 -91q77 -50 120.5 -139.5
t43.5 -210.5v-608h-313v82q-135 -105 -310 -107q-181 0 -293 89q-112 88 -112 233q0 157 122 255q121 97 320 97q95 0 217 -39v29q0 57 -60 93t-146 36q-118 0 -216 -70h-28l-121 195v29q85 64 203 95q120 32 227 32zM551 211q69 0 113 42q43 42 43 91v49q-77 37 -156 37
q-63 0 -101 -30t-38 -80q0 -49 38 -79t101 -30z" />
    <glyph glyph-name="ae" unicode="&#xe6;" horiz-adv-x="1871" 
d="M1812 428h-708q10 -82 67.5 -126t149.5 -44q149 0 246 92h28l168 -166v-28q-162 -179 -467 -181q-262 0 -422 156q-166 -160 -430 -156q-181 0 -293 89q-112 88 -112 233q0 157 122 255q121 97 320 97q95 0 217 -39v29q0 57 -60 93t-146 36q-118 0 -216 -70h-28l-121 195
v29q85 64 203 95q120 32 227 32q236 0 369 -109q146 109 356 109q239 0 391 -148q146 -146 148 -381q-2 -52 -9 -92zM1270 780q-141 0 -166 -145h330q-8 59 -48 98q-47 47 -116 47zM551 211q69 0 113 42q43 42 43 91v49q-77 37 -156 37q-63 0 -101 -30t-38 -80q0 -49 38 -79
t101 -30z" />
    <glyph glyph-name="ccedilla" unicode="&#xe7;" horiz-adv-x="1071" 
d="M633 711q-81 0 -134 -56q-53 -58 -53 -143q0 -86 53 -142q53 -57 134 -57q101 0 162 76h28l219 -205v-28q-148 -157 -358 -176l-16 -50q124 0 204 -66q78 -65 78 -169q0 -127 -94 -208t-244 -81q-195 0 -333 102v29l88 125h28q77 -49 176 -49q55 0 89 23.5t34 64.5
q0 58 -63.5 82t-173.5 4l-41 27l55 178q-187 40 -303 183q-115 142 -115 337q0 234 160 385q161 152 401 152q259 0 428 -181v-28l-219 -205h-28q-61 76 -162 76z" />
    <glyph glyph-name="egrave" unicode="&#xe8;" horiz-adv-x="1206" 
d="M930 1346l-96 -175h-21l-528 193v20l135 258h20l490 -276v-20zM1147 428h-709q10 -82 67.5 -126t149.5 -44q149 0 246 92h29l168 -166v-28q-162 -179 -467 -181q-257 0 -417 151q-161 150 -161 386t157 387q158 150 406 150q238 0 392 -148q147 -147 147 -381
q0 -49 -8 -92zM604 780q-141 0 -166 -145h330q-8 59 -47 98q-47 47 -117 47z" />
    <glyph glyph-name="eacute" unicode="&#xe9;" horiz-adv-x="1206" 
d="M907 1364l-528 -193h-21l-96 175v20l492 276h20l133 -258v-20zM1147 428h-709q10 -82 67.5 -126t149.5 -44q149 0 246 92h29l168 -166v-28q-162 -179 -467 -181q-257 0 -417 151q-161 150 -161 386t157 387q158 150 406 150q238 0 392 -148q147 -147 147 -381
q0 -49 -8 -92zM604 780q-141 0 -166 -145h330q-8 59 -47 98q-47 47 -117 47z" />
    <glyph glyph-name="ecircumflex" unicode="&#xea;" horiz-adv-x="1206" 
d="M608 1327l-286 -135h-21l-102 160v20l393 238h33l393 -238v-20l-103 -160h-20zM1147 428h-709q10 -82 67.5 -126t149.5 -44q149 0 246 92h29l168 -166v-28q-162 -179 -467 -181q-257 0 -417 151q-161 150 -161 386t157 387q158 150 406 150q238 0 392 -148
q147 -147 147 -381q0 -49 -8 -92zM604 780q-141 0 -166 -145h330q-8 59 -47 98q-47 47 -117 47z" />
    <glyph glyph-name="edieresis" unicode="&#xeb;" horiz-adv-x="1206" 
d="M511 1232q-60 -61 -146 -61t-146 61q-61 60 -61 146t61 147q60 60 146 60t146 -60q60 -61 60 -147t-60 -146zM999 1232q-61 -61 -147 -61t-146 61q-61 60 -61 146t61 147q60 60 146 60t147 -60q60 -61 60 -147t-60 -146zM1147 428h-709q10 -82 67.5 -126t149.5 -44
q149 0 246 92h29l168 -166v-28q-162 -179 -467 -181q-257 0 -417 151q-161 150 -161 386t157 387q158 150 406 150q238 0 392 -148q147 -147 147 -381q0 -49 -8 -92zM604 780q-141 0 -166 -145h330q-8 59 -47 98q-47 47 -117 47z" />
    <glyph glyph-name="igrave" unicode="&#xec;" horiz-adv-x="626" 
d="M125 1642h20l490 -276v-20l-96 -175h-21l-528 193v20zM514 0h-401v1024h401v-1024z" />
    <glyph glyph-name="iacute" unicode="&#xed;" horiz-adv-x="626" 
d="M-33 1366l492 276h20l133 -258v-20l-528 -193h-21l-96 175v20zM514 0h-401v1024h401v-1024z" />
    <glyph glyph-name="icircumflex" unicode="&#xee;" horiz-adv-x="626" 
d="M297 1610h31l362 -238v-20l-94 -160h-18l-265 135l-266 -135h-18l-95 160v20zM514 0h-401v1024h401v-1024z" />
    <glyph glyph-name="idieresis" unicode="&#xef;" horiz-adv-x="626" 
d="M216 1232q-60 -61 -146 -61t-147 61q-60 60 -60 146t60 147q61 60 147 60t146 -60q60 -61 60 -147t-60 -146zM704 1232q-61 -61 -147 -61t-146 61q-61 60 -61 146t61 147q60 60 146 60q85 0 147 -60q60 -61 60 -147t-60 -146zM514 0h-401v1024h401v-1024z" />
    <glyph glyph-name="eth" unicode="&#xf0;" horiz-adv-x="1132" 
d="M928 1178l-131 -48q281 -357 280 -651q-5 -224 -148 -363q-145 -141 -368 -141q-224 0 -366 131q-142 130 -142 336q0 205 131 334t316 129q25 0 61 -4q-35 48 -94 111l-234 -84l-28 18v176l104 37q-65 58 -69 62v28l235 205h29q50 -50 160 -168l235 86l29 -18v-176z
M567 274q67 0 111 47q43 46 43 117q0 74 -43 121t-112 47q-70 0 -113 -46t-43 -119t44 -120t113 -47z" />
    <glyph glyph-name="ntilde" unicode="&#xf1;" horiz-adv-x="1282" 
d="M354 1210h-16l-23 17v223q79 94 213 94q68 0 173 -40t153 -40q123 0 168 80h16l23 -16v-223q-79 -93 -213 -95q-68 0 -179 40q-113 40 -153 40q-117 0 -162 -80zM754 1049q188 0 308 -126t120 -325v-598h-402v569q0 65 -35 103.5t-100 38.5q-59 0 -95 -39t-36 -103v-569
h-401v1024h327v-125q118 150 314 150z" />
    <glyph glyph-name="ograve" unicode="&#xf2;" 
d="M442 1642h21l489 -276v-20l-96 -175h-20l-529 193v20zM1046 127q-164 -152 -415 -152t-415 152q-163 151 -163 385t163 385q164 152 415 152t415 -152q162 -152 162 -385q0 -234 -162 -385zM499 370q53 -57 132 -57t132 57q52 55 52 142t-52 143q-53 56 -132 56t-132 -56
q-53 -58 -53 -143q0 -86 53 -142z" />
    <glyph glyph-name="oacute" unicode="&#xf3;" 
d="M285 1366l491 276h21l133 -258v-20l-529 -193h-20l-96 175v20zM1046 127q-164 -152 -415 -152t-415 152q-163 151 -163 385t163 385q164 152 415 152t415 -152q162 -152 162 -385q0 -234 -162 -385zM499 370q53 -57 132 -57t132 57q52 55 52 142t-52 143q-53 56 -132 56
t-132 -56q-53 -58 -53 -143q0 -86 53 -142z" />
    <glyph glyph-name="ocircumflex" unicode="&#xf4;" 
d="M631 1327l-287 -135h-20l-103 160v20l393 238h33l393 -238v-20l-102 -160h-20zM216 897q164 152 415 152t415 -152q162 -152 162 -385q0 -234 -162 -385q-164 -152 -415 -152t-415 152q-163 151 -163 385t163 385zM499 370q53 -57 132 -57t132 57q52 55 52 142t-52 143
q-53 56 -132 56t-132 -56q-53 -58 -53 -143q0 -86 53 -142z" />
    <glyph glyph-name="otilde" unicode="&#xf5;" 
d="M791 1210q-68 0 -179 40q-113 40 -153 40q-117 0 -162 -80h-16l-23 17v223q79 94 213 94q68 0 173 -40t153 -40q123 0 168 80h16l23 -16v-223q-80 -95 -213 -95zM1046 127q-164 -152 -415 -152t-415 152q-163 151 -163 385t163 385q164 152 415 152t415 -152
q162 -152 162 -385q0 -234 -162 -385zM499 370q53 -57 132 -57t132 57q52 55 52 142t-52 143q-53 56 -132 56t-132 -56q-53 -58 -53 -143q0 -86 53 -142z" />
    <glyph glyph-name="odieresis" unicode="&#xf6;" 
d="M534 1232q-61 -61 -147 -61t-146 61q-61 60 -61 146t61 147q60 60 146 60q85 0 147 -60q60 -61 60 -147t-60 -146zM1021 1232q-60 -61 -146 -61q-87 0 -147 61q-60 60 -60 146t60 147q60 60 147 60q86 0 146 -60q60 -61 60 -147t-60 -146zM1046 127q-164 -152 -415 -152
t-415 152q-163 151 -163 385t163 385q164 152 415 152t415 -152q162 -152 162 -385q0 -234 -162 -385zM499 370q53 -57 132 -57t132 57q52 55 52 142t-52 143q-53 56 -132 56t-132 -56q-53 -58 -53 -143q0 -86 53 -142z" />
    <glyph glyph-name="divide" unicode="&#xf7;" horiz-adv-x="1177" 
d="M610 852q-88 0 -149 61q-62 60 -62 148t62 150q61 61 149 61q87 0 148 -61t61 -150q0 -88 -61 -148q-61 -61 -148 -61zM55 469v287h1065v-287h-1065zM610 -47q-88 0 -149 61q-62 60 -62 148t62 150q61 61 149 61q87 0 148 -61t61 -150q0 -88 -61 -148q-61 -61 -148 -61z
" />
    <glyph glyph-name="oslash" unicode="&#xf8;" horiz-adv-x="1265" 
d="M1235 1155l18 -29l-178 -258q135 -146 135 -356q0 -234 -162 -385q-164 -152 -415 -152q-86 0 -158 19l-67 -98h-355l-18 28l158 230q-137 147 -138 358q0 234 163 385q164 152 415 152q86 0 162 -19l86 125h354zM501 370q53 -57 132 -57t132 57q52 55 52 142t-52 143
q-53 56 -132 56t-132 -56q-52 -56 -52 -143t52 -142z" />
    <glyph glyph-name="ugrave" unicode="&#xf9;" 
d="M948 1346l-96 -175h-21l-528 193v20l135 258h21l489 -276v-20zM748 453v571h401v-1024h-328v111q-111 -134 -293 -136q-188 0 -308 123t-120 328v598h402v-571q0 -62 33 -101t90 -39t90 38t33 102z" />
    <glyph glyph-name="uacute" unicode="&#xfa;" 
d="M926 1364l-529 -193h-20l-96 175v20l491 276h21l133 -258v-20zM748 453v571h401v-1024h-328v111q-111 -134 -293 -136q-188 0 -308 123t-120 328v598h402v-571q0 -62 33 -101t90 -39t90 38t33 102z" />
    <glyph glyph-name="ucircumflex" unicode="&#xfb;" 
d="M627 1327l-287 -135h-21l-102 160v20l393 238h33l393 -238v-20l-102 -160h-21zM748 453v571h401v-1024h-328v111q-111 -134 -293 -136q-188 0 -308 123t-120 328v598h402v-571q0 -62 33 -101t90 -39t90 38t33 102z" />
    <glyph glyph-name="udieresis" unicode="&#xfc;" 
d="M530 1232q-61 -61 -147 -61t-146 61q-61 60 -61 146t61 147q60 60 146 60q85 0 147 -60q60 -61 60 -147t-60 -146zM1017 1232q-61 -61 -147 -61t-146 61q-60 60 -60 146t60 147q60 60 146 60t147 -60q60 -61 60 -147t-60 -146zM748 453v571h401v-1024h-328v111
q-111 -134 -293 -136q-188 0 -308 123t-120 328v598h402v-571q0 -62 33 -101t90 -39t90 38t33 102z" />
    <glyph glyph-name="yacute" unicode="&#xfd;" horiz-adv-x="1175" 
d="M911 1364l-528 -193h-21l-96 175v20l492 276h20l133 -258v-20zM815 1024h344l19 -27l-451 -1054q-123 -287 -420 -287q-116 0 -205 47l-14 27l66 241l26 15q51 -23 105 -23q79 0 108 60l35 71l-426 903l18 27h392l204 -553z" />
    <glyph glyph-name="thorn" unicode="&#xfe;" horiz-adv-x="1310" 
d="M748 1049q218 0 364 -155q145 -154 145 -382q0 -229 -145 -383t-364 -154q-122 0 -234 60v-354h-401v1650h327v-389q139 107 308 107zM547 369q51 -56 133 -56t133 56q51 55 51 143t-51 144q-51 55 -133 55t-133 -55q-51 -56 -51 -144t51 -143z" />
    <glyph glyph-name="ydieresis" unicode="&#xff;" horiz-adv-x="1175" 
d="M515 1232q-60 -61 -146 -61t-146 61q-61 60 -61 146t61 147q60 60 146 60t146 -60q60 -61 60 -147t-60 -146zM1003 1232q-61 -61 -147 -61t-146 61q-61 60 -61 146t61 147q60 60 146 60t147 -60q60 -61 60 -147t-60 -146zM815 1024h344l19 -27l-451 -1054
q-123 -287 -420 -287q-116 0 -205 47l-14 27l66 241l26 15q51 -23 105 -23q79 0 108 60l35 71l-426 903l18 27h392l204 -553z" />
    <glyph glyph-name="Amacron" unicode="&#x100;" horiz-adv-x="1470" 
d="M350 1778h766v-269h-766v269zM606 1331h258l613 -1300l-19 -31h-414l-77 201h-478l-81 -201h-396l-18 31zM735 807l-139 -340h268z" />
    <glyph glyph-name="amacron" unicode="&#x101;" horiz-adv-x="1167" 
d="M229 1485h738v-246h-738v246zM557 1049q202 0 346 -91q77 -50 120.5 -139.5t43.5 -210.5v-608h-313v82q-135 -105 -310 -107q-181 0 -293 89q-112 88 -112 233q0 157 122 255q121 97 320 97q95 0 217 -39v29q0 57 -60 93t-146 36q-118 0 -216 -70h-28l-121 195v29
q85 64 203 95q120 32 227 32zM551 211q69 0 113 42q43 42 43 91v49q-77 37 -156 37q-63 0 -101 -30t-38 -80q0 -49 38 -79t101 -30z" />
    <glyph glyph-name="Abreve" unicode="&#x102;" horiz-adv-x="1470" 
d="M1004 1586q-105 -105 -267 -105q-163 0 -266 105q-103 103 -123 269h254q16 -145 135 -145q57 0 93 38t42 107h254q-18 -163 -122 -269zM606 1331h258l613 -1300l-19 -31h-414l-77 201h-478l-81 -201h-396l-18 31zM735 807l-139 -340h268z" />
    <glyph glyph-name="abreve" unicode="&#x103;" horiz-adv-x="1167" 
d="M869 1307q-112 -107 -271 -107q-160 0 -270 107q-111 107 -129 268h254q10 -66 50 -105.5t95 -39.5t95 39.5t50 105.5h254q-18 -161 -128 -268zM557 1049q202 0 346 -91q77 -50 120.5 -139.5t43.5 -210.5v-608h-313v82q-135 -105 -310 -107q-181 0 -293 89
q-112 88 -112 233q0 157 122 255q121 97 320 97q95 0 217 -39v29q0 57 -60 93t-146 36q-118 0 -216 -70h-28l-121 195v29q85 64 203 95q120 32 227 32zM551 211q69 0 113 42q43 42 43 91v49q-77 37 -156 37q-63 0 -101 -30t-38 -80q0 -49 38 -79t101 -30z" />
    <glyph glyph-name="Aogonek" unicode="&#x104;" horiz-adv-x="1470" 
d="M1554 -289l29 -6l59 -149l-2 -27q-92 -53 -200 -53q-145 0 -239 79q-95 80 -95 207q0 134 117 238h-179l-77 201h-478l-81 -201h-396l-18 31l612 1300h258l613 -1300l-19 -31q-92 -86 -92 -176q0 -57 34 -93t87 -36q39 0 67 16zM735 807l-139 -340h268z" />
    <glyph glyph-name="aogonek" unicode="&#x105;" horiz-adv-x="1167" 
d="M1163 -289l29 -6l59 -149l-2 -27q-92 -53 -200 -53q-145 0 -239 79q-95 80 -95 207q0 134 116 238h-77v82q-135 -105 -310 -107q-181 0 -293 89q-112 88 -112 233q0 157 122 255q121 97 320 97q95 0 217 -39v29q0 57 -60 93t-146 36q-118 0 -216 -70h-28l-121 195v29
q85 64 203 95q120 32 227 32q202 0 346 -91q77 -50 120.5 -139.5t43.5 -210.5v-608q-92 -86 -92 -176q0 -57 33.5 -93t87.5 -36q39 0 67 16zM551 211q69 0 113 42q43 42 43 91v49q-77 37 -156 37q-63 0 -101 -30t-38 -80q0 -49 38 -79t101 -30z" />
    <glyph glyph-name="Cacute" unicode="&#x106;" horiz-adv-x="1394" 
d="M502 1659l489 307h29l139 -244v-28l-538 -219h-29l-90 155v29zM797 -25q-311 0 -523 198q-213 198 -213 493q0 297 212 494q211 196 530 196q166 0 316 -68q147 -69 245 -188v-29l-246 -209h-28q-119 129 -289 129q-137 0 -231 -93q-95 -93 -95 -232q0 -140 95 -233
q94 -93 231 -93q171 0 289 129h28l246 -209v-29q-213 -256 -567 -256z" />
    <glyph glyph-name="cacute" unicode="&#x107;" horiz-adv-x="1071" 
d="M221 1366l492 276h20l133 -258v-20l-528 -193h-21l-96 175v20zM614 -25q-241 0 -401 152q-160 151 -160 385t160 385q161 152 401 152q259 0 428 -181v-28l-219 -205h-28q-61 76 -162 76q-81 0 -134 -56q-53 -58 -53 -143q0 -86 53 -142q53 -57 134 -57q101 0 162 76h28
l219 -205v-28q-169 -181 -428 -181z" />
    <glyph glyph-name="Cdotaccent" unicode="&#x10a;" horiz-adv-x="1394" 
d="M801 1481q-94 0 -163 69q-69 68 -69 162t69 164t163 70q96 0 165 -70q68 -71 68 -164q0 -95 -70 -162q-70 -69 -163 -69zM797 -25q-311 0 -523 198q-213 198 -213 493q0 297 212 494q211 196 530 196q166 0 316 -68q147 -69 245 -188v-29l-246 -209h-28
q-119 129 -289 129q-137 0 -231 -93q-95 -93 -95 -232q0 -140 95 -233q94 -93 231 -93q171 0 289 129h28l246 -209v-29q-213 -256 -567 -256z" />
    <glyph glyph-name="cdotaccent" unicode="&#x10b;" horiz-adv-x="1071" 
d="M733 1245q-69 -69 -165 -69q-98 0 -165 69q-69 67 -69 164q0 96 69 165q68 68 165 68q95 0 165 -68q68 -70 68 -165q0 -96 -68 -164zM614 -25q-241 0 -401 152q-160 151 -160 385t160 385q161 152 401 152q259 0 428 -181v-28l-219 -205h-28q-61 76 -162 76
q-81 0 -134 -56q-53 -58 -53 -143q0 -86 53 -142q53 -57 134 -57q101 0 162 76h28l219 -205v-28q-169 -181 -428 -181z" />
    <glyph glyph-name="Ccaron" unicode="&#x10c;" horiz-adv-x="1394" 
d="M1223 1743l-404 -236h-31l-403 236v29l88 149h29l303 -141l301 141h29l88 -149v-29zM801 991q-137 0 -231 -93q-95 -93 -95 -232q0 -140 95 -233q94 -93 231 -93q171 0 289 129h28l246 -209v-29q-213 -256 -567 -256q-311 0 -523 198q-213 198 -213 493q0 297 212 494
q211 196 530 196q166 0 316 -68q147 -69 245 -188v-29l-246 -209h-28q-119 129 -289 129z" />
    <glyph glyph-name="ccaron" unicode="&#x10d;" horiz-adv-x="1071" 
d="M977 1409l-393 -238h-33l-393 238v21l102 159h21l286 -135l287 135h20l103 -159v-21zM633 711q-81 0 -134 -56q-53 -58 -53 -143q0 -86 53 -142q53 -57 134 -57q101 0 162 76h28l219 -205v-28q-169 -179 -428 -181q-241 0 -401 152q-160 151 -160 385t160 385
q161 152 401 152q259 0 428 -181v-28l-219 -205h-28q-61 76 -162 76z" />
    <glyph glyph-name="Dcaron" unicode="&#x10e;" horiz-adv-x="1523" 
d="M1083 1743l-403 -236h-31l-403 236v29l88 149h28l304 -141l301 141h28l88 -149v-29zM133 1331h621q324 0 514 -181t190 -482q0 -304 -189 -485q-191 -183 -515 -183h-621v1331zM539 328h198q136 0 222 89q85 88 85 249q0 160 -85 249q-86 89 -222 89h-198v-676z" />
    <glyph glyph-name="dcaron" unicode="&#x10f;" horiz-adv-x="1513" 
d="M1405 1454h285l18 -20l-158 -430l-24 -21h-193l-18 21l67 430zM797 989v369l370 39l31 -19v-1378h-328v96q-127 -121 -307 -121q-218 0 -364 155t-146 382q0 228 146 383q145 154 364 154q121 0 234 -60zM499 370q53 -57 132 -57t132 57q52 55 52 142t-52 143
q-53 56 -132 56t-132 -56q-53 -58 -53 -143q0 -86 53 -142z" />
    <glyph glyph-name="Dcroat" unicode="&#x110;" horiz-adv-x="1566" 
d="M176 1331h621q324 0 514 -181t190 -482q0 -304 -189 -485q-190 -183 -515 -183h-621v520h-139v287h139v524zM582 328h198q136 0 222 89q85 88 85 249q0 159 -84 249q-86 89 -223 89h-198v-197h280v-287h-280v-192z" />
    <glyph glyph-name="dslash" unicode="&#x111;" horiz-adv-x="1310" 
d="M1198 1311h141v-191h-141v-1120h-328v96q-127 -121 -307 -121q-218 0 -364 155t-146 382q0 228 146 383q145 154 364 154q121 0 234 -60v131h-242v191h242v108l370 37l31 -18v-127zM498 369q51 -56 133 -56t133 56q51 55 51 143q0 86 -51 143q-51 56 -133 56t-133 -55
q-52 -55 -52 -144q0 -88 52 -143z" />
    <glyph glyph-name="Emacron" unicode="&#x112;" horiz-adv-x="1236" 
d="M258 1509v269h766v-269h-766zM1147 1331v-327h-608v-185h462v-307h-462v-184h614v-328h-1020v1331h1014z" />
    <glyph glyph-name="emacron" unicode="&#x113;" horiz-adv-x="1206" 
d="M240 1485h737v-246h-737v246zM1147 428h-709q10 -82 67.5 -126t149.5 -44q149 0 246 92h29l168 -166v-28q-162 -179 -467 -181q-257 0 -417 151q-161 150 -161 386t157 387q158 150 406 150q238 0 392 -148q147 -147 147 -381q0 -49 -8 -92zM604 780q-141 0 -166 -145
h330q-8 59 -47 98q-47 47 -117 47z" />
    <glyph glyph-name="Edotaccent" unicode="&#x116;" horiz-adv-x="1236" 
d="M639 1481q-95 0 -162 69q-69 68 -69 162t69 164q67 70 162 70q94 0 164 -70q69 -70 69 -164q0 -95 -70 -162q-70 -69 -163 -69zM1147 1331v-327h-608v-185h462v-307h-462v-184h614v-328h-1020v1331h1014z" />
    <glyph glyph-name="edotaccent" unicode="&#x117;" horiz-adv-x="1206" 
d="M774 1245q-69 -69 -165 -69q-97 0 -165 69q-69 67 -69 164q0 96 69 165q68 68 165 68q95 0 165 -68q68 -70 68 -165q0 -96 -68 -164zM1147 428h-709q10 -82 67.5 -126t149.5 -44q149 0 246 92h29l168 -166v-28q-162 -179 -467 -181q-257 0 -417 151q-161 150 -161 386
t157 387q158 150 406 150q238 0 392 -148q147 -147 147 -381q0 -49 -8 -92zM604 780q-141 0 -166 -145h330q-8 59 -47 98q-47 47 -117 47z" />
    <glyph glyph-name="Eogonek" unicode="&#x118;" horiz-adv-x="1236" 
d="M1249 -289l29 -6l59 -149l-2 -27q-92 -53 -200 -53q-145 0 -239 79q-95 80 -95 207q0 134 117 238h-785v1331h1014v-327h-608v-185h462v-307h-462v-184h614v-328q-92 -86 -92 -176q0 -57 33.5 -93t87.5 -36q39 0 67 16z" />
    <glyph glyph-name="eogonek" unicode="&#x119;" horiz-adv-x="1206" 
d="M1149 428h-709q10 -82 67.5 -126t149.5 -44q149 0 246 92h29l168 -166v-28q-78 -88 -209 -138q-90 -86 -90 -174q0 -57 33.5 -93t87.5 -36q38 0 67 17l29 -6l59 -150l-2 -27q-92 -53 -201 -53q-144 0 -239 80q-94 79 -94 207q0 112 71 192q-248 6 -402 157
q-155 152 -155 380q0 236 157 387q158 150 406 150q238 0 392 -148q147 -147 147 -381q0 -49 -8 -92zM606 780q-141 0 -166 -145h330q-8 59 -47 98q-47 47 -117 47z" />
    <glyph glyph-name="Ecaron" unicode="&#x11a;" horiz-adv-x="1236" 
d="M1061 1743l-404 -236h-30l-404 236v29l88 149h29l303 -141l301 141h29l88 -149v-29zM539 512v-184h614v-328h-1020v1331h1014v-327h-608v-185h462v-307h-462z" />
    <glyph glyph-name="ecaron" unicode="&#x11b;" horiz-adv-x="1206" 
d="M1018 1409l-393 -238h-33l-393 238v21l102 159h21l286 -135l287 135h20l103 -159v-21zM1147 428h-709q10 -82 67.5 -126t149.5 -44q149 0 246 92h29l168 -166v-28q-162 -179 -467 -181q-257 0 -417 151q-161 150 -161 386t157 387q158 150 406 150q238 0 392 -148
q147 -147 147 -381q0 -49 -8 -92zM604 780q-141 0 -166 -145h330q-8 59 -47 98q-47 47 -117 47z" />
    <glyph glyph-name="Gbreve" unicode="&#x11e;" horiz-adv-x="1544" 
d="M1061 1591q-105 -106 -266 -106q-163 0 -266 105q-105 104 -123 270h253q16 -145 136 -146q57 0 93 38.5t42 107.5h254q-18 -164 -123 -269zM1452 793l29 -25q6 -50 6 -117q0 -287 -207 -481q-201 -195 -506 -195q-304 0 -509 197q-204 196 -204 494q0 295 205 493
q206 197 508 197q172 0 321 -69q148 -70 244 -187v-29l-245 -209h-29q-119 129 -277 129q-130 0 -222 -93q-91 -92 -91 -234q0 -139 92 -231q91 -93 232 -93q113 0 190 59q57 40 84 107h-282v287h661z" />
    <glyph glyph-name="gbreve" unicode="&#x11f;" horiz-adv-x="1259" 
d="M875 1307q-112 -107 -271 -107q-160 0 -270 107q-111 107 -129 268h254q10 -66 50 -105.5t95 -39.5t95 39.5t51 105.5h254q-18 -161 -129 -268zM836 944v80h313v-840q0 -255 -164 -392q-163 -136 -430 -136q-311 0 -485 180v27l151 205h27q50 -53 139 -92q84 -37 172 -37
q93 0 160 42t67 123v58q-117 -72 -254 -72q-206 0 -342 136q-137 137 -137 343q0 207 138 344q136 136 341 136q168 0 304 -105zM499 430q52 -55 132 -55t132 55t52 139q0 85 -52 140t-132 55t-132 -55q-53 -56 -53 -140q0 -83 53 -139z" />
    <glyph glyph-name="Gdotaccent" unicode="&#x120;" horiz-adv-x="1544" 
d="M788 1485q-94 0 -162 69q-69 68 -69 162t69 164q67 70 162 70q96 0 165 -70t69 -164t-71 -162q-71 -69 -163 -69zM1452 793l29 -25q6 -50 6 -117q0 -287 -207 -481q-201 -195 -506 -195q-304 0 -509 197q-204 196 -204 494q0 295 205 493q206 197 508 197q172 0 321 -69
q148 -70 244 -187v-29l-245 -209h-29q-119 129 -277 129q-130 0 -222 -93q-91 -92 -91 -234q0 -139 92 -231q91 -93 232 -93q113 0 190 59q57 40 84 107h-282v287h661z" />
    <glyph glyph-name="gdotaccent" unicode="&#x121;" horiz-adv-x="1259" 
d="M769 1245q-69 -69 -165 -69t-164 69q-69 67 -69 164q0 96 69 165q68 68 164 68q95 0 165 -68q69 -69 69 -165q0 -97 -69 -164zM836 944v80h313v-840q0 -255 -164 -392q-163 -136 -430 -136q-311 0 -485 180v27l151 205h27q50 -53 139 -92q84 -37 172 -37q93 0 160 42
t67 123v58q-117 -72 -254 -72q-206 0 -342 136q-137 137 -137 343q0 207 138 344q136 136 341 136q168 0 304 -105zM499 430q52 -55 132 -55t132 55t52 139q0 85 -52 140t-132 55t-132 -55q-53 -56 -53 -140q0 -83 53 -139z" />
    <glyph glyph-name="uni0122" unicode="&#x122;" horiz-adv-x="1544" 
d="M1452 793l29 -25q6 -50 6 -117q0 -287 -207 -481q-201 -195 -506 -195q-304 0 -509 197q-204 196 -204 494q0 295 205 493q206 197 508 197q172 0 321 -69q148 -70 244 -187v-29l-245 -209h-29q-119 129 -277 129q-130 0 -222 -93q-91 -92 -91 -234q0 -139 92 -231
q91 -93 232 -93q113 0 190 59q57 40 84 107h-282v287h661zM549 -555l59 414l23 20h284l19 -20l-137 -414l-25 -20h-205z" />
    <glyph glyph-name="uni0123" unicode="&#x123;" horiz-adv-x="1259" 
d="M770 1190l-22 -21h-285l-19 21l138 414l24 20h205l18 -20zM836 944v80h313v-840q0 -255 -164 -392q-163 -136 -430 -136q-311 0 -485 180v27l151 205h27q50 -53 139 -92q84 -37 172 -37q93 0 160 42t67 123v58q-117 -72 -254 -72q-206 0 -342 136q-137 137 -137 343
q0 207 138 344q136 136 341 136q168 0 304 -105zM499 430q52 -55 132 -55t132 55t52 139q0 85 -52 140t-132 55t-132 -55q-53 -56 -53 -140q0 -83 53 -139z" />
    <glyph glyph-name="Hbar" unicode="&#x126;" horiz-adv-x="1562" 
d="M1409 1194h113v-229h-113v-965h-405v500h-445v-500h-405v965h-113v229h113v137h405v-137h445v137h405v-137zM559 827h445v138h-445v-138z" />
    <glyph glyph-name="hbar" unicode="&#x127;" horiz-adv-x="1277" 
d="M750 1049q188 0 308 -123t120 -328v-598h-402v575q0 61 -35.5 98.5t-96.5 37.5t-97.5 -37t-36.5 -99v-575h-397v1112h-158v191h158v118l366 35l31 -18v-135h250v-191h-250v-141q105 78 240 78z" />
    <glyph glyph-name="Itilde" unicode="&#x128;" horiz-adv-x="671" 
d="M553 1505q-76 0 -230 43q-156 43 -204 43q-119 0 -164 -86h-16l-23 15v254q78 102 203 102q73 0 226 -43q151 -43 208 -43q116 0 166 86h16l21 -14v-254q-76 -103 -203 -103zM133 0v1331h406v-1331h-406z" />
    <glyph glyph-name="itilde" unicode="&#x129;" horiz-adv-x="626" 
d="M473 1210q-68 0 -179 40q-113 40 -153 40q-117 0 -161 -80h-17l-22 17v223q79 94 213 94q64 0 172 -40q107 -40 153 -40q123 0 168 80h17l22 -16v-223q-80 -95 -213 -95zM514 0h-401v1024h401v-1024z" />
    <glyph glyph-name="Imacron" unicode="&#x12a;" horiz-adv-x="671" 
d="M-8 1509v269h690v-269h-690zM133 0v1331h406v-1331h-406z" />
    <glyph glyph-name="imacron" unicode="&#x12b;" horiz-adv-x="626" 
d="M-55 1239v246h737v-246h-737zM514 0h-401v1024h401v-1024z" />
    <glyph glyph-name="Iogonek" unicode="&#x12e;" horiz-adv-x="671" 
d="M635 -289l29 -6l59 -149l-2 -27q-92 -53 -201 -53q-145 0 -239 79q-95 80 -95 207q0 134 117 238h-170v1331h406v-1331q-91 -85 -93 -176q0 -57 34 -93t87 -36q40 0 68 16z" />
    <glyph glyph-name="iogonek" unicode="&#x12f;" horiz-adv-x="626" 
d="M479 1245q-69 -69 -165 -69q-98 0 -165 69q-69 67 -69 164q0 96 69 165q68 68 165 68q95 0 165 -68q68 -70 68 -165q0 -96 -68 -164zM610 -289l29 -6l59 -149l-2 -27q-92 -53 -200 -53q-145 0 -239 79q-95 80 -95 207q0 134 117 238h-166v1024h401v-1024
q-92 -86 -92 -176q0 -57 33.5 -93t87.5 -36q39 0 67 16z" />
    <glyph glyph-name="Idot" unicode="&#x130;" horiz-adv-x="671" 
d="M334 1481q-94 0 -163 69q-69 68 -69 162t69 164t163 70q96 0 165 -70q68 -71 68 -164q0 -95 -70 -162q-71 -69 -163 -69zM133 0v1331h406v-1331h-406z" />
    <glyph glyph-name="dotlessi" unicode="&#x131;" horiz-adv-x="626" 
d="M514 0h-401v1024h401v-1024z" />
    <glyph glyph-name="IJ" unicode="&#x132;" horiz-adv-x="1705" 
d="M133 0v1331h406v-1331h-406zM1184 528v803h405v-721q0 -334 -129 -484q-129 -151 -416 -151q-121 0 -254 56q-136 56 -204 151v29l219 225h29q76 -100 180 -100q170 0 170 192z" />
    <glyph glyph-name="ij" unicode="&#x133;" horiz-adv-x="1277" 
d="M479 1245q-69 -69 -165 -69q-98 0 -165 69q-69 67 -69 164q0 96 69 165q68 68 165 68q95 0 165 -68q68 -70 68 -165q0 -96 -68 -164zM1132 1245q-69 -69 -165 -69q-97 0 -165 69q-69 67 -69 164q0 96 69 165q68 68 165 68q95 0 165 -68q68 -70 68 -165q0 -96 -68 -164z
M514 0h-401v1024h401v-1024zM778 -367h-28l-154 287v29q123 67 147 131q23 64 23 278v666h401v-719q0 -129 -6 -203q-6 -71 -26 -151q-21 -76 -65 -126q-91 -103 -292 -192z" />
    <glyph glyph-name="uni0136" unicode="&#x136;" horiz-adv-x="1386" 
d="M1364 1300l-459 -565l494 -704l-19 -31h-424l-344 496l-73 -86v-410h-406v1331h406v-473l374 473h433zM610 -141l23 20h285l18 -20l-137 -414l-25 -20h-205l-18 20z" />
    <glyph glyph-name="uni0137" unicode="&#x137;" horiz-adv-x="1239" 
d="M1231 995l-365 -440l379 -526l-18 -29h-434l-230 358l-49 -57v-301h-401v1358l370 39l31 -19v-731l287 377h411zM489 -141l23 20h285l18 -20l-137 -414l-25 -20h-204l-19 20z" />
    <glyph glyph-name="kgreenlandic" unicode="&#x138;" horiz-adv-x="1239" 
d="M1231 997l-365 -442l379 -528l-18 -27h-434l-230 358l-49 -57v-301h-401v1024h401v-377l287 377h411z" />
    <glyph glyph-name="Lacute" unicode="&#x139;" horiz-adv-x="1071" 
d="M0 1659l489 307h29l139 -244v-28l-538 -219h-29l-90 155v29zM539 328h508v-328h-914v1331h406v-1003z" />
    <glyph glyph-name="lacute" unicode="&#x13a;" horiz-adv-x="626" 
d="M-20 1657l489 307h29l139 -244v-28l-539 -219h-28l-90 155v29zM514 0h-401v1358l370 39l31 -19v-1378z" />
    <glyph glyph-name="uni013B" unicode="&#x13b;" horiz-adv-x="1071" 
d="M539 328h508v-328h-914v1331h406v-1003zM365 -555l59 414l22 20h285l19 -20l-138 -414l-24 -20h-205z" />
    <glyph glyph-name="uni013C" unicode="&#x13c;" horiz-adv-x="626" 
d="M514 0h-401v1358l370 39l31 -19v-1378zM92 -555l60 414l22 20h285l18 -20l-137 -414l-25 -20h-204z" />
    <glyph glyph-name="Lcaron" unicode="&#x13d;" horiz-adv-x="1079" 
d="M629 1004l67 430l23 20h285l18 -20l-158 -430l-24 -21h-193zM539 328h508v-328h-914v1331h406v-1003z" />
    <glyph glyph-name="lcaron" unicode="&#x13e;" horiz-adv-x="823" 
d="M625 1004l67 430l23 20h284l19 -20l-158 -430l-24 -21h-193zM514 0h-401v1358l370 39l31 -19v-1378z" />
    <glyph glyph-name="Ldot" unicode="&#x13f;" horiz-adv-x="1114" 
d="M539 328h508v-328h-914v1331h406v-1003zM1020 629q-57 -58 -139 -58t-139 58q-58 57 -58 139t58 140q57 57 139 57t139 -57q57 -58 57 -140t-57 -139z" />
    <glyph glyph-name="ldot" unicode="&#x140;" horiz-adv-x="942" 
d="M514 0h-401v1358l370 39l31 -19v-1378zM931 579q-61 -61 -147 -61t-146 61q-60 60 -60 146q0 85 60 147q60 60 146 60t147 -60q60 -62 60 -147q0 -86 -60 -146z" />
    <glyph glyph-name="Lslash" unicode="&#x141;" horiz-adv-x="1206" 
d="M674 563v-235h508v-328h-914v383l-162 -72l-28 19v321l190 84v596h406v-413l235 104l29 -18v-322z" />
    <glyph glyph-name="lslash" unicode="&#x142;" horiz-adv-x="843" 
d="M758 1036l28 -18v-260l-165 -88v-670h-402v459l-137 -72l-29 19v260l166 88v604l371 39l31 -19v-413z" />
    <glyph glyph-name="Nacute" unicode="&#x143;" horiz-adv-x="1519" 
d="M1106 1694l-539 -219h-28l-90 155v29l489 307h29l139 -244v-28zM981 664v667h405v-1331h-266l-581 668v-668h-406v1331h266z" />
    <glyph glyph-name="nacute" unicode="&#x144;" horiz-adv-x="1282" 
d="M987 1364l-528 -193h-21l-96 175v20l492 276h20l133 -258v-20zM754 1049q188 0 308 -126t120 -325v-598h-402v569q0 65 -35 103.5t-100 38.5q-59 0 -95 -39t-36 -103v-569h-401v1024h327v-125q118 150 314 150z" />
    <glyph glyph-name="uni0145" unicode="&#x145;" horiz-adv-x="1519" 
d="M981 664v667h405v-1331h-266l-581 668v-668h-406v1331h266zM584 -141l22 20h285l18 -20l-137 -414l-24 -20h-205l-19 20z" />
    <glyph glyph-name="uni0146" unicode="&#x146;" horiz-adv-x="1282" 
d="M754 1049q188 0 308 -126t120 -325v-598h-402v569q0 65 -35 103.5t-100 38.5q-59 0 -95 -39t-36 -103v-569h-401v1024h327v-125q118 150 314 150zM473 -141l23 20h284l19 -20l-137 -414l-25 -20h-205l-18 20z" />
    <glyph glyph-name="Ncaron" unicode="&#x147;" horiz-adv-x="1519" 
d="M1169 1743l-403 -236h-31l-403 236v29l88 149h29l303 -141l301 141h28l88 -149v-29zM981 664v667h405v-1331h-266l-581 668v-668h-406v1331h266z" />
    <glyph glyph-name="ncaron" unicode="&#x148;" horiz-adv-x="1282" 
d="M1098 1409l-393 -238h-33l-393 238v21l102 159h20l287 -135l287 135h20l103 -159v-21zM754 1049q188 0 308 -126t120 -325v-598h-402v569q0 65 -35 103.5t-100 38.5q-59 0 -95 -39t-36 -103v-569h-401v1024h327v-125q118 150 314 150z" />
    <glyph glyph-name="napostrophe" unicode="&#x149;" horiz-adv-x="1304" 
d="M424 1606l-143 -414l-25 -21h-201l-18 21l61 414l23 20h285zM776 1049q188 0 308 -126t120 -325v-598h-401v569q0 64 -35.5 103t-99.5 39q-59 0 -95 -39t-36 -103v-569h-402v1024h328v-125q119 150 313 150z" />
    <glyph glyph-name="Eng" unicode="&#x14a;" horiz-adv-x="1519" 
d="M981 635v696h405v-1358q0 -215 -146 -353t-361 -138q-105 0 -219 38q-113 38 -179 128v30l217 213h31q45 -83 141 -81q72 0 114 48t42 117v134l-487 559v-668h-406v1331h266z" />
    <glyph glyph-name="eng" unicode="&#x14b;" horiz-adv-x="1277" 
d="M754 1049q188 0 308 -123t120 -328v-254q0 -293 -94 -444q-95 -150 -340 -248h-29l-109 268v29q123 67 147 131q23 64 23 278v211q0 65 -35 103.5t-100 38.5q-59 0 -95 -39t-36 -103v-569h-401v1024h327v-125q118 150 314 150z" />
    <glyph glyph-name="Omacron" unicode="&#x14c;" horiz-adv-x="1609" 
d="M422 1509v269h766v-269h-766zM1335 173q-213 -198 -530 -198t-531 197q-213 196 -213 494t213 494q212 196 531 196q318 0 530 -196q213 -196 213 -494q0 -295 -213 -493zM571 432q95 -92 234 -92q138 0 235 92q95 92 95 234q0 141 -95 233q-97 92 -235 92
q-139 0 -234 -92q-96 -91 -96 -233t96 -234z" />
    <glyph glyph-name="omacron" unicode="&#x14d;" 
d="M262 1239v246h737v-246h-737zM1046 127q-164 -152 -415 -152t-415 152q-163 151 -163 385t163 385q164 152 415 152t415 -152q162 -152 162 -385q0 -234 -162 -385zM499 370q53 -57 132 -57t132 57q52 55 52 142t-52 143q-53 56 -132 56t-132 -56q-53 -58 -53 -143
q0 -86 53 -142z" />
    <glyph glyph-name="Ohungarumlaut" unicode="&#x150;" horiz-adv-x="1609" 
d="M422 1501l213 354h307l16 -22l-296 -358h-226zM852 1501l213 354h307l17 -22l-297 -358h-226zM1335 173q-213 -198 -530 -198t-531 197q-213 196 -213 494t213 494q212 196 531 196q318 0 530 -196q213 -196 213 -494q0 -295 -213 -493zM571 432q95 -92 234 -92
q138 0 235 92q95 92 95 234q0 141 -95 233q-97 92 -235 92q-139 0 -234 -92q-96 -91 -96 -233t96 -234z" />
    <glyph glyph-name="ohungarumlaut" unicode="&#x151;" 
d="M313 1192l133 389l27 21h260l19 -21l-215 -389l-27 -21h-178zM717 1192l133 389l27 21h260l18 -21l-215 -389l-27 -21h-178zM1046 127q-164 -152 -415 -152t-415 152q-163 151 -163 385t163 385q164 152 415 152t415 -152q162 -152 162 -385q0 -234 -162 -385zM499 370
q53 -57 132 -57t132 57q52 55 52 142t-52 143q-53 56 -132 56t-132 -56q-53 -58 -53 -143q0 -86 53 -142z" />
    <glyph glyph-name="OE" unicode="&#x152;" horiz-adv-x="2238" 
d="M1540 512v-184h614v-328h-1019v78q-155 -101 -351 -103q-305 0 -514 198t-209 493t209 493q209 197 514 197q194 0 351 -107v82h1013v-327h-608v-185h463v-307h-463zM571 432q95 -92 234 -92q138 0 235 92q95 92 95 234q0 141 -95 233q-97 92 -235 92q-139 0 -234 -92
q-96 -91 -96 -233t96 -234z" />
    <glyph glyph-name="oe" unicode="&#x153;" horiz-adv-x="1970" 
d="M1911 428h-709q10 -82 67.5 -126t149.5 -44q149 0 246 92h29l168 -166v-28q-162 -179 -467 -181q-227 0 -383 123q-158 -123 -381 -123q-251 0 -415 152q-163 151 -163 385t163 385q164 152 415 152q219 0 379 -121q51 41 116 69q114 50 254 52q278 0 430 -191
q109 -140 109 -338q0 -49 -8 -92zM1260 745q-52 -46 -60 -133h336q-1 63 -41 113q-49 55 -127 55q-62 0 -108 -35zM499 370q53 -57 132 -57t132 57q52 55 52 142t-52 143q-53 56 -132 56t-132 -56q-53 -58 -53 -143q0 -86 53 -142z" />
    <glyph glyph-name="Racute" unicode="&#x154;" horiz-adv-x="1363" 
d="M1010 1694l-539 -219h-29l-90 155v29l490 307h28l140 -244v-28zM1038 524l271 -493l-19 -31h-403l-252 467h-96v-467h-406v1331h610q259 0 399 -118q140 -119 140 -326q0 -251 -244 -363zM727 1004h-188v-271h188q62 0 101.5 35t39.5 96q0 64 -40 102t-101 38z" />
    <glyph glyph-name="racute" unicode="&#x155;" horiz-adv-x="927" 
d="M819 1364l-528 -193h-21l-96 175v20l492 276h20l133 -258v-20zM918 1010l18 -29l-74 -276l-28 -19q-50 25 -129 25q-86 0 -138.5 -49.5t-52.5 -129.5v-532h-401v1024h327v-135q117 160 289 160q103 0 189 -39z" />
    <glyph glyph-name="uni0156" unicode="&#x156;" horiz-adv-x="1363" 
d="M1038 524l271 -493l-19 -31h-403l-252 467h-96v-467h-406v1331h610q259 0 399 -118q140 -119 140 -326q0 -251 -244 -363zM727 1004h-188v-271h188q62 0 101.5 35t39.5 96q0 64 -40 102t-101 38zM553 -141l22 20h285l19 -20l-138 -414l-24 -20h-205l-18 20z" />
    <glyph glyph-name="uni0157" unicode="&#x157;" horiz-adv-x="927" 
d="M918 1010l18 -29l-74 -276l-28 -19q-50 25 -129 25q-86 0 -138.5 -49.5t-52.5 -129.5v-532h-401v1024h327v-135q117 160 289 160q103 0 189 -39zM147 -141l23 20h285l18 -20l-137 -414l-25 -20h-205l-18 20z" />
    <glyph glyph-name="Rcaron" unicode="&#x158;" horiz-adv-x="1363" 
d="M1073 1743l-403 -236h-31l-403 236v29l88 149h28l303 -141l301 141h29l88 -149v-29zM1038 524l271 -493l-19 -31h-403l-252 467h-96v-467h-406v1331h610q259 0 399 -118q140 -119 140 -326q0 -251 -244 -363zM727 1004h-188v-271h188q62 0 101.5 35t39.5 96q0 64 -40 102
t-101 38z" />
    <glyph glyph-name="rcaron" unicode="&#x159;" horiz-adv-x="927" 
d="M930 1409l-393 -238h-33l-393 238v21l102 159h20l287 -135l287 135h20l103 -159v-21zM918 1010l18 -29l-74 -276l-28 -19q-50 25 -129 25q-86 0 -138.5 -49.5t-52.5 -129.5v-532h-401v1024h327v-135q117 160 289 160q103 0 189 -39z" />
    <glyph glyph-name="Sacute" unicode="&#x15a;" horiz-adv-x="1263" 
d="M340 1659l489 307h29l139 -244v-28l-538 -219h-29l-90 155v29zM639 -25q-184 0 -340 63q-155 61 -250 165v28l189 234h28q58 -58 161 -105q102 -47 189 -47q75 0 118.5 21.5t43.5 60.5q0 31 -21 49q-24 18 -58 28q-15 5 -41.5 11.5t-47.5 12.5q-23 6 -55 14
q-446 125 -446 434q0 181 149 297q148 115 385 115q165 0 309 -55t222 -144v-29l-191 -225h-29q-146 135 -303 135q-59 0 -94 -20.5t-35 -54.5q0 -31 30 -55q28 -24 63 -38q31 -14 90 -30q21 -6 54 -15.5t46 -13.5q43 -14 97 -34q59 -23 94 -44q32 -21 76 -57
q75 -63 106 -164q16 -51 16 -117q0 -199 -159 -309q-161 -111 -396 -111z" />
    <glyph glyph-name="sacute" unicode="&#x15b;" horiz-adv-x="1056" 
d="M184 1366l492 276h20l133 -258v-20l-528 -193h-20l-97 175v20zM535 -29q-157 0 -289 53q-134 52 -205 138v28l166 197h29q50 -47 140 -86q86 -37 167 -37q73 0 71 41q0 35 -102 66q-93 26 -146 45q-57 20 -126 60q-142 81 -142 249q0 152 121 240t326 88q141 0 264 -45
q124 -45 186 -121v-29l-164 -184h-28q-119 98 -254 98q-76 0 -76 -35q-4 -15 23 -31.5t69 -28.5q9 -3 65 -19q54 -17 75 -25q142 -51 213 -127q71 -77 71 -209q0 -148 -124 -236q-125 -90 -330 -90z" />
    <glyph glyph-name="Scedilla" unicode="&#x15e;" horiz-adv-x="1263" 
d="M1194 395q0 -175 -126 -281q-126 -108 -325 -132l-16 -52q125 0 204 -66q79 -64 79 -169q0 -127 -94 -208t-244 -81q-195 0 -334 102v29l88 125h29q77 -49 176 -49q55 0 89 23.5t34 64.5q0 58 -63.5 82t-174.5 4l-41 27l51 168q-307 34 -477 221v28l189 234h28
q58 -58 161 -105q102 -47 189 -47q75 0 118.5 21.5t43.5 60.5q0 31 -21 49q-24 18 -58 28q-15 5 -41.5 11.5t-47.5 12.5q-23 6 -55 14q-446 125 -446 434q0 181 149 297q148 115 385 115q165 0 309 -55t222 -144v-29l-191 -225h-29q-146 135 -303 135q-59 0 -94 -20.5
t-35 -54.5q0 -31 30 -55q28 -24 63 -38q31 -14 90 -30q21 -6 54 -15.5t46 -13.5q43 -14 97 -34q59 -23 94 -44q32 -21 76 -57q75 -63 106 -164q16 -52 16 -117z" />
    <glyph glyph-name="scedilla" unicode="&#x15f;" horiz-adv-x="1056" 
d="M549 772q-76 0 -76 -35q-4 -15 23 -31.5t69 -28.5q9 -3 65 -19q54 -17 75 -25q142 -51 213 -127q71 -77 71 -209q0 -129 -98 -215q-97 -86 -264 -105l-15 -47q124 0 204 -66q79 -64 79 -169q0 -127 -94 -208q-95 -81 -244 -81q-195 0 -334 102v29l88 125h29
q77 -49 176 -49q55 0 89 23.5t34 64.5q0 58 -63.5 82t-174.5 4l-41 27l52 166q-255 40 -371 182v28l166 197h29q50 -47 140 -86q86 -37 167 -37q73 0 71 41q0 35 -102 66q-93 26 -146 45q-57 20 -126 60q-142 81 -142 249q0 152 121 240t326 88q141 0 264 -45
q124 -45 186 -121v-29l-164 -184h-28q-119 98 -254 98z" />
    <glyph glyph-name="Scaron" unicode="&#x160;" horiz-adv-x="1263" 
d="M1061 1743l-404 -236h-30l-404 236v29l88 149h29l303 -141l301 141h29l88 -149v-29zM705 840q21 -6 54 -15.5t46 -13.5q43 -14 97 -34q59 -23 94 -44q32 -21 76 -57q75 -63 106 -164q16 -51 16 -117q0 -200 -160 -309q-161 -111 -395 -111q-184 0 -340 63
q-155 61 -250 165v28l189 234h28q58 -58 161 -105q102 -47 189 -47q75 0 118.5 21.5t43.5 60.5q0 31 -21 49q-24 18 -58 28q-15 5 -41.5 11.5t-47.5 12.5q-23 6 -55 14q-446 125 -446 434q0 181 149 297q148 115 385 115q165 0 309 -55t222 -144v-29l-191 -225h-29
q-146 135 -303 135q-59 0 -94 -20.5t-35 -54.5q0 -28 27.5 -52.5t65.5 -40.5q33 -14 90 -30z" />
    <glyph glyph-name="scaron" unicode="&#x161;" horiz-adv-x="1056" 
d="M940 1409l-393 -238h-33l-393 238v21l102 159h21l286 -135l287 135h21l102 -159v-21zM549 772q-76 0 -76 -35q-4 -15 23 -31.5t69 -28.5q9 -3 65 -19q54 -17 75 -25q142 -51 213 -127q71 -77 71 -209q0 -147 -125 -236q-124 -90 -329 -90q-157 0 -289 53
q-134 52 -205 138v28l166 197h29q50 -47 140 -86q86 -37 167 -37q73 0 71 41q0 35 -102 66q-93 26 -146 45q-57 20 -126 60q-142 81 -142 249q0 152 121 240t326 88q141 0 264 -45q124 -45 186 -121v-29l-164 -184h-28q-119 98 -254 98z" />
    <glyph glyph-name="uni0162" unicode="&#x162;" horiz-adv-x="1265" 
d="M836 1004v-1004h-97l-22 -70q125 0 204 -66q78 -65 78 -169q0 -127 -94 -208q-95 -81 -243 -81q-194 0 -334 102v29l88 125h28q77 -49 177 -49q55 0 88.5 23.5t33.5 64.5q0 58 -63.5 82t-173.5 4l-41 27l57 186h-92v1004h-405v327h1216v-327h-405z" />
    <glyph glyph-name="uni0163" unicode="&#x163;" horiz-adv-x="950" 
d="M672 -23l-15 -47q125 0 204 -66q79 -64 79 -169q0 -127 -94 -208t-244 -81q-194 0 -334 102v29l88 125h29q77 -49 176 -49q55 0 89 23.5t34 64.5q0 58 -63.5 82t-174.5 4l-40 27l57 188q-121 40 -189.5 139t-68.5 248v348h-180v287h180v297l366 39l31 -19v-317h291v-287
h-291v-303q0 -121 103 -121q45 0 90 33l28 -14l105 -238l-13 -31q-102 -75 -243 -86z" />
    <glyph glyph-name="Tcaron" unicode="&#x164;" horiz-adv-x="1265" 
d="M1053 1743l-404 -236h-31l-403 236v29l88 149h29l303 -141l301 141h29l88 -149v-29zM25 1004v327h1216v-327h-405v-1004h-406v1004h-405z" />
    <glyph glyph-name="tcaron" unicode="&#x165;" horiz-adv-x="950" 
d="M922 1155l-25 -20h-192l-19 20l68 430l22 21h285l18 -21zM795 346l28 -14l105 -238l-13 -31q-118 -88 -286 -88q-175 0 -300 104q-124 103 -124 310v348h-180v287h180v297l366 39l31 -19v-317h291v-287h-291v-303q0 -121 103 -121q45 0 90 33z" />
    <glyph glyph-name="Tbar" unicode="&#x166;" horiz-adv-x="1302" 
d="M1260 1331v-327h-406v-332h256v-242h-256v-430h-405v430h-254v242h254v332h-406v327h1217z" />
    <glyph glyph-name="tbar" unicode="&#x167;" horiz-adv-x="962" 
d="M807 346l29 -14l104 -238l-12 -31q-118 -88 -287 -88q-175 0 -300 104q-124 103 -124 310v53h-178v183h178v112h-180v287h180v297l367 39l30 -19v-317h291v-287h-291v-112h199v-183h-199v-8q0 -121 103 -121q45 0 90 33z" />
    <glyph glyph-name="Utilde" unicode="&#x168;" horiz-adv-x="1517" 
d="M979 1505q-76 0 -230 43q-156 43 -204 43q-119 0 -164 -86h-16l-23 15v254q78 102 203 102q73 0 226 -43q151 -43 208 -43q116 0 166 86h16l21 -14v-254q-76 -103 -203 -103zM113 627v704h405v-729q0 -118 68 -192t176 -74t176 74t68 192v729h399v-704q0 -293 -177 -472
q-177 -180 -466 -180q-292 0 -471 180q-178 178 -178 472z" />
    <glyph glyph-name="utilde" unicode="&#x169;" 
d="M293 1210h-17l-22 17v223q79 94 213 94q67 0 172 -40t154 -40q123 0 168 80h16l22 -16v-223q-79 -93 -213 -95q-68 0 -179 40t-152 40q-117 0 -162 -80zM748 453v571h401v-1024h-328v111q-111 -134 -293 -136q-188 0 -308 123t-120 328v598h402v-571q0 -62 33 -101
t90 -39t90 38t33 102z" />
    <glyph glyph-name="Umacron" unicode="&#x16a;" horiz-adv-x="1517" 
d="M379 1509v269h766v-269h-766zM113 627v704h405v-729q0 -118 68 -192t176 -74t176 74t68 192v729h399v-704q0 -293 -177 -472q-177 -180 -466 -180q-292 0 -471 180q-178 178 -178 472z" />
    <glyph glyph-name="umacron" unicode="&#x16b;" 
d="M258 1485h737v-246h-737v246zM748 453v571h401v-1024h-328v111q-111 -134 -293 -136q-188 0 -308 123t-120 328v598h402v-571q0 -62 33 -101t90 -39t90 38t33 102z" />
    <glyph glyph-name="Uring" unicode="&#x16e;" horiz-adv-x="1517" 
d="M962 1523q-82 -81 -198 -81t-198 81q-83 81 -83 196q0 114 83 195q82 81 198 81t198 -81t82 -195q0 -115 -82 -196zM711 1663q22 -23 53.5 -23t53.5 23t22 56t-22 55t-53 22t-54 -22t-23 -55t23 -56zM113 627v704h405v-729q0 -118 68 -192t176 -74t176 74t68 192v729h399
v-704q0 -293 -177 -472q-177 -180 -466 -180q-292 0 -471 180q-178 178 -178 472z" />
    <glyph glyph-name="uring" unicode="&#x16f;" 
d="M627 1116q-122 0 -205 82q-84 82 -84 197q0 113 84 196q83 82 205 82t205 -82q83 -83 83 -196q0 -115 -84 -197q-85 -82 -204 -82zM681 1448q-22 22 -54.5 22t-53.5 -22q-22 -22 -22 -53t22 -53q21 -22 53.5 -22t54.5 22q21 22 21 53t-21 53zM748 453v571h401v-1024h-328
v111q-111 -134 -293 -136q-188 0 -308 123t-120 328v598h402v-571q0 -62 33 -101t90 -39t90 38t33 102z" />
    <glyph glyph-name="Uhungarumlaut" unicode="&#x170;" horiz-adv-x="1517" 
d="M379 1501l213 354h307l16 -22l-297 -358h-225zM809 1501l213 354h307l17 -22l-297 -358h-226zM113 627v704h405v-729q0 -118 68 -192t176 -74t176 74t68 192v729h399v-704q0 -293 -177 -472q-177 -180 -466 -180q-292 0 -471 180q-178 178 -178 472z" />
    <glyph glyph-name="uhungarumlaut" unicode="&#x171;" 
d="M532 1192l-26 -21h-178l-19 21l133 389l27 21h260l19 -21zM909 1171h-178l-18 21l133 389l26 21h261l18 -21l-215 -389zM748 453v571h401v-1024h-328v111q-111 -134 -293 -136q-188 0 -308 123t-120 328v598h402v-571q0 -62 33 -101t90 -39t90 38t33 102z" />
    <glyph glyph-name="Uogonek" unicode="&#x172;" horiz-adv-x="1517" 
d="M1114 66q-88 -84 -88 -172q0 -57 34 -93.5t87 -36.5q38 0 67 17l29 -6l60 -150l-3 -26q-91 -52 -200 -54q-144 0 -239 80t-95 207q0 79 37 143h-41q-292 0 -471 180q-178 178 -178 472v704h405v-729q0 -118 68 -192t176 -74t176 74t68 192v729h399v-704
q0 -187 -76.5 -333t-214.5 -228z" />
    <glyph glyph-name="uogonek" unicode="&#x173;" 
d="M1245 -289l29 -6l59 -149l-2 -27q-92 -53 -201 -53q-145 0 -239 79t-94 207q0 134 116 238h-92v111q-111 -134 -293 -136q-188 0 -308 123t-120 328v598h402v-571q0 -62 33 -101t90 -39t90 38t33 102v571h401v-1024q-92 -86 -92 -176q0 -57 33.5 -93t87.5 -36q39 0 67 16
z" />
    <glyph glyph-name="Wcircumflex" unicode="&#x174;" horiz-adv-x="2033" 
d="M1018 1642l-303 -141h-29l-100 170v29l415 235h31l416 -235v-29l-100 -170h-29zM1632 1331h387l19 -31l-496 -1300h-246l-280 725l-279 -725h-245l-496 1300l18 31h387l240 -733l252 733h246l254 -737z" />
    <glyph glyph-name="wcircumflex" unicode="&#x175;" horiz-adv-x="1679" 
d="M838 1327l-287 -135h-21l-102 160v20l393 238h33l393 -238v-20l-102 -160h-21zM1296 1024h365l18 -27l-352 -997h-307l-182 532l-183 -532h-307l-338 997l19 27h370l150 -580l176 580h225l187 -553z" />
    <glyph glyph-name="Ycircumflex" unicode="&#x176;" horiz-adv-x="1374" 
d="M692 1642l-303 -141h-29l-100 170v29l416 235h31l415 -235v-29l-100 -170h-29zM1341 1331l19 -31l-467 -811v-489h-406v483l-485 817l18 31h398l274 -493l262 493h387z" />
    <glyph glyph-name="ycircumflex" unicode="&#x177;" horiz-adv-x="1175" 
d="M612 1327l-286 -135h-21l-102 160v20l393 238h33l393 -238v-20l-102 -160h-21zM815 1024h344l19 -27l-451 -1054q-123 -287 -420 -287q-116 0 -205 47l-14 27l66 241l26 15q51 -23 105 -23q79 0 108 60l35 71l-426 903l18 27h392l204 -553z" />
    <glyph glyph-name="Ydieresis" unicode="&#x178;" horiz-adv-x="1374" 
d="M576 1547q-66 -66 -156 -66t-155 66q-66 65 -66 155t66 156q65 65 155 65q89 0 156 -65q65 -67 65 -156q0 -90 -65 -155zM1115 1547q-66 -66 -156 -66q-91 0 -156 66q-66 65 -66 155t66 156q65 65 156 65q89 0 156 -65q65 -67 65 -156q0 -90 -65 -155zM1341 1331l19 -31
l-467 -811v-489h-406v483l-485 817l18 31h398l274 -493l262 493h387z" />
    <glyph glyph-name="Zacute" unicode="&#x179;" horiz-adv-x="1294" 
d="M1004 1694l-539 -219h-29l-90 155v29l490 307h28l140 -244v-28zM1200 1044l-610 -722h639v-322h-1155v287l618 723h-598v321h1106v-287z" />
    <glyph glyph-name="zacute" unicode="&#x17a;" horiz-adv-x="1097" 
d="M207 1366l491 276h21l133 -258v-20l-528 -193h-21l-96 175v20zM1032 0h-958v285l475 452h-467v287h922v-287l-445 -450h473v-287z" />
    <glyph glyph-name="Zdotaccent" unicode="&#x17b;" horiz-adv-x="1294" 
d="M645 1481q-95 0 -162 69q-69 68 -69 162t69 164q67 70 162 70q96 0 165 -70t69 -164t-71 -162q-70 -69 -163 -69zM1200 1044l-610 -722h639v-322h-1155v287l618 723h-598v321h1106v-287z" />
    <glyph glyph-name="zdotaccent" unicode="&#x17c;" horiz-adv-x="1097" 
d="M718 1245q-69 -69 -165 -69t-165 69q-69 67 -69 164q0 96 69 165q70 68 165 68t165 -68q68 -70 68 -165q0 -96 -68 -164zM1032 0h-958v285l475 452h-467v287h922v-287l-445 -450h473v-287z" />
    <glyph glyph-name="Zcaron" unicode="&#x17d;" horiz-adv-x="1294" 
d="M1067 1743l-403 -236h-31l-404 236v29l88 149h29l303 -141l301 141h29l88 -149v-29zM1200 1044l-610 -722h639v-322h-1155v287l618 723h-598v321h1106v-287z" />
    <glyph glyph-name="zcaron" unicode="&#x17e;" horiz-adv-x="1097" 
d="M963 1409l-394 -238h-32l-394 238v21l103 159h20l287 -135l287 135h20l103 -159v-21zM1004 737l-445 -450h473v-287h-958v285l475 452h-467v287h922v-287z" />
    <glyph glyph-name="uni01EA" unicode="&#x1ea;" horiz-adv-x="1609" 
d="M1098 27q-88 -84 -88 -172q0 -57 33.5 -93t86.5 -36q40 0 68 16l29 -6l59 -150l-2 -26q-92 -52 -201 -54q-144 0 -239 80q-94 79 -94 207q0 108 63 182h-8q-316 0 -530 197q-214 196 -214 494t213 494q212 196 531 196q318 0 530 -196q213 -196 213 -494
q0 -218 -122 -390q-123 -171 -328 -249zM571 899q-96 -91 -96 -233t96 -234q95 -92 234 -92q138 0 235 92q95 92 95 234q0 141 -95 233q-97 92 -235 92q-139 0 -234 -92z" />
    <glyph glyph-name="uni01EB" unicode="&#x1eb;" 
d="M987 -258l29 -6l59 -150l-2 -26q-91 -52 -201 -54q-144 0 -239 80q-94 79 -94 207q0 108 63 182q-243 11 -395 160q-154 150 -154 377q0 234 163 385q164 152 415 152t415 -152q162 -152 162 -385q0 -168 -87 -297t-238 -190q-84 -89 -84 -170q0 -57 33.5 -93t87.5 -36
q39 0 67 16zM499 655q-53 -58 -53 -143q0 -86 53 -142q53 -57 132 -57t132 57q52 55 52 142t-52 143q-53 56 -132 56t-132 -56z" />
    <glyph glyph-name="AEacute" unicode="&#x1fc;" horiz-adv-x="2181" 
d="M1872 1694l-539 -219h-28l-91 155v29l490 307h29l139 -244v-28zM1483 512v-184h614v-328h-1020v201h-522l-141 -201h-434l-19 31l961 1300h1169v-327h-608v-185h463v-307h-463zM1077 946l-336 -479h336v479z" />
    <glyph glyph-name="aeacute" unicode="&#x1fd;" horiz-adv-x="1871" 
d="M1251 1364l-528 -193h-21l-96 175v20l492 276h20l133 -258v-20zM1812 428h-708q10 -82 67.5 -126t149.5 -44q149 0 246 92h28l168 -166v-28q-162 -179 -467 -181q-262 0 -422 156q-166 -160 -430 -156q-181 0 -293 89q-112 88 -112 233q0 157 122 255q121 97 320 97
q95 0 217 -39v29q0 57 -60 93t-146 36q-118 0 -216 -70h-28l-121 195v29q85 64 203 95q120 32 227 32q236 0 369 -109q146 109 356 109q239 0 391 -148q146 -146 148 -381q-2 -52 -9 -92zM1270 780q-141 0 -166 -145h330q-8 59 -48 98q-47 47 -116 47zM551 211q69 0 113 42
q43 42 43 91v49q-77 37 -156 37q-63 0 -101 -30t-38 -80q0 -49 38 -79t101 -30z" />
    <glyph glyph-name="Oslashacute" unicode="&#x1fe;" horiz-adv-x="1609" 
d="M1161 1694l-538 -219h-29l-90 155v29l489 307h29l139 -244v-28zM1536 1460l-201 -301q213 -197 213 -493q0 -295 -213 -493t-530 -198q-127 0 -232 31l-84 -127h-374l-19 31l176 264q-211 199 -211 492q0 298 213 494q212 196 531 196q126 0 231 -31l111 166h371z
M571 432q95 -92 234 -92q138 0 235 92q95 92 95 234q0 141 -95 233q-97 92 -235 92q-139 0 -234 -92q-96 -91 -96 -233t96 -234z" />
    <glyph glyph-name="oslashacute" unicode="&#x1ff;" horiz-adv-x="1265" 
d="M938 1364l-528 -193h-21l-96 175v20l491 276h21l133 -258v-20zM1235 1155l18 -29l-178 -258q135 -146 135 -356q0 -234 -162 -385q-164 -152 -415 -152q-86 0 -158 19l-67 -98h-355l-18 28l158 230q-137 147 -138 358q0 234 163 385q164 152 415 152q86 0 162 -19l86 125
h354zM501 370q53 -57 132 -57t132 57q52 55 52 142t-52 143q-53 56 -132 56t-132 -56q-52 -56 -52 -143t52 -142z" />
    <glyph glyph-name="uni0218" unicode="&#x218;" horiz-adv-x="1263" 
d="M639 -25q-184 0 -340 63q-155 61 -250 165v28l189 234h28q58 -58 161 -105q102 -47 189 -47q75 0 118.5 21.5t43.5 60.5q0 31 -21 49q-24 18 -58 28q-15 5 -41.5 11.5t-47.5 12.5q-23 6 -55 14q-446 125 -446 434q0 181 149 297q148 115 385 115q165 0 309 -55t222 -144
v-29l-191 -225h-29q-146 135 -303 135q-59 0 -94 -20.5t-35 -54.5q0 -31 30 -55q28 -24 63 -38q31 -14 90 -30q21 -6 54 -15.5t46 -13.5q43 -14 97 -34q59 -23 94 -44q32 -21 76 -57q75 -63 106 -164q16 -51 16 -117q0 -199 -159 -309q-161 -111 -396 -111zM418 -555l59 414
l23 20h284l19 -20l-137 -414l-25 -20h-205z" />
    <glyph glyph-name="uni0219" unicode="&#x219;" horiz-adv-x="1056" 
d="M535 -29q-157 0 -289 53q-134 52 -205 138v28l166 197h29q50 -47 140 -86q86 -37 167 -37q73 0 71 41q0 35 -102 66q-93 26 -146 45q-57 20 -126 60q-142 81 -142 249q0 152 121 240t326 88q141 0 264 -45q124 -45 186 -121v-29l-164 -184h-28q-119 98 -254 98
q-76 0 -76 -35q-4 -15 23 -31.5t69 -28.5q9 -3 65 -19q54 -17 75 -25q142 -51 213 -127q71 -77 71 -209q0 -148 -124 -236q-125 -90 -330 -90zM303 -555l59 414l23 20h285l18 -20l-137 -414l-25 -20h-204z" />
    <glyph glyph-name="uni021A" unicode="&#x21a;" horiz-adv-x="1265" 
d="M1241 1004h-405v-1004h-406v1004h-405v327h1216v-327zM408 -555l59 414l22 20h285l19 -20l-138 -414l-24 -20h-205z" />
    <glyph glyph-name="uni021B" unicode="&#x21b;" horiz-adv-x="950" 
d="M795 346l28 -14l105 -238l-13 -31q-118 -88 -286 -88q-175 0 -300 104q-124 103 -124 310v348h-180v287h180v297l366 39l31 -19v-317h291v-287h-291v-303q0 -121 103 -121q45 0 90 33zM408 -141l22 20h285l18 -20l-137 -414l-25 -20h-204l-19 20z" />
    <glyph glyph-name="uni0237" unicode="&#x237;" horiz-adv-x="636" 
d="M125 358v666h401v-719q0 -129 -6 -203q-6 -71 -26 -151q-21 -76 -65 -126q-91 -103 -292 -192h-28l-154 287v29q123 67 147 131q23 64 23 278z" />
    <glyph glyph-name="uni02BC" unicode="&#x2bc;" horiz-adv-x="454" 
d="M53 1196l62 414l22 20h285l18 -20l-143 -414l-25 -20h-200z" />
    <glyph glyph-name="circumflex" unicode="&#x2c6;" horiz-adv-x="1056" 
d="M506 1610h33l393 -238v-20l-103 -160h-20l-287 135l-286 -135h-21l-102 160v20z" />
    <glyph glyph-name="caron" unicode="&#x2c7;" horiz-adv-x="1044" 
d="M809 1589h20l103 -159v-21l-393 -238h-33l-393 238v21l102 159h21l286 -135z" />
    <glyph glyph-name="breve" unicode="&#x2d8;" horiz-adv-x="845" 
d="M693 1307q-112 -107 -271 -107q-160 0 -270 107q-111 107 -129 268h253q10 -65 50.5 -105t95.5 -40t95 39.5t50 105.5h254q-18 -161 -128 -268z" />
    <glyph glyph-name="dotaccent" unicode="&#x2d9;" horiz-adv-x="591" 
d="M460 1245q-69 -69 -165 -69t-165 69q-69 67 -69 164q0 96 69 165q70 68 165 68t165 -68q68 -70 68 -165q0 -96 -68 -164z" />
    <glyph glyph-name="ring" unicode="&#x2da;" horiz-adv-x="745" 
d="M373 1116q-122 0 -205 82q-84 82 -84 197q0 113 84 196q83 82 205 82t205 -82q84 -82 84 -196q0 -115 -85 -197t-204 -82zM319 1342q21 -22 54 -22t55 22q21 22 21 53t-21 53q-22 22 -55 22t-54 -22q-22 -22 -22 -53t22 -53z" />
    <glyph glyph-name="ogonek" unicode="&#x2db;" horiz-adv-x="743" 
d="M594 -514q-144 0 -239 80t-95 207q-3 61 22 113.5t57 86.5q15 19 40 40q27 22 29 24l204 -27q-92 -86 -92 -176q0 -57 34 -93t87 -36q40 0 68 16l28 -6l60 -149l-2 -27q-92 -53 -201 -53z" />
    <glyph glyph-name="tilde" unicode="&#x2dc;" horiz-adv-x="1019" 
d="M670 1210q-68 0 -179 40q-113 40 -153 40q-117 0 -162 -80h-16l-23 17v223q79 94 213 94q64 0 172 -40t154 -40q123 0 168 80h16l23 -16v-223q-80 -95 -213 -95z" />
    <glyph glyph-name="hungarumlaut" unicode="&#x2dd;" horiz-adv-x="933" 
d="M72 1192l133 389l26 21h261l18 -21l-215 -389l-27 -21h-178zM475 1192l133 389l27 21h260l18 -21l-215 -389l-26 -21h-178z" />
    <glyph glyph-name="uni0326" unicode="&#x326;" horiz-adv-x="0" 
d="M-418 -555l60 414l22 20h285l18 -20l-137 -414l-25 -20h-204z" />
    <glyph glyph-name="Wgrave" unicode="&#x1e80;" horiz-adv-x="2033" 
d="M1360 1630l-90 -155h-29l-539 219v28l140 244h28l490 -307v-29zM1632 1331h387l19 -31l-496 -1300h-246l-280 725l-279 -725h-245l-496 1300l18 31h387l240 -733l252 733h246l254 -737z" />
    <glyph glyph-name="wgrave" unicode="&#x1e81;" horiz-adv-x="1679" 
d="M1159 1346l-96 -175h-21l-528 193v20l135 258h21l489 -276v-20zM1296 1024h365l18 -27l-352 -997h-307l-182 532l-183 -532h-307l-338 997l19 27h370l150 -580l176 580h225l187 -553z" />
    <glyph glyph-name="Wacute" unicode="&#x1e82;" horiz-adv-x="2033" 
d="M1372 1694l-538 -219h-29l-90 155v29l489 307h29l139 -244v-28zM1632 1331h387l19 -31l-496 -1300h-246l-280 725l-279 -725h-245l-496 1300l18 31h387l240 -733l252 733h246l254 -737z" />
    <glyph glyph-name="wacute" unicode="&#x1e83;" horiz-adv-x="1679" 
d="M1137 1364l-529 -193h-20l-96 175v20l491 276h21l133 -258v-20zM1296 1024h365l18 -27l-352 -997h-307l-182 532l-183 -532h-307l-338 997l19 27h370l150 -580l176 580h225l187 -553z" />
    <glyph glyph-name="Wdieresis" unicode="&#x1e84;" horiz-adv-x="2033" 
d="M902 1547q-66 -66 -156 -66q-92 0 -156 66q-66 65 -66 155t66 156q65 65 156 65q89 0 156 -65q65 -67 65 -156q0 -90 -65 -155zM1440 1547q-66 -66 -156 -66t-155 66q-66 65 -66 155t66 156q65 65 155 65q89 0 156 -65q65 -67 65 -156q0 -90 -65 -155zM1632 1331h387
l19 -31l-496 -1300h-246l-280 725l-279 -725h-245l-496 1300l18 31h387l240 -733l252 733h246l254 -737z" />
    <glyph glyph-name="wdieresis" unicode="&#x1e85;" horiz-adv-x="1679" 
d="M741 1232q-61 -61 -147 -61t-146 61q-61 60 -61 146t61 147q60 60 146 60t147 -60q60 -61 60 -147t-60 -146zM1228 1232q-61 -61 -147 -61t-146 61q-61 60 -61 146t61 147q60 60 146 60q85 0 147 -60q60 -61 60 -147t-60 -146zM1296 1024h365l18 -27l-352 -997h-307
l-182 532l-183 -532h-307l-338 997l19 27h370l150 -580l176 580h225l187 -553z" />
    <glyph glyph-name="uni1E9E" unicode="&#x1e9e;" horiz-adv-x="1400" 
d="M1210 1077l-202 -286q160 -28 249 -137q89 -110 89 -267q0 -176 -127 -294t-338 -118q-175 0 -279 66l-18 31l106 258l33 12q33 -27 86 -27q57 0 93 37t36 97q0 57 -38 94t-97 37h-158v221l127 172q-39 51 -104 51q-67 0 -105.5 -45.5t-38.5 -118.5v-860h-405v807
q0 241 159 396q158 153 408 153q156 0 302 -78t222 -201z" />
    <glyph glyph-name="Ygrave" unicode="&#x1ef2;" horiz-adv-x="1374" 
d="M1034 1630l-90 -155h-29l-538 219v28l139 244h29l489 -307v-29zM1341 1331l19 -31l-467 -811v-489h-406v483l-485 817l18 31h398l274 -493l262 493h387z" />
    <glyph glyph-name="ygrave" unicode="&#x1ef3;" horiz-adv-x="1175" 
d="M934 1346l-96 -175h-21l-528 193v20l135 258h20l490 -276v-20zM815 1024h344l19 -27l-451 -1054q-123 -287 -420 -287q-116 0 -205 47l-14 27l66 241l26 15q51 -23 105 -23q79 0 108 60l35 71l-426 903l18 27h392l204 -553z" />
    <glyph glyph-name="uni1EF8" unicode="&#x1ef8;" horiz-adv-x="1374" 
d="M309 1505h-16l-23 15v254q78 102 203 102q73 0 226 -43q151 -43 208 -43q116 0 166 86h17l20 -14v-254q-76 -102 -203 -103q-76 0 -230 43q-156 43 -204 43q-119 0 -164 -86zM1341 1331l19 -31l-467 -811v-489h-406v483l-485 817l18 31h398l274 -493l262 493h387z" />
    <glyph glyph-name="uni1EF9" unicode="&#x1ef9;" horiz-adv-x="1175" 
d="M279 1210h-17l-22 17v223q79 94 213 94q64 0 171 -40q105 -40 154 -40q123 0 168 80h17l22 -16v-223q-79 -93 -213 -95q-68 0 -179 40q-113 40 -153 40q-116 0 -161 -80zM815 1024h344l19 -27l-451 -1054q-123 -287 -420 -287q-116 0 -205 47l-14 27l66 241l26 15
q51 -23 105 -23q79 0 108 60l35 71l-426 903l18 27h392l204 -553z" />
    <glyph glyph-name="endash" unicode="&#x2013;" horiz-adv-x="1269" 
d="M100 461v307h1069v-307h-1069z" />
    <glyph glyph-name="emdash" unicode="&#x2014;" horiz-adv-x="1533" 
d="M100 461v307h1334v-307h-1334z" />
    <glyph glyph-name="quoteleft" unicode="&#x2018;" horiz-adv-x="540" 
d="M324 1395h26l78 -74v-27q-119 -128 -119 -213q78 -13 128 -73q50 -61 50 -140q0 -92 -62 -152q-62 -61 -155 -61q-99 0 -157 61q-60 60 -60 161q0 139 76 278q77 139 195 240z" />
    <glyph glyph-name="quoteright" unicode="&#x2019;" horiz-adv-x="534" 
d="M219 674h-26l-78 74v26q119 129 118 213q-78 14 -128 74q-50 59 -50 139q0 92 63 153q61 60 154 60q98 0 158 -60q59 -62 59 -161q0 -138 -75 -278q-76 -140 -195 -240z" />
    <glyph glyph-name="quotesinglbase" unicode="&#x201a;" horiz-adv-x="563" 
d="M225 -379h-26l-78 74v26q119 128 119 213q-78 14 -128 74q-51 60 -51 139q0 91 63 153q62 60 155 60q98 0 158 -60q59 -61 59 -161q0 -140 -76 -279q-75 -138 -195 -239z" />
    <glyph glyph-name="quotedblleft" unicode="&#x201c;" horiz-adv-x="1050" 
d="M324 1419h26l78 -73v-27q-119 -128 -119 -213q78 -13 128 -73q50 -61 50 -140q0 -92 -62 -152q-62 -61 -155 -61q-99 0 -157 61q-60 60 -60 160q0 140 76 279q75 138 195 239zM834 1419h26l78 -73v-27q-119 -128 -119 -213q78 -13 128 -73q50 -61 50 -140q0 -92 -62 -152
q-62 -61 -155 -61q-99 0 -157 61q-60 60 -60 160q0 140 76 279q75 138 195 239z" />
    <glyph glyph-name="quotedblright" unicode="&#x201d;" horiz-adv-x="1044" 
d="M219 674h-26l-78 74v26q119 129 118 213q-78 14 -128 74q-50 59 -50 139q0 92 63 153q61 60 154 60q98 0 158 -60q59 -62 59 -161q0 -138 -75 -278q-76 -140 -195 -240zM729 674h-27l-77 74v26q119 129 118 213q-78 14 -128 74q-50 59 -50 139q0 92 63 153q62 60 154 60
q98 0 158 -60q59 -62 59 -161q0 -138 -75 -278q-76 -140 -195 -240z" />
    <glyph glyph-name="quotedblbase" unicode="&#x201e;" horiz-adv-x="1073" 
d="M225 -379h-26l-78 74v26q119 128 119 213q-78 14 -128 74q-51 60 -51 139q0 91 63 153q62 60 155 60q98 0 158 -60q59 -61 59 -161q0 -140 -76 -279q-75 -138 -195 -239zM735 -379h-26l-78 74v26q119 128 119 213q-78 14 -128 74q-51 60 -51 139q0 91 63 153
q62 60 154 60q98 0 158 -60t60 -161q0 -140 -76 -279q-75 -138 -195 -239z" />
    <glyph glyph-name="dagger" unicode="&#x2020;" horiz-adv-x="1187" 
d="M788 1010h316v-287h-316v-1042h-389v1042h-315v287h315v342h389v-342z" />
    <glyph glyph-name="daggerdbl" unicode="&#x2021;" horiz-adv-x="1187" 
d="M1104 1010v-287h-316v-414h316v-286h-316v-342h-389v342h-315v286h315v414h-315v287h315v342h389v-342h316z" />
    <glyph glyph-name="bullet" unicode="&#x2022;" horiz-adv-x="790" 
d="M597 388q-83 -83 -202 -83q-118 0 -201 83t-83 202t83 202q82 82 201 82q120 0 202 -82q83 -83 83 -202t-83 -202z" />
    <glyph glyph-name="ellipsis" unicode="&#x2026;" horiz-adv-x="1769" 
d="M456 44q-69 -69 -165 -69t-165 69t-69 165t69 165q70 68 165 68t165 -68q68 -70 68 -165t-68 -165zM1050 44q-69 -69 -165 -69q-97 0 -165 69q-69 69 -69 165t69 165q68 68 165 68q95 0 165 -68q68 -70 68 -165t-68 -165zM1644 44q-69 -69 -165 -69q-97 0 -165 69
q-69 69 -69 165t69 165q68 68 165 68q95 0 165 -68q68 -70 68 -165t-68 -165z" />
    <glyph glyph-name="perthousand" unicode="&#x2030;" horiz-adv-x="2770" 
d="M670 700q-104 -114 -258 -114q-156 0 -258 114q-103 112 -103 294q0 181 103 293q102 112 258 112q155 0 258 -112q102 -113 102 -293q0 -182 -102 -294zM289 -20l-19 28l1078 1364h294l19 -29l-1077 -1363h-295zM412 807q47 0 82 53q34 52 34 133q0 83 -31.5 134
t-84.5 51t-85 -51t-32 -134q0 -84 32 -135t85 -51zM1776 67q-104 -114 -258 -114q-156 0 -258 114q-103 112 -103 294q0 181 103 293q102 112 258 112q155 0 258 -112q102 -112 102 -293t-102 -294zM2618 67q-104 -114 -258 -114q-156 0 -258 114q-103 112 -103 294
q0 181 103 293q102 112 258 112q155 0 258 -112q102 -112 102 -293t-102 -294zM1433 225q31 -51 85 -51t85 51q31 50 31 135q0 83 -31.5 134t-84.5 51t-85 -51t-32 -134t32 -135zM2275 225q31 -51 85 -51t85 51q31 50 31 135q0 83 -31.5 134t-84.5 51t-85 -51t-32 -134
t32 -135z" />
    <glyph glyph-name="guilsinglleft" unicode="&#x2039;" horiz-adv-x="724" 
d="M473 1079l180 -172v-22l-243 -273l243 -274v-21l-180 -172h-18l-406 451v35l406 448h18z" />
    <glyph glyph-name="guilsinglright" unicode="&#x203a;" horiz-adv-x="724" 
d="M252 1079h18l406 -448v-35l-406 -451h-18l-180 172v21l243 274l-243 273v22z" />
    <glyph glyph-name="fraction" unicode="&#x2044;" horiz-adv-x="1259" 
d="M-47 -20l-19 28l1078 1364h295l18 -29l-1077 -1363h-295z" />
    <glyph glyph-name="Euro" unicode="&#x20ac;" horiz-adv-x="1536" 
d="M1223 862h-29q-111 129 -272 129q-162 0 -252 -133h381l18 -29l-51 -131h-402q-2 -10 -2 -32.5t2 -32.5h408l18 -29l-38 -131h-334q90 -133 252 -133q161 0 272 129h29l241 -209v-29q-207 -256 -546 -256q-248 0 -434 138q-186 136 -248 360h-170l-19 29l39 131h123v33
v32h-117l-18 29l39 131h123q61 223 249 361q188 137 439 137q161 0 303 -68q140 -69 237 -188v-29z" />
    <glyph glyph-name="trademark" unicode="&#x2122;" horiz-adv-x="1644" 
d="M260 1161h-205v170h619v-170h-203v-497h-211v497zM1460 1331l88 -667h-209l-32 284l-121 -284h-119l-123 284l-33 -284h-209l89 667h161l174 -403l172 403h162z" />
    <glyph glyph-name="minus" unicode="&#x2212;" horiz-adv-x="1277" 
d="M106 520v295h1065v-295h-1065z" />
    <glyph glyph-name="approxequal" unicode="&#x2248;" horiz-adv-x="1241" 
d="M840 743q-68 0 -221 36q-154 36 -220 36q-129 0 -176 -72h-28l-105 189v29q86 121 309 120q86 0 247 -35q159 -36 194 -36q129 0 176 71h28l105 -188v-29q-27 -37 -49 -56q-25 -22 -93 -43q-67 -22 -167 -22zM840 256q-68 0 -221 36q-154 36 -220 36q-129 0 -176 -72h-28
l-105 188v29q85 121 309 121q88 0 247 -36t194 -36q129 0 176 72h28l105 -188v-29q-27 -37 -49 -56q-25 -22 -93 -43q-67 -22 -167 -22z" />
    <glyph glyph-name="notequal" unicode="&#x2260;" horiz-adv-x="1277" 
d="M1212 999v-266h-399l-84 -139h483v-266h-641l-165 -277h-256l-19 29l148 248h-213v266h372l84 139h-456v266h614l166 277h256l18 -29l-147 -248h239z" />
    <glyph glyph-name="uniF8FF" unicode="&#xf8ff;" horiz-adv-x="2758" 
d="M1523 1210q-35 -36 -87 -36q-54 0 -87 36q-34 34 -34 88q0 52 34 86.5t87 34.5t86.5 -34.5t33.5 -86.5q0 -53 -33 -88zM365 670h-238q0 310 10 446l13 182h194q0 -5 10 -184q9 -170 11 -444zM938 965v170l238 73l8 -61h352q2 -28 4 -56.5t3 -40t1 -12.5q8 -107 8 -368
h-233q0 254 4 295h-117l4 -129q0 -2 4 -2q1 -1 19 -3q9 0 27 5l8 4v-148q-2 -8 -21 -18q-35 -15 -106 -17q-160 0 -160 131q0 7 2 103q0 13 0.5 25.5t0.5 21t0.5 15t0.5 9.5v3h-47zM756 670l-19 118q-26 -131 -151 -131q-181 0 -183 230q0 135 64.5 201.5t206.5 66.5
q119 0 178.5 -57t58.5 -172v-256h-155zM1831 670h-232q0 238 11 370q6 67 12 107h156l6 -51q6 -92 6 -101l4 21q46 139 162 139q81 0 115 -47.5t36 -159.5l4 -278h-229q0 31 2 111q2 78 2 81q0 51 -31 51q-35 0 -34 -51q0 -17 5 -82t5 -110zM2142 901q0 254 246 254
q141 0 195 -67q53 -68 53 -187q0 -116 -62.5 -180t-185.5 -64q-121 0 -183.5 64.5t-62.5 179.5zM664 817q49 0 49 62q0 55 -49 55q-43 0 -43 -55q0 -62 43 -62zM2388 817q49 0 49 62q0 55 -49 55q-47 0 -47 -55q0 -62 47 -62zM123 397v170l248 82l8 -59h338q-2 -52 -2 -107
q-2 -74 -2 -110q0 -52 32 -54q31 0 31 54v7q0 7 -0.5 18.5t-1 25t-0.5 30v29.5q-2 42 -2 107h217l6 -82q6 -78 6 -215q0 -147 -73.5 -214t-233.5 -67q-88 0 -149 21q-28 7 -41 22v170q10 -9 37 -20q44 -17 110 -19q81 0 125 37q20 17 23 37q-2 -2 -5.5 -4t-8.5 -5.5t-9 -6.5
q-33 -14 -94 -15q-190 0 -190 152v16h-93l4 -125q28 0 43 7l15 6v-152q-11 -11 -31 -18q-42 -15 -106 -17q-150 0 -150 131q0 13 0.5 34.5t1 43.5t1 42.5t1.5 34.5v13h-55zM1300 12h-260q0 290 11 420l12 158h160l6 -60q8 -46 8 -94q29 170 160 170q74 0 116.5 -60.5
t42.5 -168.5q0 -135 -67.5 -207t-192.5 -72q0 -12 2 -22q0 -2 1 -27.5t1 -36.5zM2011 281v-150q-4 -4 -35 -16q-46 -15 -112 -17q-135 0 -204 65.5t-69 182.5q0 260 252 260q107 0 168.5 -62t61.5 -171q0 -13 -7 -54l-4 -20h-245q1 -16 12 -25q25 -26 78 -24q52 0 80 14
q18 11 24 17zM2143 465q-23 23 -23 54t23 53t53 22t53 -22t23 -53t-23 -54t-53 -23t-53 23zM2153 476q18 -19 42.5 -19t43.5 19q18 18 18 42.5t-18 43.5q-19 18 -43.5 18t-42.5 -18q-19 -19 -19 -43.5t19 -42.5zM2167 481v76h33q16 0 23.5 -6t6.5 -19q0 -18 -16 -24l16 -27
h-18l-14 23h-15v-23h-16zM2183 518h17q9 0 12.5 6t0 12.5t-12.5 6.5h-17v-25zM1804 350h80v4v4q2 6 2 9q0 39 -37 39q-45 0 -45 -56zM1262 281l4 -17q28 5 39 10q40 23 38 64q0 43 -38 43q-46 0 -48 -62q0 -16 5 -38z" />
    <glyph glyph-name="J.aalt" horiz-adv-x="1105" 
d="M240 1004v327h749v-721q0 -334 -129 -484q-129 -151 -416 -151q-121 0 -254 56q-136 56 -204 151v31l217 223h30q76 -100 181 -100q170 0 170 192v476h-344z" />
    <glyph glyph-name="Q.aalt" horiz-adv-x="1609" 
d="M1511 86l29 -10l123 -252l-10 -29q-101 -96 -252 -96q-170 0 -373 149q-18 12 -55 43q-35 30 -56 44q-58 40 -112 40q-316 0 -530 197q-214 196 -214 494t213 494q212 196 531 196q318 0 530 -196q213 -196 213 -494q0 -171 -76.5 -316t-214.5 -239q77 -62 144 -64
q73 0 110 39zM571 899q-96 -91 -96 -233t96 -234q95 -92 234 -92q138 0 235 92q95 92 95 234q0 141 -95 233q-97 92 -235 92q-139 0 -234 -92z" />
    <glyph glyph-name="i.aalt" horiz-adv-x="626" 
d="M479 1245q-69 -69 -165 -69q-98 0 -165 69q-69 67 -69 164q0 96 69 165q68 68 165 68q95 0 165 -68q68 -70 68 -165q0 -96 -68 -164zM514 0h-401v1024h401v-1024z" />
    <glyph glyph-name="a.salt" horiz-adv-x="1310" 
d="M881 934v90h317v-1024h-317v92q-143 -117 -318 -117q-218 0 -364 155t-146 382q0 228 146 383q145 154 364 154q176 0 318 -115zM499 370q53 -57 132 -57t132 57q52 55 52 142t-52 143q-53 56 -132 56t-132 -56q-53 -58 -53 -143q0 -86 53 -142z" />
    <glyph glyph-name="aacute.aalt" horiz-adv-x="1310" 
d="M913 1364l-528 -193h-20l-97 175v20l492 276h20l133 -258v-20zM881 934v90h317v-1024h-317v92q-143 -117 -318 -117q-218 0 -364 155t-146 382q0 228 146 383q145 154 364 154q176 0 318 -115zM499 370q53 -57 132 -57t132 57q52 55 52 142t-52 143q-53 56 -132 56
t-132 -56q-53 -58 -53 -143q0 -86 53 -142z" />
    <glyph glyph-name="abreve.aalt" horiz-adv-x="1310" 
d="M885 1307q-112 -107 -270 -107q-159 0 -271 107q-111 107 -129 268h254q10 -66 50 -105.5t96 -39.5t95.5 39.5t49.5 105.5h254q-18 -161 -129 -268zM881 934v90h317v-1024h-317v92q-143 -117 -318 -117q-218 0 -364 155t-146 382q0 228 146 383q145 154 364 154
q176 0 318 -115zM499 370q53 -57 132 -57t132 57q52 55 52 142t-52 143q-53 56 -132 56t-132 -56q-53 -58 -53 -143q0 -86 53 -142z" />
    <glyph glyph-name="acircumflex.aalt" horiz-adv-x="1310" 
d="M614 1327l-286 -135h-21l-102 160v20l393 238h33l393 -238v-20l-102 -160h-21zM881 934v90h317v-1024h-317v92q-143 -117 -318 -117q-218 0 -364 155t-146 382q0 228 146 383q145 154 364 154q176 0 318 -115zM499 370q53 -57 132 -57t132 57q52 55 52 142t-52 143
q-53 56 -132 56t-132 -56q-53 -58 -53 -143q0 -86 53 -142z" />
    <glyph glyph-name="adieresis.aalt" horiz-adv-x="1310" 
d="M518 1232q-61 -61 -147 -61t-146 61q-61 60 -61 146t61 147q60 60 146 60q85 0 147 -60q60 -61 60 -147t-60 -146zM1005 1232q-61 -61 -147 -61t-146 61q-61 60 -61 146t61 147q60 60 146 60t147 -60q60 -61 60 -147t-60 -146zM881 934v90h317v-1024h-317v92
q-143 -117 -318 -117q-218 0 -364 155t-146 382q0 228 146 383q145 154 364 154q176 0 318 -115zM499 370q53 -57 132 -57t132 57q52 55 52 142t-52 143q-53 56 -132 56t-132 -56q-53 -58 -53 -143q0 -86 53 -142z" />
    <glyph glyph-name="agrave.aalt" horiz-adv-x="1310" 
d="M936 1346l-96 -175h-21l-528 193v20l135 258h20l490 -276v-20zM881 934v90h317v-1024h-317v92q-143 -117 -318 -117q-218 0 -364 155t-146 382q0 228 146 383q145 154 364 154q176 0 318 -115zM499 370q53 -57 132 -57t132 57q52 55 52 142t-52 143q-53 56 -132 56
t-132 -56q-53 -58 -53 -143q0 -86 53 -142z" />
    <glyph glyph-name="amacron.aalt" horiz-adv-x="1310" 
d="M246 1485h737v-246h-737v246zM881 934v90h317v-1024h-317v92q-143 -117 -318 -117q-218 0 -364 155t-146 382q0 228 146 383q145 154 364 154q176 0 318 -115zM499 370q53 -57 132 -57t132 57q52 55 52 142t-52 143q-53 56 -132 56t-132 -56q-53 -58 -53 -143
q0 -86 53 -142z" />
    <glyph glyph-name="aogonek.aalt" horiz-adv-x="1310" 
d="M1294 -289l29 -6l59 -149l-2 -27q-92 -53 -200 -53q-145 0 -239 79q-95 80 -95 207q0 134 117 238h-82v92q-143 -117 -318 -117q-218 0 -364 155t-146 382q0 228 146 383q145 154 364 154q176 0 318 -115v90h317v-1024q-92 -86 -92 -176q0 -57 34 -93t87 -36q39 0 67 16z
M499 370q53 -57 132 -57t132 57q52 55 52 142t-52 143q-53 56 -132 56t-132 -56q-53 -58 -53 -143q0 -86 53 -142z" />
    <glyph glyph-name="aring.aalt" horiz-adv-x="1310" 
d="M614 1116q-122 0 -204 82q-84 82 -84 197q0 113 84 196q83 82 205 82q121 0 204 -82q84 -82 84 -196q0 -115 -85 -197t-204 -82zM669 1448q-22 22 -54.5 22t-53.5 -22q-22 -22 -22 -53t22 -53q21 -22 53.5 -22t54.5 22q21 22 21 53t-21 53zM881 934v90h317v-1024h-317v92
q-143 -117 -318 -117q-218 0 -364 155t-146 382q0 228 146 383q145 154 364 154q176 0 318 -115zM499 370q53 -57 132 -57t132 57q52 55 52 142t-52 143q-53 56 -132 56t-132 -56q-53 -58 -53 -143q0 -86 53 -142z" />
    <glyph glyph-name="atilde.aalt" horiz-adv-x="1310" 
d="M281 1210h-17l-22 17v223q79 94 213 94q67 0 172 -40t153 -40q123 0 168 80h17l22 -16v-223q-79 -93 -213 -95q-68 0 -179 40q-113 40 -153 40q-116 0 -161 -80zM881 934v90h317v-1024h-317v92q-143 -117 -318 -117q-218 0 -364 155t-146 382q0 228 146 383
q145 154 364 154q176 0 318 -115zM499 370q53 -57 132 -57t132 57q52 55 52 142t-52 143q-53 56 -132 56t-132 -56q-53 -58 -53 -143q0 -86 53 -142z" />
    <glyph glyph-name="ae.aalt" horiz-adv-x="1992" 
d="M1933 428h-708q10 -82 67.5 -126t149.5 -44q149 0 246 92h28l168 -166v-28q-162 -179 -434 -181q-175 0 -311 127v-127h-297v88q-124 -88 -279 -88q-218 0 -364 155t-146 382q0 228 146 383q145 154 364 154q149 0 277 -84v84h299v-101q140 99 319 101q221 0 353 -143
q131 -145 131 -386q-2 -52 -9 -92zM1391 780q-74 0 -119 -45t-49 -123h336q-6 76 -52 122t-116 46zM499 370q53 -57 132 -57t132 57q52 55 52 142t-52 143q-53 56 -132 56t-132 -56q-53 -58 -53 -143q0 -86 53 -142z" />
    <glyph glyph-name="aeacute.aalt" horiz-adv-x="1992" 
d="M1290 1364l-528 -193h-21l-96 175v20l492 276h20l133 -258v-20zM1933 428h-708q10 -82 67.5 -126t149.5 -44q149 0 246 92h28l168 -166v-28q-162 -179 -434 -181q-175 0 -311 127v-127h-297v88q-124 -88 -279 -88q-218 0 -364 155t-146 382q0 228 146 383
q145 154 364 154q149 0 277 -84v84h299v-101q140 99 319 101q221 0 353 -143q131 -145 131 -386q-2 -52 -9 -92zM1391 780q-74 0 -119 -45t-49 -123h336q-6 76 -52 122t-116 46zM499 370q53 -57 132 -57t132 57q52 55 52 142t-52 143q-53 56 -132 56t-132 -56
q-53 -58 -53 -143q0 -86 53 -142z" />
    <glyph glyph-name="f_t.dlig" horiz-adv-x="1757" 
d="M1602 346l28 -14l105 -238l-13 -31q-118 -88 -286 -88q-175 0 -300 104q-124 103 -124 310v348h-381v-737h-402v737h-178v287h178q0 194 129 318q128 124 330 124q122 0 225 -45l17 -26l-66 -236l-28 -18q-43 25 -91 24q-52 0 -83 -36.5t-31 -104.5h381v297l366 39
l31 -19v-317h291v-287h-291v-303q0 -121 102 -121q45 0 91 33z" />
    <glyph glyph-name="ordfeminine.aalt" horiz-adv-x="911" 
d="M811 911l14 -8l27 -164l-8 -18q-50 -31 -115 -31q-109 0 -156 78q-86 -80 -206 -80q-135 0 -225 96q-91 94 -91 236q0 141 90 237q90 95 226 95q115 0 202 -78v63h195v-391q0 -41 31 -41q10 0 16 6zM337 932q32 -35 81 -35t82 35q32 35 32 88t-32 88q-33 35 -82 35
t-81 -35t-32 -88t32 -88z" />
    <glyph glyph-name="ampersand.aalt" horiz-adv-x="1400" 
d="M846 807h540v-250h-141q19 -78 21 -137q0 -217 -170 -354q-170 -138 -438 -138q-270 0 -439 138q-170 137 -170 356q0 270 252 395q-121 91 -121 240q0 166 122 268t316 102q154 0 259 -50q102 -50 182 -152v-29l-182 -139h-29q-72 104 -191 104q-63 0 -105 -33
q-42 -34 -42 -81q0 -51 37 -82t96 -31h70v-285h-56q-100 0 -163 -57q-64 -57 -64 -149q0 -93 64 -150q63 -57 164 -57q100 0 164 57q63 57 63 149q0 62 -39 115v250z" />
    <glyph glyph-name="glyph370" horiz-adv-x="0" 
d="M-475 1065l67 430l23 21h285l18 -21l-158 -430l-24 -21h-193z" />
    <glyph glyph-name="acute.aalt" horiz-adv-x="765" 
d="M82 1331l489 307h29l139 -243v-29l-538 -219h-29l-90 156v28z" />
    <glyph glyph-name="breve.aalt" horiz-adv-x="921" 
d="M728 1283q-105 -105 -267 -105t-266 104q-105 104 -123 270h254q16 -145 135 -145q57 0 93 38t42 107h254q-18 -163 -122 -269z" />
    <glyph glyph-name="caron.aalt" horiz-adv-x="989" 
d="M797 1618h28l88 -150v-28l-403 -236h-31l-403 236v28l88 150h29l303 -141z" />
    <glyph glyph-name="circumflex.aalt" horiz-adv-x="989" 
d="M477 1632h31l416 -235v-29l-101 -170h-28l-301 141l-304 -141h-28l-101 170v29z" />
    <glyph glyph-name="dieresis.aalt" horiz-adv-x="1171" 
d="M472 1244q-66 -66 -156 -66q-92 0 -156 66q-66 64 -66 155q0 90 66 156q65 65 156 65q89 0 156 -65q65 -67 65 -156q0 -90 -65 -155zM1010 1244q-66 -66 -156 -66t-155 66q-66 64 -66 155q0 90 66 156q65 65 155 65q89 0 156 -65q65 -67 65 -156q0 -90 -65 -155z" />
    <glyph glyph-name="dotaccent.aalt" horiz-adv-x="628" 
d="M313 1178q-95 0 -162 69q-69 67 -69 162q0 93 69 164q67 69 162 69q96 0 165 -69q69 -71 69 -164q0 -94 -71 -162q-70 -69 -163 -69z" />
    <glyph glyph-name="grave.aalt" horiz-adv-x="765" 
d="M209 1638h29l489 -307v-28l-90 -156h-29l-538 219v29z" />
    <glyph glyph-name="hungarumlaut.aalt" horiz-adv-x="1091" 
d="M61 1174l213 354h308l16 -23l-297 -358h-225zM492 1174l213 354h307l16 -23l-297 -358h-225z" />
    <glyph glyph-name="macron.aalt" horiz-adv-x="929" 
d="M82 1206v269h766v-269h-766z" />
    <glyph glyph-name="ring.aalt" horiz-adv-x="724" 
d="M560 1220q-82 -81 -197 -81t-198 81q-83 80 -83 195t83 196t198 81t197 -81q83 -81 83 -196t-83 -195zM310 1360q22 -22 53 -22t53 22t22 55t-22 56t-53 23t-53 -23t-22 -56t22 -55z" />
    <glyph glyph-name="tilde.aalt" horiz-adv-x="1056" 
d="M766 1202q-76 0 -230 43q-156 43 -204 43q-119 0 -164 -86h-16l-23 15v253q78 101 203 103q73 0 226 -43q151 -43 208 -43q116 0 166 86h16l21 -14v-254q-76 -103 -203 -103z" />
    <glyph glyph-name="glyph382" horiz-adv-x="1685" 
d="M102 1475h-28l-90 155v29l489 307h29l139 -244v-28zM1169 1475h-28l-90 155v29l489 307h29l139 -244v-28zM539 0h-406v1331h406v-1331zM1024 -25q-121 0 -254 56q-135 55 -205 151v31l217 223h31q76 -100 180 -100q170 0 170 192v803h406v-721q0 -334 -129 -484
q-129 -151 -416 -151z" />
    <glyph glyph-name="glyph383" horiz-adv-x="1689" 
d="M102 1475h-28l-90 155v29l489 307h29l139 -244v-28zM979 1475h-29l-90 155v29l490 307h28l140 -244v-28zM539 0h-406v1331h406v-1331zM1028 -25q-121 0 -254 56q-135 55 -205 151v31l217 223h31q76 -100 180 -100q170 0 170 192v476h-344v327h750v-721q0 -334 -129 -484
q-129 -151 -416 -151z" />
    <glyph glyph-name="glyph384" horiz-adv-x="1339" 
d="M791 1171h-21l-86 175v20l510 281h20l136 -263v-20zM84 1171h-21l-96 175v20l492 276h20l133 -258v-20zM514 0h-401v1024h401v-1024zM840 -367h-29l-154 287v29q123 67 147 131q23 64 23 278v666h402v-719q0 -129 -6 -203q-6 -71 -26 -151q-21 -76 -65 -126
q-93 -103 -292 -192z" />
    <glyph glyph-name="glyph385" horiz-adv-x="1583" 
d="M475 -121h-375l-18 31l1051 1581h370l19 -31z" />
    <glyph glyph-name="glyph386" horiz-adv-x="1300" 
d="M414 49h-355l-18 29l846 1231h354l19 -29z" />
    <glyph glyph-name="glyph387" horiz-adv-x="911" 
d="M870 1047v-324l-800 -395l-29 16v324l801 395z" />
    <glyph glyph-name="glyph388" horiz-adv-x="897" 
d="M815 725l-704 -371l-29 19v260l704 371l29 -19v-260z" />
    <glyph glyph-name="glyph389" horiz-adv-x="1548" 
d="M55 897v246h1409v-246h-1409z" />
    <glyph glyph-name="glyph390" horiz-adv-x="827" 
d="M766 565h-705v201h705v-201z" />
    </font>
</defs>
</svg>
