<?xml version="1.0" standalone="no"?>
<!DOCTYPE svg PUBLIC "-//W3C//DTD SVG 1.1//EN" "http://www.w3.org/Graphics/SVG/1.1/DTD/svg11.dtd" >
<svg xmlns="http://www.w3.org/2000/svg" xmlns:xlink="http://www.w3.org/1999/xlink" version="1.1">
<metadata>
Created by FontForge 20190801 at Tue Sep 12 22:01:45 2017
 By Jimmy Wärting
Copyright (c) 2017 by Enrique Hernandez Vasquez. All rights reserved.
</metadata>
<defs>
<font id="IsidoraSans-RegularItalic" horiz-adv-x="446" >
  <font-face 
    font-family="Isidora Sans Regular Italic"
    font-weight="400"
    font-style="italic"
    font-stretch="normal"
    units-per-em="2048"
    panose-1="0 0 5 0 0 0 0 0 0 0"
    ascent="1638"
    descent="-410"
    x-height="1024"
    cap-height="1331"
    bbox="-348 -428 2636 1800"
    underline-thickness="0"
    underline-position="0"
    unicode-range="U+0020-FB02"
  />
<missing-glyph horiz-adv-x="851" 
d="M158 1397h540v-1704h-540v1704zM567 1227v55h-280v-55h110v-64h-112v-55h282v55h-112v64h112zM455 944v119h-170v-178h282v59h-112zM340 1006h57v-62h-57v62zM567 782v58h-282v-58h112v-61h-112v-57h170v118h112zM567 567v170h-55v-112h-227v-58h282zM567 336v194h-170
v-96h58v39h57v-80h-172v137h-55v-194h282zM567 43v193h-282v-193h282zM340 178h172v-80h-172v80zM567 -53v55h-282v-55h118l-118 -80v-57h282v57h-174l119 80h55z" />
    <glyph glyph-name="uniFB01" unicode="fi" horiz-adv-x="1019" 
d="M510 1024h520l-182 -1024h-100l165 936h-417l-168 -936h-101l168 936h-174l15 88h174l8 41q61 352 352 352q82 0 137 -31v-10l-43 -65l-10 -4q-46 20 -96 20q-103 0 -159.5 -64.5t-80.5 -197.5zM1038 1378q35 0 60.5 -24.5t25.5 -57.5q0 -45 -31.5 -77.5t-76.5 -32.5
q-35 0 -60.5 24.5t-25.5 57.5q0 45 31.5 77.5t76.5 32.5z" />
    <glyph glyph-name="uniFB02" unicode="fl" horiz-adv-x="1040" 
d="M1016 1393l92 10l8 -6l-250 -1397h-100l219 1221q-45 106 -199 106q-97 0 -170 -68q-73 -69 -94 -184l-10 -51h315l-14 -86h-315l-170 -938h-101l168 938h-174l15 86h176l8 51q27 158 131 250t250 92q129 0 205 -82z" />
    <glyph glyph-name=".notdef" horiz-adv-x="851" 
d="M158 1397h540v-1704h-540v1704zM567 1227v55h-280v-55h110v-64h-112v-55h282v55h-112v64h112zM455 944v119h-170v-178h282v59h-112zM340 1006h57v-62h-57v62zM567 782v58h-282v-58h112v-61h-112v-57h170v118h112zM567 567v170h-55v-112h-227v-58h282zM567 336v194h-170
v-96h58v39h57v-80h-172v137h-55v-194h282zM567 43v193h-282v-193h282zM340 178h172v-80h-172v80zM567 -53v55h-282v-55h118l-118 -80v-57h282v57h-174l119 80h55z" />
    <glyph glyph-name="glyph1" horiz-adv-x="0" 
 />
    <glyph glyph-name="glyph2" horiz-adv-x="681" 
 />
    <glyph glyph-name="space" unicode=" " horiz-adv-x="514" 
 />
    <glyph glyph-name="exclam" unicode="!" horiz-adv-x="481" 
d="M328 268h-76l-4 8l172 1047l8 8h104l5 -8l-201 -1047zM242 -25q-36 0 -61 26t-25 60q0 43 32 75t74 32q37 0 61.5 -24.5t24.5 -61.5q0 -44 -31 -75q-32 -32 -75 -32z" />
    <glyph glyph-name="quotedbl" unicode="&#x22;" horiz-adv-x="581" 
d="M362 854h-59l62 477h106zM586 854h-60l64 477h108z" />
    <glyph glyph-name="numbersign" unicode="#" horiz-adv-x="1134" 
d="M344 0h-90l125 395h-240l27 86h240l118 369h-248l27 86h248l123 393h88l-123 -393h301l123 393h90l-123 -393h203l-27 -86h-205l-114 -369h207l-29 -86h-205l-125 -395h-90l125 395h-301zM612 850l-116 -369h301l114 369h-299z" />
    <glyph glyph-name="dollar" unicode="$" horiz-adv-x="909" 
d="M748 1407l-27 -145q182 -18 256 -152l-2 -10l-64 -58h-10q-71 131 -244 132q-113 0 -184 -65q-72 -65 -72 -163q0 -71 54 -115q31 -26 52 -38q21 -14 71 -39q5 -2 14.5 -7t26 -12.5t32.5 -15.5q55 -27 78 -39q20 -11 62 -41q39 -28 58 -53t35 -68q15 -41 15 -88
q0 -148 -99 -239q-100 -92 -261 -103l-27 -143h-90l24 145q-104 12 -187 68t-126 143l2 8l72 56h8q44 -85 124 -134q81 -51 173 -51q127 0 204 68t77 172q0 86 -62 132q-39 29 -59 40q-26 14 -81 39q-55 24 -79 35q-99 47 -157 108q-60 60 -60 158q0 134 93 226
q92 90 243 104l24 145h93z" />
    <glyph glyph-name="percent" unicode="%" horiz-adv-x="1540" 
d="M498 588q-113 0 -179 85q-67 85 -67 228q0 184 91 320q91 135 239 135q114 0 178 -85q65 -86 65 -229q0 -186 -90 -320t-237 -134zM203 0l-2 10l1237 1321h108l2 -10l-1237 -1321h-108zM504 674q100 0 166 106q65 106 65 256q0 110 -42.5 172t-119.5 62q-99 0 -164 -105
q-66 -108 -67 -258q0 -110 42.5 -171.5t119.5 -61.5zM1180 -25q-113 0 -179 85q-67 85 -67 229q0 185 91 319q91 135 239 135q114 0 178 -85q65 -86 65 -228q0 -184 -90 -319q-90 -136 -237 -136zM1186 61q100 0 165 107q64 106 64 256q0 110 -41.5 171.5t-118.5 61.5
q-101 0 -165 -105q-66 -106 -66 -255q0 -110 42.5 -173t119.5 -63z" />
    <glyph glyph-name="ampersand" unicode="&#x26;" horiz-adv-x="1257" 
d="M1217 78l6 -6l12 -68l-4 -8q-39 -19 -86 -21q-102 0 -174 101q-150 -105 -336 -107q-200 0 -336 122q-135 121 -135 306q0 145 84 265t223 190q-17 33 -27 68q-12 43 -12 86q0 154 104 252t263 98q195 0 301 -154v-10l-70 -57h-10q-79 127 -225 127q-116 0 -187 -70
q-73 -70 -73 -172q0 -73 56 -168q24 -41 56 -88l350 -541q103 117 105 266q0 117 -66 203v8l76 60h8q86 -110 86 -258q0 -204 -155 -361q55 -78 108 -78q35 0 58 15zM268 401q0 -145 107 -241q106 -97 268 -97q152 0 277 89l-318 487l-86 137q-112 -59 -179 -159
q-69 -101 -69 -216z" />
    <glyph glyph-name="quotesingle" unicode="'" horiz-adv-x="354" 
d="M362 854h-59l62 477h106z" />
    <glyph glyph-name="parenleft" unicode="(" horiz-adv-x="538" 
d="M295 432q0 -176 44 -357q44 -180 126 -313h-115q-162 287 -162 674q0 553 474 1075h116q-483 -504 -483 -1079z" />
    <glyph glyph-name="parenright" unicode=")" horiz-adv-x="538" 
d="M111 -238h-129q492 509 491 1080q0 178 -44 359q-44 180 -126 310h117q160 -289 160 -673q0 -558 -469 -1076z" />
    <glyph glyph-name="asterisk" unicode="*" horiz-adv-x="899" 
d="M604 633h-86l55 297l-276 -148l-29 72l279 150l-225 147l55 72l221 -146l53 295h86l-53 -297l279 150l28 -74l-280 -147l227 -150l-55 -72l-226 150z" />
    <glyph glyph-name="plus" unicode="+" horiz-adv-x="1058" 
d="M698 659h416l-18 -88h-414l-74 -409h-96l74 409h-418l14 88h420l74 406h94z" />
    <glyph glyph-name="comma" unicode="," horiz-adv-x="407" 
d="M78 -272h-10l-31 28v8q125 151 156 211q-28 0 -50 25.5t-22 62.5q0 43 30.5 73t77.5 30q37 0 61.5 -25.5t24.5 -66.5q0 -54 -51 -127t-186 -219z" />
    <glyph glyph-name="hyphen" unicode="-" horiz-adv-x="946" 
d="M240 571l14 86h674l-15 -86h-673z" />
    <glyph glyph-name="period" unicode="." horiz-adv-x="413" 
d="M205 -25q-36 0 -61 26t-25 60q0 43 32 75t74 32q37 0 61.5 -24.5t24.5 -61.5q0 -44 -31 -75q-32 -32 -75 -32z" />
    <glyph glyph-name="slash" unicode="/" horiz-adv-x="991" 
d="M27 -98l1083 1540h92l2 -8l-1081 -1543h-92z" />
    <glyph glyph-name="zero" unicode="0" horiz-adv-x="1206" 
d="M633 -25q-194 0 -307 146t-113 393q0 214 72 405q70 188 213 313q140 124 321 124q197 0 309 -145q111 -145 111 -394q0 -214 -71 -404q-71 -189 -213 -314q-142 -124 -322 -124zM643 70q147 0 262 112q114 110 173 277q57 166 57 346q0 209 -87 333t-239 124
q-147 0 -262 -112q-116 -113 -171 -277q-57 -167 -57 -347q0 -208 86 -332q85 -124 238 -124z" />
    <glyph glyph-name="one" unicode="1" horiz-adv-x="573" 
d="M272 1235l17 96h323l-239 -1331h-103l222 1235h-220z" />
    <glyph glyph-name="two" unicode="2" horiz-adv-x="995" 
d="M713 510q-61 -56 -473 -420h688l-15 -90h-843l14 76q290 245 537 475q176 162 246 266q71 106 71 217q0 104 -68 166q-70 62 -182 62q-194 0 -354 -183h-10l-54 56l2 10q186 211 424 211q153 0 250 -85q98 -86 98 -222q0 -129 -76 -250q-76 -120 -255 -289z" />
    <glyph glyph-name="three" unicode="3" horiz-adv-x="1021" 
d="M788 723q95 -37 148 -117.5t53 -189.5q0 -226 -186 -353q-127 -88 -299 -88q-128 0 -235 50q-111 50 -175 143v10l72 58h10q109 -166 338 -166q159 0 266 95q105 95 105 243q0 126 -84 200q-84 72 -221 72h-84l14 80h80q138 0 241 87t103 212q0 90 -68 147
q-70 56 -172 56q-175 0 -315 -136h-10l-52 56l2 10q181 164 383 164q148 0 242 -79t94 -208q0 -114 -68 -208q-69 -93 -182 -138z" />
    <glyph glyph-name="four" unicode="4" horiz-adv-x="1071" 
d="M899 436h174l-16 -90h-174l-62 -346h-102l61 346h-680l15 76l897 909h49zM922 1112l-666 -676h543z" />
    <glyph glyph-name="five" unicode="5" horiz-adv-x="1067" 
d="M1110 1331l-18 -96h-582l-133 -444q139 82 289 81q188 0 298 -108q109 -109 109 -285q0 -236 -176 -385q-143 -119 -348 -119q-125 0 -235 53q-113 53 -177 142v8l66 55h10q51 -78 142 -120q90 -43 194 -43q175 0 291 106q127 121 127 299q0 136 -85 218q-86 83 -233 83
q-102 0 -192 -43q-93 -44 -146 -106h-10l-63 35l200 669h672z" />
    <glyph glyph-name="six" unicode="6" horiz-adv-x="1087" 
d="M698 868q178 0 294 -110q116 -111 116 -283q0 -215 -147 -357q-149 -143 -365 -143q-191 0 -309 109q-119 110 -119 291q0 310 340 690q126 141 315 305h11l57 -55v-10q-171 -138 -305 -285q-109 -116 -205 -268q142 116 317 116zM602 70q169 0 285 113q114 113 114 280
q0 137 -90 223q-91 86 -235 86q-168 0 -286 -112t-118 -279q0 -137 92 -224t238 -87z" />
    <glyph glyph-name="seven" unicode="7" horiz-adv-x="899" 
d="M227 1235l19 96h856l-12 -55l-779 -1276h-112l-2 6l751 1229h-721z" />
    <glyph glyph-name="eight" unicode="8" horiz-adv-x="1132" 
d="M893 756q102 -43 159.5 -128t57.5 -192q0 -209 -149 -335q-150 -126 -377 -126q-184 0 -301 102q-117 101 -117 259q0 144 88 256q89 113 231 164q-133 82 -133 231q0 157 123 263q122 106 295 106q146 0 240 -80q92 -80 92 -205q0 -99 -56 -183t-153 -132zM459 999
q0 -92 66 -149q65 -57 169 -57q124 0 212 77q87 76 87 189q0 87 -65 146q-66 57 -170 57q-126 0 -212 -76q-87 -76 -87 -187zM596 70q180 0 295 99t115 257q0 120 -90 200q-91 79 -234 79q-170 0 -291 -102q-121 -103 -121 -255q0 -121 92 -199q91 -79 234 -79z" />
    <glyph glyph-name="nine" unicode="9" horiz-adv-x="1085" 
d="M737 1354q189 0 304 -108q116 -110 116 -290q0 -300 -336 -692q-104 -127 -289 -303h-10l-59 57v11q174 163 270 270q142 157 219 289q-143 -125 -311 -125q-184 0 -301 111q-117 110 -117 280q0 215 149 358q148 142 365 142zM649 557q167 0 286 115q120 114 120 280
q0 135 -90 222q-92 86 -236 86q-169 0 -284 -114q-117 -114 -117 -280q0 -135 90 -222t231 -87z" />
    <glyph glyph-name="colon" unicode=":" horiz-adv-x="466" 
d="M393 846q-37 0 -62.5 25.5t-25.5 60.5q0 44 33 75q32 31 74 31q36 0 61 -25t25 -61q0 -42 -32 -74t-73 -32zM238 -25q-37 0 -62.5 25t-25.5 61q0 43 33 75q32 32 73 32q38 0 62 -24.5t24 -61.5q0 -44 -31 -75q-32 -32 -73 -32z" />
    <glyph glyph-name="semicolon" unicode=";" horiz-adv-x="509" 
d="M424 846q-38 0 -63 25t-25 61q0 44 33 75q31 31 73 31q36 0 61 -25t25 -61q0 -43 -31 -74q-32 -32 -73 -32zM131 -272h-10l-31 28v8q132 158 158 211q-30 0 -52 25.5t-22 62.5q0 43 31 73t78 30q37 0 61.5 -25.5t24.5 -66.5q0 -53 -51 -128q-55 -79 -187 -218z" />
    <glyph glyph-name="less" unicode="&#x3c;" horiz-adv-x="962" 
d="M1038 1157l9 -6l-19 -102l-721 -394l580 -393l-19 -94l-10 -6l-686 463l12 69z" />
    <glyph glyph-name="equal" unicode="=" horiz-adv-x="1208" 
d="M283 774l14 90h924l-15 -90h-923zM209 365l14 90h926l-16 -90h-924z" />
    <glyph glyph-name="greater" unicode="&#x3e;" horiz-adv-x="962" 
d="M332 1151l8 6l688 -463l-14 -69l-852 -463l-8 6l18 104l717 394l-576 391z" />
    <glyph glyph-name="question" unicode="?" horiz-adv-x="978" 
d="M588 276h-101l15 84q17 96 62 162q47 69 132 137q4 4 12 10t22.5 17.5t26.5 21.5q25 20 65 54q26 24 53 52q33 34 50 64q16 29 29 68t13 84q0 103 -74 168q-73 64 -201 64q-108 0 -211 -74q-102 -74 -149 -187l-13 -4l-77 23v10q58 141 191 234q133 92 280 92
q167 0 265 -84q97 -84 97 -225q0 -90 -50 -188q-15 -32 -59 -79q-39 -42 -62 -63q-20 -19 -76 -64q-15 -12 -31.5 -25t-24.5 -20t-12 -10q-75 -59 -110 -111q-36 -52 -48 -125zM494 -25q-36 0 -61 26t-25 60q0 43 32 75t74 32q37 0 61.5 -24.5t24.5 -61.5q0 -44 -31 -75
q-32 -32 -75 -32z" />
    <glyph glyph-name="at" unicode="@" horiz-adv-x="1712" 
d="M836 -248q-277 0 -468 181q-192 183 -192 458q0 373 252 627t621 254q289 0 478 -174t189 -439q0 -237 -108 -383q-109 -145 -269 -145q-82 0 -129 45t-45 123q-124 -166 -319 -166q-139 0 -226 90q-88 89 -88 226q0 183 122 314q121 130 307 130q95 0 166 -43.5
t104 -118.5l26 158h80l-90 -506q-15 -83 13.5 -127.5t91.5 -44.5q116 0 192 127t76 315q0 233 -163 383q-164 150 -415 150q-326 0 -548 -227q-222 -228 -222 -564q0 -244 160 -401q160 -156 412 -156q196 0 377 113h10l33 -60v-10q-195 -129 -428 -129zM864 209
q139 0 236 103q96 102 96 257q0 112 -67 180q-68 68 -175 68q-142 0 -237 -107q-94 -107 -94 -255q0 -105 66 -176q66 -70 175 -70z" />
    <glyph glyph-name="A" unicode="A" horiz-adv-x="1314" 
d="M870 1331h56l350 -1321l-6 -10h-96l-82 319h-744l-198 -319h-105l-4 10zM872 1161l-466 -749h661z" />
    <glyph glyph-name="B" unicode="B" horiz-adv-x="1222" 
d="M991 692q93 -36 146 -109.5t53 -172.5q0 -185 -134 -298q-133 -112 -358 -112h-501l239 1331h455q167 0 258 -78q92 -80 92 -213q0 -128 -69 -216q-71 -89 -181 -132zM879 1239h-357l-90 -506h354q157 0 255 80q96 79 96 215q0 99 -68 155t-190 56zM317 92h400
q166 0 267 89t101 231q0 104 -75 169q-76 64 -205 64h-389z" />
    <glyph glyph-name="C" unicode="C" horiz-adv-x="1390" 
d="M846 -25q-276 0 -456 182q-181 181 -181 457q0 166 65.5 312.5t186.5 251.5q211 178 497 178q169 0 311 -71q141 -71 214 -189v-9l-76 -51h-8q-67 105 -183.5 164.5t-261.5 59.5q-252 0 -428 -158q-213 -184 -213 -484q0 -236 153 -391q152 -155 384 -155q276 0 477 217
h8l64 -56l-2 -10q-233 -248 -551 -248z" />
    <glyph glyph-name="D" unicode="D" horiz-adv-x="1449" 
d="M436 1331h496q264 0 408 -147q143 -149 143 -400q0 -356 -210 -570t-571 -214h-505zM317 92h392q313 0 490 187q177 186 177 497q0 214 -116 339q-117 124 -338 124h-398z" />
    <glyph glyph-name="E" unicode="E" horiz-adv-x="1130" 
d="M1282 1331l-16 -92h-744l-92 -520h590l-16 -92h-590l-97 -535h742l-17 -92h-845l239 1331h846z" />
    <glyph glyph-name="F" unicode="F" horiz-adv-x="1026" 
d="M1227 1331l-19 -92h-686l-92 -520h545l-17 -92h-544l-113 -627h-104l239 1331h791z" />
    <glyph glyph-name="G" unicode="G" horiz-adv-x="1490" 
d="M834 -25q-272 0 -451 182q-180 181 -180 457q0 166 65.5 312.5t186.5 251.5q211 178 497 178q167 0 309 -77q139 -76 216 -200l-2 -10l-72 -51h-8q-66 108 -185 176q-118 66 -262 66q-252 0 -428 -158q-213 -184 -213 -484q0 -237 151 -391q150 -155 384 -155
q222 5 370 129q171 145 215 403h-544l18 92h633l8 -8q2 -23 -2 -39q-46 -342 -256 -518q-180 -156 -450 -156z" />
    <glyph glyph-name="H" unicode="H" horiz-adv-x="1419" 
d="M1245 719l113 612h102l-239 -1331h-103l111 627h-815l-113 -627h-104l239 1331h105l-111 -612h815z" />
    <glyph glyph-name="I" unicode="I" horiz-adv-x="497" 
d="M197 0l239 1331h105l-240 -1331h-104z" />
    <glyph glyph-name="J" unicode="J" horiz-adv-x="964" 
d="M745 373l173 958h104l-172 -960q-34 -185 -152 -291q-118 -105 -276 -105q-129 0 -220 56t-134 151l2 8l71 54h9q36 -78 108.5 -125t167.5 -47q119 0 206 81q87 80 113 220z" />
    <glyph glyph-name="K" unicode="K" horiz-adv-x="1165" 
d="M1378 1331l4 -10l-686 -580l443 -731l-9 -10h-110l-406 676l-227 -193l-86 -483h-104l239 1331h105l-127 -710l837 710h127z" />
    <glyph glyph-name="L" unicode="L" horiz-adv-x="999" 
d="M317 92h668l-14 -92h-774l239 1331h105z" />
    <glyph glyph-name="M" unicode="M" horiz-adv-x="1622" 
d="M838 168l696 1163h55l-96 -1331h-98l80 1065l-637 -1065h-56l-247 1067l-308 -1067h-98l385 1331h55z" />
    <glyph glyph-name="N" unicode="N" horiz-adv-x="1417" 
d="M1151 182l207 1149h102l-246 -1351h-55l-657 1144l-203 -1124h-102l239 1331h58z" />
    <glyph glyph-name="O" unicode="O" horiz-adv-x="1558" 
d="M844 -25q-276 0 -456 182q-181 181 -181 457q0 166 65.5 312.5t186.5 251.5q211 178 497 178q276 0 457 -181q180 -181 180 -458q0 -166 -65.5 -312.5t-186.5 -250.5q-211 -179 -497 -179zM848 72q255 0 428 157q215 186 215 484q0 236 -153 392q-155 155 -386 155
q-252 0 -428 -158q-213 -184 -213 -484q0 -236 153 -391t384 -155z" />
    <glyph glyph-name="P" unicode="P" horiz-adv-x="1161" 
d="M436 1331h461q178 0 279 -89q100 -88 100 -241q0 -209 -136 -332q-136 -124 -370 -124h-371l-98 -545h-104zM414 635h389q163 0 264 98q100 97 100 260q0 115 -68.5 180.5t-191.5 65.5h-385z" />
    <glyph glyph-name="Q" unicode="Q" horiz-adv-x="1603" 
d="M956 1356q276 0 457 -181q180 -181 180 -458q0 -166 -65.5 -312.5t-186.5 -250.5q-110 -95 -245 -138l202 -282l-8 -10h-119l-192 264q-63 -11 -135 -13q-276 0 -456 182q-181 181 -181 457q0 166 65.5 312.5t186.5 251.5q209 178 497 178zM1276 229q215 186 215 484
q0 236 -153 392q-155 155 -386 155q-252 0 -428 -158q-213 -184 -213 -484q0 -236 153 -391q152 -155 384 -155q253 -1 428 157z" />
    <glyph glyph-name="R" unicode="R" horiz-adv-x="1220" 
d="M1296 1018q0 -172 -97.5 -284.5t-274.5 -143.5l186 -580l-8 -10h-101l-184 580h-20h-391l-105 -580h-104l239 1331h490q179 0 274 -85q96 -86 96 -228zM420 670h416q160 0 256 96t96 242q0 106 -68.5 168.5t-189.5 62.5h-408z" />
    <glyph glyph-name="S" unicode="S" horiz-adv-x="1064" 
d="M575 -25q-151 0 -278 71q-127 70 -186 185l2 11l71 57h11q52 -105 160 -166q106 -61 225 -61q161 0 261 77q99 77 99 199q0 77 -52 141q-20 23 -65 53q-57 36 -70 43q-23 12 -89 42q-70 31 -89 41q-67 34 -96 52q-36 22 -79 59q-87 75 -87 206q0 165 123 268
q122 103 322 103q127 0 229.5 -50.5t157.5 -140.5l-2 -10l-68 -59h-8q-102 164 -317 164q-146 0 -238 -76q-94 -76 -94 -189q0 -82 57 -133q56 -50 174 -106q3 -1 10 -4.5t19.5 -8.5t25.5 -11q11 -5 24.5 -11.5t20.5 -10l11 -5.5q14 -9 52 -27q36 -19 55 -32q12 -9 46 -32
q20 -14 30.5 -24t27 -30.5t22.5 -27.5q21 -26 29 -49q22 -64 22 -121q0 -180 -130 -283q-131 -104 -339 -104z" />
    <glyph glyph-name="T" unicode="T" horiz-adv-x="1052" 
d="M1249 1239h-450l-221 -1239h-105l221 1239h-444l18 92h998z" />
    <glyph glyph-name="U" unicode="U" horiz-adv-x="1423" 
d="M272 520l146 811h102l-143 -807q-39 -203 64 -327q102 -125 300 -125q193 0 326 123q132 120 170 329l145 807h103l-146 -811q-45 -247 -206 -396q-163 -149 -400 -149q-245 0 -375 151q-131 150 -86 394z" />
    <glyph glyph-name="V" unicode="V" horiz-adv-x="1271" 
d="M1352 1331h112l2 -10l-800 -1321h-56l-327 1321l8 10h98l273 -1143z" />
    <glyph glyph-name="W" unicode="W" horiz-adv-x="1880" 
d="M1962 1331h104l5 -10l-713 -1321h-55l-162 1118l-561 -1118h-56l-237 1321l8 10h108l185 -1110l559 1110h57l162 -1122z" />
    <glyph glyph-name="X" unicode="X" horiz-adv-x="1146" 
d="M1335 1331l2 -10l-581 -651l362 -660l-8 -10h-104l-326 594l-533 -594h-118l-2 10l606 666l-338 645l8 10h105l301 -577l508 577h118z" />
    <glyph glyph-name="Y" unicode="Y" horiz-adv-x="1239" 
d="M1413 1331l4 -10l-655 -815l-92 -506h-103l92 510l-362 811l8 10h103l315 -729l575 729h115z" />
    <glyph glyph-name="Z" unicode="Z" horiz-adv-x="1089" 
d="M317 1331h926l-10 -55l-1020 -1186h850l-19 -90h-995l10 55l1018 1186h-776z" />
    <glyph glyph-name="bracketleft" unicode="[" horiz-adv-x="546" 
d="M756 1511l-15 -86h-194l-285 -1577h195l-15 -86h-295l314 1749h295z" />
    <glyph glyph-name="backslash" unicode="\" horiz-adv-x="989" 
d="M309 1442h90l529 -1540l-6 -11h-93l-526 1541z" />
    <glyph glyph-name="bracketright" unicode="]" horiz-adv-x="544" 
d="M514 1425h-195l15 86h295l-314 -1749h-295l15 86h196z" />
    <glyph glyph-name="asciicircum" unicode="^" horiz-adv-x="1165" 
d="M795 1331h65l340 -766l-6 -8h-96l-293 655l-535 -655h-96l-4 8z" />
    <glyph glyph-name="underscore" unicode="_" horiz-adv-x="1032" 
d="M49 -209l12 82h863l-13 -82h-862z" />
    <glyph glyph-name="grave" unicode="`" horiz-adv-x="555" 
d="M348 1470h6l371 -266v-8l-37 -49h-8l-383 244l-2 6z" />
    <glyph glyph-name="a" unicode="a" horiz-adv-x="1079" 
d="M985 930q90 -113 53 -305l-110 -625h-99l25 143q-146 -168 -375 -168q-158 0 -256 80t-98 211q0 166 130 268q131 101 339 101q188 0 334 -86l16 94q25 140 -41 223q-73 90 -223 90q-89 0 -180 -37t-154 -98h-8l-47 60l2 10q71 71 176 114q108 44 215 44q205 0 301 -119z
M487 68q144 0 263 82q121 81 143 217l14 84q-139 94 -319 94q-157 0 -258 -74t-101 -192q0 -96 69.5 -153.5t188.5 -57.5z" />
    <glyph glyph-name="b" unicode="b" horiz-adv-x="1275" 
d="M817 1049q203 0 333 -139t130 -355q0 -241 -158 -411q-159 -169 -395 -169q-139 0 -252 75t-162 210l-45 -260h-100l250 1389l92 8l8 -6l-92 -517q157 175 391 175zM721 68q195 0 325 142t130 345q0 176 -102 289q-103 112 -271 112q-196 0 -324 -140
q-127 -139 -127 -345q0 -177 102 -289q100 -114 267 -114z" />
    <glyph glyph-name="c" unicode="c" horiz-adv-x="1114" 
d="M666 -25q-210 0 -350 141q-140 140 -140 355q0 135 56.5 253t158.5 198q155 127 371 127q260 0 403 -209v-11l-63 -45h-10q-121 172 -328 172q-187 0 -320 -112q-164 -137 -163 -365q0 -180 109 -295q108 -116 282 -116q212 0 352 153h10l51 -49v-10q-166 -187 -419 -187
z" />
    <glyph glyph-name="d" unicode="d" horiz-adv-x="1273" 
d="M1255 1389l93 8l8 -6l-250 -1391h-96l28 164q-158 -188 -399 -189q-200 0 -331 140q-130 139 -130 354q0 241 159 411q159 169 392 169q139 0 251 -73t163 -204zM655 68q197 0 323 140t126 347q0 173 -101 288q-102 113 -268 113q-196 0 -323 -142q-129 -142 -129 -343
q0 -177 102 -289q102 -114 270 -114z" />
    <glyph glyph-name="e" unicode="e" horiz-adv-x="1161" 
d="M754 1049q217 0 339 -155q121 -154 85 -359q-2 -14 -15 -56h-880q-13 -185 96 -297q110 -114 280 -114q106 0 206.5 44t172.5 124h9l51 -52v-10q-85 -96 -203 -147.5t-246 -51.5q-223 0 -357 153q-134 154 -110 378q22 262 213 420q156 123 359 123zM293 571h788
q16 165 -65 269q-90 117 -268 116q-176 0 -297 -108q-120 -104 -158 -277z" />
    <glyph glyph-name="f" unicode="f" horiz-adv-x="657" 
d="M963 1364l2 -10l-47 -64l-11 -4q-59 41 -141 41q-98 0 -154 -53q-69 -67 -94 -209l-8 -41h317l-14 -88h-317l-168 -936h-101l168 936h-174l15 88h174l8 41q39 208 153 293q91 63 209 59q117 -5 183 -53z" />
    <glyph glyph-name="g" unicode="g" horiz-adv-x="1216" 
d="M1098 811l39 213h98l-160 -885q-40 -226 -187 -347q-147 -120 -353 -120q-145 0 -261 60q-116 62 -168 166l3 8l69 51h10q43 -91 137 -142t222 -51q168 0 282 96q113 98 146 277l20 119q-12 -14 -34 -33q-145 -129 -338 -129q-186 0 -307 124t-121 314q0 244 180 398
q137 119 334 119q195 0 319 -136q42 -42 70 -102zM897 270q162 123 162 338q0 150 -95 248q-96 98 -251 98q-169 0 -281 -106q-135 -118 -135 -316q0 -152 94 -249t246 -97q153 0 260 84z" />
    <glyph glyph-name="h" unicode="h" horiz-adv-x="1181" 
d="M807 1049q184 0 278 -121q93 -121 58 -303l-113 -625h-102l108 616q31 166 -49 261q-68 80 -203 79q-111 0 -209 -56q-97 -55 -147 -148q-31 -50 -49 -142l-111 -610h-100l250 1389l92 8l8 -6l-94 -519q150 177 383 177z" />
    <glyph glyph-name="i" unicode="i" 
d="M438 1206q-35 0 -60.5 24.5t-25.5 57.5q0 45 31 78t76 33q35 0 60.5 -24.5t25.5 -59.5q0 -45 -32 -77t-75 -32zM272 0h-100l184 1024h101z" />
    <glyph glyph-name="j" unicode="j" horiz-adv-x="436" 
d="M442 1206q-35 0 -60.5 24.5t-25.5 57.5q0 45 31 78t76 33q35 0 60.5 -24.5t25.5 -59.5q0 -45 -32 -77t-75 -32zM168 0l184 1024h101l-183 -1012q-22 -133 -84 -208q-62 -74 -168 -132h-10l-24 72v8q82 43 125.5 99t58.5 149z" />
    <glyph glyph-name="k" unicode="k" horiz-adv-x="978" 
d="M1126 1024l4 -10l-479 -412l314 -592l-9 -10h-104l-279 535l-247 -211l-58 -324h-100l250 1389l92 8l8 -6l-166 -928l654 561h120z" />
    <glyph glyph-name="l" unicode="l" 
d="M272 0h-100l250 1389l92 8l8 -6z" />
    <glyph glyph-name="m" unicode="m" horiz-adv-x="1904" 
d="M1534 1049q180 0 272 -119q92 -120 58 -305l-111 -625h-102l108 616q29 170 -49 261q-68 80 -194 79q-134 0 -249 -92q-114 -92 -141 -237l-114 -627h-103l111 616q29 170 -49 261q-68 80 -195 79q-110 0 -208 -60q-96 -59 -146 -157q-20 -43 -41 -129l-111 -610h-102
l184 1024h97l-29 -152q150 176 375 177q126 0 211.5 -61.5t113.5 -170.5q64 103 175 167q113 65 239 65z" />
    <glyph glyph-name="n" unicode="n" horiz-adv-x="1181" 
d="M807 1049q184 0 278 -121q93 -121 58 -303l-113 -625h-102l110 616q27 155 -40 247q-68 93 -216 93q-109 0 -204 -53q-94 -52 -144 -143q-42 -68 -55 -150l-109 -610h-102l184 1024h97l-29 -158q148 183 387 183z" />
    <glyph glyph-name="o" unicode="o" horiz-adv-x="1243" 
d="M672 -25q-215 0 -355 140q-141 140 -141 356q0 279 209 449q162 129 375 129q216 0 355 -139q140 -140 140 -357q0 -132 -55 -250t-156 -199q-160 -129 -372 -129zM674 68q176 0 309 112q168 141 168 367q0 179 -111 294q-112 115 -284 115q-177 0 -310 -112
q-168 -141 -167 -367q0 -178 112 -293q111 -116 283 -116z" />
    <glyph glyph-name="p" unicode="p" horiz-adv-x="1275" 
d="M817 1049q203 0 333 -139t130 -355q0 -241 -158 -411q-159 -169 -395 -169q-139 0 -250 75q-113 75 -162 208l-100 -565h-100l237 1331h97l-31 -164q158 189 399 189zM725 68q193 0 322 142t129 345q0 176 -102 289q-103 112 -271 112q-196 0 -323 -139
q-128 -140 -128 -346q0 -177 103 -289q102 -114 270 -114z" />
    <glyph glyph-name="q" unicode="q" horiz-adv-x="1275" 
d="M1147 764l47 260h98l-237 -1331h-101l82 457q-157 -173 -393 -175q-202 0 -333 140q-130 139 -130 354q0 241 159 411q159 169 394 169q139 0 252 -75t162 -210zM659 68q197 0 323 140t126 347q0 173 -101 288q-102 113 -268 113q-195 0 -324 -141q-130 -140 -130 -344
q0 -177 103 -289q104 -114 271 -114z" />
    <glyph glyph-name="r" unicode="r" horiz-adv-x="686" 
d="M860 1020l2 -8l-45 -78l-10 -4q-39 26 -105 24q-180 0 -272 -180q-32 -56 -55 -178l-107 -596h-100l184 1024h94l-24 -147q47 68 100 106q84 66 203 66q85 0 135 -29z" />
    <glyph glyph-name="s" unicode="s" horiz-adv-x="856" 
d="M442 -25q-123 0 -217 52q-93 50 -137 137l2 10l72 49h8q31 -72 106.5 -114.5t172.5 -42.5q122 0 196 59q72 59 72 158q0 55 -44 114q-13 16 -56 42q-12 7 -24 13.5t-21 11.5t-11 6q-3 2 -69 32l-27 12q-207 92 -207 244q0 132 97 211q97 80 247 80q103 0 186 -46
q84 -46 123 -122l-2 -11l-69 -47h-9q-33 63 -99 100.5t-142 37.5q-102 0 -165 -54q-63 -55 -63 -139q0 -54 38 -92t124 -80q84 -39 110 -52q37 -19 89 -56q98 -71 98 -195q0 -145 -104 -231q-105 -87 -275 -87z" />
    <glyph glyph-name="t" unicode="t" horiz-adv-x="684" 
d="M805 936h-326l-119 -662q-19 -104 18.5 -155.5t131.5 -50.5q84 0 139 49l10 -4l23 -68l-4 -10q-84 -59 -180 -60q-139 0 -202 77t-36 220l119 664h-174l14 88h176l58 324l94 8l6 -6l-57 -326h323z" />
    <glyph glyph-name="u" unicode="u" horiz-adv-x="1157" 
d="M961 395l112 629h101l-183 -1024h-96l27 147q-141 -172 -365 -172q-181 0 -272 115t-60 301l113 633h102l-114 -633q-25 -147 42 -235q66 -88 205 -88q229 0 345 198q31 56 43 129z" />
    <glyph glyph-name="v" unicode="v" horiz-adv-x="1038" 
d="M1069 1024h102l5 -10l-631 -1014h-53l-283 1014l6 10h100l228 -850z" />
    <glyph glyph-name="w" unicode="w" horiz-adv-x="1495" 
d="M1524 1024h100l4 -10l-534 -1014h-54l-151 836l-436 -836h-56l-182 1014l6 10h96l138 -831l434 831h61l150 -831z" />
    <glyph glyph-name="x" unicode="x" horiz-adv-x="970" 
d="M1098 1024l4 -10l-469 -500l309 -504l-6 -10h-105l-272 446l-416 -446h-114l-4 10l487 514l-289 490l6 10h105l252 -430l395 430h117z" />
    <glyph glyph-name="y" unicode="y" horiz-adv-x="1017" 
d="M1051 1024h102l6 -10l-694 -1139q-72 -115 -131 -158q-62 -45 -146 -45q-83 0 -135 41l-2 11l43 65l10 4q41 -35 93 -35q92 0 170 129l96 158l-244 969l8 10h99l211 -854z" />
    <glyph glyph-name="z" unicode="z" horiz-adv-x="919" 
d="M254 1024h745l-12 -72l-784 -868h680l-15 -84h-811l13 72l782 868h-612z" />
    <glyph glyph-name="braceleft" unicode="{" horiz-adv-x="557" 
d="M471 -238h-41q-164 0 -215 76t-16 268l53 287q28 102 12 153.5t-88 51.5l12 78q75 0 104 44q27 43 48 161l51 286q34 191 112 269q77 75 240 75h41l-14 -86h-37q-117 0 -165 -52t-76 -206l-66 -356q-14 -79 -47 -126.5t-74 -47.5q41 0 57.5 -48t2.5 -124l-66 -359
q-29 -155 2 -206q31 -52 148 -52h36z" />
    <glyph glyph-name="bar" unicode="|" horiz-adv-x="464" 
d="M223 -299h-90l316 1749h90z" />
    <glyph glyph-name="braceright" unicode="}" horiz-adv-x="557" 
d="M422 811l65 356q27 153 -2 206q-30 52 -147 52h-39l14 86h43q164 0 215 -74q49 -75 15 -270l-51 -286q-28 -102 -12.5 -153.5t87.5 -51.5l-14 -78q-76 0 -101 -43q-27 -46 -46 -162l-54 -287q-35 -195 -111 -270q-77 -74 -241 -74h-43l16 86h39q115 0 163 52
q49 53 77 206l63 359q14 78 48 125t75 47q-41 0 -57 48t-2 126z" />
    <glyph glyph-name="asciitilde" unicode="~" horiz-adv-x="1159" 
d="M913 584q-82 0 -220 36q-140 35 -216 35q-44 0 -95 -20q-50 -21 -75 -51h-6l-39 67l2 6q89 89 228 91q84 0 226 -36t212 -36q104 0 166 72h8l37 -68l-2 -8q-88 -88 -226 -88z" />
    <glyph glyph-name="exclamdown" unicode="&#xa1;" horiz-adv-x="462" 
d="M391 856q-39 0 -63.5 24.5t-24.5 61.5q0 43 32 75t75 32q36 0 61 -26t25 -60q0 -43 -32 -75t-73 -32zM229 -307h-104l-6 8l203 1047l8 8h76l4 -8l-174 -1047z" />
    <glyph glyph-name="cent" unicode="&#xa2;" horiz-adv-x="1120" 
d="M872 1352l-28 -152q118 -8 212.5 -60t143.5 -134l-2 -11l-68 -49h-8q-111 164 -331 164q-207 0 -345 -149q-139 -149 -139 -365q0 -162 105 -268q104 -107 274 -107q201 0 348 164h10l54 -49l-2 -8q-163 -183 -394 -197l-26 -156h-90l26 156q-180 19 -294 149
q-115 127 -115 310q0 241 158 417q157 175 393 193l26 152h92z" />
    <glyph glyph-name="sterling" unicode="&#xa3;" horiz-adv-x="1040" 
d="M836 1356q208 0 327 -168l-2 -10l-69 -56h-11q-97 140 -262 142q-270 0 -321 -283l-45 -256h397l-16 -92h-398l-96 -541h647l-16 -92h-879l17 92h129l96 541h-117l16 92h117l45 256q31 178 147 277q116 98 294 98z" />
    <glyph glyph-name="currency" unicode="&#xa4;" horiz-adv-x="1323" 
d="M1147 348l115 -127l-76 -67l-115 127q-157 -121 -344 -121q-191 0 -321 121l-142 -127l-63 67l143 127q-82 115 -82 264q0 214 152 383l-111 125l76 68l110 -125q157 121 349 121q194 0 321 -123l141 127l64 -68l-143 -127q80 -118 79 -264q2 -217 -153 -381zM733 256
q193 0 328 137t135 330q0 160 -102 262q-104 102 -267 102q-188 0 -324 -136t-136 -330q0 -157 102 -261t264 -104z" />
    <glyph glyph-name="yen" unicode="&#xa5;" horiz-adv-x="1245" 
d="M1407 1331l4 -10l-627 -782h265l-13 -78h-288l-29 -166h287l-15 -78h-286l-41 -217h-103l39 217h-285l13 78h286l31 166h-287l15 78h266l-348 782l8 10h102l316 -729l575 729h115z" />
    <glyph glyph-name="brokenbar" unicode="&#xa6;" horiz-adv-x="464" 
d="M313 698l136 752h90l-138 -752h-88zM133 -299l141 793h91l-142 -793h-90z" />
    <glyph glyph-name="section" unicode="&#xa7;" horiz-adv-x="1077" 
d="M1061 1124h-8q-107 143 -314 144q-126 0 -211 -62q-84 -63 -84 -162q0 -43 21 -76.5t70 -65.5q57 -36 86 -49q63 -29 112 -50q81 -36 122 -57t99 -62q103 -74 103 -197q0 -164 -162 -266q80 -71 80 -182q0 -159 -127 -253q-128 -95 -336 -95q-154 0 -272.5 55t-176.5 154
l3 8l71 59h10q110 -188 373 -188q158 0 252 69q94 70 94 177q0 83 -69 136q-67 50 -213 113q-39 17 -100 46q-44 21 -86 47q-51 29 -77 58q-67 73 -67 157q0 164 176 262q-96 72 -96 182q0 142 120 237q118 93 306 93q249 0 370 -166v-10zM362 600q0 -76 65 -127
q64 -51 197 -108q136 -60 185 -91q139 76 139 197q0 59 -45 109q-44 48 -97 77q-59 31 -144 68q-90 39 -138 68q-75 -31 -118.5 -82t-43.5 -111z" />
    <glyph glyph-name="dieresis" unicode="&#xa8;" horiz-adv-x="722" 
d="M428 1206q-36 0 -61 23.5t-25 58.5q0 44 32 78q32 33 77 33q35 0 60.5 -24.5t25.5 -57.5q0 -44 -32 -78q-32 -33 -77 -33zM741 1206q-36 0 -61 23.5t-25 58.5q0 44 32 78q31 33 75 33q35 0 60.5 -24.5t25.5 -57.5q0 -44 -32 -78q-32 -33 -75 -33z" />
    <glyph glyph-name="copyright" unicode="&#xa9;" horiz-adv-x="1552" 
d="M844 -25q-276 0 -456 182q-181 181 -181 457q0 351 258 568q205 174 491 174q276 0 457 -181q180 -181 180 -458q0 -351 -256 -565q-209 -177 -493 -177zM848 72q248 0 424 153q219 191 219 488q0 236 -153 392q-155 155 -386 155q-247 0 -422 -152q-219 -186 -219 -490
q0 -236 153 -391t384 -155zM883 262q-157 0 -263 103q-108 102 -108 258q0 193 126 323q126 129 316 129q205 0 310 -157v-9l-64 -45h-10q-80 119 -238 119q-152 0 -247 -98q-95 -100 -95 -254q0 -127 76 -203t199 -76q158 0 272 115h8l47 -47v-8q-140 -150 -329 -150z" />
    <glyph glyph-name="ordfeminine" unicode="&#xaa;" horiz-adv-x="780" 
d="M618 1354q111 0 179 -68q67 -69 49 -176l-74 -410h-82l15 86q-92 -92 -226 -92q-94 0 -156 50q-63 50 -63 128q0 110 86 172q86 60 209 60q101 0 199 -39l8 43q14 77 -30 122.5t-126 45.5q-131 0 -221 -90h-8l-41 47l2 6q50 52 126 83q78 32 154 32zM498 772q85 0 153 53
q66 53 78 127l6 35q-85 39 -192 39q-82 0 -137 -39q-56 -39 -56 -104q0 -49 41 -80t107 -31z" />
    <glyph glyph-name="guillemotleft" unicode="&#xab;" horiz-adv-x="872" 
d="M608 907v-6l-301 -295l191 -287v-6l-62 -51h-8l-231 340l6 25l352 340h8zM864 967l47 -60v-6l-301 -295l189 -287v-6l-60 -51h-8l-231 340l4 25l352 340h8z" />
    <glyph glyph-name="registered" unicode="&#xae;" horiz-adv-x="899" 
d="M674 1362q135 0 226 -88t91 -215q0 -171 -117 -289q-119 -119 -286 -119q-133 0 -224 88q-92 89 -92 215q0 170 117 289t285 119zM598 715q135 0 231 102q95 101 95 240q0 107 -73 174t-185 67q-134 0 -229 -101t-95 -241q0 -105 73 -172q72 -69 183 -69zM524 1217h154
q125 0 125 -103q0 -44 -28.5 -80t-72.5 -51l60 -174h-76l-53 168h-84l-31 -168h-65zM559 1028h92q36 0 59 22t23 54q0 53 -61 53h-90z" />
    <glyph glyph-name="overscore" unicode="&#xaf;" horiz-adv-x="1048" 
d="M471 1229l16 88h545l-16 -88h-545z" />
    <glyph glyph-name="degree" unicode="&#xb0;" horiz-adv-x="702" 
d="M500 827q-92 0 -153 66q-62 65 -62 160q0 123 95 213q94 90 216 90q94 0 155 -64q60 -64 60 -162q0 -121 -94 -212t-217 -91zM514 909q84 0 148 63q63 62 63 148q0 67 -40 110.5t-105 43.5q-81 0 -145 -62q-64 -63 -64 -147q0 -67 40 -111q41 -45 103 -45z" />
    <glyph glyph-name="plusminus" unicode="&#xb1;" horiz-adv-x="1142" 
d="M821 1112l-73 -403h415l-14 -91h-418l-74 -409h-94l74 409h-420l16 91h420l72 403h96zM1036 0h-930l17 90h930z" />
    <glyph glyph-name="acute" unicode="&#xb4;" horiz-adv-x="555" 
d="M295 1204l371 266h6l53 -73l-2 -6l-383 -244h-8l-37 49v8z" />
    <glyph glyph-name="paragraph" unicode="&#xb6;" horiz-adv-x="1265" 
d="M1460 1450l-16 -90h-449l-295 -1653h-90l158 879h-78q-214 0 -335 85q-122 86 -122 267q0 268 164 390t445 122h618zM1161 1200h88l-268 -1493h-88z" />
    <glyph glyph-name="middot" unicode="&#xb7;" horiz-adv-x="477" 
d="M330 457q-42 0 -71.5 29.5t-29.5 70.5q0 47 37 84t84 37q42 0 71.5 -30t29.5 -70q0 -47 -37 -84t-84 -37z" />
    <glyph glyph-name="cedilla" unicode="&#xb8;" horiz-adv-x="593" 
d="M207 -428q-113 0 -187 63l3 11l47 55h10q58 -51 135 -51q63 0 99 26.5t36 73.5q0 48 -60 65q-62 17 -130 -1l-29 18l78 164l8 41h94l-8 -41l-41 -102q86 2 136.5 -36t50.5 -102q0 -86 -65 -135t-177 -49z" />
    <glyph glyph-name="ordmasculine" unicode="&#xba;" horiz-adv-x="835" 
d="M567 696q-128 0 -213 80q-84 80 -84 205q0 158 109 267q108 108 262 108q129 0 212 -80t83 -205q0 -160 -107 -267q-108 -108 -262 -108zM575 780q115 0 193 82t78 203q0 90 -59 149q-59 58 -154 58q-115 0 -193 -81t-78 -204q0 -89 60 -148q59 -59 153 -59z" />
    <glyph glyph-name="guillemotright" unicode="&#xbb;" horiz-adv-x="872" 
d="M365 967l229 -340l-6 -25l-350 -340h-9l-49 57v7l303 297l-188 286v6l59 52h11zM657 967h9l231 -340l-6 -25l-352 -340h-9l-49 57v7l305 297l-188 286v6z" />
    <glyph glyph-name="onequarter" unicode="&#xbc;" horiz-adv-x="1316" 
d="M113 0l-2 10l1237 1321h108l2 -10l-1237 -1321h-108zM432 573h-100l121 672h-150l16 86h250zM1239 750l-88 -496h90l-14 -82h-92l-31 -172h-88l31 172h-371l10 59l488 519h65zM1122 582l-313 -328h254z" />
    <glyph glyph-name="onehalf" unicode="&#xbd;" horiz-adv-x="1427" 
d="M1313 1331h108l2 -10l-1237 -1321h-108l-2 10zM453 573h-101l121 672h-149l16 86h250zM1386 553q0 -75 -47 -136q-43 -57 -151 -157q-164 -142 -201 -174h350l-12 -86h-522l10 53q18 15 72 60.5t90 75.5q97 83 147 126q85 75 128 129q40 49 40 101q0 53 -36.5 85
t-94.5 32q-93 0 -194 -93h-11l-43 52l2 10q131 119 261 119q93 0 152 -52q60 -52 60 -145z" />
    <glyph glyph-name="threequarters" unicode="&#xbe;" horiz-adv-x="1476" 
d="M721 817q0 -109 -81 -179q-82 -71 -204 -71q-70 0 -139 32q-68 32 -100 83l2 8l45 47h10q29 -39 82 -63.5t106 -24.5q82 0 135 45q52 45 52 117q0 63 -46 101t-124 38h-60l13 70h61q71 0 120 43q50 44 50 106q0 47 -37 76t-98 29q-92 0 -166 -68h-10l-37 47l2 9
q97 94 223 94q96 0 156 -48q59 -48 59 -126q0 -131 -137 -193q123 -49 123 -172zM1501 1331h109l2 -10l-1237 -1321h-109l-2 10zM840 231l485 519h68l-90 -496h90l-15 -82h-90l-31 -172h-90l31 172h-369zM958 254h256l60 330z" />
    <glyph glyph-name="questiondown" unicode="&#xbf;" horiz-adv-x="962" 
d="M645 868q-36 0 -61 26t-25 60q0 43 32 75t75 32q36 0 61 -25t25 -61q0 -43 -33 -75q-34 -32 -74 -32zM444 -319q-169 0 -267 83q-97 84 -97 226q0 89 50 187q16 34 60 79t63 63q55 46 77 64q15 12 31.5 26t24.5 20.5t11 8.5q135 111 158 236l16 86h101l-17 -84
q-18 -98 -64 -164q-47 -68 -130 -135q-3 -2 -11.5 -9t-25.5 -20.5t-34 -26.5q-67 -54 -80 -68q-13 -13 -57 -64q-65 -75 -65 -183q0 -103 74 -168q74 -63 201 -63q109 0 212 73q102 73 148 187l13 4l77 -21v-10q-57 -141 -189 -234q-134 -93 -280 -93z" />
    <glyph glyph-name="Agrave" unicode="&#xc0;" horiz-adv-x="1314" 
d="M1139 1499l-33 -47h-8l-373 207v8l47 76h6l359 -236zM870 1331h56l350 -1321l-6 -10h-96l-82 319h-744l-198 -319h-105l-4 10zM872 1161l-466 -749h661z" />
    <glyph glyph-name="Aacute" unicode="&#xc1;" horiz-adv-x="1314" 
d="M1137 1659l-373 -207h-8l-31 47v8l358 236h9l47 -76zM870 1331h56l350 -1321l-6 -10h-96l-82 319h-744l-198 -319h-105l-4 10zM872 1161l-466 -749h661z" />
    <glyph glyph-name="Acircumflex" unicode="&#xc2;" horiz-adv-x="1314" 
d="M940 1618l-295 -148h-6l-29 60v8l334 184h12l267 -184v-8l-45 -53h-7zM870 1331h56l350 -1321l-6 -10h-96l-82 319h-744l-198 -319h-105l-4 10zM872 1161l-466 -749h661z" />
    <glyph glyph-name="Atilde" unicode="&#xc3;" horiz-adv-x="1314" 
d="M655 1499h-16l-2 6l14 88q47 72 148 72q56 0 143 -37t127 -37q84 0 129 72h14l5 -6l-17 -86q-45 -72 -145 -72q-52 0 -136 37t-139 37q-84 0 -125 -74zM870 1331h56l350 -1321l-6 -10h-96l-82 319h-744l-198 -319h-105l-4 10zM872 1161l-466 -749h661z" />
    <glyph glyph-name="Adieresis" unicode="&#xc4;" horiz-adv-x="1314" 
d="M741 1491q-35 0 -60.5 24.5t-25.5 57.5q0 45 33 78q34 32 76 32q35 0 60.5 -23.5t25.5 -57.5q0 -44 -32 -78q-32 -33 -77 -33zM1098 1491q-35 0 -61.5 24.5t-26.5 57.5q0 45 33 78q32 32 75 32q37 0 62.5 -23.5t25.5 -57.5q0 -45 -31.5 -78t-76.5 -33zM870 1331h56
l350 -1321l-6 -10h-96l-82 319h-744l-198 -319h-105l-4 10zM872 1161l-466 -749h661z" />
    <glyph glyph-name="Aring" unicode="&#xc5;" horiz-adv-x="1314" 
d="M918 1438q-67 0 -116 47q-48 47 -48 114q0 83 58 142q59 59 140 59q71 0 118 -46q48 -46 48 -114q0 -81 -59 -142q-59 -60 -141 -60zM948 1726q-50 0 -83.5 -35t-33.5 -85q0 -40 26 -66.5t67 -26.5q51 0 84 36q32 37 32 83q0 40 -25.5 67t-66.5 27zM870 1331h56
l350 -1321l-6 -10h-96l-82 319h-744l-198 -319h-105l-4 10zM872 1161l-466 -749h661z" />
    <glyph glyph-name="AE" unicode="&#xc6;" horiz-adv-x="1904" 
d="M2019 1331l-16 -92h-743l-93 -520h590l-16 -92h-592l-96 -535h743l-16 -92h-846l57 319h-614l-279 -319h-112l-4 10l1148 1321h889zM457 412h551l143 796z" />
    <glyph glyph-name="Ccedilla" unicode="&#xc7;" horiz-adv-x="1390" 
d="M958 1356q169 0 311 -71q141 -71 214 -189v-9l-76 -51h-8q-67 105 -183.5 164.5t-261.5 59.5q-252 0 -428 -158q-213 -184 -213 -484q0 -236 153 -391q152 -155 384 -155q276 0 477 217h8l64 -56l-2 -10q-231 -248 -551 -248h-25l-30 -77q85 2 135.5 -36t50.5 -102
q0 -86 -65 -135t-177 -49q-113 0 -186 64l2 10l47 55h10q58 -51 135 -51q63 0 99.5 26.5t36.5 73.5q0 48 -60 65q-62 17 -131 -1l-29 18l70 150q-231 38 -375 210q-145 172 -145 418q0 166 65.5 312.5t186.5 251.5q209 178 497 178z" />
    <glyph glyph-name="Egrave" unicode="&#xc8;" horiz-adv-x="1130" 
d="M719 1743h6l358 -236l2 -8l-32 -47h-9l-372 207v8zM1282 1331l-16 -92h-744l-92 -520h590l-16 -92h-590l-97 -535h742l-17 -92h-845l239 1331h846z" />
    <glyph glyph-name="Eacute" unicode="&#xc9;" horiz-adv-x="1130" 
d="M690 1507l359 236h8l47 -76l-2 -8l-373 -207h-8l-31 47v8zM1282 1331l-16 -92h-744l-92 -520h590l-16 -92h-590l-97 -535h742l-17 -92h-845l239 1331h846z" />
    <glyph glyph-name="Ecircumflex" unicode="&#xca;" horiz-adv-x="1130" 
d="M895 1618l-295 -148h-6l-29 60v8l334 184h12l267 -184v-8l-45 -53h-7zM1282 1331l-16 -92h-744l-92 -520h590l-16 -92h-590l-97 -535h742l-17 -92h-845l239 1331h846z" />
    <glyph glyph-name="Edieresis" unicode="&#xcb;" horiz-adv-x="1130" 
d="M696 1491q-35 0 -60.5 24.5t-25.5 57.5q0 45 33 78q34 32 76 32q35 0 60.5 -23.5t25.5 -57.5q0 -44 -32 -78q-31 -33 -77 -33zM1053 1491q-35 0 -61.5 24.5t-26.5 57.5q0 45 33 78q32 32 75 32q37 0 62.5 -23.5t25.5 -57.5q0 -45 -31.5 -78t-76.5 -33zM1282 1331l-16 -92
h-744l-92 -520h590l-16 -92h-590l-97 -535h742l-17 -92h-845l239 1331h846z" />
    <glyph glyph-name="Igrave" unicode="&#xcc;" horiz-adv-x="497" 
d="M375 1743h6l358 -236l2 -8l-32 -47h-9l-372 207v8zM197 0l239 1331h105l-240 -1331h-104z" />
    <glyph glyph-name="Iacute" unicode="&#xcd;" horiz-adv-x="497" 
d="M313 1507l359 236h8l47 -76l-2 -8l-373 -207h-8l-31 47v8zM197 0l239 1331h105l-240 -1331h-104z" />
    <glyph glyph-name="Icircumflex" unicode="&#xce;" horiz-adv-x="497" 
d="M547 1722h12l266 -184v-8l-45 -53h-6l-231 141l-295 -148h-6l-29 60v8zM301 0h-104l239 1331h105z" />
    <glyph glyph-name="Idieresis" unicode="&#xcf;" horiz-adv-x="497" 
d="M344 1491q-35 0 -60.5 24.5t-25.5 57.5q0 45 33 78q34 32 76 32q35 0 60.5 -23.5t25.5 -57.5q0 -44 -32 -78q-32 -33 -77 -33zM700 1491q-35 0 -61.5 24.5t-26.5 57.5q0 45 33 78q34 32 76 32q37 0 62.5 -23.5t25.5 -57.5q0 -44 -32 -78q-31 -33 -77 -33zM197 0l239 1331
h105l-240 -1331h-104z" />
    <glyph glyph-name="Eth" unicode="&#xd0;" horiz-adv-x="1490" 
d="M449 1331h495q264 0 408 -147q143 -149 143 -400q0 -356 -210 -570t-570 -214h-506l113 625h-166l16 92h166zM330 92h391q313 0 491 187q177 186 177 497q0 214 -117 339q-117 124 -338 124h-397l-95 -522h404l-17 -92h-403z" />
    <glyph glyph-name="Ntilde" unicode="&#xd1;" horiz-adv-x="1417" 
d="M680 1499h-16l-5 6l17 88q50 72 155 72q59 0 152 -37t137 -37q90 0 135 72h17l4 -6l-16 -86q-46 -72 -156 -72q-54 0 -143 37q-90 37 -148 37q-88 0 -133 -74zM1151 182l207 1149h102l-246 -1351h-55l-657 1144l-203 -1124h-102l239 1331h58z" />
    <glyph glyph-name="Ograve" unicode="&#xd2;" horiz-adv-x="1558" 
d="M858 1743h6l359 -236l2 -8l-33 -47h-8l-373 207v8zM844 -25q-276 0 -456 182q-181 181 -181 457q0 166 65.5 312.5t186.5 251.5q211 178 497 178q276 0 457 -181q180 -181 180 -458q0 -166 -65.5 -312.5t-186.5 -250.5q-211 -179 -497 -179zM848 72q255 0 428 157
q215 186 215 484q0 236 -153 392q-155 155 -386 155q-252 0 -428 -158q-213 -184 -213 -484q0 -236 153 -391t384 -155z" />
    <glyph glyph-name="Oacute" unicode="&#xd3;" horiz-adv-x="1558" 
d="M829 1507l359 236h8l47 -76l-2 -8l-373 -207h-8l-31 47v8zM844 -25q-276 0 -456 182q-181 181 -181 457q0 166 65.5 312.5t186.5 251.5q211 178 497 178q276 0 457 -181q180 -181 180 -458q0 -166 -65.5 -312.5t-186.5 -250.5q-211 -179 -497 -179zM848 72q255 0 428 157
q215 186 215 484q0 236 -153 392q-155 155 -386 155q-252 0 -428 -158q-213 -184 -213 -484q0 -236 153 -391t384 -155z" />
    <glyph glyph-name="Ocircumflex" unicode="&#xd4;" horiz-adv-x="1558" 
d="M1034 1618l-295 -148h-6l-28 60v8l333 184h13l266 -184v-8l-45 -53h-6zM956 1356q276 0 457 -181q180 -181 180 -458q0 -166 -65.5 -312.5t-186.5 -250.5q-210 -177 -497 -179q-276 0 -456 182q-181 181 -181 457q0 166 65.5 312.5t186.5 251.5q209 178 497 178z
M1276 229q215 186 215 484q0 236 -153 392q-155 155 -386 155q-252 0 -428 -158q-213 -184 -213 -484q0 -236 153 -391q152 -155 384 -155q253 -1 428 157z" />
    <glyph glyph-name="Otilde" unicode="&#xd5;" horiz-adv-x="1558" 
d="M1159 1499q-54 0 -143 37t-148 37q-88 0 -133 -74h-16l-4 6l16 88q49 72 156 72q59 0 152 -37t137 -37q90 0 135 72h16l4 -6l-16 -86q-47 -72 -156 -72zM844 -25q-276 0 -456 182q-181 181 -181 457q0 166 65.5 312.5t186.5 251.5q211 178 497 178q276 0 457 -181
q180 -181 180 -458q0 -166 -65.5 -312.5t-186.5 -250.5q-211 -179 -497 -179zM848 72q255 0 428 157q215 186 215 484q0 236 -153 392q-155 155 -386 155q-252 0 -428 -158q-213 -184 -213 -484q0 -236 153 -391t384 -155z" />
    <glyph glyph-name="Odieresis" unicode="&#xd6;" horiz-adv-x="1558" 
d="M836 1491q-35 0 -60.5 24.5t-25.5 57.5q0 45 33 78q32 32 75 32q35 0 60.5 -23.5t25.5 -57.5q0 -45 -31.5 -78t-76.5 -33zM1192 1491q-35 0 -61.5 24.5t-26.5 57.5q0 45 33 78q32 32 75 32q37 0 62.5 -23.5t25.5 -57.5q0 -45 -31.5 -78t-76.5 -33zM844 -25
q-276 0 -456 182q-181 181 -181 457q0 166 65.5 312.5t186.5 251.5q211 178 497 178q276 0 457 -181q180 -181 180 -458q0 -166 -65.5 -312.5t-186.5 -250.5q-211 -179 -497 -179zM848 72q255 0 428 157q215 186 215 484q0 236 -153 392q-155 155 -386 155q-252 0 -428 -158
q-213 -184 -213 -484q0 -236 153 -391t384 -155z" />
    <glyph glyph-name="multiply" unicode="&#xd7;" horiz-adv-x="1048" 
d="M1042 1106l60 -68l-410 -366l314 -369l-72 -67l-311 370l-412 -366l-59 67l411 367l-307 362l74 66l305 -361z" />
    <glyph glyph-name="Oslash" unicode="&#xd8;" horiz-adv-x="1558" 
d="M1610 1438l-209 -252q193 -180 192 -469q0 -166 -65.5 -312.5t-186.5 -250.5q-210 -177 -497 -179q-207 0 -363 105l-151 -182h-115l-4 10l192 231q-197 185 -196 475q0 166 65.5 312.5t186.5 251.5q211 178 497 178q209 0 369 -109l166 201h115zM311 618
q0 -245 160 -399l789 950q-134 89 -308 91q-252 0 -428 -158q-213 -184 -213 -484zM1276 229q215 186 215 484q0 236 -156 395l-788 -950q131 -86 301 -86q253 -1 428 157z" />
    <glyph glyph-name="Ugrave" unicode="&#xd9;" horiz-adv-x="1423" 
d="M807 1743h6l358 -236l3 -8l-33 -47h-8l-373 207v8zM272 520l146 811h102l-143 -807q-39 -203 64 -327q102 -125 300 -125q193 0 326 123q132 120 170 329l145 807h103l-146 -811q-45 -247 -206 -396q-163 -149 -400 -149q-245 0 -375 151q-131 150 -86 394z" />
    <glyph glyph-name="Uacute" unicode="&#xda;" horiz-adv-x="1423" 
d="M778 1507l359 236h8l47 -76l-2 -8l-373 -207h-8l-31 47v8zM272 520l146 811h102l-143 -807q-39 -203 64 -327q102 -125 300 -125q193 0 326 123q132 120 170 329l145 807h103l-146 -811q-45 -247 -206 -396q-163 -149 -400 -149q-245 0 -375 151q-131 150 -86 394z" />
    <glyph glyph-name="Ucircumflex" unicode="&#xdb;" horiz-adv-x="1423" 
d="M983 1618l-295 -148h-6l-29 60v8l334 184h12l267 -184v-8l-45 -53h-7zM1237 524l145 807h103l-146 -811q-45 -247 -206 -396q-163 -149 -400 -149q-245 0 -375 151q-131 150 -86 394l146 811h102l-143 -807q-39 -203 64 -327q102 -125 300 -125q193 0 326 123
q132 120 170 329z" />
    <glyph glyph-name="Udieresis" unicode="&#xdc;" horiz-adv-x="1423" 
d="M784 1491q-35 0 -60.5 24.5t-25.5 57.5q0 45 33 78q34 32 76 32q35 0 60.5 -23.5t25.5 -57.5q0 -44 -32 -78q-31 -33 -77 -33zM1141 1491q-35 0 -61.5 24.5t-26.5 57.5q0 45 33 78q32 32 75 32q37 0 62.5 -23.5t25.5 -57.5q0 -45 -31.5 -78t-76.5 -33zM272 520l146 811
h102l-143 -807q-39 -203 64 -327q102 -125 300 -125q193 0 326 123q132 120 170 329l145 807h103l-146 -811q-45 -247 -206 -396q-163 -149 -400 -149q-245 0 -375 151q-131 150 -86 394z" />
    <glyph glyph-name="Yacute" unicode="&#xdd;" horiz-adv-x="1239" 
d="M1085 1659l-372 -207h-8l-31 47v8l358 236h8l47 -76zM1413 1331l4 -10l-655 -815l-92 -506h-103l92 510l-362 811l8 10h103l315 -729l575 729h115z" />
    <glyph glyph-name="Thorn" unicode="&#xde;" horiz-adv-x="1177" 
d="M301 0h-104l239 1331h105l-49 -272h348q178 0 278 -88q99 -89 99 -240q0 -211 -136 -335t-372 -124h-359zM475 967l-108 -605h376q167 0 267 99q100 97 100 260q0 115 -69.5 180.5t-192.5 65.5h-373z" />
    <glyph glyph-name="germandbls" unicode="&#xdf;" horiz-adv-x="1163" 
d="M946 758q207 -74 207 -314q0 -207 -137 -338t-344 -131q-181 0 -269 86l-2 9l50 65l10 2q79 -72 211 -71q165 0 271 103t106 267q0 131 -85 203q-86 72 -229 72h-71l16 82h65q141 0 239 86q97 85 97 215q0 104 -72 168q-73 63 -192 63q-143 0 -235 -80
q-105 -88 -140 -274l-174 -971h-100l176 975q40 229 178 342q121 100 301 100q162 0 264 -87q101 -87 101 -226q0 -116 -65 -207t-177 -139z" />
    <glyph glyph-name="agrave" unicode="&#xe0;" horiz-adv-x="1079" 
d="M582 1470h6l370 -266v-8l-36 -49h-9l-383 244l-2 6zM985 930q90 -113 53 -305l-110 -625h-99l25 143q-146 -168 -375 -168q-158 0 -256 80t-98 211q0 166 130 268q131 101 339 101q188 0 334 -86l16 94q25 140 -41 223q-73 90 -223 90q-89 0 -180 -37t-154 -98h-8l-47 60
l2 10q71 71 176 114q108 44 215 44q205 0 301 -119zM487 68q144 0 263 82q121 81 143 217l14 84q-139 94 -319 94q-157 0 -258 -74t-101 -192q0 -96 69.5 -153.5t188.5 -57.5z" />
    <glyph glyph-name="aacute" unicode="&#xe1;" horiz-adv-x="1079" 
d="M530 1204l371 266h6l54 -73l-3 -6l-383 -244h-8l-37 49v8zM985 930q90 -113 53 -305l-110 -625h-99l25 143q-146 -168 -375 -168q-158 0 -256 80t-98 211q0 166 130 268q131 101 339 101q188 0 334 -86l16 94q25 140 -41 223q-73 90 -223 90q-89 0 -180 -37t-154 -98h-8
l-47 60l2 10q71 71 176 114q108 44 215 44q205 0 301 -119zM487 68q144 0 263 82q121 81 143 217l14 84q-139 94 -319 94q-157 0 -258 -74t-101 -192q0 -96 69.5 -153.5t188.5 -57.5z" />
    <glyph glyph-name="acircumflex" unicode="&#xe2;" horiz-adv-x="1079" 
d="M756 1313l-277 -152h-8l-33 56v8l318 188h22l248 -188v-8l-49 -50h-8zM985 930q90 -113 53 -305l-110 -625h-99l25 143q-146 -168 -375 -168q-158 0 -256 80t-98 211q0 166 130 268q131 101 339 101q188 0 334 -86l16 94q25 140 -41 223q-73 90 -223 90q-89 0 -180 -37
t-154 -98h-8l-47 60l2 10q71 71 176 114q108 44 215 44q205 0 301 -119zM893 367l14 84q-139 94 -319 94q-157 0 -258 -74t-101 -192q0 -96 70 -153q70 -58 188 -58q144 0 263 82q121 83 143 217z" />
    <glyph glyph-name="atilde" unicode="&#xe3;" horiz-adv-x="1079" 
d="M883 1225q-44 0 -137 35q-92 34 -146 34q-88 0 -131 -69h-14l-4 6l12 84q56 72 147 71q51 0 150 -35q96 -36 135 -36q89 0 129 69h16l4 -4l-14 -84q-50 -71 -147 -71zM985 930q90 -113 53 -305l-110 -625h-99l25 143q-146 -168 -375 -168q-158 0 -256 80t-98 211
q0 166 130 268q131 101 339 101q188 0 334 -86l16 94q25 140 -41 223q-73 90 -223 90q-89 0 -180 -37t-154 -98h-8l-47 60l2 10q71 71 176 114q108 44 215 44q205 0 301 -119zM487 68q144 0 263 82q121 81 143 217l14 84q-139 94 -319 94q-157 0 -258 -74t-101 -192
q0 -96 69.5 -153.5t188.5 -57.5z" />
    <glyph glyph-name="adieresis" unicode="&#xe4;" horiz-adv-x="1079" 
d="M580 1206q-36 0 -61 23.5t-25 58.5q0 45 31.5 78t76.5 33q35 0 60.5 -24.5t25.5 -57.5q0 -45 -31.5 -78t-76.5 -33zM893 1206q-36 0 -61 23.5t-25 58.5q0 44 32 78q31 33 74 33q35 0 60.5 -24.5t25.5 -57.5q0 -46 -31 -78q-32 -33 -75 -33zM985 930q90 -113 53 -305
l-110 -625h-99l25 143q-146 -168 -375 -168q-158 0 -256 80t-98 211q0 166 130 268q131 101 339 101q188 0 334 -86l16 94q25 140 -41 223q-73 90 -223 90q-89 0 -180 -37t-154 -98h-8l-47 60l2 10q71 71 176 114q108 44 215 44q205 0 301 -119zM487 68q144 0 263 82
q121 81 143 217l14 84q-139 94 -319 94q-157 0 -258 -74t-101 -192q0 -96 69.5 -153.5t188.5 -57.5z" />
    <glyph glyph-name="aring" unicode="&#xe5;" horiz-adv-x="1079" 
d="M731 1130q-69 0 -118 47q-48 47 -48 115q0 82 60 143q59 60 141 60q71 0 118 -46q48 -46 48 -116q0 -81 -59 -142q-60 -61 -142 -61zM737 1208q49 0 81 36q32 37 32 83q0 38 -25 64t-65 26q-50 0 -81.5 -34t-31.5 -85q0 -38 25 -64t65 -26zM985 930q90 -113 53 -305
l-110 -625h-99l25 143q-146 -168 -375 -168q-158 0 -256 80t-98 211q0 166 130 268q131 101 339 101q188 0 334 -86l16 94q25 140 -41 223q-73 90 -223 90q-89 0 -180 -37t-154 -98h-8l-47 60l2 10q71 71 176 114q108 44 215 44q205 0 301 -119zM487 68q144 0 263 82
q121 81 143 217l14 84q-139 94 -319 94q-157 0 -258 -74t-101 -192q0 -96 69.5 -153.5t188.5 -57.5z" />
    <glyph glyph-name="ae" unicode="&#xe6;" horiz-adv-x="1935" 
d="M1495 1049q217 0 340 -155t84 -359q-6 -38 -14 -56h-881q-8 -189 101 -299q108 -112 276 -112q106 0 206 43.5t173 124.5h8l53 -52l-2 -10q-172 -199 -448 -199q-150 0 -265 73q-116 74 -170 204q-68 -130 -198 -203q-131 -74 -279 -74q-159 0 -257 80q-97 79 -97 211
q0 166 130 268q131 101 339 101q184 0 334 -84q6 33 8 41l8 51q25 140 -41 223q-73 90 -223 90q-193 0 -342 -143h-8l-47 59l2 11q173 166 401 166q297 0 348 -236q43 59 105 113q153 123 356 123zM1040 573h781q18 161 -64 267q-90 117 -268 116q-175 0 -297 -108
q-120 -102 -152 -275zM487 68q143 0 263 84q119 84 145 219l14 80q-146 94 -321 94q-157 0 -258 -74t-101 -192q0 -96 69.5 -153.5t188.5 -57.5z" />
    <glyph glyph-name="ccedilla" unicode="&#xe7;" horiz-adv-x="1114" 
d="M762 1049q260 0 403 -209v-11l-63 -45h-10q-121 172 -328 172q-187 0 -320 -112q-164 -137 -163 -365q0 -180 109 -295q108 -116 282 -116q212 0 352 153h10l51 -49v-10q-158 -177 -395 -187l-31 -77q86 2 136.5 -36t50.5 -102q0 -86 -65 -135t-177 -49q-113 0 -186 64
l2 10l47 55h10q59 -51 135 -51q63 0 99.5 26.5t36.5 73.5q0 48 -60 65q-62 17 -131 -1l-29 18l68 144q-183 22 -302 159q-118 134 -118 332q0 135 56.5 253t158.5 198q155 127 371 127z" />
    <glyph glyph-name="egrave" unicode="&#xe8;" horiz-adv-x="1161" 
d="M975 1147h-8l-383 244l-2 6l53 73h6l371 -266v-8zM754 1049q217 0 339 -155q121 -154 85 -359q-2 -14 -15 -56h-880q-13 -185 96 -297q110 -114 280 -114q106 0 206.5 44t172.5 124h9l51 -52v-10q-85 -96 -203 -147.5t-246 -51.5q-223 0 -357 153q-134 154 -110 378
q22 262 213 420q156 123 359 123zM293 571h788q16 165 -65 269q-90 117 -268 116q-176 0 -297 -108q-120 -104 -158 -277z" />
    <glyph glyph-name="eacute" unicode="&#xe9;" horiz-adv-x="1161" 
d="M1012 1391l-383 -244h-8l-37 49v8l370 266h7l53 -73zM754 1049q217 0 339 -155q121 -154 85 -359q-2 -14 -15 -56h-880q-13 -185 96 -297q110 -114 280 -114q106 0 206.5 44t172.5 124h9l51 -52v-10q-85 -96 -203 -147.5t-246 -51.5q-223 0 -357 153q-134 154 -110 378
q22 262 213 420q156 123 359 123zM293 571h788q16 165 -65 269q-90 117 -268 116q-176 0 -297 -108q-120 -104 -158 -277z" />
    <glyph glyph-name="ecircumflex" unicode="&#xea;" horiz-adv-x="1161" 
d="M809 1313l-277 -152h-8l-32 56v8l317 188h22l248 -188v-8l-49 -50h-8zM754 1049q217 0 339 -155q121 -154 85 -359q-2 -14 -15 -56h-880q-13 -185 96 -297q110 -114 280 -114q106 0 206.5 44t172.5 124h9l51 -52v-10q-85 -96 -203 -147.5t-246 -51.5q-223 0 -357 153
q-134 154 -110 378q22 262 213 420q156 123 359 123zM293 571h788q16 165 -65 269q-90 117 -268 116q-176 0 -297 -108q-120 -104 -158 -277z" />
    <glyph glyph-name="edieresis" unicode="&#xeb;" horiz-adv-x="1161" 
d="M633 1206q-36 0 -61 23.5t-25 58.5q0 45 31.5 78t76.5 33q35 0 60.5 -24.5t25.5 -57.5q0 -45 -31.5 -78t-76.5 -33zM946 1206q-36 0 -61 23.5t-25 58.5q0 44 32 78q32 33 75 33q35 0 60.5 -24.5t25.5 -57.5q0 -44 -32 -78q-31 -33 -75 -33zM754 1049q217 0 339 -155
q121 -154 85 -359q-2 -14 -15 -56h-880q-13 -185 96 -297q110 -114 280 -114q106 0 206.5 44t172.5 124h9l51 -52v-10q-85 -96 -203 -147.5t-246 -51.5q-223 0 -357 153q-134 154 -110 378q22 262 213 420q156 123 359 123zM293 571h788q16 165 -65 269q-90 117 -268 116
q-176 0 -297 -108q-120 -104 -158 -277z" />
    <glyph glyph-name="igrave" unicode="&#xec;" 
d="M283 1470h6l370 -266v-8l-36 -49h-9l-383 244l-2 6zM272 0h-100l184 1024h101z" />
    <glyph glyph-name="iacute" unicode="&#xed;" 
d="M231 1204l371 266h6l54 -73l-3 -6l-383 -244h-8l-37 49v8zM272 0h-100l184 1024h101z" />
    <glyph glyph-name="icircumflex" unicode="&#xee;" 
d="M451 1413h20l223 -188v-8l-45 -50h-8l-190 146l-250 -152h-6l-31 56v8zM272 0h-100l184 1024h101z" />
    <glyph glyph-name="idieresis" unicode="&#xef;" 
d="M281 1206q-36 0 -61 23.5t-25 58.5q0 45 31.5 78t76.5 33q35 0 60.5 -24.5t25.5 -57.5q0 -45 -31.5 -78t-76.5 -33zM594 1206q-36 0 -61 23.5t-25 58.5q0 44 32 78q32 33 74 33q35 0 60.5 -24.5t25.5 -57.5q0 -46 -31 -78q-31 -33 -75 -33zM272 0h-100l184 1024h101z" />
    <glyph glyph-name="eth" unicode="&#xf0;" horiz-adv-x="1142" 
d="M1161 1286l8 -8l-14 -78l-194 -67q206 -346 178 -668q-17 -216 -163 -352q-147 -138 -362 -138q-195 0 -322 127q-128 128 -128 322q0 223 153 373q152 149 375 149q91 0 175 -35.5t139 -95.5q-51 131 -146 283l-237 -84l-5 8l15 78l184 65q-66 94 -121 162l2 8l72 54h8
q96 -124 140 -189zM1038 489q4 156 -94 261q-98 102 -252 102q-180 0 -302 -120t-122 -300q0 -157 98 -260q97 -102 250 -102q180 0 299 120q118 118 123 299z" />
    <glyph glyph-name="ntilde" unicode="&#xf1;" horiz-adv-x="1181" 
d="M553 1225h-14l-4 6l12 84q56 72 147 71q51 0 150 -35q96 -36 135 -36q89 0 129 69h16l4 -4l-14 -84q-50 -72 -147 -71q-44 0 -137 35q-92 34 -146 34q-88 1 -131 -69zM807 1049q184 0 278 -121q93 -121 58 -303l-113 -625h-102l110 616q27 155 -40 247q-68 93 -216 93
q-109 0 -204 -53q-94 -52 -144 -143q-42 -68 -55 -150l-109 -610h-102l184 1024h97l-29 -158q148 183 387 183z" />
    <glyph glyph-name="ograve" unicode="&#xf2;" horiz-adv-x="1243" 
d="M651 1470h6l371 -266v-8l-37 -49h-8l-383 244l-2 6zM672 -25q-215 0 -355 140q-141 140 -141 356q0 279 209 449q162 129 375 129q216 0 355 -139q140 -140 140 -357q0 -132 -55 -250t-156 -199q-160 -129 -372 -129zM674 68q176 0 309 112q168 141 168 367
q0 179 -111 294q-112 115 -284 115q-177 0 -310 -112q-168 -141 -167 -367q0 -178 112 -293q111 -116 283 -116z" />
    <glyph glyph-name="oacute" unicode="&#xf3;" horiz-adv-x="1243" 
d="M600 1204l371 266h6l53 -73l-2 -6l-383 -244h-8l-37 49v8zM672 -25q-215 0 -355 140q-141 140 -141 356q0 279 209 449q162 129 375 129q216 0 355 -139q140 -140 140 -357q0 -132 -55 -250t-156 -199q-160 -129 -372 -129zM674 68q176 0 309 112q168 141 168 367
q0 179 -111 294q-112 115 -284 115q-177 0 -310 -112q-168 -141 -167 -367q0 -178 112 -293q111 -116 283 -116z" />
    <glyph glyph-name="ocircumflex" unicode="&#xf4;" horiz-adv-x="1243" 
d="M825 1313l-276 -152h-8l-33 56v8l317 188h23l248 -188v-8l-49 -50h-9zM760 1049q216 0 355 -139q140 -140 140 -357q0 -132 -55 -250t-156 -199q-162 -129 -372 -129q-215 0 -355 140q-141 140 -141 356q0 279 209 449q162 129 375 129zM983 180q168 141 168 367
q0 179 -111 294q-112 115 -284 115q-177 0 -310 -112q-168 -141 -167 -367q0 -178 112 -293q111 -116 283 -116q174 -1 309 112z" />
    <glyph glyph-name="otilde" unicode="&#xf5;" horiz-adv-x="1243" 
d="M952 1225q-44 0 -137 35q-90 34 -145 34q-88 0 -131 -69h-15l-4 6l12 84q56 72 148 71q51 0 150 -35q96 -36 135 -36q89 0 129 69h16l4 -4l-14 -84q-50 -71 -148 -71zM672 -25q-215 0 -355 140q-141 140 -141 356q0 279 209 449q162 129 375 129q216 0 355 -139
q140 -140 140 -357q0 -132 -55 -250t-156 -199q-160 -129 -372 -129zM674 68q176 0 309 112q168 141 168 367q0 179 -111 294q-112 115 -284 115q-177 0 -310 -112q-168 -141 -167 -367q0 -178 112 -293q111 -116 283 -116z" />
    <glyph glyph-name="odieresis" unicode="&#xf6;" horiz-adv-x="1243" 
d="M649 1206q-36 0 -61 23.5t-25 58.5q0 44 32 78q31 33 77 33q35 0 60.5 -24.5t25.5 -57.5q0 -44 -32 -78q-32 -33 -77 -33zM963 1206q-36 0 -61 23.5t-25 58.5q0 44 32 78q31 33 74 33q35 0 60.5 -24.5t25.5 -57.5q0 -46 -31 -78q-32 -33 -75 -33zM672 -25
q-215 0 -355 140q-141 140 -141 356q0 279 209 449q162 129 375 129q216 0 355 -139q140 -140 140 -357q0 -132 -55 -250t-156 -199q-160 -129 -372 -129zM674 68q176 0 309 112q168 141 168 367q0 179 -111 294q-112 115 -284 115q-177 0 -310 -112q-168 -141 -167 -367
q0 -178 112 -293q111 -116 283 -116z" />
    <glyph glyph-name="divide" unicode="&#xf7;" horiz-adv-x="1062" 
d="M694 846q-35 0 -60.5 24.5t-25.5 57.5q0 45 32 77.5t77 32.5q35 0 60.5 -24.5t25.5 -57.5q0 -46 -33 -77q-33 -33 -76 -33zM225 569l15 90h821l-17 -90h-819zM573 188q-35 0 -60.5 24t-25.5 58q0 44 32 78q31 33 77 33q35 0 60.5 -24.5t25.5 -59.5q0 -45 -32 -77t-77 -32
z" />
    <glyph glyph-name="oslash" unicode="&#xf8;" horiz-adv-x="1243" 
d="M1311 1145l4 -10l-197 -228q137 -142 137 -354q0 -132 -55 -250t-156 -199q-162 -129 -372 -129q-160 0 -287 84l-133 -153h-107l-4 10l174 201q-139 139 -139 354q0 279 209 449q162 129 375 129q164 0 289 -86l157 182h105zM279 477q0 -170 102 -284l602 696
q-102 68 -227 67q-177 0 -310 -112q-167 -143 -167 -367zM1151 547q0 170 -100 282l-602 -696q103 -66 225 -65q176 0 309 112q168 143 168 367z" />
    <glyph glyph-name="ugrave" unicode="&#xf9;" horiz-adv-x="1157" 
d="M954 1147h-8l-383 244l-2 6l53 73h7l370 -266v-8zM961 395l112 629h101l-183 -1024h-96l27 147q-141 -172 -365 -172q-181 0 -272 115t-60 301l113 633h102l-114 -633q-25 -147 42 -235q66 -88 205 -88q229 0 345 198q31 56 43 129z" />
    <glyph glyph-name="uacute" unicode="&#xfa;" horiz-adv-x="1157" 
d="M991 1391l-383 -244h-8l-37 49v8l371 266h6l53 -73zM961 395l112 629h101l-183 -1024h-96l27 147q-141 -172 -365 -172q-181 0 -272 115t-60 301l113 633h102l-114 -633q-25 -147 42 -235q66 -88 205 -88q229 0 345 198q31 56 43 129z" />
    <glyph glyph-name="ucircumflex" unicode="&#xfb;" horiz-adv-x="1157" 
d="M788 1313l-276 -152h-8l-33 56v8l317 188h23l248 -188v-8l-49 -50h-9zM961 395l112 629h101l-183 -1024h-96l27 147q-141 -172 -365 -172q-181 0 -272 115t-60 301l113 633h102l-114 -633q-25 -147 42 -235q66 -88 205 -88q229 0 345 198q31 56 43 129z" />
    <glyph glyph-name="udieresis" unicode="&#xfc;" horiz-adv-x="1157" 
d="M612 1206q-36 0 -61 23.5t-25 58.5q0 44 32 78q32 33 77 33q35 0 60.5 -24.5t25.5 -57.5q0 -44 -32 -78q-31 -33 -77 -33zM926 1206q-36 0 -61 23.5t-25 58.5q0 44 32 78q32 33 74 33q35 0 60.5 -24.5t25.5 -57.5q0 -46 -31 -78q-31 -33 -75 -33zM961 395l112 629h101
l-183 -1024h-96l27 147q-141 -172 -365 -172q-181 0 -272 115t-60 301l113 633h102l-114 -633q-25 -147 42 -235q66 -88 205 -88q229 0 345 198q31 56 43 129z" />
    <glyph glyph-name="yacute" unicode="&#xfd;" horiz-adv-x="1017" 
d="M920 1391l-383 -244h-9l-36 49v8l370 266h6l54 -73zM1051 1024h102l6 -10l-694 -1139q-72 -115 -131 -158q-62 -45 -146 -45q-83 0 -135 41l-2 11l43 65l10 4q41 -35 93 -35q92 0 170 129l96 158l-244 969l8 10h99l211 -854z" />
    <glyph glyph-name="thorn" unicode="&#xfe;" horiz-adv-x="1269" 
d="M817 1049q203 0 333 -139t130 -355q0 -241 -158 -411q-159 -169 -395 -169q-139 0 -250 75q-113 75 -162 208l-100 -565h-102l295 1638h96l-86 -471q158 189 399 189zM725 68q193 0 322 142t129 345q0 176 -102 289q-103 112 -271 112q-196 0 -323 -139
q-128 -140 -128 -346q0 -177 103 -289q102 -114 270 -114z" />
    <glyph glyph-name="ydieresis" unicode="&#xff;" horiz-adv-x="1017" 
d="M541 1206q-36 0 -61 23.5t-25 58.5q0 45 31.5 78t76.5 33q35 0 60.5 -24.5t25.5 -57.5q0 -45 -31.5 -78t-76.5 -33zM854 1206q-36 0 -61 23.5t-25 58.5q0 44 32 78q32 33 74 33q35 0 61 -24.5t26 -57.5q0 -44 -32 -78q-31 -33 -75 -33zM1051 1024h102l6 -10l-694 -1139
q-72 -115 -131 -158q-62 -45 -146 -45q-83 0 -135 41l-2 11l43 65l10 4q41 -35 93 -35q92 0 170 129l96 158l-244 969l8 10h99l211 -854z" />
    <glyph glyph-name="Amacron" unicode="&#x100;" horiz-adv-x="1314" 
d="M653 1589h553l-16 -84h-553zM870 1331h56l350 -1321l-6 -10h-96l-82 319h-744l-198 -319h-105l-4 10zM872 1161l-466 -749h661z" />
    <glyph glyph-name="amacron" unicode="&#x101;" horiz-adv-x="1079" 
d="M461 1229l16 88h545l-16 -88h-545zM985 930q90 -113 53 -305l-110 -625h-99l25 143q-146 -168 -375 -168q-158 0 -256 80t-98 211q0 166 130 268q131 101 339 101q188 0 334 -86l16 94q25 140 -41 223q-73 90 -223 90q-89 0 -180 -37t-154 -98h-8l-47 60l2 10
q71 71 176 114q108 44 215 44q205 0 301 -119zM487 68q144 0 263 82q121 81 143 217l14 84q-139 94 -319 94q-157 0 -258 -74t-101 -192q0 -96 69.5 -153.5t188.5 -57.5z" />
    <glyph glyph-name="Abreve" unicode="&#x102;" horiz-adv-x="1314" 
d="M915 1448q-101 0 -169 71q-68 72 -64 183h90q-2 -77 41.5 -123.5t114.5 -46.5q141 0 200 170h91q-33 -113 -118 -183q-86 -71 -186 -71zM870 1331h56l350 -1321l-6 -10h-96l-82 319h-744l-198 -319h-105l-4 10zM872 1161l-466 -749h661z" />
    <glyph glyph-name="abreve" unicode="&#x103;" horiz-adv-x="1079" 
d="M733 1174q-112 0 -180 71t-64 182h91q0 -76 44 -124t116 -48q71 0 129.5 47t86.5 125h88q-33 -114 -116 -184q-84 -69 -195 -69zM985 930q90 -113 53 -305l-110 -625h-99l25 143q-146 -168 -375 -168q-158 0 -256 80t-98 211q0 166 130 268q131 101 339 101
q188 0 334 -86l16 94q25 140 -41 223q-73 90 -223 90q-89 0 -180 -37t-154 -98h-8l-47 60l2 10q71 71 176 114q108 44 215 44q205 0 301 -119zM487 68q144 0 263 82q121 81 143 217l14 84q-139 94 -319 94q-157 0 -258 -74t-101 -192q0 -96 69.5 -153.5t188.5 -57.5z" />
    <glyph glyph-name="Aogonek" unicode="&#x104;" horiz-adv-x="1314" 
d="M1319 -283l6 -2l18 -51l-4 -10q-71 -37 -149 -37q-77 0 -127 41q-49 40 -49 111q0 135 157 243l-79 307h-744l-198 -319h-105l-4 10l829 1321h56l350 -1321l-6 -10l-25 -16q-42 -28 -87 -76q-52 -54 -52 -119q0 -45 29.5 -70.5t78.5 -25.5q44 0 105 24zM872 1161
l-466 -749h661z" />
    <glyph glyph-name="aogonek" unicode="&#x105;" horiz-adv-x="1079" 
d="M1038 625l-110 -625l-27 -16q-43 -31 -85 -76q-52 -54 -52 -119q0 -45 29.5 -70.5t78.5 -25.5q44 0 105 24l6 -2l18 -51l-4 -10q-71 -37 -149 -37q-77 0 -127 41q-49 40 -49 111q0 75 50 140q48 63 109 105l23 129q-146 -168 -375 -168q-158 0 -256 80t-98 211
q0 166 130 268q131 101 339 101q188 0 334 -86l16 94q25 140 -41 223q-73 90 -223 90q-89 0 -180 -37t-154 -98h-8l-47 60l2 10q71 71 176 114q108 44 215 44q205 0 301 -119q90 -113 53 -305zM487 68q144 0 263 82q121 81 143 217l14 84q-139 94 -319 94q-157 0 -258 -74
t-101 -192q0 -96 69.5 -153.5t188.5 -57.5z" />
    <glyph glyph-name="Cacute" unicode="&#x106;" horiz-adv-x="1390" 
d="M831 1507l359 236h8l47 -76l-2 -8l-373 -207h-8l-31 47v8zM846 -25q-276 0 -456 182q-181 181 -181 457q0 166 65.5 312.5t186.5 251.5q211 178 497 178q169 0 311 -71q141 -71 214 -189v-9l-76 -51h-8q-67 105 -183.5 164.5t-261.5 59.5q-252 0 -428 -158
q-213 -184 -213 -484q0 -236 153 -391q152 -155 384 -155q276 0 477 217h8l64 -56l-2 -10q-233 -248 -551 -248z" />
    <glyph glyph-name="cacute" unicode="&#x107;" horiz-adv-x="1114" 
d="M598 1204l371 266h6l53 -73l-2 -6l-383 -244h-8l-37 49v8zM666 -25q-210 0 -350 141q-140 140 -140 355q0 135 56.5 253t158.5 198q155 127 371 127q260 0 403 -209v-11l-63 -45h-10q-121 172 -328 172q-187 0 -320 -112q-164 -137 -163 -365q0 -180 109 -295
q108 -116 282 -116q212 0 352 153h10l51 -49v-10q-166 -187 -419 -187z" />
    <glyph glyph-name="Cdotaccent" unicode="&#x10a;" horiz-adv-x="1390" 
d="M1014 1489q-35 0 -60.5 24.5t-25.5 59.5q0 45 31.5 77.5t76.5 32.5q35 0 60.5 -24.5t25.5 -59.5q0 -45 -31.5 -77.5t-76.5 -32.5zM846 -25q-276 0 -456 182q-181 181 -181 457q0 166 65.5 312.5t186.5 251.5q211 178 497 178q169 0 311 -71q141 -71 214 -189v-9l-76 -51
h-8q-67 105 -183.5 164.5t-261.5 59.5q-252 0 -428 -158q-213 -184 -213 -484q0 -236 153 -391q152 -155 384 -155q276 0 477 217h8l64 -56l-2 -10q-233 -248 -551 -248z" />
    <glyph glyph-name="cdotaccent" unicode="&#x10b;" horiz-adv-x="1114" 
d="M805 1206q-35 0 -60.5 24.5t-25.5 57.5q0 45 30.5 78t75.5 33q35 0 60.5 -24.5t25.5 -59.5q0 -45 -31.5 -77t-74.5 -32zM666 -25q-210 0 -350 141q-140 140 -140 355q0 135 56.5 253t158.5 198q155 127 371 127q260 0 403 -209v-11l-63 -45h-10q-121 172 -328 172
q-187 0 -320 -112q-164 -137 -163 -365q0 -180 109 -295q108 -116 282 -116q212 0 352 153h10l51 -49v-10q-166 -187 -419 -187z" />
    <glyph glyph-name="Ccaron" unicode="&#x10c;" horiz-adv-x="1390" 
d="M1343 1651l-331 -185h-15l-266 185l2 8l43 51h8l230 -141l297 147h8l27 -57zM958 1356q169 0 311 -71q141 -71 214 -189v-9l-76 -51h-8q-67 105 -183.5 164.5t-261.5 59.5q-252 0 -428 -158q-213 -184 -213 -484q0 -236 153 -391q152 -155 384 -155q276 0 477 217h8
l64 -56l-2 -10q-231 -248 -551 -248q-276 0 -456 182q-181 181 -181 457q0 166 65.5 312.5t186.5 251.5q209 178 497 178z" />
    <glyph glyph-name="ccaron" unicode="&#x10d;" horiz-adv-x="1114" 
d="M1114 1333l-313 -186h-23l-252 186l2 8l52 48h8l213 -144l272 150h8l35 -54zM762 1049q260 0 403 -209v-11l-63 -45h-10q-121 172 -328 172q-187 0 -320 -112q-164 -137 -163 -365q0 -180 109 -295q108 -116 282 -116q212 0 352 153h10l51 -49v-10q-168 -185 -419 -187
q-210 0 -350 141q-140 140 -140 355q0 135 56.5 253t158.5 198q155 127 371 127z" />
    <glyph glyph-name="Dcaron" unicode="&#x10e;" horiz-adv-x="1449" 
d="M1251 1651l-331 -185h-15l-266 185l2 8l43 51h8l230 -141l297 147h8l26 -57zM436 1331h496q264 0 408 -147q143 -149 143 -400q0 -356 -210 -570t-571 -214h-505zM317 92h392q313 0 490 187q177 186 177 497q0 214 -116 339q-117 124 -338 124h-398z" />
    <glyph glyph-name="dcaron" unicode="&#x10f;" horiz-adv-x="1275" 
d="M1544 1442h98l7 -8l-162 -349l-8 -8h-58l-4 8l119 349zM1147 768l110 621l93 8l10 -6l-252 -1391h-96l30 164q-157 -187 -401 -189q-200 0 -331 140q-130 139 -130 354q0 241 159 411q159 169 394 169q137 0 250 -74t164 -207zM657 68q196 0 324 140q127 139 127 347
q0 174 -102 288q-104 113 -269 113q-196 0 -323 -142q-129 -142 -129 -343q0 -177 102 -289q102 -114 270 -114z" />
    <glyph glyph-name="Dcroat" unicode="&#x110;" horiz-adv-x="1490" 
d="M449 1331h495q264 0 408 -147q143 -149 143 -400q0 -356 -210 -570t-570 -214h-506l113 625h-166l16 92h166zM330 92h391q313 0 491 187q177 186 177 497q0 214 -117 339q-117 124 -338 124h-397l-95 -522h404l-17 -92h-403z" />
    <glyph glyph-name="dslash" unicode="&#x111;" horiz-adv-x="1271" 
d="M1325 1233h135l-14 -82h-135l-207 -1151h-96l28 164q-158 -188 -399 -189q-200 0 -331 140q-130 139 -130 354q0 241 159 411q159 169 392 169q138 0 250 -73q113 -74 164 -204l67 379h-307l14 82h308l28 156l95 8l8 -6zM653 68q197 0 323 140t126 347q0 173 -101 288
q-102 113 -268 113q-196 0 -323 -142q-129 -142 -129 -343q0 -177 102 -289q102 -114 270 -114z" />
    <glyph glyph-name="Emacron" unicode="&#x112;" horiz-adv-x="1130" 
d="M592 1505l16 84h553l-16 -84h-553zM1282 1331l-16 -92h-744l-92 -520h590l-16 -92h-590l-97 -535h742l-17 -92h-845l239 1331h846z" />
    <glyph glyph-name="emacron" unicode="&#x113;" horiz-adv-x="1161" 
d="M530 1317h545l-16 -88h-545zM754 1049q217 0 339 -155q121 -154 85 -359q-2 -14 -15 -56h-880q-13 -185 96 -297q110 -114 280 -114q106 0 206.5 44t172.5 124h9l51 -52v-10q-85 -96 -203 -147.5t-246 -51.5q-223 0 -357 153q-134 154 -110 378q22 262 213 420
q156 123 359 123zM293 571h788q16 165 -65 269q-90 117 -268 116q-176 0 -297 -108q-120 -104 -158 -277z" />
    <glyph glyph-name="Edotaccent" unicode="&#x116;" horiz-adv-x="1130" 
d="M872 1489q-35 0 -60.5 24.5t-25.5 59.5q0 45 32 77.5t77 32.5q35 0 60.5 -24.5t25.5 -59.5q0 -45 -32 -77.5t-77 -32.5zM1282 1331l-16 -92h-744l-92 -520h590l-16 -92h-590l-97 -535h742l-17 -92h-845l239 1331h846z" />
    <glyph glyph-name="edotaccent" unicode="&#x117;" horiz-adv-x="1161" 
d="M791 1206q-35 0 -60.5 24.5t-25.5 57.5q0 45 30.5 78t75.5 33q35 0 60.5 -24.5t25.5 -59.5q0 -45 -31.5 -77t-74.5 -32zM754 1049q217 0 339 -155q121 -154 85 -359q-2 -14 -15 -56h-880q-13 -185 96 -297q110 -114 280 -114q106 0 206.5 44t172.5 124h9l51 -52v-10
q-85 -96 -203 -147.5t-246 -51.5q-223 0 -357 153q-134 154 -110 378q22 262 213 420q156 123 359 123zM293 571h788q16 165 -65 269q-90 117 -268 116q-176 0 -297 -108q-120 -104 -158 -277z" />
    <glyph glyph-name="Eogonek" unicode="&#x118;" horiz-adv-x="1130" 
d="M1282 1331l-16 -92h-744l-92 -520h590l-16 -92h-590l-97 -535h742l-17 -92l-26 -16q-46 -33 -86 -76q-51 -53 -51 -119q0 -45 29.5 -70.5t78.5 -25.5q43 0 105 24l6 -2l18 -51l-4 -10q-71 -37 -149 -37q-77 0 -127 41t-50 111q0 125 142 231h-731l239 1331h846z" />
    <glyph glyph-name="eogonek" unicode="&#x119;" horiz-adv-x="1161" 
d="M754 1049q217 0 339 -155q121 -154 85 -359q-2 -14 -15 -56h-880q-13 -185 96 -297q110 -114 280 -114q106 0 206.5 44t172.5 124h9l51 -52v-10q-99 -114 -248 -166q-150 -100 -150 -201q0 -45 30 -70.5t79 -25.5q44 0 104 25l7 -2l18 -51l-4 -11q-71 -37 -149 -37
q-77 0 -127 41t-50 111q0 96 94 190q-24 -2 -53 -2q-223 0 -357 153q-134 154 -110 378q22 262 213 420q156 123 359 123zM293 571h788q16 165 -65 269q-90 117 -268 116q-176 0 -297 -108q-120 -104 -158 -277z" />
    <glyph glyph-name="Ecaron" unicode="&#x11a;" horiz-adv-x="1130" 
d="M1202 1651l-332 -185h-14l-266 185l2 8l43 51h8l229 -141l297 147h9l26 -57zM1282 1331l-16 -92h-744l-92 -520h590l-16 -92h-590l-97 -535h742l-17 -92h-845l239 1331h846z" />
    <glyph glyph-name="ecaron" unicode="&#x11b;" horiz-adv-x="1161" 
d="M1100 1333l-314 -186h-22l-252 186l2 8l51 48h8l213 -144l273 150h8l35 -54zM754 1049q217 0 339 -155q121 -154 85 -359q-2 -14 -15 -56h-880q-13 -185 96 -297q110 -114 280 -114q106 0 206.5 44t172.5 124h9l51 -52v-10q-85 -96 -203 -147.5t-246 -51.5
q-223 0 -357 153q-134 154 -110 378q22 262 213 420q156 123 359 123zM293 571h788q16 165 -65 269q-90 117 -268 116q-176 0 -297 -108q-120 -104 -158 -277z" />
    <glyph glyph-name="Gbreve" unicode="&#x11e;" horiz-adv-x="1490" 
d="M989 1448q-101 0 -169 71q-68 72 -64 183h90q-2 -77 41.5 -123.5t113.5 -46.5q141 0 201 170h90q-33 -113 -118 -183q-86 -71 -185 -71zM834 -25q-272 0 -451 182q-180 181 -180 457q0 166 65.5 312.5t186.5 251.5q211 178 497 178q167 0 309 -77q139 -76 216 -200
l-2 -10l-72 -51h-8q-66 108 -185 176q-118 66 -262 66q-252 0 -428 -158q-213 -184 -213 -484q0 -237 151 -391q150 -155 384 -155q222 5 370 129q171 145 215 403h-544l18 92h633l8 -8q2 -23 -2 -39q-46 -342 -256 -518q-180 -156 -450 -156z" />
    <glyph glyph-name="gbreve" unicode="&#x11f;" horiz-adv-x="1216" 
d="M756 1174q-112 0 -180 71t-64 182h90q0 -76 44 -124t116 -48q71 0 129 47t88 125h88q-33 -114 -116 -184q-84 -69 -195 -69zM1098 811l39 213h98l-160 -885q-40 -226 -187 -347q-147 -120 -353 -120q-145 0 -261 60q-116 62 -168 166l3 8l69 51h10q43 -91 137 -142
t222 -51q168 0 282 96q113 98 146 277l20 119q-12 -14 -34 -33q-145 -129 -338 -129q-186 0 -307 124t-121 314q0 244 180 398q137 119 334 119q195 0 319 -136q42 -42 70 -102zM897 270q162 123 162 338q0 150 -95 248q-96 98 -251 98q-169 0 -281 -106
q-135 -118 -135 -316q0 -152 94 -249t246 -97q153 0 260 84z" />
    <glyph glyph-name="Gdotaccent" unicode="&#x120;" horiz-adv-x="1490" 
d="M991 1489q-35 0 -60.5 24.5t-25.5 59.5q0 45 32 77.5t77 32.5q35 0 60.5 -24.5t25.5 -59.5q0 -45 -32 -77.5t-77 -32.5zM834 -25q-272 0 -451 182q-180 181 -180 457q0 166 65.5 312.5t186.5 251.5q211 178 497 178q167 0 309 -77q139 -76 216 -200l-2 -10l-72 -51h-8
q-66 108 -185 176q-118 66 -262 66q-252 0 -428 -158q-213 -184 -213 -484q0 -237 151 -391q150 -155 384 -155q222 5 370 129q171 145 215 403h-544l18 92h633l8 -8q2 -23 -2 -39q-46 -342 -256 -518q-180 -156 -450 -156z" />
    <glyph glyph-name="gdotaccent" unicode="&#x121;" horiz-adv-x="1216" 
d="M760 1206q-35 0 -60.5 24.5t-25.5 57.5q0 45 30.5 78t75.5 33q35 0 60.5 -24.5t25.5 -59.5q0 -45 -31.5 -77t-74.5 -32zM1098 811l39 213h98l-160 -885q-40 -226 -187 -347q-147 -120 -353 -120q-145 0 -261 60q-116 62 -168 166l3 8l69 51h10q43 -91 137 -142t222 -51
q168 0 282 96q113 98 146 277l20 119q-12 -14 -34 -33q-145 -129 -338 -129q-186 0 -307 124t-121 314q0 244 180 398q137 119 334 119q195 0 319 -136q42 -42 70 -102zM897 270q162 123 162 338q0 150 -95 248q-96 98 -251 98q-169 0 -281 -106q-135 -118 -135 -316
q0 -152 94 -249t246 -97q153 0 260 84z" />
    <glyph glyph-name="uni0122" unicode="&#x122;" horiz-adv-x="1490" 
d="M834 -25q-272 0 -451 182q-180 181 -180 457q0 166 65.5 312.5t186.5 251.5q211 178 497 178q167 0 309 -77q139 -76 216 -200l-2 -10l-72 -51h-8q-66 108 -185 176q-118 66 -262 66q-252 0 -428 -158q-213 -184 -213 -484q0 -237 151 -391q150 -155 384 -155
q222 5 370 129q171 145 215 403h-544l18 92h633l8 -8q2 -23 -2 -39q-46 -342 -256 -518q-180 -156 -450 -156zM641 -416l102 305l11 9h94l4 -9l-141 -305l-11 -8h-55z" />
    <glyph glyph-name="uni0123" unicode="&#x123;" horiz-adv-x="1216" 
d="M797 1159l-11 -8h-94l-4 8l141 305l11 9h55l4 -9zM1098 811l39 213h98l-160 -885q-40 -226 -187 -347q-147 -120 -353 -120q-145 0 -261 60q-116 62 -168 166l3 8l69 51h10q43 -91 137 -142t222 -51q168 0 282 96q113 98 146 277l20 119q-12 -14 -34 -33
q-145 -129 -338 -129q-186 0 -307 124t-121 314q0 244 180 398q137 119 334 119q195 0 319 -136q42 -42 70 -102zM897 270q162 123 162 338q0 150 -95 248q-96 98 -251 98q-169 0 -281 -106q-135 -118 -135 -316q0 -152 94 -249t246 -97q153 0 260 84z" />
    <glyph glyph-name="Hbar" unicode="&#x126;" horiz-adv-x="1447" 
d="M1411 1042h113l-15 -81h-112l-174 -963h-103l111 627h-815l-113 -627h-104l174 963h-117l14 81h117l51 287h105l-51 -287h815l53 287h102zM432 717h815l45 244h-817z" />
    <glyph glyph-name="hbar" unicode="&#x127;" horiz-adv-x="1181" 
d="M807 1049q184 0 278 -121q93 -121 58 -303l-113 -625h-102l108 616q31 167 -49 261q-68 80 -201 79q-113 0 -211 -56q-97 -55 -147 -148q-31 -50 -49 -142l-111 -610h-100l205 1133h-144l17 81h141l31 175l92 8l8 -6l-33 -177h308l-17 -81h-305l-47 -261q150 177 383 177
z" />
    <glyph glyph-name="Itilde" unicode="&#x128;" horiz-adv-x="497" 
d="M635 1499q-44 0 -118 37t-122 37q-70 0 -108 -74h-13l-4 6l13 88q43 72 129 72q48 0 125 -37q75 -37 112 -37q72 0 111 72h12l4 -6l-14 -86q-39 -72 -127 -72zM197 0l239 1331h105l-240 -1331h-104z" />
    <glyph glyph-name="itilde" unicode="&#x129;" 
d="M565 1225q-39 0 -123 35q-81 34 -131 34q-81 0 -118 -69h-13l-4 6l10 84q51 72 133 71q45 0 135 -35q87 -36 121 -36q78 0 117 69h15l4 -4l-13 -84q-45 -71 -133 -71zM272 0h-100l184 1024h101z" />
    <glyph glyph-name="Imacron" unicode="&#x12a;" horiz-adv-x="497" 
d="M266 1505l15 84h497l-14 -84h-498zM197 0l239 1331h105l-240 -1331h-104z" />
    <glyph glyph-name="imacron" unicode="&#x12b;" 
d="M186 1229l15 88h491l-16 -88h-490zM272 0h-100l184 1024h101z" />
    <glyph glyph-name="Iogonek" unicode="&#x12e;" horiz-adv-x="497" 
d="M350 -283l6 -2l19 -51l-4 -10q-71 -37 -150 -37q-77 0 -127 41q-49 40 -49 111q0 132 154 241l237 1321h105l-240 -1331l-27 -16q-43 -31 -85 -76q-52 -54 -52 -119q0 -45 30 -70.5t79 -25.5q43 -1 104 24z" />
    <glyph glyph-name="iogonek" unicode="&#x12f;" 
d="M459 1399q35 0 60.5 -24.5t25.5 -59.5q0 -45 -32 -77t-75 -32q-35 0 -60.5 24.5t-25.5 57.5q0 45 31 78t76 33zM457 1024l-185 -1024l-26 -16q-46 -33 -86 -76q-51 -53 -51 -119q0 -45 29.5 -70.5t78.5 -25.5q43 0 105 24l6 -2l18 -51l-4 -10q-71 -37 -149 -37
q-77 0 -127 41t-50 111q0 75 50 139t108 104l182 1012h101z" />
    <glyph glyph-name="Idot" unicode="&#x130;" horiz-adv-x="497" 
d="M520 1489q-35 0 -60.5 24.5t-25.5 59.5q0 45 32 77.5t77 32.5q35 0 60.5 -24.5t25.5 -59.5q0 -45 -32 -77.5t-77 -32.5zM197 0l239 1331h105l-240 -1331h-104z" />
    <glyph glyph-name="dotlessi" unicode="&#x131;" 
d="M272 0h-100l184 1024h101z" />
    <glyph glyph-name="IJ" unicode="&#x132;" horiz-adv-x="1339" 
d="M197 0l239 1331h105l-240 -1331h-104zM1120 373l172 958h105l-172 -960q-34 -185 -152 -291q-117 -105 -274 -105q-129 0 -221.5 56t-135.5 151l2 8l72 54h10q36 -78 108.5 -125t166.5 -47q121 0 208 81q87 79 111 220z" />
    <glyph glyph-name="ij" unicode="&#x133;" horiz-adv-x="860" 
d="M440 1206q-33 0 -56.5 23.5t-23.5 58.5q0 42 36 77q35 34 79 34q33 0 55.5 -24.5t22.5 -59.5q0 -43 -35 -76q-34 -33 -78 -33zM860 1206q-35 0 -57.5 23.5t-22.5 58.5q0 42 35 77q34 34 78 34q35 0 58.5 -24.5t23.5 -59.5q0 -43 -36 -76t-79 -33zM272 0h-100l184 1024
h101zM440 -328h-8l-24 72l2 8q81 45 125 101.5t59 146.5l182 1024h101l-181 -1012q-26 -134 -86 -208q-62 -74 -170 -132z" />
    <glyph glyph-name="uni0136" unicode="&#x136;" horiz-adv-x="1165" 
d="M1378 1331l4 -10l-686 -580l443 -731l-9 -10h-110l-406 676l-227 -193l-86 -483h-104l239 1331h105l-127 -710l837 710h127zM586 -111l10 9h94l4 -9l-141 -305l-10 -8h-56l-4 8z" />
    <glyph glyph-name="uni0137" unicode="&#x137;" horiz-adv-x="978" 
d="M1126 1024l4 -10l-479 -412l314 -592l-9 -10h-104l-279 535l-247 -211l-58 -324h-100l250 1389l92 8l8 -6l-166 -928l654 561h120zM500 -111l10 9h94l4 -9l-141 -305l-10 -8h-56l-4 8z" />
    <glyph glyph-name="kgreenlandic" unicode="&#x138;" horiz-adv-x="978" 
d="M1126 1024l4 -10l-479 -412l314 -592l-9 -10h-104l-279 535l-247 -211l-58 -324h-100l184 1024l92 8l9 -6l-103 -565l656 563h120z" />
    <glyph glyph-name="Lacute" unicode="&#x139;" horiz-adv-x="999" 
d="M303 1507l359 236h8l47 -76l-2 -8l-373 -207h-8l-31 47v8zM317 92h668l-14 -92h-774l239 1331h105z" />
    <glyph glyph-name="lacute" unicode="&#x13a;" 
d="M266 1509l359 236h8l47 -76l-2 -8l-373 -207h-8l-31 47v8zM272 0h-100l250 1389l92 8l8 -6z" />
    <glyph glyph-name="uni013B" unicode="&#x13b;" horiz-adv-x="999" 
d="M317 92h668l-14 -92h-774l239 1331h105zM432 -416l103 305l10 9h94l4 -9l-141 -305l-10 -8h-56z" />
    <glyph glyph-name="uni013C" unicode="&#x13c;" 
d="M272 0h-100l250 1389l92 8l8 -6zM47 -416l103 305l10 9h94l4 -9l-141 -305l-11 -8h-55z" />
    <glyph glyph-name="Lcaron" unicode="&#x13d;" horiz-adv-x="999" 
d="M731 1094l109 348l10 8h98l4 -8l-149 -348l-10 -9h-58zM317 92h668l-14 -92h-774l239 1331h105z" />
    <glyph glyph-name="lcaron" unicode="&#x13e;" horiz-adv-x="442" 
d="M592 1085l119 349l8 8h98l4 -8l-159 -349l-11 -8h-55zM272 0h-100l250 1389l92 8l8 -6z" />
    <glyph glyph-name="Ldot" unicode="&#x13f;" horiz-adv-x="1028" 
d="M317 92h668l-14 -92h-774l239 1331h105zM809 578q-35 0 -60.5 24.5t-25.5 59.5q0 45 33 78q32 32 75 32q36 0 61.5 -24.5t25.5 -59.5q0 -45 -32 -77.5t-77 -32.5z" />
    <glyph glyph-name="ldot" unicode="&#x140;" horiz-adv-x="475" 
d="M272 0h-100l250 1386l92 11l8 -6zM555 629q-35 0 -60.5 24.5t-25.5 57.5q0 45 32 77.5t77 32.5q35 0 60.5 -24.5t25.5 -57.5q0 -45 -33 -77q-33 -33 -76 -33z" />
    <glyph glyph-name="Lslash" unicode="&#x141;" horiz-adv-x="1064" 
d="M449 580l-89 -488h668l-14 -92h-774l94 526l-207 -94l-8 4l12 88l221 101l127 706h105l-119 -653l299 135l8 -6l-14 -86z" />
    <glyph glyph-name="lslash" unicode="&#x142;" horiz-adv-x="573" 
d="M662 866l10 -6l-17 -82l-194 -92l-123 -686h-100l114 635l-186 -88l-8 4l14 82l197 94l118 662l93 8l8 -6l-111 -613z" />
    <glyph glyph-name="Nacute" unicode="&#x143;" horiz-adv-x="1417" 
d="M1186 1659l-373 -207h-8l-31 47v8l359 236h8l47 -76zM1151 182l207 1149h102l-246 -1351h-55l-657 1144l-203 -1124h-102l239 1331h58z" />
    <glyph glyph-name="nacute" unicode="&#x144;" horiz-adv-x="1181" 
d="M1042 1391l-383 -244h-8l-37 49v8l371 266h6l53 -73zM807 1049q184 0 278 -121q93 -121 58 -303l-113 -625h-102l110 616q27 155 -40 247q-68 93 -216 93q-109 0 -204 -53q-94 -52 -144 -143q-42 -68 -55 -150l-109 -610h-102l184 1024h97l-29 -158q148 183 387 183z" />
    <glyph glyph-name="uni0145" unicode="&#x145;" horiz-adv-x="1417" 
d="M1151 182l207 1149h102l-246 -1351h-55l-657 1144l-203 -1124h-102l239 1331h58zM659 -111l11 9h94l4 -9l-141 -305l-11 -8h-55l-4 8z" />
    <glyph glyph-name="uni0146" unicode="&#x146;" horiz-adv-x="1181" 
d="M807 1049q184 0 278 -121q93 -121 58 -303l-113 -625h-102l110 616q27 155 -40 247q-68 93 -216 93q-109 0 -204 -53q-94 -52 -144 -143q-42 -68 -55 -150l-109 -610h-102l184 1024h97l-29 -158q148 183 387 183zM553 -111l10 9h94l5 -9l-142 -305l-10 -8h-55l-4 8z" />
    <glyph glyph-name="Ncaron" unicode="&#x147;" horiz-adv-x="1417" 
d="M1286 1651l-332 -185h-14l-266 185l2 8l43 51h8l229 -141l297 147h9l26 -57zM1151 182l207 1149h102l-246 -1351h-55l-657 1144l-203 -1124h-102l239 1331h58z" />
    <glyph glyph-name="ncaron" unicode="&#x148;" horiz-adv-x="1181" 
d="M1130 1333l-313 -186h-22l-252 186l2 8l51 48h8l213 -144l273 150h8l35 -54zM807 1049q184 0 278 -121q93 -121 58 -303l-113 -625h-102l110 616q27 155 -40 247q-68 93 -216 93q-109 0 -204 -53q-94 -52 -144 -143q-42 -68 -55 -150l-109 -610h-102l184 1024h97
l-29 -158q148 183 387 183z" />
    <glyph glyph-name="napostrophe" unicode="&#x149;" horiz-adv-x="1177" 
d="M403 1153l-10 -6h-57l-4 6l110 313l11 7h98l4 -7zM805 1049q183 0 274 -115q92 -116 58 -301l-115 -633h-100l110 625q29 152 -42 242q-72 89 -218 89q-150 0 -260 -95q-110 -94 -139 -245l-13 -73l-2 2l-96 -545h-102l184 1024h96l-30 -166q149 191 395 191z" />
    <glyph glyph-name="Eng" unicode="&#x14a;" horiz-adv-x="1415" 
d="M823 -412q-106 0 -184 45.5t-119 120.5l2 10l66 46h10q30 -58 91 -93.5t138 -35.5q105 0 185 74q78 75 100 202l12 78l-622 1091l-203 -1126h-102l239 1331h56l657 -1149l209 1149h100l-248 -1374q-32 -177 -137 -273q-107 -96 -250 -96z" />
    <glyph glyph-name="eng" unicode="&#x14b;" horiz-adv-x="1181" 
d="M807 1049q184 0 277 -120q92 -120 59 -304l-103 -572q-45 -254 -268 -360h-8l-29 71l4 11q160 76 197 268l102 573q27 155 -40 247q-68 93 -212 93q-118 0 -216 -58q-99 -59 -148 -155q-30 -59 -43 -133l-109 -610h-102l184 1024h97l-29 -158q148 183 387 183z" />
    <glyph glyph-name="Omacron" unicode="&#x14c;" horiz-adv-x="1558" 
d="M731 1505l17 84h552l-16 -84h-553zM844 -25q-276 0 -456 182q-181 181 -181 457q0 166 65.5 312.5t186.5 251.5q211 178 497 178q276 0 457 -181q180 -181 180 -458q0 -166 -65.5 -312.5t-186.5 -250.5q-211 -179 -497 -179zM848 72q255 0 428 157q215 186 215 484
q0 236 -153 392q-155 155 -386 155q-252 0 -428 -158q-213 -184 -213 -484q0 -236 153 -391t384 -155z" />
    <glyph glyph-name="omacron" unicode="&#x14d;" horiz-adv-x="1243" 
d="M530 1229l17 88h545l-17 -88h-545zM672 -25q-215 0 -355 140q-141 140 -141 356q0 279 209 449q162 129 375 129q216 0 355 -139q140 -140 140 -357q0 -132 -55 -250t-156 -199q-160 -129 -372 -129zM674 68q176 0 309 112q168 141 168 367q0 179 -111 294
q-112 115 -284 115q-177 0 -310 -112q-168 -141 -167 -367q0 -178 112 -293q111 -116 283 -116z" />
    <glyph glyph-name="Ohungarumlaut" unicode="&#x150;" horiz-adv-x="1558" 
d="M782 1456l215 303h107l4 -10l-244 -301h-78zM1042 1456l215 303h107l6 -10l-248 -301h-78zM844 -25q-276 0 -456 182q-181 181 -181 457q0 166 65.5 312.5t186.5 251.5q211 178 497 178q276 0 457 -181q180 -181 180 -458q0 -166 -65.5 -312.5t-186.5 -250.5
q-211 -179 -497 -179zM848 72q255 0 428 157q215 186 215 484q0 236 -153 392q-155 155 -386 155q-252 0 -428 -158q-213 -184 -213 -484q0 -236 153 -391t384 -155z" />
    <glyph glyph-name="ohungarumlaut" unicode="&#x151;" horiz-adv-x="1243" 
d="M573 1153l191 313l10 7h100l7 -7l-234 -313l-10 -8h-59zM813 1153l191 313l10 7h100l6 -7l-233 -313l-8 -8h-60zM672 -25q-215 0 -355 140q-141 140 -141 356q0 279 209 449q162 129 375 129q216 0 355 -139q140 -140 140 -357q0 -132 -55 -250t-156 -199
q-160 -129 -372 -129zM674 68q176 0 309 112q168 141 168 367q0 179 -111 294q-112 115 -284 115q-177 0 -310 -112q-168 -141 -167 -367q0 -178 112 -293q111 -116 283 -116z" />
    <glyph glyph-name="OE" unicode="&#x152;" horiz-adv-x="2361" 
d="M2464 1331l-17 -92h-743l-92 -520h590l-17 -92h-590l-96 -535h742l-17 -92h-846l43 229q-41 -43 -78 -75q-206 -177 -495 -179q-275 0 -457 182t-182 457q0 165 67 312q66 148 187 252q206 178 495 178q210 0 367 -105q159 -107 227 -284l66 364h846zM1280 229
q213 185 213 484q0 238 -152 393q-153 154 -387 154q-252 0 -428 -158q-102 -90 -157.5 -216t-55.5 -268q0 -238 153 -392q151 -154 386 -154q251 -1 428 157z" />
    <glyph glyph-name="oe" unicode="&#x153;" horiz-adv-x="2131" 
d="M1724 1049q217 0 339 -155q122 -156 85 -359q-6 -38 -14 -56h-881q-8 -189 101 -299q108 -112 276 -112q106 0 206 43.5t173 124.5h10l52 -52l-3 -10q-172 -199 -448 -199q-151 0 -270 76q-120 76 -170 211q-52 -89 -136 -158q-162 -129 -372 -129q-215 0 -355 140
q-141 140 -141 356q0 279 209 449q162 129 375 129q163 0 285 -82q122 -83 176 -222q56 105 147 181q153 123 356 123zM983 180q168 141 168 367q0 179 -111 294q-112 115 -284 115q-177 0 -310 -112q-168 -141 -167 -367q0 -178 112 -293q111 -116 283 -116q174 -1 309 112
zM1270 569h780q20 175 -72 282q-92 105 -260 105q-172 0 -293 -106q-122 -107 -155 -281z" />
    <glyph glyph-name="Racute" unicode="&#x154;" horiz-adv-x="1220" 
d="M1065 1659l-373 -207h-8l-31 47v8l359 236h8l47 -76zM1296 1018q0 -172 -97.5 -284.5t-274.5 -143.5l186 -580l-8 -10h-101l-184 580h-20h-391l-105 -580h-104l239 1331h490q179 0 274 -85q96 -86 96 -228zM420 670h416q160 0 256 96t96 242q0 106 -68.5 168.5
t-189.5 62.5h-408z" />
    <glyph glyph-name="racute" unicode="&#x155;" horiz-adv-x="686" 
d="M850 1391l-383 -244h-8l-37 49v8l371 266h6l53 -73zM860 1020l2 -8l-45 -78l-10 -4q-39 26 -105 24q-180 0 -272 -180q-32 -56 -55 -178l-107 -596h-100l184 1024h94l-24 -147q47 68 100 106q84 66 203 66q85 0 135 -29z" />
    <glyph glyph-name="uni0156" unicode="&#x156;" horiz-adv-x="1220" 
d="M1296 1018q0 -172 -97.5 -284.5t-274.5 -143.5l186 -580l-8 -10h-101l-184 580h-20h-391l-105 -580h-104l239 1331h490q179 0 274 -85q96 -86 96 -228zM420 670h416q160 0 256 96t96 242q0 106 -68.5 168.5t-189.5 62.5h-408zM565 -111l10 9h95l4 -9l-142 -305l-10 -8
h-55l-4 8z" />
    <glyph glyph-name="uni0157" unicode="&#x157;" horiz-adv-x="686" 
d="M860 1020l2 -8l-45 -78l-10 -4q-39 26 -105 24q-180 0 -272 -180q-32 -56 -55 -178l-107 -596h-100l184 1024h94l-24 -147q47 68 100 106q84 66 203 66q85 0 135 -29zM145 -111l11 9h94l4 -9l-141 -305l-11 -8h-55l-4 8z" />
    <glyph glyph-name="Rcaron" unicode="&#x158;" horiz-adv-x="1220" 
d="M1165 1651l-331 -185h-15l-266 185l2 8l43 51h8l230 -141l297 147h8l26 -57zM1296 1018q0 -172 -97.5 -284.5t-274.5 -143.5l186 -580l-8 -10h-101l-184 580h-20h-391l-105 -580h-104l239 1331h490q179 0 274 -85q96 -86 96 -228zM420 670h416q160 0 256 96t96 242
q0 106 -68.5 168.5t-189.5 62.5h-408z" />
    <glyph glyph-name="rcaron" unicode="&#x159;" horiz-adv-x="686" 
d="M897 1395h8l35 -54l-2 -8l-313 -186h-23l-252 186l2 8l51 48h9l213 -144zM725 1049q85 0 135 -29l2 -8l-45 -78l-10 -4q-39 26 -105 24q-180 0 -272 -180q-32 -56 -55 -178l-107 -596h-100l184 1024h94l-24 -147q47 68 100 106q84 66 203 66z" />
    <glyph glyph-name="Sacute" unicode="&#x15a;" horiz-adv-x="1064" 
d="M616 1507l359 236h8l47 -76l-2 -8l-373 -207h-8l-31 47v8zM575 -25q-151 0 -278 71q-127 70 -186 185l2 11l71 57h11q52 -105 160 -166q106 -61 225 -61q161 0 261 77q99 77 99 199q0 77 -52 141q-20 23 -65 53q-57 36 -70 43q-23 12 -89 42q-70 31 -89 41q-67 34 -96 52
q-36 22 -79 59q-87 75 -87 206q0 165 123 268q122 103 322 103q127 0 229.5 -50.5t157.5 -140.5l-2 -10l-68 -59h-8q-102 164 -317 164q-146 0 -238 -76q-94 -76 -94 -189q0 -82 57 -133q56 -50 174 -106q3 -1 10 -4.5t19.5 -8.5t25.5 -11q11 -5 24.5 -11.5t20.5 -10
l11 -5.5q14 -9 52 -27q36 -19 55 -32q12 -9 46 -32q20 -14 30.5 -24t27 -30.5t22.5 -27.5q21 -26 29 -49q22 -64 22 -121q0 -180 -130 -283q-131 -104 -339 -104z" />
    <glyph glyph-name="sacute" unicode="&#x15b;" horiz-adv-x="856" 
d="M434 1204l371 266h6l53 -73l-2 -6l-383 -244h-8l-37 49v8zM442 -25q-123 0 -217 52q-93 50 -137 137l2 10l72 49h8q31 -72 106.5 -114.5t172.5 -42.5q122 0 196 59q72 59 72 158q0 55 -44 114q-13 16 -56 42q-12 7 -24 13.5t-21 11.5t-11 6q-3 2 -69 32l-27 12
q-207 92 -207 244q0 132 97 211q97 80 247 80q103 0 186 -46q84 -46 123 -122l-2 -11l-69 -47h-9q-33 63 -99 100.5t-142 37.5q-102 0 -165 -54q-63 -55 -63 -139q0 -54 38 -92t124 -80q84 -39 110 -52q37 -19 89 -56q98 -71 98 -195q0 -145 -104 -231q-105 -87 -275 -87z
" />
    <glyph glyph-name="Scedilla" unicode="&#x15e;" horiz-adv-x="1064" 
d="M758 1356q127 0 229.5 -50.5t157.5 -140.5l-2 -10l-68 -59h-8q-102 164 -317 164q-146 0 -238 -76q-94 -76 -94 -189q0 -82 57 -133q56 -50 174 -106q3 -1 10 -4.5t19.5 -8.5t25.5 -11q11 -5 24.5 -11.5t20.5 -10l11 -5.5q14 -9 52 -27q36 -19 55 -32q12 -9 46 -32
q20 -14 30.5 -24t27 -30.5t22.5 -27.5q21 -26 29 -49q22 -64 22 -121q0 -172 -120 -274q-122 -103 -318 -113l-31 -77q86 2 136.5 -36t50.5 -102q0 -86 -65 -135t-177 -49q-113 0 -186 64l2 10l47 55h10q59 -51 135 -51q63 0 99.5 26.5t36.5 73.5q0 48 -59 65
q-61 17 -132 -1l-29 18l68 144q-131 13 -241 82q-109 67 -160 169l2 11l71 57h11q52 -105 160 -166q106 -61 225 -61q161 0 261 77q99 77 99 199q0 77 -52 141q-20 23 -65 53q-57 36 -70 43q-23 12 -89 42q-70 31 -89 41q-67 34 -96 52q-36 22 -79 59q-87 75 -87 206
q0 165 123 268q122 103 322 103z" />
    <glyph glyph-name="scedilla" unicode="&#x15f;" horiz-adv-x="856" 
d="M602 1049q103 0 186 -46q84 -46 123 -122l-2 -11l-69 -47h-9q-33 63 -99 100.5t-142 37.5q-102 0 -165 -54q-63 -55 -63 -139q0 -54 38 -92t124 -80q84 -39 110 -52q37 -19 89 -56q98 -71 98 -195q0 -134 -92 -220q-91 -85 -246 -96l-30 -79q85 2 135.5 -36t50.5 -102
q0 -86 -65 -135t-177 -49q-113 0 -186 64l2 10l47 55h10q58 -51 136 -51q63 0 99 26.5t36 73.5q0 48 -59 65q-61 17 -132 -1l-28 18l67 141q-218 22 -301 187l2 10l72 49h8q31 -72 106.5 -114.5t172.5 -42.5q122 0 196 59q72 59 72 158q0 55 -44 114q-13 16 -56 42
q-12 7 -24 13.5t-21 11.5t-11 6q-3 2 -69 32l-27 12q-207 92 -207 244q0 132 96 211q97 80 248 80z" />
    <glyph glyph-name="Scaron" unicode="&#x160;" horiz-adv-x="1064" 
d="M1128 1651l-331 -185h-15l-266 185l2 8l43 51h8l230 -141l297 147h8l26 -57zM758 1356q127 0 229.5 -50.5t157.5 -140.5l-2 -10l-68 -59h-8q-102 164 -317 164q-146 0 -238 -76q-94 -76 -94 -189q0 -82 57 -133q56 -50 174 -106q3 -1 10 -4.5t19.5 -8.5t25.5 -11
q11 -5 24.5 -11.5t20.5 -10l11 -5.5q14 -9 52 -27q36 -19 55 -32q12 -9 46 -32q20 -14 30.5 -24t27 -30.5t22.5 -27.5q21 -26 29 -49q22 -64 22 -121q0 -180 -130 -283q-131 -104 -339 -104q-151 0 -278 71q-127 70 -186 185l2 11l71 57h11q52 -105 160 -166
q106 -61 225 -61q161 0 261 77q99 77 99 199q0 77 -52 141q-20 23 -65 53q-57 36 -70 43q-23 12 -89 42q-70 31 -89 41q-67 34 -96 52q-36 22 -79 59q-87 75 -87 206q0 165 123 268q122 103 322 103z" />
    <glyph glyph-name="scaron" unicode="&#x161;" horiz-adv-x="856" 
d="M909 1395h9l34 -54l-2 -8l-313 -186h-23l-252 186l3 8l51 48h8l213 -144zM602 1049q103 0 186 -46q84 -46 123 -122l-2 -11l-69 -47h-9q-33 63 -99 100.5t-142 37.5q-102 0 -165 -54q-63 -55 -63 -139q0 -54 38 -92t124 -80q84 -39 110 -52q37 -19 89 -56q98 -71 98 -195
q0 -145 -104 -231q-105 -87 -275 -87q-123 0 -217 52q-93 50 -137 137l2 10l72 49h8q31 -72 106.5 -114.5t172.5 -42.5q122 0 196 59q72 59 72 158q0 55 -44 114q-13 16 -56 42q-12 7 -24 13.5t-21 11.5t-11 6q-3 2 -69 32l-27 12q-207 92 -207 244q0 132 96 211
q97 80 248 80z" />
    <glyph glyph-name="uni0162" unicode="&#x162;" horiz-adv-x="1052" 
d="M250 1239l18 92h998l-17 -92h-450l-221 -1239h-9l-41 -102q86 2 136.5 -36t50.5 -102q0 -86 -65 -135t-177 -49q-113 0 -186 64l2 10l47 55h10q58 -51 135 -51q63 0 99 26.5t36 73.5q0 48 -60 65q-61 17 -130 -1l-29 18l78 164h-2l221 1239h-444z" />
    <glyph glyph-name="uni0163" unicode="&#x163;" horiz-adv-x="684" 
d="M805 936h-326l-119 -662q-19 -104 18.5 -155.5t131.5 -50.5q84 0 139 49l10 -4l23 -68l-4 -10q-73 -52 -166 -60l-31 -77q86 2 136.5 -36t50.5 -102q0 -86 -65 -135t-177 -49q-113 0 -186 64l2 10l47 55h10q59 -51 135 -51q63 0 99 26.5t36 73.5q0 48 -59 65
q-60 17 -131 -1l-29 18l70 148q-203 39 -160 288l119 664h-174l14 88h176l58 324l94 8l6 -6l-57 -326h323z" />
    <glyph glyph-name="Tcaron" unicode="&#x164;" horiz-adv-x="1052" 
d="M1108 1651l-332 -185h-14l-266 185l2 8l43 51h8l229 -141l297 147h8l27 -57zM250 1239l18 92h998l-17 -92h-450l-221 -1239h-105l221 1239h-444z" />
    <glyph glyph-name="tcaron" unicode="&#x165;" horiz-adv-x="684" 
d="M707 1133l-11 -9h-57l-4 9l108 348l11 8h98l4 -8zM547 1356l6 -6l-57 -326h323l-14 -88h-326l-119 -662q-19 -104 18.5 -155.5t131.5 -50.5q84 0 139 49l10 -4l23 -68l-4 -10q-84 -59 -180 -60q-139 0 -202 77t-36 220l119 664h-174l14 88h176l58 324z" />
    <glyph glyph-name="Tbar" unicode="&#x166;" horiz-adv-x="1052" 
d="M1266 1331l-17 -92h-450l-94 -530h221l-15 -82h-221l-112 -627h-105l113 627h-221l14 82h221l94 530h-444l18 92h998z" />
    <glyph glyph-name="tbar" unicode="&#x167;" horiz-adv-x="684" 
d="M819 1024l-14 -88h-326l-61 -336h270l-14 -82h-271l-43 -244q-19 -104 18.5 -155.5t131.5 -50.5q84 0 139 49l10 -4l23 -68l-4 -10q-84 -59 -180 -60q-139 0 -202 77t-36 220l43 246h-176l14 82h178l60 336h-174l14 88h176l58 324l94 8l6 -6l-57 -326h323z" />
    <glyph glyph-name="Utilde" unicode="&#x168;" horiz-adv-x="1423" 
d="M1108 1499q-54 0 -143 37q-90 37 -148 37q-88 0 -133 -74h-16l-4 6l16 88q50 72 156 72q58 0 151 -37t137 -37q90 0 136 72h16l4 -6l-16 -86q-46 -72 -156 -72zM272 520l146 811h102l-143 -807q-39 -203 64 -327q102 -125 300 -125q193 0 326 123q132 120 170 329
l145 807h103l-146 -811q-45 -247 -206 -396q-163 -149 -400 -149q-245 0 -375 151q-131 150 -86 394z" />
    <glyph glyph-name="utilde" unicode="&#x169;" horiz-adv-x="1157" 
d="M502 1225h-15l-4 6l13 84q56 72 147 71q51 0 150 -35q96 -36 135 -36q88 0 129 69h16l4 -4l-14 -84q-50 -72 -148 -71q-44 0 -137 35q-90 34 -145 34q-88 1 -131 -69zM961 395l112 629h101l-183 -1024h-96l27 147q-141 -172 -365 -172q-181 0 -272 115t-60 301l113 633
h102l-114 -633q-25 -147 42 -235q66 -88 205 -88q229 0 345 198q31 56 43 129z" />
    <glyph glyph-name="Umacron" unicode="&#x16a;" horiz-adv-x="1423" 
d="M680 1505l16 84h553l-16 -84h-553zM272 520l146 811h102l-143 -807q-39 -203 64 -327q102 -125 300 -125q193 0 326 123q132 120 170 329l145 807h103l-146 -811q-45 -247 -206 -396q-163 -149 -400 -149q-245 0 -375 151q-131 150 -86 394z" />
    <glyph glyph-name="umacron" unicode="&#x16b;" horiz-adv-x="1157" 
d="M510 1317h545l-17 -88h-544zM961 395l112 629h101l-183 -1024h-96l27 147q-141 -172 -365 -172q-181 0 -272 115t-60 301l113 633h102l-114 -633q-25 -147 42 -235q66 -88 205 -88q229 0 345 198q31 56 43 129z" />
    <glyph glyph-name="Uring" unicode="&#x16e;" horiz-adv-x="1423" 
d="M961 1438q-67 0 -116 47q-48 47 -48 114q0 83 58 142q59 59 140 59q71 0 118 -46q48 -46 48 -114q0 -81 -59 -142q-58 -60 -141 -60zM967 1513q51 0 84 36q32 37 32 83q0 40 -25.5 67t-66.5 27q-50 0 -83.5 -35t-33.5 -85q0 -40 26 -66.5t67 -26.5zM272 520l146 811h102
l-143 -807q-39 -203 64 -327q102 -125 300 -125q193 0 326 123q132 120 170 329l145 807h103l-146 -811q-45 -247 -206 -396q-163 -149 -400 -149q-245 0 -375 151q-131 150 -86 394z" />
    <glyph glyph-name="uring" unicode="&#x16f;" horiz-adv-x="1157" 
d="M764 1130q-69 0 -118 47q-48 47 -48 115q0 82 60 143q58 60 141 60q71 0 118 -46q48 -46 48 -116q0 -81 -59 -142q-60 -61 -142 -61zM793 1417q-50 0 -81.5 -34t-31.5 -85q0 -38 25 -64t65 -26q50 0 81 36q32 37 32 83q0 38 -25 64t-65 26zM961 395l112 629h101
l-183 -1024h-96l27 147q-141 -172 -365 -172q-181 0 -272 115t-60 301l113 633h102l-114 -633q-25 -147 42 -235q66 -88 205 -88q229 0 345 198q31 56 43 129z" />
    <glyph glyph-name="Uhungarumlaut" unicode="&#x170;" horiz-adv-x="1423" 
d="M731 1456l215 303h107l4 -10l-244 -301h-78zM991 1456l215 303h107l6 -10l-248 -301h-78zM272 520l146 811h102l-143 -807q-39 -203 64 -327q102 -125 300 -125q193 0 326 123q132 120 170 329l145 807h103l-146 -811q-45 -247 -206 -396q-163 -149 -400 -149
q-245 0 -375 151q-131 150 -86 394z" />
    <glyph glyph-name="uhungarumlaut" unicode="&#x171;" horiz-adv-x="1157" 
d="M610 1153l-10 -8h-59l-4 8l190 313l10 7h101l6 -7zM842 1145h-60l-6 8l191 313l10 7h100l6 -7l-233 -313zM961 395l112 629h101l-183 -1024h-96l27 147q-141 -172 -365 -172q-181 0 -272 115t-60 301l113 633h102l-114 -633q-25 -147 42 -235q66 -88 205 -88
q229 0 345 198q31 56 43 129z" />
    <glyph glyph-name="Uogonek" unicode="&#x172;" horiz-adv-x="1423" 
d="M1237 524l145 807h103l-146 -811q-33 -177 -125 -304.5t-231 -188.5l-20 -15q-24 -16 -56 -43q-23 -19 -31 -31q-51 -61 -51 -118q0 -45 30 -70.5t79 -25.5q42 0 104 24l6 -2l19 -51l-4 -10q-71 -37 -150 -37q-77 0 -127 41q-49 40 -49 110q0 90 84 183q-36 -5 -84 -7
q-245 0 -375 151q-131 150 -86 394l146 811h102l-143 -807q-39 -203 64 -327q102 -125 300 -125q193 0 326 123q132 120 170 329z" />
    <glyph glyph-name="uogonek" unicode="&#x173;" horiz-adv-x="1157" 
d="M1040 -283l7 -2l18 -51l-4 -10q-71 -37 -149 -37q-77 0 -127 41t-50 111q0 133 162 247l25 131q-141 -172 -365 -172q-181 0 -272 115t-60 301l113 633h102l-114 -633q-25 -147 42 -235q66 -88 205 -88q229 0 345 198q31 56 43 129l112 629h101l-183 -1024l-24 -16
q-44 -29 -88 -76q-52 -54 -52 -119q0 -45 30 -70.5t79 -25.5q43 -1 104 24z" />
    <glyph glyph-name="Wcircumflex" unicode="&#x174;" horiz-adv-x="1880" 
d="M1221 1618l-295 -148h-6l-29 60v8l334 184h12l266 -184v-8l-45 -53h-6zM1962 1331h104l5 -10l-713 -1321h-55l-162 1118l-561 -1118h-56l-237 1321l8 10h108l185 -1110l559 1110h57l162 -1122z" />
    <glyph glyph-name="wcircumflex" unicode="&#x175;" horiz-adv-x="1495" 
d="M967 1313l-277 -152h-8l-33 56v8l318 188h22l248 -188v-8l-49 -50h-8zM1524 1024h100l4 -10l-534 -1014h-54l-151 836l-436 -836h-56l-182 1014l6 10h96l138 -831l434 831h61l150 -831z" />
    <glyph glyph-name="Ycircumflex" unicode="&#x176;" horiz-adv-x="1239" 
d="M879 1618l-295 -148h-6l-29 60v8l334 184h12l266 -184v-8l-45 -53h-6zM1413 1331l4 -10l-655 -815l-92 -506h-103l92 510l-362 811l8 10h103l315 -729l575 729h115z" />
    <glyph glyph-name="ycircumflex" unicode="&#x177;" horiz-adv-x="1017" 
d="M717 1313l-277 -152h-8l-33 56v8l318 188h22l248 -188v-8l-49 -50h-8zM1051 1024h102l6 -10l-694 -1139q-72 -115 -131 -158q-62 -45 -146 -45q-83 0 -135 41l-2 11l43 65l10 4q41 -35 93 -35q92 0 170 129l96 158l-244 969l8 10h99l211 -854z" />
    <glyph glyph-name="Ydieresis" unicode="&#x178;" horiz-adv-x="1239" 
d="M680 1491q-35 0 -60.5 24.5t-25.5 57.5q0 45 33 78q32 32 75 32q35 0 60.5 -23.5t25.5 -57.5q0 -45 -31.5 -78t-76.5 -33zM1036 1491q-35 0 -61.5 24.5t-26.5 57.5q0 45 33 78q34 32 76 32q37 0 62.5 -23.5t25.5 -57.5q0 -44 -32 -78q-31 -33 -77 -33zM1413 1331l4 -10
l-655 -815l-92 -506h-103l92 510l-362 811l8 10h103l315 -729l575 729h115z" />
    <glyph glyph-name="Zacute" unicode="&#x179;" horiz-adv-x="1089" 
d="M1018 1659l-373 -207h-8l-31 47v8l359 236h8l47 -76zM317 1331h926l-10 -55l-1020 -1186h850l-19 -90h-995l10 55l1018 1186h-776z" />
    <glyph glyph-name="zacute" unicode="&#x17a;" horiz-adv-x="919" 
d="M877 1391l-383 -244h-9l-36 49v8l370 266h6l54 -73zM254 1024h745l-12 -72l-784 -868h680l-15 -84h-811l13 72l782 868h-612z" />
    <glyph glyph-name="Zdotaccent" unicode="&#x17b;" horiz-adv-x="1089" 
d="M788 1489q-35 0 -60.5 24.5t-25.5 59.5q0 45 32 77.5t77 32.5q35 0 60.5 -24.5t25.5 -59.5q0 -45 -32 -77.5t-77 -32.5zM317 1331h926l-10 -55l-1020 -1186h850l-19 -90h-995l10 55l1018 1186h-776z" />
    <glyph glyph-name="zdotaccent" unicode="&#x17c;" horiz-adv-x="919" 
d="M655 1206q-35 0 -60.5 24.5t-25.5 57.5q0 45 31 78t76 33q35 0 60.5 -24.5t25.5 -59.5q0 -45 -32 -77t-75 -32zM254 1024h745l-12 -72l-784 -868h680l-15 -84h-811l13 72l782 868h-612z" />
    <glyph glyph-name="Zcaron" unicode="&#x17d;" horiz-adv-x="1089" 
d="M1118 1651l-332 -185h-14l-266 185l2 8l43 51h8l229 -141l297 147h9l26 -57zM317 1331h926l-10 -55l-1020 -1186h850l-19 -90h-995l10 55l1018 1186h-776z" />
    <glyph glyph-name="zcaron" unicode="&#x17e;" horiz-adv-x="919" 
d="M965 1333l-314 -186h-22l-252 186l2 8l51 48h8l213 -144l273 150h8l35 -54zM254 1024h745l-12 -72l-784 -868h680l-15 -84h-811l13 72l782 868h-612z" />
    <glyph glyph-name="uni01EA" unicode="&#x1ea;" horiz-adv-x="1558" 
d="M956 1356q276 0 457 -181q180 -181 180 -458q0 -166 -65.5 -312.5t-186.5 -250.5q-118 -99 -268 -146q-123 -88 -123 -182q0 -45 30 -70.5t79 -25.5q43 0 104 24l6 -2l19 -51l-4 -10q-71 -37 -150 -37q-77 0 -127 41q-49 40 -49 110q0 88 80 177q-41 -5 -94 -7
q-276 0 -456 182q-181 181 -181 457q0 166 65.5 312.5t186.5 251.5q209 178 497 178zM1276 229q215 186 215 484q0 236 -153 392q-155 155 -386 155q-252 0 -428 -158q-213 -184 -213 -484q0 -236 153 -391q152 -155 384 -155q253 -1 428 157z" />
    <glyph glyph-name="uni01EB" unicode="&#x1eb;" horiz-adv-x="1243" 
d="M760 1049q216 0 355 -139q140 -140 140 -357q0 -132 -55 -250t-156 -199q-89 -71 -190 -102q-160 -102 -160 -207q0 -45 30 -70.5t79 -25.5q44 0 104 25l6 -3l19 -51l-4 -10q-71 -37 -150 -37q-77 0 -127 41q-49 40 -49 111q0 104 105 200h-35q-215 0 -355 140
q-141 140 -141 356q0 279 209 449q162 129 375 129zM983 180q168 141 168 367q0 179 -111 294q-112 115 -284 115q-177 0 -310 -112q-168 -141 -167 -367q0 -178 112 -293q111 -116 283 -116q174 -1 309 112z" />
    <glyph glyph-name="AEacute" unicode="&#x1fc;" horiz-adv-x="1904" 
d="M1843 1659l-373 -207h-8l-30 47v8l358 236h8l47 -76zM2019 1331l-16 -92h-743l-93 -520h590l-16 -92h-592l-96 -535h743l-16 -92h-846l57 319h-614l-279 -319h-112l-4 10l1148 1321h889zM457 412h551l143 796z" />
    <glyph glyph-name="aeacute" unicode="&#x1fd;" horiz-adv-x="1935" 
d="M1348 1391l-383 -244h-9l-36 49v8l370 266h6l54 -73zM1495 1049q217 0 340 -155t84 -359q-6 -38 -14 -56h-881q-8 -189 101 -299q108 -112 276 -112q106 0 206 43.5t173 124.5h8l53 -52l-2 -10q-172 -199 -448 -199q-150 0 -265 73q-116 74 -170 204q-68 -130 -198 -203
q-131 -74 -279 -74q-159 0 -257 80q-97 79 -97 211q0 166 130 268q131 101 339 101q184 0 334 -84q6 33 8 41l8 51q25 140 -41 223q-73 90 -223 90q-193 0 -342 -143h-8l-47 59l2 11q173 166 401 166q297 0 348 -236q43 59 105 113q153 123 356 123zM1040 573h781
q18 161 -64 267q-90 117 -268 116q-175 0 -297 -108q-120 -102 -152 -275zM487 68q143 0 263 84q119 84 145 219l14 80q-146 94 -321 94q-157 0 -258 -74t-101 -192q0 -96 69.5 -153.5t188.5 -57.5z" />
    <glyph glyph-name="Oslashacute" unicode="&#x1fe;" horiz-adv-x="1558" 
d="M1264 1659l-373 -207h-8l-31 47v8l358 236h9l47 -76zM1610 1438l-209 -252q193 -180 192 -469q0 -166 -65.5 -312.5t-186.5 -250.5q-210 -177 -497 -179q-207 0 -363 105l-151 -182h-115l-4 10l192 231q-197 185 -196 475q0 166 65.5 312.5t186.5 251.5q211 178 497 178
q209 0 369 -109l166 201h115zM311 618q0 -245 160 -399l789 950q-134 89 -308 91q-252 0 -428 -158q-213 -184 -213 -484zM1276 229q215 186 215 484q0 236 -156 395l-788 -950q131 -86 301 -86q253 -1 428 157z" />
    <glyph glyph-name="oslashacute" unicode="&#x1ff;" horiz-adv-x="1243" 
d="M1055 1391l-383 -244h-8l-37 49v8l370 266h7l53 -73zM1311 1145l4 -10l-197 -228q137 -142 137 -354q0 -132 -55 -250t-156 -199q-162 -129 -372 -129q-160 0 -287 84l-133 -153h-107l-4 10l174 201q-139 139 -139 354q0 279 209 449q162 129 375 129q164 0 289 -86
l157 182h105zM279 477q0 -170 102 -284l602 696q-102 68 -227 67q-177 0 -310 -112q-167 -143 -167 -367zM1151 547q0 170 -100 282l-602 -696q103 -66 225 -65q176 0 309 112q168 143 168 367z" />
    <glyph glyph-name="uni0218" unicode="&#x218;" horiz-adv-x="1064" 
d="M575 -25q-151 0 -278 71q-127 70 -186 185l2 11l71 57h11q52 -105 160 -166q106 -61 225 -61q161 0 261 77q99 77 99 199q0 77 -52 141q-20 23 -65 53q-57 36 -70 43q-23 12 -89 42q-70 31 -89 41q-67 34 -96 52q-36 22 -79 59q-87 75 -87 206q0 165 123 268
q122 103 322 103q127 0 229.5 -50.5t157.5 -140.5l-2 -10l-68 -59h-8q-102 164 -317 164q-146 0 -238 -76q-94 -76 -94 -189q0 -82 57 -133q56 -50 174 -106q3 -1 10 -4.5t19.5 -8.5t25.5 -11q11 -5 24.5 -11.5t20.5 -10l11 -5.5q14 -9 52 -27q36 -19 55 -32q12 -9 46 -32
q20 -14 30.5 -24t27 -30.5t22.5 -27.5q21 -26 29 -49q22 -64 22 -121q0 -180 -130 -283q-131 -104 -339 -104zM395 -416l103 305l10 9h94l4 -9l-141 -305l-10 -8h-56z" />
    <glyph glyph-name="uni0219" unicode="&#x219;" horiz-adv-x="856" 
d="M442 -25q-123 0 -217 52q-93 50 -137 137l2 10l72 49h8q31 -72 106.5 -114.5t172.5 -42.5q122 0 196 59q72 59 72 158q0 55 -44 114q-13 16 -56 42q-12 7 -24 13.5t-21 11.5t-11 6q-3 2 -69 32l-27 12q-207 92 -207 244q0 132 97 211q97 80 247 80q103 0 186 -46
q84 -46 123 -122l-2 -11l-69 -47h-9q-33 63 -99 100.5t-142 37.5q-102 0 -165 -54q-63 -55 -63 -139q0 -54 38 -92t124 -80q84 -39 110 -52q37 -19 89 -56q98 -71 98 -195q0 -145 -104 -231q-105 -87 -275 -87zM272 -416l103 305l10 9h94l4 -9l-141 -305l-10 -8h-56z" />
    <glyph glyph-name="uni021A" unicode="&#x21a;" horiz-adv-x="1052" 
d="M1249 1239h-450l-221 -1239h-105l221 1239h-444l18 92h998zM348 -416l103 305l10 9h94l4 -9l-141 -305l-10 -8h-56z" />
    <glyph glyph-name="uni021B" unicode="&#x21b;" horiz-adv-x="684" 
d="M805 936h-326l-119 -662q-19 -104 18.5 -155.5t131.5 -50.5q84 0 139 49l10 -4l23 -68l-4 -10q-84 -59 -180 -60q-139 0 -202 77t-36 220l119 664h-174l14 88h176l58 324l94 8l6 -6l-57 -326h323zM403 -111l11 9h94l4 -9l-141 -305l-11 -8h-55l-4 8z" />
    <glyph glyph-name="uni0237" unicode="&#x237;" horiz-adv-x="436" 
d="M168 0l184 1024h101l-183 -1012q-22 -133 -84 -208q-62 -74 -168 -132h-10l-24 72v8q82 43 125.5 99t58.5 149z" />
    <glyph glyph-name="uni02BC" unicode="&#x2bc;" horiz-adv-x="339" 
d="M309 1153l111 311l10 9h98l4 -9l-153 -311l-8 -8h-58z" />
    <glyph glyph-name="circumflex" unicode="&#x2c6;" horiz-adv-x="724" 
d="M616 1413h23l248 -188v-8l-49 -50h-9l-213 146l-276 -152h-8l-33 56v8z" />
    <glyph glyph-name="caron" unicode="&#x2c7;" horiz-adv-x="735" 
d="M866 1395h8l35 -54l-2 -8l-313 -186h-23l-252 186l3 8l51 48h8l213 -144z" />
    <glyph glyph-name="breve" unicode="&#x2d8;" horiz-adv-x="727" 
d="M584 1174q-112 0 -180 71t-64 182h90q0 -76 44 -124t116 -48q71 0 129 47t88 125h88q-33 -114 -116 -184q-84 -69 -195 -69z" />
    <glyph glyph-name="dotaccent" unicode="&#x2d9;" horiz-adv-x="260" 
d="M356 1206q-35 0 -60.5 24.5t-25.5 57.5q0 45 31 78t76 33q35 0 60.5 -24.5t25.5 -59.5q0 -45 -32 -77t-75 -32z" />
    <glyph glyph-name="ring" unicode="&#x2da;" horiz-adv-x="524" 
d="M481 1130q-69 0 -118 47q-48 47 -48 115q0 82 60 143q59 60 141 60q71 0 118 -46q48 -46 48 -116q0 -81 -59 -142q-60 -61 -142 -61zM487 1208q49 0 81 36q32 37 32 83q0 38 -25 64t-65 26q-50 0 -81.5 -34t-31.5 -85q0 -38 25 -64t65 -26z" />
    <glyph glyph-name="ogonek" unicode="&#x2db;" horiz-adv-x="497" 
d="M416 -328l-4 -10q-71 -37 -150 -37q-77 0 -127 41q-49 40 -49 111q0 60 41 122q41 61 78 93q35 29 67 47l70 -31l-27 -16q-49 -36 -85 -75q-52 -55 -52 -120q0 -45 30 -70.5t79 -25.5q44 0 104 25l6 -2z" />
    <glyph glyph-name="tilde" unicode="&#x2dc;" horiz-adv-x="772" 
d="M760 1225q-44 0 -137 35q-92 34 -146 34q-87 0 -131 -69h-14l-4 6l12 84q56 72 147 71q51 0 150 -35q96 -36 135 -36q88 0 129 69h17l4 -4l-15 -84q-50 -71 -147 -71z" />
    <glyph glyph-name="hungarumlaut" unicode="&#x2dd;" horiz-adv-x="722" 
d="M264 1153l191 313l10 7h100l6 -7l-233 -313l-10 -8h-60zM504 1153l190 313l11 7h100l6 -7l-233 -313l-9 -8h-59z" />
    <glyph glyph-name="uni0326" unicode="&#x326;" horiz-adv-x="0" 
d="M-348 -416l102 305l10 9h95l4 -9l-142 -305l-10 -8h-55z" />
    <glyph glyph-name="Wgrave" unicode="&#x1e80;" horiz-adv-x="1880" 
d="M1411 1499l-33 -47h-8l-373 207v8l47 76h7l358 -236zM1962 1331h104l5 -10l-713 -1321h-55l-162 1118l-561 -1118h-56l-237 1321l8 10h108l185 -1110l559 1110h57l162 -1122z" />
    <glyph glyph-name="wgrave" unicode="&#x1e81;" horiz-adv-x="1495" 
d="M1133 1147h-9l-383 244l-2 6l54 73h6l370 -266v-8zM1524 1024h100l4 -10l-534 -1014h-54l-151 836l-436 -836h-56l-182 1014l6 10h96l138 -831l434 831h61l150 -831z" />
    <glyph glyph-name="Wacute" unicode="&#x1e82;" horiz-adv-x="1880" 
d="M1427 1659l-372 -207h-8l-31 47v8l358 236h8l48 -76zM1962 1331h104l5 -10l-713 -1321h-55l-162 1118l-561 -1118h-56l-237 1321l8 10h108l185 -1110l559 1110h57l162 -1122z" />
    <glyph glyph-name="wacute" unicode="&#x1e83;" horiz-adv-x="1495" 
d="M1169 1391l-383 -244h-8l-37 49v8l371 266h6l53 -73zM1524 1024h100l4 -10l-534 -1014h-54l-151 836l-436 -836h-56l-182 1014l6 10h96l138 -831l434 831h61l150 -831z" />
    <glyph glyph-name="Wdieresis" unicode="&#x1e84;" horiz-adv-x="1880" 
d="M1022 1491q-35 0 -60.5 24.5t-25.5 57.5q0 45 33 78q32 32 75 32q35 0 60.5 -23.5t25.5 -57.5q0 -45 -31.5 -78t-76.5 -33zM1378 1491q-35 0 -61.5 24.5t-26.5 57.5q0 45 33 78q34 32 76 32q37 0 62.5 -23.5t25.5 -57.5q0 -44 -32 -78q-31 -33 -77 -33zM1962 1331h104
l5 -10l-713 -1321h-55l-162 1118l-561 -1118h-56l-237 1321l8 10h108l185 -1110l559 1110h57l162 -1122z" />
    <glyph glyph-name="wdieresis" unicode="&#x1e85;" horiz-adv-x="1495" 
d="M791 1206q-36 0 -61 23.5t-25 58.5q0 45 31.5 78t76.5 33q35 0 60.5 -24.5t25.5 -57.5q0 -45 -31.5 -78t-76.5 -33zM1104 1206q-36 0 -61 23.5t-25 58.5q0 44 32 78q32 33 74 33q35 0 60.5 -24.5t25.5 -57.5q0 -46 -31 -78q-31 -33 -75 -33zM1524 1024h100l4 -10
l-534 -1014h-54l-151 836l-436 -836h-56l-182 1014l6 10h96l138 -831l434 831h61l150 -831z" />
    <glyph glyph-name="uni1E9E" unicode="&#x1e9e;" horiz-adv-x="1290" 
d="M1296 1149l-370 -365q160 -8 255 -105q95 -98 95 -249q0 -203 -135 -329t-355 -126q-202 0 -323 97l-2 8l53 67l12 5q97 -80 265 -80q170 0 274 98t104 256q0 119 -80 193q-80 73 -227 73h-86l15 94l370 367q-94 105 -282 107q-177 0 -293 -119q-114 -117 -152 -316
l-147 -825h-105l152 834q43 237 189 380q145 142 366 142q132 0 246 -55q114 -56 161 -152z" />
    <glyph glyph-name="Ygrave" unicode="&#x1ef2;" horiz-adv-x="1239" 
d="M1069 1499l-33 -47h-8l-373 207v8l47 76h7l358 -236zM1413 1331l4 -10l-655 -815l-92 -506h-103l92 510l-362 811l8 10h103l315 -729l575 729h115z" />
    <glyph glyph-name="ygrave" unicode="&#x1ef3;" horiz-adv-x="1017" 
d="M883 1147h-9l-382 244l-3 6l54 73h6l371 -266v-8zM1051 1024h102l6 -10l-694 -1139q-72 -115 -131 -158q-62 -45 -146 -45q-83 0 -135 41l-2 11l43 65l10 4q41 -35 93 -35q92 0 170 129l96 158l-244 969l8 10h99l211 -854z" />
    <glyph glyph-name="uni1EF8" unicode="&#x1ef8;" horiz-adv-x="1239" 
d="M580 1499h-17l-4 6l16 88q49 72 156 72q59 0 152 -37t137 -37q90 0 135 72h16l5 -6l-17 -86q-47 -72 -155 -72q-54 0 -143 37q-90 37 -148 37q-88 0 -133 -74zM1413 1331l4 -10l-655 -815l-92 -506h-103l92 510l-362 811l8 10h103l315 -729l575 729h115z" />
    <glyph glyph-name="uni1EF9" unicode="&#x1ef9;" horiz-adv-x="1017" 
d="M430 1225h-14l-4 6l12 84q56 72 147 71q51 0 150 -35q96 -36 135 -36q88 0 129 69h16l5 -4l-15 -84q-50 -72 -147 -71q-44 0 -137 35q-92 34 -146 34q-88 1 -131 -69zM1051 1024h102l6 -10l-694 -1139q-72 -115 -131 -158q-62 -45 -146 -45q-83 0 -135 41l-2 11l43 65
l10 4q41 -35 93 -35q92 0 170 129l96 158l-244 969l8 10h99l211 -854z" />
    <glyph glyph-name="endash" unicode="&#x2013;" horiz-adv-x="1136" 
d="M240 571l14 86h862l-14 -86h-862z" />
    <glyph glyph-name="emdash" unicode="&#x2014;" horiz-adv-x="1433" 
d="M240 571l14 86h1161l-14 -86h-1161z" />
    <glyph glyph-name="quoteleft" unicode="&#x2018;" horiz-adv-x="405" 
d="M373 961q-37 0 -62.5 26.5t-25.5 65.5q0 60 41 124q38 58 172 201h8l33 -28v-11q-88 -101 -129 -188q29 0 50 -25.5t21 -62.5q0 -42 -31.5 -72t-76.5 -30z" />
    <glyph glyph-name="quoteright" unicode="&#x2019;" horiz-adv-x="403" 
d="M342 973h-10l-31 28v9q90 108 129 188q-29 0 -50.5 25.5t-21.5 62.5q0 43 31 74t78 31q37 0 61.5 -27t24.5 -66q0 -61 -41 -123q-38 -60 -170 -202z" />
    <glyph glyph-name="quotesinglbase" unicode="&#x201a;" horiz-adv-x="407" 
d="M102 -250h-10l-31 29v8q90 108 129 188q-29 0 -50 26t-21 62q0 43 30.5 74t77.5 31q37 0 61.5 -26.5t24.5 -67.5q0 -59 -41 -124q-40 -64 -170 -200z" />
    <glyph glyph-name="quotedblleft" unicode="&#x201c;" horiz-adv-x="679" 
d="M373 965q-39 0 -63.5 25.5t-24.5 66.5q0 60 41 124q39 60 170 201h10l33 -28v-11q-87 -102 -131 -186q30 0 51.5 -26t21.5 -62q0 -43 -31.5 -73.5t-76.5 -30.5zM645 965q-37 0 -61.5 26.5t-24.5 65.5q0 60 41 124q39 60 170 201h10l31 -28v-11q-89 -102 -129 -186
q29 0 50.5 -25.5t21.5 -62.5q0 -43 -31 -73.5t-78 -30.5z" />
    <glyph glyph-name="quotedblright" unicode="&#x201d;" horiz-adv-x="675" 
d="M342 973h-10l-31 28v9q90 108 129 188q-29 0 -50.5 25.5t-21.5 62.5q0 43 31 74t78 31q37 0 61.5 -27t24.5 -66q0 -61 -41 -123q-38 -60 -170 -202zM616 973h-10l-33 28v9q88 103 132 188q-30 0 -52 26t-22 62q0 43 31.5 74t76.5 31q39 0 63.5 -26t24.5 -67
q0 -61 -41 -123q-38 -60 -170 -202z" />
    <glyph glyph-name="quotedblbase" unicode="&#x201e;" horiz-adv-x="681" 
d="M98 -250h-10l-31 29v8q90 108 129 188q-29 0 -50 26t-21 62q0 43 30.5 74t77.5 31q37 0 61.5 -26.5t24.5 -67.5q0 -59 -41 -124q-40 -64 -170 -200zM373 -250h-11l-32 29v8q85 100 131 188q-29 0 -51.5 26t-22.5 62q0 43 32 74t77 31q39 0 63.5 -26.5t24.5 -67.5
q0 -59 -41 -124q-40 -64 -170 -200z" />
    <glyph glyph-name="dagger" unicode="&#x2020;" horiz-adv-x="946" 
d="M688 909h313l-14 -88h-315l-205 -1140h-105l205 1140h-313l16 88h314l80 443h104z" />
    <glyph glyph-name="daggerdbl" unicode="&#x2021;" horiz-adv-x="946" 
d="M1001 909l-14 -88h-315l-109 -610h314l-15 -88h-315l-80 -442h-105l80 442h-313l16 88h314l108 610h-313l16 88h314l80 443h104l-80 -443h313z" />
    <glyph glyph-name="bullet" unicode="&#x2022;" horiz-adv-x="700" 
d="M436 412q-73 0 -119 49t-45 121q2 80 64 139t141 59q72 0 120 -50t44 -122q-1 -80 -63 -138q-61 -58 -142 -58z" />
    <glyph glyph-name="ellipsis" unicode="&#x2026;" horiz-adv-x="1038" 
d="M209 -25q-37 0 -61.5 25t-24.5 61q0 43 32 75t72 32q38 0 62 -24.5t24 -61.5q0 -44 -31 -75q-32 -32 -73 -32zM524 -25q-37 0 -62.5 25t-25.5 61q0 43 33 75q34 32 74 32q38 0 62 -24.5t24 -61.5q0 -43 -32 -75t-73 -32zM836 -25q-37 0 -61.5 25t-24.5 61q0 43 32 75
t74 32q37 0 61.5 -24.5t24.5 -61.5q0 -43 -32 -75q-34 -32 -74 -32z" />
    <glyph glyph-name="perthousand" unicode="&#x2030;" horiz-adv-x="2215" 
d="M498 588q-113 0 -179 85q-67 85 -67 228q0 184 91 320q91 135 239 135q114 0 178 -85q65 -86 65 -229q0 -186 -90 -320t-237 -134zM203 0l-2 10l1237 1321h108l2 -10l-1237 -1321h-108zM504 674q100 0 166 106q65 106 65 256q0 110 -42.5 172t-119.5 62q-99 0 -164 -105
q-66 -108 -67 -258q0 -110 42.5 -171.5t119.5 -61.5zM1180 -25q-113 0 -179 85q-67 85 -67 229q0 185 91 319q91 135 239 135q114 0 178 -85q65 -86 65 -228q0 -184 -90 -319q-90 -136 -237 -136zM1858 -25q-113 0 -179 85q-67 85 -67 229q0 185 91 319q92 135 239 135
q111 0 177 -85q66 -86 66 -228q-1 -183 -92 -319q-90 -136 -235 -136zM1186 61q100 0 165 107q64 106 64 256q0 110 -41.5 171.5t-118.5 61.5q-101 0 -165 -105q-66 -106 -66 -255q0 -110 42.5 -173t119.5 -63zM1864 61q100 0 165 107q64 106 64 256q0 110 -42.5 171.5
t-119.5 61.5q-99 0 -164 -105q-65 -107 -65 -255q0 -112 42 -174t120 -62z" />
    <glyph glyph-name="guilsinglleft" unicode="&#x2039;" horiz-adv-x="569" 
d="M563 967l45 -60v-6l-301 -295l191 -287v-6l-62 -51h-8l-231 340l6 25l352 340h8z" />
    <glyph glyph-name="guilsinglright" unicode="&#x203a;" horiz-adv-x="569" 
d="M354 967h11l229 -340l-6 -25l-350 -340h-9l-49 57v7l303 297l-188 286v6z" />
    <glyph glyph-name="fraction" unicode="&#x2044;" horiz-adv-x="1024" 
d="M-39 0l-2 10l1237 1321h109l2 -10l-1237 -1321h-109z" />
    <glyph glyph-name="Euro" unicode="&#x20ac;" horiz-adv-x="1439" 
d="M1016 1356q150 0 272 -68t199 -190l-2 -8l-74 -56h-8q-61 107 -165 166.5t-232 59.5q-187 0 -336 -118q-151 -119 -215 -304h700l4 -11l-41 -75h-688q-18 -76 -18 -160q0 -23 2 -41h678l4 -10l-43 -76h-629q34 -175 160 -284q124 -109 299 -109q129 0 245.5 59t198.5 166
h10l62 -55l-2 -9q-97 -121 -235 -189q-138 -69 -290 -69q-218 0 -366 136q-149 134 -184 354h-168l-4 10l43 76h118v33q0 77 17 168h-111l-4 10l43 76h94q74 227 256 373q181 145 410 145z" />
    <glyph glyph-name="trademark" unicode="&#x2122;" horiz-adv-x="1423" 
d="M303 1331h496l-15 -71h-204l-107 -596h-90l109 596h-201zM1069 788l320 543h65l-49 -667h-86l35 458l-267 -458h-75l-103 471l-133 -471h-86l193 667h67z" />
    <glyph glyph-name="minus" unicode="&#x2212;" horiz-adv-x="1210" 
d="M256 621l14 90h926l-16 -90h-924z" />
    <glyph glyph-name="approxequal" unicode="&#x2248;" horiz-adv-x="1161" 
d="M942 737q-82 0 -221 36t-219 36q-41 0 -92 -20q-51 -22 -74 -52h-8l-39 68l2 6q86 90 227 90q84 0 228 -36q143 -36 212 -36q106 0 164 72h8l39 -67l-2 -9q-95 -88 -225 -88zM887 430q-81 0 -221 36t-220 36q-41 0 -92 -20q-50 -21 -75 -52h-7l-39 68l3 8q91 88 227 88
q83 0 225 -36q143 -36 215 -36q105 0 164 72h8l37 -68v-6q-90 -90 -225 -90z" />
    <glyph glyph-name="notequal" unicode="&#x2260;" horiz-adv-x="1208" 
d="M1229 874l-17 -86h-333l-187 -243h477l-14 -86h-528l-203 -266h-96l-2 12l194 254h-291l15 86h342l188 243h-485l16 86h535l204 267h97v-11l-197 -256h285z" />
    <glyph glyph-name="uniF8FF" unicode="&#xf8ff;" horiz-adv-x="2758" 
d="M1523 1210q-35 -36 -87 -36q-54 0 -87 36q-34 34 -34 88q0 52 34 86.5t87 34.5t86.5 -34.5t33.5 -86.5q0 -53 -33 -88zM365 670h-238q0 310 10 446l13 182h194q0 -5 10 -184q9 -170 11 -444zM938 965v170l238 73l8 -61h352q2 -28 4 -56.5t3 -40t1 -12.5q8 -107 8 -368
h-233q0 254 4 295h-117l4 -129q0 -2 4 -2q1 -1 19 -3q9 0 27 5l8 4v-148q-2 -8 -21 -18q-35 -15 -106 -17q-160 0 -160 131q0 7 2 103q0 13 0.5 25.5t0.5 21t0.5 15t0.5 9.5v3h-47zM756 670l-19 118q-26 -131 -151 -131q-181 0 -183 230q0 135 64.5 201.5t206.5 66.5
q119 0 178.5 -57t58.5 -172v-256h-155zM1831 670h-232q0 238 11 370q6 67 12 107h156l6 -51q6 -92 6 -101l4 21q46 139 162 139q81 0 115 -47.5t36 -159.5l4 -278h-229q0 31 2 111q2 78 2 81q0 51 -31 51q-35 0 -34 -51q0 -17 5 -82t5 -110zM2142 901q0 254 246 254
q141 0 195 -67q53 -68 53 -187q0 -116 -62.5 -180t-185.5 -64q-121 0 -183.5 64.5t-62.5 179.5zM664 817q49 0 49 62q0 55 -49 55q-43 0 -43 -55q0 -62 43 -62zM2388 817q49 0 49 62q0 55 -49 55q-47 0 -47 -55q0 -62 47 -62zM123 397v170l248 82l8 -59h338q-2 -52 -2 -107
q-2 -74 -2 -110q0 -52 32 -54q31 0 31 54v7q0 7 -0.5 18.5t-1 25t-0.5 30v29.5q-2 42 -2 107h217l6 -82q6 -78 6 -215q0 -147 -73.5 -214t-233.5 -67q-88 0 -149 21q-28 7 -41 22v170q10 -9 37 -20q44 -17 110 -19q81 0 125 37q20 17 23 37q-2 -2 -5.5 -4t-8.5 -5.5t-9 -6.5
q-33 -14 -94 -15q-190 0 -190 152v16h-93l4 -125q28 0 43 7l15 6v-152q-11 -11 -31 -18q-42 -15 -106 -17q-150 0 -150 131q0 13 0.5 34.5t1 43.5t1 42.5t1.5 34.5v13h-55zM1300 12h-260q0 290 11 420l12 158h160l6 -60q8 -46 8 -94q29 170 160 170q74 0 116.5 -60.5
t42.5 -168.5q0 -135 -67.5 -207t-192.5 -72q0 -12 2 -22q0 -2 1 -27.5t1 -36.5zM2011 281v-150q-4 -4 -35 -16q-46 -15 -112 -17q-135 0 -204 65.5t-69 182.5q0 260 252 260q107 0 168.5 -62t61.5 -171q0 -13 -7 -54l-4 -20h-245q1 -16 12 -25q25 -26 78 -24q52 0 80 14
q18 11 24 17zM2143 465q-23 23 -23 54t23 53t53 22t53 -22t23 -53t-23 -54t-53 -23t-53 23zM2153 476q18 -19 42.5 -19t43.5 19q18 18 18 42.5t-18 43.5q-19 18 -43.5 18t-42.5 -18q-19 -19 -19 -43.5t19 -42.5zM2167 481v76h33q16 0 23.5 -6t6.5 -19q0 -18 -16 -24l16 -27
h-18l-14 23h-15v-23h-16zM2183 518h17q9 0 12.5 6t0 12.5t-12.5 6.5h-17v-25zM1804 350h80v4v4q2 6 2 9q0 39 -37 39q-45 0 -45 -56zM1262 281l4 -17q28 5 39 10q40 23 38 64q0 43 -38 43q-46 0 -48 -62q0 -16 5 -38z" />
    <glyph glyph-name="J.aalt" horiz-adv-x="968" 
d="M530 1331h496l-172 -960q-34 -185 -151 -291q-117 -105 -275 -105q-129 0 -221 56t-135 151l2 8l71 54h11q36 -78 108 -125t166 -47q121 0 208 81q86 79 112 220l157 864h-393z" />
    <glyph glyph-name="Q.aalt" horiz-adv-x="1603" 
d="M1264 -307q-135 0 -234 102q-10 10 -46 49q-24 26 -50 52q-17 17 -41 37q-47 42 -88 42q-261 13 -430 194q-168 178 -168 445q0 166 65.5 312.5t186.5 251.5q211 178 497 178q276 0 457 -181q180 -181 180 -458q0 -166 -65.5 -312.5t-186.5 -250.5q-154 -134 -360 -166
q21 -13 96 -88q36 -41 57 -59q19 -18 61 -38q41 -18 85 -18q73 0 123 43l8 -4l25 -68l-4 -8q-70 -55 -168 -55zM848 72q255 0 428 157q215 186 215 484q0 236 -153 392q-155 155 -386 155q-252 0 -428 -158q-213 -184 -213 -484q0 -236 153 -391t384 -155z" />
    <glyph glyph-name="i.aalt" 
d="M438 1206q-35 0 -60.5 24.5t-25.5 57.5q0 45 31 78t76 33q35 0 60.5 -24.5t25.5 -59.5q0 -45 -32 -77t-75 -32zM272 0h-100l184 1024h101z" />
    <glyph glyph-name="a.salt" horiz-adv-x="1267" 
d="M1141 768l45 256h100l-184 -1024h-96l28 164q-157 -187 -397 -189q-202 0 -333 140q-130 139 -130 354q0 241 159 411q159 169 394 169q137 0 250 -74t164 -207zM651 68q196 0 324 140q127 139 127 347q0 174 -102 288q-104 113 -269 113q-196 0 -323 -142
q-129 -142 -129 -343q0 -177 102 -289q102 -114 270 -114z" />
    <glyph glyph-name="aacute.aalt" horiz-adv-x="1267" 
d="M1051 1391l-383 -244h-9l-36 49v8l370 266h6l54 -73zM1141 768l45 256h100l-184 -1024h-96l28 164q-157 -187 -397 -189q-202 0 -333 140q-130 139 -130 354q0 241 159 411q159 169 394 169q137 0 250 -74t164 -207zM651 68q196 0 324 140q127 139 127 347
q0 174 -102 288q-104 113 -269 113q-196 0 -323 -142q-129 -142 -129 -343q0 -177 102 -289q102 -114 270 -114z" />
    <glyph glyph-name="abreve.aalt" horiz-adv-x="1267" 
d="M825 1174q-112 0 -180 71q-67 70 -63 182h90q0 -76 44 -124t116 -48q71 0 129 47t88 125h88q-33 -115 -117 -184t-195 -69zM1141 768l45 256h100l-184 -1024h-96l28 164q-157 -187 -397 -189q-202 0 -333 140q-130 139 -130 354q0 241 159 411q159 169 394 169
q137 0 250 -74t164 -207zM651 68q196 0 324 140q127 139 127 347q0 174 -102 288q-104 113 -269 113q-196 0 -323 -142q-129 -142 -129 -343q0 -177 102 -289q102 -114 270 -114z" />
    <glyph glyph-name="acircumflex.aalt" horiz-adv-x="1267" 
d="M848 1313l-277 -152h-8l-33 56v8l318 188h22l248 -188v-8l-49 -50h-8zM1141 768l45 256h100l-184 -1024h-96l28 164q-157 -187 -397 -189q-202 0 -333 140q-130 139 -130 354q0 241 159 411q159 169 394 169q137 0 250 -74t164 -207zM651 68q196 0 324 140
q127 139 127 347q0 174 -102 288q-104 113 -269 113q-196 0 -323 -142q-129 -142 -129 -343q0 -177 102 -289q102 -114 270 -114z" />
    <glyph glyph-name="adieresis.aalt" horiz-adv-x="1267" 
d="M672 1206q-36 0 -61 23.5t-25 58.5q0 45 31.5 78t76.5 33q35 0 60.5 -24.5t25.5 -57.5q0 -45 -31.5 -78t-76.5 -33zM985 1206q-36 0 -61 23.5t-25 58.5q0 44 32 78q31 33 75 33q35 0 60.5 -24.5t25.5 -57.5q0 -44 -32 -78q-32 -33 -75 -33zM1141 768l45 256h100
l-184 -1024h-96l28 164q-157 -187 -397 -189q-202 0 -333 140q-130 139 -130 354q0 241 159 411q159 169 394 169q137 0 250 -74t164 -207zM651 68q196 0 324 140q127 139 127 347q0 174 -102 288q-104 113 -269 113q-196 0 -323 -142q-129 -142 -129 -343q0 -177 102 -289
q102 -114 270 -114z" />
    <glyph glyph-name="agrave.aalt" horiz-adv-x="1267" 
d="M1014 1147h-8l-383 244l-2 6l53 73h6l371 -266v-8zM1141 768l45 256h100l-184 -1024h-96l28 164q-157 -187 -397 -189q-202 0 -333 140q-130 139 -130 354q0 241 159 411q159 169 394 169q137 0 250 -74t164 -207zM651 68q196 0 324 140q127 139 127 347q0 174 -102 288
q-104 113 -269 113q-196 0 -323 -142q-129 -142 -129 -343q0 -177 102 -289q102 -114 270 -114z" />
    <glyph glyph-name="amacron.aalt" horiz-adv-x="1267" 
d="M569 1317h545l-16 -88h-545zM1141 768l45 256h100l-184 -1024h-96l28 164q-157 -187 -397 -189q-202 0 -333 140q-130 139 -130 354q0 241 159 411q159 169 394 169q137 0 250 -74t164 -207zM651 68q196 0 324 140q127 139 127 347q0 174 -102 288q-104 113 -269 113
q-196 0 -323 -142q-129 -142 -129 -343q0 -177 102 -289q102 -114 270 -114z" />
    <glyph glyph-name="aogonek.aalt" horiz-adv-x="1267" 
d="M1151 -283l6 -2l19 -51l-5 -10q-71 -37 -149 -37q-77 0 -127 41q-49 40 -49 111q0 133 162 247l26 148q-157 -187 -397 -189q-202 0 -333 140q-130 139 -130 354q0 241 159 411q159 169 394 169q137 0 250 -74t164 -207l45 256h100l-184 -1024l-25 -16q-42 -28 -87 -76
q-52 -54 -52 -119q0 -45 29.5 -70.5t79.5 -25.5q43 -1 104 24zM651 68q196 0 324 140q127 139 127 347q0 174 -102 288q-104 113 -269 113q-196 0 -323 -142q-129 -142 -129 -343q0 -177 102 -289q102 -114 270 -114z" />
    <glyph glyph-name="aring.aalt" horiz-adv-x="1267" 
d="M823 1130q-69 0 -118 47q-48 47 -48 115q0 82 60 143q59 60 141 60q71 0 118 -46q48 -46 48 -116q0 -81 -59 -142q-60 -61 -142 -61zM852 1417q-50 0 -81.5 -34t-31.5 -85q0 -38 25 -64t65 -26q49 0 81 36q32 37 32 83q0 38 -25 64t-65 26zM1141 768l45 256h100
l-184 -1024h-96l28 164q-157 -187 -397 -189q-202 0 -333 140q-130 139 -130 354q0 241 159 411q159 169 394 169q137 0 250 -74t164 -207zM651 68q196 0 324 140q127 139 127 347q0 174 -102 288q-104 113 -269 113q-196 0 -323 -142q-129 -142 -129 -343q0 -177 102 -289
q102 -114 270 -114z" />
    <glyph glyph-name="atilde.aalt" horiz-adv-x="1267" 
d="M561 1225h-14l-4 6l12 84q56 72 147 71q51 0 150 -35q96 -36 135 -36q89 0 129 69h17l4 -4l-15 -84q-50 -72 -147 -71q-44 0 -137 35q-92 34 -146 34q-88 1 -131 -69zM1141 768l45 256h100l-184 -1024h-96l28 164q-157 -187 -397 -189q-202 0 -333 140q-130 139 -130 354
q0 241 159 411q159 169 394 169q137 0 250 -74t164 -207zM651 68q196 0 324 140q127 139 127 347q0 174 -102 288q-104 113 -269 113q-196 0 -323 -142q-129 -142 -129 -343q0 -177 102 -289q102 -114 270 -114z" />
    <glyph glyph-name="ae.aalt" horiz-adv-x="2076" 
d="M1681 1049q217 0 340 -155t84 -359q-6 -38 -14 -56h-881q-8 -189 101 -299q108 -112 276 -112q231 0 379 168h10l52 -52l-3 -10q-172 -199 -446 -199q-155 0 -264 76q-111 76 -160 205l-45 -256h-96l28 164q-158 -188 -399 -189q-200 0 -331 140q-130 139 -130 354
q0 241 159 411q159 169 392 169q134 0 247 -71q112 -70 163 -198l45 244h100l-31 -174q156 199 424 199zM659 68q197 0 323 140t126 347q0 173 -101 288q-102 113 -268 113q-196 0 -323 -142q-129 -142 -129 -343q0 -177 102 -289q102 -114 270 -114zM1225 573h782
q19 167 -63 267q-89 117 -269 116q-173 0 -297 -108q-118 -102 -153 -275z" />
    <glyph glyph-name="aeacute.aalt" horiz-adv-x="2076" 
d="M1507 1391l-383 -244h-8l-37 49v8l371 266h6l53 -73zM1681 1049q217 0 340 -155t84 -359q-6 -38 -14 -56h-881q-8 -189 101 -299q108 -112 276 -112q231 0 379 168h10l52 -52l-3 -10q-172 -199 -446 -199q-155 0 -264 76q-111 76 -160 205l-45 -256h-96l28 164
q-158 -188 -399 -189q-200 0 -331 140q-130 139 -130 354q0 241 159 411q159 169 392 169q134 0 247 -71q112 -70 163 -198l45 244h100l-31 -174q156 199 424 199zM659 68q197 0 323 140t126 347q0 173 -101 288q-102 113 -268 113q-196 0 -323 -142q-129 -142 -129 -343
q0 -177 102 -289q102 -114 270 -114zM1225 573h782q19 167 -63 267q-89 117 -269 116q-173 0 -297 -108q-118 -102 -153 -275z" />
    <glyph glyph-name="f_t.dlig" horiz-adv-x="1232" 
d="M1356 936h-324l-119 -653q-39 -215 146 -215q80 0 141 49l8 -2l25 -66l-4 -10q-94 -62 -195 -64q-130 0 -189 80t-32 226l117 655h-434l-168 -936h-101l168 936h-174l15 88h176l6 39q33 177 132 266q98 88 230 88q72 0 127 -31v-10l-43 -65l-10 -4q-46 20 -86 20
q-200 0 -250 -264l-6 -39h434l58 319l94 13l8 -6l-59 -326h323z" />
    <glyph glyph-name="ordfeminine.aalt" horiz-adv-x="917" 
d="M938 772l6 -2l6 -53l-4 -8q-33 -19 -69 -21q-43 0 -66 30t-18 77q-105 -105 -254 -107q-122 0 -195 79q-74 80 -74 198q0 159 111 275q111 114 270 114q151 0 221 -127l19 112h82l-96 -528q-7 -49 30 -49q12 0 31 10zM551 766q119 0 203 85t84 218q0 93 -54 152
q-56 57 -145 57q-117 0 -200 -89t-83 -212q0 -92 53 -151q52 -60 142 -60z" />
    <glyph glyph-name="ampersand.aalt" horiz-adv-x="1187" 
d="M975 729h301l-19 -94h-176q52 -78 54 -182q0 -207 -150 -342q-151 -136 -381 -136q-200 0 -322 105q-122 104 -122 272q0 150 90 263q89 111 235 167q-129 74 -129 226q0 154 111 251q110 97 285 97q227 0 344 -189l-2 -10l-70 -51h-10q-95 156 -271 156q-123 0 -201 -69
q-79 -69 -79 -175q0 -84 64 -135.5t171 -51.5h74v-2l16 2l-18 -94h-78q-184 0 -306 -105q-122 -107 -122 -272q0 -130 96 -209q94 -81 252 -81q179 0 298 106q120 105 120 264q0 111 -72 195z" />
    <glyph glyph-name="glyph370" horiz-adv-x="0" 
d="M-63 1055l108 348l10 8h99l4 -8l-150 -348l-10 -8h-57z" />
    <glyph glyph-name="acute.aalt" horiz-adv-x="573" 
d="M324 1204l358 236h8l47 -76l-2 -8l-373 -207h-8l-30 47v8z" />
    <glyph glyph-name="breve.aalt" horiz-adv-x="727" 
d="M578 1157q-102 0 -170 71q-68 72 -64 183h90q-2 -77 41.5 -123.5t114.5 -46.5q141 0 201 170h90q-33 -113 -118 -183q-86 -71 -185 -71z" />
    <glyph glyph-name="caron.aalt" horiz-adv-x="727" 
d="M879 1413h8l26 -57l-2 -8l-331 -185h-15l-266 185l2 8l43 51h8l230 -141z" />
    <glyph glyph-name="circumflex.aalt" horiz-adv-x="727" 
d="M608 1419h13l266 -184v-8l-45 -53h-6l-232 141l-295 -148h-6l-29 60v8z" />
    <glyph glyph-name="dieresis.aalt" horiz-adv-x="722" 
d="M403 1188q-35 0 -60.5 24.5t-25.5 57.5q0 45 33 78q34 32 76 32q36 0 61 -23.5t25 -58.5q0 -45 -32 -77.5t-77 -32.5zM760 1188q-35 0 -61.5 24.5t-26.5 57.5q0 45 33 78q32 32 75 32q37 0 62.5 -23.5t25.5 -58.5q0 -45 -31.5 -77.5t-76.5 -32.5z" />
    <glyph glyph-name="dotaccent.aalt" horiz-adv-x="348" 
d="M393 1186q-35 0 -60.5 24.5t-25.5 59.5q0 45 32 77.5t77 32.5q35 0 60.5 -24.5t25.5 -59.5q0 -45 -32 -77.5t-77 -32.5z" />
    <glyph glyph-name="grave.aalt" horiz-adv-x="573" 
d="M352 1440h6l359 -236l2 -8l-33 -47h-8l-373 207v8z" />
    <glyph glyph-name="hungarumlaut.aalt" horiz-adv-x="700" 
d="M270 1128l215 304h107l4 -11l-244 -301h-78zM530 1128l215 304h107l6 -11l-248 -301h-78z" />
    <glyph glyph-name="macron.aalt" horiz-adv-x="710" 
d="M295 1202l16 84h553l-16 -84h-553z" />
    <glyph glyph-name="ring.aalt" horiz-adv-x="464" 
d="M451 1124q-68 0 -116 48q-48 46 -48 114q0 83 58 142q59 59 140 59q71 0 118 -46q48 -47 48 -114q0 -81 -59 -142q-58 -61 -141 -61zM457 1200q51 0 84 36q32 37 32 83q0 40 -25.5 67t-66.5 27q-50 0 -83 -35.5t-33 -85.5q0 -40 25.5 -66t66.5 -26z" />
    <glyph glyph-name="tilde.aalt" horiz-adv-x="854" 
d="M811 1196q-54 0 -143 37t-148 37q-88 0 -133 -74h-16l-4 6l16 88q49 72 156 72q58 0 151 -37t137 -37q89 0 136 72h16l4 -6l-16 -86q-47 -72 -156 -72z" />
    <glyph glyph-name="glyph382" horiz-adv-x="1366" 
d="M317 1450h-6l-26 51l2 8l397 236h8l37 -80l-2 -6zM1223 1450h-9l-24 51v8l399 236h8l35 -80l-2 -6zM299 0h-102l239 1331h105zM1149 373l172 958h104l-172 -960q-34 -185 -152 -291q-119 -105 -276 -105q-129 0 -220 56t-134 151l2 8l72 54h8q36 -78 108.5 -125
t167.5 -47q119 0 206 81q87 79 114 220z" />
    <glyph glyph-name="glyph383" horiz-adv-x="1411" 
d="M330 1450h-8l-25 51l2 8l397 236h9l36 -80l-2 -6zM1075 1450h-8l-25 51l2 8l398 236h8l37 -80l-2 -6zM301 0h-104l239 1331h105zM975 1331h495l-172 -960q-34 -185 -151 -291q-117 -105 -275 -105q-131 0 -222 55.5t-134 151.5l2 8l72 54h8q36 -78 108.5 -125t167.5 -47
q121 0 208 81q86 79 112 220l156 864h-392z" />
    <glyph glyph-name="glyph384" horiz-adv-x="884" 
d="M279 1147h-7l-30 49v8l374 269h9l47 -76l-2 -8zM719 1147h-8l-29 49v8l375 269h8l47 -76l-2 -8zM272 0h-100l184 1024h101zM467 -328h-10l-23 72v8q81 45 125 101.5t59 146.5l183 1024h102l-182 -1012q-26 -134 -86 -209q-62 -76 -168 -131z" />
    <glyph glyph-name="glyph385" horiz-adv-x="1241" 
d="M221 -100h-115l-4 10l1280 1540h115l4 -10z" />
    <glyph glyph-name="glyph386" horiz-adv-x="1067" 
d="M180 59h-106l-4 11l1065 1228h104l4 -10z" />
    <glyph glyph-name="glyph387" horiz-adv-x="743" 
d="M868 854l-16 -82l-702 -321l-9 4l15 82l704 323z" />
    <glyph glyph-name="glyph388" horiz-adv-x="647" 
d="M713 717l-541 -258l-8 4l12 76l543 258l8 -4z" />
    <glyph glyph-name="glyph389" horiz-adv-x="1517" 
d="M317 973l15 84h1227l-15 -84h-1227z" />
    <glyph glyph-name="glyph390" horiz-adv-x="696" 
d="M731 621h-547l15 81h546z" />
    </font>
</defs>
</svg>
