<?xml version="1.0" standalone="no"?>
<!DOCTYPE svg PUBLIC "-//W3C//DTD SVG 1.1//EN" "http://www.w3.org/Graphics/SVG/1.1/DTD/svg11.dtd" >
<svg xmlns="http://www.w3.org/2000/svg" xmlns:xlink="http://www.w3.org/1999/xlink" version="1.1">
<metadata>
Created by FontForge 20190801 at Tue Sep 12 22:01:46 2017
 By Jimmy Wärting
Copyright (c) 2017 by Enrique Hernandez Vasquez. All rights reserved.
</metadata>
<defs>
<font id="IsidoraSans-SemiBoldItalic" horiz-adv-x="1363" >
  <font-face 
    font-family="Isidora Sans SemiBold Italic"
    font-weight="600"
    font-style="italic"
    font-stretch="normal"
    units-per-em="2048"
    panose-1="0 0 7 0 0 0 0 0 0 0"
    ascent="1638"
    descent="-410"
    x-height="1024"
    cap-height="1331"
    bbox="-408 -524 2636 1884"
    underline-thickness="0"
    underline-position="0"
    unicode-range="U+0020-FB02"
  />
<missing-glyph horiz-adv-x="854" 
d="M160 1397h540v-1708h-540v1708zM569 1227v55h-282v-55h110v-64h-112v-57h284v57h-112v64h112zM457 942v121h-172v-178h284v57h-112zM342 1004h55v-62h-55v62zM569 782v56h-284v-56h112v-63h-112v-57h172v120h112zM569 565v170h-57v-112h-227v-58h284zM569 334v192h-172
v-94h60v39h55v-80h-170v135h-57v-192h284zM569 39v192h-284v-192h284zM342 176h170v-82h-170v82zM569 -57v57h-284v-57h121l-121 -80v-56h284v56h-174l119 80h55z" />
    <glyph glyph-name="uniFB01" unicode="fi" horiz-adv-x="1196" 
d="M1186 1440q54 0 92 -37q39 -38 39 -88q0 -68 -49 -116q-50 -48 -115 -48q-54 0 -91 37q-38 38 -38 90q0 68 48 115q49 47 114 47zM633 1024h600l-184 -1024h-224l154 850h-377l-153 -850h-224l154 850h-170l31 174h170l6 29q33 180 142.5 279.5t277.5 99.5q92 0 159 -37
l4 -17l-73 -139l-21 -8q-35 20 -82 20q-153 0 -184 -198z" />
    <glyph glyph-name="uniFB02" unicode="fl" horiz-adv-x="1177" 
d="M1059 1399l207 18l16 -12l-252 -1405h-223l213 1178q-52 74 -170 73q-81 0 -137 -55q-58 -55 -74 -143l-6 -29h272l-31 -174h-272l-153 -850h-224l154 850h-170l31 174h170l6 29q32 173 148 276q115 103 282 103q114 0 209 -54z" />
    <glyph glyph-name=".notdef" horiz-adv-x="854" 
d="M160 1397h540v-1708h-540v1708zM569 1227v55h-282v-55h110v-64h-112v-57h284v57h-112v64h112zM457 942v121h-172v-178h284v57h-112zM342 1004h55v-62h-55v62zM569 782v56h-284v-56h112v-63h-112v-57h172v120h112zM569 565v170h-57v-112h-227v-58h284zM569 334v192h-172
v-94h60v39h55v-80h-170v135h-57v-192h284zM569 39v192h-284v-192h284zM342 176h170v-82h-170v82zM569 -57v57h-284v-57h121l-121 -80v-56h284v56h-174l119 80h55z" />
    <glyph glyph-name="glyph1" horiz-adv-x="0" 
 />
    <glyph glyph-name="glyph2" horiz-adv-x="681" 
 />
    <glyph glyph-name="space" unicode=" " horiz-adv-x="468" 
 />
    <glyph glyph-name="exclam" unicode="!" horiz-adv-x="536" 
d="M416 381h-154l-10 16l139 930l15 16h206l11 -16l-193 -930zM279 -25q-59 0 -99 39q-41 39 -41 99q0 71 52 120q52 50 118 50q59 0 100 -39q40 -39 40 -99q0 -71 -51 -120q-52 -50 -119 -50z" />
    <glyph glyph-name="quotedbl" unicode="&#x22;" horiz-adv-x="684" 
d="M406 819h-119l53 512h197zM692 819h-121l56 512h196z" />
    <glyph glyph-name="numbersign" unicode="#" horiz-adv-x="1239" 
d="M416 0h-178l114 365h-223l47 147h225l97 307h-226l47 148h226l114 362h177l-115 -362h262l113 362h176l-115 -362h189l-46 -148h-190l-96 -307h188l-47 -147h-188l-115 -365h-178l117 365h-261zM674 819l-96 -307h258l98 307h-260z" />
    <glyph glyph-name="dollar" unicode="$" horiz-adv-x="987" 
d="M688 1096q-86 0 -138 -43t-52 -115q0 -34 22 -64t52 -47q16 -11 79 -41q5 -3 54 -22q13 -6 25 -11t21 -9t10 -4q10 -4 49 -23q42 -22 50 -29q14 -12 40 -30q13 -10 23 -21t14.5 -18t12.5 -21.5t13 -21.5q24 -42 24 -117q0 -153 -96 -251q-95 -96 -256 -122l-29 -156h-176
l27 156q-228 33 -326 207l2 18l127 115h16q46 -75 123 -121q79 -47 162 -47q96 0 154 49q57 49 57 125q0 44 -32 82q-14 14 -42 30q-24 12 -46 22q-4 2 -60 25q-14 5 -34 13t-26 10q-250 96 -249 291q0 137 93 235q93 97 245 120l28 155h178l-28 -155q189 -31 266 -162
l-4 -19l-121 -114h-18q-77 131 -234 131z" />
    <glyph glyph-name="percent" unicode="%" horiz-adv-x="1699" 
d="M514 586q-127 0 -202 89q-76 88 -76 240q0 187 101 321q101 132 259 132q126 0 203 -89q75 -89 75 -239q0 -189 -101 -322q-101 -132 -259 -132zM229 -6l-6 16l1256 1333h196l8 -16l-1255 -1333h-199zM528 735q73 0 129 83q54 82 54 208q0 193 -129 193q-76 0 -129 -81
q-54 -81 -54 -208q0 -91 33.5 -143t95.5 -52zM1321 -31q-126 0 -203 89q-76 88 -76 241q0 187 102 321q100 132 259 132q126 0 203 -89q75 -90 75 -241q0 -187 -101 -320q-100 -133 -259 -133zM1335 119q73 0 129 83q54 83 54 208q0 91 -33.5 141.5t-95.5 50.5
q-77 0 -129 -82q-54 -82 -54 -209q0 -192 129 -192z" />
    <glyph glyph-name="ampersand" unicode="&#x26;" horiz-adv-x="1323" 
d="M1296 150l13 -9l26 -127l-8 -14q-65 -43 -143 -43q-115 0 -203 82q-146 -84 -322 -84q-221 0 -365 129t-144 326q0 140 76 259q75 119 206 197q-13 28 -20 62q-12 53 -11 94q6 154 117 255q112 101 277 101q223 0 327 -174v-16l-127 -98h-16q-61 115 -182 114
q-86 0 -141 -52q-56 -53 -56 -128q0 -38 21 -84q18 -42 37 -72q4 -6 23 -37t36 -57l303 -471q59 85 59 189q0 123 -71 206l4 17l143 94h19q98 -122 98 -295q0 -204 -146 -362q35 -29 72 -29q54 0 98 27zM360 432q0 -125 92 -212t236 -87q96 0 180 41l-305 469l-49 78
q-154 -112 -154 -289z" />
    <glyph glyph-name="quotesingle" unicode="'" horiz-adv-x="395" 
d="M406 819h-119l53 512h197z" />
    <glyph glyph-name="parenleft" unicode="(" horiz-adv-x="626" 
d="M395 432q0 -180 45 -360q45 -181 123 -310h-229q-75 132 -119 315q-43 179 -43 359q0 561 469 1075h236q-221 -230 -351 -508q-131 -282 -131 -571z" />
    <glyph glyph-name="parenright" unicode=")" horiz-adv-x="626" 
d="M221 -238h-250q223 231 357 507q133 275 133 567q0 182 -45 364t-123 311h231q75 -136 116 -314q42 -181 42 -361q0 -566 -461 -1074z" />
    <glyph glyph-name="asterisk" unicode="*" horiz-adv-x="880" 
d="M625 633h-146l43 244l-225 -121l-49 125l229 123l-186 122l96 125l180 -123l45 244h146l-43 -244l227 123l49 -125l-229 -122l186 -123l-96 -125l-182 123z" />
    <glyph glyph-name="plus" unicode="+" horiz-adv-x="1095" 
d="M770 702h393l-35 -178h-389l-69 -389h-195l70 389h-389l30 178h392l69 385h193z" />
    <glyph glyph-name="comma" unicode="," horiz-adv-x="497" 
d="M131 -301h-18l-54 53v17q18 18 37 39q36 39 40 45q13 16 33 38q41 48 58 84q-48 4 -80 43.5t-32 96.5q0 68 50 118t122 50q61 0 101 -42t40 -106q0 -95 -62 -181q-64 -87 -235 -255z" />
    <glyph glyph-name="hyphen" unicode="-" horiz-adv-x="956" 
d="M215 526l33 176h715l-31 -176h-717z" />
    <glyph glyph-name="period" unicode="." horiz-adv-x="479" 
d="M242 -25q-58 0 -99 39t-41 99q0 71 52 120q52 50 120 50q59 0 98.5 -39t39.5 -99q0 -71 -51 -120q-52 -50 -119 -50z" />
    <glyph glyph-name="slash" unicode="/" horiz-adv-x="1089" 
d="M23 -92l1079 1534h201l6 -17l-1080 -1534h-200z" />
    <glyph glyph-name="zero" unicode="0" horiz-adv-x="1267" 
d="M651 -31q-209 0 -332 149q-124 148 -124 398q0 352 188 603t479 251q209 0 333 -148t124 -399q0 -352 -188 -603q-189 -251 -480 -251zM492 266q69 -104 190 -104t216 95q96 96 145 240q49 143 49 304q0 171 -70 274t-190 103q-121 0 -216 -95t-145 -240
q-49 -144 -49 -304q0 -170 70 -273z" />
    <glyph glyph-name="one" unicode="1" horiz-adv-x="696" 
d="M244 1153l32 193h480l-244 -1352h-225l211 1159h-254z" />
    <glyph glyph-name="two" unicode="2" horiz-adv-x="1079" 
d="M813 526q-58 -54 -266 -226q-111 -92 -146 -120h635l-35 -186h-942l29 158q204 171 286 239q172 142 257 217q153 137 214 221q62 86 62 175q0 82 -53 130t-145 48q-190 0 -355 -197h-16l-96 119l4 16q223 250 499 250q173 0 279 -91t106 -237q0 -129 -75 -246
q-78 -121 -242 -270z" />
    <glyph glyph-name="three" unicode="3" horiz-adv-x="1087" 
d="M891 715q178 -96 178 -303q0 -109 -52 -202t-147 -153q-133 -88 -331 -88q-149 0 -270 59q-125 59 -189 160l4 17l133 117h19q51 -78 134 -122t181 -44q126 0 208 71q81 71 81 179q0 105 -69 165t-187 60h-109l31 160h98q122 0 201 66q80 65 80 163q0 74 -54.5 119
t-142.5 45q-170 0 -297 -121h-18l-90 119l2 18q200 170 436 170q175 0 284 -86q107 -86 107 -231q0 -105 -59 -196q-60 -91 -162 -142z" />
    <glyph glyph-name="four" unicode="4" horiz-adv-x="1146" 
d="M977 481h186l-33 -182h-186l-55 -305h-225l53 305h-629l29 156l858 891h158zM850 967l-461 -486h373z" />
    <glyph glyph-name="five" unicode="5" horiz-adv-x="1126" 
d="M1178 1346l-37 -193h-574l-90 -305q103 53 223 53q202 0 321 -112q120 -113 120 -302q0 -254 -195 -401q-150 -117 -356 -117q-145 0 -271 61q-129 60 -194 158v15l127 114l18 -2q50 -71 137 -115q86 -44 175 -44q134 0 231 86q98 92 98 233q0 111 -70 177
q-71 65 -192 65q-85 0 -162 -37q-78 -37 -125 -90h-16l-131 67l213 689h750z" />
    <glyph glyph-name="six" unicode="6" horiz-adv-x="1134" 
d="M735 897q196 0 317 -112q122 -113 122 -296q0 -225 -155 -372q-154 -148 -390 -148q-209 0 -340 116t-131 314q0 329 331 688q141 148 353 322h16l111 -119v-16q-139 -98 -287 -236q-117 -118 -188 -215q115 74 241 74zM639 154q131 0 220 89t89 220q0 111 -70 181
q-70 69 -184 69q-130 0 -222 -90q-91 -91 -91 -222q0 -109 71 -178q70 -69 187 -69z" />
    <glyph glyph-name="seven" unicode="7" horiz-adv-x="966" 
d="M250 1346h928l-23 -117l-741 -1235h-234l-4 12l690 1145h-649z" />
    <glyph glyph-name="eight" unicode="8" horiz-adv-x="1185" 
d="M999 748q184 -102 181 -306q-1 -217 -163 -345q-161 -128 -403 -128q-207 0 -334 106q-128 105 -128 273q2 137 77 244.5t207 165.5q-102 84 -102 221q1 167 136 280q134 111 327 111q168 0 274 -88q104 -88 103 -227q-1 -201 -175 -307zM776 1194q-95 0 -162 -59
t-65 -146q0 -74 50 -120t132 -46q96 0 163 61q67 60 64 150q0 70 -51 115t-131 45zM637 147q140 1 230 82q89 80 89 205q0 100 -71 165q-73 65 -189 65q-134 -1 -228 -85q-93 -82 -91 -206q0 -98 73 -162q71 -64 187 -64z" />
    <glyph glyph-name="nine" unicode="9" horiz-adv-x="1132" 
d="M762 1368q206 0 333 -116q126 -117 126 -312q0 -298 -322 -680q-123 -147 -317 -332h-17l-119 123l3 17q141 127 258 251q81 87 145 175q-101 -53 -197 -54q-197 0 -321 115q-125 116 -125 293q0 224 158 373q157 147 395 147zM686 625q129 0 221 90t92 221
q0 109 -70 179q-71 69 -186 69q-131 0 -221 -90t-90 -222q0 -109 71 -178t183 -69z" />
    <glyph glyph-name="colon" unicode=":" horiz-adv-x="534" 
d="M414 741q-58 0 -99 39t-41 99q0 71 52 120q52 50 118 50q60 0 100 -39t40 -99q0 -71 -51 -120q-52 -50 -119 -50zM276 -25q-60 0 -99.5 39t-39.5 99q0 71 52 120q52 50 120 50q59 0 98 -39t39 -99q0 -71 -51 -120q-52 -50 -119 -50z" />
    <glyph glyph-name="semicolon" unicode=";" horiz-adv-x="559" 
d="M430 741q-60 0 -99.5 39t-39.5 99q0 71 51 120q52 50 121 50q57 0 97 -39t40 -99q0 -71 -51 -120q-52 -50 -119 -50zM160 -301h-17l-55 53v17q133 140 168 206q-46 4 -78.5 43.5t-32.5 96.5q0 69 51 119q49 49 121 49q59 0 100 -42q40 -41 40 -106q0 -97 -62 -183
q-63 -85 -235 -253z" />
    <glyph glyph-name="less" unicode="&#x3c;" horiz-adv-x="1011" 
d="M1096 1229l14 -12l-35 -203l-653 -363l522 -356l-35 -189l-16 -12l-731 494l24 141z" />
    <glyph glyph-name="equal" unicode="=" horiz-adv-x="1216" 
d="M260 733l31 168h960l-30 -168h-961zM186 328l31 168h963l-33 -168h-961z" />
    <glyph glyph-name="greater" unicode="&#x3e;" horiz-adv-x="1011" 
d="M340 1217l16 12l729 -500l-24 -141l-909 -494l-13 12l35 203l651 359l-518 360z" />
    <glyph glyph-name="question" unicode="?" horiz-adv-x="1007" 
d="M659 362h-202l10 50q12 83 52 141q41 59 118 123q11 9 76 61q63 51 89 77q24 24 55 78q30 52 30 105q0 76 -56 122t-149 46q-80 0 -160 -53t-116 -133l-19 -8l-147 51l-2 16q57 136 196 227t297 91q171 0 275 -86q102 -86 102 -226q0 -94 -55 -194q-21 -38 -63 -81
q-45 -47 -66 -65q-10 -9 -75 -62l-65 -52q-61 -51 -82 -87q-23 -36 -34 -91zM500 -37q-57 0 -95 38t-38 93q0 66 49 115t114 49q56 0 96 -38q38 -38 38 -93q0 -68 -49 -116t-115 -48z" />
    <glyph glyph-name="at" unicode="@" horiz-adv-x="1740" 
d="M848 -242q-286 0 -486 187q-202 189 -202 473q0 380 258 639q258 260 641 260q300 0 503 -176q201 -175 201 -439q0 -248 -123 -394q-125 -146 -303 -146q-168 0 -202 123q-129 -123 -293 -123q-141 0 -233 92q-93 92 -93 229q0 188 126 320q126 131 310 131
q167 0 252 -115l21 111h153l-88 -488q-10 -62 10 -100.5t68 -38.5q88 0 158 108q69 107 69 279q0 213 -158 345q-159 132 -393 132q-305 0 -509 -213q-205 -212 -205 -528q0 -229 154 -373q152 -145 388 -145q173 0 355 98h18l51 -102l-4 -19q-196 -127 -444 -127zM891 301
q109 0 184 81q74 82 74 214q0 90 -54 144q-56 53 -137 53q-115 0 -187 -88q-73 -88 -73 -209q0 -84 54 -139q53 -56 139 -56z" />
    <glyph glyph-name="A" unicode="A" 
d="M862 1331h123l363 -1313l-13 -18h-219l-65 270h-631l-166 -270h-225l-9 18zM870 1004l-344 -562h482z" />
    <glyph glyph-name="B" unicode="B" horiz-adv-x="1255" 
d="M1059 696q88 -40 137 -112t49 -168q0 -190 -140 -303t-380 -113h-555l240 1331h512q173 0 270 -83q96 -83 96 -220q0 -113 -61.5 -198t-167.5 -134zM1063 993q0 76 -52.5 118t-146.5 42h-262l-70 -391h261q123 0 197 63q73 61 73 168zM426 178h309q135 0 212 68t77 178
q0 82 -59 131t-158 49h-303z" />
    <glyph glyph-name="C" unicode="C" 
d="M836 -25q-282 0 -463 181q-183 180 -183 458q0 179 80 339q79 158 226 261q199 141 452 142q171 0 316 -74q142 -73 219 -197l-2 -16l-162 -115h-19q-52 87 -152 142q-100 53 -218 53q-187 0 -324 -115q-188 -155 -188 -403q0 -197 123 -323t311 -126q229 0 397 185h17
l125 -117l-2 -17q-241 -258 -553 -258z" />
    <glyph glyph-name="D" unicode="D" horiz-adv-x="1470" 
d="M410 1331h546q264 0 414 -151q150 -152 150 -402q0 -352 -215 -565t-576 -213h-559zM432 193h313q251 0 396 153q145 151 145 410q0 176 -98 280q-97 103 -275 103h-313z" />
    <glyph glyph-name="E" unicode="E" horiz-adv-x="1167" 
d="M1317 1331l-35 -192h-680l-70 -377h539l-35 -184h-536l-70 -385h684l-35 -193h-909l240 1331h907z" />
    <glyph glyph-name="F" unicode="F" horiz-adv-x="1064" 
d="M1264 1331l-37 -192h-625l-72 -385h496l-33 -187h-495l-101 -567h-227l240 1331h854z" />
    <glyph glyph-name="G" unicode="G" horiz-adv-x="1490" 
d="M831 -25q-280 0 -462 181q-183 180 -183 458q0 180 81 339q81 158 227 261q200 140 454 142q172 0 315 -77q142 -76 222 -202l-4 -16l-158 -115h-16q-57 90 -156 147q-101 56 -219 56q-191 0 -328 -115q-188 -155 -188 -403q0 -198 124 -323q124 -126 314 -126
q170 5 285 94q131 100 168 285h-439l35 178h633l16 -14q0 -35 -6 -78q-51 -343 -264 -518q-182 -154 -451 -154z" />
    <glyph glyph-name="H" unicode="H" horiz-adv-x="1449" 
d="M1188 766l104 565h228l-240 -1331h-227l102 573h-655l-103 -573h-227l240 1331h227l-105 -565h656z" />
    <glyph glyph-name="I" unicode="I" horiz-adv-x="567" 
d="M170 0l240 1331h227l-240 -1331h-227z" />
    <glyph glyph-name="J" unicode="J" horiz-adv-x="1001" 
d="M696 426l162 905h227l-155 -870q-90 -485 -492 -486q-142 0 -242 63q-102 62 -149 152l4 17l144 119h18q26 -59 86 -101q61 -45 147 -45q96 0 163 64.5t87 181.5z" />
    <glyph glyph-name="K" unicode="K" horiz-adv-x="1251" 
d="M1460 1331l8 -18l-641 -576l414 -719l-14 -18h-236l-344 604l-168 -151l-82 -453h-227l240 1331h227l-109 -608l674 608h258z" />
    <glyph glyph-name="L" unicode="L" horiz-adv-x="1021" 
d="M430 193h600l-33 -193h-827l240 1331h227z" />
    <glyph glyph-name="M" unicode="M" horiz-adv-x="1667" 
d="M891 328l627 1003h131l-80 -1331h-211l63 840l-526 -840h-117l-217 838l-242 -838h-219l400 1331h123z" />
    <glyph glyph-name="N" unicode="N" horiz-adv-x="1435" 
d="M1116 401l168 930h221l-243 -1345h-127l-578 929l-164 -915h-223l240 1331h129z" />
    <glyph glyph-name="O" unicode="O" horiz-adv-x="1556" 
d="M846 -25q-284 0 -469 181q-187 180 -187 460q0 171 70 319t199 253q209 168 489 168q282 0 470 -180q186 -182 186 -461q0 -171 -71 -321t-200 -253q-211 -166 -487 -166zM860 182q186 0 322 111q196 156 194 407q0 196 -125 323q-125 126 -317 126q-186 0 -322 -111
q-196 -156 -194 -407q0 -196 125 -323q125 -126 317 -126z" />
    <glyph glyph-name="P" unicode="P" horiz-adv-x="1216" 
d="M410 1331h508q201 0 310 -94t109 -256q0 -227 -145 -356q-146 -129 -412 -129h-295l-88 -496h-227zM518 678h309q127 0 200 73.5t73 202.5q0 87 -52 136t-145 49h-301z" />
    <glyph glyph-name="Q" unicode="Q" horiz-adv-x="1597" 
d="M1604 715q0 -171 -71 -321t-200 -253q-84 -66 -174 -102l205 -297l-12 -18h-252l-182 253q-34 -2 -72 -2q-284 0 -469 181q-187 180 -187 460q0 171 70 319t199 253q209 168 489 168q282 0 470 -180q186 -180 186 -461zM1182 293q196 156 194 407q0 196 -125 323
q-125 126 -317 126q-186 0 -322 -111q-196 -156 -194 -407q0 -196 125 -323q125 -126 317 -126q187 0 322 111z" />
    <glyph glyph-name="R" unicode="R" horiz-adv-x="1271" 
d="M1352 993q0 -167 -90 -280t-254 -154l180 -541l-14 -18h-222l-176 535h-284l-95 -535h-227l240 1331h528q201 0 307.5 -89t106.5 -249zM522 702h328q121 0 193 72q71 73 71 184q0 83 -52.5 132t-143.5 49h-316z" />
    <glyph glyph-name="S" unicode="S" horiz-adv-x="1130" 
d="M604 -25q-162 0 -300 69q-137 68 -202 185l2 19l138 121h16q50 -93 153 -145q103 -54 207 -54q128 0 202 55q75 54 75 146q0 80 -68 124q-39 25 -63 39q-22 11 -93 40q-67 25 -91 36q-112 46 -191 111q-98 81 -98 225q0 182 138 296t362 114q145 0 265 -56
q118 -57 171 -147l-4 -18l-133 -121h-17q-44 70 -123.5 111.5t-177.5 41.5q-111 0 -181 -52q-71 -53 -71 -138q0 -68 63 -111q34 -25 58 -36q17 -9 76 -35q15 -5 35 -15q44 -18 109 -46q32 -15 96 -53q60 -37 89 -69q78 -90 78 -209q0 -205 -143 -316q-143 -112 -377 -112z
" />
    <glyph glyph-name="T" unicode="T" horiz-adv-x="1120" 
d="M1300 1139h-423l-203 -1139h-228l205 1139h-422l37 192h1069z" />
    <glyph glyph-name="U" unicode="U" horiz-adv-x="1447" 
d="M252 551l139 780h225l-139 -782q-31 -166 53 -267q84 -102 244 -102q156 0 263 101q105 99 137 268l139 782h223l-139 -776q-50 -265 -219 -422q-170 -158 -424 -158q-263 0 -406 159q-142 159 -96 417z" />
    <glyph glyph-name="V" unicode="V" horiz-adv-x="1316" 
d="M1286 1331h240l6 -18l-811 -1313h-123l-338 1313l14 18h222l217 -958z" />
    <glyph glyph-name="W" unicode="W" horiz-adv-x="1910" 
d="M1890 1331h226l6 -18l-715 -1313h-125l-160 932l-493 -932h-123l-242 1313l15 18h229l139 -923l481 923h123l152 -946z" />
    <glyph glyph-name="X" unicode="X" horiz-adv-x="1243" 
d="M1436 1331l8 -18l-570 -639l347 -656l-15 -18h-237l-254 510l-443 -510h-249l-9 18l596 662l-323 633l12 18h238l235 -481l414 481h250z" />
    <glyph glyph-name="Y" unicode="Y" horiz-adv-x="1302" 
d="M1491 1331l6 -18l-643 -819l-90 -494h-227l90 500l-357 813l15 18h225l262 -631l481 631h238z" />
    <glyph glyph-name="Z" unicode="Z" horiz-adv-x="1167" 
d="M315 1331h1002l-25 -133l-899 -1012h758l-37 -186h-1057l25 133l899 1012h-700z" />
    <glyph glyph-name="bracketleft" unicode="[" horiz-adv-x="641" 
d="M844 1511l-29 -168h-197l-256 -1413h197l-29 -168h-407l313 1749h408z" />
    <glyph glyph-name="backslash" unicode="\" horiz-adv-x="1087" 
d="M305 1442h201l528 -1534l-12 -17h-201l-528 1534z" />
    <glyph glyph-name="bracketright" unicode="]" horiz-adv-x="638" 
d="M506 1343h-195l29 168h408l-314 -1749h-407l28 168h197z" />
    <glyph glyph-name="asciicircum" unicode="^" horiz-adv-x="1245" 
d="M803 1331h133l352 -762l-10 -12h-195l-256 551l-462 -551h-197l-6 12z" />
    <glyph glyph-name="underscore" unicode="_" horiz-adv-x="1126" 
d="M51 -252l31 174h936l-31 -174h-936z" />
    <glyph glyph-name="grave" unicode="`" horiz-adv-x="641" 
d="M395 1542h13l407 -274v-13l-67 -100h-13l-432 225l-4 13z" />
    <glyph glyph-name="a" unicode="a" horiz-adv-x="1105" 
d="M1012 936q111 -113 71 -330l-108 -606h-191l21 111q-145 -134 -336 -136q-162 0 -261 81t-99 212q0 174 132 279q133 104 351 104q137 0 278 -65l11 51q17 102 -33 162q-62 74 -186 73q-161 0 -306 -106h-18l-66 123l4 16q92 69 203 106q114 38 217 38q212 0 316 -113z
M518 139q111 0 205 67q95 66 111 165l10 55q-124 70 -246 70q-120 0 -194 -53q-74 -54 -74 -146q0 -73 49.5 -115.5t138.5 -42.5z" />
    <glyph glyph-name="b" unicode="b" horiz-adv-x="1277" 
d="M844 1049q210 0 334 -142q125 -144 118 -368q-7 -241 -163 -403q-156 -161 -385 -161q-123 0 -219.5 54.5t-151.5 154.5l-33 -184h-201l250 1378l207 19l14 -13l-79 -444q145 109 309 109zM725 168q152 0 251 109q99 108 99 268q0 139 -77 225q-78 86 -210 86
q-154 0 -251 -108q-97 -109 -97 -269q0 -135 78 -223t207 -88z" />
    <glyph glyph-name="c" unicode="c" horiz-adv-x="1083" 
d="M657 -25q-215 0 -355 140t-140 358q0 139 59.5 259t167.5 198q157 119 367 119q259 0 407 -193l-4 -16l-137 -107h-18q-100 123 -252 123q-149 0 -246 -86q-121 -109 -121 -283q0 -143 82 -231t219 -88q143 0 262 113h15l108 -113l-4 -18q-174 -175 -410 -175z" />
    <glyph glyph-name="d" unicode="d" horiz-adv-x="1277" 
d="M1159 1378l207 19l16 -13l-247 -1384h-195l21 121q-149 -144 -340 -146q-197 0 -327 141q-130 139 -130 349q0 245 159 415q157 169 394 169q233 0 352 -177zM674 168q152 0 249 109q97 107 97 268q0 135 -79 223t-208 88q-151 0 -249 -108q-97 -109 -97 -269
q0 -138 79 -224q80 -87 208 -87z" />
    <glyph glyph-name="e" unicode="e" horiz-adv-x="1169" 
d="M760 1049q230 0 355 -158t81 -367q-6 -24 -18 -67h-799q-12 -144 73 -223q86 -80 216 -80q186 0 321 135h19l90 -103l-2 -16q-186 -195 -459 -195q-229 0 -365 154t-108 383q12 132 78 244t174 184q151 109 344 109zM406 610h587q4 103 -47 174q-62 90 -205 90
q-130 0 -221 -77q-79 -67 -114 -187z" />
    <glyph glyph-name="f" unicode="f" horiz-adv-x="765" 
d="M1047 1378l6 -16l-78 -137l-19 -8q-52 35 -122 34q-80 0 -127 -45q-48 -48 -68 -153l-6 -29h297l-29 -174h-299l-153 -850h-224l154 850h-170l31 174h170l6 29q39 217 184 311q104 72 246 68q124 -2 201 -54z" />
    <glyph glyph-name="g" unicode="g" horiz-adv-x="1228" 
d="M1051 881l26 143h193l-156 -866q-43 -244 -199 -367q-157 -123 -378 -123q-148 0 -274 59q-124 60 -181 156l2 17l121 112h16q46 -77 134.5 -122.5t197.5 -45.5q133 0 227 72q93 71 119 213l10 57q-142 -104 -305 -104q-184 0 -306 123q-122 124 -122 313q0 128 55 238.5
t154 185.5q134 105 318 107q181 0 309 -123q20 -20 39 -45zM881 338q113 97 112 256q0 120 -72 200q-73 78 -198 78q-135 0 -229 -94q-93 -96 -95 -243q0 -122 73 -199q74 -78 194 -78q124 0 215 80z" />
    <glyph glyph-name="h" unicode="h" horiz-adv-x="1210" 
d="M854 1049q183 0 278 -122q93 -121 58 -313l-111 -614h-225l107 598q25 130 -35 201q-51 57 -152 57q-156 0 -242 -113q-39 -53 -59 -145l-108 -598h-222l250 1378l205 19l16 -13l-84 -458q128 123 324 123z" />
    <glyph glyph-name="i" unicode="i" horiz-adv-x="516" 
d="M467 1198q-56 0 -97 39q-40 39 -40 94q0 72 51 123t123 51q56 0 96 -40q41 -41 41 -95q0 -73 -52 -122q-53 -50 -122 -50zM369 0h-222l185 1024h221z" />
    <glyph glyph-name="j" unicode="j" horiz-adv-x="514" 
d="M485 1198q-57 0 -97 39t-40 94q0 72 52 123q51 51 122 51q56 0 96 -40q41 -41 41 -95q0 -73 -52 -122q-53 -50 -122 -50zM168 106l164 918h223l-164 -920q-35 -186 -108 -279q-73 -92 -238 -165h-18l-54 162l2 16q91 45 132 99q40 55 61 169z" />
    <glyph glyph-name="k" unicode="k" horiz-adv-x="1071" 
d="M1225 1024l8 -16l-463 -420l293 -572l-12 -16h-230l-231 471l-166 -152l-57 -319h-224l250 1378l207 19l16 -13l-149 -825l512 465h246z" />
    <glyph glyph-name="l" unicode="l" horiz-adv-x="516" 
d="M369 0h-222l248 1378l207 19l16 -13z" />
    <glyph glyph-name="m" unicode="m" horiz-adv-x="1890" 
d="M1538 1049q182 0 275 -121q92 -122 59 -312l-113 -616h-223l104 584q23 130 -28 194q-38 78 -150 78q-109 0 -188 -70q-80 -71 -103 -190l-106 -596h-223l102 584q23 128 -26 194q-44 78 -152 78q-160 0 -242 -133q-29 -40 -47 -127l-108 -596h-224l185 1024h194
l-24 -137q129 162 344 162q116 0 197.5 -50t117.5 -141q62 88 162 139.5t217 51.5z" />
    <glyph glyph-name="n" unicode="n" horiz-adv-x="1210" 
d="M854 1049q184 0 279 -122q94 -121 59 -313l-111 -614h-225l107 598q21 122 -28.5 190t-164.5 68q-150 0 -231 -106q-49 -61 -64 -152l-106 -598h-226l185 1024h194l-24 -135q130 160 356 160z" />
    <glyph glyph-name="o" unicode="o" horiz-adv-x="1230" 
d="M666 -25q-219 0 -362 140q-144 139 -144 358q0 139 59.5 259t167.5 198q157 119 365 119q220 0 362 -139q143 -140 143 -359q0 -279 -215 -449q-160 -127 -376 -127zM680 168q133 0 229 84q127 109 127 287q0 139 -84 228t-215 89q-133 0 -229 -84q-127 -109 -127 -287
q0 -139 84 -228t215 -89z" />
    <glyph glyph-name="p" unicode="p" horiz-adv-x="1277" 
d="M846 1049q199 0 326 -139q126 -140 126 -351q0 -247 -158 -416q-159 -168 -390 -168q-237 0 -355 181l-84 -467h-221l238 1335h194l-24 -129q153 154 348 154zM727 168q153 0 250 109q98 109 98 268q0 137 -78 224q-80 87 -211 87q-150 0 -247 -108q-97 -109 -97 -269
q0 -135 78 -223t207 -88z" />
    <glyph glyph-name="q" unicode="q" horiz-adv-x="1273" 
d="M1081 836l35 188h199l-240 -1335h-221l70 393q-138 -105 -308 -107q-210 0 -334 144q-126 143 -120 366q7 239 166 402q158 162 383 162q125 0 221 -55.5t149 -157.5zM674 168q152 0 249 109q97 107 97 268q0 135 -79 223t-208 88q-152 0 -251 -108q-99 -110 -99 -269
q0 -136 80 -224q79 -87 211 -87z" />
    <glyph glyph-name="r" unicode="r" horiz-adv-x="770" 
d="M946 1016l6 -17l-84 -168l-18 -8q-46 29 -113 29q-139 0 -213 -117q-38 -57 -63 -207l-94 -528h-224l185 1024h192l-22 -133q51 63 106 100q82 56 189 58q87 0 153 -33z" />
    <glyph glyph-name="s" unicode="s" horiz-adv-x="923" 
d="M481 -27q-136 0 -243 52q-108 50 -158 137l2 16l131 111h16q31 -56 108 -97q76 -40 161 -40q86 0 135 38.5t49 102.5q0 50 -36.5 82t-121.5 69q-14 6 -16 7q-123 46 -194 110q-72 61 -72 168q0 143 111 233q110 89 288 89q113 0 212 -47q97 -48 144 -123l-2 -19
l-129 -104h-16q-36 53 -100 86t-127 33q-75 0 -118.5 -34t-43.5 -89q0 -28 24 -53.5t56 -41.5q18 -10 94 -45q128 -58 198 -125q68 -68 68 -178q0 -155 -116 -247q-115 -91 -304 -91z" />
    <glyph glyph-name="t" unicode="t" horiz-adv-x="786" 
d="M887 850h-303l-95 -520q-29 -162 113 -162q72 0 121 43l18 -6l39 -142l-10 -18q-103 -70 -221 -70q-156 0 -234 85q-79 85 -49 255l94 535h-170l29 174h174l56 315l208 19l15 -12l-58 -322h304z" />
    <glyph glyph-name="u" unicode="u" horiz-adv-x="1183" 
d="M895 414l109 610h221l-183 -1024h-194l20 115q-138 -139 -329 -140q-180 0 -273 120q-94 119 -61 313l110 616h226l-111 -608q-18 -114 28.5 -181t145.5 -67q160 0 240 123q33 43 51 123z" />
    <glyph glyph-name="v" unicode="v" horiz-adv-x="1083" 
d="M1020 1024h213l8 -16l-629 -1008h-141l-276 1008l12 16h217l162 -725z" />
    <glyph glyph-name="w" unicode="w" horiz-adv-x="1560" 
d="M1497 1024h209l8 -16l-540 -1008h-142l-131 690l-371 -690h-147l-180 1008l12 16h213l92 -698l371 698h129l127 -698z" />
    <glyph glyph-name="x" unicode="x" horiz-adv-x="1054" 
d="M1200 1024l6 -16l-463 -496l291 -496l-12 -16h-225l-209 373l-334 -373h-240l-6 16l479 510l-276 482l14 16h224l194 -356l318 356h239z" />
    <glyph glyph-name="y" unicode="y" horiz-adv-x="1064" 
d="M1006 1024h213l8 -16l-660 -1086q-87 -144 -168 -199q-82 -55 -190 -55q-104 0 -166 41l-4 19l76 139l18 6q39 -27 86 -27q43 0 75 21q34 24 73 88l75 121l-235 932l14 16h219l156 -711z" />
    <glyph glyph-name="z" unicode="z" horiz-adv-x="976" 
d="M256 1024h803l-27 -156l-661 -698h579l-30 -170h-854l26 156l672 698h-537z" />
    <glyph glyph-name="braceleft" unicode="{" horiz-adv-x="665" 
d="M573 -238h-69q-207 0 -272 83q-66 83 -27 302l41 218q28 98 9 148t-97 50l26 148q82 0 112 44q30 43 48 154l39 217q38 221 131 302q95 83 303 83h70l-29 -168h-47q-109 0 -149 -36q-40 -37 -66 -174l-51 -279q-18 -98 -68.5 -157.5t-116.5 -59.5q66 0 97 -60
q30 -61 12 -157l-51 -279q-25 -135 2 -173q26 -38 135 -38h47z" />
    <glyph glyph-name="bar" unicode="|" horiz-adv-x="497" 
d="M281 -299h-172l315 1749h172z" />
    <glyph glyph-name="braceright" unicode="}" horiz-adv-x="665" 
d="M430 854l49 279q25 135 -2 173q-28 37 -137 37h-47l29 168h71q208 0 272 -82t25 -303l-37 -217q-9 -52 -13 -87q-3 -27 2 -59q5 -29 27 -40.5t66 -11.5l-26 -148q-79 0 -108 -42t-48 -156l-39 -218q-39 -220 -133 -302q-95 -83 -301 -83h-72l29 168h49q109 0 150 38
q39 36 65 173l49 279q16 95 69 157q53 60 116 60q-63 0 -92 59.5t-13 157.5z" />
    <glyph glyph-name="asciitilde" unicode="~" horiz-adv-x="1193" 
d="M915 545q-75 0 -212 36q-138 35 -216 35q-47 0 -101 -20q-51 -20 -77 -51h-16l-55 123l2 14q110 104 278 104q86 0 235 -35q145 -36 191 -36q125 0 182 71h17l55 -120l-2 -17q-32 -31 -58 -49q-25 -17 -85 -36q-58 -19 -138 -19z" />
    <glyph glyph-name="exclamdown" unicode="&#xa1;" horiz-adv-x="518" 
d="M395 741q-60 0 -99.5 39t-39.5 99q0 71 51 120q52 50 119 50q60 0 99.5 -39t39.5 -99q0 -71 -51 -120q-52 -50 -119 -50zM305 -319h-207l-10 16l193 930l18 16h154l8 -16l-142 -930z" />
    <glyph glyph-name="cent" unicode="&#xa2;" horiz-adv-x="1077" 
d="M774 1006q-158 0 -262 -113t-104 -283q0 -121 78 -199q76 -79 206 -79q142 0 254 112h19l104 -106l-4 -19q-149 -150 -340 -172l-33 -172h-174l31 179q-160 33 -259 153q-100 118 -100 283q0 230 145 397q144 168 367 201l29 164h176l-30 -164q219 -28 309 -170l-2 -19
l-140 -106h-16q-86 113 -254 113z" />
    <glyph glyph-name="sterling" unicode="&#xa3;" horiz-adv-x="1110" 
d="M881 1356q242 0 360 -187l-2 -16l-141 -109h-17q-84 127 -225 127q-207 0 -246 -219l-32 -186h366l-31 -176h-366l-74 -412h598l-31 -178h-946l31 178h123l74 412h-115l31 176h114l33 186q37 193 172 299q133 105 324 105z" />
    <glyph glyph-name="currency" unicode="&#xa4;" horiz-adv-x="1355" 
d="M1196 381l123 -135l-152 -137l-127 141q-142 -86 -301 -86q-165 0 -284 86l-158 -141l-125 137l154 135q-68 103 -68 235q0 196 125 347l-121 135l152 135l127 -139q146 86 301 86q168 0 286 -88l156 141l125 -135l-152 -135q64 -103 68 -238q0 -197 -129 -344zM758 348
q150 0 254 105q104 104 104 258q0 127 -81 206q-81 78 -210 78q-152 0 -256 -104q-104 -106 -104 -258q0 -127 81 -206q80 -79 212 -79z" />
    <glyph glyph-name="yen" unicode="&#xa5;" horiz-adv-x="1339" 
d="M1503 1331l6 -18l-598 -762h232l-23 -133h-268l-23 -121h269l-25 -133h-268l-29 -164h-227l29 164h-267l23 133h268l23 121h-269l25 133h235l-333 762l14 18h225l262 -631l482 631h237z" />
    <glyph glyph-name="brokenbar" unicode="&#xa6;" horiz-adv-x="497" 
d="M289 698l135 752h172l-137 -752h-170zM109 -299l141 793h172l-141 -793h-172z" />
    <glyph glyph-name="section" unicode="&#xa7;" horiz-adv-x="1126" 
d="M1069 1057h-18q-101 129 -275 129q-99 0 -161 -46q-64 -46 -64 -118q0 -54 50 -90t167 -78q71 -24 131 -50q46 -21 110 -60q117 -76 117 -214q0 -180 -176 -288q74 -79 74 -179q0 -171 -143 -272q-143 -100 -361 -100q-151 0 -267.5 52.5t-184.5 147.5l2 19l131 117h16
q117 -162 318 -162q112 0 185 50q71 50 71 124q0 67 -77 111q-36 20 -71 35q-5 2 -36 13.5t-54 20.5q-165 57 -255 124q-91 67 -91 181q0 181 194 291q-88 72 -88 176q0 162 137 264q137 101 343 101q272 0 409 -176l-4 -17zM438 563q0 -42 34 -73q35 -34 75 -50
q34 -15 117 -46q77 -29 116 -48q127 57 127 158q0 66 -73 112q-47 27 -69 37q-25 11 -91 37q-70 26 -88 33q-68 -24 -108 -66t-40 -94z" />
    <glyph glyph-name="dieresis" unicode="&#xa8;" horiz-adv-x="870" 
d="M471 1196q-54 0 -91 37q-38 38 -38 90q0 68 49 116q50 48 115 48q52 0 92 -38q39 -37 39 -89q0 -68 -49 -116q-50 -48 -117 -48zM864 1196q-54 0 -91 37q-38 38 -38 90q0 68 50 116q49 48 114 48q52 0 92 -38q39 -37 39 -89q0 -68 -49 -116t-117 -48z" />
    <glyph glyph-name="copyright" unicode="&#xa9;" horiz-adv-x="1529" 
d="M1317 152q-215 -177 -489 -177q-275 0 -457 179q-183 178 -183 448q0 180 76 333q78 157 211 259q207 162 471 162q275 0 456 -178t181 -449q0 -170 -69 -320q-70 -151 -197 -257zM836 115q214 0 378 137q218 181 220 469q0 215 -141 356q-143 140 -355 140
q-215 0 -371 -132q-108 -84 -167.5 -208.5t-59.5 -266.5q0 -216 142 -355q142 -140 354 -140zM870 264q-160 0 -268 105q-108 103 -108 264q0 190 130 316t322 126q195 0 309 -143l-2 -14l-116 -95h-15q-63 86 -178 86q-113 0 -186 -70q-74 -71 -74 -188q0 -104 55.5 -163.5
t149.5 -59.5q123 0 211 82h14l84 -96v-15q-142 -135 -328 -135z" />
    <glyph glyph-name="ordfeminine" unicode="&#xaa;" horiz-adv-x="782" 
d="M614 1354q120 0 196 -68q75 -69 54 -180l-71 -404h-140l13 64q-88 -72 -199 -72q-100 0 -163 51q-64 49 -64 129q0 111 87 171q88 59 218 59q91 0 164 -27l4 25q10 59 -23.5 93t-99.5 34q-114 0 -191 -72h-14l-61 76l4 12q113 109 286 109zM510 813q67 0 113 40
q48 42 55 91l4 23q-63 25 -139 24q-62 0 -102 -27t-40 -71q0 -35 30 -57.5t79 -22.5z" />
    <glyph glyph-name="guillemotleft" unicode="&#xab;" horiz-adv-x="999" 
d="M692 901v-12l-299 -295l180 -275v-10l-114 -96h-15l-266 385l6 31l404 383h14zM973 1012l92 -111v-12l-301 -293l182 -277v-10l-117 -96h-12l-266 385l6 31l404 383h12z" />
    <glyph glyph-name="registered" unicode="&#xae;" horiz-adv-x="905" 
d="M680 1376q138 0 236 -92q96 -92 96 -225q0 -180 -123 -303t-299 -123q-138 0 -236 93t-98 226q0 180 123 302q124 122 301 122zM602 723q131 0 224 98q92 98 92 234q0 102 -70 168q-71 65 -178 65q-133 0 -225 -98q-93 -98 -93 -236q0 -101 71 -166t179 -65zM813 1100
q0 -92 -92 -127l57 -160h-106l-49 148h-50l-24 -148h-98l67 393h166q129 0 129 -106zM668 1122h-64l-18 -92h67q24 0 40 15.5t16 37.5q0 39 -41 39z" />
    <glyph glyph-name="overscore" unicode="&#xaf;" horiz-adv-x="1058" 
d="M449 1229l28 162h602l-28 -162h-602z" />
    <glyph glyph-name="degree" unicode="&#xb0;" horiz-adv-x="667" 
d="M481 827q-91 0 -153 66q-62 65 -62 160q0 123 96 213q94 90 216 90q94 0 155 -64q60 -64 60 -162q0 -121 -94 -212t-218 -91zM506 963q59 0 103 44t44 105q0 47 -27.5 78t-70.5 31q-56 0 -102 -44q-45 -43 -45 -104q0 -47 27.5 -78.5t70.5 -31.5z" />
    <glyph glyph-name="plusminus" unicode="&#xb1;" horiz-adv-x="1171" 
d="M901 1204l-70 -385h390l-31 -180h-391l-72 -389h-192l69 389h-391l33 180h391l70 385h194zM1065 -43h-975l33 178h975z" />
    <glyph glyph-name="acute" unicode="&#xb4;" horiz-adv-x="641" 
d="M295 1268l418 274h14l82 -149l-2 -13l-438 -225h-15l-61 100z" />
    <glyph glyph-name="paragraph" unicode="&#xb6;" horiz-adv-x="1388" 
d="M1571 1450l-29 -158h-465l-280 -1575h-168l151 844h-106q-204 0 -325 90q-122 90 -122 275q0 266 169 395q170 129 438 129h737zM1212 1151h166l-256 -1434h-166z" />
    <glyph glyph-name="middot" unicode="&#xb7;" horiz-adv-x="542" 
d="M356 387q-65 0 -109 44t-44 110q0 76 56 132t130 56q66 0 110 -44t44 -107q0 -75 -56 -133q-57 -58 -131 -58z" />
    <glyph glyph-name="cedilla" unicode="&#xb8;" horiz-adv-x="675" 
d="M250 -524q-147 0 -244 82l4 16l76 90h18q63 -51 150 -51q66 0 103.5 26.5t37.5 75.5q0 55 -66 71q-67 16 -151 -3l-31 22l101 205l8 53l160 3l-10 -56l-50 -110q97 0 155 -48t58 -126q0 -113 -90 -182q-91 -68 -229 -68z" />
    <glyph glyph-name="ordmasculine" unicode="&#xba;" horiz-adv-x="813" 
d="M557 696q-133 0 -218 81t-85 210q0 157 108 264q106 105 263 105q135 0 219 -81t84 -210q0 -158 -107 -263q-107 -106 -264 -106zM571 842q81 0 140 60q57 58 57 149q0 72 -43 115.5t-115 43.5q-82 0 -138 -59t-56 -150q0 -72 42.5 -115.5t112.5 -43.5z" />
    <glyph glyph-name="guillemotright" unicode="&#xbb;" horiz-adv-x="999" 
d="M403 1012l265 -383l-6 -31l-402 -385h-12l-96 111v12l305 297l-183 272v13l117 94h12zM764 1012h12l264 -383l-6 -31l-401 -385h-12l-97 111v12l303 295l-180 274v13z" />
    <glyph glyph-name="onequarter" unicode="&#xbc;" horiz-adv-x="1495" 
d="M528 578h-190l108 612h-172l29 156h365zM158 -6l-6 16l1255 1333h197l8 -16l-1256 -1333h-198zM1434 754l-84 -475h84l-25 -140h-88l-27 -145h-166l27 145h-358l20 109l459 506h158zM1227 512l-211 -233h168z" />
    <glyph glyph-name="onehalf" unicode="&#xbd;" horiz-adv-x="1622" 
d="M528 578h-190l108 614h-172l29 154h365zM1380 1343h197l8 -16l-1255 -1333h-199l-6 16zM1411 266q-73 -61 -151 -119h294l-28 -153h-588l20 104q75 59 149 114q65 49 144 112q154 118 154 192q0 39 -28.5 62.5t-76.5 23.5q-87 0 -182 -90h-16l-66 94l2 17
q148 137 305 137q103 0 174 -56q70 -57 70 -159q0 -75 -41 -136q-39 -59 -135 -143z" />
    <glyph glyph-name="threequarters" unicode="&#xbe;" horiz-adv-x="1593" 
d="M772 823q0 -113 -89 -184q-89 -72 -228 -72q-79 0 -155 35t-107 90l2 15l77 86h15q63 -80 176 -80q57 0 96 31.5t39 78.5q0 49 -36 78t-99 29h-68l21 112h69q58 0 97 29.5t39 77.5q0 35 -29 56.5t-78 21.5q-79 0 -149 -58h-15l-57 91l2 14q102 96 250 96q108 0 175 -53
q66 -53 66 -139q0 -121 -124 -187q110 -57 110 -168zM1505 1343h197l8 -16l-1255 -1333h-199l-6 16zM905 248l459 506h158l-86 -475h86l-27 -140h-86l-27 -145h-168l27 145h-356zM1104 279h168l43 233z" />
    <glyph glyph-name="questiondown" unicode="&#xbf;" horiz-adv-x="993" 
d="M651 772q-57 0 -95 38t-38 93q0 68 49 116t115 48q57 0 95 -38t38 -93q0 -68 -49 -116q-50 -48 -115 -48zM455 -326q-173 0 -276 86q-103 85 -103 226q0 97 56 193q19 35 61 80q41 43 66 66q9 7 34.5 28t41.5 34q55 45 64 53q60 49 85 87q24 38 32 91l10 50h203l-8 -50
q-13 -82 -54 -141t-118 -123l-75 -60q-71 -57 -92 -79q-26 -28 -53 -77q-30 -52 -30 -105q0 -76 55 -122t150 -46q79 0 159 53q77 52 115 133l19 6l147 -49l2 -16q-57 -136 -196 -227t-295 -91z" />
    <glyph glyph-name="Agrave" unicode="&#xc0;" 
d="M1161 1460h-16l-451 205l-2 16l84 146h17l426 -256l4 -17zM862 1331h123l363 -1313l-13 -18h-219l-65 270h-631l-166 -270h-225l-9 18zM870 1004l-344 -562h482z" />
    <glyph glyph-name="Aacute" unicode="&#xc1;" 
d="M1227 1665l-451 -205h-16l-62 94l4 17l426 256h17l84 -146zM862 1331h123l363 -1313l-13 -18h-219l-65 270h-631l-166 -270h-225l-9 18zM870 1004l-344 -562h482z" />
    <glyph glyph-name="Acircumflex" unicode="&#xc2;" 
d="M969 1628l-320 -145h-14l-49 108l2 17l387 200h20l314 -200l-2 -17l-78 -98h-17zM862 1331h123l363 -1313l-13 -18h-219l-65 270h-631l-166 -270h-225l-9 18zM870 1004l-344 -562h482z" />
    <glyph glyph-name="Atilde" unicode="&#xc3;" 
d="M645 1509h-20l-9 11l27 157q63 84 164 84q59 0 168 -39q108 -39 151 -39q94 0 140 76h16l8 -10l-26 -158q-62 -84 -162 -84q-61 0 -166 39t-156 39q-92 0 -135 -76zM862 1331h123l363 -1313l-13 -18h-219l-65 270h-631l-166 -270h-225l-9 18zM870 1004l-344 -562h482z
" />
    <glyph glyph-name="Adieresis" unicode="&#xc4;" 
d="M723 1483q-54 0 -95 39q-40 39 -40 92q0 70 51 120q52 50 119 50q54 0 95 -39q40 -39 40 -92q0 -71 -51 -120q-52 -50 -119 -50zM1159 1483q-55 0 -94 39t-39 92q0 70 50 120t118 50q54 0 95 -39q40 -39 40 -92q0 -70 -50 -120t-120 -50zM862 1331h123l363 -1313l-13 -18
h-219l-65 270h-631l-166 -270h-225l-9 18zM870 1004l-344 -562h482z" />
    <glyph glyph-name="Aring" unicode="&#xc5;" 
d="M948 1438q-86 0 -145 57q-60 57 -60 143q0 99 73 172q74 74 171 74q87 0 145 -57q58 -58 58 -144q0 -97 -72 -171t-170 -74zM977 1751q-41 0 -69.5 -29.5t-28.5 -70.5q0 -33 23.5 -56.5t55.5 -23.5q39 0 68 29.5t29 70.5q0 33 -22.5 56.5t-55.5 23.5zM862 1331h123
l363 -1313l-13 -18h-219l-65 270h-631l-166 -270h-225l-9 18zM870 1004l-344 -562h482z" />
    <glyph glyph-name="AE" unicode="&#xc6;" horiz-adv-x="1984" 
d="M2099 1331l-35 -190h-682l-69 -379h538l-32 -184h-539l-70 -388h684l-32 -190h-910l49 272h-540l-232 -272h-247l-7 18l1129 1313h995zM1147 1079l-541 -637h426z" />
    <glyph glyph-name="Ccedilla" unicode="&#xc7;" 
d="M606 1034q-188 -155 -188 -403q0 -197 123 -323t311 -126q229 0 397 185h17l125 -117l-2 -17q-241 -258 -553 -258h-15l-28 -63q98 0 155.5 -47.5t57.5 -126.5q0 -113 -90 -182q-92 -68 -230 -68q-147 0 -244 82l4 16l76 90h19q63 -51 149 -51q67 0 104 26.5t37 76.5
q0 54 -66 71q-68 17 -151 -4l-30 23l86 176q-215 51 -347 219q-133 167 -133 401q0 179 80 339q79 158 226 261q199 141 452 142q171 0 316 -74q142 -73 219 -197l-2 -16l-162 -115h-19q-52 87 -152 142q-100 53 -218 53q-188 0 -324 -115z" />
    <glyph glyph-name="Egrave" unicode="&#xc8;" horiz-adv-x="1167" 
d="M713 1827h16l426 -256l4 -17l-61 -94h-17l-450 205l-2 16zM1317 1331l-35 -192h-680l-70 -377h539l-35 -184h-536l-70 -385h684l-35 -193h-909l240 1331h907z" />
    <glyph glyph-name="Eacute" unicode="&#xc9;" horiz-adv-x="1167" 
d="M655 1571l426 256h17l84 -146l-2 -16l-451 -205h-16l-62 94zM1317 1331l-35 -192h-680l-70 -377h539l-35 -184h-536l-70 -385h684l-35 -193h-909l240 1331h907z" />
    <glyph glyph-name="Ecircumflex" unicode="&#xca;" horiz-adv-x="1167" 
d="M907 1626l-319 -145h-15l-49 108l2 17l387 200h21l313 -200l-2 -17l-78 -98h-16zM1317 1331l-35 -192h-680l-70 -377h539l-35 -184h-536l-70 -385h684l-35 -193h-909l240 1331h907z" />
    <glyph glyph-name="Edieresis" unicode="&#xcb;" horiz-adv-x="1167" 
d="M662 1481q-54 0 -95 39t-41 92q0 71 52 120q52 50 118 50q54 0 95 -39q40 -39 40 -92q0 -70 -50 -120q-52 -50 -119 -50zM1098 1481q-55 0 -94 39t-39 92q0 70 50 120t118 50q55 0 95 -39t40 -92q0 -70 -50 -120t-120 -50zM1317 1331l-35 -192h-680l-70 -377h539
l-35 -184h-536l-70 -385h684l-35 -193h-909l240 1331h907z" />
    <glyph glyph-name="Igrave" unicode="&#xcc;" horiz-adv-x="567" 
d="M399 1827h17l426 -256l4 -17l-62 -94h-16l-451 205l-2 16zM170 0l240 1331h227l-240 -1331h-227z" />
    <glyph glyph-name="Iacute" unicode="&#xcd;" horiz-adv-x="567" 
d="M285 1571l426 256h16l84 -146l-2 -16l-451 -205h-16l-61 94zM170 0l240 1331h227l-240 -1331h-227z" />
    <glyph glyph-name="Icircumflex" unicode="&#xce;" horiz-adv-x="567" 
d="M584 1806h20l314 -200l-3 -17l-77 -98h-17l-243 135l-320 -145h-14l-49 108l2 17zM397 0h-227l240 1331h227z" />
    <glyph glyph-name="Idieresis" unicode="&#xcf;" horiz-adv-x="567" 
d="M332 1481q-55 0 -95 39t-40 92q0 70 51 120q52 50 119 50q55 0 95 -39t40 -92q0 -71 -51 -120q-52 -50 -119 -50zM768 1481q-55 0 -94 39t-39 92q0 70 50 120t118 50q55 0 95 -39t40 -92q0 -70 -50 -120t-120 -50zM170 0l240 1331h227l-240 -1331h-227z" />
    <glyph glyph-name="Eth" unicode="&#xd0;" horiz-adv-x="1517" 
d="M428 1331h547q264 0 414 -151q149 -152 149 -402q0 -352 -215 -565t-575 -213h-560l105 578h-137l30 180h140zM451 193h313q250 0 396 153q145 151 145 410q0 176 -98 280q-99 103 -275 103h-314l-67 -381h348l-33 -180h-348z" />
    <glyph glyph-name="Ntilde" unicode="&#xd1;" horiz-adv-x="1435" 
d="M657 1507h-22l-8 11l28 157q67 84 176 84q65 0 181 -39q114 -39 162 -39q103 0 149 76h18l9 -10l-29 -158q-63 -84 -174 -84q-66 0 -177 39q-113 39 -167 39q-100 0 -146 -76zM1116 401l168 930h221l-243 -1345h-127l-578 929l-164 -915h-223l240 1331h129z" />
    <glyph glyph-name="Ograve" unicode="&#xd2;" horiz-adv-x="1556" 
d="M850 1827h16l426 -256l4 -17l-61 -94h-16l-451 205l-2 16zM846 -25q-284 0 -469 181q-187 180 -187 460q0 171 70 319t199 253q209 168 489 168q282 0 470 -180q186 -182 186 -461q0 -171 -71 -321t-200 -253q-211 -166 -487 -166zM860 182q186 0 322 111
q196 156 194 407q0 196 -125 323q-125 126 -317 126q-186 0 -322 -111q-196 -156 -194 -407q0 -196 125 -323q125 -126 317 -126z" />
    <glyph glyph-name="Oacute" unicode="&#xd3;" horiz-adv-x="1556" 
d="M793 1571l426 256h16l84 -146l-2 -16l-451 -205h-16l-62 94zM846 -25q-284 0 -469 181q-187 180 -187 460q0 171 70 319t199 253q209 168 489 168q282 0 470 -180q186 -182 186 -461q0 -171 -71 -321t-200 -253q-211 -166 -487 -166zM860 182q186 0 322 111
q196 156 194 407q0 196 -125 323q-125 126 -317 126q-186 0 -322 -111q-196 -156 -194 -407q0 -196 125 -323q125 -126 317 -126z" />
    <glyph glyph-name="Ocircumflex" unicode="&#xd4;" horiz-adv-x="1556" 
d="M1044 1626l-319 -145h-14l-49 108l2 17l387 200h20l313 -200l-2 -17l-77 -98h-17zM948 1356q282 0 470 -180q186 -182 186 -461q0 -171 -71 -321t-200 -253q-211 -166 -487 -166q-284 0 -469 181q-187 180 -187 460q0 171 70 319t199 253q209 168 489 168zM1182 293
q196 156 194 407q0 196 -125 323q-125 126 -317 126q-186 0 -322 -111q-196 -156 -194 -407q0 -196 125 -323q125 -126 317 -126q187 0 322 111z" />
    <glyph glyph-name="Otilde" unicode="&#xd5;" horiz-adv-x="1556" 
d="M1192 1505q-66 0 -177 39q-112 39 -167 39q-98 0 -146 -76h-22l-8 11l28 157q68 84 177 84q66 0 180 -39t162 -39q103 0 149 76h18l9 -10l-29 -158q-63 -84 -174 -84zM846 -25q-284 0 -469 181q-187 180 -187 460q0 171 70 319t199 253q209 168 489 168q282 0 470 -180
q186 -182 186 -461q0 -171 -71 -321t-200 -253q-211 -166 -487 -166zM860 182q186 0 322 111q196 156 194 407q0 196 -125 323q-125 126 -317 126q-186 0 -322 -111q-196 -156 -194 -407q0 -196 125 -323q125 -126 317 -126z" />
    <glyph glyph-name="Odieresis" unicode="&#xd6;" horiz-adv-x="1556" 
d="M799 1481q-55 0 -95 39t-40 92q0 70 51 120q52 50 119 50q54 0 95 -39q40 -39 40 -92q0 -71 -51 -120q-52 -50 -119 -50zM1235 1481q-55 0 -94 39t-39 92q0 70 50 120t118 50q54 0 95 -39q40 -39 40 -92q0 -70 -50 -120t-120 -50zM846 -25q-284 0 -469 181
q-187 180 -187 460q0 171 70 319t199 253q209 168 489 168q282 0 470 -180q186 -182 186 -461q0 -171 -71 -321t-200 -253q-211 -166 -487 -166zM860 182q186 0 322 111q196 156 194 407q0 196 -125 323q-125 126 -317 126q-186 0 -322 -111q-196 -156 -194 -407
q0 -196 125 -323q125 -126 317 -126z" />
    <glyph glyph-name="multiply" unicode="&#xd7;" horiz-adv-x="1124" 
d="M1055 1163l121 -137l-385 -348l313 -356l-154 -140l-309 359l-387 -355l-119 138l385 350l-305 346l158 139l297 -346z" />
    <glyph glyph-name="Oslash" unicode="&#xd8;" horiz-adv-x="1556" 
d="M1663 1460l6 -18l-235 -283q170 -181 170 -444q0 -171 -71 -321t-200 -253q-211 -166 -487 -166q-179 0 -330 80l-135 -164h-223l-8 19l215 258q-173 179 -175 448q0 171 70 319t199 253q209 168 489 168q188 0 336 -82l156 186h223zM418 631q0 -166 94 -287l629 758
q-91 47 -207 47q-186 0 -322 -111q-194 -155 -194 -407zM1376 700q0 164 -90 281l-627 -756q95 -43 201 -43q186 0 322 111q194 155 194 407z" />
    <glyph glyph-name="Ugrave" unicode="&#xd9;" horiz-adv-x="1447" 
d="M815 1827h16l426 -256l5 -17l-62 -94h-16l-451 205l-2 16zM252 551l139 780h225l-139 -782q-31 -166 53 -267q84 -102 244 -102q156 0 263 101q105 99 137 268l139 782h223l-139 -776q-50 -265 -219 -422q-170 -158 -424 -158q-263 0 -406 159q-142 159 -96 417z" />
    <glyph glyph-name="Uacute" unicode="&#xda;" horiz-adv-x="1447" 
d="M758 1571l426 256h16l84 -146l-2 -16l-451 -205h-16l-61 94zM252 551l139 780h225l-139 -782q-31 -166 53 -267q84 -102 244 -102q156 0 263 101q105 99 137 268l139 782h223l-139 -776q-50 -265 -219 -422q-170 -158 -424 -158q-263 0 -406 159q-142 159 -96 417z" />
    <glyph glyph-name="Ucircumflex" unicode="&#xdb;" horiz-adv-x="1447" 
d="M1010 1626l-320 -145h-14l-49 108l2 17l387 200h20l314 -200l-2 -17l-78 -98h-17zM1174 549l139 782h223l-139 -776q-50 -265 -219 -422q-170 -158 -424 -158q-263 0 -406 159q-142 159 -96 417l139 780h225l-139 -782q-31 -166 53 -267q84 -102 244 -102q156 0 263 101
q105 99 137 268z" />
    <glyph glyph-name="Udieresis" unicode="&#xdc;" horiz-adv-x="1447" 
d="M764 1481q-54 0 -95 39q-40 39 -40 92q0 70 51 120q52 50 119 50q55 0 95 -39t40 -92q0 -71 -51 -120q-52 -50 -119 -50zM1200 1481q-55 0 -94 39t-39 92q0 70 50 120t118 50q55 0 95 -39t40 -92q0 -70 -50 -120t-120 -50zM252 551l139 780h225l-139 -782
q-31 -166 53 -267q84 -102 244 -102q156 0 263 101q105 99 137 268l139 782h223l-139 -776q-50 -265 -219 -422q-170 -158 -424 -158q-263 0 -406 159q-142 159 -96 417z" />
    <glyph glyph-name="Yacute" unicode="&#xdd;" horiz-adv-x="1302" 
d="M1194 1665l-451 -205h-16l-61 94l4 17l426 256h16l84 -146zM1491 1331l6 -18l-643 -819l-90 -494h-227l90 500l-357 813l15 18h225l262 -631l481 631h238z" />
    <glyph glyph-name="Thorn" unicode="&#xde;" horiz-adv-x="1245" 
d="M397 0h-227l240 1331h227l-45 -244h280q204 0 316 -94t112 -256q0 -227 -143 -356t-409 -129h-306zM557 895l-82 -463h316q125 0 199 74q73 73 73 203q0 87 -53 136.5t-144 49.5h-309z" />
    <glyph glyph-name="germandbls" unicode="&#xdf;" horiz-adv-x="1216" 
d="M1036 756q186 -82 187 -314q0 -206 -141 -336q-143 -131 -349 -131q-176 0 -252 70l-6 18l94 138l19 8q56 -45 143 -45q119 0 199 78q80 77 80 202q0 105 -64.5 166.5t-173.5 61.5h-100l26 151h68q106 0 179 66q73 64 73 160q0 80 -56 128q-57 48 -147 48
q-101 0 -166 -56q-85 -71 -110 -213l-172 -956h-224l170 948q45 254 217 377q125 92 308 92q175 0 288 -92q111 -91 111 -242q0 -104 -53.5 -189.5t-147.5 -137.5z" />
    <glyph glyph-name="agrave" unicode="&#xe0;" horiz-adv-x="1105" 
d="M621 1542h12l407 -274v-13l-67 -100h-12l-433 225l-4 13zM1012 936q111 -113 71 -330l-108 -606h-191l21 111q-145 -134 -336 -136q-162 0 -261 81t-99 212q0 174 132 279q133 104 351 104q137 0 278 -65l11 51q17 102 -33 162q-62 74 -186 73q-161 0 -306 -106h-18
l-66 123l4 16q92 69 203 106q114 38 217 38q212 0 316 -113zM518 139q111 0 205 67q95 66 111 165l10 55q-124 70 -246 70q-120 0 -194 -53q-74 -54 -74 -146q0 -73 49.5 -115.5t138.5 -42.5z" />
    <glyph glyph-name="aacute" unicode="&#xe1;" horiz-adv-x="1105" 
d="M520 1268l418 274h14l82 -149l-2 -13l-438 -225h-14l-62 100zM1012 936q111 -113 71 -330l-108 -606h-191l21 111q-145 -134 -336 -136q-162 0 -261 81t-99 212q0 174 132 279q133 104 351 104q137 0 278 -65l11 51q17 102 -33 162q-62 74 -186 73q-161 0 -306 -106h-18
l-66 123l4 16q92 69 203 106q114 38 217 38q212 0 316 -113zM518 139q111 0 205 67q95 66 111 165l10 55q-124 70 -246 70q-120 0 -194 -53q-74 -54 -74 -146q0 -73 49.5 -115.5t138.5 -42.5z" />
    <glyph glyph-name="acircumflex" unicode="&#xe2;" horiz-adv-x="1105" 
d="M799 1491h30l287 -205l-2 -14l-84 -94h-14l-225 135l-289 -144h-15l-53 103v14zM696 1049q211 0 316 -113q111 -113 71 -330l-108 -606h-191l21 111q-145 -134 -336 -136q-162 0 -261 81t-99 212q0 174 132 279q133 104 351 104q137 0 278 -65l11 51q17 102 -33 162
q-62 74 -186 73q-161 0 -306 -106h-18l-66 123l4 16q92 69 203 106q114 38 217 38zM834 371l10 55q-124 70 -246 70q-120 0 -194 -53q-74 -54 -74 -146q0 -73 49.5 -115.5t138.5 -42.5q112 0 206 67q93 67 110 165z" />
    <glyph glyph-name="atilde" unicode="&#xe3;" horiz-adv-x="1105" 
d="M930 1217q-51 0 -156 38q-102 37 -156 37q-93 0 -139 -73h-20l-8 10l24 145q72 84 168 84q59 0 164 -37t145 -37q96 0 142 72h18l10 -8l-26 -148q-66 -83 -166 -83zM1012 936q111 -113 71 -330l-108 -606h-191l21 111q-145 -134 -336 -136q-162 0 -261 81t-99 212
q0 174 132 279q133 104 351 104q137 0 278 -65l11 51q17 102 -33 162q-62 74 -186 73q-161 0 -306 -106h-18l-66 123l4 16q92 69 203 106q114 38 217 38q212 0 316 -113zM518 139q111 0 205 67q95 66 111 165l10 55q-124 70 -246 70q-120 0 -194 -53q-74 -54 -74 -146
q0 -73 49.5 -115.5t138.5 -42.5z" />
    <glyph glyph-name="adieresis" unicode="&#xe4;" horiz-adv-x="1105" 
d="M582 1196q-54 0 -91 37q-38 38 -38 90q0 68 49 116q50 48 114 48q52 0 93 -38q39 -37 39 -89q0 -68 -49 -116t-117 -48zM975 1196q-54 0 -91 37q-38 38 -38 90q0 68 49 116t115 48q52 0 92 -38q39 -37 39 -89q0 -68 -49 -116q-50 -48 -117 -48zM1012 936
q111 -113 71 -330l-108 -606h-191l21 111q-145 -134 -336 -136q-162 0 -261 81t-99 212q0 174 132 279q133 104 351 104q137 0 278 -65l11 51q17 102 -33 162q-62 74 -186 73q-161 0 -306 -106h-18l-66 123l4 16q92 69 203 106q114 38 217 38q212 0 316 -113zM518 139
q111 0 205 67q95 66 111 165l10 55q-124 70 -246 70q-120 0 -194 -53q-74 -54 -74 -146q0 -73 49.5 -115.5t138.5 -42.5z" />
    <glyph glyph-name="aring" unicode="&#xe5;" horiz-adv-x="1105" 
d="M770 1126q-86 0 -146 57q-61 55 -61 144q0 99 72 172q72 74 170 74q86 0 146 -57q59 -59 59 -144q0 -98 -71 -172t-169 -74zM778 1262q39 0 66.5 29.5t27.5 68.5q0 33 -21.5 55.5t-53.5 22.5q-39 0 -67 -29t-28 -70q0 -33 21.5 -55t54.5 -22zM1012 936q111 -113 71 -330
l-108 -606h-191l21 111q-145 -134 -336 -136q-162 0 -261 81t-99 212q0 174 132 279q133 104 351 104q137 0 278 -65l11 51q17 102 -33 162q-62 74 -186 73q-161 0 -306 -106h-18l-66 123l4 16q92 69 203 106q114 38 217 38q212 0 316 -113zM518 139q111 0 205 67
q95 66 111 165l10 55q-124 70 -246 70q-120 0 -194 -53q-74 -54 -74 -146q0 -73 49.5 -115.5t138.5 -42.5z" />
    <glyph glyph-name="ae" unicode="&#xe6;" horiz-adv-x="1908" 
d="M1462 1049q231 0 356 -158q124 -157 80 -367q-2 -21 -18 -67h-797q-12 -143 72 -223q85 -80 215 -80q186 0 322 135h16l92 -103l-2 -16q-186 -195 -459 -195q-130 0 -238.5 54t-170.5 153q-82 -98 -203 -152.5t-258 -54.5q-163 0 -260 81q-98 81 -98 212q0 174 131 279
q131 104 350 104q146 0 282 -63l9 49q18 97 -33 162q-62 74 -188 73q-157 0 -306 -106h-16l-66 123l2 16q92 69 204 106q116 38 218 38q266 0 344 -170q30 29 76 61q151 109 344 109zM1110 608h584q6 109 -45 176q-61 90 -205 90q-130 0 -221 -77q-81 -69 -113 -189z
M520 139q108 0 203 66q93 64 113 164l10 57q-124 70 -246 70q-120 0 -194 -53q-74 -54 -74 -146q0 -73 49.5 -115.5t138.5 -42.5z" />
    <glyph glyph-name="ccedilla" unicode="&#xe7;" horiz-adv-x="1083" 
d="M506 770q-121 -109 -121 -283q0 -143 82 -231t219 -88q143 0 262 113h15l108 -113l-4 -18q-153 -153 -358 -173l-29 -65q98 0 155.5 -47.5t57.5 -126.5q0 -113 -90 -182q-91 -68 -230 -68q-148 0 -243 82l4 16l76 90h18q63 -51 150 -51q67 0 104 26.5t37 76.5
q0 54 -66 71q-68 17 -151 -4l-31 23l82 168q-174 33 -282 165q-109 131 -109 322q0 139 59.5 259t167.5 198q157 119 367 119q259 0 407 -193l-4 -16l-137 -107h-18q-100 123 -252 123q-149 0 -246 -86z" />
    <glyph glyph-name="egrave" unicode="&#xe8;" horiz-adv-x="1169" 
d="M989 1155h-12l-432 225l-4 13l96 149h12l408 -274v-13zM760 1049q230 0 355 -158t81 -367q-6 -24 -18 -67h-799q-12 -144 73 -223q86 -80 216 -80q186 0 321 135h19l90 -103l-2 -16q-186 -195 -459 -195q-229 0 -365 154t-108 383q12 132 78 244t174 184q151 109 344 109
zM406 610h587q4 103 -47 174q-62 90 -205 90q-130 0 -221 -77q-79 -67 -114 -187z" />
    <glyph glyph-name="eacute" unicode="&#xe9;" horiz-adv-x="1169" 
d="M1049 1380l-439 -225h-14l-61 100l2 13l417 274h15l82 -149zM760 1049q230 0 355 -158t81 -367q-6 -24 -18 -67h-799q-12 -144 73 -223q86 -80 216 -80q186 0 321 135h19l90 -103l-2 -16q-186 -195 -459 -195q-229 0 -365 154t-108 383q12 132 78 244t174 184
q151 109 344 109zM406 610h587q4 103 -47 174q-62 90 -205 90q-130 0 -221 -77q-79 -67 -114 -187z" />
    <glyph glyph-name="ecircumflex" unicode="&#xea;" horiz-adv-x="1169" 
d="M807 1313l-289 -144h-14l-53 103v14l364 205h31l287 -205l-3 -14l-83 -94h-15zM760 1049q230 0 355 -158t81 -367q-6 -24 -18 -67h-799q-12 -144 73 -223q86 -80 216 -80q186 0 321 135h19l90 -103l-2 -16q-186 -195 -459 -195q-229 0 -365 154t-108 383q12 132 78 244
t174 184q151 109 344 109zM406 610h587q4 103 -47 174q-62 90 -205 90q-130 0 -221 -77q-79 -67 -114 -187z" />
    <glyph glyph-name="edieresis" unicode="&#xeb;" horiz-adv-x="1169" 
d="M598 1196q-54 0 -91 37q-38 38 -38 90q0 68 49 116t115 48q52 0 92 -38q39 -37 39 -89q0 -68 -49 -116t-117 -48zM991 1196q-54 0 -91 37q-38 38 -38 90q0 68 50 116t114 48q52 0 92 -38q39 -37 39 -89q0 -68 -49 -116q-50 -48 -117 -48zM760 1049q230 0 355 -158
t81 -367q-6 -24 -18 -67h-799q-12 -144 73 -223q86 -80 216 -80q186 0 321 135h19l90 -103l-2 -16q-186 -195 -459 -195q-229 0 -365 154t-108 383q12 132 78 244t174 184q151 109 344 109zM406 610h587q4 103 -47 174q-62 90 -205 90q-130 0 -221 -77q-79 -67 -114 -187z
" />
    <glyph glyph-name="igrave" unicode="&#xec;" horiz-adv-x="516" 
d="M317 1542h13l407 -274v-13l-67 -100h-13l-432 225l-4 13zM369 0h-222l185 1024h221z" />
    <glyph glyph-name="iacute" unicode="&#xed;" horiz-adv-x="516" 
d="M217 1268l418 274h14l82 -149l-2 -13l-438 -225h-15l-61 100zM369 0h-222l185 1024h221z" />
    <glyph glyph-name="icircumflex" unicode="&#xee;" horiz-adv-x="516" 
d="M489 1491h29l260 -205l-2 -14l-76 -94h-14l-203 135l-264 -144h-12l-47 103v14zM369 0h-222l185 1024h221z" />
    <glyph glyph-name="idieresis" unicode="&#xef;" horiz-adv-x="516" 
d="M279 1196q-54 0 -91 37q-38 38 -38 90q0 68 49 116t114 48q52 0 92 -38q39 -37 39 -89q0 -68 -48 -116q-50 -48 -117 -48zM672 1196q-54 0 -91 37q-38 38 -38 90q0 68 49 116q50 48 115 48q52 0 92 -38q39 -37 39 -89q0 -68 -49 -116t-117 -48zM369 0h-222l185 1024h221z
" />
    <glyph glyph-name="eth" unicode="&#xf0;" horiz-adv-x="1132" 
d="M1114 1182l-153 -54q211 -336 182 -649q-18 -229 -162 -366q-145 -138 -369 -138q-198 0 -329 125t-131 318q0 227 154 375q153 147 370 147q100 0 190 -45q-46 80 -108 164l-230 -80l-12 14l27 131l129 45l-88 105l4 16l155 115h17q76 -96 123 -162l241 84l15 -12z
M934 479q4 120 -68 200q-73 79 -192 79q-137 0 -225 -91q-89 -92 -89 -231q0 -122 72 -198q72 -78 189 -78q135 0 222 89q86 88 91 230z" />
    <glyph glyph-name="ntilde" unicode="&#xf1;" horiz-adv-x="1210" 
d="M555 1219h-20l-9 10l25 145q72 84 168 84q59 0 164 -37t145 -37q96 0 141 72h19l10 -8l-27 -148q-66 -84 -165 -83q-52 0 -157 38q-102 37 -155 37q-92 2 -139 -73zM854 1049q184 0 279 -122q94 -121 59 -313l-111 -614h-225l107 598q21 122 -28.5 190t-164.5 68
q-150 0 -231 -106q-49 -61 -64 -152l-106 -598h-226l185 1024h194l-24 -135q130 160 356 160z" />
    <glyph glyph-name="ograve" unicode="&#xf2;" horiz-adv-x="1230" 
d="M657 1542h13l407 -274v-13l-67 -100h-13l-432 225l-4 13zM666 -25q-219 0 -362 140q-144 139 -144 358q0 139 59.5 259t167.5 198q157 119 365 119q220 0 362 -139q143 -140 143 -359q0 -279 -215 -449q-160 -127 -376 -127zM680 168q133 0 229 84q127 109 127 287
q0 139 -84 228t-215 89q-133 0 -229 -84q-127 -109 -127 -287q0 -139 84 -228t215 -89z" />
    <glyph glyph-name="oacute" unicode="&#xf3;" horiz-adv-x="1230" 
d="M557 1268l418 274h14l82 -149l-2 -13l-438 -225h-15l-61 100zM666 -25q-219 0 -362 140q-144 139 -144 358q0 139 59.5 259t167.5 198q157 119 365 119q220 0 362 -139q143 -140 143 -359q0 -279 -215 -449q-160 -127 -376 -127zM680 168q133 0 229 84q127 109 127 287
q0 139 -84 228t-215 89q-133 0 -229 -84q-127 -109 -127 -287q0 -139 84 -228t215 -89z" />
    <glyph glyph-name="ocircumflex" unicode="&#xf4;" horiz-adv-x="1230" 
d="M827 1313l-288 -144h-15l-53 103v14l365 205h30l287 -205l-2 -14l-84 -94h-14zM752 1049q220 0 362 -139q143 -140 143 -359q0 -279 -215 -449q-161 -127 -376 -127q-219 0 -362 140q-144 139 -144 358q0 139 59.5 259t167.5 198q157 119 365 119zM909 252
q127 109 127 287q0 139 -84 228t-215 89q-133 0 -229 -84q-127 -109 -127 -287q0 -139 84 -228t215 -89q133 0 229 84z" />
    <glyph glyph-name="otilde" unicode="&#xf5;" horiz-adv-x="1230" 
d="M967 1217q-51 0 -156 38q-102 37 -156 37q-93 0 -139 -73h-20l-9 10l25 145q72 84 168 84q59 0 164 -37t145 -37q96 0 141 72h19l10 -8l-26 -148q-66 -83 -166 -83zM666 -25q-219 0 -362 140q-144 139 -144 358q0 139 59.5 259t167.5 198q157 119 365 119q220 0 362 -139
q143 -140 143 -359q0 -279 -215 -449q-160 -127 -376 -127zM680 168q133 0 229 84q127 109 127 287q0 139 -84 228t-215 89q-133 0 -229 -84q-127 -109 -127 -287q0 -139 84 -228t215 -89z" />
    <glyph glyph-name="odieresis" unicode="&#xf6;" horiz-adv-x="1230" 
d="M618 1196q-54 0 -91 37q-38 38 -38 90q0 68 50 116q49 48 114 48q52 0 92 -38q39 -37 39 -89q0 -68 -49 -116t-117 -48zM1012 1196q-54 0 -91 37q-38 38 -38 90q0 68 49 116q50 48 115 48q52 0 92 -38q39 -37 39 -89q0 -68 -49 -116t-117 -48zM666 -25q-219 0 -362 140
q-144 139 -144 358q0 139 59.5 259t167.5 198q157 119 365 119q220 0 362 -139q143 -140 143 -359q0 -279 -215 -449q-160 -127 -376 -127zM680 168q133 0 229 84q127 109 127 287q0 139 -84 228t-215 89q-133 0 -229 -84q-127 -109 -127 -287q0 -139 84 -228t215 -89z" />
    <glyph glyph-name="divide" unicode="&#xf7;" horiz-adv-x="1071" 
d="M700 831q-52 0 -92 38q-39 37 -39 89q0 68 51 117q49 49 117 49q54 0 92 -37q39 -37 39 -92q0 -68 -50 -116t-118 -48zM180 524l31 176h901l-33 -176h-899zM567 98q-52 0 -92 38q-39 38 -39 89q0 70 50 118t116 48q52 0 92 -38q39 -38 39 -91q0 -68 -49 -116
q-50 -48 -117 -48z" />
    <glyph glyph-name="oslash" unicode="&#xf8;" horiz-adv-x="1230" 
d="M1354 1149l6 -19l-217 -251q116 -137 114 -328q0 -279 -215 -449q-161 -127 -376 -127q-135 0 -250 58l-113 -131h-213l-6 18l192 223q-117 136 -116 330q0 139 59.5 259t167.5 198q157 119 365 119q142 0 254 -60l137 160h211zM381 485q0 -99 43 -172l442 514
q-63 29 -129 29q-133 0 -229 -84q-127 -109 -127 -287zM1036 539q0 95 -41 168l-440 -512q53 -27 125 -27q133 0 229 84q127 109 127 287z" />
    <glyph glyph-name="ugrave" unicode="&#xf9;" horiz-adv-x="1183" 
d="M983 1155h-12l-432 225l-4 13l96 149h12l408 -274v-13zM895 414l109 610h221l-183 -1024h-194l20 115q-138 -139 -329 -140q-180 0 -273 120q-94 119 -61 313l110 616h226l-111 -608q-18 -114 28.5 -181t145.5 -67q160 0 240 123q33 43 51 123z" />
    <glyph glyph-name="uacute" unicode="&#xfa;" horiz-adv-x="1183" 
d="M1042 1380l-438 -225h-14l-62 100l2 13l418 274h15l81 -149zM895 414l109 610h221l-183 -1024h-194l20 115q-138 -139 -329 -140q-180 0 -273 120q-94 119 -61 313l110 616h226l-111 -608q-18 -114 28.5 -181t145.5 -67q160 0 240 123q33 43 51 123z" />
    <glyph glyph-name="ucircumflex" unicode="&#xfb;" horiz-adv-x="1183" 
d="M801 1313l-289 -144h-14l-54 103v14l365 205h31l286 -205l-2 -14l-84 -94h-14zM895 414l109 610h221l-183 -1024h-194l20 115q-138 -139 -329 -140q-180 0 -273 120q-94 119 -61 313l110 616h226l-111 -608q-18 -114 28.5 -181t145.5 -67q160 0 240 123q33 43 51 123z
" />
    <glyph glyph-name="udieresis" unicode="&#xfc;" horiz-adv-x="1183" 
d="M592 1196q-54 0 -91 37q-38 38 -38 90q0 68 49 116q50 48 115 48q52 0 92 -38q39 -37 39 -89q0 -68 -49 -116t-117 -48zM985 1196q-54 0 -91 37q-38 38 -38 90q0 68 49 116t115 48q52 0 92 -38q39 -37 39 -89q0 -68 -49 -116q-50 -48 -117 -48zM895 414l109 610h221
l-183 -1024h-194l20 115q-138 -139 -329 -140q-180 0 -273 120q-94 119 -61 313l110 616h226l-111 -608q-18 -114 28.5 -181t145.5 -67q160 0 240 123q33 43 51 123z" />
    <glyph glyph-name="yacute" unicode="&#xfd;" horiz-adv-x="1064" 
d="M991 1380l-438 -225h-14l-62 100l2 13l418 274h14l82 -149zM1006 1024h213l8 -16l-660 -1086q-87 -144 -168 -199q-82 -55 -190 -55q-104 0 -166 41l-4 19l76 139l18 6q39 -27 86 -27q43 0 75 21q34 24 73 88l75 121l-235 932l14 16h219l156 -711z" />
    <glyph glyph-name="thorn" unicode="&#xfe;" horiz-adv-x="1269" 
d="M846 1049q199 0 326 -139q126 -140 126 -351q0 -247 -158 -416q-159 -168 -390 -168q-237 0 -355 181l-84 -467h-221l297 1642h193l-80 -436q148 154 346 154zM727 168q153 0 250 109q98 109 98 268q0 137 -78 224q-80 87 -211 87q-150 0 -247 -108q-97 -109 -97 -269
q0 -135 78 -223t207 -88z" />
    <glyph glyph-name="ydieresis" unicode="&#xff;" horiz-adv-x="1064" 
d="M541 1196q-54 0 -91 37q-38 38 -38 90q0 68 49 116t114 48q52 0 93 -38q39 -37 39 -89q0 -68 -49 -116q-50 -48 -117 -48zM934 1196q-54 0 -91 37q-38 38 -38 90q0 68 49 116q50 48 115 48q52 0 92 -38q39 -37 39 -89q0 -68 -49 -116t-117 -48zM1006 1024h213l8 -16
l-660 -1086q-87 -144 -168 -199q-82 -55 -190 -55q-104 0 -166 41l-4 19l76 139l18 6q39 -27 86 -27q43 0 75 21q34 24 73 88l75 121l-235 932l14 16h219l156 -711z" />
    <glyph glyph-name="Amacron" unicode="&#x100;" 
d="M655 1667h617l-29 -162h-616zM862 1331h123l363 -1313l-13 -18h-219l-65 270h-631l-166 -270h-225l-9 18zM870 1004l-344 -562h482z" />
    <glyph glyph-name="amacron" unicode="&#x101;" horiz-adv-x="1105" 
d="M467 1229l29 162h602l-29 -162h-602zM1012 936q111 -113 71 -330l-108 -606h-191l21 111q-145 -134 -336 -136q-162 0 -261 81t-99 212q0 174 132 279q133 104 351 104q137 0 278 -65l11 51q17 102 -33 162q-62 74 -186 73q-161 0 -306 -106h-18l-66 123l4 16
q92 69 203 106q114 38 217 38q212 0 316 -113zM518 139q111 0 205 67q95 66 111 165l10 55q-124 70 -246 70q-120 0 -194 -53q-74 -54 -74 -146q0 -73 49.5 -115.5t138.5 -42.5z" />
    <glyph glyph-name="Abreve" unicode="&#x102;" 
d="M940 1462q-125 0 -203 84t-69 217h161q-2 -71 34.5 -112t99.5 -41q119 0 172 153h161q-39 -136 -136 -218q-98 -83 -220 -83zM862 1331h123l363 -1313l-13 -18h-219l-65 270h-631l-166 -270h-225l-9 18zM870 1004l-344 -562h482z" />
    <glyph glyph-name="abreve" unicode="&#x103;" horiz-adv-x="1105" 
d="M770 1184q-133 0 -212 85q-79 84 -71 216h162q0 -69 38 -111.5t100 -42.5q61 0 112 42t74 112h164q-39 -135 -137 -218q-100 -83 -230 -83zM1012 936q111 -113 71 -330l-108 -606h-191l21 111q-145 -134 -336 -136q-162 0 -261 81t-99 212q0 174 132 279q133 104 351 104
q137 0 278 -65l11 51q17 102 -33 162q-62 74 -186 73q-161 0 -306 -106h-18l-66 123l4 16q92 69 203 106q114 38 217 38q212 0 316 -113zM518 139q111 0 205 67q95 66 111 165l10 55q-124 70 -246 70q-120 0 -194 -53q-74 -54 -74 -146q0 -73 49.5 -115.5t138.5 -42.5z" />
    <glyph glyph-name="Aogonek" unicode="&#x104;" 
d="M1389 -283l14 -4l27 -94l-5 -16q-91 -49 -180 -49q-101 0 -162 52q-63 52 -63 138q0 139 141 256h-45l-65 270h-631l-166 -270h-225l-9 18l842 1313h123l363 -1313l-13 -18l-20 -16q-20 -18 -54 -52q-21 -19 -28 -32q-45 -70 -41 -111q0 -43 27.5 -69.5t74.5 -26.5
q34 0 95 24zM870 1004l-344 -562h482z" />
    <glyph glyph-name="aogonek" unicode="&#x105;" horiz-adv-x="1105" 
d="M1083 606l-108 -606l-21 -16q-10 -9 -53 -52q-21 -19 -28 -32q-42 -63 -42 -111q0 -43 28 -69.5t75 -26.5q32 0 94 24l14 -4l27 -94l-4 -16q-91 -49 -180 -49q-101 0 -163 52q-63 52 -63 138q0 139 142 256h-17l21 111q-145 -134 -336 -136q-162 0 -261 81t-99 212
q0 174 132 279q133 104 351 104q137 0 278 -65l11 51q17 102 -33 162q-62 74 -186 73q-161 0 -306 -106h-18l-66 123l4 16q92 69 203 106q114 38 217 38q211 0 316 -113q111 -113 71 -330zM518 139q111 0 205 67q95 66 111 165l10 55q-124 70 -246 70q-120 0 -194 -53
q-74 -54 -74 -146q0 -73 49.5 -115.5t138.5 -42.5z" />
    <glyph glyph-name="Cacute" unicode="&#x106;" 
d="M784 1571l426 256h17l84 -146l-2 -16l-451 -205h-16l-62 94zM836 -25q-282 0 -463 181q-183 180 -183 458q0 179 80 339q79 158 226 261q199 141 452 142q171 0 316 -74q142 -73 219 -197l-2 -16l-162 -115h-19q-52 87 -152 142q-100 53 -218 53q-187 0 -324 -115
q-188 -155 -188 -403q0 -197 123 -323t311 -126q229 0 397 185h17l125 -117l-2 -17q-241 -258 -553 -258z" />
    <glyph glyph-name="cacute" unicode="&#x107;" horiz-adv-x="1083" 
d="M541 1268l417 274h15l82 -149l-2 -13l-439 -225h-14l-61 100zM657 -25q-215 0 -355 140t-140 358q0 139 59.5 259t167.5 198q157 119 367 119q259 0 407 -193l-4 -16l-137 -107h-18q-100 123 -252 123q-149 0 -246 -86q-121 -109 -121 -283q0 -143 82 -231t219 -88
q143 0 262 113h15l108 -113l-4 -18q-174 -175 -410 -175z" />
    <glyph glyph-name="Cdotaccent" unicode="&#x10a;" 
d="M1006 1481q-56 0 -96 40q-42 40 -42 95q0 70 52 121q51 51 122 51q58 0 98 -40t40 -95q0 -70 -51 -121t-123 -51zM836 -25q-282 0 -463 181q-183 180 -183 458q0 179 80 339q79 158 226 261q199 141 452 142q171 0 316 -74q142 -73 219 -197l-2 -16l-162 -115h-19
q-52 87 -152 142q-100 53 -218 53q-187 0 -324 -115q-188 -155 -188 -403q0 -197 123 -323t311 -126q229 0 397 185h17l125 -117l-2 -17q-241 -258 -553 -258z" />
    <glyph glyph-name="cdotaccent" unicode="&#x10b;" horiz-adv-x="1083" 
d="M791 1198q-57 0 -97 39q-41 39 -41 94q0 72 52 123q51 51 122 51q56 0 97 -40q41 -41 41 -95q0 -73 -52 -122q-53 -50 -122 -50zM657 -25q-215 0 -355 140t-140 358q0 139 59.5 259t167.5 198q157 119 367 119q259 0 407 -193l-4 -16l-137 -107h-18q-100 123 -252 123
q-149 0 -246 -86q-121 -109 -121 -283q0 -143 82 -231t219 -88q143 0 262 113h15l108 -113l-4 -18q-174 -175 -410 -175z" />
    <glyph glyph-name="Ccaron" unicode="&#x10c;" 
d="M1391 1679l-381 -202h-21l-311 202l2 17l74 90h16l246 -133l317 145h17l43 -102zM606 1034q-188 -155 -188 -403q0 -197 123 -323t311 -126q229 0 397 185h17l125 -117l-2 -17q-241 -258 -553 -258q-282 0 -463 181q-183 180 -183 458q0 179 80 339q79 158 226 261
q199 141 452 142q171 0 316 -74q142 -73 219 -197l-2 -16l-162 -115h-19q-52 87 -152 142q-100 53 -218 53q-188 0 -324 -115z" />
    <glyph glyph-name="ccaron" unicode="&#x10d;" horiz-adv-x="1083" 
d="M1151 1360l-363 -205h-28l-291 205l4 12l86 92h12l224 -133l290 146h13l55 -105zM506 770q-121 -109 -121 -283q0 -143 82 -231t219 -88q143 0 262 113h15l108 -113l-4 -18q-173 -173 -410 -175q-215 0 -355 140t-140 358q0 139 59.5 259t167.5 198q157 119 367 119
q259 0 407 -193l-4 -16l-137 -107h-18q-100 123 -252 123q-149 0 -246 -86z" />
    <glyph glyph-name="Dcaron" unicode="&#x10e;" horiz-adv-x="1470" 
d="M1286 1679l-381 -202h-20l-312 202l2 17l74 90h17l245 -133l318 145h16l43 -102zM410 1331h546q264 0 414 -151q150 -152 150 -402q0 -352 -215 -565t-576 -213h-559zM432 193h313q251 0 396 153q145 151 145 410q0 176 -98 280q-97 103 -275 103h-313z" />
    <glyph glyph-name="dcaron" unicode="&#x10f;" horiz-adv-x="1341" 
d="M1581 1452h184l9 -14l-193 -385l-16 -15h-113l-12 15l123 385zM1069 872l90 506l207 19l16 -13l-247 -1384h-195l21 121q-149 -144 -340 -146q-197 0 -327 141q-130 139 -130 349q0 245 159 415q157 169 394 169q233 0 352 -177zM674 168q152 0 249 109q97 107 97 268
q0 135 -79 223t-208 88q-151 0 -249 -108q-97 -109 -97 -269q0 -138 79 -224q80 -87 208 -87z" />
    <glyph glyph-name="Dcroat" unicode="&#x110;" horiz-adv-x="1517" 
d="M428 1331h547q264 0 414 -151q149 -152 149 -402q0 -352 -215 -565t-575 -213h-560l105 578h-137l30 180h140zM451 193h313q250 0 396 153q145 151 145 410q0 176 -98 280q-99 103 -275 103h-314l-67 -381h348l-33 -180h-348z" />
    <glyph glyph-name="dslash" unicode="&#x111;" horiz-adv-x="1271" 
d="M1354 1260h145l-24 -138h-146l-201 -1122h-194l20 121q-149 -144 -340 -146q-197 0 -326 141q-130 139 -130 349q0 246 160 415q159 169 395 169q231 0 350 -177l45 250h-272l26 138h271l24 137l207 18l16 -12zM670 168q151 0 248 109q98 109 98 268q0 135 -79 223
t-208 88q-153 0 -251 -108q-97 -109 -97 -269q0 -138 79 -224q80 -87 210 -87z" />
    <glyph glyph-name="Emacron" unicode="&#x112;" horiz-adv-x="1167" 
d="M565 1503l29 162h616l-28 -162h-617zM1317 1331l-35 -192h-680l-70 -377h539l-35 -184h-536l-70 -385h684l-35 -193h-909l240 1331h907z" />
    <glyph glyph-name="emacron" unicode="&#x113;" horiz-adv-x="1169" 
d="M512 1391h602l-29 -162h-602zM760 1049q230 0 355 -158t81 -367q-6 -24 -18 -67h-799q-12 -144 73 -223q86 -80 216 -80q186 0 321 135h19l90 -103l-2 -16q-186 -195 -459 -195q-229 0 -365 154t-108 383q12 132 78 244t174 184q151 109 344 109zM406 610h587
q4 103 -47 174q-62 90 -205 90q-130 0 -221 -77q-79 -67 -114 -187z" />
    <glyph glyph-name="Edotaccent" unicode="&#x116;" horiz-adv-x="1167" 
d="M877 1481q-56 0 -96 40q-42 40 -42 95q0 70 52 121q51 51 122 51q58 0 98 -40t40 -95q0 -70 -51 -121t-123 -51zM1317 1331l-35 -192h-680l-70 -377h539l-35 -184h-536l-70 -385h684l-35 -193h-909l240 1331h907z" />
    <glyph glyph-name="edotaccent" unicode="&#x117;" horiz-adv-x="1169" 
d="M786 1198q-56 0 -97 39q-40 39 -40 94q0 72 52 123q51 51 122 51q56 0 97 -40q41 -41 41 -95q0 -73 -52 -122q-53 -50 -123 -50zM760 1049q230 0 355 -158t81 -367q-6 -24 -18 -67h-799q-12 -144 73 -223q86 -80 216 -80q186 0 321 135h19l90 -103l-2 -16
q-186 -195 -459 -195q-229 0 -365 154t-108 383q12 132 78 244t174 184q151 109 344 109zM406 610h587q4 103 -47 174q-62 90 -205 90q-130 0 -221 -77q-79 -67 -114 -187z" />
    <glyph glyph-name="Eogonek" unicode="&#x118;" horiz-adv-x="1167" 
d="M1317 1331l-35 -192h-680l-70 -377h539l-35 -184h-536l-70 -385h684l-35 -193l-20 -16q-20 -18 -54 -52q-21 -19 -28 -32q-45 -70 -41 -111q0 -43 27.5 -69.5t74.5 -26.5q34 0 95 24l14 -4l27 -94l-5 -16q-91 -49 -180 -49q-101 0 -162 52q-63 52 -63 138q0 139 141 256
h-735l240 1331h907z" />
    <glyph glyph-name="eogonek" unicode="&#x119;" horiz-adv-x="1169" 
d="M760 1049q230 0 355 -158t81 -367q-6 -24 -18 -67h-799q-12 -144 73 -223q86 -80 216 -80q186 0 321 135h19l90 -103l-2 -16q-117 -120 -273 -166q-43 -38 -60 -54q-18 -17 -46 -62q-29 -47 -29 -89q0 -43 28 -69.5t75 -26.5q34 0 94 25l14 -4l27 -95l-4 -16
q-91 -49 -181 -49q-101 0 -162 52q-63 52 -63 138q0 118 105 221q-224 6 -354 160q-131 154 -103 377q12 132 78 244t174 184q151 109 344 109zM406 610h587q4 103 -47 174q-62 90 -205 90q-130 0 -221 -77q-79 -67 -114 -187z" />
    <glyph glyph-name="Ecaron" unicode="&#x11a;" horiz-adv-x="1167" 
d="M1262 1679l-381 -202h-21l-311 202l2 17l74 90h16l246 -133l317 145h17l43 -102zM1317 1331l-35 -192h-680l-70 -377h539l-35 -184h-536l-70 -385h684l-35 -193h-909l240 1331h907z" />
    <glyph glyph-name="ecaron" unicode="&#x11b;" horiz-adv-x="1169" 
d="M1147 1360l-363 -205h-28l-291 205l4 12l86 92h12l224 -133l290 146h13l55 -105zM760 1049q230 0 355 -158t81 -367q-6 -24 -18 -67h-799q-12 -144 73 -223q86 -80 216 -80q186 0 321 135h19l90 -103l-2 -16q-186 -195 -459 -195q-229 0 -365 154t-108 383q12 132 78 244
t174 184q151 109 344 109zM406 610h587q4 103 -47 174q-62 90 -205 90q-130 0 -221 -77q-79 -67 -114 -187z" />
    <glyph glyph-name="Gbreve" unicode="&#x11e;" horiz-adv-x="1490" 
d="M991 1462q-126 0 -202 84q-78 83 -70 217h162q-2 -71 34 -112t99 -41q120 0 172 153h162q-39 -136 -136 -218q-98 -83 -221 -83zM831 -25q-280 0 -462 181q-183 180 -183 458q0 180 81 339q81 158 227 261q200 140 454 142q172 0 315 -77q142 -76 222 -202l-4 -16
l-158 -115h-16q-57 90 -156 147q-101 56 -219 56q-191 0 -328 -115q-188 -155 -188 -403q0 -198 124 -323q124 -126 314 -126q170 5 285 94q131 100 168 285h-439l35 178h633l16 -14q0 -35 -6 -78q-51 -343 -264 -518q-182 -154 -451 -154z" />
    <glyph glyph-name="gbreve" unicode="&#x11f;" horiz-adv-x="1228" 
d="M766 1184q-133 0 -212 85q-79 84 -71 216h162q0 -69 38 -111.5t100 -42.5q61 0 112 42t74 112h164q-39 -135 -137 -218q-100 -83 -230 -83zM1051 881l26 143h193l-156 -866q-43 -244 -199 -367q-157 -123 -378 -123q-148 0 -274 59q-124 60 -181 156l2 17l121 112h16
q46 -77 134.5 -122.5t197.5 -45.5q133 0 227 72q93 71 119 213l10 57q-142 -104 -305 -104q-184 0 -306 123q-122 124 -122 313q0 128 55 238.5t154 185.5q134 105 318 107q181 0 309 -123q20 -20 39 -45zM881 338q113 97 112 256q0 120 -72 200q-73 78 -198 78
q-135 0 -229 -94q-93 -96 -95 -243q0 -122 73 -199q74 -78 194 -78q124 0 215 80z" />
    <glyph glyph-name="Gdotaccent" unicode="&#x120;" horiz-adv-x="1490" 
d="M989 1483q-56 0 -96 40q-41 41 -41 95q0 70 51 121t123 51q57 0 97 -40t40 -95q0 -70 -51 -121t-123 -51zM831 -25q-280 0 -462 181q-183 180 -183 458q0 180 81 339q81 158 227 261q200 140 454 142q172 0 315 -77q142 -76 222 -202l-4 -16l-158 -115h-16
q-57 90 -156 147q-101 56 -219 56q-191 0 -328 -115q-188 -155 -188 -403q0 -198 124 -323q124 -126 314 -126q170 5 285 94q131 100 168 285h-439l35 178h633l16 -14q0 -35 -6 -78q-51 -343 -264 -518q-182 -154 -451 -154z" />
    <glyph glyph-name="gdotaccent" unicode="&#x121;" horiz-adv-x="1228" 
d="M766 1198q-56 0 -97 39q-40 39 -40 94q0 72 51 123t123 51q56 0 96 -40q41 -41 41 -95q0 -73 -52 -122q-53 -50 -122 -50zM1051 881l26 143h193l-156 -866q-43 -244 -199 -367q-157 -123 -378 -123q-148 0 -274 59q-124 60 -181 156l2 17l121 112h16q46 -77 134.5 -122.5
t197.5 -45.5q133 0 227 72q93 71 119 213l10 57q-142 -104 -305 -104q-184 0 -306 123q-122 124 -122 313q0 128 55 238.5t154 185.5q134 105 318 107q181 0 309 -123q20 -20 39 -45zM881 338q113 97 112 256q0 120 -72 200q-73 78 -198 78q-135 0 -229 -94
q-93 -96 -95 -243q0 -122 73 -199q74 -78 194 -78q124 0 215 80z" />
    <glyph glyph-name="uni0122" unicode="&#x122;" horiz-adv-x="1490" 
d="M831 -25q-280 0 -462 181q-183 180 -183 458q0 180 81 339q81 158 227 261q200 140 454 142q172 0 315 -77q142 -76 222 -202l-4 -16l-158 -115h-16q-57 90 -156 147q-101 56 -219 56q-191 0 -328 -115q-188 -155 -188 -403q0 -198 124 -323q124 -126 314 -126
q170 5 285 94q131 100 168 285h-439l35 178h633l16 -14q0 -35 -6 -78q-51 -343 -264 -518q-182 -154 -451 -154zM563 -479l111 358l18 15h178l9 -15l-174 -358l-19 -15h-113z" />
    <glyph glyph-name="uni0123" unicode="&#x123;" horiz-adv-x="1228" 
d="M856 1169l-18 -14h-179l-8 14l174 359l19 14h112l11 -14zM1051 881l26 143h193l-156 -866q-43 -244 -199 -367q-157 -123 -378 -123q-148 0 -274 59q-124 60 -181 156l2 17l121 112h16q46 -77 134.5 -122.5t197.5 -45.5q133 0 227 72q93 71 119 213l10 57
q-142 -104 -305 -104q-184 0 -306 123q-122 124 -122 313q0 128 55 238.5t154 185.5q134 105 318 107q181 0 309 -123q20 -20 39 -45zM881 338q113 97 112 256q0 120 -72 200q-73 78 -198 78q-135 0 -229 -94q-93 -96 -95 -243q0 -122 73 -199q74 -78 194 -78q124 0 215 80z
" />
    <glyph glyph-name="Hbar" unicode="&#x126;" horiz-adv-x="1490" 
d="M1489 1116h106l-28 -149h-105l-174 -969h-227l102 573h-655l-102 -573h-228l174 969h-108l26 149h109l39 213h227l-39 -213h656l38 213h228zM541 764h655l37 203h-655z" />
    <glyph glyph-name="hbar" unicode="&#x127;" horiz-adv-x="1210" 
d="M854 1049q183 0 278 -122q93 -121 58 -313l-111 -614h-225l107 598q25 130 -35 201q-51 57 -152 57q-156 0 -242 -113q-39 -53 -59 -145l-108 -598h-222l201 1118h-145l24 139h148l24 140l207 18l16 -12l-26 -146h278l-26 -139h-279l-35 -192q129 123 324 123z" />
    <glyph glyph-name="Itilde" unicode="&#x128;" horiz-adv-x="567" 
d="M696 1505q-55 0 -151 39t-146 39q-86 0 -125 -76h-18l-8 11l24 157q57 84 152 84q56 0 156 -39q101 -39 139 -39q89 0 129 76h16l6 -10l-24 -158q-56 -84 -150 -84zM170 0l240 1331h227l-240 -1331h-227z" />
    <glyph glyph-name="itilde" unicode="&#x129;" horiz-adv-x="516" 
d="M612 1217q-48 0 -145 38q-95 37 -143 37q-88 0 -131 -73h-19l-8 10l22 145q67 84 158 84q54 0 152 -37q96 -37 135 -37q89 0 133 72h16l11 -8l-27 -148q-59 -83 -154 -83zM369 0h-222l185 1024h221z" />
    <glyph glyph-name="Imacron" unicode="&#x12a;" horiz-adv-x="567" 
d="M264 1503l25 162h555l-27 -162h-553zM170 0l240 1331h227l-240 -1331h-227z" />
    <glyph glyph-name="imacron" unicode="&#x12b;" horiz-adv-x="516" 
d="M182 1229l27 162h561l-29 -162h-559zM369 0h-222l185 1024h221z" />
    <glyph glyph-name="Iogonek" unicode="&#x12e;" horiz-adv-x="567" 
d="M451 -283l14 -4l27 -94l-5 -16q-91 -49 -180 -49q-101 0 -162 52q-63 52 -63 138q0 139 141 256h-53l240 1331h227l-240 -1331l-20 -16q-20 -18 -54 -52q-21 -19 -28 -32q-45 -70 -41 -111q0 -43 27.5 -69.5t74.5 -26.5q34 -1 95 24z" />
    <glyph glyph-name="iogonek" unicode="&#x12f;" horiz-adv-x="516" 
d="M504 1505q56 0 96 -40q41 -41 41 -95q0 -73 -52 -122q-53 -50 -122 -50q-56 0 -97 39q-40 39 -40 94q0 72 51 123t123 51zM553 1024l-184 -1024l-21 -16q-20 -18 -54 -52q-21 -19 -28 -32q-41 -71 -41 -111q0 -43 28 -69.5t75 -26.5q32 0 94 24l14 -4l27 -94l-4 -16
q-91 -49 -180 -49q-101 0 -163 52q-63 52 -63 138q0 139 142 256h-48l185 1024h221z" />
    <glyph glyph-name="Idot" unicode="&#x130;" horiz-adv-x="567" 
d="M547 1481q-56 0 -96 40q-41 41 -41 95q0 70 51 121t123 51q57 0 97 -40t40 -95q0 -70 -51 -121t-123 -51zM170 0l240 1331h227l-240 -1331h-227z" />
    <glyph glyph-name="dotlessi" unicode="&#x131;" horiz-adv-x="516" 
d="M369 0h-222l185 1024h221z" />
    <glyph glyph-name="IJ" unicode="&#x132;" horiz-adv-x="1484" 
d="M170 0l240 1331h227l-240 -1331h-227zM1180 426l161 905h228l-156 -870q-90 -484 -491 -486q-142 0 -242 63q-102 61 -150 152l2 17l146 119h18q26 -58 87 -101q61 -45 147 -45q94 0 161.5 64.5t88.5 181.5z" />
    <glyph glyph-name="ij" unicode="&#x133;" horiz-adv-x="1021" 
d="M473 1196q-55 0 -91 39t-36 94q0 71 57 124q55 52 125 52q54 0 92 -39q37 -38 37 -94q0 -70 -56 -123t-128 -53zM981 1196q-54 0 -90.5 38t-36.5 93q0 72 56 125t124 53q56 0 94 -39q37 -38 37 -94q0 -70 -56 -123t-128 -53zM369 0h-222l185 1024h221zM549 -340h-17
l-53 162l4 16q89 45 130 99q40 55 61 169l166 918h221l-164 -920q-33 -182 -107 -278q-75 -94 -241 -166z" />
    <glyph glyph-name="uni0136" unicode="&#x136;" horiz-adv-x="1251" 
d="M1460 1331l8 -18l-641 -576l414 -719l-14 -18h-236l-344 604l-168 -151l-82 -453h-227l240 1331h227l-109 -608l674 608h258zM580 -121l18 15h178l8 -15l-174 -358l-18 -15h-113l-10 15z" />
    <glyph glyph-name="uni0137" unicode="&#x137;" horiz-adv-x="1071" 
d="M1225 1024l8 -16l-463 -420l293 -572l-12 -16h-230l-231 471l-166 -152l-57 -319h-224l250 1378l207 19l16 -13l-149 -825l512 465h246zM483 -121l19 15h178l8 -15l-174 -358l-18 -15h-113l-10 15z" />
    <glyph glyph-name="kgreenlandic" unicode="&#x138;" horiz-adv-x="1071" 
d="M1225 1024l8 -16l-463 -420l293 -572l-12 -16h-230l-231 471l-166 -152l-57 -319h-224l185 1024l207 18l16 -12l-84 -473l512 467h246z" />
    <glyph glyph-name="Lacute" unicode="&#x139;" horiz-adv-x="1021" 
d="M272 1571l426 256h17l84 -146l-2 -16l-451 -205h-16l-62 94zM430 193h600l-33 -193h-827l240 1331h227z" />
    <glyph glyph-name="lacute" unicode="&#x13a;" horiz-adv-x="516" 
d="M248 1571l426 256h16l84 -146l-2 -16l-450 -205h-17l-61 94zM369 0h-222l248 1378l207 19l16 -13z" />
    <glyph glyph-name="uni013B" unicode="&#x13b;" horiz-adv-x="1021" 
d="M430 193h600l-33 -193h-827l240 1331h227zM375 -479l110 358l19 15h178l8 -15l-174 -358l-18 -15h-113z" />
    <glyph glyph-name="uni013C" unicode="&#x13c;" horiz-adv-x="516" 
d="M369 0h-222l248 1378l207 19l16 -13zM23 -479l110 358l19 15h178l8 -15l-174 -358l-19 -15h-112z" />
    <glyph glyph-name="Lcaron" unicode="&#x13d;" horiz-adv-x="1021" 
d="M745 1053l123 387l17 12h184l10 -12l-192 -387l-19 -13h-112zM430 193h600l-33 -193h-827l240 1331h227z" />
    <glyph glyph-name="lcaron" unicode="&#x13e;" horiz-adv-x="575" 
d="M676 1053l123 385l18 14h182l9 -14l-193 -385l-16 -15h-113zM369 0h-222l248 1378l207 19l16 -13z" />
    <glyph glyph-name="Ldot" unicode="&#x13f;" horiz-adv-x="1056" 
d="M430 193h600l-33 -193h-827l240 1331h227zM889 571q-52 0 -89 37q-38 38 -38 88q0 66 48 113q49 47 114 47q53 0 90 -37t37 -88q0 -67 -48 -113q-49 -47 -114 -47z" />
    <glyph glyph-name="ldot" unicode="&#x140;" horiz-adv-x="649" 
d="M369 0h-222l248 1378l207 19l16 -13zM692 575q-52 0 -92 38q-39 37 -39 89q0 68 49 117t115 49q54 0 92 -37q39 -37 39 -92q0 -68 -49 -116t-115 -48z" />
    <glyph glyph-name="Lslash" unicode="&#x141;" horiz-adv-x="1120" 
d="M573 578l-69 -385h600l-33 -193h-827l84 469l-187 -82l-14 10l31 185l207 92l118 657h228l-101 -549l285 127l14 -10l-30 -186z" />
    <glyph glyph-name="lslash" unicode="&#x142;" horiz-adv-x="692" 
d="M791 944l16 -10l-31 -160l-196 -94l-123 -680h-221l102 563l-182 -86l-15 8l29 160l199 96l114 637l207 19l17 -13l-95 -526z" />
    <glyph glyph-name="Nacute" unicode="&#x143;" horiz-adv-x="1435" 
d="M1272 1665l-451 -205h-16l-62 94l5 17l426 256h16l84 -146zM1116 401l168 930h221l-243 -1345h-127l-578 929l-164 -915h-223l240 1331h129z" />
    <glyph glyph-name="nacute" unicode="&#x144;" horiz-adv-x="1210" 
d="M1108 1380l-438 -225h-15l-61 100l2 13l418 274h14l82 -149zM854 1049q184 0 279 -122q94 -121 59 -313l-111 -614h-225l107 598q21 122 -28.5 190t-164.5 68q-150 0 -231 -106q-49 -61 -64 -152l-106 -598h-226l185 1024h194l-24 -135q130 160 356 160z" />
    <glyph glyph-name="uni0145" unicode="&#x145;" horiz-adv-x="1435" 
d="M1116 401l168 930h221l-243 -1345h-127l-578 929l-164 -915h-223l240 1331h129zM633 -121l18 15h178l9 -15l-174 -358l-19 -15h-113l-10 15z" />
    <glyph glyph-name="uni0146" unicode="&#x146;" horiz-adv-x="1210" 
d="M854 1049q184 0 279 -122q94 -121 59 -313l-111 -614h-225l107 598q21 122 -28.5 190t-164.5 68q-150 0 -231 -106q-49 -61 -64 -152l-106 -598h-226l185 1024h194l-24 -135q130 160 356 160zM504 -121l18 15h178l9 -15l-174 -358l-19 -15h-113l-10 15z" />
    <glyph glyph-name="Ncaron" unicode="&#x147;" horiz-adv-x="1435" 
d="M1354 1679l-381 -202h-21l-311 202l2 17l74 90h16l246 -133l317 145h17l43 -102zM1116 401l168 930h221l-243 -1345h-127l-578 929l-164 -915h-223l240 1331h129z" />
    <glyph glyph-name="ncaron" unicode="&#x148;" horiz-adv-x="1210" 
d="M1141 1477h12l55 -105l-2 -12l-362 -205h-29l-291 205l4 12l86 92h13l223 -133zM854 1049q184 0 279 -122q94 -121 59 -313l-111 -614h-225l107 598q21 122 -28.5 190t-164.5 68q-150 0 -231 -106q-49 -61 -64 -152l-106 -598h-226l185 1024h194l-24 -135
q130 160 356 160z" />
    <glyph glyph-name="napostrophe" unicode="&#x149;" horiz-adv-x="1216" 
d="M440 1167l-18 -12h-115l-8 12l115 361l16 12h184l9 -12zM860 1049q186 0 279 -121q91 -122 57 -312l-111 -616h-223l107 598q20 119 -32 188.5t-163 69.5q-110 0 -190 -70q-82 -70 -103 -188l-14 -76l-94 -522h-223l184 1024h192l-24 -135q145 160 358 160z" />
    <glyph glyph-name="Eng" unicode="&#x14a;" horiz-adv-x="1435" 
d="M821 -461q-111 0 -200 47t-138 125l2 19l136 104h18q57 -104 186 -104q87 0 146 63t80 176l20 119l-514 827l-164 -915h-223l240 1331h129l575 -932l170 932h221l-245 -1362q-37 -207 -154 -319q-117 -111 -285 -111z" />
    <glyph glyph-name="eng" unicode="&#x14b;" horiz-adv-x="1210" 
d="M854 1049q184 0 279 -122q94 -121 59 -313l-84 -471q-33 -182 -120 -290q-88 -108 -245 -172h-16l-45 153l4 16q92 44 131 104q42 63 64 181l82 463q20 120 -28.5 189t-158.5 69q-168 0 -252 -127q-32 -44 -49 -131l-106 -598h-226l185 1024h194l-24 -135
q130 160 356 160z" />
    <glyph glyph-name="Omacron" unicode="&#x14c;" horiz-adv-x="1556" 
d="M702 1503l29 162h617l-29 -162h-617zM846 -25q-284 0 -469 181q-187 180 -187 460q0 171 70 319t199 253q209 168 489 168q282 0 470 -180q186 -182 186 -461q0 -171 -71 -321t-200 -253q-211 -166 -487 -166zM860 182q186 0 322 111q196 156 194 407q0 196 -125 323
q-125 126 -317 126q-186 0 -322 -111q-196 -156 -194 -407q0 -196 125 -323q125 -126 317 -126z" />
    <glyph glyph-name="omacron" unicode="&#x14d;" horiz-adv-x="1230" 
d="M504 1229l28 162h603l-29 -162h-602zM666 -25q-219 0 -362 140q-144 139 -144 358q0 139 59.5 259t167.5 198q157 119 365 119q220 0 362 -139q143 -140 143 -359q0 -279 -215 -449q-160 -127 -376 -127zM680 168q133 0 229 84q127 109 127 287q0 139 -84 228t-215 89
q-133 0 -229 -84q-127 -109 -127 -287q0 -139 84 -228t215 -89z" />
    <glyph glyph-name="Ohungarumlaut" unicode="&#x150;" horiz-adv-x="1556" 
d="M723 1470l227 324h197l8 -16l-283 -322h-143zM1065 1470l225 324h197l8 -16l-283 -322h-143zM846 -25q-284 0 -469 181q-187 180 -187 460q0 171 70 319t199 253q209 168 489 168q282 0 470 -180q186 -182 186 -461q0 -171 -71 -321t-200 -253q-211 -166 -487 -166z
M860 182q186 0 322 111q196 156 194 407q0 196 -125 323q-125 126 -317 126q-186 0 -322 -111q-196 -156 -194 -407q0 -196 125 -323q125 -126 317 -126z" />
    <glyph glyph-name="ohungarumlaut" unicode="&#x151;" horiz-adv-x="1230" 
d="M522 1167l195 353l18 14h183l8 -14l-260 -353l-19 -14h-115zM836 1167l194 353l19 14h182l10 -14l-262 -353l-18 -14h-115zM666 -25q-219 0 -362 140q-144 139 -144 358q0 139 59.5 259t167.5 198q157 119 365 119q220 0 362 -139q143 -140 143 -359q0 -279 -215 -449
q-160 -127 -376 -127zM680 168q133 0 229 84q127 109 127 287q0 139 -84 228t-215 89q-133 0 -229 -84q-127 -109 -127 -287q0 -139 84 -228t215 -89z" />
    <glyph glyph-name="OE" unicode="&#x152;" horiz-adv-x="2306" 
d="M2408 1331l-34 -192h-682l-68 -377h537l-33 -184h-537l-71 -385h684l-33 -193h-879l29 162q-212 -185 -477 -187q-283 0 -467 181q-184 180 -184 458q0 182 81 340q79 157 226 260q199 140 450 142q165 0 304 -71q138 -71 223 -191l43 237h888zM1190 299q186 155 186 401
q0 196 -125 323q-125 126 -315 126q-181 0 -318 -107q-94 -75 -146 -182t-52 -229q0 -196 125 -323q125 -126 316 -126q189 0 329 117z" />
    <glyph glyph-name="oe" unicode="&#x153;" horiz-adv-x="2039" 
d="M1628 1049q233 0 356 -158q123 -157 82 -367q-7 -40 -20 -67h-797q-12 -143 72 -223q85 -80 215 -80q186 0 322 135h18l92 -103l-4 -16q-92 -98 -214 -146q-120 -49 -245 -49q-263 0 -397 197q-35 -43 -72 -70q-161 -127 -370 -127q-219 0 -362 140q-144 139 -144 358
q0 139 59.5 259t167.5 198q157 119 365 119q136 0 244 -56t171 -159q52 61 117 106q151 109 344 109zM1274 600h586q10 127 -58 201q-69 73 -192 73q-126 0 -214.5 -73t-121.5 -201zM909 252q127 109 127 287q0 139 -84 228t-215 89q-133 0 -229 -84q-127 -109 -127 -287
q0 -139 84 -228t215 -89q133 0 229 84z" />
    <glyph glyph-name="Racute" unicode="&#x154;" horiz-adv-x="1271" 
d="M1163 1665l-450 -205h-17l-61 94l4 17l426 256h16l84 -146zM1352 993q0 -167 -90 -280t-254 -154l180 -541l-14 -18h-222l-176 535h-284l-95 -535h-227l240 1331h528q201 0 307.5 -89t106.5 -249zM522 702h328q121 0 193 72q71 73 71 184q0 83 -52.5 132t-143.5 49h-316z
" />
    <glyph glyph-name="racute" unicode="&#x155;" horiz-adv-x="770" 
d="M920 1380l-439 -225h-14l-61 100l2 13l417 274h15l82 -149zM946 1016l6 -17l-84 -168l-18 -8q-46 29 -113 29q-139 0 -213 -117q-38 -57 -63 -207l-94 -528h-224l185 1024h192l-22 -133q51 63 106 100q82 56 189 58q87 0 153 -33z" />
    <glyph glyph-name="uni0156" unicode="&#x156;" horiz-adv-x="1271" 
d="M1352 993q0 -167 -90 -280t-254 -154l180 -541l-14 -18h-222l-176 535h-284l-95 -535h-227l240 1331h528q201 0 307.5 -89t106.5 -249zM522 702h328q121 0 193 72q71 73 71 184q0 83 -52.5 132t-143.5 49h-316zM539 -121l18 15h178l8 -15l-174 -358l-18 -15h-113l-10 15z
" />
    <glyph glyph-name="uni0157" unicode="&#x157;" horiz-adv-x="770" 
d="M946 1016l6 -17l-84 -168l-18 -8q-46 29 -113 29q-139 0 -213 -117q-38 -57 -63 -207l-94 -528h-224l185 1024h192l-22 -133q51 63 106 100q82 56 189 58q87 0 153 -33zM129 -121l18 15h179l8 -15l-174 -358l-19 -15h-112l-11 15z" />
    <glyph glyph-name="Rcaron" unicode="&#x158;" horiz-adv-x="1271" 
d="M1245 1679l-381 -202h-20l-312 202l3 17l73 90h17l245 -133l318 145h16l43 -102zM1352 993q0 -167 -90 -280t-254 -154l180 -541l-14 -18h-222l-176 535h-284l-95 -535h-227l240 1331h528q201 0 307.5 -89t106.5 -249zM522 702h328q121 0 193 72q71 73 71 184
q0 83 -52.5 132t-143.5 49h-316z" />
    <glyph glyph-name="rcaron" unicode="&#x159;" horiz-adv-x="770" 
d="M952 1477h13l55 -105l-2 -12l-363 -205h-28l-291 205l4 12l86 92h12l224 -133zM793 1049q89 0 153 -33l6 -17l-84 -168l-18 -8q-46 29 -113 29q-139 0 -213 -117q-38 -57 -63 -207l-94 -528h-224l185 1024h192l-22 -133q51 63 106 100q82 58 189 58z" />
    <glyph glyph-name="Sacute" unicode="&#x15a;" horiz-adv-x="1130" 
d="M614 1571l426 256h17l84 -146l-2 -16l-451 -205h-16l-62 94zM604 -25q-162 0 -300 69q-137 68 -202 185l2 19l138 121h16q50 -93 153 -145q103 -54 207 -54q128 0 202 55q75 54 75 146q0 80 -68 124q-39 25 -63 39q-22 11 -93 40q-67 25 -91 36q-112 46 -191 111
q-98 81 -98 225q0 182 138 296t362 114q145 0 265 -56q118 -57 171 -147l-4 -18l-133 -121h-17q-44 70 -123.5 111.5t-177.5 41.5q-111 0 -181 -52q-71 -53 -71 -138q0 -68 63 -111q34 -25 58 -36q17 -9 76 -35q15 -5 35 -15q44 -18 109 -46q32 -15 96 -53q60 -37 89 -69
q78 -90 78 -209q0 -205 -143 -316q-143 -112 -377 -112z" />
    <glyph glyph-name="sacute" unicode="&#x15b;" horiz-adv-x="923" 
d="M430 1268l418 274h14l82 -149l-2 -13l-438 -225h-15l-61 100zM481 -27q-136 0 -243 52q-108 50 -158 137l2 16l131 111h16q31 -56 108 -97q76 -40 161 -40q86 0 135 38.5t49 102.5q0 50 -36.5 82t-121.5 69q-14 6 -16 7q-123 46 -194 110q-72 61 -72 168q0 143 111 233
q110 89 288 89q113 0 212 -47q97 -48 144 -123l-2 -19l-129 -104h-16q-36 53 -100 86t-127 33q-75 0 -118.5 -34t-43.5 -89q0 -28 24 -53.5t56 -41.5q18 -10 94 -45q128 -58 198 -125q68 -68 68 -178q0 -155 -116 -247q-115 -91 -304 -91z" />
    <glyph glyph-name="Scedilla" unicode="&#x15e;" horiz-adv-x="1130" 
d="M772 1167q-111 0 -181 -52q-71 -53 -71 -138q0 -68 63 -111q34 -25 58 -36q17 -9 76 -35q15 -5 35 -15q44 -18 109 -46q32 -15 96 -53q60 -37 89 -69q78 -90 78 -209q0 -188 -122 -298q-124 -112 -330 -128l-29 -65q98 0 155.5 -47.5t57.5 -126.5q0 -113 -90 -182
q-91 -68 -229 -68q-147 0 -244 82l4 16l76 90h18q63 -51 150 -51q67 0 104 26.5t37 76.5q0 54 -66 71q-68 17 -151 -4l-31 23l80 164q-136 17 -246 82q-112 64 -166 165l2 19l138 121h16q50 -93 153 -145q103 -54 207 -54q128 0 202 55q75 54 75 146q0 80 -68 124
q-39 25 -63 39q-22 11 -93 40q-67 25 -91 36q-112 46 -191 111q-98 81 -98 225q0 182 138 296t362 114q145 0 265 -56q118 -57 171 -147l-4 -18l-133 -121h-17q-44 70 -123.5 111.5t-177.5 41.5z" />
    <glyph glyph-name="scedilla" unicode="&#x15f;" horiz-adv-x="923" 
d="M623 877q-75 0 -118.5 -34t-43.5 -89q0 -28 24 -53.5t56 -41.5q18 -10 94 -45q128 -58 198 -125q68 -68 68 -178q0 -137 -93 -226q-93 -88 -251 -108l-29 -65q98 0 155.5 -47.5t57.5 -126.5q0 -113 -90 -182q-91 -68 -229 -68q-147 0 -244 82l4 16l76 90h18
q63 -51 150 -51q67 0 104 26.5t37 76.5q0 54 -66 71q-68 17 -151 -4l-31 23l80 162q-109 14 -193.5 62t-125.5 120l2 16l131 111h16q31 -56 108 -97q76 -40 161 -40q86 0 135 38.5t49 102.5q0 50 -36.5 82t-121.5 69q-14 6 -16 7q-123 46 -194 110q-72 61 -72 168
q0 143 111 233q110 89 288 89q113 0 212 -47q97 -48 144 -123l-2 -19l-129 -104h-16q-36 53 -100 86t-127 33z" />
    <glyph glyph-name="Scaron" unicode="&#x160;" horiz-adv-x="1130" 
d="M1221 1679l-381 -202h-21l-311 202l2 17l74 90h16l246 -133l317 145h17l43 -102zM772 1167q-111 0 -181 -52q-71 -53 -71 -138q0 -68 63 -111q34 -25 58 -36q17 -9 76 -35q15 -5 35 -15q44 -18 109 -46q32 -15 96 -53q60 -37 89 -69q78 -90 78 -209q0 -205 -143 -316
q-142 -112 -377 -112q-162 0 -300 69q-137 68 -202 185l2 19l138 121h16q50 -93 153 -145q103 -54 207 -54q128 0 202 55q75 54 75 146q0 80 -68 124q-39 25 -63 39q-22 11 -93 40q-67 25 -91 36q-112 46 -191 111q-98 81 -98 225q0 182 138 296t362 114q145 0 265 -56
q118 -57 171 -147l-4 -18l-133 -121h-17q-44 70 -123.5 111.5t-177.5 41.5z" />
    <glyph glyph-name="scaron" unicode="&#x161;" horiz-adv-x="923" 
d="M975 1477h12l55 -105l-2 -12l-362 -205h-29l-291 205l4 12l87 92h12l223 -133zM641 1051q113 0 212 -47q97 -48 144 -123l-2 -19l-129 -104h-16q-36 53 -100 86t-127 33q-75 0 -118.5 -34t-43.5 -89q0 -28 24 -53.5t56 -41.5q18 -10 94 -45q128 -58 198 -125
q68 -68 68 -178q0 -156 -115 -247t-305 -91q-136 0 -243 52q-108 50 -158 137l2 16l131 111h16q31 -56 108 -97q76 -40 161 -40q86 0 135 38.5t49 102.5q0 50 -36.5 82t-121.5 69q-14 6 -16 7q-123 46 -194 110q-72 61 -72 168q0 143 111 233q110 89 288 89z" />
    <glyph glyph-name="uni0162" unicode="&#x162;" horiz-adv-x="1120" 
d="M229 1139l37 192h1069l-35 -192h-423l-203 -1139h-33l-39 -88q98 0 155.5 -47.5t57.5 -126.5q0 -113 -90 -182q-91 -68 -229 -68q-147 0 -244 82l4 16l76 90h18q63 -51 150 -51q67 0 104 26.5t37 76.5q0 54 -66 71q-68 17 -151 -4l-31 23l90 182h-37l205 1139h-422z" />
    <glyph glyph-name="uni0163" unicode="&#x163;" horiz-adv-x="786" 
d="M887 850h-303l-95 -520q-29 -162 113 -162q72 0 121 43l18 -6l39 -142l-10 -18q-93 -60 -190 -68l-29 -65q98 0 155.5 -47.5t57.5 -126.5q0 -113 -90 -182q-91 -68 -230 -68q-148 0 -243 82l4 16l76 90h18q63 -51 150 -51q67 0 104 26.5t37 76.5q0 54 -66 71
q-68 17 -151 -4l-31 23l86 174q-208 61 -162 323l94 535h-170l29 174h174l56 315l208 19l15 -12l-58 -322h304z" />
    <glyph glyph-name="Tcaron" unicode="&#x164;" horiz-adv-x="1120" 
d="M1198 1679l-381 -202h-20l-312 202l2 17l74 90h17l245 -133l318 145h16l43 -102zM229 1139l37 192h1069l-35 -192h-423l-203 -1139h-228l205 1139h-422z" />
    <glyph glyph-name="tcaron" unicode="&#x165;" horiz-adv-x="786" 
d="M866 1153l-18 -12h-113l-10 12l123 387l16 12h185l10 -12zM657 1358l15 -12l-58 -322h304l-31 -174h-303l-95 -520q-29 -162 113 -162q72 0 121 43l18 -6l39 -142l-10 -18q-103 -70 -221 -70q-156 0 -234 85q-79 85 -49 255l94 535h-170l29 174h174l56 315z" />
    <glyph glyph-name="Tbar" unicode="&#x166;" horiz-adv-x="1120" 
d="M1335 1331l-35 -192h-423l-78 -432h223l-27 -150h-223l-98 -557h-228l101 557h-223l28 150h221l78 432h-422l37 192h1069z" />
    <glyph glyph-name="tbar" unicode="&#x167;" horiz-adv-x="786" 
d="M918 1024l-31 -174h-303l-43 -238h239l-24 -137h-240l-27 -145q-29 -162 113 -162q72 0 121 43l18 -6l39 -142l-10 -18q-103 -70 -221 -70q-156 0 -234 85q-79 85 -49 255l29 160h-174l26 137h172l41 238h-170l29 174h174l56 315l208 19l15 -12l-58 -322h304z" />
    <glyph glyph-name="Utilde" unicode="&#x168;" horiz-adv-x="1447" 
d="M1157 1505q-66 0 -177 39q-112 39 -167 39q-99 0 -145 -76h-23l-8 11l29 157q68 84 176 84q63 0 180 -39t162 -39q103 0 149 76h19l8 -10l-29 -158q-63 -84 -174 -84zM252 551l139 780h225l-139 -782q-31 -166 53 -267q84 -102 244 -102q156 0 263 101q105 99 137 268
l139 782h223l-139 -776q-50 -265 -219 -422q-170 -158 -424 -158q-263 0 -406 159q-142 159 -96 417z" />
    <glyph glyph-name="utilde" unicode="&#x169;" horiz-adv-x="1183" 
d="M489 1219h-20l-8 10l24 145q72 84 168 84q59 0 164 -37t146 -37q96 0 141 72h18l11 -8l-27 -148q-66 -84 -166 -83q-51 0 -156 38q-102 37 -155 37q-93 1 -140 -73zM895 414l109 610h221l-183 -1024h-194l20 115q-138 -139 -329 -140q-180 0 -273 120q-94 119 -61 313
l110 616h226l-111 -608q-18 -114 28.5 -181t145.5 -67q160 0 240 123q33 43 51 123z" />
    <glyph glyph-name="Umacron" unicode="&#x16a;" horiz-adv-x="1447" 
d="M668 1503l28 162h617l-29 -162h-616zM252 551l139 780h225l-139 -782q-31 -166 53 -267q84 -102 244 -102q156 0 263 101q105 99 137 268l139 782h223l-139 -776q-50 -265 -219 -422q-170 -158 -424 -158q-263 0 -406 159q-142 159 -96 417z" />
    <glyph glyph-name="umacron" unicode="&#x16b;" horiz-adv-x="1183" 
d="M506 1391h602l-29 -162h-602zM895 414l109 610h221l-183 -1024h-194l20 115q-138 -139 -329 -140q-180 0 -273 120q-94 119 -61 313l110 616h226l-111 -608q-18 -114 28.5 -181t145.5 -67q160 0 240 123q33 43 51 123z" />
    <glyph glyph-name="Uring" unicode="&#x16e;" horiz-adv-x="1447" 
d="M989 1436q-87 0 -145 57q-60 57 -60 143q0 99 73 172q74 74 171 74q86 0 145 -57q58 -58 58 -144q0 -97 -72 -171t-170 -74zM999 1569q39 0 68 29.5t29 70.5q0 33 -22.5 56.5t-55.5 23.5q-41 0 -69.5 -29.5t-28.5 -70.5q0 -35 23 -57.5t56 -22.5zM252 551l139 780h225
l-139 -782q-31 -166 53 -267q84 -102 244 -102q156 0 263 101q105 99 137 268l139 782h223l-139 -776q-50 -265 -219 -422q-170 -158 -424 -158q-263 0 -406 159q-142 159 -96 417z" />
    <glyph glyph-name="uring" unicode="&#x16f;" horiz-adv-x="1183" 
d="M780 1126q-86 0 -146 57q-61 55 -61 144q0 99 72 172q72 74 170 74q86 0 146 -57q59 -59 59 -144q0 -98 -71 -172t-169 -74zM807 1438q-39 0 -66.5 -29t-27.5 -70q0 -33 21.5 -55t53.5 -22q39 0 67 29.5t28 68.5q0 33 -21.5 55.5t-54.5 22.5zM895 414l109 610h221
l-183 -1024h-194l20 115q-138 -139 -329 -140q-180 0 -273 120q-94 119 -61 313l110 616h226l-111 -608q-18 -114 28.5 -181t145.5 -67q160 0 240 123q33 43 51 123z" />
    <glyph glyph-name="Uhungarumlaut" unicode="&#x170;" horiz-adv-x="1447" 
d="M688 1470l227 324h197l8 -16l-282 -322h-144zM1030 1470l225 324h197l8 -16l-282 -322h-144zM252 551l139 780h225l-139 -782q-31 -166 53 -267q84 -102 244 -102q156 0 263 101q105 99 137 268l139 782h223l-139 -776q-50 -265 -219 -422q-170 -158 -424 -158
q-263 0 -406 159q-142 159 -96 417z" />
    <glyph glyph-name="uhungarumlaut" unicode="&#x171;" horiz-adv-x="1183" 
d="M639 1167l-18 -14h-115l-10 14l194 353l19 14h182l8 -14zM934 1153h-115l-10 14l195 353l18 14h182l10 -14l-262 -353zM895 414l109 610h221l-183 -1024h-194l20 115q-138 -139 -329 -140q-180 0 -273 120q-94 119 -61 313l110 616h226l-111 -608q-18 -114 28.5 -181
t145.5 -67q160 0 240 123q33 43 51 123z" />
    <glyph glyph-name="Uogonek" unicode="&#x172;" horiz-adv-x="1447" 
d="M1174 549l139 782h223l-139 -776q-33 -183 -125.5 -316.5t-233.5 -199.5q-44 -37 -60 -54q-21 -21 -46 -62q-29 -47 -29 -89q0 -43 28 -69.5t75 -26.5q32 0 94 24l14 -4l27 -94l-4 -16q-91 -49 -181 -49q-101 0 -162 52q-63 53 -63 138q0 96 74 188q-22 -2 -51 -2
q-263 0 -406 159q-142 159 -96 417l139 780h225l-139 -782q-31 -166 53 -267q84 -102 244 -102q156 0 263 101q105 99 137 268z" />
    <glyph glyph-name="uogonek" unicode="&#x173;" horiz-adv-x="1183" 
d="M1096 -283l14 -4l27 -94l-4 -16q-91 -49 -181 -49q-101 0 -162 52q-63 52 -63 138q0 139 141 256h-20l20 115q-138 -139 -329 -140q-180 0 -273 120q-94 119 -61 313l110 616h226l-111 -608q-18 -114 28.5 -181t145.5 -67q160 0 240 123q33 43 51 123l109 610h221
l-183 -1024l-20 -16q-20 -18 -54 -52q-21 -19 -28 -32q-45 -70 -41 -111q0 -43 27.5 -69.5t74.5 -26.5q34 -1 95 24z" />
    <glyph glyph-name="Wcircumflex" unicode="&#x174;" horiz-adv-x="1910" 
d="M1237 1626l-319 -145h-15l-49 108l2 17l387 200h21l313 -200l-2 -17l-78 -98h-16zM1890 1331h226l6 -18l-715 -1313h-125l-160 932l-493 -932h-123l-242 1313l15 18h229l139 -923l481 923h123l152 -946z" />
    <glyph glyph-name="wcircumflex" unicode="&#x175;" horiz-adv-x="1560" 
d="M995 1313l-288 -144h-15l-53 103v14l365 205h30l287 -205l-2 -14l-84 -94h-14zM1497 1024h209l8 -16l-540 -1008h-142l-131 690l-371 -690h-147l-180 1008l12 16h213l92 -698l371 698h129l127 -698z" />
    <glyph glyph-name="Ycircumflex" unicode="&#x176;" horiz-adv-x="1302" 
d="M922 1626l-320 -145h-14l-49 108l2 17l387 200h20l314 -200l-2 -17l-78 -98h-17zM1491 1331l6 -18l-643 -819l-90 -494h-227l90 500l-357 813l15 18h225l262 -631l481 631h238z" />
    <glyph glyph-name="ycircumflex" unicode="&#x177;" horiz-adv-x="1064" 
d="M750 1313l-289 -144h-15l-53 103v14l365 205h30l287 -205l-2 -14l-84 -94h-14zM1006 1024h213l8 -16l-660 -1086q-87 -144 -168 -199q-82 -55 -190 -55q-104 0 -166 41l-4 19l76 139l18 6q39 -27 86 -27q43 0 75 21q34 24 73 88l75 121l-235 932l14 16h219l156 -711z" />
    <glyph glyph-name="Ydieresis" unicode="&#x178;" horiz-adv-x="1302" 
d="M676 1481q-54 0 -95 39q-40 39 -40 92q0 70 51 120q52 50 119 50q55 0 95 -39t40 -92q0 -71 -51 -120q-52 -50 -119 -50zM1112 1481q-55 0 -94 39t-39 92q0 70 50 120t118 50q55 0 95 -39t40 -92q0 -70 -50 -120t-120 -50zM1491 1331l6 -18l-643 -819l-90 -494h-227
l90 500l-357 813l15 18h225l262 -631l481 631h238z" />
    <glyph glyph-name="Zacute" unicode="&#x179;" horiz-adv-x="1167" 
d="M1124 1665l-450 -205h-17l-61 94l4 17l426 256h16l84 -146zM315 1331h1002l-25 -133l-899 -1012h758l-37 -186h-1057l25 133l899 1012h-700z" />
    <glyph glyph-name="zacute" unicode="&#x17a;" horiz-adv-x="976" 
d="M940 1380l-438 -225h-15l-61 100l2 13l418 274h14l82 -149zM256 1024h803l-27 -156l-661 -698h579l-30 -170h-854l26 156l672 698h-537z" />
    <glyph glyph-name="Zdotaccent" unicode="&#x17b;" horiz-adv-x="1167" 
d="M821 1481q-56 0 -96 40q-41 41 -41 95q0 70 51 121t123 51q57 0 97 -40t40 -95q0 -70 -51 -121t-123 -51zM315 1331h1002l-25 -133l-899 -1012h758l-37 -186h-1057l25 133l899 1012h-700z" />
    <glyph glyph-name="zdotaccent" unicode="&#x17c;" horiz-adv-x="976" 
d="M678 1198q-56 0 -97 39q-40 39 -40 94q0 72 51 123t123 51q56 0 96 -40q41 -41 41 -95q0 -73 -52 -122q-53 -50 -122 -50zM256 1024h803l-27 -156l-661 -698h579l-30 -170h-854l26 156l672 698h-537z" />
    <glyph glyph-name="Zcaron" unicode="&#x17d;" horiz-adv-x="1167" 
d="M1206 1679l-381 -202h-20l-311 202l2 17l73 90h17l245 -133l318 145h16l43 -102zM315 1331h1002l-25 -133l-899 -1012h758l-37 -186h-1057l25 133l899 1012h-700z" />
    <glyph glyph-name="zcaron" unicode="&#x17e;" horiz-adv-x="976" 
d="M1038 1360l-362 -205h-29l-291 205l4 12l86 92h13l223 -133l291 146h12l55 -105zM256 1024h803l-27 -156l-661 -698h579l-30 -170h-854l26 156l672 698h-537z" />
    <glyph glyph-name="uni01EA" unicode="&#x1ea;" horiz-adv-x="1556" 
d="M948 1356q282 0 470 -180q186 -182 186 -461q0 -171 -71 -321t-200 -253q-124 -96 -268 -135q-109 -97 -109 -182q0 -43 28 -69.5t75 -26.5q33 0 94 24l14 -4l27 -94l-4 -16q-90 -48 -180 -50q-101 0 -163 52q-63 52 -63 139q0 102 82 196h-20q-284 0 -469 181
q-187 180 -187 460q0 171 70 319t199 253q209 168 489 168zM1182 293q196 156 194 407q0 196 -125 323q-125 126 -317 126q-186 0 -322 -111q-196 -156 -194 -407q0 -196 125 -323q125 -126 317 -126q187 0 322 111z" />
    <glyph glyph-name="uni01EB" unicode="&#x1eb;" horiz-adv-x="1230" 
d="M752 1049q220 0 362 -139q143 -140 143 -359q0 -279 -215 -449q-83 -65 -190 -100q-135 -106 -135 -203q0 -43 27.5 -69.5t74.5 -26.5q34 0 94 25l15 -4l26 -95l-4 -16q-91 -49 -180 -49q-101 0 -162 52q-63 52 -63 138q0 117 104 221q-212 6 -351 146q-138 139 -138 352
q0 139 59.5 259t167.5 198q157 119 365 119zM909 252q127 109 127 287q0 139 -84 228t-215 89q-133 0 -229 -84q-127 -109 -127 -287q0 -139 84 -228t215 -89q133 0 229 84z" />
    <glyph glyph-name="AEacute" unicode="&#x1fc;" horiz-adv-x="1984" 
d="M1939 1665l-450 -205h-16l-62 94l4 17l426 256h17l84 -146zM2099 1331l-35 -190h-682l-69 -379h538l-32 -184h-539l-70 -388h684l-32 -190h-910l49 272h-540l-232 -272h-247l-7 18l1129 1313h995zM1147 1079l-541 -637h426z" />
    <glyph glyph-name="aeacute" unicode="&#x1fd;" horiz-adv-x="1908" 
d="M1378 1380l-438 -225h-14l-62 100l2 13l418 274h14l82 -149zM1462 1049q231 0 356 -158q124 -157 80 -367q-2 -21 -18 -67h-797q-12 -143 72 -223q85 -80 215 -80q186 0 322 135h16l92 -103l-2 -16q-186 -195 -459 -195q-130 0 -238.5 54t-170.5 153q-82 -98 -203 -152.5
t-258 -54.5q-163 0 -260 81q-98 81 -98 212q0 174 131 279q131 104 350 104q146 0 282 -63l9 49q18 97 -33 162q-62 74 -188 73q-157 0 -306 -106h-16l-66 123l2 16q92 69 204 106q116 38 218 38q266 0 344 -170q30 29 76 61q151 109 344 109zM1110 608h584q6 109 -45 176
q-61 90 -205 90q-130 0 -221 -77q-81 -69 -113 -189zM520 139q108 0 203 66q93 64 113 164l10 57q-124 70 -246 70q-120 0 -194 -53q-74 -54 -74 -146q0 -73 49.5 -115.5t138.5 -42.5z" />
    <glyph glyph-name="Oslashacute" unicode="&#x1fe;" horiz-adv-x="1556" 
d="M1319 1665l-451 -205h-16l-61 94l4 17l426 256h16l84 -146zM1663 1460l6 -18l-235 -283q170 -181 170 -444q0 -171 -71 -321t-200 -253q-211 -166 -487 -166q-179 0 -330 80l-135 -164h-223l-8 19l215 258q-173 179 -175 448q0 171 70 319t199 253q209 168 489 168
q188 0 336 -82l156 186h223zM418 631q0 -166 94 -287l629 758q-91 47 -207 47q-186 0 -322 -111q-194 -155 -194 -407zM1376 700q0 164 -90 281l-627 -756q95 -43 201 -43q186 0 322 111q194 155 194 407z" />
    <glyph glyph-name="oslashacute" unicode="&#x1ff;" horiz-adv-x="1230" 
d="M1077 1380l-438 -225h-14l-62 100l2 13l418 274h14l82 -149zM1354 1149l6 -19l-217 -251q116 -137 114 -328q0 -279 -215 -449q-161 -127 -376 -127q-135 0 -250 58l-113 -131h-213l-6 18l192 223q-117 136 -116 330q0 139 59.5 259t167.5 198q157 119 365 119
q142 0 254 -60l137 160h211zM381 485q0 -99 43 -172l442 514q-63 29 -129 29q-133 0 -229 -84q-127 -109 -127 -287zM1036 539q0 95 -41 168l-440 -512q53 -27 125 -27q133 0 229 84q127 109 127 287z" />
    <glyph glyph-name="uni0218" unicode="&#x218;" horiz-adv-x="1130" 
d="M604 -25q-162 0 -300 69q-137 68 -202 185l2 19l138 121h16q50 -93 153 -145q103 -54 207 -54q128 0 202 55q75 54 75 146q0 80 -68 124q-39 25 -63 39q-22 11 -93 40q-67 25 -91 36q-112 46 -191 111q-98 81 -98 225q0 182 138 296t362 114q145 0 265 -56
q118 -57 171 -147l-4 -18l-133 -121h-17q-44 70 -123.5 111.5t-177.5 41.5q-111 0 -181 -52q-71 -53 -71 -138q0 -68 63 -111q34 -25 58 -36q17 -9 76 -35q15 -5 35 -15q44 -18 109 -46q32 -15 96 -53q60 -37 89 -69q78 -90 78 -209q0 -205 -143 -316q-143 -112 -377 -112z
M367 -479l110 358l19 15h178l8 -15l-174 -358l-19 -15h-112z" />
    <glyph glyph-name="uni0219" unicode="&#x219;" horiz-adv-x="923" 
d="M481 -27q-136 0 -243 52q-108 50 -158 137l2 16l131 111h16q31 -56 108 -97q76 -40 161 -40q86 0 135 38.5t49 102.5q0 50 -36.5 82t-121.5 69q-14 6 -16 7q-123 46 -194 110q-72 61 -72 168q0 143 111 233q110 89 288 89q113 0 212 -47q97 -48 144 -123l-2 -19
l-129 -104h-16q-36 53 -100 86t-127 33q-75 0 -118.5 -34t-43.5 -89q0 -28 24 -53.5t56 -41.5q18 -10 94 -45q128 -58 198 -125q68 -68 68 -178q0 -155 -116 -247q-115 -91 -304 -91zM252 -479l110 358l19 15h178l8 -15l-174 -358l-18 -15h-113z" />
    <glyph glyph-name="uni021A" unicode="&#x21a;" horiz-adv-x="1120" 
d="M1300 1139h-423l-203 -1139h-228l205 1139h-422l37 192h1069zM326 -479l110 358l19 15h178l8 -15l-174 -358l-18 -15h-113z" />
    <glyph glyph-name="uni021B" unicode="&#x21b;" horiz-adv-x="786" 
d="M887 850h-303l-95 -520q-29 -162 113 -162q72 0 121 43l18 -6l39 -142l-10 -18q-103 -70 -221 -70q-156 0 -234 85q-79 85 -49 255l94 535h-170l29 174h174l56 315l208 19l15 -12l-58 -322h304zM385 -121l18 15h179l8 -15l-174 -358l-19 -15h-112l-11 15z" />
    <glyph glyph-name="uni0237" unicode="&#x237;" horiz-adv-x="514" 
d="M168 106l164 918h223l-164 -920q-35 -186 -108 -279q-73 -92 -238 -165h-18l-54 162l2 16q91 45 132 99q40 55 61 169z" />
    <glyph glyph-name="uni02BC" unicode="&#x2bc;" horiz-adv-x="391" 
d="M293 1167l115 361l18 12h184l8 -12l-182 -361l-16 -12h-117z" />
    <glyph glyph-name="circumflex" unicode="&#x2c6;" horiz-adv-x="837" 
d="M684 1491h31l286 -205l-2 -14l-84 -94h-14l-225 135l-289 -144h-14l-54 103v14z" />
    <glyph glyph-name="caron" unicode="&#x2c7;" horiz-adv-x="847" 
d="M950 1477h13l55 -105l-2 -12l-363 -205h-28l-291 205l4 12l86 92h12l223 -133z" />
    <glyph glyph-name="breve" unicode="&#x2d8;" horiz-adv-x="759" 
d="M604 1184q-133 0 -212 85t-70 216h161q0 -70 38 -112t100 -42q63 0 113 42t73 112h164q-39 -135 -137 -218q-100 -83 -230 -83z" />
    <glyph glyph-name="dotaccent" unicode="&#x2d9;" horiz-adv-x="397" 
d="M424 1198q-56 0 -97 39q-40 39 -40 94q0 72 51 123t123 51q56 0 96 -40q41 -41 41 -95q0 -73 -52 -122q-53 -50 -122 -50z" />
    <glyph glyph-name="ring" unicode="&#x2da;" horiz-adv-x="612" 
d="M532 1126q-86 0 -146 57q-60 55 -60 144q0 99 72 172q71 74 169 74q86 0 146 -57q59 -59 59 -144q0 -98 -71 -172t-169 -74zM541 1262q39 0 66.5 29.5t27.5 68.5q0 33 -21.5 55.5t-54.5 22.5q-39 0 -66.5 -29t-27.5 -70q0 -33 21.5 -55t54.5 -22z" />
    <glyph glyph-name="ogonek" unicode="&#x2db;" horiz-adv-x="585" 
d="M367 -438q-101 0 -163 52q-63 52 -63 138q0 164 187 291l129 -35l-21 -16q-20 -18 -54 -52q-22 -20 -28 -31q-41 -68 -41 -112q0 -43 28 -69.5t75 -26.5q34 0 94 25l14 -5l27 -94l-4 -16q-91 -49 -180 -49z" />
    <glyph glyph-name="tilde" unicode="&#x2dc;" horiz-adv-x="880" 
d="M825 1217q-51 0 -156 38q-102 37 -155 37q-93 0 -139 -73h-21l-8 10l25 145q72 84 168 84q59 0 164 -37t145 -37q96 0 141 72h19l10 -8l-27 -148q-66 -83 -166 -83z" />
    <glyph glyph-name="hungarumlaut" unicode="&#x2dd;" horiz-adv-x="784" 
d="M256 1167l195 353l18 14h182l8 -14l-260 -353l-18 -14h-115zM569 1167l195 353l18 14h183l10 -14l-262 -353l-19 -14h-114z" />
    <glyph glyph-name="uni0326" unicode="&#x326;" horiz-adv-x="0" 
d="M-408 -479l111 358l18 15h179l8 -15l-174 -358l-19 -15h-112z" />
    <glyph glyph-name="Wgrave" unicode="&#x1e80;" horiz-adv-x="1910" 
d="M1427 1460h-16l-450 205l-3 16l84 146h17l426 -256l4 -17zM1890 1331h226l6 -18l-715 -1313h-125l-160 932l-493 -932h-123l-242 1313l15 18h229l139 -923l481 923h123l152 -946z" />
    <glyph glyph-name="wgrave" unicode="&#x1e81;" horiz-adv-x="1560" 
d="M1178 1155h-13l-432 225l-4 13l96 149h13l407 -274v-13zM1497 1024h209l8 -16l-540 -1008h-142l-131 690l-371 -690h-147l-180 1008l12 16h213l92 -698l371 698h129l127 -698z" />
    <glyph glyph-name="Wacute" unicode="&#x1e82;" horiz-adv-x="1910" 
d="M1509 1665l-450 -205h-17l-61 94l4 17l426 256h16l84 -146zM1890 1331h226l6 -18l-715 -1313h-125l-160 932l-493 -932h-123l-242 1313l15 18h229l139 -923l481 923h123l152 -946z" />
    <glyph glyph-name="wacute" unicode="&#x1e83;" horiz-adv-x="1560" 
d="M1237 1380l-438 -225h-15l-61 100l2 13l418 274h14l82 -149zM1497 1024h209l8 -16l-540 -1008h-142l-131 690l-371 -690h-147l-180 1008l12 16h213l92 -698l371 698h129l127 -698z" />
    <glyph glyph-name="Wdieresis" unicode="&#x1e84;" horiz-adv-x="1910" 
d="M991 1481q-55 0 -95 39t-40 92q0 70 51 120q52 50 119 50q54 0 95 -39q40 -39 40 -92q0 -71 -51 -120q-52 -50 -119 -50zM1427 1481q-55 0 -94 39t-39 92q0 70 51 120q50 50 117 50q54 0 95 -39q40 -39 40 -92q0 -70 -50 -120t-120 -50zM1890 1331h226l6 -18l-715 -1313
h-125l-160 932l-493 -932h-123l-242 1313l15 18h229l139 -923l481 923h123l152 -946z" />
    <glyph glyph-name="wdieresis" unicode="&#x1e85;" horiz-adv-x="1560" 
d="M786 1196q-54 0 -91 37q-38 38 -38 90q0 68 50 116q49 48 114 48q52 0 92 -38q39 -37 39 -89q0 -68 -49 -116t-117 -48zM1180 1196q-54 0 -91 37q-38 38 -38 90q0 68 49 116q50 48 114 48q52 0 93 -38q39 -37 39 -89q0 -68 -49 -116t-117 -48zM1497 1024h209l8 -16
l-540 -1008h-142l-131 690l-371 -690h-147l-180 1008l12 16h213l92 -698l371 698h129l127 -698z" />
    <glyph glyph-name="uni1E9E" unicode="&#x1e9e;" horiz-adv-x="1320" 
d="M1331 1126l-309 -319q143 -23 223 -119q80 -97 80 -242q0 -210 -139 -340q-140 -131 -371 -131q-196 0 -309 82l-8 19l100 145l20 8q74 -57 193 -57q130 0 210 74q79 73 79 198q0 94 -64.5 151.5t-181.5 57.5h-100l26 162l271 277q-73 72 -197 71q-131 0 -215 -91
q-84 -92 -111 -241l-149 -831h-225l153 842q45 240 196 379q149 139 380 139q146 0 276 -65q129 -66 172 -169z" />
    <glyph glyph-name="Ygrave" unicode="&#x1ef2;" horiz-adv-x="1302" 
d="M1112 1460h-16l-451 205l-2 16l84 146h16l426 -256l5 -17zM1491 1331l6 -18l-643 -819l-90 -494h-227l90 500l-357 813l15 18h225l262 -631l481 631h238z" />
    <glyph glyph-name="ygrave" unicode="&#x1ef3;" horiz-adv-x="1064" 
d="M932 1155h-12l-433 225l-4 13l97 149h12l407 -274v-13zM1006 1024h213l8 -16l-660 -1086q-87 -144 -168 -199q-82 -55 -190 -55q-104 0 -166 41l-4 19l76 139l18 6q39 -27 86 -27q43 0 75 21q34 24 73 88l75 121l-235 932l14 16h219l156 -711z" />
    <glyph glyph-name="uni1EF8" unicode="&#x1ef8;" horiz-adv-x="1302" 
d="M580 1507h-23l-8 11l29 157q68 84 176 84q63 0 179 -39t163 -39q103 0 149 76h19l8 -10l-29 -158q-63 -84 -174 -84q-66 0 -177 39q-112 39 -167 39q-99 0 -145 -76zM1491 1331l6 -18l-643 -819l-90 -494h-227l90 500l-357 813l15 18h225l262 -631l481 631h238z" />
    <glyph glyph-name="uni1EF9" unicode="&#x1ef9;" horiz-adv-x="1064" 
d="M438 1219h-20l-8 10l24 145q72 84 168 84q59 0 164 -37t145 -37q95 0 142 72h18l10 -8l-26 -148q-66 -84 -166 -83q-51 0 -156 38q-102 37 -155 37q-93 1 -140 -73zM1006 1024h213l8 -16l-660 -1086q-87 -144 -168 -199q-82 -55 -190 -55q-104 0 -166 41l-4 19l76 139
l18 6q39 -27 86 -27q43 0 75 21q34 24 73 88l75 121l-235 932l14 16h219l156 -711z" />
    <glyph glyph-name="endash" unicode="&#x2013;" horiz-adv-x="1177" 
d="M215 526l33 176h936l-31 -176h-938z" />
    <glyph glyph-name="emdash" unicode="&#x2014;" horiz-adv-x="1464" 
d="M215 526l33 176h1222l-30 -176h-1225z" />
    <glyph glyph-name="quoteleft" unicode="&#x2018;" horiz-adv-x="464" 
d="M383 827q-57 0 -96 41q-39 40 -39 103q0 83 61 166q60 84 221 245h17l49 -49l-2 -16q-104 -110 -145 -193q42 -6 72 -43.5t30 -89.5q0 -68 -49 -116q-50 -48 -119 -48z" />
    <glyph glyph-name="quoteright" unicode="&#x2019;" horiz-adv-x="460" 
d="M342 844h-16l-47 49v16q104 110 145 193q-42 6 -72 43.5t-30 89.5q0 69 48 115q49 47 119 47q57 0 97 -40q39 -41 39 -102q0 -83 -60 -168q-63 -87 -223 -243z" />
    <glyph glyph-name="quotesinglbase" unicode="&#x201a;" horiz-adv-x="481" 
d="M127 -297h-16l-48 49v17q104 110 146 192q-42 6 -72.5 43.5t-30.5 89.5q0 69 49 115q49 47 119 47q57 0 97 -40q39 -40 39 -101q0 -83 -60 -168q-65 -90 -223 -244z" />
    <glyph glyph-name="quotedblleft" unicode="&#x201c;" horiz-adv-x="845" 
d="M383 836q-60 0 -98.5 40t-38.5 103q0 83 61 166q60 84 223 244h15l49 -48l-2 -16q-104 -118 -146 -195q41 -5 72 -41q31 -37 31 -90q0 -69 -48 -115q-48 -48 -118 -48zM762 836q-57 0 -96 41t-39 102q0 83 61 166q57 81 221 244h17l47 -48v-16q-107 -115 -146 -195
q42 -4 71.5 -42t29.5 -89q0 -69 -48 -115q-48 -48 -118 -48z" />
    <glyph glyph-name="quotedblright" unicode="&#x201d;" horiz-adv-x="841" 
d="M342 844h-16l-47 49v16q104 110 145 193q-42 6 -72 43.5t-30 89.5q0 69 48 115q49 47 119 47q57 0 97 -40q39 -41 39 -102q0 -83 -60 -168q-63 -87 -223 -243zM721 844h-16l-48 49l2 16q107 118 144 193q-42 6 -71.5 43.5t-29.5 89.5q0 69 49 115q49 47 117 47
q57 0 97 -40q39 -41 39 -102q0 -83 -60 -168q-63 -87 -223 -243z" />
    <glyph glyph-name="quotedblbase" unicode="&#x201e;" horiz-adv-x="862" 
d="M123 -297h-14l-50 49l2 17q104 113 146 192q-42 6 -72.5 43.5t-30.5 89.5q0 69 49 115q49 47 117 47q59 0 98.5 -40t39.5 -101q0 -82 -61 -167q-58 -80 -224 -245zM504 -297h-17l-47 49v17q104 110 146 192q-42 6 -72.5 43.5t-30.5 89.5q0 69 49 115q49 47 119 47
q57 0 96 -40t39 -101q0 -83 -60 -168q-62 -89 -222 -244z" />
    <glyph glyph-name="dagger" unicode="&#x2020;" horiz-adv-x="1034" 
d="M799 954h309l-31 -176h-309l-199 -1097h-221l197 1097h-309l32 176h310l71 398h221z" />
    <glyph glyph-name="daggerdbl" unicode="&#x2021;" horiz-adv-x="1034" 
d="M1108 954l-31 -176h-309l-94 -524h309l-31 -176h-309l-74 -397h-221l72 397h-309l32 176h310l92 524h-309l32 176h310l71 398h221l-71 -398h309z" />
    <glyph glyph-name="bullet" unicode="&#x2022;" horiz-adv-x="757" 
d="M459 340q-93 0 -155 63q-62 62 -62 154q0 109 81 189q79 79 187 79q94 0 156 -62q61 -62 61 -155q0 -108 -81 -188q-82 -80 -187 -80z" />
    <glyph glyph-name="ellipsis" unicode="&#x2026;" horiz-adv-x="1335" 
d="M248 -25q-60 0 -99.5 39t-39.5 99q0 71 51 120q52 50 119 50q60 0 99.5 -39t39.5 -99q0 -71 -51 -120q-52 -50 -119 -50zM678 -25q-60 0 -99.5 39t-39.5 99q0 71 52 120q53 50 120 50q60 0 99.5 -39t39.5 -99q0 -68 -52 -119t-120 -51zM1104 -25q-59 0 -98 39t-39 99
q0 71 51 120q52 50 119 50q60 0 99.5 -39t39.5 -99q0 -68 -52 -119t-120 -51z" />
    <glyph glyph-name="perthousand" unicode="&#x2030;" horiz-adv-x="2439" 
d="M514 586q-127 0 -202 89q-76 88 -76 240q0 187 101 321q101 132 259 132q126 0 203 -89q75 -89 75 -239q0 -189 -101 -322q-101 -132 -259 -132zM229 -6l-6 16l1256 1333h196l8 -16l-1255 -1333h-199zM528 735q73 0 129 83q54 82 54 208q0 193 -129 193q-76 0 -129 -81
q-54 -81 -54 -208q0 -91 33.5 -143t95.5 -52zM1321 -31q-126 0 -203 89q-76 88 -76 241q0 187 102 321q100 132 259 132q126 0 203 -89q75 -90 75 -241q0 -187 -101 -320q-100 -133 -259 -133zM2054 -31q-127 0 -202 89q-76 88 -76 241q0 187 101 321q101 132 259 132
q126 0 203 -89q76 -89 76 -241q0 -187 -101 -320q-102 -133 -260 -133zM1335 119q73 0 129 83q54 83 54 208q0 91 -33.5 141.5t-95.5 50.5q-77 0 -129 -82q-54 -82 -54 -209q0 -192 129 -192zM2068 119q73 0 129 83q54 82 54 208q0 91 -33.5 141.5t-95.5 50.5
q-77 0 -129 -82q-54 -82 -54 -209q0 -192 129 -192z" />
    <glyph glyph-name="guilsinglleft" unicode="&#x2039;" horiz-adv-x="628" 
d="M602 1012l90 -111v-12l-299 -295l180 -275v-10l-114 -96h-15l-266 385l6 31l404 383h14z" />
    <glyph glyph-name="guilsinglright" unicode="&#x203a;" horiz-adv-x="628" 
d="M391 1012h12l265 -383l-6 -31l-402 -385h-12l-96 111v12l305 297l-183 272v13z" />
    <glyph glyph-name="fraction" unicode="&#x2044;" horiz-adv-x="1107" 
d="M-49 -6l-6 16l1255 1333h197l8 -16l-1255 -1333h-199z" />
    <glyph glyph-name="Euro" unicode="&#x20ac;" horiz-adv-x="1474" 
d="M1026 1151q-142 0 -255 -81q-111 -80 -173 -214h596l6 -18l-61 -115h-584q-10 -63 -10 -119v-16h585l9 -19l-62 -112h-512q37 -127 135 -202t228 -75q107 0 205.5 51t169.5 140h14l125 -117l-2 -16q-217 -262 -539 -263q-217 0 -371 133q-155 133 -194 349h-189l-8 16
l60 115h125v2q0 64 10 133h-123l-8 18l59 115h107q77 222 258 361t413 139q157 0 284 -70t204 -192l-2 -17l-150 -116h-16q-112 190 -334 190z" />
    <glyph glyph-name="trademark" unicode="&#x2122;" horiz-adv-x="1511" 
d="M299 1331h541l-23 -117h-196l-99 -550h-149l100 550h-194zM1163 862l285 469h108l-43 -667h-143l25 354l-213 -354h-101l-90 370l-104 -370h-146l199 667h109z" />
    <glyph glyph-name="minus" unicode="&#x2212;" horiz-adv-x="1216" 
d="M231 578l31 178h963l-33 -178h-961z" />
    <glyph glyph-name="approxequal" unicode="&#x2248;" horiz-adv-x="1206" 
d="M954 731q-76 0 -212 36t-216 36q-50 0 -102 -20q-51 -21 -76 -52h-16l-56 123l3 16q101 101 276 103q87 0 236 -36q147 -36 192 -36q125 0 182 72h17l55 -121l-4 -16q-32 -31 -58 -49q-24 -19 -84 -37q-57 -19 -137 -19zM885 358q-75 0 -212 36t-216 36q-48 0 -100 -20
q-52 -21 -76 -52h-17l-55 121l2 17q110 104 276 104q90 0 237 -36q146 -36 191 -36q121 0 183 72h16l55 -123l-4 -14q-30 -30 -57 -49q-25 -18 -86 -37q-57 -19 -137 -19z" />
    <glyph glyph-name="notequal" unicode="&#x2260;" horiz-adv-x="1218" 
d="M1276 924l-31 -164h-340l-145 -189h450l-28 -163h-547l-195 -252h-174l-4 18l178 234h-247l28 163h346l144 189h-455l31 164h551l194 254h174l4 -21l-180 -233h246z" />
    <glyph glyph-name="uniF8FF" unicode="&#xf8ff;" horiz-adv-x="2758" 
d="M1523 1210q-35 -36 -87 -36q-54 0 -87 36q-34 34 -34 88q0 52 34 86.5t87 34.5t86.5 -34.5t33.5 -86.5q0 -53 -33 -88zM365 670h-238q0 310 10 446l13 182h194q0 -5 10 -184q9 -170 11 -444zM938 965v170l238 73l8 -61h352q2 -28 4 -56.5t3 -40t1 -12.5q8 -107 8 -368
h-233q0 254 4 295h-117l4 -129q0 -2 4 -2q1 -1 19 -3q9 0 27 5l8 4v-148q-2 -8 -21 -18q-35 -15 -106 -17q-160 0 -160 131q0 7 2 103q0 13 0.5 25.5t0.5 21t0.5 15t0.5 9.5v3h-47zM756 670l-19 118q-26 -131 -151 -131q-181 0 -183 230q0 135 64.5 201.5t206.5 66.5
q119 0 178.5 -57t58.5 -172v-256h-155zM1831 670h-232q0 238 11 370q6 67 12 107h156l6 -51q6 -92 6 -101l4 21q46 139 162 139q81 0 115 -47.5t36 -159.5l4 -278h-229q0 31 2 111q2 78 2 81q0 51 -31 51q-35 0 -34 -51q0 -17 5 -82t5 -110zM2142 901q0 254 246 254
q141 0 195 -67q53 -68 53 -187q0 -116 -62.5 -180t-185.5 -64q-121 0 -183.5 64.5t-62.5 179.5zM664 817q49 0 49 62q0 55 -49 55q-43 0 -43 -55q0 -62 43 -62zM2388 817q49 0 49 62q0 55 -49 55q-47 0 -47 -55q0 -62 47 -62zM123 397v170l248 82l8 -59h338q-2 -52 -2 -107
q-2 -74 -2 -110q0 -52 32 -54q31 0 31 54v7q0 7 -0.5 18.5t-1 25t-0.5 30v29.5q-2 42 -2 107h217l6 -82q6 -78 6 -215q0 -147 -73.5 -214t-233.5 -67q-88 0 -149 21q-28 7 -41 22v170q10 -9 37 -20q44 -17 110 -19q81 0 125 37q20 17 23 37q-2 -2 -5.5 -4t-8.5 -5.5t-9 -6.5
q-33 -14 -94 -15q-190 0 -190 152v16h-93l4 -125q28 0 43 7l15 6v-152q-11 -11 -31 -18q-42 -15 -106 -17q-150 0 -150 131q0 13 0.5 34.5t1 43.5t1 42.5t1.5 34.5v13h-55zM1300 12h-260q0 290 11 420l12 158h160l6 -60q8 -46 8 -94q29 170 160 170q74 0 116.5 -60.5
t42.5 -168.5q0 -135 -67.5 -207t-192.5 -72q0 -12 2 -22q0 -2 1 -27.5t1 -36.5zM2011 281v-150q-4 -4 -35 -16q-46 -15 -112 -17q-135 0 -204 65.5t-69 182.5q0 260 252 260q107 0 168.5 -62t61.5 -171q0 -13 -7 -54l-4 -20h-245q1 -16 12 -25q25 -26 78 -24q52 0 80 14
q18 11 24 17zM2143 465q-23 23 -23 54t23 53t53 22t53 -22t23 -53t-23 -54t-53 -23t-53 23zM2153 476q18 -19 42.5 -19t43.5 19q18 18 18 42.5t-18 43.5q-19 18 -43.5 18t-42.5 -18q-19 -19 -19 -43.5t19 -42.5zM2167 481v76h33q16 0 23.5 -6t6.5 -19q0 -18 -16 -24l16 -27
h-18l-14 23h-15v-23h-16zM2183 518h17q9 0 12.5 6t0 12.5t-12.5 6.5h-17v-25zM1804 350h80v4v4q2 6 2 9q0 39 -37 39q-45 0 -45 -56zM1262 281l4 -17q28 5 39 10q40 23 38 64q0 43 -38 43q-46 0 -48 -62q0 -16 5 -38z" />
    <glyph glyph-name="J.aalt" horiz-adv-x="1003" 
d="M504 1331h583l-155 -870q-86 -485 -492 -486q-140 0 -241 63q-102 62 -148 152l2 17l144 119h18q26 -58 88 -101q61 -45 148 -45q94 0 160.5 64.5t86.5 181.5l129 713h-360z" />
    <glyph glyph-name="Q.aalt" horiz-adv-x="1597" 
d="M1290 -307q-171 0 -295 119q-9 9 -40 43q-35 39 -45 47q-2 2 -15 13.5t-23 20.5q-44 39 -90 39q-259 22 -426 200q-166 176 -166 441q0 176 77 332q76 154 216 256q206 152 467 152q283 0 469 -180q185 -182 185 -461q0 -175 -73.5 -326t-207.5 -254q-109 -84 -227 -112
q14 -6 51 -39q66 -71 106 -84q33 -14 76 -15q69 0 115 43l14 -6l51 -143l-10 -17q-83 -69 -209 -69zM860 182q186 0 322 111q196 156 194 407q0 196 -125 323q-125 126 -317 126q-186 0 -322 -111q-196 -156 -194 -407q0 -196 125 -323q125 -126 317 -126z" />
    <glyph glyph-name="i.aalt" horiz-adv-x="516" 
d="M467 1198q-56 0 -97 39q-40 39 -40 94q0 72 51 123t123 51q56 0 96 -40q41 -41 41 -95q0 -73 -52 -122q-53 -50 -122 -50zM369 0h-222l185 1024h221z" />
    <glyph glyph-name="a.salt" horiz-adv-x="1267" 
d="M1081 842l33 182h195l-183 -1024h-190l20 125q-150 -150 -344 -150q-197 0 -326 141q-130 139 -130 349q0 246 160 415q159 169 395 169q118 0 215.5 -54t154.5 -153zM668 168q152 0 249 109q97 107 97 268q0 135 -79 223t-208 88q-153 0 -250 -108q-98 -110 -98 -269
q0 -136 80 -224q79 -87 209 -87z" />
    <glyph glyph-name="aacute.aalt" horiz-adv-x="1267" 
d="M1094 1380l-439 -225h-14l-61 100l2 13l417 274h15l82 -149zM1081 842l33 182h195l-183 -1024h-190l20 125q-150 -150 -344 -150q-197 0 -326 141q-130 139 -130 349q0 246 160 415q159 169 395 169q118 0 215.5 -54t154.5 -153zM668 168q152 0 249 109q97 107 97 268
q0 135 -79 223t-208 88q-153 0 -250 -108q-98 -110 -98 -269q0 -136 80 -224q79 -87 209 -87z" />
    <glyph glyph-name="abreve.aalt" horiz-adv-x="1267" 
d="M831 1184q-133 0 -211 85q-79 84 -71 216h162q0 -70 37.5 -112t99.5 -42t113 42.5t73 111.5h164q-39 -135 -137 -218q-100 -83 -230 -83zM1081 842l33 182h195l-183 -1024h-190l20 125q-150 -150 -344 -150q-197 0 -326 141q-130 139 -130 349q0 246 160 415
q159 169 395 169q118 0 215.5 -54t154.5 -153zM668 168q152 0 249 109q97 107 97 268q0 135 -79 223t-208 88q-153 0 -250 -108q-98 -110 -98 -269q0 -136 80 -224q79 -87 209 -87z" />
    <glyph glyph-name="acircumflex.aalt" horiz-adv-x="1267" 
d="M852 1313l-289 -144h-14l-53 103v14l364 205h31l287 -205l-2 -14l-84 -94h-15zM1081 842l33 182h195l-183 -1024h-190l20 125q-150 -150 -344 -150q-197 0 -326 141q-130 139 -130 349q0 246 160 415q159 169 395 169q118 0 215.5 -54t154.5 -153zM668 168q152 0 249 109
q97 107 97 268q0 135 -79 223t-208 88q-153 0 -250 -108q-98 -110 -98 -269q0 -136 80 -224q79 -87 209 -87z" />
    <glyph glyph-name="adieresis.aalt" horiz-adv-x="1267" 
d="M643 1196q-54 0 -91 37q-38 38 -38 90q0 68 49 116t115 48q52 0 92 -38q39 -37 39 -89q0 -68 -49 -116q-50 -48 -117 -48zM1036 1196q-54 0 -91 37q-38 38 -38 90q0 68 50 116q49 48 114 48q52 0 92 -38q39 -37 39 -89q0 -68 -49 -116t-117 -48zM1081 842l33 182h195
l-183 -1024h-190l20 125q-150 -150 -344 -150q-197 0 -326 141q-130 139 -130 349q0 246 160 415q159 169 395 169q118 0 215.5 -54t154.5 -153zM668 168q152 0 249 109q97 107 97 268q0 135 -79 223t-208 88q-153 0 -250 -108q-98 -110 -98 -269q0 -136 80 -224
q79 -87 209 -87z" />
    <glyph glyph-name="agrave.aalt" horiz-adv-x="1267" 
d="M1034 1155h-12l-432 225l-4 13l96 149h12l408 -274v-13zM1081 842l33 182h195l-183 -1024h-190l20 125q-150 -150 -344 -150q-197 0 -326 141q-130 139 -130 349q0 246 160 415q159 169 395 169q118 0 215.5 -54t154.5 -153zM668 168q152 0 249 109q97 107 97 268
q0 135 -79 223t-208 88q-153 0 -250 -108q-98 -110 -98 -269q0 -136 80 -224q79 -87 209 -87z" />
    <glyph glyph-name="amacron.aalt" horiz-adv-x="1267" 
d="M557 1391h602l-29 -162h-602zM1081 842l33 182h195l-183 -1024h-190l20 125q-150 -150 -344 -150q-197 0 -326 141q-130 139 -130 349q0 246 160 415q159 169 395 169q118 0 215.5 -54t154.5 -153zM668 168q152 0 249 109q97 107 97 268q0 135 -79 223t-208 88
q-153 0 -250 -108q-98 -110 -98 -269q0 -136 80 -224q79 -87 209 -87z" />
    <glyph glyph-name="aogonek.aalt" horiz-adv-x="1267" 
d="M1180 -283l14 -4l27 -94l-4 -16q-91 -49 -181 -49q-101 0 -162 52q-63 52 -63 138q0 139 141 256h-16l20 125q-150 -150 -344 -150q-197 0 -326 141q-130 139 -130 349q0 246 160 415q159 169 395 169q118 0 215.5 -54t154.5 -153l33 182h195l-183 -1024l-20 -16
q-20 -18 -54 -52q-21 -19 -28 -32q-45 -70 -41 -111q0 -43 27.5 -69.5t74.5 -26.5q34 -1 95 24zM668 168q152 0 249 109q97 107 97 268q0 135 -79 223t-208 88q-153 0 -250 -108q-98 -110 -98 -269q0 -136 80 -224q79 -87 209 -87z" />
    <glyph glyph-name="aring.aalt" horiz-adv-x="1267" 
d="M831 1126q-86 0 -146 57q-60 55 -60 144q0 99 72 172q71 74 169 74q86 0 146 -57q59 -59 59 -144q0 -98 -71 -172t-169 -74zM858 1438q-39 0 -66.5 -29t-27.5 -70q0 -33 21.5 -55t54.5 -22q39 0 66.5 29.5t27.5 68.5q0 33 -21.5 55.5t-54.5 22.5zM1081 842l33 182h195
l-183 -1024h-190l20 125q-150 -150 -344 -150q-197 0 -326 141q-130 139 -130 349q0 246 160 415q159 169 395 169q118 0 215.5 -54t154.5 -153zM668 168q152 0 249 109q97 107 97 268q0 135 -79 223t-208 88q-153 0 -250 -108q-98 -110 -98 -269q0 -136 80 -224
q79 -87 209 -87z" />
    <glyph glyph-name="atilde.aalt" horiz-adv-x="1267" 
d="M541 1219h-21l-8 10l25 145q72 84 168 84q59 0 164 -37t145 -37q96 0 141 72h19l10 -8l-27 -148q-66 -84 -166 -83q-51 0 -156 38q-102 37 -155 37q-92 2 -139 -73zM1081 842l33 182h195l-183 -1024h-190l20 125q-150 -150 -344 -150q-197 0 -326 141q-130 139 -130 349
q0 246 160 415q159 169 395 169q118 0 215.5 -54t154.5 -153zM668 168q152 0 249 109q97 107 97 268q0 135 -79 223t-208 88q-153 0 -250 -108q-98 -110 -98 -269q0 -136 80 -224q79 -87 209 -87z" />
    <glyph glyph-name="ae.aalt" horiz-adv-x="2002" 
d="M1626 1049q223 0 342 -158t78 -367q-8 -37 -18 -67h-795q-12 -141 72 -222t211 -81q184 0 323 135h16l93 -103l-4 -16q-182 -195 -445 -195q-246 0 -360 189l-31 -172h-168l23 125q-146 -140 -338 -142q-197 0 -327 141q-130 139 -130 349q0 246 160 415q159 169 395 169
q117 0 213.5 -52t150.5 -149l33 184h174l-22 -121q152 138 354 138zM1257 602h588q10 113 -43 182q-63 90 -207 90q-130 0 -219 -77q-81 -69 -119 -195zM680 168q151 0 248 109q98 109 98 268q0 135 -79 223t-208 88q-153 0 -251 -108q-97 -109 -97 -269q0 -136 80 -224
q79 -87 209 -87z" />
    <glyph glyph-name="aeacute.aalt" horiz-adv-x="2002" 
d="M1511 1380l-438 -225h-14l-62 100l2 13l418 274h15l81 -149zM1626 1049q223 0 342 -158t78 -367q-8 -37 -18 -67h-795q-12 -141 72 -222t211 -81q184 0 323 135h16l93 -103l-4 -16q-182 -195 -445 -195q-246 0 -360 189l-31 -172h-168l23 125q-146 -140 -338 -142
q-197 0 -327 141q-130 139 -130 349q0 246 160 415q159 169 395 169q117 0 213.5 -52t150.5 -149l33 184h174l-22 -121q152 138 354 138zM1257 602h588q10 113 -43 182q-63 90 -207 90q-130 0 -219 -77q-81 -69 -119 -195zM680 168q151 0 248 109q98 109 98 268
q0 135 -79 223t-208 88q-153 0 -251 -108q-97 -109 -97 -269q0 -136 80 -224q79 -87 209 -87z" />
    <glyph glyph-name="f_t.dlig" horiz-adv-x="1417" 
d="M1518 850h-306l-92 -510q-31 -172 111 -172q62 0 121 47l18 -8l41 -137l-10 -19q-109 -76 -238 -76q-146 0 -222 91q-77 91 -44 260l94 524h-389l-153 -850h-224l154 850h-170l31 174h170l6 29q33 179 150 280q116 99 270 99q88 0 155 -37l6 -17l-75 -139l-21 -8
q-35 20 -76 20q-151 0 -186 -198l-6 -29h389l55 309l209 25l14 -12l-57 -322h305z" />
    <glyph glyph-name="ordfeminine.aalt" horiz-adv-x="909" 
d="M946 831l8 -4l4 -102l-8 -10q-41 -27 -92 -27q-90 0 -110 86q-103 -86 -232 -86q-122 0 -192 79q-72 79 -72 198q0 159 113 275q112 114 272 114q123 0 192 -90l15 75h135l-84 -467q-7 -51 27 -51q8 0 24 10zM559 825q89 0 154 65q63 64 63 169q0 74 -40 116t-107 42
q-88 0 -151 -69q-64 -68 -64 -163q0 -71 39 -115.5t106 -44.5z" />
    <glyph glyph-name="ampersand.aalt" horiz-adv-x="1263" 
d="M967 768h405l-31 -168h-167q35 -54 34 -139q0 -220 -162 -359q-164 -141 -411 -141q-220 0 -351 112q-132 111 -132 294q0 141 78 252t210 172q-111 77 -110 215q0 165 121 268q121 104 305 104q252 0 374 -204l-2 -17l-129 -94h-16q-77 141 -231 141q-96 0 -158 -53
t-62 -131q0 -66 52.5 -104.5t142.5 -38.5h86l-31 -179h-71q-149 0 -246 -86q-96 -86 -96 -221q0 -111 78 -178q77 -68 206 -68q144 0 242 85q98 86 98 216q0 80 -57 154z" />
    <glyph glyph-name="glyph370" horiz-adv-x="0" 
d="M-154 1059l123 387l17 12h184l10 -12l-192 -387l-19 -12h-112z" />
    <glyph glyph-name="acute.aalt" horiz-adv-x="651" 
d="M322 1260l426 256h16l84 -146l-2 -16l-451 -205h-16l-62 94z" />
    <glyph glyph-name="breve.aalt" horiz-adv-x="784" 
d="M614 1171q-125 0 -202 84q-78 84 -70 218h162q-2 -71 34 -112.5t99 -41.5q120 0 172 154h162q-39 -136 -136 -218q-97 -84 -221 -84z" />
    <glyph glyph-name="caron.aalt" horiz-adv-x="815" 
d="M954 1495h17l43 -102l-2 -17l-381 -202h-21l-311 202l2 17l74 90h16l246 -133z" />
    <glyph glyph-name="circumflex.aalt" horiz-adv-x="815" 
d="M662 1503h20l313 -200l-2 -17l-78 -98h-16l-244 135l-319 -145h-14l-50 108l2 17z" />
    <glyph glyph-name="dieresis.aalt" horiz-adv-x="903" 
d="M455 1178q-55 0 -95 39q-41 38 -41 92q0 71 52 120q52 50 118 50q55 0 96 -39q40 -39 40 -92q0 -70 -51 -120q-52 -50 -119 -50zM891 1178q-55 0 -94 39q-39 38 -39 92q0 70 50 120t118 50q54 0 95 -39q40 -39 40 -92q0 -70 -50 -120t-120 -50z" />
    <glyph glyph-name="dotaccent.aalt" horiz-adv-x="464" 
d="M451 1178q-56 0 -96 40q-42 39 -42 95q0 70 52 121q51 51 122 51q58 0 98 -40t40 -95q0 -70 -51 -121t-123 -51z" />
    <glyph glyph-name="grave.aalt" horiz-adv-x="649" 
d="M379 1516h16l426 -256l4 -17l-61 -94h-16l-451 205l-2 16z" />
    <glyph glyph-name="hungarumlaut.aalt" horiz-adv-x="878" 
d="M279 1143l227 323h196l9 -16l-283 -322h-143zM621 1143l225 323h196l9 -16l-283 -322h-143z" />
    <glyph glyph-name="macron.aalt" horiz-adv-x="774" 
d="M295 1200l29 162h616l-29 -162h-616z" />
    <glyph glyph-name="ring.aalt" horiz-adv-x="544" 
d="M500 1133q-86 0 -145 57q-60 57 -60 143q0 99 73 172q72 74 171 74q85 0 144 -57q58 -58 58 -144q0 -97 -71 -171q-72 -74 -170 -74zM510 1266q39 0 67.5 29.5t28.5 70.5q0 33 -22.5 56.5t-55.5 23.5q-41 0 -69.5 -30t-28.5 -70q0 -35 22.5 -57.5t57.5 -22.5z" />
    <glyph glyph-name="tilde.aalt" horiz-adv-x="950" 
d="M901 1202q-66 0 -177 39q-112 39 -167 39q-99 0 -145 -76h-23l-8 10l29 158q67 84 176 84q66 0 181 -39q114 -39 161 -39q103 0 149 76h19l8 -10l-29 -158q-63 -84 -174 -84z" />
    <glyph glyph-name="glyph382" horiz-adv-x="1488" 
d="M336 1458h-17l-43 96l5 15l446 264h14l66 -152l-2 -16zM1300 1458h-16l-43 96l4 15l447 264h16l64 -152l-3 -16zM395 0h-227l242 1331h227zM1188 426l162 905h227l-158 -870q-85 -485 -489 -486q-142 0 -242 63q-102 62 -149 152l2 17l145 119h16q27 -57 89 -101
q61 -45 147 -45q94 0 160.5 64t89.5 182z" />
    <glyph glyph-name="glyph383" horiz-adv-x="1490" 
d="M348 1458h-14l-43 96l2 15l446 264h17l63 -152l-2 -16zM1126 1458h-16l-43 96l4 15l447 264h14l65 -152l-2 -16zM397 0h-227l240 1331h227zM991 1331h586l-156 -870q-90 -484 -491 -486q-142 0 -242 63q-102 62 -149 152l4 17l143 119h19q26 -59 86 -101q61 -45 147 -45
q95 0 162 64.5t88 181.5l129 713h-361z" />
    <glyph glyph-name="glyph384" horiz-adv-x="1040" 
d="M811 1155h-12l-45 100l2 13l436 280h14l70 -155l-2 -13zM293 1155h-14l-48 100l2 13l431 278h14l70 -153l-3 -13zM369 0h-222l185 1024h221zM569 -340h-16l-53 162l2 16q92 45 132 99q41 56 60 169l164 918h223l-163 -920q-33 -183 -108 -278q-75 -94 -241 -166z" />
    <glyph glyph-name="glyph385" horiz-adv-x="1316" 
d="M305 -106h-223l-8 18l1290 1550h223l6 -18z" />
    <glyph glyph-name="glyph386" horiz-adv-x="1138" 
d="M272 55h-213l-6 19l1059 1229h211l6 -19z" />
    <glyph glyph-name="glyph387" horiz-adv-x="790" 
d="M932 928l-33 -180l-764 -351l-16 9l33 180l763 350z" />
    <glyph glyph-name="glyph388" horiz-adv-x="745" 
d="M791 713l-619 -299l-16 10l28 156l621 297l14 -9z" />
    <glyph glyph-name="glyph389" horiz-adv-x="1515" 
d="M264 940l27 154h1298l-26 -154h-1299z" />
    <glyph glyph-name="glyph390" horiz-adv-x="733" 
d="M780 592h-614l24 141h615z" />
    </font>
</defs>
</svg>
