<?xml version="1.0" standalone="no"?>
<!DOCTYPE svg PUBLIC "-//W3C//DTD SVG 1.1//EN" "http://www.w3.org/Graphics/SVG/1.1/DTD/svg11.dtd" >
<svg xmlns="http://www.w3.org/2000/svg" xmlns:xlink="http://www.w3.org/1999/xlink" version="1.1">
<metadata>
Created by FontForge 20190801 at Tue Sep 12 22:01:44 2017
 By Jimmy Wärting
Copyright (c) 2017 by Enrique Hernandez Vasquez. All rights reserved.
</metadata>
<defs>
<font id="IsidoraSans-ThinItalic" horiz-adv-x="1277" >
  <font-face 
    font-family="Isidora Sans Thin Italic"
    font-weight="265"
    font-style="italic"
    font-stretch="normal"
    units-per-em="2048"
    panose-1="0 0 3 0 0 0 0 0 0 0"
    ascent="1638"
    descent="-410"
    x-height="1024"
    cap-height="1331"
    bbox="-328 -377 2636 1759"
    underline-thickness="0"
    underline-position="0"
    unicode-range="U+0020-FB02"
  />
<missing-glyph horiz-adv-x="851" 
d="M158 1397h540v-1704h-540v1704zM567 1227v55h-280v-55h110v-64h-112v-55h282v55h-112v64h112zM455 944v119h-170v-178h282v59h-112zM340 1006h57v-62h-57v62zM567 782v58h-282v-58h112v-61h-112v-57h170v118h112zM567 567v170h-55v-112h-227v-58h282zM567 336v194h-170
v-96h58v39h57v-80h-172v137h-55v-194h282zM567 43v193h-282v-193h282zM340 178h172v-80h-172v80zM567 -53v55h-282v-55h118l-118 -80v-57h282v57h-174l119 80h55z" />
    <glyph glyph-name="uniFB01" unicode="fi" horiz-adv-x="954" 
d="M449 1024h505l-182 -1024h-41l176 985h-465l-176 -985h-41l176 985h-180l6 39h181l8 43q63 350 338 350q81 0 137 -24v-7l-19 -26l-6 -2q-48 20 -118 20q-124 0 -193 -77.5t-98 -233.5zM985 1335q23 0 40 -16t17 -39q0 -31 -21.5 -53.5t-51.5 -22.5q-25 0 -41.5 16.5
t-16.5 39.5q0 31 21.5 53t52.5 22z" />
    <glyph glyph-name="uniFB02" unicode="fl" horiz-adv-x="989" 
d="M1012 1391l35 6l8 -4l-252 -1393h-41l223 1243q-44 135 -215 135q-115 0 -199 -75q-84 -77 -108 -213l-12 -66h321l-6 -37h-322l-178 -987h-41l178 987h-182l6 37h183l12 66q27 154 124 241q98 86 230 86q156 0 221 -108z" />
    <glyph glyph-name=".notdef" horiz-adv-x="851" 
d="M158 1397h540v-1704h-540v1704zM567 1227v55h-280v-55h110v-64h-112v-55h282v55h-112v64h112zM455 944v119h-170v-178h282v59h-112zM340 1006h57v-62h-57v62zM567 782v58h-282v-58h112v-61h-112v-57h170v118h112zM567 567v170h-55v-112h-227v-58h282zM567 336v194h-170
v-96h58v39h57v-80h-172v137h-55v-194h282zM567 43v193h-282v-193h282zM340 178h172v-80h-172v80zM567 -53v55h-282v-55h118l-118 -80v-57h282v57h-174l119 80h55z" />
    <glyph glyph-name="glyph1" horiz-adv-x="0" 
 />
    <glyph glyph-name="glyph2" horiz-adv-x="681" 
 />
    <glyph glyph-name="space" unicode=" " horiz-adv-x="534" 
 />
    <glyph glyph-name="exclam" unicode="!" horiz-adv-x="444" 
d="M276 209h-32l-4 4l196 1114l6 4h41l2 -4l-204 -1114zM272 -4q-33 -32 -72 -16t-36 55q0 29 21.5 50t50.5 21q25 0 41 -17t16 -42q0 -29 -21 -51z" />
    <glyph glyph-name="quotedbl" unicode="&#x22;" horiz-adv-x="530" 
d="M338 879h-29l70 452h53zM539 879h-29l70 452h53z" />
    <glyph glyph-name="numbersign" unicode="#" horiz-adv-x="1087" 
d="M295 0h-43l133 420h-240l13 37h239l133 417h-256l13 37h254l131 418h43l-131 -418h346l131 418h43l-131 -418h207l-13 -37h-206l-132 -417h218l-15 -37h-213l-133 -420h-43l133 420h-348zM573 874l-133 -417h346l132 417h-345z" />
    <glyph glyph-name="dollar" unicode="$" horiz-adv-x="868" 
d="M709 1395l-23 -125q178 -12 252 -137l-2 -7l-29 -22h-6q-63 123 -250 123q-128 0 -216 -80q-87 -79 -87 -197q0 -74 47 -121q45 -45 148 -102q10 -6 70 -35q54 -27 74 -39q18 -11 60 -41q35 -26 53 -51.5t34 -67.5q14 -42 14 -87q0 -139 -103 -229q-103 -91 -268 -91h-2
l-22 -123h-41l22 125q-101 11 -186 67q-86 56 -125 138l2 6l31 20h6q39 -84 128 -137t189 -53q145 0 236 78q90 78 90 196q0 101 -68 158q-40 33 -61 48q-22 14 -83 44q-58 27 -77 37q-103 56 -156 112q-55 55 -55 150q0 135 97 225q96 89 243 93l23 125h41z" />
    <glyph glyph-name="percent" unicode="%" horiz-adv-x="1460" 
d="M492 590q-100 0 -163 83t-63 222q0 183 88 322t228 139q98 0 160 -83q61 -82 61 -222q-1 -182 -88 -322q-85 -139 -223 -139zM195 0l-2 6l1243 1325h43l2 -6l-1243 -1325h-43zM494 631q122 0 196 128q72 127 72 294q0 121 -50 191.5t-137 70.5q-120 0 -194 -128
q-75 -129 -76 -292q0 -121 51 -192.5t138 -71.5zM1104 -25q-100 0 -162 83q-63 82 -63 223q0 182 88 321t227 139q98 0 160 -83q61 -82 61 -222q-1 -182 -88 -322q-85 -139 -223 -139zM1106 16q122 0 196 128q72 128 72 294q0 121 -50 191.5t-136 70.5q-120 0 -194 -128
q-75 -129 -76 -291q0 -121 50.5 -193t137.5 -72z" />
    <glyph glyph-name="ampersand" unicode="&#x26;" horiz-adv-x="1232" 
d="M1198 33l6 -2l6 -31l-4 -6q-28 -17 -76 -19q-80 0 -155 111q-152 -113 -348 -113q-199 0 -330 111t-131 287q0 151 96 278t250 193q-23 46 -31 69q-14 51 -14 105q0 152 100 246q98 94 256 94q90 0 168 -42t121 -106v-6l-33 -22h-6q-40 60 -108.5 96.5t-147.5 36.5
q-135 0 -221 -83t-86 -212q0 -100 57 -191l420 -675q158 143 158 340q0 116 -53 192v6l32 19h6q56 -89 58 -215q0 -223 -178 -379l4 -6q58 -91 125 -93q39 0 59 17zM625 16q181 0 327 107l-315 506l-105 178q-139 -58 -231 -179t-92 -255q0 -160 119 -258q118 -99 297 -99z
" />
    <glyph glyph-name="quotesingle" unicode="'" horiz-adv-x="329" 
d="M338 879h-29l70 452h53z" />
    <glyph glyph-name="parenleft" unicode="(" horiz-adv-x="487" 
d="M240 434q0 -394 172 -672h-54q-162 292 -161 672q0 560 471 1077h57q-485 -503 -485 -1077z" />
    <glyph glyph-name="parenright" unicode=")" horiz-adv-x="487" 
d="M45 -238h-57q487 503 487 1084q0 388 -170 665h53q162 -291 162 -669q0 -557 -475 -1080z" />
    <glyph glyph-name="asterisk" unicode="*" horiz-adv-x="909" 
d="M588 633h-43l61 332l-311 -164l-16 37l313 168l-252 163l29 35l249 -164l60 332h43l-59 -330l311 166l16 -39l-315 -165l254 -168l-27 -35l-254 166z" />
    <glyph glyph-name="plus" unicode="+" horiz-adv-x="1056" 
d="M666 633h438l-6 -37h-439l-77 -432h-43l77 432h-444l6 37h445l77 432h43z" />
    <glyph glyph-name="comma" unicode="," horiz-adv-x="342" 
d="M53 -264h-6l-16 16v6q124 140 143 217q-25 0 -41 16.5t-16 41.5q0 31 20.5 50t52.5 19q25 0 40.5 -17t15.5 -46q0 -40 -50 -125q-49 -81 -143 -178z" />
    <glyph glyph-name="hyphen" unicode="-" horiz-adv-x="970" 
d="M252 596l6 37h682l-6 -37h-682z" />
    <glyph glyph-name="period" unicode="." horiz-adv-x="382" 
d="M241 -4q-33 -32 -72 -16t-36 55q0 29 21.5 50t50.5 21q25 0 41 -17t16 -42q0 -29 -21 -51z" />
    <glyph glyph-name="slash" unicode="/" horiz-adv-x="948" 
d="M31 -102l1083 1544h43l-2 -4l-1079 -1547h-41z" />
    <glyph glyph-name="zero" unicode="0" horiz-adv-x="1171" 
d="M625 -25q-184 0 -292 147q-108 146 -108 394q0 208 65 398q64 188 198 315q133 127 305 127q184 0 292 -146q107 -148 107 -395q0 -211 -64 -397q-64 -188 -198 -316q-133 -127 -305 -127zM625 16q158 0 281 120q123 121 182 298q59 180 59 375q0 233 -93 370
q-93 136 -261 136q-158 0 -281 -120q-124 -121 -182 -298q-60 -179 -60 -375q0 -233 94 -369q93 -137 261 -137z" />
    <glyph glyph-name="one" unicode="1" horiz-adv-x="509" 
d="M293 1292l8 39h240l-240 -1331h-41l232 1292h-199z" />
    <glyph glyph-name="two" unicode="2" horiz-adv-x="929" 
d="M651 506q-298 -283 -512 -467h705l-6 -39h-764l6 39q236 201 545 498q165 159 238 279q71 119 71 241q0 119 -81 189q-81 69 -202 69q-169 0 -332 -160h-6l-22 23l2 6q175 172 366 172q136 0 227 -82t91 -217q0 -134 -76 -259q-76 -126 -250 -292z" />
    <glyph glyph-name="three" unicode="3" horiz-adv-x="976" 
d="M705 725q108 -31 171.5 -113t63.5 -196q0 -211 -164 -342q-128 -98 -297 -99q-111 0 -216 42t-167 128v7l29 24h6q55 -82 153 -121t197 -39q173 0 294 114q122 114 122 284q0 138 -96 215q-95 76 -244 76h-72l7 36h88q131 0 255 100q123 99 123 242q0 102 -77 167
q-79 65 -191 65q-159 0 -311 -139h-6l-23 22l2 6q173 152 346 152q127 0 215 -76t88 -195q0 -125 -84 -222q-86 -98 -212 -138z" />
    <glyph glyph-name="four" unicode="4" horiz-adv-x="1026" 
d="M1014 1331h24l-166 -921h150l-6 -39h-150l-67 -371h-41l67 371h-719l7 39zM981 1239l-813 -829h663z" />
    <glyph glyph-name="five" unicode="5" horiz-adv-x="1036" 
d="M1077 1331l-8 -39h-590l-170 -565q157 121 344 121q183 0 283 -105q100 -106 100 -270q0 -111 -45 -212t-125 -169q-140 -117 -350 -117q-114 0 -220 42q-107 42 -169 128l2 7l27 22h6q52 -77 151 -118q96 -40 209 -40q199 0 326 115q145 130 145 334q0 152 -92 247
t-254 95q-111 0 -204 -43q-96 -44 -154 -111h-6l-33 19l199 659h628z" />
    <glyph glyph-name="six" unicode="6" horiz-adv-x="1062" 
d="M674 844q177 0 286 -106t109 -277q0 -209 -142 -347q-142 -139 -354 -139q-181 0 -294 107t-113 278q0 266 330 654q136 159 319 334h6l23 -21v-6q-202 -197 -316 -332q-131 -152 -206 -284q146 139 352 139zM578 16q190 0 319 126t129 317q0 152 -99 248
q-101 96 -261 96q-190 0 -322 -126q-133 -126 -133 -315q0 -154 102 -250q101 -96 265 -96z" />
    <glyph glyph-name="seven" unicode="7" horiz-adv-x="866" 
d="M248 1292l8 39h805l-8 -39l-795 -1292h-41l-2 6l791 1286h-758z" />
    <glyph glyph-name="eight" unicode="8" horiz-adv-x="1101" 
d="M803 752q124 -33 195 -121q71 -89 71 -207q0 -201 -141 -325q-142 -124 -359 -124q-175 0 -287 99q-114 98 -114 248q0 155 105 274q103 117 268 156q-85 31 -133 96t-48 151q0 151 115 254t277 103q136 0 224 -77q87 -77 87 -196q0 -115 -72 -204q-73 -90 -188 -127z
M403 1006q0 -102 76 -169t195 -67q143 0 245 90q101 90 101 219q0 101 -77 169q-76 67 -195 67q-143 0 -244 -89t-101 -220zM573 16q198 0 326 113q127 112 127 291q0 135 -100 222t-258 87q-189 0 -322 -115q-135 -115 -135 -284q0 -136 102 -224q102 -90 260 -90z" />
    <glyph glyph-name="nine" unicode="9" horiz-adv-x="1058" 
d="M727 1356q177 0 286 -103t109 -276q0 -307 -354 -719q-74 -88 -274 -274h-7l-22 20v6q153 140 266 269q169 197 258 372q-158 -164 -366 -164q-177 0 -286 106q-110 105 -110 273q0 209 146 350q146 140 354 140zM625 528q186 0 321 129t135 320q0 149 -99 244
q-98 94 -259 94q-188 0 -320 -129q-133 -129 -133 -318q0 -152 99 -246q97 -94 256 -94z" />
    <glyph glyph-name="colon" unicode=":" horiz-adv-x="419" 
d="M423 915q-33 -34 -72 -17.5t-36 54.5q0 29 21.5 50.5t50.5 21.5q24 0 40.5 -17.5t16.5 -41.5q0 -29 -21 -50zM260 -4q-24 -21 -49 -21t-43 18t-16 42q0 29 21.5 50t49.5 21q25 0 41.5 -17t16.5 -42q0 -29 -21 -51z" />
    <glyph glyph-name="semicolon" unicode=";" horiz-adv-x="485" 
d="M468 915q-33 -34 -72 -17.5t-36 54.5q0 29 21.5 50.5t50.5 21.5q24 0 40.5 -17.5t16.5 -41.5q0 -29 -21 -50zM131 -264h-6l-16 16v6q124 140 143 217q-25 0 -41 16.5t-16 41.5q0 31 20.5 50t52.5 19q25 0 40.5 -17t15.5 -46q0 -40 -50 -125q-49 -81 -143 -178z" />
    <glyph glyph-name="less" unicode="&#x3c;" horiz-adv-x="903" 
d="M975 1098l4 -4l-6 -43l-731 -394l589 -393l-8 -39l-6 -4l-639 426l4 25z" />
    <glyph glyph-name="equal" unicode="=" horiz-adv-x="1220" 
d="M293 803l6 37h924l-6 -37h-924zM219 389l6 37h924l-6 -37h-924z" />
    <glyph glyph-name="greater" unicode="&#x3e;" horiz-adv-x="901" 
d="M315 1094l9 4l639 -426l-5 -25l-792 -426l-6 4l8 43l731 394l-590 393z" />
    <glyph glyph-name="question" unicode="?" horiz-adv-x="940" 
d="M535 217h-41l22 133q29 156 197 305l66 58q15 13 39 34t31 27q15 13 55 56q35 36 51 67q13 27 27 71q13 40 13 87q0 119 -82 191q-83 71 -221 71q-125 0 -237 -85q-114 -87 -176 -224l-7 -2l-28 14v6q66 149 191 240q125 90 265 90q155 0 247 -80q91 -79 91 -213
q0 -125 -68 -210q-36 -46 -64 -74q-27 -27 -87 -78q-15 -13 -35 -30t-30.5 -26t-16.5 -14q-156 -143 -180 -279zM530 -4q-33 -32 -72 -16t-36 55q0 29 21.5 50t50.5 21q25 0 41 -17t16 -42q0 -29 -21 -51z" />
    <glyph glyph-name="at" unicode="@" horiz-adv-x="1734" 
d="M844 -248q-292 0 -476 178q-186 180 -186 457q0 372 260 629q259 256 633 256q287 0 468 -177t181 -458q0 -233 -97 -375q-98 -143 -255 -143q-96 0 -138 61t-22 174q-122 -219 -348 -219q-135 0 -216 85q-81 86 -81 216q0 179 116 304q115 124 294 124q114 0 189 -57.5
t96 -157.5l34 201h39l-84 -471q-41 -221 127 -221q144 0 223 136q80 137 80 339q0 264 -170 432q-169 168 -438 168q-355 0 -600 -241q-246 -242 -246 -599q0 -263 173 -433q172 -169 448 -169q220 0 414 135h6l16 -26v-6q-196 -142 -440 -142zM870 174q150 0 257 117
q106 116 106 266q0 116 -73 192t-189 76q-153 0 -256 -112q-105 -113 -105 -269q0 -116 72 -193q71 -77 188 -77z" />
    <glyph glyph-name="A" unicode="A" horiz-adv-x="1292" 
d="M866 1331h39l334 -1325l-6 -6h-37l-86 346h-799l-211 -346h-41l-2 6zM879 1272l-543 -887h764z" />
    <glyph glyph-name="B" unicode="B" horiz-adv-x="1204" 
d="M926 696q111 -29 172 -105.5t61 -184.5q0 -180 -129 -293q-130 -113 -330 -113h-491l240 1331h432q156 0 244.5 -73.5t88.5 -202.5q0 -135 -78 -230q-80 -96 -210 -129zM881 1292h-398l-104 -577h418q163 0 269 92q105 91 105 242q0 113 -77.5 178t-212.5 65zM258 39h453
q174 0 290 104q115 103 115 263q0 124 -87 197q-86 73 -234 73h-422z" />
    <glyph glyph-name="C" unicode="C" horiz-adv-x="1425" 
d="M848 -25q-272 0 -450 180q-179 179 -179 449q0 332 217 543q214 209 541 209q169 0 304 -67q136 -67 208 -183v-6l-29 -21h-6q-67 108 -194 172q-129 62 -287 62q-311 0 -514 -203q-197 -202 -197 -506q0 -252 168 -419q169 -167 422 -167q298 0 516 224h6l27 -25v-6
q-225 -236 -553 -236z" />
    <glyph glyph-name="D" unicode="D" horiz-adv-x="1435" 
d="M449 1331h471q265 0 402 -143q136 -143 136 -395q0 -357 -205 -574q-205 -219 -569 -219h-475zM258 39h426q344 0 538 206q193 205 193 548q0 232 -125 366q-124 133 -370 133h-437z" />
    <glyph glyph-name="E" unicode="E" horiz-adv-x="1107" 
d="M1264 1331l-9 -39h-772l-106 -600h612l-8 -39h-612l-111 -614h772l-6 -39h-815l240 1331h815z" />
    <glyph glyph-name="F" unicode="F" horiz-adv-x="1024" 
d="M1233 1331l-10 -39h-740l-106 -598h579l-8 -39h-579l-117 -655h-43l240 1331h784z" />
    <glyph glyph-name="G" unicode="G" horiz-adv-x="1503" 
d="M834 -25q-271 0 -447 179t-176 450q0 332 217 543q214 209 541 209q163 0 299 -74q135 -73 209 -190v-7l-29 -20h-6q-70 111 -195 180q-125 68 -280 68q-313 0 -516 -203q-197 -202 -197 -506q0 -249 164 -418q164 -168 416 -168q265 0 446 164q171 159 223 449h-604
l8 39h639l4 -6v-9q-46 -323 -243 -508q-187 -172 -473 -172z" />
    <glyph glyph-name="H" unicode="H" horiz-adv-x="1402" 
d="M1276 692l115 639h43l-240 -1331h-43l117 653h-899l-117 -653h-43l240 1331h43l-115 -639h899z" />
    <glyph glyph-name="I" unicode="I" horiz-adv-x="460" 
d="M209 0l240 1331h43l-240 -1331h-43z" />
    <glyph glyph-name="J" unicode="J" horiz-adv-x="952" 
d="M776 340l178 991h43l-178 -995q-29 -164 -139 -262q-111 -99 -270 -99q-113 0 -204 52q-92 51 -132 147l2 6l28 19h7q83 -182 299 -183q140 0 241 89q100 89 125 235z" />
    <glyph glyph-name="K" unicode="K" horiz-adv-x="1114" 
d="M1327 1331l2 -6l-678 -571l428 -748l-6 -6h-41l-414 725l-278 -229l-88 -496h-43l240 1331h43l-140 -776l924 776h51z" />
    <glyph glyph-name="L" unicode="L" horiz-adv-x="987" 
d="M258 39h700l-6 -39h-743l240 1331h43z" />
    <glyph glyph-name="M" unicode="M" horiz-adv-x="1601" 
d="M813 63l703 1268h40l-96 -1331h-45l88 1223l-678 -1223h-43l-239 1235l-357 -1235h-45l385 1331h41z" />
    <glyph glyph-name="N" unicode="N" horiz-adv-x="1398" 
d="M1155 53l231 1278h44l-244 -1351h-39l-668 1275l-225 -1255h-45l240 1331h40z" />
    <glyph glyph-name="O" unicode="O" horiz-adv-x="1572" 
d="M846 -25q-272 0 -450 180q-179 179 -179 449q0 332 217 543q214 209 541 209q272 0 451 -179q178 -179 178 -450q0 -331 -218 -543q-212 -209 -540 -209zM850 18q311 0 514 203q197 202 197 506q0 252 -168 419q-169 167 -422 167q-311 0 -514 -203q-197 -202 -197 -506
q0 -252 168 -419q169 -167 422 -167z" />
    <glyph glyph-name="P" unicode="P" horiz-adv-x="1134" 
d="M449 1331h454q159 0 251 -89q91 -88 91 -232q0 -193 -133 -317t-338 -124h-420l-102 -569h-43zM360 608h424q180 0 299 114t119 288q0 129 -77 206q-77 76 -218 76h-424z" />
    <glyph glyph-name="Q" unicode="Q" horiz-adv-x="1617" 
d="M975 1356q272 0 451 -179q178 -179 178 -450q0 -331 -218 -543q-129 -129 -323 -180l194 -274l-6 -6h-43l-192 268q-83 -15 -170 -17q-272 0 -450 180q-179 179 -179 449q0 332 217 543q214 209 541 209zM1364 221q197 202 197 506q0 252 -168 419q-169 167 -422 167
q-311 0 -514 -203q-197 -202 -197 -506q0 -252 168 -419q169 -167 422 -167q311 0 514 203z" />
    <glyph glyph-name="R" unicode="R" horiz-adv-x="1191" 
d="M1266 1030q0 -169 -107 -285q-109 -116 -285 -137l189 -602l-6 -6h-39l-189 604h-26h-443l-108 -604h-43l240 1331h487q157 0 243 -82q87 -83 87 -219zM367 643h446q179 0 295 110q115 109 115 277q0 122 -77.5 192t-215.5 70h-447z" />
    <glyph glyph-name="S" unicode="S" horiz-adv-x="1009" 
d="M543 -25q-146 0 -261 70q-116 71 -171 174v6l30 21h6q53 -102 159 -165t239 -63q168 0 282 90q113 89 113 228q0 61 -28 121q-9 19 -38 50q-23 23 -43 41q-17 14 -57 39q-14 9 -32.5 20t-22.5 14q-26 14 -64 34q-54 27 -61 31q-130 70 -198 141t-68 185q0 150 114 247
q112 97 291 97q238 0 350 -172v-6l-26 -23h-6q-46 77 -136 118q-89 40 -188 40q-159 0 -257 -88q-99 -89 -99 -215q0 -93 59 -155q60 -64 186 -130q16 -9 51 -26q39 -20 53 -28q33 -18 49 -27q32 -18 51 -32q1 0 43 -34q18 -15 28 -25t23 -28t21 -27q18 -24 28 -48
q20 -58 20 -114q0 -159 -128 -260t-312 -101z" />
    <glyph glyph-name="T" unicode="T" horiz-adv-x="1036" 
d="M1239 1292h-471l-231 -1292h-43l231 1292h-463l8 39h977z" />
    <glyph glyph-name="U" unicode="U" horiz-adv-x="1413" 
d="M283 520l145 811h43l-145 -809q-41 -225 72 -365q112 -141 331 -141q213 0 359 138q144 135 188 368l145 809h43l-145 -811q-45 -249 -200 -397t-388 -148q-238 0 -364 152q-127 151 -84 393z" />
    <glyph glyph-name="V" unicode="V" horiz-adv-x="1284" 
d="M1421 1331h45l2 -6l-804 -1325h-41l-330 1325l6 6h37l315 -1268z" />
    <glyph glyph-name="W" unicode="W" horiz-adv-x="1890" 
d="M2025 1331h43l3 -6l-711 -1325h-41l-148 1255l-598 -1255h-41l-235 1325l6 6h39l223 -1253l596 1253h45l146 -1253z" />
    <glyph glyph-name="X" unicode="X" horiz-adv-x="1097" 
d="M1280 1331l2 -6l-588 -659l373 -660l-6 -6h-39l-358 631l-576 -631h-49l-2 6l606 664l-348 655l6 6h39l336 -629l555 629h49z" />
    <glyph glyph-name="Y" unicode="Y" horiz-adv-x="1183" 
d="M1350 1331l2 -6l-645 -813l-93 -512h-43l95 514l-355 811l6 6h39l334 -774l610 774h50z" />
    <glyph glyph-name="Z" unicode="Z" horiz-adv-x="1048" 
d="M330 1331h874l-8 -41l-1087 -1251h903l-6 -39h-959l8 41l1088 1251h-821z" />
    <glyph glyph-name="bracketleft" unicode="[" horiz-adv-x="497" 
d="M725 1511l-6 -36h-213l-301 -1676h213l-6 -37h-254l313 1749h254z" />
    <glyph glyph-name="backslash" unicode="\" horiz-adv-x="948" 
d="M313 1442h39l527 -1544l-5 -7h-38l-527 1545z" />
    <glyph glyph-name="bracketright" unicode="]" horiz-adv-x="497" 
d="M522 1475h-213l6 36h254l-313 -1749h-254l6 37h213z" />
    <glyph glyph-name="asciicircum" unicode="^" horiz-adv-x="1118" 
d="M784 1331h25l336 -768l-4 -6h-41l-316 717l-565 -717h-41l-4 6z" />
    <glyph glyph-name="underscore" unicode="_" horiz-adv-x="991" 
d="M47 -186l6 36h832l-6 -36h-832z" />
    <glyph glyph-name="grave" unicode="`" horiz-adv-x="509" 
d="M317 1432h5l358 -258v-5l-16 -22h-5l-366 248v4z" />
    <glyph glyph-name="a" unicode="a" horiz-adv-x="1067" 
d="M961 942q95 -109 61 -293l-117 -649h-43l33 184q-66 -102 -176 -155q-111 -54 -238 -54q-157 0 -252 79q-96 80 -96 210q0 152 129 249q128 97 326 97q224 0 366 -100l25 143q32 164 -51 265q-80 92 -240 92q-103 0 -200 -44q-96 -43 -146 -120h-6l-29 14v6
q51 79 155 132q104 51 224 51q181 -1 275 -107zM483 14q159 0 287 92t156 244l20 115q-67 47 -165 77q-101 29 -197 29q-177 0 -292 -88q-116 -89 -116 -221q0 -112 86 -180t221 -68z" />
    <glyph glyph-name="b" unicode="b" horiz-adv-x="1280" 
d="M819 1049q199 0 328 -137q129 -138 129 -347q0 -245 -156 -417q-158 -173 -397 -173q-171 0 -290 106q-120 105 -150 275l-64 -356h-41l250 1393l35 4l6 -4l-109 -611q146 267 459 267zM723 14q217 0 364 162q146 163 146 385q0 194 -116 322q-115 127 -298 127
q-223 0 -364 -157q-142 -157 -142 -390q0 -195 114 -322t296 -127z" />
    <glyph glyph-name="c" unicode="c" horiz-adv-x="1144" 
d="M670 -25q-209 0 -346 140q-138 139 -138 350q0 280 209 453q161 131 379 131q136 0 240 -61.5t164 -166.5v-6l-27 -18h-6q-119 213 -371 213q-206 0 -358 -131q-185 -157 -187 -410q0 -198 124 -326q125 -129 317 -129q264 0 407 183h6l23 -21v-6q-157 -195 -436 -195z
" />
    <glyph glyph-name="d" unicode="d" horiz-adv-x="1275" 
d="M1305 1393l32 4l9 -4l-252 -1393h-41l43 242q-146 -266 -459 -267q-199 0 -328 138q-129 136 -129 346q0 245 157 417q158 173 396 173q170 0 291 -106t150 -277zM637 14q223 0 365 157q141 157 141 390q0 195 -114 322t-296 127q-217 0 -363 -162q-147 -162 -147 -385
q0 -194 116 -322q115 -127 298 -127z" />
    <glyph glyph-name="e" unicode="e" horiz-adv-x="1157" 
d="M750 1049q211 0 333 -149q121 -150 84 -363q0 -17 -8 -41h-928v-27q0 -198 124 -326q125 -129 317 -129q264 0 407 183h6l23 -21v-6q-158 -195 -436 -195q-209 0 -346 140q-138 139 -138 350q0 138 55 259.5t154 203.5q149 121 353 121zM236 537h888q33 210 -82 346
q-106 127 -292 127q-196 0 -332 -121q-156 -129 -182 -352z" />
    <glyph glyph-name="f" unicode="f" horiz-adv-x="591" 
d="M754 1417q101 0 180 -47v-6l-21 -27l-6 -2q-67 43 -159 43q-106 0 -173 -57q-87 -79 -118 -254l-8 -43h323l-6 -39h-324l-176 -985h-41l176 985h-180l6 39h181l8 43q38 207 145 291q80 59 193 59z" />
    <glyph glyph-name="g" unicode="g" horiz-adv-x="1204" 
d="M1116 735l53 289h41l-161 -895q-39 -214 -176 -336q-137 -121 -347 -121q-143 0 -249.5 58.5t-153.5 163.5l2 6l31 16h6q41 -96 139.5 -150.5t233.5 -54.5q186 0 311 113q124 112 162 309l39 205q-51 -80 -127 -133q-124 -90 -299 -90q-180 0 -300 121q-120 120 -120 301
q0 121 49 227t137 176q130 109 322 109q194 0 313 -131q70 -76 94 -183zM895 233q92 63 143.5 167t51.5 225q0 166 -106 275q-106 108 -273 108q-177 0 -301 -101q-166 -139 -166 -370q0 -168 107 -275q107 -108 270 -108q162 -1 274 79z" />
    <glyph glyph-name="h" unicode="h" horiz-adv-x="1171" 
d="M791 1049q184 0 275 -124t54 -302l-110 -623h-43l110 623q31 179 -55 286q-82 99 -234 101q-136 0 -258 -83q-123 -83 -172 -206q-11 -26 -28 -113l-111 -608h-41l250 1393l35 4l6 -4l-107 -586q72 111 188 177q116 65 241 65z" />
    <glyph glyph-name="i" unicode="i" horiz-adv-x="409" 
d="M424 1206q-24 0 -41.5 16.5t-17.5 39.5q0 29 20.5 50t48.5 21q23 0 40.5 -16.5t17.5 -38.5q0 -29 -20.5 -50.5t-47.5 -21.5zM225 0h-41l185 1024h41z" />
    <glyph glyph-name="j" unicode="j" horiz-adv-x="397" 
d="M424 1206q-24 0 -41.5 16.5t-17.5 39.5q0 29 20.5 50t48.5 21q23 0 40.5 -16.5t17.5 -38.5q0 -29 -20.5 -50.5t-47.5 -21.5zM180 8l182 1016h41l-184 -1020q-22 -127 -76 -201q-53 -71 -147 -131h-6l-13 25v6q86 53 134 119q47 68 69 186z" />
    <glyph glyph-name="k" unicode="k" horiz-adv-x="946" 
d="M1085 1024l5 -6l-486 -422l324 -590l-6 -6h-39l-312 569l-297 -258l-55 -311h-41l250 1393l35 4l6 -4l-182 -1020l751 651h47z" />
    <glyph glyph-name="l" unicode="l" horiz-adv-x="409" 
d="M225 0h-41l250 1393l35 4l6 -4z" />
    <glyph glyph-name="m" unicode="m" horiz-adv-x="1923" 
d="M1548 1049q173 0 265 -119q90 -119 57 -307l-109 -623h-43l109 623q31 179 -53 286q-82 100 -230 101q-140 0 -273 -102q-135 -105 -163 -257l-119 -651h-43l113 623q31 179 -53 286q-82 100 -230 101q-132 0 -253 -83q-119 -82 -169 -206q-15 -40 -26 -113l-109 -608
h-41l184 1024h41l-41 -211q71 107 182 173q110 63 234 63q136 0 225 -75q86 -75 103 -204q57 117 182 198q124 81 260 81z" />
    <glyph glyph-name="n" unicode="n" horiz-adv-x="1171" 
d="M791 1049q184 0 275 -124t54 -302l-110 -623h-41l110 623q29 170 -52 279q-81 108 -239 108q-136 0 -258 -83q-123 -83 -172 -206q-11 -26 -28 -113l-111 -608h-41l184 1024h41l-41 -217q72 111 188 177q116 65 241 65z" />
    <glyph glyph-name="o" unicode="o" horiz-adv-x="1259" 
d="M670 -25q-211 0 -349 140q-139 139 -139 350q0 270 201 444q161 138 389 140q211 0 350 -139q138 -140 138 -351q0 -270 -201 -444q-163 -140 -389 -140zM670 14q213 0 366 138q180 160 181 403q0 197 -126 326t-319 129q-213 0 -366 -138q-180 -160 -181 -403
q0 -197 126 -326t319 -129z" />
    <glyph glyph-name="p" unicode="p" 
d="M819 1049q199 0 328 -137q129 -138 129 -347q0 -245 -156 -417q-158 -173 -397 -173q-171 0 -290 106q-120 105 -150 275l-117 -663h-41l237 1331h41l-43 -240q150 265 459 265zM727 14q215 0 361 162q145 161 145 385q0 194 -116 322q-115 127 -298 127
q-223 0 -364 -157q-142 -157 -142 -390q0 -194 116 -322q115 -127 298 -127z" />
    <glyph glyph-name="q" unicode="q" horiz-adv-x="1284" 
d="M1186 668l63 356h41l-237 -1331h-41l96 549q-146 -266 -459 -267q-199 0 -327 138q-129 136 -129 346q0 245 157 417q156 173 395 173q170 0 290 -105q119 -106 151 -276zM649 14q223 0 365 157q141 157 141 390q0 194 -113 322q-114 127 -297 127q-217 0 -363 -162
q-146 -163 -146 -385q0 -194 116 -322q115 -127 297 -127z" />
    <glyph glyph-name="r" unicode="r" horiz-adv-x="655" 
d="M709 1049q83 0 120 -27v-6l-16 -27l-6 -2q-41 23 -107 23q-111 0 -198 -69q-88 -69 -135 -183q-19 -47 -29 -107l-119 -651h-41l184 1024h41l-32 -184q47 81 98 121q100 88 240 88z" />
    <glyph glyph-name="s" unicode="s" horiz-adv-x="835" 
d="M426 -25q-122 0 -208.5 51t-123.5 142l2 6l29 16h6q74 -176 301 -176q148 0 234 73q86 74 86 194q0 45 -27 99q-5 9 -15 20.5t-18.5 19t-22 18.5t-16.5 14q-12 10 -50 30l-48 24q-4 2 -11 5t-20.5 9t-24.5 11q-52 22 -53 22q-176 78 -176 221q0 125 92 200t226 75
q95 0 175 -44q77 -42 116 -118v-6l-29 -17h-6q-35 68 -105.5 107t-156.5 39q-119 0 -194 -66q-75 -68 -75 -170q0 -122 164 -190q84 -34 117 -51q28 -14 92 -55q109 -70 109 -193q0 -139 -100 -224q-101 -86 -269 -86z" />
    <glyph glyph-name="t" unicode="t" horiz-adv-x="632" 
d="M768 985h-340l-131 -725q-23 -117 24.5 -181.5t155.5 -64.5q81 0 146 52l6 -3l12 -26l-2 -6q-78 -54 -164 -56q-126 0 -185 74.5t-34 206.5l131 729h-184l6 39h184l60 328l36 4l5 -4l-60 -328h340z" />
    <glyph glyph-name="u" unicode="u" horiz-adv-x="1150" 
d="M997 373l119 651h41l-184 -1024h-43l41 203q-141 -227 -402 -228q-184 0 -277 110q-93 109 -61 294l115 645h41l-115 -645q-29 -165 53 -264q81 -101 244 -101q137 0 240 70q104 72 158 182q20 44 30 107z" />
    <glyph glyph-name="v" unicode="v" horiz-adv-x="1019" 
d="M1100 1024h41l4 -6l-619 -1018h-32l-277 1018l4 6h39l260 -954z" />
    <glyph glyph-name="w" unicode="w" horiz-adv-x="1456" 
d="M1532 1024h41l4 -6l-514 -1018h-31l-147 944l-461 -944h-35l-168 1018l4 6h37l158 -938l461 938h34l148 -934z" />
    <glyph glyph-name="x" unicode="x" horiz-adv-x="925" 
d="M1038 1024l4 -6l-462 -500l325 -512l-6 -6h-41l-309 487l-459 -487h-49l-2 6l487 516l-299 496l4 6h43l285 -473l432 473h47z" />
    <glyph glyph-name="y" unicode="y" horiz-adv-x="1005" 
d="M1085 1024h43l7 -6l-725 -1192q-94 -154 -217 -154q-72 0 -127 43v6l20 25l6 2q46 -37 101 -37q104 0 180 127l112 187l-266 993l4 6h37l256 -946z" />
    <glyph glyph-name="z" unicode="z" horiz-adv-x="901" 
d="M248 1024h731l-6 -33l-862 -954h753l-6 -37h-811l6 33l862 954h-673z" />
    <glyph glyph-name="braceleft" unicode="{" horiz-adv-x="503" 
d="M432 -238h-24q-152 0 -198 76q-46 75 -11 268l55 304q30 102 15 154t-87 52l8 41q54 0 92 32q14 11 24 45q14 47 16 55q1 6 3 16t5 27.5t6 31.5l55 303q34 194 107 270q71 74 223 74h24l-6 -36h-24q-129 0 -190 -67q-62 -68 -93 -239l-76 -424q-10 -49 -32.5 -78.5
t-51.5 -29.5q30 0 42 -29.5t1 -79.5l-75 -424q-31 -170 7 -239q37 -66 167 -66h24z" />
    <glyph glyph-name="bar" unicode="|" horiz-adv-x="440" 
d="M186 -299h-41l316 1749h41z" />
    <glyph glyph-name="braceright" unicode="}" horiz-adv-x="503" 
d="M416 745l78 424q31 170 -7 239q-37 67 -168 67h-24l6 36h25q152 0 197 -74q43 -75 9 -270l-53 -303q-30 -102 -15 -154.5t87 -52.5l-8 -41q-54 0 -91 -31q-15 -13 -25 -45q-11 -34 -15 -54q-5 -25 -15 -76l-55 -304q-34 -194 -106 -270q-72 -74 -224 -74h-24l6 37h24
q130 0 191 66q60 66 92 239l76 424q8 49 30.5 79t51.5 30q-29 0 -40 29.5t-3 78.5z" />
    <glyph glyph-name="asciitilde" unicode="~" horiz-adv-x="1103" 
d="M901 610q-83 0 -232 36q-148 36 -214 36q-41 0 -89 -20q-48 -22 -71 -52h-4l-23 31l2 4q70 78 191 78q77 0 213 -36t233 -36q87 0 146 72h4l22 -31l-2 -4q-71 -78 -176 -78z" />
    <glyph glyph-name="exclamdown" unicode="&#xa1;" horiz-adv-x="425" 
d="M432 939q-24 -20 -49 -20.5t-43 17t-16 41.5q0 29 21.5 50.5t49.5 21.5q25 0 41.5 -17.5t16.5 -42.5q0 -29 -21 -50zM178 -307h-41l-4 4l205 1114l4 4h33l4 -4l-197 -1114z" />
    <glyph glyph-name="cent" unicode="&#xa2;" horiz-adv-x="1140" 
d="M840 1352l-27 -152q127 -4 226 -63.5t151 -157.5v-6l-27 -17h-6q-50 95 -145.5 150t-218.5 55q-225 0 -382 -168q-157 -167 -157 -399q0 -185 116 -307q115 -121 304 -121q123 0 230.5 55.5t180.5 151.5h7l24 -19l-2 -6q-74 -96 -186 -156q-110 -60 -244 -65l-27 -152
h-41l27 152q-193 7 -312 139q-120 131 -120 328q0 245 163 421q164 178 398 185l27 152h41z" />
    <glyph glyph-name="sterling" unicode="&#xa3;" horiz-adv-x="1021" 
d="M825 1356q195 0 318 -156v-6l-31 -27h-6q-103 144 -289 146q-154 0 -250 -85t-123 -241l-51 -289h424l-6 -41h-426l-111 -616h682l-8 -41h-860l8 41h135l111 616h-123l6 41h125l51 289q31 177 141 273t283 96z" />
    <glyph glyph-name="currency" unicode="&#xa4;" horiz-adv-x="1310" 
d="M1118 336l111 -129l-33 -31l-111 127q-163 -143 -366 -143q-205 0 -330 143l-139 -127l-29 31l139 127q-86 119 -86 276q0 224 166 400l-106 125l35 30l104 -125q157 142 369 144q200 0 334 -146l139 127l26 -30l-139 -127q82 -118 82 -275q0 -228 -166 -397zM721 203
q213 0 367 160q153 159 153 370q0 177 -112 292q-113 116 -291 116q-209 0 -365 -158q-156 -157 -156 -373q0 -174 114 -290q114 -117 290 -117z" />
    <glyph glyph-name="yen" unicode="&#xa5;" horiz-adv-x="1171" 
d="M1333 1331l2 -6l-628 -795h266l-6 -34h-279l-35 -195h279l-6 -35h-279l-49 -266h-43l49 266h-278l6 35h278l35 195h-278l6 34h268l-346 795l6 6h39l334 -774l610 774h49z" />
    <glyph glyph-name="brokenbar" unicode="&#xa6;" horiz-adv-x="440" 
d="M326 698l135 752h41l-135 -752h-41zM145 -299l142 793h41l-142 -793h-41z" />
    <glyph glyph-name="section" unicode="&#xa7;" horiz-adv-x="1042" 
d="M1063 1176h-4q-103 139 -318 139q-141 0 -235 -70t-94 -190q0 -53 23.5 -95.5t78.5 -82.5q59 -42 91 -60q47 -27 120 -65q145 -78 214 -141q71 -66 71 -169q0 -155 -142 -252q66 -70 66 -167q0 -151 -116 -243q-115 -91 -322 -91q-152 0 -275 55q-126 56 -172 160v6
l33 22h6q45 -94 155 -148q109 -54 255 -54q187 0 288 82q101 83 101 208q0 92 -69 155q-69 62 -216 136q-75 38 -121 66q-37 22 -94 67q-98 79 -98 191q0 152 151 239q-76 76 -75 177q0 137 110 221q109 84 277 84q220 0 342 -150v-6zM336 641q0 -72 57 -134q55 -62 127 -99
q27 -15 89 -48t78 -42q96 -53 151 -99q123 85 123 215q0 94 -76 161q-74 66 -214 137q-138 68 -196 114q-139 -76 -139 -205z" />
    <glyph glyph-name="dieresis" unicode="&#xa8;" horiz-adv-x="626" 
d="M408 1204q-25 0 -41.5 16.5t-16.5 39.5q0 31 21.5 53t52.5 22q23 0 40 -16t17 -39q0 -31 -21.5 -53.5t-51.5 -22.5zM662 1204q-25 0 -41.5 16.5t-16.5 39.5q0 31 21.5 53t52.5 22q23 0 40 -16t17 -39q0 -31 -21.5 -53.5t-51.5 -22.5z" />
    <glyph glyph-name="copyright" unicode="&#xa9;" horiz-adv-x="1568" 
d="M846 -25q-272 0 -450 180q-179 179 -179 449q0 340 229 553q211 199 529 199q272 0 451 -179q178 -179 178 -450q0 -336 -226 -549q-214 -203 -532 -203zM850 18q304 0 504 195q207 201 207 514q0 252 -168 419q-169 167 -422 167q-297 0 -496 -187q-215 -203 -215 -522
q0 -252 168 -419q169 -167 422 -167zM885 260q-152 0 -256 98q-105 98 -105 240q0 199 125 336t318 137q104 0 184.5 -44.5t122.5 -123.5v-6l-25 -14h-6q-80 151 -278 149q-178 0 -289 -123t-111 -309q0 -127 93 -214q92 -87 229 -87q173 0 303 150h6l23 -15v-6
q-145 -168 -334 -168z" />
    <glyph glyph-name="ordfeminine" unicode="&#xaa;" horiz-adv-x="776" 
d="M614 1352q100 0 169 -63q69 -64 48 -173l-73 -411h-41l18 116q-84 -127 -256 -127q-91 0 -152 50q-61 49 -61 124q0 111 83 170q82 58 202 58q134 0 225 -52l15 72q18 93 -37 145t-142 52q-127 0 -233 -103h-6l-23 19v6q117 117 264 117zM485 733q96 0 175 58
q78 56 98 153l10 60q-101 53 -223 53q-102 0 -169 -49t-67 -136q0 -61 50 -100q49 -39 126 -39z" />
    <glyph glyph-name="guillemotleft" unicode="&#xab;" horiz-adv-x="843" 
d="M567 913v-4l-309 -299l199 -293v-4l-29 -22h-6l-217 317l4 17l330 317h6zM846 942l22 -29v-4l-309 -299l199 -293v-4l-29 -22h-6l-217 317l4 17l330 317h6z" />
    <glyph glyph-name="registered" unicode="&#xae;" horiz-adv-x="890" 
d="M670 1352q129 0 216 -84t87 -205q0 -164 -112 -282q-113 -119 -277 -119q-130 0 -215 84q-86 83 -86 206q0 164 112 282q111 118 275 118zM586 698q145 0 247 108q101 107 101 253q0 110 -76 183t-190 73q-143 0 -244 -107q-102 -108 -102 -254q0 -111 75 -183
q73 -73 189 -73zM532 1223h144q117 0 117 -99q0 -45 -30 -82.5t-77 -48.5l59 -186h-40l-58 182h-119l-34 -182h-35zM535 1022h116q45 0 75 28.5t30 69.5q0 31 -21.5 49.5t-58.5 18.5h-113z" />
    <glyph glyph-name="overscore" unicode="&#xaf;" horiz-adv-x="1075" 
d="M487 1235l7 37h542l-6 -37h-543z" />
    <glyph glyph-name="degree" unicode="&#xb0;" horiz-adv-x="718" 
d="M508 827q-92 0 -153 66q-62 65 -62 160q0 123 95 213q94 90 216 90q94 0 155 -64q60 -64 60 -162q0 -121 -93 -212q-92 -91 -218 -91zM516 868q99 0 181 77q81 76 81 179q0 80 -51 136q-51 55 -131 55q-99 0 -181 -77q-81 -76 -81 -179q0 -79 51 -135t131 -56z" />
    <glyph glyph-name="plusminus" unicode="&#xb1;" horiz-adv-x="1142" 
d="M786 1065l-77 -432h438l-6 -37h-439l-77 -432h-43l77 432h-444l6 37h445l77 432h43zM1034 0h-925l6 37h925z" />
    <glyph glyph-name="acute" unicode="&#xb4;" horiz-adv-x="509" 
d="M291 1174l358 258h4l25 -33v-4l-367 -248h-4l-16 22v5z" />
    <glyph glyph-name="paragraph" unicode="&#xb6;" horiz-adv-x="1153" 
d="M1358 1450l-6 -37h-447l-307 -1706h-41l156 879h-19q-213 0 -334 85q-122 86 -122 267q0 268 161 390t441 122h518zM1106 1200h41l-268 -1493h-41z" />
    <glyph glyph-name="middot" unicode="&#xb7;" horiz-adv-x="411" 
d="M354 546q-33 -33 -72 -17t-36 55q0 29 21.5 50t49.5 21q25 0 41.5 -17t16.5 -42q0 -29 -21 -50z" />
    <glyph glyph-name="cedilla" unicode="&#xb8;" horiz-adv-x="544" 
d="M188 -352q-92 0 -151 53l2 6l27 29h6q52 -47 123 -47q56 0 89 25t33 67q0 39 -43 56.5t-112 6.5l-25 15l62 141l2 6h41v-6l-47 -113q76 4 120.5 -22.5t44.5 -77.5q0 -64 -45.5 -101.5t-126.5 -37.5z" />
    <glyph glyph-name="ordmasculine" unicode="&#xba;" horiz-adv-x="854" 
d="M571 696q-125 0 -210 79t-85 198q0 159 110 272q110 111 267 111q126 0 209 -79q84 -79 84 -198q0 -163 -108 -272q-110 -111 -267 -111zM573 735q139 0 235 101q95 101 95 241q0 104 -71 172q-73 68 -183 68q-139 0 -233 -99q-94 -100 -94 -243q0 -102 71 -171t180 -69z
" />
    <glyph glyph-name="guillemotright" unicode="&#xbb;" horiz-adv-x="843" 
d="M342 942l217 -317l-4 -17l-330 -317h-6l-22 26v5l311 301l-199 292v5l27 22h6zM637 942h6l217 -317l-4 -17l-330 -317h-6l-22 26v5l311 301l-199 292v5z" />
    <glyph glyph-name="onequarter" unicode="&#xbc;" horiz-adv-x="1230" 
d="M92 0l-2 6l1243 1325h43l2 -6l-1243 -1325h-43zM381 573h-43l131 719h-139l8 39h180zM1143 750l-92 -506h94l-6 -39h-95l-36 -205h-39l37 205h-400l6 39l500 506h31zM1090 674l-426 -430h348z" />
    <glyph glyph-name="onehalf" unicode="&#xbd;" horiz-adv-x="1353" 
d="M1305 1331h43l2 -6l-1244 -1325h-43l-2 6zM428 573h-43l131 719h-139l8 39h180zM1300 571q0 -50 -35 -108q-35 -55 -62 -84q-28 -27 -101 -98q-28 -27 -266 -242h405l-4 -39h-465l2 33q36 34 158 142q118 106 145 132q103 97 144 151q41 55 41 109q0 66 -42 105t-112 39
q-114 0 -209 -84h-6l-16 20l2 6q110 95 229 97q87 0 139.5 -49t52.5 -130z" />
    <glyph glyph-name="threequarters" unicode="&#xbe;" horiz-adv-x="1437" 
d="M688 823q0 -106 -78 -178t-190 -72q-60 0 -125 30q-63 29 -100 77l2 6l22 21h6q28 -42 86 -70q55 -27 113 -27q99 0 161 58q62 57 62 147q0 72 -53 116t-141 44h-52l5 37h55q75 0 137 53q61 52 61 127q0 59 -41.5 93t-111.5 34q-100 0 -182 -78h-7l-16 19v6q96 90 209 90
q84 0 136 -43t52 -115q0 -137 -149 -199q63 -20 101 -68t38 -108zM1518 1331h43l2 -6l-1244 -1325h-43l-2 6zM1321 750h31l-92 -506h94l-6 -39h-95l-36 -205h-39l36 205h-399l6 39zM870 244h351l77 432z" />
    <glyph glyph-name="questiondown" unicode="&#xbf;" horiz-adv-x="921" 
d="M671 951q-33 -32 -72 -16t-36 54q0 29 21.5 50.5t50.5 21.5q24 0 40.5 -17.5t16.5 -42.5q0 -29 -21 -50zM416 -319q-159 0 -248 79q-90 80 -90 213q0 122 69 210q39 50 64 75q27 27 87 78q66 56 81 70q151 141 180 278l25 135h41l-25 -133q-29 -156 -197 -305
q-22 -20 -67 -57q-36 -29 -68 -59q-32 -32 -56 -58q-37 -40 -51 -67q-14 -24 -29 -71q-13 -40 -13 -87q0 -119 82 -191q83 -72 223 -72q124 0 237 85q114 87 175 225l8 2l28 -11v-6q-64 -151 -190 -242q-127 -91 -266 -91z" />
    <glyph glyph-name="Agrave" unicode="&#xc0;" horiz-adv-x="1292" 
d="M1102 1473l-17 -21h-4l-315 215v4l27 31h4l305 -225v-4zM866 1331h39l334 -1325l-6 -6h-37l-86 346h-799l-211 -346h-41l-2 6zM879 1272l-543 -887h764z" />
    <glyph glyph-name="Aacute" unicode="&#xc1;" horiz-adv-x="1292" 
d="M1069 1667l-315 -215h-4l-17 21v4l305 225h4l27 -31v-4zM866 1331h39l334 -1325l-6 -6h-37l-86 346h-799l-211 -346h-41l-2 6zM879 1272l-543 -887h764z" />
    <glyph glyph-name="Acircumflex" unicode="&#xc2;" horiz-adv-x="1292" 
d="M932 1630l-281 -157h-4l-14 24v4l301 182h8l234 -182v-4l-21 -22h-4zM866 1331h39l334 -1325l-6 -6h-37l-86 346h-799l-211 -346h-41l-2 6zM879 1272l-543 -887h764z" />
    <glyph glyph-name="Atilde" unicode="&#xc3;" horiz-adv-x="1292" 
d="M641 1489h-10l-4 4l10 47q47 68 145 68q54 0 140 -37q84 -37 129 -37q86 0 133 74h12l2 -4l-8 -48q-20 -29 -62.5 -48t-85.5 -19q-45 0 -129 37t-139 37q-86 0 -133 -74zM866 1331h39l334 -1325l-6 -6h-37l-86 346h-799l-211 -346h-41l-2 6zM879 1272l-543 -887h764z" />
    <glyph glyph-name="Adieresis" unicode="&#xc4;" horiz-adv-x="1292" 
d="M760 1505q-25 0 -41.5 16.5t-16.5 39.5q0 31 21.5 53t52.5 22q24 0 41 -16t17 -39q0 -31 -21.5 -53.5t-52.5 -22.5zM1059 1505q-25 0 -42.5 16.5t-17.5 39.5q0 31 21.5 53t52.5 22q25 0 42.5 -16t17.5 -39q0 -31 -21.5 -53.5t-52.5 -22.5zM866 1331h39l334 -1325l-6 -6
h-37l-86 346h-799l-211 -346h-41l-2 6zM879 1272l-543 -887h764z" />
    <glyph glyph-name="Aring" unicode="&#xc5;" horiz-adv-x="1292" 
d="M899 1444q-59 0 -99 40t-40 97q0 76 53 127t129 51q59 0 99 -40t40 -97q0 -76 -53 -127q-52 -51 -129 -51zM936 1722q-61 0 -97 -43t-36 -96q0 -44 28 -73t76 -29q61 0 97 43q36 44 36 96q0 44 -28 73t-76 29zM866 1331h39l334 -1325l-6 -6h-37l-86 346h-799l-211 -346
h-41l-2 6zM879 1272l-543 -887h764z" />
    <glyph glyph-name="AE" unicode="&#xc6;" horiz-adv-x="1869" 
d="M1989 1331l-9 -39h-772l-106 -600h612l-8 -39h-612l-111 -614h772l-6 -39h-815l61 346h-659l-305 -346h-43l-2 6l1165 1325h838zM371 385h633l161 899z" />
    <glyph glyph-name="Ccedilla" unicode="&#xc7;" horiz-adv-x="1425" 
d="M977 1356q169 0 304 -67q136 -67 208 -183v-6l-29 -21h-6q-67 108 -194 172q-129 62 -287 62q-311 0 -514 -203q-197 -202 -197 -506q0 -252 168 -419q169 -167 422 -167q298 0 516 224h6l27 -25v-6q-224 -232 -547 -236l-37 -88q76 4 121 -22.5t45 -77.5
q0 -64 -45.5 -101.5t-126.5 -37.5q-91 0 -152 53l3 6l26 29h6q52 -47 123 -47q57 0 90 25t33 67q0 39 -43 56.5t-113 6.5l-24 15l51 116q-259 13 -426 191q-166 175 -166 438q0 332 217 543q214 209 541 209z" />
    <glyph glyph-name="Egrave" unicode="&#xc8;" horiz-adv-x="1107" 
d="M737 1702h4l306 -225v-4l-17 -21h-4l-315 215v4zM1264 1331l-9 -39h-772l-106 -600h612l-8 -39h-612l-111 -614h772l-6 -39h-815l240 1331h815z" />
    <glyph glyph-name="Eacute" unicode="&#xc9;" horiz-adv-x="1107" 
d="M713 1477l305 225h4l27 -31v-4l-316 -215h-4l-16 21v4zM1264 1331l-9 -39h-772l-106 -600h612l-8 -39h-612l-111 -614h772l-6 -39h-815l240 1331h815z" />
    <glyph glyph-name="Ecircumflex" unicode="&#xca;" horiz-adv-x="1107" 
d="M893 1630l-281 -157h-4l-14 24v4l301 182h8l234 -182v-4l-21 -22h-4zM1264 1331l-9 -39h-772l-106 -600h612l-8 -39h-612l-111 -614h772l-6 -39h-815l240 1331h815z" />
    <glyph glyph-name="Edieresis" unicode="&#xcb;" horiz-adv-x="1107" 
d="M721 1505q-25 0 -41 16.5t-16 39.5q0 31 21.5 53t51.5 22q24 0 41 -16t17 -39q0 -31 -21.5 -53.5t-52.5 -22.5zM1020 1505q-25 0 -42 16.5t-17 39.5q0 31 21.5 53t51.5 22q25 0 42.5 -16t17.5 -39q0 -31 -21.5 -53.5t-52.5 -22.5zM1264 1331l-9 -39h-772l-106 -600h612
l-8 -39h-612l-111 -614h772l-6 -39h-815l240 1331h815z" />
    <glyph glyph-name="Igrave" unicode="&#xcc;" horiz-adv-x="460" 
d="M362 1702h5l305 -225v-4l-17 -21h-4l-315 215v4zM209 0l240 1331h43l-240 -1331h-43z" />
    <glyph glyph-name="Iacute" unicode="&#xcd;" horiz-adv-x="460" 
d="M336 1477l305 225h4l27 -31v-4l-316 -215h-4l-16 21v4zM209 0l240 1331h43l-240 -1331h-43z" />
    <glyph glyph-name="Icircumflex" unicode="&#xce;" horiz-adv-x="460" 
d="M528 1683h9l233 -182v-4l-20 -22h-5l-219 155l-280 -157h-4l-15 24v4zM252 0h-43l240 1331h43z" />
    <glyph glyph-name="Idieresis" unicode="&#xcf;" horiz-adv-x="460" 
d="M354 1505q-24 0 -40.5 16.5t-16.5 39.5q0 31 21.5 53t52.5 22q23 0 40 -16t17 -39q0 -31 -21.5 -53.5t-52.5 -22.5zM653 1505q-25 0 -42 16.5t-17 39.5q0 31 21.5 53t52.5 22q25 0 42 -16t17 -39q0 -31 -21.5 -53.5t-52.5 -22.5zM209 0l240 1331h43l-240 -1331h-43z" />
    <glyph glyph-name="Eth" unicode="&#xd0;" horiz-adv-x="1482" 
d="M467 1331h471q266 0 403 -143q136 -143 136 -395q0 -356 -206 -574q-205 -219 -569 -219h-475l117 653h-205l8 39h205zM276 39h426q344 0 538 206t194 548q0 232 -125 366q-124 133 -371 133h-436l-107 -600h434l-8 -39h-434z" />
    <glyph glyph-name="Ntilde" unicode="&#xd1;" horiz-adv-x="1398" 
d="M686 1489h-10l-4 4l10 47q47 68 145 68q54 0 140 -37q84 -37 129 -37q86 0 133 74h12l2 -4l-8 -48q-20 -29 -62.5 -48t-85.5 -19q-45 0 -129 37t-139 37q-86 0 -133 -74zM1155 53l231 1278h44l-244 -1351h-39l-668 1275l-225 -1255h-45l240 1331h40z" />
    <glyph glyph-name="Ograve" unicode="&#xd2;" horiz-adv-x="1572" 
d="M877 1702h4l305 -225v-4l-17 -21h-4l-315 215v4zM846 -25q-272 0 -450 180q-179 179 -179 449q0 332 217 543q214 209 541 209q272 0 451 -179q178 -179 178 -450q0 -331 -218 -543q-212 -209 -540 -209zM850 18q311 0 514 203q197 202 197 506q0 252 -168 419
q-169 167 -422 167q-311 0 -514 -203q-197 -202 -197 -506q0 -252 168 -419q169 -167 422 -167z" />
    <glyph glyph-name="Oacute" unicode="&#xd3;" horiz-adv-x="1572" 
d="M852 1477l305 225h4l27 -31v-4l-316 -215h-4l-16 21v4zM846 -25q-272 0 -450 180q-179 179 -179 449q0 332 217 543q214 209 541 209q272 0 451 -179q178 -179 178 -450q0 -331 -218 -543q-212 -209 -540 -209zM850 18q311 0 514 203q197 202 197 506q0 252 -168 419
q-169 167 -422 167q-311 0 -514 -203q-197 -202 -197 -506q0 -252 168 -419q169 -167 422 -167z" />
    <glyph glyph-name="Ocircumflex" unicode="&#xd4;" horiz-adv-x="1572" 
d="M1032 1630l-280 -157h-4l-15 24v4l301 182h8l234 -182v-4l-21 -22h-4zM975 1356q272 0 451 -179q178 -179 178 -450q0 -331 -218 -543q-214 -209 -540 -209q-272 0 -450 180q-179 179 -179 449q0 332 217 543q214 209 541 209zM1364 221q197 202 197 506q0 252 -168 419
q-169 167 -422 167q-311 0 -514 -203q-197 -202 -197 -506q0 -252 168 -419q169 -167 422 -167q311 0 514 203z" />
    <glyph glyph-name="Otilde" unicode="&#xd5;" horiz-adv-x="1572" 
d="M1228 1508q-41 -19 -85 -19q-45 0 -129 37t-140 37q-86 0 -133 -74h-10l-4 4l10 47q47 68 146 68q55 0 139 -37t129 -37q86 0 133 74h12l2 -4l-8 -48q-19 -28 -62 -48zM846 -25q-272 0 -450 180q-179 179 -179 449q0 332 217 543q214 209 541 209q272 0 451 -179
q178 -179 178 -450q0 -331 -218 -543q-212 -209 -540 -209zM850 18q311 0 514 203q197 202 197 506q0 252 -168 419q-169 167 -422 167q-311 0 -514 -203q-197 -202 -197 -506q0 -252 168 -419q169 -167 422 -167z" />
    <glyph glyph-name="Odieresis" unicode="&#xd6;" horiz-adv-x="1572" 
d="M860 1505q-24 0 -40.5 16.5t-16.5 39.5q0 31 21.5 53t52.5 22q23 0 40 -16t17 -39q0 -31 -21.5 -53.5t-52.5 -22.5zM1159 1505q-25 0 -42 16.5t-17 39.5q0 31 21.5 53t52.5 22q25 0 42 -16t17 -39q0 -31 -21.5 -53.5t-52.5 -22.5zM846 -25q-272 0 -450 180
q-179 179 -179 449q0 332 217 543q214 209 541 209q272 0 451 -179q178 -179 178 -450q0 -331 -218 -543q-212 -209 -540 -209zM850 18q311 0 514 203q197 202 197 506q0 252 -168 419q-169 167 -422 167q-311 0 -514 -203q-197 -202 -197 -506q0 -252 168 -419
q169 -167 422 -167z" />
    <glyph glyph-name="multiply" unicode="&#xd7;" horiz-adv-x="1030" 
d="M1083 1085l27 -32l-446 -385l307 -385l-33 -29l-305 385l-449 -387l-28 31l448 387l-307 385l31 26l307 -383z" />
    <glyph glyph-name="Oslash" unicode="&#xd8;" horiz-adv-x="1572" 
d="M1587 1444l-194 -236q211 -181 211 -481q0 -331 -218 -543q-214 -209 -540 -209q-212 0 -379 117l-160 -192h-47l-2 6l176 213q-217 180 -217 485q0 332 217 543q214 209 541 209q219 0 385 -121l178 215h47zM260 604q0 -280 203 -450l866 1046q-152 113 -358 113
q-311 0 -514 -203q-197 -202 -197 -506zM1364 221q197 202 197 506q0 275 -199 447l-866 -1047q157 -109 354 -109q311 0 514 203z" />
    <glyph glyph-name="Ugrave" unicode="&#xd9;" horiz-adv-x="1413" 
d="M819 1702h4l305 -225v-4l-16 -21h-4l-315 215v4zM283 520l145 811h43l-145 -809q-41 -225 72 -365q112 -141 331 -141q213 0 359 138q144 135 188 368l145 809h43l-145 -811q-45 -249 -200 -397t-388 -148q-238 0 -364 152q-127 151 -84 393z" />
    <glyph glyph-name="Uacute" unicode="&#xda;" horiz-adv-x="1413" 
d="M795 1477l305 225h4l26 -31v-4l-315 -215h-4l-16 21v4zM283 520l145 811h43l-145 -809q-41 -225 72 -365q112 -141 331 -141q213 0 359 138q144 135 188 368l145 809h43l-145 -811q-45 -249 -200 -397t-388 -148q-238 0 -364 152q-127 151 -84 393z" />
    <glyph glyph-name="Ucircumflex" unicode="&#xdb;" horiz-adv-x="1413" 
d="M975 1630l-281 -157h-4l-14 24v4l301 182h8l234 -182v-4l-21 -22h-4zM1276 522l145 809h43l-145 -811q-45 -249 -200 -397t-388 -148q-238 0 -364 152q-127 151 -84 393l145 811h43l-145 -809q-41 -225 72 -365q112 -141 331 -141q213 0 359 138q144 135 188 368z" />
    <glyph glyph-name="Udieresis" unicode="&#xdc;" horiz-adv-x="1413" 
d="M803 1505q-25 0 -41.5 16.5t-16.5 39.5q0 31 21.5 53t52.5 22q24 0 41 -16t17 -39q0 -31 -21.5 -53.5t-52.5 -22.5zM1102 1505q-25 0 -42.5 16.5t-17.5 39.5q0 31 21.5 53t52.5 22q25 0 42.5 -16t17.5 -39q0 -31 -21.5 -53.5t-52.5 -22.5zM283 520l145 811h43l-145 -809
q-41 -225 72 -365q112 -141 331 -141q213 0 359 138q144 135 188 368l145 809h43l-145 -811q-45 -249 -200 -397t-388 -148q-238 0 -364 152q-127 151 -84 393z" />
    <glyph glyph-name="Yacute" unicode="&#xdd;" horiz-adv-x="1183" 
d="M997 1667l-315 -215h-4l-16 21v4l305 225h4l26 -31v-4zM1350 1331l2 -6l-645 -813l-93 -512h-43l95 514l-355 811l6 6h39l334 -774l610 774h50z" />
    <glyph glyph-name="Thorn" unicode="&#xde;" horiz-adv-x="1138" 
d="M252 0h-43l240 1331h43l-52 -284h391q161 0 250 -85q90 -86 90 -229q0 -198 -134 -323t-343 -125h-389zM434 1008l-123 -684h396q182 0 302 114q119 113 119 287q0 127 -80 205q-81 78 -219 78h-395z" />
    <glyph glyph-name="germandbls" unicode="&#xdf;" horiz-adv-x="1144" 
d="M881 752q116 -30 179.5 -109t63.5 -197q0 -207 -134 -339t-347 -132q-184 0 -295 105l-2 6l25 25l6 2q97 -97 270 -99q195 0 315 120q119 121 119 308q0 137 -95 211t-257 74h-37l8 39h33q163 0 275 100q112 99 112 252q0 114 -83 188q-83 72 -214 72q-172 0 -276 -92
q-118 -98 -152 -303l-176 -983h-41l178 985q40 226 172 336q117 96 297 96q149 0 244 -84q94 -84 94 -213q0 -130 -77 -231q-77 -99 -205 -137z" />
    <glyph glyph-name="agrave" unicode="&#xe0;" horiz-adv-x="1067" 
d="M553 1432h4l358 -258v-5l-16 -22h-4l-367 248v4zM961 942q95 -109 61 -293l-117 -649h-43l33 184q-66 -102 -176 -155q-111 -54 -238 -54q-157 0 -252 79q-96 80 -96 210q0 152 129 249q128 97 326 97q224 0 366 -100l25 143q32 164 -51 265q-80 92 -240 92
q-103 0 -200 -44q-96 -43 -146 -120h-6l-29 14v6q51 79 155 132q104 51 224 51q181 -1 275 -107zM483 14q159 0 287 92t156 244l20 115q-67 47 -165 77q-101 29 -197 29q-177 0 -292 -88q-116 -89 -116 -221q0 -112 86 -180t221 -68z" />
    <glyph glyph-name="aacute" unicode="&#xe1;" horiz-adv-x="1067" 
d="M528 1174l359 258h4l24 -33v-4l-366 -248h-4l-17 22v5zM961 942q95 -109 61 -293l-117 -649h-43l33 184q-66 -102 -176 -155q-111 -54 -238 -54q-157 0 -252 79q-96 80 -96 210q0 152 129 249q128 97 326 97q224 0 366 -100l25 143q32 164 -51 265q-80 92 -240 92
q-103 0 -200 -44q-96 -43 -146 -120h-6l-29 14v6q51 79 155 132q104 51 224 51q181 -1 275 -107zM483 14q159 0 287 92t156 244l20 115q-67 47 -165 77q-101 29 -197 29q-177 0 -292 -88q-116 -89 -116 -221q0 -112 86 -180t221 -68z" />
    <glyph glyph-name="acircumflex" unicode="&#xe2;" horiz-adv-x="1067" 
d="M737 1325l-278 -160h-4l-17 25l2 4l293 182h12l230 -182l-2 -4l-21 -19h-4zM961 942q95 -109 61 -293l-117 -649h-43l33 184q-66 -102 -176 -155q-111 -54 -238 -54q-157 0 -252 79q-96 80 -96 210q0 152 129 249q128 97 326 97q224 0 366 -100l25 143q32 164 -51 265
q-80 92 -240 92q-103 0 -200 -44q-96 -43 -146 -120h-6l-29 14v6q51 79 155 132q104 51 224 51q181 -1 275 -107zM926 350l20 115q-67 47 -165 77q-101 29 -197 29q-177 0 -292 -88q-116 -89 -116 -221q0 -112 86 -180t221 -68q160 0 287 91q128 92 156 245z" />
    <glyph glyph-name="atilde" unicode="&#xe3;" horiz-adv-x="1067" 
d="M850 1229q-39 0 -126 35q-84 34 -136 34q-92 0 -131 -69h-11l-4 4l9 43q43 63 143 63q52 0 138 -34q88 -35 128 -35q92 0 131 69h8l5 -4l-9 -43q-43 -63 -145 -63zM961 942q95 -109 61 -293l-117 -649h-43l33 184q-66 -102 -176 -155q-111 -54 -238 -54q-157 0 -252 79
q-96 80 -96 210q0 152 129 249q128 97 326 97q224 0 366 -100l25 143q32 164 -51 265q-80 92 -240 92q-103 0 -200 -44q-96 -43 -146 -120h-6l-29 14v6q51 79 155 132q104 51 224 51q181 -1 275 -107zM483 14q159 0 287 92t156 244l20 115q-67 47 -165 77q-101 29 -197 29
q-177 0 -292 -88q-116 -89 -116 -221q0 -112 86 -180t221 -68z" />
    <glyph glyph-name="adieresis" unicode="&#xe4;" horiz-adv-x="1067" 
d="M586 1204q-25 0 -41.5 16.5t-16.5 39.5q0 31 21.5 53t52.5 22q23 0 40 -16t17 -39q0 -31 -21.5 -53.5t-51.5 -22.5zM840 1204q-25 0 -41.5 16.5t-16.5 39.5q0 31 21.5 53t52.5 22q23 0 40 -16t17 -39q0 -31 -21.5 -53.5t-51.5 -22.5zM961 942q95 -109 61 -293l-117 -649
h-43l33 184q-66 -102 -176 -155q-111 -54 -238 -54q-157 0 -252 79q-96 80 -96 210q0 152 129 249q128 97 326 97q224 0 366 -100l25 143q32 164 -51 265q-80 92 -240 92q-103 0 -200 -44q-96 -43 -146 -120h-6l-29 14v6q51 79 155 132q104 51 224 51q181 -1 275 -107z
M483 14q159 0 287 92t156 244l20 115q-67 47 -165 77q-101 29 -197 29q-177 0 -292 -88q-116 -89 -116 -221q0 -112 86 -180t221 -68z" />
    <glyph glyph-name="aring" unicode="&#xe5;" horiz-adv-x="1067" 
d="M702 1133q-59 0 -99 40q-40 39 -40 97q0 76 54 127q52 51 128 51q60 0 100 -40t40 -97q0 -76 -53 -127q-54 -51 -130 -51zM711 1169q61 0 97 43q36 44 36 97q0 44 -28.5 73t-76.5 29q-61 0 -97 -43q-36 -44 -36 -96q0 -44 28.5 -73.5t76.5 -29.5zM961 942
q95 -109 61 -293l-117 -649h-43l33 184q-66 -102 -176 -155q-111 -54 -238 -54q-157 0 -252 79q-96 80 -96 210q0 152 129 249q128 97 326 97q224 0 366 -100l25 143q32 164 -51 265q-80 92 -240 92q-103 0 -200 -44q-96 -43 -146 -120h-6l-29 14v6q51 79 155 132
q104 51 224 51q181 -1 275 -107zM483 14q159 0 287 92t156 244l20 115q-67 47 -165 77q-101 29 -197 29q-177 0 -292 -88q-116 -89 -116 -221q0 -112 86 -180t221 -68z" />
    <glyph glyph-name="ae" unicode="&#xe6;" horiz-adv-x="1951" 
d="M1516 1049q211 0 333 -149q121 -150 84 -363q0 -17 -8 -41h-928q0 -220 123 -351t318 -131q262 0 405 183h6l25 -21v-6q-158 -195 -436 -195q-188 0 -312 105q-126 104 -157 285q-35 -186 -174 -288q-140 -102 -316 -102q-157 0 -252 79q-96 80 -96 210q0 152 129 249
q128 97 326 97q225 0 368 -98l23 141q28 166 -51 265q-80 92 -240 92q-233 0 -367 -185h-6l-28 15v6q141 203 399 203q154 0 244 -78t96 -215q51 100 139 172q149 121 353 121zM1001 537h889q33 208 -82 344q-110 129 -292 129q-196 0 -332 -121q-163 -136 -183 -352z
M481 14q161 0 288 95q126 94 157 253l18 103q-67 47 -165 77q-101 29 -197 29q-177 0 -292 -88q-116 -89 -116 -221q0 -112 86 -180t221 -68z" />
    <glyph glyph-name="ccedilla" unicode="&#xe7;" horiz-adv-x="1144" 
d="M774 1049q136 0 240 -61.5t164 -166.5v-6l-27 -18h-6q-119 213 -371 213q-206 0 -358 -131q-185 -157 -187 -410q0 -198 124 -326q125 -129 317 -129q264 0 407 183h6l23 -21v-6q-160 -195 -432 -195l-37 -88q76 4 121 -22.5t45 -77.5q0 -64 -45.5 -101.5t-126.5 -37.5
q-91 0 -152 53l2 6l27 29h6q52 -47 123 -47q57 0 90 25t33 67q0 39 -43 56.5t-113 6.5l-24 15l51 118q-196 14 -320 150q-125 136 -125 338q0 280 209 453q161 131 379 131z" />
    <glyph glyph-name="egrave" unicode="&#xe8;" horiz-adv-x="1157" 
d="M987 1169l-16 -22h-4l-367 248v4l25 33h4l358 -258v-5zM750 1049q211 0 333 -149q121 -150 84 -363q0 -17 -8 -41h-928v-27q0 -198 124 -326q125 -129 317 -129q264 0 407 183h6l23 -21v-6q-158 -195 -436 -195q-209 0 -346 140q-138 139 -138 350q0 138 55 259.5
t154 203.5q149 121 353 121zM236 537h888q33 210 -82 346q-106 127 -292 127q-196 0 -332 -121q-156 -129 -182 -352z" />
    <glyph glyph-name="eacute" unicode="&#xe9;" horiz-adv-x="1157" 
d="M987 1395l-366 -248h-5l-16 22v5l358 258h5l24 -33v-4zM750 1049q211 0 333 -149q121 -150 84 -363q0 -17 -8 -41h-928v-27q0 -198 124 -326q125 -129 317 -129q264 0 407 183h6l23 -21v-6q-158 -195 -436 -195q-209 0 -346 140q-138 139 -138 350q0 138 55 259.5
t154 203.5q149 121 353 121zM236 537h888q33 210 -82 346q-106 127 -292 127q-196 0 -332 -121q-156 -129 -182 -352z" />
    <glyph glyph-name="ecircumflex" unicode="&#xea;" horiz-adv-x="1157" 
d="M809 1325l-279 -160h-4l-16 25l2 4l293 182h12l230 -182l-3 -4l-20 -19h-4zM750 1049q211 0 333 -149q121 -150 84 -363q0 -17 -8 -41h-928v-27q0 -198 124 -326q125 -129 317 -129q264 0 407 183h6l23 -21v-6q-158 -195 -436 -195q-209 0 -346 140q-138 139 -138 350
q0 138 55 259.5t154 203.5q149 121 353 121zM236 537h888q33 210 -82 346q-106 127 -292 127q-196 0 -332 -121q-156 -129 -182 -352z" />
    <glyph glyph-name="edieresis" unicode="&#xeb;" horiz-adv-x="1157" 
d="M657 1204q-25 0 -41 16t-16 40q0 31 21.5 53t52.5 22q23 0 40 -16t17 -39q0 -31 -21.5 -53.5t-52.5 -22.5zM911 1204q-25 0 -41 16t-16 40q0 31 21.5 53t52.5 22q23 0 40 -16t17 -39q0 -31 -21.5 -53.5t-52.5 -22.5zM750 1049q211 0 333 -149q121 -150 84 -363
q0 -17 -8 -41h-928v-27q0 -198 124 -326q125 -129 317 -129q264 0 407 183h6l23 -21v-6q-158 -195 -436 -195q-209 0 -346 140q-138 139 -138 350q0 138 55 259.5t154 203.5q149 121 353 121zM236 537h888q33 210 -82 346q-106 127 -292 127q-196 0 -332 -121
q-156 -129 -182 -352z" />
    <glyph glyph-name="igrave" unicode="&#xec;" horiz-adv-x="409" 
d="M260 1432h4l359 -258v-5l-17 -22h-4l-366 248v4zM225 0h-41l185 1024h41z" />
    <glyph glyph-name="iacute" unicode="&#xed;" horiz-adv-x="409" 
d="M236 1174l358 258h4l25 -33v-4l-367 -248h-4l-16 22v5zM225 0h-41l185 1024h41z" />
    <glyph glyph-name="icircumflex" unicode="&#xee;" horiz-adv-x="409" 
d="M434 1376h12l205 -182v-4l-18 -19h-4l-191 152l-250 -158h-4l-14 25l2 4zM225 0h-41l185 1024h41z" />
    <glyph glyph-name="idieresis" unicode="&#xef;" horiz-adv-x="409" 
d="M293 1204q-25 0 -41 16t-16 40q0 31 21.5 53t51.5 22q24 0 41 -16t17 -39q0 -31 -21.5 -53.5t-52.5 -22.5zM547 1204q-25 0 -41.5 16.5t-16.5 39.5q0 31 21.5 53t52.5 22q24 0 41 -16t17 -39q0 -31 -21.5 -53.5t-52.5 -22.5zM225 0h-41l185 1024h41z" />
    <glyph glyph-name="eth" unicode="&#xf0;" horiz-adv-x="1142" 
d="M1217 1255l6 -4l-6 -28l-246 -86q201 -385 157 -711q-27 -200 -172 -324q-146 -125 -348 -125q-186 0 -310 124t-124 311q0 219 151 369q151 149 373 149q131 0 238 -68q106 -69 156 -182q-45 226 -160 442l-262 -92l-6 4l6 29l248 86q-72 125 -148 219v6l27 21h6
q83 -110 151 -232zM608 16q204 0 344 140q138 140 138 336q0 174 -111 287q-111 112 -281 112q-202 0 -342 -137q-139 -138 -139 -338q0 -174 111 -287q110 -113 280 -113z" />
    <glyph glyph-name="ntilde" unicode="&#xf1;" horiz-adv-x="1171" 
d="M557 1229h-10l-4 4l8 43q43 63 143 63q52 0 139 -34q88 -35 128 -35q92 0 131 69h8l4 -4l-8 -43q-44 -63 -146 -63q-39 0 -126 35q-84 34 -136 34q-92 2 -131 -69zM791 1049q184 0 275 -124t54 -302l-110 -623h-41l110 623q29 170 -52 279q-81 108 -239 108
q-136 0 -258 -83q-123 -83 -172 -206q-11 -26 -28 -113l-111 -608h-41l184 1024h41l-41 -217q72 111 188 177q116 65 241 65z" />
    <glyph glyph-name="ograve" unicode="&#xf2;" horiz-adv-x="1259" 
d="M649 1432h4l359 -258v-5l-17 -22h-4l-366 248v4zM670 -25q-211 0 -349 140q-139 139 -139 350q0 270 201 444q161 138 389 140q211 0 350 -139q138 -140 138 -351q0 -270 -201 -444q-163 -140 -389 -140zM670 14q213 0 366 138q180 160 181 403q0 197 -126 326t-319 129
q-213 0 -366 -138q-180 -160 -181 -403q0 -197 126 -326t319 -129z" />
    <glyph glyph-name="oacute" unicode="&#xf3;" horiz-adv-x="1259" 
d="M625 1174l358 258h4l25 -33v-4l-367 -248h-4l-16 22v5zM670 -25q-211 0 -349 140q-139 139 -139 350q0 270 201 444q161 138 389 140q211 0 350 -139q138 -140 138 -351q0 -270 -201 -444q-163 -140 -389 -140zM670 14q213 0 366 138q180 160 181 403q0 197 -126 326
t-319 129q-213 0 -366 -138q-180 -160 -181 -403q0 -197 126 -326t319 -129z" />
    <glyph glyph-name="ocircumflex" unicode="&#xf4;" horiz-adv-x="1259" 
d="M834 1325l-279 -160h-4l-16 25l2 4l292 182h13l229 -182l-2 -4l-20 -19h-5zM772 1049q211 0 350 -139q138 -140 138 -351q0 -270 -201 -444q-161 -138 -389 -140q-211 0 -349 140q-139 139 -139 350q0 270 201 444q163 140 389 140zM1036 152q180 160 181 403
q0 197 -126 326t-319 129q-213 0 -366 -138q-180 -160 -181 -403q0 -197 126 -326t319 -129q212 2 366 138z" />
    <glyph glyph-name="otilde" unicode="&#xf5;" horiz-adv-x="1259" 
d="M946 1229q-39 0 -126 35q-84 34 -136 34q-92 0 -131 -69h-10l-4 4l8 43q43 63 143 63q52 0 138 -34q88 -35 128 -35q92 0 131 69h9l4 -4l-8 -43q-44 -63 -146 -63zM670 -25q-211 0 -349 140q-139 139 -139 350q0 270 201 444q161 138 389 140q211 0 350 -139
q138 -140 138 -351q0 -270 -201 -444q-163 -140 -389 -140zM670 14q213 0 366 138q180 160 181 403q0 197 -126 326t-319 129q-213 0 -366 -138q-180 -160 -181 -403q0 -197 126 -326t319 -129z" />
    <glyph glyph-name="odieresis" unicode="&#xf6;" horiz-adv-x="1259" 
d="M682 1204q-24 0 -40.5 16t-16.5 40q0 31 21.5 53t51.5 22q24 0 41 -16t17 -39q0 -31 -21.5 -53.5t-52.5 -22.5zM936 1204q-24 0 -40.5 16t-16.5 40q0 31 21.5 53t51.5 22q24 0 41 -16t17 -39q0 -31 -21.5 -53.5t-52.5 -22.5zM670 -25q-211 0 -349 140q-139 139 -139 350
q0 270 201 444q161 138 389 140q211 0 350 -139q138 -140 138 -351q0 -270 -201 -444q-163 -140 -389 -140zM670 14q213 0 366 138q180 160 181 403q0 197 -126 326t-319 129q-213 0 -366 -138q-180 -160 -181 -403q0 -197 126 -326t319 -129z" />
    <glyph glyph-name="divide" unicode="&#xf7;" horiz-adv-x="1103" 
d="M721 879q-25 0 -41 16t-16 39q0 31 21.5 53.5t51.5 22.5q23 0 40.5 -16.5t17.5 -39.5q0 -31 -21.5 -53t-52.5 -22zM260 600l6 37h803l-6 -37h-803zM602 223q-24 0 -40.5 16.5t-16.5 39.5q0 31 21.5 53t51.5 22q24 0 41 -16t17 -39q0 -31 -21.5 -53.5t-52.5 -22.5z" />
    <glyph glyph-name="oslash" unicode="&#xf8;" horiz-adv-x="1259" 
d="M1290 1139l-184 -213q154 -141 154 -367q0 -270 -201 -444q-161 -138 -389 -140q-173 0 -301 97l-144 -166h-45l-2 6l160 186q-156 140 -156 367q0 270 201 444q161 138 389 140q172 0 303 -99l168 195h45zM225 469q0 -206 140 -340l684 791q-117 90 -277 90
q-213 0 -366 -138q-181 -159 -181 -403zM1036 152q180 160 181 403q0 209 -140 338l-682 -791q116 -88 275 -88q212 2 366 138z" />
    <glyph glyph-name="ugrave" unicode="&#xf9;" horiz-adv-x="1150" 
d="M979 1169l-16 -22h-5l-366 248v4l24 33h5l358 -258v-5zM997 373l119 651h41l-184 -1024h-43l41 203q-141 -227 -402 -228q-184 0 -277 110q-93 109 -61 294l115 645h41l-115 -645q-29 -165 53 -264q81 -101 244 -101q137 0 240 70q104 72 158 182q20 44 30 107z" />
    <glyph glyph-name="uacute" unicode="&#xfa;" horiz-adv-x="1150" 
d="M979 1395l-367 -248h-4l-16 22v5l358 258h4l25 -33v-4zM997 373l119 651h41l-184 -1024h-43l41 203q-141 -227 -402 -228q-184 0 -277 110q-93 109 -61 294l115 645h41l-115 -645q-29 -165 53 -264q81 -101 244 -101q137 0 240 70q104 72 158 182q20 44 30 107z" />
    <glyph glyph-name="ucircumflex" unicode="&#xfb;" horiz-adv-x="1150" 
d="M801 1325l-279 -160h-4l-16 25l2 4l293 182h12l229 -182l-2 -4l-20 -19h-4zM997 373l119 651h41l-184 -1024h-43l41 203q-141 -227 -402 -228q-184 0 -277 110q-93 109 -61 294l115 645h41l-115 -645q-29 -165 53 -264q81 -101 244 -101q137 0 240 70q104 72 158 182
q20 44 30 107z" />
    <glyph glyph-name="udieresis" unicode="&#xfc;" horiz-adv-x="1150" 
d="M649 1204q-25 0 -41 16t-16 40q0 31 21.5 53t52.5 22q23 0 40 -16t17 -39q0 -31 -21.5 -53.5t-52.5 -22.5zM903 1204q-25 0 -41 16t-16 40q0 31 21.5 53t52.5 22q23 0 40 -16t17 -39q0 -31 -21.5 -53.5t-52.5 -22.5zM997 373l119 651h41l-184 -1024h-43l41 203
q-141 -227 -402 -228q-184 0 -277 110q-93 109 -61 294l115 645h41l-115 -645q-29 -165 53 -264q81 -101 244 -101q137 0 240 70q104 72 158 182q20 44 30 107z" />
    <glyph glyph-name="yacute" unicode="&#xfd;" horiz-adv-x="1005" 
d="M887 1395l-367 -248h-4l-16 22v5l358 258h4l25 -33v-4zM1085 1024h43l7 -6l-725 -1192q-94 -154 -217 -154q-72 0 -127 43v6l20 25l6 2q46 -37 101 -37q104 0 180 127l112 187l-266 993l4 6h37l256 -946z" />
    <glyph glyph-name="thorn" unicode="&#xfe;" horiz-adv-x="1280" 
d="M819 1049q199 0 328 -137q129 -138 129 -347q0 -245 -156 -417q-158 -173 -397 -173q-171 0 -290 106q-120 105 -150 275l-119 -663h-41l295 1638h41l-101 -551q146 269 461 269zM727 14q215 0 361 162q145 161 145 385q0 194 -116 322q-115 127 -298 127
q-223 0 -364 -157q-142 -157 -142 -390q0 -194 116 -322q115 -127 298 -127z" />
    <glyph glyph-name="ydieresis" unicode="&#xff;" horiz-adv-x="1005" 
d="M557 1204q-25 0 -41 16t-16 40q0 31 21.5 53t51.5 22q24 0 41 -16t17 -39q0 -31 -21.5 -53.5t-52.5 -22.5zM811 1204q-25 0 -41 16t-16 40q0 31 21.5 53t51.5 22q24 0 41 -16t17 -39q0 -31 -21.5 -53.5t-52.5 -22.5zM1085 1024h43l7 -6l-725 -1192q-94 -154 -217 -154
q-72 0 -127 43v6l20 25l6 2q46 -37 101 -37q104 0 180 127l112 187l-266 993l4 6h37l256 -946z" />
    <glyph glyph-name="Amacron" unicode="&#x100;" horiz-adv-x="1292" 
d="M639 1552h551l-8 -36h-551zM866 1331h39l334 -1325l-6 -6h-37l-86 346h-799l-211 -346h-41l-2 6zM879 1272l-543 -887h764z" />
    <glyph glyph-name="amacron" unicode="&#x101;" horiz-adv-x="1067" 
d="M442 1235l7 37h542l-6 -37h-543zM961 942q95 -109 61 -293l-117 -649h-43l33 184q-66 -102 -176 -155q-111 -54 -238 -54q-157 0 -252 79q-96 80 -96 210q0 152 129 249q128 97 326 97q224 0 366 -100l25 143q32 164 -51 265q-80 92 -240 92q-103 0 -200 -44
q-96 -43 -146 -120h-6l-29 14v6q51 79 155 132q104 51 224 51q181 -1 275 -107zM483 14q159 0 287 92t156 244l20 115q-67 47 -165 77q-101 29 -197 29q-177 0 -292 -88q-116 -89 -116 -221q0 -112 86 -180t221 -68z" />
    <glyph glyph-name="Abreve" unicode="&#x102;" horiz-adv-x="1292" 
d="M1073 1512q-76 -64 -170 -64t-154 65q-61 63 -59 164h43q-1 -84 48 -136t128 -52q76 0 138.5 51t91.5 137h41q-32 -103 -107 -165zM866 1331h39l334 -1325l-6 -6h-37l-86 346h-799l-211 -346h-41l-2 6zM879 1272l-543 -887h764z" />
    <glyph glyph-name="abreve" unicode="&#x103;" horiz-adv-x="1067" 
d="M717 1171q-103 0 -167 64q-65 64 -61 166h43q-2 -85 51 -138t134 -53q82 0 146.5 51.5t92.5 139.5h43q-33 -106 -108 -168t-174 -62zM961 942q95 -109 61 -293l-117 -649h-43l33 184q-66 -102 -176 -155q-111 -54 -238 -54q-157 0 -252 79q-96 80 -96 210q0 152 129 249
q128 97 326 97q224 0 366 -100l25 143q32 164 -51 265q-80 92 -240 92q-103 0 -200 -44q-96 -43 -146 -120h-6l-29 14v6q51 79 155 132q104 51 224 51q181 -1 275 -107zM483 14q159 0 287 92t156 244l20 115q-67 47 -165 77q-101 29 -197 29q-177 0 -292 -88
q-116 -89 -116 -221q0 -112 86 -180t221 -68z" />
    <glyph glyph-name="Aogonek" unicode="&#x104;" horiz-adv-x="1292" 
d="M1268 -291l4 -2l6 -24l-4 -7q-52 -23 -116 -23q-67 2 -107 37q-41 36 -41 93q0 81 59 140t125 89l-84 334h-799l-211 -346h-41l-2 6l809 1325h39l334 -1325l-6 -6q-16 -4 -62 -35q-31 -19 -55 -43q-26 -25 -44.5 -60.5t-18.5 -72.5q0 -45 30.5 -71.5t79.5 -26.5
q57 0 105 18zM879 1272l-543 -887h764z" />
    <glyph glyph-name="aogonek" unicode="&#x105;" horiz-adv-x="1067" 
d="M1022 649l-117 -649q-16 -4 -62 -35q-31 -20 -55 -43q-26 -25 -44.5 -60.5t-18.5 -72.5q0 -45 30.5 -71.5t80.5 -26.5q58 0 104 18l4 -2l6 -24l-4 -7q-52 -23 -116 -23q-67 2 -107 37q-41 36 -41 93q0 134 182 229l31 172q-66 -102 -176 -155q-111 -54 -238 -54
q-157 0 -252 79q-96 80 -96 210q0 152 129 249q128 97 326 97q224 0 366 -100l25 143q32 164 -51 265q-80 92 -240 92q-103 0 -200 -44q-96 -43 -146 -120h-6l-29 14v6q51 79 155 132q104 51 224 51q180 0 275 -107q95 -109 61 -293zM483 14q159 0 287 92t156 244l20 115
q-67 47 -165 77q-101 29 -197 29q-177 0 -292 -88q-116 -89 -116 -221q0 -112 86 -180t221 -68z" />
    <glyph glyph-name="Cacute" unicode="&#x106;" horiz-adv-x="1425" 
d="M874 1477l306 225h4l26 -31v-4l-315 -215h-4l-17 21v4zM848 -25q-272 0 -450 180q-179 179 -179 449q0 332 217 543q214 209 541 209q169 0 304 -67q136 -67 208 -183v-6l-29 -21h-6q-67 108 -194 172q-129 62 -287 62q-311 0 -514 -203q-197 -202 -197 -506
q0 -252 168 -419q169 -167 422 -167q298 0 516 224h6l27 -25v-6q-225 -236 -553 -236z" />
    <glyph glyph-name="cacute" unicode="&#x107;" horiz-adv-x="1144" 
d="M623 1174l358 258h4l25 -33v-4l-367 -248h-4l-16 22v5zM670 -25q-209 0 -346 140q-138 139 -138 350q0 280 209 453q161 131 379 131q136 0 240 -61.5t164 -166.5v-6l-27 -18h-6q-119 213 -371 213q-206 0 -358 -131q-185 -157 -187 -410q0 -198 124 -326
q125 -129 317 -129q264 0 407 183h6l23 -21v-6q-157 -195 -436 -195z" />
    <glyph glyph-name="Cdotaccent" unicode="&#x10a;" horiz-adv-x="1425" 
d="M1032 1501q-24 0 -40.5 16.5t-16.5 38.5q0 31 21.5 53.5t52.5 22.5q23 0 40 -16.5t17 -38.5q0 -31 -21.5 -53.5t-52.5 -22.5zM848 -25q-272 0 -450 180q-179 179 -179 449q0 332 217 543q214 209 541 209q169 0 304 -67q136 -67 208 -183v-6l-29 -21h-6q-67 108 -194 172
q-129 62 -287 62q-311 0 -514 -203q-197 -202 -197 -506q0 -252 168 -419q169 -167 422 -167q298 0 516 224h6l27 -25v-6q-225 -236 -553 -236z" />
    <glyph glyph-name="cdotaccent" unicode="&#x10b;" horiz-adv-x="1144" 
d="M811 1206q-24 0 -41.5 16.5t-17.5 39.5q0 29 20.5 50t48.5 21q23 0 40.5 -16.5t17.5 -38.5q0 -29 -20.5 -50.5t-47.5 -21.5zM670 -25q-209 0 -346 140q-138 139 -138 350q0 280 209 453q161 131 379 131q136 0 240 -61.5t164 -166.5v-6l-27 -18h-6q-119 213 -371 213
q-206 0 -358 -131q-185 -157 -187 -410q0 -198 124 -326q125 -129 317 -129q264 0 407 183h6l23 -21v-6q-157 -195 -436 -195z" />
    <glyph glyph-name="Ccaron" unicode="&#x10c;" horiz-adv-x="1425" 
d="M1325 1651l-301 -183h-8l-234 183v4l19 20h4l221 -153l281 157h4l14 -24v-4zM977 1356q169 0 304 -67q136 -67 208 -183v-6l-29 -21h-6q-67 108 -194 172q-129 62 -287 62q-311 0 -514 -203q-197 -202 -197 -506q0 -252 168 -419q169 -167 422 -167q298 0 516 224h6
l27 -25v-6q-225 -236 -553 -236q-272 0 -450 180q-179 179 -179 449q0 332 217 543q214 209 541 209z" />
    <glyph glyph-name="ccaron" unicode="&#x10d;" horiz-adv-x="1144" 
d="M1092 1327l-289 -182h-12l-234 182l2 4l23 21h4l217 -154l270 156h4l17 -23zM774 1049q136 0 240 -61.5t164 -166.5v-6l-27 -18h-6q-119 213 -371 213q-206 0 -358 -131q-185 -157 -187 -410q0 -198 124 -326q125 -129 317 -129q264 0 407 183h6l23 -21v-6
q-157 -195 -436 -195q-209 0 -346 140q-138 139 -138 350q0 280 209 453q161 131 379 131z" />
    <glyph glyph-name="Dcaron" unicode="&#x10e;" horiz-adv-x="1435" 
d="M1247 1651l-301 -183h-8l-233 183v4l18 20h4l221 -153l281 157h4l14 -24v-4zM449 1331h471q265 0 402 -143q136 -143 136 -395q0 -357 -205 -574q-205 -219 -569 -219h-475zM258 39h426q344 0 538 206q193 205 193 548q0 232 -125 366q-124 133 -370 133h-437z" />
    <glyph glyph-name="dcaron" unicode="&#x10f;" 
d="M1532 1430h41l2 -5l-141 -323l-4 -4h-27l-2 4l127 323zM1180 666l131 727l32 4l9 -4l-252 -1393h-41l43 242q-146 -266 -459 -267q-199 0 -328 138q-129 136 -129 346q0 245 157 417q158 173 396 173q170 0 291 -106t150 -277zM643 14q223 0 365 157q141 157 141 390
q0 194 -113 322q-114 127 -297 127q-217 0 -363 -162q-147 -162 -147 -385q0 -194 116 -322q115 -127 298 -127z" />
    <glyph glyph-name="Dcroat" unicode="&#x110;" horiz-adv-x="1482" 
d="M467 1331h471q266 0 403 -143q136 -143 136 -395q0 -356 -206 -574q-205 -219 -569 -219h-475l117 653h-205l8 39h205zM276 39h426q344 0 538 206t194 548q0 232 -125 366q-124 133 -371 133h-436l-107 -600h434l-8 -39h-434z" />
    <glyph glyph-name="dslash" unicode="&#x111;" 
d="M1321 1227h117l-8 -37h-115l-215 -1190h-41l43 242q-146 -266 -459 -267q-199 0 -328 138q-129 136 -129 346q0 245 157 417q158 173 396 173q170 0 291 -106t150 -277l94 524h-342l8 37h340l31 166l32 4l9 -4zM643 14q223 0 365 157q141 157 141 390q0 194 -113 322
q-114 127 -297 127q-217 0 -363 -162q-147 -162 -147 -385q0 -194 116 -322q115 -127 298 -127z" />
    <glyph glyph-name="Emacron" unicode="&#x112;" horiz-adv-x="1107" 
d="M592 1516l8 36h551l-8 -36h-551zM1264 1331l-9 -39h-772l-106 -600h612l-8 -39h-612l-111 -614h772l-6 -39h-815l240 1331h815z" />
    <glyph glyph-name="emacron" unicode="&#x113;" horiz-adv-x="1157" 
d="M520 1272h543l-6 -37h-543zM750 1049q211 0 333 -149q121 -150 84 -363q0 -17 -8 -41h-928v-27q0 -198 124 -326q125 -129 317 -129q264 0 407 183h6l23 -21v-6q-158 -195 -436 -195q-209 0 -346 140q-138 139 -138 350q0 138 55 259.5t154 203.5q149 121 353 121z
M236 537h888q33 210 -82 346q-106 127 -292 127q-196 0 -332 -121q-156 -129 -182 -352z" />
    <glyph glyph-name="Edotaccent" unicode="&#x116;" horiz-adv-x="1107" 
d="M870 1501q-24 0 -40.5 16.5t-16.5 38.5q0 31 21.5 53.5t52.5 22.5q23 0 40 -16.5t17 -38.5q0 -31 -21.5 -53.5t-52.5 -22.5zM1264 1331l-9 -39h-772l-106 -600h612l-8 -39h-612l-111 -614h772l-6 -39h-815l240 1331h815z" />
    <glyph glyph-name="edotaccent" unicode="&#x117;" horiz-adv-x="1157" 
d="M788 1206q-24 0 -41.5 16.5t-17.5 39.5q0 29 20.5 50t49.5 21q23 0 40 -16.5t17 -38.5q0 -29 -20.5 -50.5t-47.5 -21.5zM750 1049q211 0 333 -149q121 -150 84 -363q0 -17 -8 -41h-928v-27q0 -198 124 -326q125 -129 317 -129q264 0 407 183h6l23 -21v-6
q-158 -195 -436 -195q-209 0 -346 140q-138 139 -138 350q0 138 55 259.5t154 203.5q149 121 353 121zM236 537h888q33 210 -82 346q-106 127 -292 127q-196 0 -332 -121q-156 -129 -182 -352z" />
    <glyph glyph-name="Eogonek" unicode="&#x118;" horiz-adv-x="1107" 
d="M1264 1331l-9 -39h-772l-106 -600h612l-8 -39h-612l-111 -614h772l-6 -39q-16 -4 -62 -35q-31 -20 -55 -43q-26 -25 -44.5 -60.5t-18.5 -72.5q0 -45 30.5 -71.5t79.5 -26.5q57 0 105 18l4 -2l6 -24l-4 -7q-52 -23 -116 -23q-67 2 -107 37q-41 36 -41 93q0 125 162 217
h-754l240 1331h815z" />
    <glyph glyph-name="eogonek" unicode="&#x119;" horiz-adv-x="1157" 
d="M750 1049q211 0 333 -149q121 -150 84 -363q0 -17 -8 -41h-928v-27q0 -198 124 -326q125 -129 317 -129q264 0 407 183h6l23 -21v-6q-83 -103 -207 -152q-141 -82 -141 -192q0 -45 30.5 -71.5t79.5 -26.5q58 0 105 18l4 -2l6 -25l-4 -6q-52 -23 -116 -23q-67 2 -107 36
q-41 36 -41 94q0 90 92 170q-63 -13 -137 -15q-209 0 -346 140q-138 139 -138 350q0 138 55 259.5t154 203.5q149 121 353 121zM236 537h888q33 210 -82 346q-106 127 -292 127q-196 0 -332 -121q-156 -129 -182 -352z" />
    <glyph glyph-name="Ecaron" unicode="&#x11a;" horiz-adv-x="1107" 
d="M1163 1651l-301 -183h-8l-233 183v4l18 20h4l221 -153l281 157h4l14 -24v-4zM1264 1331l-9 -39h-772l-106 -600h612l-8 -39h-612l-111 -614h772l-6 -39h-815l240 1331h815z" />
    <glyph glyph-name="ecaron" unicode="&#x11b;" horiz-adv-x="1157" 
d="M1069 1327l-289 -182h-12l-233 182l2 4l22 21h4l217 -154l271 156h4l16 -23zM750 1049q211 0 333 -149q121 -150 84 -363q0 -17 -8 -41h-928v-27q0 -198 124 -326q125 -129 317 -129q264 0 407 183h6l23 -21v-6q-158 -195 -436 -195q-209 0 -346 140q-138 139 -138 350
q0 138 55 259.5t154 203.5q149 121 353 121zM236 537h888q33 210 -82 346q-106 127 -292 127q-196 0 -332 -121q-156 -129 -182 -352z" />
    <glyph glyph-name="Gbreve" unicode="&#x11e;" horiz-adv-x="1503" 
d="M1176 1512q-76 -64 -170 -64q-95 0 -155 65q-59 64 -58 164h43q-1 -84 48 -136t128 -52q76 0 138 51t91 137h41q-32 -103 -106 -165zM834 -25q-271 0 -447 179t-176 450q0 332 217 543q214 209 541 209q163 0 299 -74q135 -73 209 -190v-7l-29 -20h-6q-70 111 -195 180
q-125 68 -280 68q-313 0 -516 -203q-197 -202 -197 -506q0 -249 164 -418q164 -168 416 -168q265 0 446 164q171 159 223 449h-604l8 39h639l4 -6v-9q-46 -323 -243 -508q-187 -172 -473 -172z" />
    <glyph glyph-name="gbreve" unicode="&#x11f;" horiz-adv-x="1204" 
d="M748 1171q-103 0 -167 64q-65 64 -61 166h43q-1 -85 51 -138q53 -53 134 -53t145.5 51.5t93.5 139.5h43q-33 -106 -108 -168t-174 -62zM1116 735l53 289h41l-161 -895q-39 -214 -176 -336q-137 -121 -347 -121q-143 0 -249.5 58.5t-153.5 163.5l2 6l31 16h6
q41 -96 139.5 -150.5t233.5 -54.5q186 0 311 113q124 112 162 309l39 205q-51 -80 -127 -133q-124 -90 -299 -90q-180 0 -300 121q-120 120 -120 301q0 121 49 227t137 176q130 109 322 109q194 0 313 -131q70 -76 94 -183zM895 233q92 63 143.5 167t51.5 225
q0 166 -106 275q-106 108 -273 108q-177 0 -301 -101q-166 -139 -166 -370q0 -168 107 -275q107 -108 270 -108q162 -1 274 79z" />
    <glyph glyph-name="Gdotaccent" unicode="&#x120;" horiz-adv-x="1503" 
d="M1012 1501q-24 0 -41 16.5t-17 38.5q0 31 21.5 53.5t52.5 22.5q23 0 40 -16.5t17 -38.5q0 -31 -21.5 -53.5t-51.5 -22.5zM834 -25q-271 0 -447 179t-176 450q0 332 217 543q214 209 541 209q163 0 299 -74q135 -73 209 -190v-7l-29 -20h-6q-70 111 -195 180
q-125 68 -280 68q-313 0 -516 -203q-197 -202 -197 -506q0 -249 164 -418q164 -168 416 -168q265 0 446 164q171 159 223 449h-604l8 39h639l4 -6v-9q-46 -323 -243 -508q-187 -172 -473 -172z" />
    <glyph glyph-name="gdotaccent" unicode="&#x121;" horiz-adv-x="1204" 
d="M748 1206q-24 0 -42 16.5t-18 39.5q0 29 20.5 50t49.5 21q23 0 40 -16.5t17 -38.5q0 -29 -20 -50.5t-47 -21.5zM1116 735l53 289h41l-161 -895q-39 -214 -176 -336q-137 -121 -347 -121q-143 0 -249.5 58.5t-153.5 163.5l2 6l31 16h6q41 -96 139.5 -150.5t233.5 -54.5
q186 0 311 113q124 112 162 309l39 205q-51 -80 -127 -133q-124 -90 -299 -90q-180 0 -300 121q-120 120 -120 301q0 121 49 227t137 176q130 109 322 109q194 0 313 -131q70 -76 94 -183zM895 233q92 63 143.5 167t51.5 225q0 166 -106 275q-106 108 -273 108
q-177 0 -301 -101q-166 -139 -166 -370q0 -168 107 -275q107 -108 270 -108q162 -1 274 79z" />
    <glyph glyph-name="uni0122" unicode="&#x122;" horiz-adv-x="1503" 
d="M834 -25q-271 0 -447 179t-176 450q0 332 217 543q214 209 541 209q163 0 299 -74q135 -73 209 -190v-7l-29 -20h-6q-70 111 -195 180q-125 68 -280 68q-313 0 -516 -203q-197 -202 -197 -506q0 -249 164 -418q164 -168 416 -168q265 0 446 164q171 159 223 449h-604
l8 39h639l4 -6v-9q-46 -323 -243 -508q-187 -172 -473 -172zM664 -373l104 264l4 5h41l2 -5l-117 -264l-4 -4h-28z" />
    <glyph glyph-name="uni0123" unicode="&#x123;" horiz-adv-x="1204" 
d="M752 1157l-4 -4h-41l-2 4l116 264l4 4h29l2 -4zM1116 735l53 289h41l-161 -895q-39 -214 -176 -336q-137 -121 -347 -121q-143 0 -249.5 58.5t-153.5 163.5l2 6l31 16h6q41 -96 139.5 -150.5t233.5 -54.5q186 0 311 113q124 112 162 309l39 205q-51 -80 -127 -133
q-124 -90 -299 -90q-180 0 -300 121q-120 120 -120 301q0 121 49 227t137 176q130 109 322 109q194 0 313 -131q70 -76 94 -183zM895 233q92 63 143.5 167t51.5 225q0 166 -106 275q-106 108 -273 108q-177 0 -301 -101q-166 -139 -166 -370q0 -168 107 -275
q107 -108 270 -108q162 -1 274 79z" />
    <glyph glyph-name="Hbar" unicode="&#x126;" horiz-adv-x="1429" 
d="M1372 987h127l-6 -37h-127l-172 -950h-43l117 653h-899l-117 -653h-43l172 950h-129l6 37h129l62 344h43l-62 -344h899l62 344h43zM377 692h899l47 258h-899z" />
    <glyph glyph-name="hbar" unicode="&#x127;" horiz-adv-x="1171" 
d="M791 1049q184 0 275 -124t54 -302l-110 -623h-43l110 623q31 179 -55 286q-82 99 -234 101q-136 0 -258 -83q-123 -83 -172 -206q-11 -26 -28 -113l-111 -608h-41l205 1145h-137l6 37h139l37 211l35 4l6 -4l-39 -211h324l-6 -37h-324l-62 -338q72 111 188 177
q116 65 241 65z" />
    <glyph glyph-name="Itilde" unicode="&#x128;" horiz-adv-x="460" 
d="M685 1508q-35 -19 -73 -19t-109 37q-73 37 -118 37q-74 0 -115 -74h-8l-4 4l10 47q39 68 123 68q45 0 118 -37t109 -37q74 0 115 74h10l2 -4l-8 -48q-17 -29 -52 -48zM209 0l240 1331h43l-240 -1331h-43z" />
    <glyph glyph-name="itilde" unicode="&#x129;" horiz-adv-x="409" 
d="M541 1229q-36 0 -114 35q-75 34 -122 34q-85 0 -119 -69h-8l-4 4l8 43q38 63 129 63q46 0 124 -34q81 -35 116 -35q83 0 117 69h8l4 -4l-8 -43q-41 -63 -131 -63zM225 0h-41l185 1024h41z" />
    <glyph glyph-name="Imacron" unicode="&#x12a;" horiz-adv-x="460" 
d="M250 1516l8 36h496l-6 -36h-498zM209 0l240 1331h43l-240 -1331h-43z" />
    <glyph glyph-name="imacron" unicode="&#x12b;" horiz-adv-x="409" 
d="M172 1235l6 37h488l-4 -37h-490zM225 0h-41l185 1024h41z" />
    <glyph glyph-name="Iogonek" unicode="&#x12e;" horiz-adv-x="460" 
d="M287 -291l4 -2l6 -24l-4 -7q-52 -23 -116 -23q-67 2 -107 37q-41 36 -41 93q0 134 182 229l238 1319h43l-240 -1331q-16 -4 -62 -35q-32 -20 -55 -43q-26 -25 -44.5 -60.5t-18.5 -72.5q0 -45 30.5 -71.5t79.5 -26.5q60 0 105 18z" />
    <glyph glyph-name="iogonek" unicode="&#x12f;" horiz-adv-x="409" 
d="M434 1333q23 0 40.5 -16.5t17.5 -38.5q0 -29 -20.5 -50.5t-47.5 -21.5q-24 0 -41.5 16.5t-17.5 39.5q0 29 20 50t49 21zM410 1024l-185 -1024q-14 -4 -62 -35q-32 -20 -55 -43q-26 -25 -44.5 -60.5t-18.5 -72.5q0 -45 30.5 -71.5t80.5 -26.5q58 0 104 18l4 -2l6 -24
l-4 -7q-52 -23 -116 -23q-67 2 -107 37q-41 36 -41 93q0 138 184 229l183 1012h41z" />
    <glyph glyph-name="Idot" unicode="&#x130;" horiz-adv-x="460" 
d="M504 1501q-24 0 -41 16.5t-17 38.5q0 31 21.5 53.5t52.5 22.5q23 0 40.5 -16.5t17.5 -38.5q0 -31 -21.5 -53.5t-52.5 -22.5zM209 0l240 1331h43l-240 -1331h-43z" />
    <glyph glyph-name="dotlessi" unicode="&#x131;" horiz-adv-x="409" 
d="M225 0h-41l185 1024h41z" />
    <glyph glyph-name="IJ" unicode="&#x132;" horiz-adv-x="1257" 
d="M209 0l240 1331h43l-240 -1331h-43zM1083 340l179 991h43l-179 -995q-29 -164 -139 -262q-109 -99 -270 -99q-113 0 -204 52q-91 51 -132 147l2 6l29 19h6q83 -182 299 -183q140 0 241 89q100 89 125 235z" />
    <glyph glyph-name="ij" unicode="&#x133;" horiz-adv-x="786" 
d="M424 1206q-23 0 -38 16t-15 40q0 29 23.5 50t51.5 21q20 0 36 -16.5t16 -38.5q0 -29 -22.5 -50.5t-51.5 -21.5zM805 1206q-23 0 -38 16t-15 40q0 29 23.5 50t51.5 21q23 0 38.5 -16.5t15.5 -38.5q0 -29 -23 -50.5t-53 -21.5zM225 0h-41l185 1024h41zM385 -328h-6l-12 25
v6q87 53 133 119q46 68 69 186l183 1016h41l-185 -1020q-22 -127 -76 -201q-53 -71 -147 -131z" />
    <glyph glyph-name="uni0136" unicode="&#x136;" horiz-adv-x="1114" 
d="M1327 1331l2 -6l-678 -571l428 -748l-6 -6h-41l-414 725l-278 -229l-88 -496h-43l240 1331h43l-140 -776l924 776h51zM588 -109l4 5h41l2 -5l-117 -264l-4 -4h-29l-2 4z" />
    <glyph glyph-name="uni0137" unicode="&#x137;" horiz-adv-x="946" 
d="M1085 1024l5 -6l-486 -422l324 -590l-6 -6h-39l-312 569l-297 -258l-55 -311h-41l250 1393l35 4l6 -4l-182 -1020l751 651h47zM500 -109l4 5h41l2 -5l-117 -264l-4 -4h-29l-2 4z" />
    <glyph glyph-name="kgreenlandic" unicode="&#x138;" horiz-adv-x="946" 
d="M1085 1024l5 -6l-486 -422l324 -590l-6 -6h-39l-312 569l-297 -258l-55 -311h-41l184 1024l35 4l6 -4l-118 -655l753 655h47z" />
    <glyph glyph-name="Lacute" unicode="&#x139;" horiz-adv-x="987" 
d="M340 1477l305 225h4l27 -31v-4l-316 -215h-4l-16 21v4zM258 39h700l-6 -39h-743l240 1331h43z" />
    <glyph glyph-name="lacute" unicode="&#x13a;" horiz-adv-x="409" 
d="M285 1481l305 225h4l27 -31v-4l-316 -215h-4l-16 21v4zM225 0h-41l250 1393l35 4l6 -4z" />
    <glyph glyph-name="uni013B" unicode="&#x13b;" horiz-adv-x="987" 
d="M258 39h700l-6 -39h-743l240 1331h43zM434 -373l105 264l4 5h41l2 -5l-117 -264l-4 -4h-29z" />
    <glyph glyph-name="uni013C" unicode="&#x13c;" horiz-adv-x="409" 
d="M225 0h-41l250 1393l35 4l6 -4zM59 -373l105 264l4 5h41l2 -5l-117 -264l-4 -4h-29z" />
    <glyph glyph-name="Lcaron" unicode="&#x13d;" horiz-adv-x="987" 
d="M748 1122l104 324l6 4h41v-4l-117 -324l-6 -4h-28v4zM258 39h700l-6 -39h-743l240 1331h43z" />
    <glyph glyph-name="lcaron" unicode="&#x13e;" horiz-adv-x="405" 
d="M547 1102l127 323l4 5h41l2 -5l-141 -323l-5 -4h-26zM225 0h-41l250 1393l35 4l6 -4z" />
    <glyph glyph-name="Ldot" unicode="&#x13f;" horiz-adv-x="1009" 
d="M258 39h700l-6 -39h-743l240 1331h43zM754 588q-24 0 -41 16.5t-17 38.5q0 31 21.5 53.5t52.5 22.5q23 0 40 -16.5t17 -38.5q0 -31 -21.5 -53.5t-51.5 -22.5z" />
    <glyph glyph-name="ldot" unicode="&#x140;" horiz-adv-x="407" 
d="M225 0h-41l250 1391l35 6l6 -4zM481 666q-25 0 -41 16t-16 39q0 31 21.5 53.5t52.5 22.5q23 0 40 -16.5t17 -39.5q0 -31 -21.5 -53t-52.5 -22z" />
    <glyph glyph-name="Lslash" unicode="&#x141;" horiz-adv-x="1042" 
d="M391 573l-96 -534h700l-6 -39h-743l100 553l-227 -104l-6 4l6 32l233 107l133 739h43l-129 -717l297 136l6 -5l-6 -32z" />
    <glyph glyph-name="lslash" unicode="&#x142;" horiz-adv-x="495" 
d="M571 813l7 -4l-7 -35l-180 -84l-123 -690h-41l121 668l-172 -80l-6 4l6 35l178 84l123 682l35 4l6 -4l-119 -662z" />
    <glyph glyph-name="Nacute" unicode="&#x143;" horiz-adv-x="1398" 
d="M1133 1667l-316 -215h-4l-16 21v4l305 225h4l27 -31v-4zM1155 53l231 1278h44l-244 -1351h-39l-668 1275l-225 -1255h-45l240 1331h40z" />
    <glyph glyph-name="nacute" unicode="&#x144;" horiz-adv-x="1171" 
d="M1016 1395l-367 -248h-4l-16 22v5l358 258h4l25 -33v-4zM791 1049q184 0 275 -124t54 -302l-110 -623h-41l110 623q29 170 -52 279q-81 108 -239 108q-136 0 -258 -83q-123 -83 -172 -206q-11 -26 -28 -113l-111 -608h-41l184 1024h41l-41 -217q72 111 188 177
q116 65 241 65z" />
    <glyph glyph-name="uni0145" unicode="&#x145;" horiz-adv-x="1398" 
d="M1155 53l231 1278h44l-244 -1351h-39l-668 1275l-225 -1255h-45l240 1331h40zM672 -109l4 5h41l2 -5l-117 -264l-4 -4h-29l-2 4z" />
    <glyph glyph-name="uni0146" unicode="&#x146;" horiz-adv-x="1171" 
d="M791 1049q184 0 275 -124t54 -302l-110 -623h-41l110 623q29 170 -52 279q-81 108 -239 108q-136 0 -258 -83q-123 -83 -172 -206q-11 -26 -28 -113l-111 -608h-41l184 1024h41l-41 -217q72 111 188 177q116 65 241 65zM590 -109l4 5h41l2 -5l-117 -264l-4 -4h-29l-2 4z
" />
    <glyph glyph-name="Ncaron" unicode="&#x147;" horiz-adv-x="1398" 
d="M1247 1651l-301 -183h-8l-233 183v4l18 20h4l221 -153l281 157h4l14 -24v-4zM1155 53l231 1278h44l-244 -1351h-39l-668 1275l-225 -1255h-45l240 1331h40z" />
    <glyph glyph-name="ncaron" unicode="&#x148;" horiz-adv-x="1171" 
d="M1098 1327l-289 -182h-12l-234 182l2 4l23 21h4l217 -154l270 156h4l17 -23zM791 1049q184 0 275 -124t54 -302l-110 -623h-41l110 623q29 170 -52 279q-81 108 -239 108q-136 0 -258 -83q-123 -83 -172 -206q-11 -26 -28 -113l-111 -608h-41l184 1024h41l-41 -217
q72 111 188 177q116 65 241 65z" />
    <glyph glyph-name="napostrophe" unicode="&#x149;" horiz-adv-x="1161" 
d="M381 1149l-4 -4h-27l-2 4l119 278l4 5h41l2 -5zM786 1049q176 0 268 -110q91 -109 58 -294l-115 -645h-41l115 645q29 165 -52 265t-243 100q-172 0 -299 -111q-126 -110 -158 -274l-4 -23l-108 -602h-41l184 1024h41l-41 -225q67 115 184 183q115 67 252 67z" />
    <glyph glyph-name="Eng" unicode="&#x14a;" horiz-adv-x="1396" 
d="M819 -377q-99 0 -172 46q-73 47 -102 120l2 6l22 12h6q29 -66 96.5 -105.5t153.5 -39.5q119 0 205 78q87 79 109 205l6 35l-668 1275l-225 -1255h-45l239 1331h41l666 -1278l231 1278h43l-249 -1388q-27 -145 -124 -233q-97 -87 -235 -87z" />
    <glyph glyph-name="eng" unicode="&#x14b;" horiz-adv-x="1171" 
d="M791 1049q183 0 271 -123q89 -124 58 -303l-102 -574q-27 -146 -86 -225q-61 -79 -168 -131h-8l-11 28l5 9q103 50 152 118q50 70 75 201l102 574q29 168 -51 278q-79 109 -240 109q-136 0 -258 -83q-123 -83 -172 -206q-11 -26 -28 -113l-111 -608h-41l184 1024h41
l-41 -217q72 111 188 177q116 65 241 65z" />
    <glyph glyph-name="Omacron" unicode="&#x14c;" horiz-adv-x="1572" 
d="M731 1516l8 36h551l-8 -36h-551zM846 -25q-272 0 -450 180q-179 179 -179 449q0 332 217 543q214 209 541 209q272 0 451 -179q178 -179 178 -450q0 -331 -218 -543q-212 -209 -540 -209zM850 18q311 0 514 203q197 202 197 506q0 252 -168 419q-169 167 -422 167
q-311 0 -514 -203q-197 -202 -197 -506q0 -252 168 -419q169 -167 422 -167z" />
    <glyph glyph-name="omacron" unicode="&#x14d;" horiz-adv-x="1259" 
d="M539 1235l6 37h542l-6 -37h-542zM670 -25q-211 0 -349 140q-139 139 -139 350q0 270 201 444q161 138 389 140q211 0 350 -139q138 -140 138 -351q0 -270 -201 -444q-163 -140 -389 -140zM670 14q213 0 366 138q180 160 181 403q0 197 -126 326t-319 129
q-213 0 -366 -138q-180 -160 -181 -403q0 -197 126 -326t319 -129z" />
    <glyph glyph-name="Ohungarumlaut" unicode="&#x150;" horiz-adv-x="1572" 
d="M807 1454l213 295h51l2 -4l-229 -295h-35zM1008 1454l213 295h51l2 -4l-230 -295h-34zM846 -25q-272 0 -450 180q-179 179 -179 449q0 332 217 543q214 209 541 209q272 0 451 -179q178 -179 178 -450q0 -331 -218 -543q-212 -209 -540 -209zM850 18q311 0 514 203
q197 202 197 506q0 252 -168 419q-169 167 -422 167q-311 0 -514 -203q-197 -202 -197 -506q0 -252 168 -419q169 -167 422 -167z" />
    <glyph glyph-name="ohungarumlaut" unicode="&#x151;" horiz-adv-x="1259" 
d="M602 1149l180 278l6 5h50l2 -5l-199 -278l-4 -4h-33zM807 1149l180 278l6 5h49l2 -5l-198 -278l-4 -4h-33zM670 -25q-211 0 -349 140q-139 139 -139 350q0 270 201 444q161 138 389 140q211 0 350 -139q138 -140 138 -351q0 -270 -201 -444q-163 -140 -389 -140zM670 14
q213 0 366 138q180 160 181 403q0 197 -126 326t-319 129q-213 0 -366 -138q-180 -160 -181 -403q0 -197 126 -326t319 -129z" />
    <glyph glyph-name="OE" unicode="&#x152;" horiz-adv-x="2396" 
d="M2503 1331l-9 -39h-772l-106 -600h612l-8 -39h-612l-111 -614h772l-6 -39h-815l61 344q-50 -93 -120 -160q-214 -209 -541 -209q-272 0 -450 180q-179 179 -179 449q0 332 217 543q214 209 541 209q245 0 417 -146q172 -147 203 -381l91 502h815zM1366 221
q197 202 197 506q0 252 -168 419q-169 167 -422 167q-311 0 -514 -203q-197 -202 -197 -506q0 -252 168 -419q169 -167 422 -167q311 0 514 203z" />
    <glyph glyph-name="oe" unicode="&#x153;" horiz-adv-x="2183" 
d="M1776 1049q211 0 333 -149q121 -150 84 -363q0 -17 -8 -41h-928q0 -220 123 -351t318 -131q264 0 407 183h6l23 -21v-6q-158 -195 -436 -195q-181 0 -309 106q-130 106 -164 277q-50 -143 -166 -243q-161 -138 -389 -140q-211 0 -349 140q-139 139 -139 350
q0 270 201 444q161 138 389 140q179 0 310 -104q130 -105 165 -273q52 155 176 256q149 121 353 121zM1036 152q180 160 181 403q0 197 -126 326t-319 129q-213 0 -366 -138q-180 -160 -181 -403q0 -197 126 -326t319 -129q212 2 366 138zM1262 537h888q33 205 -74 339
q-108 134 -300 134q-206 0 -348 -133q-143 -133 -166 -340z" />
    <glyph glyph-name="Racute" unicode="&#x154;" horiz-adv-x="1191" 
d="M989 1667l-315 -215h-4l-17 21v4l305 225h5l26 -31v-4zM1266 1030q0 -169 -107 -285q-109 -116 -285 -137l189 -602l-6 -6h-39l-189 604h-26h-443l-108 -604h-43l240 1331h487q157 0 243 -82q87 -83 87 -219zM367 643h446q179 0 295 110q115 109 115 277q0 122 -77.5 192
t-215.5 70h-447z" />
    <glyph glyph-name="racute" unicode="&#x155;" horiz-adv-x="655" 
d="M817 1395l-366 -248h-5l-16 22v5l358 258h5l24 -33v-4zM709 1049q83 0 120 -27v-6l-16 -27l-6 -2q-41 23 -107 23q-111 0 -198 -69q-88 -69 -135 -183q-19 -47 -29 -107l-119 -651h-41l184 1024h41l-32 -184q47 81 98 121q100 88 240 88z" />
    <glyph glyph-name="uni0156" unicode="&#x156;" horiz-adv-x="1191" 
d="M1266 1030q0 -169 -107 -285q-109 -116 -285 -137l189 -602l-6 -6h-39l-189 604h-26h-443l-108 -604h-43l240 1331h487q157 0 243 -82q87 -83 87 -219zM367 643h446q179 0 295 110q115 109 115 277q0 122 -77.5 192t-215.5 70h-447zM588 -109l4 5h41l2 -5l-117 -264
l-4 -4h-29l-2 4z" />
    <glyph glyph-name="uni0157" unicode="&#x157;" horiz-adv-x="655" 
d="M709 1049q83 0 120 -27v-6l-16 -27l-6 -2q-41 23 -107 23q-111 0 -198 -69q-88 -69 -135 -183q-19 -47 -29 -107l-119 -651h-41l184 1024h41l-32 -184q47 81 98 121q100 88 240 88zM160 -109l4 5h41l2 -5l-117 -264l-4 -4h-29l-2 4z" />
    <glyph glyph-name="Rcaron" unicode="&#x158;" horiz-adv-x="1191" 
d="M1104 1651l-301 -183h-8l-234 183v4l19 20h4l221 -153l280 157h5l14 -24v-4zM1266 1030q0 -169 -107 -285q-109 -116 -285 -137l189 -602l-6 -6h-39l-189 604h-26h-443l-108 -604h-43l240 1331h487q157 0 243 -82q87 -83 87 -219zM367 643h446q179 0 295 110
q115 109 115 277q0 122 -77.5 192t-215.5 70h-447z" />
    <glyph glyph-name="rcaron" unicode="&#x159;" horiz-adv-x="655" 
d="M881 1354h4l16 -23l-2 -4l-289 -182h-12l-233 182l2 4l22 21h4l217 -154zM469 961q100 88 240 88q83 0 120 -27v-6l-16 -27l-6 -2q-41 23 -107 23q-111 0 -198 -69q-88 -69 -135 -183q-19 -47 -29 -107l-119 -651h-41l184 1024h41l-32 -184q47 81 98 121z" />
    <glyph glyph-name="Sacute" unicode="&#x15a;" horiz-adv-x="1009" 
d="M618 1477l306 225h4l26 -31v-4l-315 -215h-4l-17 21v4zM543 -25q-146 0 -261 70q-116 71 -171 174v6l30 21h6q53 -102 159 -165t239 -63q168 0 282 90q113 89 113 228q0 61 -28 121q-9 19 -38 50q-23 23 -43 41q-17 14 -57 39q-14 9 -32.5 20t-22.5 14q-26 14 -64 34
q-54 27 -61 31q-130 70 -198 141t-68 185q0 150 114 247q112 97 291 97q238 0 350 -172v-6l-26 -23h-6q-46 77 -136 118q-89 40 -188 40q-159 0 -257 -88q-99 -89 -99 -215q0 -93 59 -155q60 -64 186 -130q16 -9 51 -26q39 -20 53 -28q33 -18 49 -27q32 -18 51 -32
q1 0 43 -34q18 -15 28 -25t23 -28t21 -27q18 -24 28 -48q20 -58 20 -114q0 -159 -128 -260t-312 -101z" />
    <glyph glyph-name="sacute" unicode="&#x15b;" horiz-adv-x="835" 
d="M442 1174l359 258h4l24 -33v-4l-366 -248h-4l-17 22v5zM426 -25q-122 0 -208.5 51t-123.5 142l2 6l29 16h6q74 -176 301 -176q148 0 234 73q86 74 86 194q0 45 -27 99q-5 9 -15 20.5t-18.5 19t-22 18.5t-16.5 14q-12 10 -50 30l-48 24q-4 2 -11 5t-20.5 9t-24.5 11
q-52 22 -53 22q-176 78 -176 221q0 125 92 200t226 75q95 0 175 -44q77 -42 116 -118v-6l-29 -17h-6q-35 68 -105.5 107t-156.5 39q-119 0 -194 -66q-75 -68 -75 -170q0 -122 164 -190q84 -34 117 -51q28 -14 92 -55q109 -70 109 -193q0 -139 -100 -224q-101 -86 -269 -86z
" />
    <glyph glyph-name="Scedilla" unicode="&#x15e;" horiz-adv-x="1009" 
d="M733 1356q238 0 350 -172v-6l-26 -23h-6q-46 77 -136 118q-89 40 -188 40q-159 0 -257 -88q-99 -89 -99 -215q0 -93 59 -155q60 -64 186 -130q16 -9 51 -26q39 -20 53 -28q33 -18 49 -27q32 -18 51 -32q1 0 43 -34q18 -15 28 -25t23 -28t21 -27q18 -24 28 -48
q20 -58 20 -114q0 -156 -121 -255t-299 -106l-37 -88q76 4 121 -22.5t45 -77.5q0 -64 -45.5 -101.5t-126.5 -37.5q-92 0 -151 53l2 6l26 29h6q52 -47 123 -47q57 0 90 25t33 67q0 39 -43 56.5t-112 6.5l-25 15l51 116q-139 6 -247 75q-110 69 -162 169v6l30 21h6
q53 -102 159 -165t239 -63q168 0 282 90q113 89 113 228q0 61 -28 121q-9 19 -38 50q-23 23 -43 41q-17 14 -57 39q-14 9 -32.5 20t-22.5 14q-26 14 -64 34q-54 27 -61 31q-130 70 -198 141t-68 185q0 150 114 247q112 97 291 97z" />
    <glyph glyph-name="scedilla" unicode="&#x15f;" horiz-adv-x="835" 
d="M588 1049q95 0 175 -44q77 -42 116 -118v-6l-29 -17h-6q-35 68 -105.5 107t-156.5 39q-119 0 -194 -66q-75 -68 -75 -170q0 -122 164 -190q84 -34 117 -51q28 -14 92 -55q109 -70 109 -193q0 -135 -93 -218q-95 -83 -251 -92l-37 -88q76 4 121 -22.5t45 -77.5
q0 -64 -46 -101.5t-126 -37.5q-91 0 -152 53l2 6l27 29h6q52 -47 123 -47q57 0 90 25t33 67q0 39 -43 56.5t-113 6.5l-25 15l52 116q-114 4 -196 55t-118 138l2 6l29 16h6q74 -176 301 -176q148 0 234 73q86 74 86 194q0 45 -27 99q-5 9 -15 20.5t-18.5 19t-22 18.5
t-16.5 14q-12 10 -50 30l-48 24q-4 2 -11 5t-20.5 9t-24.5 11q-52 22 -53 22q-176 78 -176 221q0 125 92 200t226 75z" />
    <glyph glyph-name="Scaron" unicode="&#x160;" horiz-adv-x="1009" 
d="M1069 1651l-301 -183h-8l-234 183v4l19 20h4l221 -153l281 157h4l14 -24v-4zM733 1356q238 0 350 -172v-6l-26 -23h-6q-46 77 -136 118q-89 40 -188 40q-159 0 -257 -88q-99 -89 -99 -215q0 -93 59 -155q60 -64 186 -130q16 -9 51 -26q39 -20 53 -28q33 -18 49 -27
q32 -18 51 -32q1 0 43 -34q18 -15 28 -25t23 -28t21 -27q18 -24 28 -48q20 -58 20 -114q0 -159 -128 -260t-312 -101q-146 0 -261 70q-116 71 -171 174v6l30 21h6q53 -102 159 -165t239 -63q168 0 282 90q113 89 113 228q0 61 -28 121q-9 19 -38 50q-23 23 -43 41
q-17 14 -57 39q-14 9 -32.5 20t-22.5 14q-26 14 -64 34q-54 27 -61 31q-130 70 -198 141t-68 185q0 150 114 247q112 97 291 97z" />
    <glyph glyph-name="scaron" unicode="&#x161;" horiz-adv-x="835" 
d="M893 1354h4l16 -23l-2 -4l-288 -182h-13l-233 182l2 4l22 21h5l217 -154zM588 1049q95 0 175 -44q77 -42 116 -118v-6l-29 -17h-6q-35 68 -105.5 107t-156.5 39q-119 0 -194 -66q-75 -68 -75 -170q0 -122 164 -190q84 -34 117 -51q28 -14 92 -55q109 -70 109 -193
q0 -139 -100 -224q-101 -86 -269 -86q-122 0 -208.5 51t-123.5 142l2 6l29 16h6q74 -176 301 -176q148 0 234 73q86 74 86 194q0 45 -27 99q-5 9 -15 20.5t-18.5 19t-22 18.5t-16.5 14q-12 10 -50 30l-48 24q-4 2 -11 5t-20.5 9t-24.5 11q-52 22 -53 22q-176 78 -176 221
q0 125 92 200t226 75z" />
    <glyph glyph-name="uni0162" unicode="&#x162;" horiz-adv-x="1036" 
d="M262 1292l8 39h977l-8 -39h-471l-231 -1292l-48 -113q76 4 121 -22.5t45 -77.5q0 -64 -45.5 -101.5t-126.5 -37.5q-92 0 -151 53l2 6l26 29h7q52 -47 122 -47q57 0 90 25t33 67q0 39 -43 56.5t-112 6.5l-25 15l62 141l231 1292h-463z" />
    <glyph glyph-name="uni0163" unicode="&#x163;" horiz-adv-x="632" 
d="M768 985h-340l-131 -725q-23 -117 24.5 -181.5t155.5 -64.5q81 0 146 52l6 -3l12 -26l-2 -6q-78 -54 -164 -56h-8l-37 -88q76 4 121 -22.5t45 -77.5q0 -64 -45.5 -101.5t-126.5 -37.5q-91 0 -152 53l2 6l27 29h6q52 -47 123 -47q57 0 90 25t33 67q0 39 -43 56.5t-113 6.5
l-24 15l53 121q-101 14 -145.5 85t-24.5 191l131 729h-184l6 39h184l60 328l36 4l5 -4l-60 -328h340z" />
    <glyph glyph-name="Tcaron" unicode="&#x164;" horiz-adv-x="1036" 
d="M1063 1651l-301 -183h-8l-234 183v4l19 20h4l221 -153l280 157h5l14 -24v-4zM262 1292l8 39h977l-8 -39h-471l-231 -1292h-43l231 1292h-463z" />
    <glyph glyph-name="tcaron" unicode="&#x165;" horiz-adv-x="632" 
d="M766 1425l-117 -323l-6 -4h-29v4l105 323l6 5h41v-5zM768 985h-340l-131 -725q-23 -117 24.5 -181.5t155.5 -64.5q81 0 146 52l6 -3l12 -26l-2 -6q-78 -54 -164 -56q-126 0 -185 74.5t-34 206.5l131 729h-184l6 39h184l60 328l36 4l5 -4l-60 -328h340z" />
    <glyph glyph-name="Tbar" unicode="&#x166;" horiz-adv-x="1036" 
d="M1247 1331l-8 -39h-471l-109 -606h230l-8 -37h-228l-116 -649h-43l116 649h-231l8 37h229l109 606h-463l8 39h977z" />
    <glyph glyph-name="tbar" unicode="&#x167;" horiz-adv-x="632" 
d="M774 1024l-6 -39h-340l-72 -393h279l-8 -37h-277l-53 -295q-23 -117 24.5 -181.5t155.5 -64.5q81 0 146 52l6 -3l12 -26l-2 -6q-78 -54 -164 -56q-126 0 -185 74.5t-34 206.5l53 299h-184l8 37h182l72 393h-184l6 39h184l60 328l36 4l5 -4l-60 -328h340z" />
    <glyph glyph-name="Utilde" unicode="&#x168;" horiz-adv-x="1413" 
d="M1171 1508q-42 -19 -86 -19q-45 0 -129 37t-139 37q-86 0 -133 -74h-10l-4 4l10 47q47 68 145 68q54 0 140 -37q84 -37 129 -37q86 0 133 74h12l2 -4l-8 -48q-19 -28 -62 -48zM283 520l145 811h43l-145 -809q-41 -225 72 -365q112 -141 331 -141q213 0 359 138
q144 135 188 368l145 809h43l-145 -811q-45 -249 -200 -397t-388 -148q-238 0 -364 152q-127 151 -84 393z" />
    <glyph glyph-name="utilde" unicode="&#x169;" horiz-adv-x="1150" 
d="M520 1229h-10l-4 4l8 43q44 63 143 63q52 0 139 -34q88 -35 128 -35q92 0 131 69h8l4 -4l-8 -43q-43 -63 -146 -63q-39 0 -126 35q-84 34 -136 34q-92 2 -131 -69zM997 373l119 651h41l-184 -1024h-43l41 203q-141 -227 -402 -228q-184 0 -277 110q-93 109 -61 294
l115 645h41l-115 -645q-29 -165 53 -264q81 -101 244 -101q137 0 240 70q104 72 158 182q20 44 30 107z" />
    <glyph glyph-name="Umacron" unicode="&#x16a;" horiz-adv-x="1413" 
d="M674 1516l8 36h551l-8 -36h-551zM283 520l145 811h43l-145 -809q-41 -225 72 -365q112 -141 331 -141q213 0 359 138q144 135 188 368l145 809h43l-145 -811q-45 -249 -200 -397t-388 -148q-238 0 -364 152q-127 151 -84 393z" />
    <glyph glyph-name="umacron" unicode="&#x16b;" horiz-adv-x="1150" 
d="M512 1272h543l-6 -37h-543zM997 373l119 651h41l-184 -1024h-43l41 203q-141 -227 -402 -228q-184 0 -277 110q-93 109 -61 294l115 645h41l-115 -645q-29 -165 53 -264q81 -101 244 -101q137 0 240 70q104 72 158 182q20 44 30 107z" />
    <glyph glyph-name="Uring" unicode="&#x16e;" horiz-adv-x="1413" 
d="M942 1444q-59 0 -99 40t-40 97q0 76 53 127q52 51 129 51q59 0 99 -40t40 -97q0 -76 -53 -127t-129 -51zM950 1481q61 0 97 43q36 44 36 96q0 44 -28 73t-76 29q-61 0 -97 -43t-36 -96q0 -44 28 -73t76 -29zM283 520l145 811h43l-145 -809q-41 -225 72 -365
q112 -141 331 -141q213 0 359 138q144 135 188 368l145 809h43l-145 -811q-45 -249 -200 -397t-388 -148q-238 0 -364 152q-127 151 -84 393z" />
    <glyph glyph-name="uring" unicode="&#x16f;" horiz-adv-x="1150" 
d="M766 1133q-59 0 -99 40q-40 39 -40 97q0 76 53 127q52 51 129 51q59 0 99 -40t40 -97q0 -76 -53 -127t-129 -51zM803 1411q-61 0 -97 -43q-36 -44 -36 -96q0 -44 28.5 -73.5t75.5 -29.5q61 0 97 43q36 44 36 97q0 44 -28 73t-76 29zM997 373l119 651h41l-184 -1024h-43
l41 203q-141 -227 -402 -228q-184 0 -277 110q-93 109 -61 294l115 645h41l-115 -645q-29 -165 53 -264q81 -101 244 -101q137 0 240 70q104 72 158 182q20 44 30 107z" />
    <glyph glyph-name="Uhungarumlaut" unicode="&#x170;" horiz-adv-x="1413" 
d="M750 1454l213 295h51l2 -4l-230 -295h-34zM950 1454l213 295h51l3 -4l-230 -295h-35zM283 520l145 811h43l-145 -809q-41 -225 72 -365q112 -141 331 -141q213 0 359 138q144 135 188 368l145 809h43l-145 -811q-45 -249 -200 -397t-388 -148q-238 0 -364 152
q-127 151 -84 393z" />
    <glyph glyph-name="uhungarumlaut" unicode="&#x171;" horiz-adv-x="1150" 
d="M608 1149l-4 -4h-33l-2 4l181 278l6 5h49l2 -5zM809 1145h-33l-2 4l180 278l7 5h49l2 -5l-199 -278zM997 373l119 651h41l-184 -1024h-43l41 203q-141 -227 -402 -228q-184 0 -277 110q-93 109 -61 294l115 645h41l-115 -645q-29 -165 53 -264q81 -101 244 -101
q137 0 240 70q104 72 158 182q20 44 30 107z" />
    <glyph glyph-name="Uogonek" unicode="&#x172;" horiz-adv-x="1413" 
d="M1276 522l145 809h43l-145 -811q-35 -187 -131.5 -318t-243.5 -188q-154 -80 -153 -198q0 -45 30.5 -72t79.5 -27q60 0 105 19l4 -2l6 -25l-4 -6q-52 -23 -117 -23q-65 1 -106 36q-41 36 -41 94q0 100 100 176q-55 -9 -117 -11q-238 0 -364 152q-127 151 -84 393l145 811
h43l-145 -809q-41 -225 72 -365q112 -141 331 -141q213 0 359 138q144 135 188 368z" />
    <glyph glyph-name="uogonek" unicode="&#x173;" horiz-adv-x="1150" 
d="M1008 -291l4 -2l6 -24l-4 -7q-52 -23 -117 -23q-66 2 -106 37q-41 36 -41 93q0 134 182 229l39 191q-141 -227 -402 -228q-184 0 -277 110q-93 109 -61 294l115 645h41l-115 -645q-29 -165 53 -264q81 -101 244 -101q137 0 240 70q104 72 158 182q20 44 30 107l119 651
h41l-184 -1024q-16 -4 -62 -35q-30 -18 -56 -43q-26 -24 -44 -60t-18 -73q0 -45 30.5 -71.5t79.5 -26.5q60 0 105 18z" />
    <glyph glyph-name="Wcircumflex" unicode="&#x174;" horiz-adv-x="1890" 
d="M1229 1630l-281 -157h-4l-14 24v4l301 182h8l234 -182v-4l-21 -22h-4zM2025 1331h43l3 -6l-711 -1325h-41l-148 1255l-598 -1255h-41l-235 1325l6 6h39l223 -1253l596 1253h45l146 -1253z" />
    <glyph glyph-name="wcircumflex" unicode="&#x175;" horiz-adv-x="1456" 
d="M956 1325l-278 -160h-4l-17 25l2 4l293 182h13l229 -182l-2 -4l-21 -19h-4zM1532 1024h41l4 -6l-514 -1018h-31l-147 944l-461 -944h-35l-168 1018l4 6h37l158 -938l461 938h34l148 -934z" />
    <glyph glyph-name="Ycircumflex" unicode="&#x176;" horiz-adv-x="1183" 
d="M842 1630l-281 -157h-4l-14 24v4l301 182h8l233 -182v-4l-20 -22h-4zM1350 1331l2 -6l-645 -813l-93 -512h-43l95 514l-355 811l6 6h39l334 -774l610 774h50z" />
    <glyph glyph-name="ycircumflex" unicode="&#x177;" horiz-adv-x="1005" 
d="M709 1325l-279 -160h-4l-16 25l2 4l293 182h12l229 -182l-2 -4l-20 -19h-4zM1085 1024h43l7 -6l-725 -1192q-94 -154 -217 -154q-72 0 -127 43v6l20 25l6 2q46 -37 101 -37q104 0 180 127l112 187l-266 993l4 6h37l256 -946z" />
    <glyph glyph-name="Ydieresis" unicode="&#x178;" horiz-adv-x="1183" 
d="M670 1505q-25 0 -41.5 16.5t-16.5 39.5q0 31 21.5 53t52.5 22q23 0 40 -16t17 -39q0 -31 -21.5 -53.5t-51.5 -22.5zM969 1505q-25 0 -42.5 16.5t-17.5 39.5q0 31 21.5 53t52.5 22q25 0 42 -16t17 -39q0 -31 -21.5 -53.5t-51.5 -22.5zM1350 1331l2 -6l-645 -813l-93 -512
h-43l95 514l-355 811l6 6h39l334 -774l610 774h50z" />
    <glyph glyph-name="Zacute" unicode="&#x179;" horiz-adv-x="1048" 
d="M961 1667l-316 -215h-4l-16 21v4l305 225h4l27 -31v-4zM330 1331h874l-8 -41l-1087 -1251h903l-6 -39h-959l8 41l1088 1251h-821z" />
    <glyph glyph-name="zacute" unicode="&#x17a;" horiz-adv-x="901" 
d="M856 1395l-367 -248h-4l-16 22v5l358 258h4l25 -33v-4zM248 1024h731l-6 -33l-862 -954h753l-6 -37h-811l6 33l862 954h-673z" />
    <glyph glyph-name="Zdotaccent" unicode="&#x17b;" horiz-adv-x="1048" 
d="M782 1501q-24 0 -40.5 16.5t-16.5 38.5q0 31 21.5 53.5t52.5 22.5q23 0 40 -16.5t17 -38.5q0 -31 -21.5 -53.5t-52.5 -22.5zM330 1331h874l-8 -41l-1087 -1251h903l-6 -39h-959l8 41l1088 1251h-821z" />
    <glyph glyph-name="zdotaccent" unicode="&#x17c;" horiz-adv-x="901" 
d="M657 1206q-24 0 -41.5 16.5t-17.5 39.5q0 29 20.5 50t49.5 21q23 0 40 -16.5t17 -38.5q0 -29 -20.5 -50.5t-47.5 -21.5zM248 1024h731l-6 -33l-862 -954h753l-6 -37h-811l6 33l862 954h-673z" />
    <glyph glyph-name="Zcaron" unicode="&#x17d;" horiz-adv-x="1048" 
d="M1075 1651l-301 -183h-8l-234 183v4l19 20h4l221 -153l281 157h4l14 -24v-4zM330 1331h874l-8 -41l-1087 -1251h903l-6 -39h-959l8 41l1088 1251h-821z" />
    <glyph glyph-name="zcaron" unicode="&#x17e;" horiz-adv-x="901" 
d="M938 1327l-289 -182h-12l-234 182l3 4l22 21h4l217 -154l271 156h4l16 -23zM248 1024h731l-6 -33l-862 -954h753l-6 -37h-811l6 33l862 954h-673z" />
    <glyph glyph-name="uni01EA" unicode="&#x1ea;" horiz-adv-x="1572" 
d="M975 1356q272 0 451 -179q178 -179 178 -450q0 -331 -218 -543q-106 -101 -249 -157q-156 -78 -156 -199q0 -45 30.5 -71.5t80.5 -26.5q59 0 104 18l4 -2l6 -25l-4 -6q-52 -23 -116 -23q-67 2 -107 36q-41 36 -41 94q0 93 98 176q-98 -23 -190 -23q-272 0 -450 180
q-179 179 -179 449q0 332 217 543q214 209 541 209zM1364 221q197 202 197 506q0 252 -168 419q-169 167 -422 167q-311 0 -514 -203q-197 -202 -197 -506q0 -252 168 -419q169 -167 422 -167q311 0 514 203z" />
    <glyph glyph-name="uni01EB" unicode="&#x1eb;" horiz-adv-x="1259" 
d="M772 1049q211 0 350 -139q138 -140 138 -351q0 -270 -201 -444q-85 -73 -185 -107q-38 -17 -67 -39t-61 -65q-35 -47 -35 -99q0 -45 30.5 -71.5t79.5 -26.5q60 0 105 19l4 -2l6 -25l-4 -6q-52 -23 -116 -23q-66 0 -107 36t-41 93q0 104 110 185q-70 -8 -108 -9
q-211 0 -349 140q-139 139 -139 350q0 270 201 444q163 140 389 140zM1036 152q180 160 181 403q0 197 -126 326t-319 129q-213 0 -366 -138q-180 -160 -181 -403q0 -197 126 -326t319 -129q212 2 366 138z" />
    <glyph glyph-name="AEacute" unicode="&#x1fc;" horiz-adv-x="1869" 
d="M1772 1667l-316 -215h-4l-16 21v4l305 225h4l27 -31v-4zM1989 1331l-9 -39h-772l-106 -600h612l-8 -39h-612l-111 -614h772l-6 -39h-815l61 346h-659l-305 -346h-43l-2 6l1165 1325h838zM371 385h633l161 899z" />
    <glyph glyph-name="aeacute" unicode="&#x1fd;" horiz-adv-x="1951" 
d="M1341 1395l-366 -248h-4l-17 22v5l359 258h4l24 -33v-4zM1516 1049q211 0 333 -149q121 -150 84 -363q0 -17 -8 -41h-928q0 -220 123 -351t318 -131q262 0 405 183h6l25 -21v-6q-158 -195 -436 -195q-188 0 -312 105q-126 104 -157 285q-35 -186 -174 -288
q-140 -102 -316 -102q-157 0 -252 79q-96 80 -96 210q0 152 129 249q128 97 326 97q225 0 368 -98l23 141q28 166 -51 265q-80 92 -240 92q-233 0 -367 -185h-6l-28 15v6q141 203 399 203q154 0 244 -78t96 -215q51 100 139 172q149 121 353 121zM1001 537h889
q33 208 -82 344q-110 129 -292 129q-196 0 -332 -121q-163 -136 -183 -352zM481 14q161 0 288 95q126 94 157 253l18 103q-67 47 -165 77q-101 29 -197 29q-177 0 -292 -88q-116 -89 -116 -221q0 -112 86 -180t221 -68z" />
    <glyph glyph-name="Oslashacute" unicode="&#x1fe;" horiz-adv-x="1572" 
d="M1247 1667l-315 -215h-4l-17 21v4l306 225h4l26 -31v-4zM1587 1444l-194 -236q211 -181 211 -481q0 -331 -218 -543q-214 -209 -540 -209q-212 0 -379 117l-160 -192h-47l-2 6l176 213q-217 180 -217 485q0 332 217 543q214 209 541 209q219 0 385 -121l178 215h47z
M260 604q0 -280 203 -450l866 1046q-152 113 -358 113q-311 0 -514 -203q-197 -202 -197 -506zM1364 221q197 202 197 506q0 275 -199 447l-866 -1047q157 -109 354 -109q311 0 514 203z" />
    <glyph glyph-name="oslashacute" unicode="&#x1ff;" horiz-adv-x="1259" 
d="M1051 1395l-367 -248h-4l-16 22v5l358 258h4l25 -33v-4zM1290 1139l-184 -213q154 -141 154 -367q0 -270 -201 -444q-161 -138 -389 -140q-173 0 -301 97l-144 -166h-45l-2 6l160 186q-156 140 -156 367q0 270 201 444q161 138 389 140q172 0 303 -99l168 195h45z
M225 469q0 -206 140 -340l684 791q-117 90 -277 90q-213 0 -366 -138q-181 -159 -181 -403zM1036 152q180 160 181 403q0 209 -140 338l-682 -791q116 -88 275 -88q212 2 366 138z" />
    <glyph glyph-name="uni0218" unicode="&#x218;" horiz-adv-x="1009" 
d="M543 -25q-146 0 -261 70q-116 71 -171 174v6l30 21h6q53 -102 159 -165t239 -63q168 0 282 90q113 89 113 228q0 61 -28 121q-9 19 -38 50q-23 23 -43 41q-17 14 -57 39q-14 9 -32.5 20t-22.5 14q-26 14 -64 34q-54 27 -61 31q-130 70 -198 141t-68 185q0 150 114 247
q112 97 291 97q238 0 350 -172v-6l-26 -23h-6q-46 77 -136 118q-89 40 -188 40q-159 0 -257 -88q-99 -89 -99 -215q0 -93 59 -155q60 -64 186 -130q16 -9 51 -26q39 -20 53 -28q33 -18 49 -27q32 -18 51 -32q1 0 43 -34q18 -15 28 -25t23 -28t21 -27q18 -24 28 -48
q20 -58 20 -114q0 -159 -128 -260t-312 -101zM406 -373l104 264l4 5h41l2 -5l-117 -264l-4 -4h-28z" />
    <glyph glyph-name="uni0219" unicode="&#x219;" horiz-adv-x="835" 
d="M426 -25q-122 0 -208.5 51t-123.5 142l2 6l29 16h6q74 -176 301 -176q148 0 234 73q86 74 86 194q0 45 -27 99q-5 9 -15 20.5t-18.5 19t-22 18.5t-16.5 14q-12 10 -50 30l-48 24q-4 2 -11 5t-20.5 9t-24.5 11q-52 22 -53 22q-176 78 -176 221q0 125 92 200t226 75
q95 0 175 -44q77 -42 116 -118v-6l-29 -17h-6q-35 68 -105.5 107t-156.5 39q-119 0 -194 -66q-75 -68 -75 -170q0 -122 164 -190q84 -34 117 -51q28 -14 92 -55q109 -70 109 -193q0 -139 -100 -224q-101 -86 -269 -86zM293 -373l104 264l4 5h41l2 -5l-116 -264l-4 -4h-29z
" />
    <glyph glyph-name="uni021A" unicode="&#x21a;" horiz-adv-x="1036" 
d="M1239 1292h-471l-231 -1292h-43l231 1292h-463l8 39h977zM369 -373l104 264l4 5h41l2 -5l-117 -264l-4 -4h-28z" />
    <glyph glyph-name="uni021B" unicode="&#x21b;" horiz-adv-x="632" 
d="M768 985h-340l-131 -725q-23 -117 24.5 -181.5t155.5 -64.5q81 0 146 52l6 -3l12 -26l-2 -6q-78 -54 -164 -56q-126 0 -185 74.5t-34 206.5l131 729h-184l6 39h184l60 328l36 4l5 -4l-60 -328h340zM414 -109l4 5h41l2 -5l-117 -264l-4 -4h-29l-2 4z" />
    <glyph glyph-name="uni0237" unicode="&#x237;" horiz-adv-x="397" 
d="M180 8l182 1016h41l-184 -1020q-22 -127 -76 -201q-53 -71 -147 -131h-6l-13 25v6q86 53 134 119q47 68 69 186z" />
    <glyph glyph-name="uni02BC" unicode="&#x2bc;" horiz-adv-x="303" 
d="M313 1149l119 278l4 5h41l2 -5l-133 -278l-4 -4h-27z" />
    <glyph glyph-name="circumflex" unicode="&#x2c6;" horiz-adv-x="694" 
d="M588 1376h12l229 -182l-2 -4l-20 -19h-4l-211 154l-279 -160h-4l-16 25l2 4z" />
    <glyph glyph-name="caron" unicode="&#x2c7;" horiz-adv-x="694" 
d="M834 1354h4l16 -23l-2 -4l-289 -182h-12l-234 182l2 4l23 21h4l217 -154z" />
    <glyph glyph-name="breve" unicode="&#x2d8;" horiz-adv-x="724" 
d="M586 1171q-103 0 -167 64q-65 64 -61 166h43q-1 -85 51 -138q53 -53 134 -53q82 0 146.5 51.5t92.5 139.5h43q-33 -106 -108 -168t-174 -62z" />
    <glyph glyph-name="dotaccent" unicode="&#x2d9;" horiz-adv-x="186" 
d="M319 1206q-24 0 -41.5 16.5t-17.5 39.5q0 29 20.5 50t49.5 21q23 0 40 -16.5t17 -38.5q0 -29 -20.5 -50.5t-47.5 -21.5z" />
    <glyph glyph-name="ring" unicode="&#x2da;" horiz-adv-x="477" 
d="M449 1133q-59 0 -99 40q-41 39 -41 97q0 76 54 127q53 51 129 51q59 0 99 -40t40 -97q0 -76 -53 -127q-52 -51 -129 -51zM457 1169q61 0 97 43q36 44 36 97q0 44 -28 73t-77 29q-61 0 -97 -43q-36 -44 -36 -96q0 -44 28.5 -73.5t76.5 -29.5z" />
    <glyph glyph-name="ogonek" unicode="&#x2db;" horiz-adv-x="468" 
d="M322 -305l-5 -6q-52 -23 -116 -23q-67 0 -107 36q-41 36 -41 93q0 141 193 234l30 -17q-14 -4 -62 -35q-32 -20 -55 -43q-26 -25 -44.5 -60.5t-18.5 -72.5q0 -45 31 -71.5t80 -26.5q59 0 104 18l4 -2z" />
    <glyph glyph-name="tilde" unicode="&#x2dc;" horiz-adv-x="696" 
d="M713 1229q-39 0 -126 35q-84 34 -136 34q-91 0 -132 -69h-10l-4 4l8 43q43 63 144 63q52 0 138 -34q88 -35 128 -35q92 0 131 69h8l4 -4l-8 -43q-44 -63 -145 -63z" />
    <glyph glyph-name="hungarumlaut" unicode="&#x2dd;" horiz-adv-x="722" 
d="M268 1149l181 278l6 5h49l2 -5l-199 -278l-4 -4h-33zM473 1149l180 278l6 5h50l2 -5l-199 -278l-4 -4h-33z" />
    <glyph glyph-name="uni0326" unicode="&#x326;" horiz-adv-x="0" 
d="M-328 -373l105 264l4 5h41l2 -5l-117 -264l-4 -4h-29z" />
    <glyph glyph-name="Wgrave" unicode="&#x1e80;" horiz-adv-x="1890" 
d="M1382 1473l-16 -21h-4l-315 215v4l26 31h4l305 -225v-4zM2025 1331h43l3 -6l-711 -1325h-41l-148 1255l-598 -1255h-41l-235 1325l6 6h39l223 -1253l596 1253h45l146 -1253z" />
    <glyph glyph-name="wgrave" unicode="&#x1e81;" horiz-adv-x="1456" 
d="M1135 1169l-17 -22h-4l-366 248v4l24 33h4l359 -258v-5zM1532 1024h41l4 -6l-514 -1018h-31l-147 944l-461 -944h-35l-168 1018l4 6h37l158 -938l461 938h34l148 -934z" />
    <glyph glyph-name="Wacute" unicode="&#x1e82;" horiz-adv-x="1890" 
d="M1384 1667l-315 -215h-4l-16 21v4l305 225h4l26 -31v-4zM2025 1331h43l3 -6l-711 -1325h-41l-148 1255l-598 -1255h-41l-235 1325l6 6h39l223 -1253l596 1253h45l146 -1253z" />
    <glyph glyph-name="wacute" unicode="&#x1e83;" horiz-adv-x="1456" 
d="M1135 1395l-367 -248h-4l-16 22v5l358 258h4l25 -33v-4zM1532 1024h41l4 -6l-514 -1018h-31l-147 944l-461 -944h-35l-168 1018l4 6h37l158 -938l461 938h34l148 -934z" />
    <glyph glyph-name="Wdieresis" unicode="&#x1e84;" horiz-adv-x="1890" 
d="M1057 1505q-25 0 -41.5 16.5t-16.5 39.5q0 31 21.5 53t52.5 22q23 0 40 -16t17 -39q0 -31 -21.5 -53.5t-51.5 -22.5zM1356 1505q-25 0 -42.5 16.5t-17.5 39.5q0 31 21.5 53t52.5 22q25 0 42.5 -16t17.5 -39q0 -31 -21.5 -53.5t-52.5 -22.5zM2025 1331h43l3 -6l-711 -1325
h-41l-148 1255l-598 -1255h-41l-235 1325l6 6h39l223 -1253l596 1253h45l146 -1253z" />
    <glyph glyph-name="wdieresis" unicode="&#x1e85;" horiz-adv-x="1456" 
d="M805 1204q-25 0 -41 16t-16 40q0 31 21.5 53t51.5 22q24 0 41 -16t17 -39q0 -31 -21.5 -53.5t-52.5 -22.5zM1059 1204q-25 0 -41.5 16.5t-16.5 39.5q0 31 21.5 53t52.5 22q24 0 41 -16t17 -39q0 -31 -21.5 -53.5t-52.5 -22.5zM1532 1024h41l4 -6l-514 -1018h-31l-147 944
l-461 -944h-35l-168 1018l4 6h37l158 -938l461 938h34l148 -934z" />
    <glyph glyph-name="uni1E9E" unicode="&#x1e9e;" 
d="M862 737h37q157 0 255 -92q97 -91 97 -233q0 -187 -131 -312t-332 -125q-89 0 -179 29q-89 29 -142 74v6l22 27l7 2q102 -93 292 -95q179 0 300 113q120 113 120 281q0 127 -86 207q-85 79 -225 79h-98l6 39l424 424q-95 152 -330 152q-202 0 -336 -128
q-132 -126 -170 -341l-151 -844h-43l151 844q40 231 189 372q148 140 368 140q260 0 379 -197z" />
    <glyph glyph-name="Ygrave" unicode="&#x1ef2;" horiz-adv-x="1183" 
d="M995 1473l-16 -21h-4l-316 215v4l27 31h4l305 -225v-4zM1350 1331l2 -6l-645 -813l-93 -512h-43l95 514l-355 811l6 6h39l334 -774l610 774h50z" />
    <glyph glyph-name="ygrave" unicode="&#x1ef3;" horiz-adv-x="1005" 
d="M887 1169l-17 -22h-4l-366 248v4l24 33h4l359 -258v-5zM1085 1024h43l7 -6l-725 -1192q-94 -154 -217 -154q-72 0 -127 43v6l20 25l6 2q46 -37 101 -37q104 0 180 127l112 187l-266 993l4 6h37l256 -946z" />
    <glyph glyph-name="uni1EF8" unicode="&#x1ef8;" horiz-adv-x="1183" 
d="M551 1489h-10l-4 4l10 47q47 68 145 68q54 0 140 -37q84 -37 129 -37q86 0 133 74h12l2 -4l-8 -48q-20 -29 -62.5 -48t-85.5 -19q-45 0 -129 37t-139 37q-86 0 -133 -74zM1350 1331l2 -6l-645 -813l-93 -512h-43l95 514l-355 811l6 6h39l334 -774l610 774h50z" />
    <glyph glyph-name="uni1EF9" unicode="&#x1ef9;" horiz-adv-x="1005" 
d="M428 1229h-10l-4 4l8 43q44 63 143 63q52 0 139 -34q88 -35 127 -35q91 0 132 69h8l4 -4l-8 -43q-43 -63 -146 -63q-39 0 -126 35q-84 34 -136 34q-92 2 -131 -69zM1085 1024h43l7 -6l-725 -1192q-94 -154 -217 -154q-72 0 -127 43v6l20 25l6 2q46 -37 101 -37
q104 0 180 127l112 187l-266 993l4 6h37l256 -946z" />
    <glyph glyph-name="endash" unicode="&#x2013;" horiz-adv-x="1120" 
d="M252 596l6 37h832l-7 -37h-831z" />
    <glyph glyph-name="emdash" unicode="&#x2014;" horiz-adv-x="1413" 
d="M252 596l6 37h1124l-6 -37h-1124z" />
    <glyph glyph-name="quoteleft" unicode="&#x2018;" horiz-adv-x="362" 
d="M367 1036q-25 0 -41.5 17.5t-16.5 42.5q0 114 164 284h4l21 -18v-4q-91 -102 -113 -191q26 0 40.5 -17.5t14.5 -41.5q0 -29 -22 -50.5t-51 -21.5z" />
    <glyph glyph-name="quoteright" unicode="&#x2019;" horiz-adv-x="362" 
d="M338 1047h-4l-21 18v4q91 102 113 191q-26 0 -40.5 17t-14.5 42q0 29 22.5 50.5t50.5 21.5q25 0 41.5 -17.5t16.5 -42.5q0 -114 -164 -284z" />
    <glyph glyph-name="quotesinglbase" unicode="&#x201a;" horiz-adv-x="350" 
d="M84 -238h-4l-21 19v4q91 101 113 190q-26 0 -40.5 17.5t-14.5 42.5q0 29 22.5 50t50.5 21q25 0 41.5 -17t16.5 -42q0 -115 -164 -285z" />
    <glyph glyph-name="quotedblleft" unicode="&#x201c;" horiz-adv-x="567" 
d="M371 1047q-25 0 -41.5 17t-16.5 42q0 115 164 285h4l21 -19v-4q-91 -101 -113 -190q26 0 40.5 -17.5t14.5 -42.5q0 -29 -22 -50t-51 -21zM575 1047q-25 0 -41 17t-16 42q0 115 164 285h4l21 -19v-4q-91 -101 -113 -190q26 0 40.5 -17.5t14.5 -42.5q0 -29 -22 -50t-52 -21
z" />
    <glyph glyph-name="quotedblright" unicode="&#x201d;" horiz-adv-x="563" 
d="M338 1047h-4l-21 18v4q91 102 113 191q-26 0 -40.5 17t-14.5 42q0 29 22.5 50.5t50.5 21.5q25 0 41.5 -17.5t16.5 -42.5q0 -114 -164 -284zM543 1047h-4l-21 18v4q91 102 113 191q-26 0 -41 17t-15 42q0 29 23 50.5t51 21.5q25 0 41.5 -17.5t16.5 -42.5q0 -114 -164 -284
z" />
    <glyph glyph-name="quotedblbase" unicode="&#x201e;" horiz-adv-x="550" 
d="M80 -238h-4l-21 19v4q91 101 113 190q-26 0 -40.5 17.5t-14.5 42.5q0 29 22.5 50t50.5 21q25 0 41.5 -17t16.5 -42q0 -115 -164 -285zM285 -238h-4l-21 19v4q91 101 113 190q-26 0 -41 17.5t-15 42.5q0 29 22 50t52 21q25 0 41.5 -17t16.5 -42q0 -115 -164 -285z" />
    <glyph glyph-name="dagger" unicode="&#x2020;" horiz-adv-x="907" 
d="M633 883h321l-6 -37h-321l-211 -1165h-43l211 1165h-320l6 37h320l84 469h43z" />
    <glyph glyph-name="daggerdbl" unicode="&#x2021;" horiz-adv-x="907" 
d="M954 883l-6 -37h-321l-119 -660h321l-6 -36h-321l-86 -469h-43l86 469h-320l6 36h320l119 660h-320l6 37h320l84 469h43l-84 -469h321z" />
    <glyph glyph-name="bullet" unicode="&#x2022;" horiz-adv-x="630" 
d="M412 489q-53 0 -86 38t-27 89q6 52 48 90q41 37 93 37q53 0 86 -37q33 -38 27 -90t-48 -90q-41 -37 -93 -37z" />
    <glyph glyph-name="ellipsis" unicode="&#x2026;" horiz-adv-x="882" 
d="M237 -4q-33 -32 -72 -16t-36 55q0 29 21.5 50t50.5 21q25 0 41 -17t16 -42q0 -29 -21 -51zM489 -4q-33 -32 -72 -16t-36 55q0 29 21.5 50t50.5 21q25 0 41 -17t16 -42q0 -29 -21 -51zM741 -4q-33 -32 -72 -16t-36 55q0 29 21.5 50t50.5 21q25 0 41 -17t16 -42
q0 -29 -21 -51z" />
    <glyph glyph-name="perthousand" unicode="&#x2030;" horiz-adv-x="2111" 
d="M492 590q-100 0 -163 83t-63 222q0 183 88 322t228 139q98 0 160 -83q61 -82 61 -222q-1 -182 -88 -322q-85 -139 -223 -139zM195 0l-2 6l1243 1325h43l2 -6l-1243 -1325h-43zM494 631q122 0 196 128q72 127 72 294q0 121 -50 191.5t-137 70.5q-120 0 -194 -128
q-75 -129 -76 -292q0 -121 51 -192.5t138 -71.5zM1104 -25q-100 0 -162 83q-63 82 -63 223q0 182 88 321t227 139q98 0 160 -83q61 -82 61 -222q-1 -182 -88 -322q-85 -139 -223 -139zM1763 -25q-100 0 -162 83q-63 82 -63 223q0 182 88 321t227 139q98 0 160 -83t62 -222
q-1 -182 -88 -322q-87 -139 -224 -139zM1106 16q122 0 196 128q72 128 72 294q0 121 -50 191.5t-136 70.5q-120 0 -194 -128q-75 -129 -76 -291q0 -121 50.5 -193t137.5 -72zM1765 16q122 0 196 128q73 127 73 294q0 121 -50.5 191.5t-136.5 70.5q-120 0 -194 -128
q-75 -129 -76 -291q0 -121 50.5 -193t137.5 -72z" />
    <glyph glyph-name="guilsinglleft" unicode="&#x2039;" horiz-adv-x="542" 
d="M545 942l22 -29v-4l-309 -299l199 -293v-4l-29 -22h-6l-217 317l4 17l330 317h6z" />
    <glyph glyph-name="guilsinglright" unicode="&#x203a;" horiz-adv-x="542" 
d="M336 942h6l217 -317l-4 -17l-330 -317h-6l-22 26v5l311 301l-199 292v5z" />
    <glyph glyph-name="fraction" unicode="&#x2044;" horiz-adv-x="987" 
d="M-27 0l-2 6l1243 1325h43l3 -6l-1244 -1325h-43z" />
    <glyph glyph-name="Euro" unicode="&#x20ac;" horiz-adv-x="1409" 
d="M991 1356q145 0 266.5 -66t196.5 -182v-6l-33 -23h-6q-69 110 -183 172t-251 62q-213 0 -384 -141q-172 -143 -239 -359h721l4 -6l-20 -33h-717q-23 -98 -22 -184q0 -36 2 -64h698l4 -6l-20 -33h-676q29 -207 170 -338q142 -131 344 -131q138 0 266 63q127 61 217 171h6
l27 -23v-6q-95 -115 -231 -181q-135 -67 -283 -67q-226 0 -380 143q-152 142 -181 369h-123l-2 7l18 32h103q-2 24 -2 58q0 96 22 190h-84l-4 6l21 33h77q70 238 256 391q187 152 422 152z" />
    <glyph glyph-name="trademark" unicode="&#x2122;" horiz-adv-x="1363" 
d="M305 1331h475l-8 -41h-217l-113 -624h-43l113 624h-215zM1006 723l337 608h41l-53 -665h-43l43 561l-311 -561h-45l-111 571l-162 -571h-43l191 665h41z" />
    <glyph glyph-name="minus" unicode="&#x2212;" horiz-adv-x="1224" 
d="M268 647l6 37h924l-6 -37h-924z" />
    <glyph glyph-name="approxequal" unicode="&#x2248;" horiz-adv-x="1103" 
d="M928 752q-82 0 -232 36q-154 35 -219 35q-39 0 -87 -20q-45 -20 -71 -51h-4l-22 30l2 4q71 78 188 78q74 0 216 -35q139 -36 235 -36q90 0 143 71h4l23 -30l-2 -5q-71 -77 -174 -77zM877 469q-85 0 -233 36q-150 36 -216 36q-98 0 -160 -72h-4l-20 31v4q74 78 190 78
q75 0 215 -36t236 -36q86 0 143 72h4l21 -31v-4q-71 -78 -176 -78z" />
    <glyph glyph-name="notequal" unicode="&#x2260;" horiz-adv-x="1218" 
d="M1223 850l-6 -37h-355l-223 -293h526l-6 -37h-549l-229 -303h-39l-4 6l227 297h-329l6 37h352l223 293h-522l6 37h545l231 303h41l-2 -4l-227 -299h334z" />
    <glyph glyph-name="uniF8FF" unicode="&#xf8ff;" horiz-adv-x="2758" 
d="M1523 1210q-35 -36 -87 -36q-54 0 -87 36q-34 34 -34 88q0 52 34 86.5t87 34.5t86.5 -34.5t33.5 -86.5q0 -53 -33 -88zM365 670h-238q0 310 10 446l13 182h194q0 -5 10 -184q9 -170 11 -444zM938 965v170l238 73l8 -61h352q2 -28 4 -56.5t3 -40t1 -12.5q8 -107 8 -368
h-233q0 254 4 295h-117l4 -129q0 -2 4 -2q1 -1 19 -3q9 0 27 5l8 4v-148q-2 -8 -21 -18q-35 -15 -106 -17q-160 0 -160 131q0 7 2 103q0 13 0.5 25.5t0.5 21t0.5 15t0.5 9.5v3h-47zM756 670l-19 118q-26 -131 -151 -131q-181 0 -183 230q0 135 64.5 201.5t206.5 66.5
q119 0 178.5 -57t58.5 -172v-256h-155zM1831 670h-232q0 238 11 370q6 67 12 107h156l6 -51q6 -92 6 -101l4 21q46 139 162 139q81 0 115 -47.5t36 -159.5l4 -278h-229q0 31 2 111q2 78 2 81q0 51 -31 51q-35 0 -34 -51q0 -17 5 -82t5 -110zM2142 901q0 254 246 254
q141 0 195 -67q53 -68 53 -187q0 -116 -62.5 -180t-185.5 -64q-121 0 -183.5 64.5t-62.5 179.5zM664 817q49 0 49 62q0 55 -49 55q-43 0 -43 -55q0 -62 43 -62zM2388 817q49 0 49 62q0 55 -49 55q-47 0 -47 -55q0 -62 47 -62zM123 397v170l248 82l8 -59h338q-2 -52 -2 -107
q-2 -74 -2 -110q0 -52 32 -54q31 0 31 54v7q0 7 -0.5 18.5t-1 25t-0.5 30v29.5q-2 42 -2 107h217l6 -82q6 -78 6 -215q0 -147 -73.5 -214t-233.5 -67q-88 0 -149 21q-28 7 -41 22v170q10 -9 37 -20q44 -17 110 -19q81 0 125 37q20 17 23 37q-2 -2 -5.5 -4t-8.5 -5.5t-9 -6.5
q-33 -14 -94 -15q-190 0 -190 152v16h-93l4 -125q28 0 43 7l15 6v-152q-11 -11 -31 -18q-42 -15 -106 -17q-150 0 -150 131q0 13 0.5 34.5t1 43.5t1 42.5t1.5 34.5v13h-55zM1300 12h-260q0 290 11 420l12 158h160l6 -60q8 -46 8 -94q29 170 160 170q74 0 116.5 -60.5
t42.5 -168.5q0 -135 -67.5 -207t-192.5 -72q0 -12 2 -22q0 -2 1 -27.5t1 -36.5zM2011 281v-150q-4 -4 -35 -16q-46 -15 -112 -17q-135 0 -204 65.5t-69 182.5q0 260 252 260q107 0 168.5 -62t61.5 -171q0 -13 -7 -54l-4 -20h-245q1 -16 12 -25q25 -26 78 -24q52 0 80 14
q18 11 24 17zM2143 465q-23 23 -23 54t23 53t53 22t53 -22t23 -53t-23 -54t-53 -23t-53 23zM2153 476q18 -19 42.5 -19t43.5 19q18 18 18 42.5t-18 43.5q-19 18 -43.5 18t-42.5 -18q-19 -19 -19 -43.5t19 -42.5zM2167 481v76h33q16 0 23.5 -6t6.5 -19q0 -18 -16 -24l16 -27
h-18l-14 23h-15v-23h-16zM2183 518h17q9 0 12.5 6t0 12.5t-12.5 6.5h-17v-25zM1804 350h80v4v4q2 6 2 9q0 39 -37 39q-45 0 -45 -56zM1262 281l4 -17q28 5 39 10q40 23 38 64q0 43 -38 43q-46 0 -48 -62q0 -16 5 -38z" />
    <glyph glyph-name="J.aalt" horiz-adv-x="958" 
d="M541 1331h465l-179 -995q-29 -164 -139 -262q-110 -99 -270 -99q-113 0 -204 52q-92 51 -132 147l2 6l29 19h6q83 -182 299 -183q140 0 241 89q100 89 125 235l172 950h-424z" />
    <glyph glyph-name="Q.aalt" horiz-adv-x="1617" 
d="M1282 -307q-113 0 -217 104q-24 27 -46 49q-8 8 -19.5 20t-18.5 19t-12 11q-6 6 -20.5 19.5t-20.5 18.5q-45 41 -82 41q-272 0 -450 180q-179 179 -179 449q0 332 217 543q214 209 541 209q272 0 451 -179q178 -179 178 -450q0 -331 -218 -543q-179 -176 -452 -204
q30 -17 160 -150q94 -94 190 -94q77 0 133 37l6 -2l9 -29l-2 -6q-64 -43 -148 -43zM850 18q311 0 514 203q197 202 197 506q0 252 -168 419q-169 167 -422 167q-311 0 -514 -203q-197 -202 -197 -506q0 -252 168 -419q169 -167 422 -167z" />
    <glyph glyph-name="i.aalt" horiz-adv-x="409" 
d="M424 1206q-24 0 -41.5 16.5t-17.5 39.5q0 29 20.5 50t48.5 21q23 0 40.5 -16.5t17.5 -38.5q0 -29 -20.5 -50.5t-47.5 -21.5zM225 0h-41l185 1024h41z" />
    <glyph glyph-name="a.salt" 
d="M1180 666l63 358h41l-184 -1024h-41l43 242q-146 -266 -459 -267q-199 0 -328 138q-129 136 -129 346q0 245 157 417q158 173 396 173q170 0 291 -106t150 -277zM643 14q223 0 365 157q141 157 141 390q0 194 -113 322q-114 127 -297 127q-217 0 -363 -162
q-147 -162 -147 -385q0 -194 116 -322q115 -127 298 -127z" />
    <glyph glyph-name="aacute.aalt" 
d="M1022 1395l-367 -248h-4l-16 22v5l358 258h4l25 -33v-4zM1180 666l63 358h41l-184 -1024h-41l43 242q-146 -266 -459 -267q-199 0 -328 138q-129 136 -129 346q0 245 157 417q158 173 396 173q170 0 291 -106t150 -277zM643 14q223 0 365 157q141 157 141 390
q0 194 -113 322q-114 127 -297 127q-217 0 -363 -162q-147 -162 -147 -385q0 -194 116 -322q115 -127 298 -127z" />
    <glyph glyph-name="abreve.aalt" 
d="M823 1171q-102 0 -166 64q-65 64 -61 166h43q-2 -86 50 -138q53 -53 134 -53q82 0 146.5 51.5t93.5 139.5h43q-33 -104 -108 -167t-175 -63zM1180 666l63 358h41l-184 -1024h-41l43 242q-146 -266 -459 -267q-199 0 -328 138q-129 136 -129 346q0 245 157 417
q158 173 396 173q170 0 291 -106t150 -277zM643 14q223 0 365 157q141 157 141 390q0 194 -113 322q-114 127 -297 127q-217 0 -363 -162q-147 -162 -147 -385q0 -194 116 -322q115 -127 298 -127z" />
    <glyph glyph-name="acircumflex.aalt" 
d="M844 1325l-279 -160h-4l-16 25l2 4l293 182h12l229 -182l-2 -4l-20 -19h-4zM1180 666l63 358h41l-184 -1024h-41l43 242q-146 -266 -459 -267q-199 0 -328 138q-129 136 -129 346q0 245 157 417q158 173 396 173q170 0 291 -106t150 -277zM643 14q223 0 365 157
q141 157 141 390q0 194 -113 322q-114 127 -297 127q-217 0 -363 -162q-147 -162 -147 -385q0 -194 116 -322q115 -127 298 -127z" />
    <glyph glyph-name="adieresis.aalt" 
d="M692 1204q-24 0 -40.5 16t-16.5 40q0 31 21.5 53t52.5 22q23 0 40 -16t17 -39q0 -31 -21.5 -53.5t-52.5 -22.5zM946 1204q-24 0 -40.5 16t-16.5 40q0 31 21.5 53t52.5 22q23 0 40 -16t17 -39q0 -31 -21.5 -53.5t-52.5 -22.5zM1180 666l63 358h41l-184 -1024h-41l43 242
q-146 -266 -459 -267q-199 0 -328 138q-129 136 -129 346q0 245 157 417q158 173 396 173q170 0 291 -106t150 -277zM643 14q223 0 365 157q141 157 141 390q0 194 -113 322q-114 127 -297 127q-217 0 -363 -162q-147 -162 -147 -385q0 -194 116 -322q115 -127 298 -127z
" />
    <glyph glyph-name="agrave.aalt" 
d="M1022 1169l-16 -22h-5l-366 248v4l24 33h5l358 -258v-5zM1180 666l63 358h41l-184 -1024h-41l43 242q-146 -266 -459 -267q-199 0 -328 138q-129 136 -129 346q0 245 157 417q158 173 396 173q170 0 291 -106t150 -277zM643 14q223 0 365 157q141 157 141 390
q0 194 -113 322q-114 127 -297 127q-217 0 -363 -162q-147 -162 -147 -385q0 -194 116 -322q115 -127 298 -127z" />
    <glyph glyph-name="amacron.aalt" 
d="M555 1272h543l-6 -37h-543zM1180 666l63 358h41l-184 -1024h-41l43 242q-146 -266 -459 -267q-199 0 -328 138q-129 136 -129 346q0 245 157 417q158 173 396 173q170 0 291 -106t150 -277zM643 14q223 0 365 157q141 157 141 390q0 194 -113 322q-114 127 -297 127
q-217 0 -363 -162q-147 -162 -147 -385q0 -194 116 -322q115 -127 298 -127z" />
    <glyph glyph-name="aogonek.aalt" 
d="M1135 -291l4 -2l6 -24l-4 -7q-52 -23 -117 -23q-66 2 -106 37q-41 36 -41 93q0 138 184 229l41 230q-146 -266 -459 -267q-199 0 -328 138q-129 136 -129 346q0 245 157 417q158 173 396 173q170 0 291 -106t150 -277l63 358h41l-184 -1024q-16 -4 -62 -35
q-30 -18 -56 -43q-26 -24 -44 -60t-18 -73q0 -45 30.5 -71.5t79.5 -26.5q60 0 105 18zM643 14q223 0 365 157q141 157 141 390q0 194 -113 322q-114 127 -297 127q-217 0 -363 -162q-147 -162 -147 -385q0 -194 116 -322q115 -127 298 -127z" />
    <glyph glyph-name="aring.aalt" 
d="M809 1133q-59 0 -99 40q-40 39 -40 97q0 76 53 127t129 51q59 0 99 -40t40 -97q0 -76 -53 -127q-52 -51 -129 -51zM846 1411q-61 0 -97 -43q-36 -44 -36 -96q0 -44 28.5 -73.5t75.5 -29.5q61 0 97 43q36 44 36 97q0 44 -28 73t-76 29zM1180 666l63 358h41l-184 -1024h-41
l43 242q-146 -266 -459 -267q-199 0 -328 138q-129 136 -129 346q0 245 157 417q158 173 396 173q170 0 291 -106t150 -277zM643 14q223 0 365 157q141 157 141 390q0 194 -113 322q-114 127 -297 127q-217 0 -363 -162q-147 -162 -147 -385q0 -194 116 -322
q115 -127 298 -127z" />
    <glyph glyph-name="atilde.aalt" 
d="M563 1229h-10l-4 4l8 43q43 63 143 63q52 0 139 -34q88 -35 128 -35q92 0 131 69h8l4 -4l-8 -43q-44 -63 -146 -63q-39 0 -126 35q-84 34 -136 34q-92 2 -131 -69zM1180 666l63 358h41l-184 -1024h-41l43 242q-146 -266 -459 -267q-199 0 -328 138q-129 136 -129 346
q0 245 157 417q158 173 396 173q170 0 291 -106t150 -277zM643 14q223 0 365 157q141 157 141 390q0 194 -113 322q-114 127 -297 127q-217 0 -363 -162q-147 -162 -147 -385q0 -194 116 -322q115 -127 298 -127z" />
    <glyph glyph-name="ae.aalt" horiz-adv-x="2109" 
d="M1706 1049q211 0 333 -149q122 -151 85 -363q0 -17 -8 -41h-928q0 -220 123 -351t317 -131q264 0 408 183h6l22 -21v-6q-158 -195 -436 -195q-181 0 -306 106q-126 105 -159 277l-65 -358h-41l43 242q-146 -266 -459 -267q-199 0 -328 138q-129 136 -129 346
q0 245 157 417q158 173 396 173q162 0 279 -96q117 -97 153 -255l60 326h41l-47 -258q71 134 197 208q126 75 286 75zM641 14q223 0 365 157q141 157 141 390q0 195 -114 322q-115 127 -296 127q-217 0 -363 -162q-147 -162 -147 -385q0 -194 116 -322q115 -127 298 -127z
M1192 537h889q33 210 -82 346q-106 127 -293 127q-196 0 -332 -121q-158 -131 -182 -352z" />
    <glyph glyph-name="aeacute.aalt" horiz-adv-x="2109" 
d="M1503 1395l-366 -248h-4l-17 22v5l359 258h4l24 -33v-4zM1706 1049q211 0 333 -149q122 -151 85 -363q0 -17 -8 -41h-928q0 -220 123 -351t317 -131q264 0 408 183h6l22 -21v-6q-158 -195 -436 -195q-181 0 -306 106q-126 105 -159 277l-65 -358h-41l43 242
q-146 -266 -459 -267q-199 0 -328 138q-129 136 -129 346q0 245 157 417q158 173 396 173q162 0 279 -96q117 -97 153 -255l60 326h41l-47 -258q71 134 197 208q126 75 286 75zM641 14q223 0 365 157q141 157 141 390q0 195 -114 322q-115 127 -296 127q-217 0 -363 -162
q-147 -162 -147 -385q0 -194 116 -322q115 -127 298 -127zM1192 537h889q33 210 -82 346q-106 127 -293 127q-196 0 -332 -121q-158 -131 -182 -352z" />
    <glyph glyph-name="f_t.dlig" horiz-adv-x="1150" 
d="M1286 985h-338l-131 -725q-23 -117 22.5 -181.5t149.5 -64.5q88 0 152 49l6 -2l12 -24l-2 -6q-78 -54 -174 -56q-125 0 -178 73t-29 208l133 729h-467l-176 -985h-41l176 985h-180l6 39h183l6 37q33 179 128 268q94 88 224 88q68 0 123 -24v-7l-19 -26l-6 -2
q-48 20 -104 20q-118 0 -198 -79.5t-107 -237.5l-6 -37h464l60 326l33 6l8 -4l-60 -328h336z" />
    <glyph glyph-name="ordfeminine.aalt" horiz-adv-x="919" 
d="M936 739l4 -2l4 -24l-2 -6q-24 -15 -53 -17q-35 0 -52.5 22.5t-11.5 59.5l13 66q-112 -150 -291 -150q-119 0 -193 78q-75 78 -75 197q0 161 108 277q106 114 262 114q89 0 157 -50.5t93 -132.5l31 168h39l-103 -567q-6 -43 33 -43q18 0 37 10zM549 727q135 0 232 103
q96 102 96 243q0 103 -63 174q-64 70 -169 70q-133 0 -229 -101q-97 -101 -97 -245q0 -103 63 -174q63 -70 167 -70z" />
    <glyph glyph-name="ampersand.aalt" horiz-adv-x="1150" 
d="M991 698h232l-9 -43h-172q62 -85 64 -211q0 -201 -146 -335q-148 -134 -372 -134q-188 0 -309 103q-121 102 -121 258q0 167 109 286q108 118 282 162q-75 31 -116.5 93t-41.5 143q0 150 105 243q104 93 274 93q209 0 326 -168v-6l-33 -23h-4q-106 154 -291 154
q-148 0 -239 -81q-93 -81 -93 -210q0 -95 68 -157t182 -62h94l-8 -43h-78q-209 0 -350 -120t-141 -304q0 -140 108 -228q107 -90 281 -90q202 0 335 121q134 122 134 303q0 129 -78 213z" />
    <glyph glyph-name="glyph370" horiz-adv-x="0" 
d="M-18 1053l104 323l6 4h41v-4l-117 -323l-6 -4h-28v4z" />
    <glyph glyph-name="acute.aalt" horiz-adv-x="532" 
d="M328 1174l305 225h4l27 -31v-4l-316 -215h-4l-16 20v5z" />
    <glyph glyph-name="breve.aalt" horiz-adv-x="724" 
d="M738 1209q-76 -64 -170 -64q-95 0 -155 65q-61 63 -59 164h43q-2 -84 49 -136q49 -52 127 -52q76 0 138.5 51t91.5 137h41q-32 -103 -106 -165z" />
    <glyph glyph-name="caron.aalt" horiz-adv-x="702" 
d="M846 1376h4l14 -24v-4l-301 -183h-8l-233 183v4l18 20h4l221 -153z" />
    <glyph glyph-name="circumflex.aalt" horiz-adv-x="702" 
d="M596 1380h8l234 -182v-4l-21 -23h-4l-219 156l-281 -158h-4l-14 25v4z" />
    <glyph glyph-name="dieresis.aalt" horiz-adv-x="628" 
d="M385 1202q-24 0 -40.5 16.5t-16.5 38.5q0 31 21.5 53.5t51.5 22.5q23 0 40.5 -16.5t17.5 -38.5q0 -31 -21.5 -53.5t-52.5 -22.5zM684 1202q-24 0 -41.5 16.5t-17.5 38.5q0 31 21.5 53.5t51.5 22.5q25 0 42.5 -16.5t17.5 -38.5q0 -31 -21.5 -53.5t-52.5 -22.5z" />
    <glyph glyph-name="dotaccent.aalt" horiz-adv-x="286" 
d="M365 1198q-24 0 -41 16.5t-17 38.5q0 31 21.5 53.5t52.5 22.5q23 0 40 -16.5t17 -38.5q0 -31 -21.5 -53.5t-51.5 -22.5z" />
    <glyph glyph-name="grave.aalt" horiz-adv-x="534" 
d="M356 1399h4l306 -225v-5l-17 -20h-4l-315 215v4z" />
    <glyph glyph-name="hungarumlaut.aalt" horiz-adv-x="575" 
d="M254 1126l213 295h51l2 -4l-229 -295h-35zM455 1126l213 295h51l2 -4l-229 -295h-35z" />
    <glyph glyph-name="macron.aalt" horiz-adv-x="710" 
d="M297 1212l8 37h551l-8 -37h-551z" />
    <glyph glyph-name="ring.aalt" horiz-adv-x="462" 
d="M438 1116q-59 0 -99 40t-40 97q0 75 54 128q52 51 128 51q60 0 100 -40t40 -98q0 -76 -53 -127q-54 -51 -130 -51zM446 1153q61 0 98 43q36 44 36 96q0 44 -28.5 73.5t-76.5 29.5q-61 0 -97 -43q-36 -44 -36 -97q0 -44 28 -73t76 -29z" />
    <glyph glyph-name="tilde.aalt" horiz-adv-x="774" 
d="M823 1205q-42 -19 -86 -19q-45 0 -129 37t-139 37q-86 0 -133 -74h-10l-4 4l10 47q47 68 145 68q55 0 139 -37t129 -37q86 0 134 74h12l2 -5l-8 -47q-19 -28 -62 -48z" />
    <glyph glyph-name="glyph382" horiz-adv-x="1298" 
d="M313 1450h-4l-12 25v4l389 225h4l17 -35l-2 -4zM1184 1450h-4l-13 25v4l389 225h5l16 -35l-2 -4zM252 0h-43l240 1331h43zM1122 340l178 991h43l-178 -995q-29 -164 -139 -262q-111 -99 -270 -99q-113 0 -204 52q-92 51 -132 147l2 6l29 19h6q83 -182 299 -183
q140 0 241 89q100 89 125 235z" />
    <glyph glyph-name="glyph383" horiz-adv-x="1404" 
d="M313 1450h-4l-12 25v4l389 225h4l17 -35l-2 -4zM1067 1450h-4l-12 25v4l389 225h4l16 -35l-2 -4zM252 0h-43l240 1331h43zM987 1331h465l-178 -995q-29 -164 -139 -262q-111 -99 -271 -99q-113 0 -204 52q-92 51 -132 147l2 6l29 19h6q83 -182 299 -183q140 0 241 89
q99 89 126 235l172 950h-424z" />
    <glyph glyph-name="glyph384" horiz-adv-x="845" 
d="M260 1145h-4l-14 24v5l362 258h4l23 -35v-4zM700 1145h-2l-14 24v5l363 258h4l22 -35v-4zM225 0h-41l185 1024h41zM444 -328h-6l-12 25v6q87 53 133 119q48 70 70 186l182 1016h41l-184 -1020q-22 -127 -76 -201q-52 -70 -148 -131z" />
    <glyph glyph-name="glyph385" horiz-adv-x="1288" 
d="M190 -100h-47l-2 6l1280 1544h47l2 -6z" />
    <glyph glyph-name="glyph386" horiz-adv-x="1054" 
d="M143 59h-45l-2 7l1065 1232h45l2 -6z" />
    <glyph glyph-name="glyph387" horiz-adv-x="743" 
d="M850 825l-8 -34l-676 -310l-4 4l6 35l676 309z" />
    <glyph glyph-name="glyph388" horiz-adv-x="600" 
d="M694 731l-520 -248l-6 4l4 29l522 248l4 -4z" />
    <glyph glyph-name="glyph389" horiz-adv-x="1519" 
d="M358 991l9 41h1181l-8 -41h-1182z" />
    <glyph glyph-name="glyph390" horiz-adv-x="696" 
d="M709 643h-502l8 37h502z" />
    </font>
</defs>
</svg>
