<?xml version="1.0" standalone="no"?>
<!DOCTYPE svg PUBLIC "-//W3C//DTD SVG 1.1//EN" "http://www.w3.org/Graphics/SVG/1.1/DTD/svg11.dtd" >
<svg xmlns="http://www.w3.org/2000/svg" xmlns:xlink="http://www.w3.org/1999/xlink" version="1.1">
<metadata>
Created by FontForge 20190801 at Tue Sep 12 22:01:47 2017
 By Jimmy Wärting
Copyright (c) 2017 by Enrique Hernandez Vasquez. All rights reserved.
</metadata>
<defs>
<font id="IsidoraSans-BlackItalic" horiz-adv-x="618" >
  <font-face 
    font-family="Isidora Sans Black Italic"
    font-weight="900"
    font-style="italic"
    font-stretch="normal"
    units-per-em="2048"
    panose-1="0 0 10 0 0 0 0 0 0 0"
    ascent="1638"
    descent="-410"
    x-height="1024"
    cap-height="1331"
    bbox="-514 -618 2755 2003"
    underline-thickness="0"
    underline-position="0"
    unicode-range="U+0020-FB02"
  />
<missing-glyph horiz-adv-x="858" 
d="M160 1397h545v-1716h-545v1716zM571 1225v57h-282v-57h110v-64h-112v-55h284v55h-112v64h112zM459 940v121h-172v-178h284v57h-112zM344 1001h55v-61h-55v61zM571 778v58h-284v-58h112v-63h-112v-56h172v119h112zM571 561v172h-57v-115h-227v-57h284zM571 330v192h-172
v-94h60v39h55v-82h-170v137h-57v-192h284zM571 33v192h-284v-192h284zM344 170h170v-82h-170v82zM571 -63v57h-284v-57h121l-121 -82v-56h284v56h-174l119 82h55z" />
    <glyph glyph-name="uniFB01" unicode="fi" horiz-adv-x="1488" 
d="M1386 1106q-74 0 -127 53t-53 127q0 94 69 160q68 65 163 65q74 0 127 -53t53 -127q0 -92 -70 -158q-70 -67 -162 -67zM809 1024h754l-185 -1024h-401l133 737h-352l-133 -737h-402l133 737h-174l51 287h175q38 206 189 324t357 118q124 0 215 -45l13 -26l-107 -236
l-33 -18q-34 25 -84 24q-59 0 -99 -38.5t-50 -102.5z" />
    <glyph glyph-name="uniFB02" unicode="fl" horiz-adv-x="1406" 
d="M1186 1409l340 29l26 -19l-256 -1419h-401l201 1112q-39 53 -123 53q-64 0 -108 -39t-56 -102h180l-53 -287h-178l-133 -737h-402l133 737h-174l51 287h175q38 204 173 323q137 119 330 119q137 0 275 -57z" />
    <glyph glyph-name=".notdef" horiz-adv-x="858" 
d="M160 1397h545v-1716h-545v1716zM571 1225v57h-282v-57h110v-64h-112v-55h284v55h-112v64h112zM459 940v121h-172v-178h284v57h-112zM344 1001h55v-61h-55v61zM571 778v58h-284v-58h112v-63h-112v-56h172v119h112zM571 561v172h-57v-115h-227v-57h284zM571 330v192h-172
v-94h60v39h55v-82h-170v137h-57v-192h284zM571 33v192h-284v-192h284zM344 170h170v-82h-170v82zM571 -63v57h-284v-57h121l-121 -82v-56h284v56h-174l119 82h55z" />
    <glyph glyph-name="glyph1" horiz-adv-x="0" 
 />
    <glyph glyph-name="glyph2" horiz-adv-x="681" 
 />
    <glyph glyph-name="space" unicode=" " horiz-adv-x="403" 
 />
    <glyph glyph-name="exclam" unicode="!" horiz-adv-x="602" 
d="M528 543h-258l-20 24l102 781l29 24h334l20 -24l-178 -781zM328 -25q-90 0 -150 60q-61 58 -61 147q0 104 78 182q77 78 182 78q89 0 151 -59q60 -59 60 -147q0 -104 -78 -182q-78 -79 -182 -79z" />
    <glyph glyph-name="quotedbl" unicode="&#x22;" horiz-adv-x="833" 
d="M467 776h-205l47 555h309zM852 776h-205l47 555h312z" />
    <glyph glyph-name="numbersign" unicode="#" horiz-adv-x="1392" 
d="M500 0h-297l106 336h-192l65 205h195l78 250h-195l66 204h194l105 336h299l-109 -336h244l104 336h295l-106 -336h161l-65 -204h-162l-78 -250h162l-65 -205h-162l-107 -336h-295l107 336h-242zM750 791l-78 -250h239l80 250h-241z" />
    <glyph glyph-name="dollar" unicode="$" horiz-adv-x="1091" 
d="M748 1008q-55 0 -88 -20.5t-33 -55.5q0 -63 135 -111q85 -31 140 -53q47 -19 104 -59q55 -38 78.5 -92t23.5 -134q0 -161 -100 -262q-101 -102 -263 -137l-26 -152h-289l27 146q-117 20 -210 70.5t-141 119.5l7 29l188 192h29q46 -52 127 -92q84 -41 164 -41
q56 0 92.5 21t36.5 57q0 34 -36.5 56t-127.5 51q-143 47 -230 123q-88 75 -88 213q0 142 100 248q99 107 261 141l26 149h289l-26 -151q204 -44 278 -158l-4 -29l-195 -190h-28q-91 121 -221 121z" />
    <glyph glyph-name="percent" unicode="%" horiz-adv-x="1933" 
d="M543 586q-141 0 -230 96q-90 96 -90 256q0 200 119 331q118 130 287 130q141 0 230 -96q89 -98 89 -254q0 -202 -118 -332q-119 -131 -287 -131zM281 -20l-13 28l1303 1364h293l14 -29l-1303 -1363h-294zM565 807q51 0 96 66q44 65 44 159q0 66 -27 106t-72 40
q-58 0 -99 -63q-40 -64 -40 -161q0 -68 26.5 -107.5t71.5 -39.5zM1520 -47q-142 0 -230 96q-90 96 -90 256q0 200 119 331q118 130 287 130q142 0 230 -96q89 -98 89 -254q0 -202 -118 -332q-119 -131 -287 -131zM1542 174q52 0 95 66q44 65 44 159q0 68 -26.5 107t-71.5 39
q-59 0 -99 -63q-40 -64 -40 -160q0 -68 26.5 -108t71.5 -40z" />
    <glyph glyph-name="ampersand" unicode="&#x26;" horiz-adv-x="1431" 
d="M1444 244l24 -13l54 -196l-15 -29q-125 -92 -258 -92q-124 0 -231 74q-140 -54 -309 -56q-263 0 -423 126q-161 126 -161 337q0 141 76 271q75 129 211 217q-5 18 -11 36.5t-6 20.5q-17 68 -6 131q17 155 139 255q124 101 297 101q132 0 232 -58q101 -59 141 -148l-4 -29
l-197 -135h-28q-16 47 -52 75.5t-81 28.5q-54 0 -91 -37q-38 -38 -38 -94q0 -60 38 -127l314 -545q37 62 37 142q0 62 -18 120q-20 59 -40 85l9 26l229 111h29q88 -115 88 -316q0 -199 -113 -342q104 6 164 60zM475 457q0 -104 77 -176q76 -72 208 -72h22l-247 422
q-60 -77 -60 -174z" />
    <glyph glyph-name="quotesingle" unicode="'" horiz-adv-x="446" 
d="M467 776h-205l47 555h309z" />
    <glyph glyph-name="parenleft" unicode="(" horiz-adv-x="741" 
d="M530 438q0 -186 46 -366q44 -181 122 -310h-389q-75 133 -115 311q-42 181 -42 361q0 296 121 572q119 274 329 505h410q-215 -224 -348 -502q-134 -282 -134 -571z" />
    <glyph glyph-name="parenright" unicode=")" horiz-adv-x="739" 
d="M371 -238h-412q215 224 348 501q133 276 133 566q0 187 -45 371q-45 183 -123 311h392q73 -131 113 -310t40 -363q0 -294 -119 -570q-120 -277 -327 -506z" />
    <glyph glyph-name="asterisk" unicode="*" horiz-adv-x="849" 
d="M645 633h-213l33 184l-172 -92l-72 186l170 93l-137 92l139 186l137 -92l35 182h213l-33 -182l168 92l76 -186l-172 -92l137 -93l-141 -186l-135 92z" />
    <glyph glyph-name="plus" unicode="+" horiz-adv-x="1173" 
d="M887 756h370l-53 -295h-368l-70 -383h-330l70 383h-371l53 295h369l70 385h329z" />
    <glyph glyph-name="comma" unicode="," horiz-adv-x="600" 
d="M211 -352h-29l-84 90v24q142 124 174 215q-78 12 -126 70q-48 57 -48 135q0 104 78 182t182 78q92 0 152 -64q59 -65 59 -161q0 -313 -358 -569z" />
    <glyph glyph-name="hyphen" unicode="-" horiz-adv-x="1024" 
d="M180 461l56 307h829l-55 -307h-830z" />
    <glyph glyph-name="period" unicode="." horiz-adv-x="573" 
d="M301 -25q-90 0 -150 60q-61 58 -61 147q0 104 78 182t182 78q89 0 151 -59q60 -59 60 -147q0 -104 -78 -182q-78 -79 -182 -79z" />
    <glyph glyph-name="slash" unicode="/" horiz-adv-x="1239" 
d="M16 -80l1078 1522h358l12 -29l-1075 -1522h-358z" />
    <glyph glyph-name="zero" unicode="0" horiz-adv-x="1347" 
d="M682 -47q-229 0 -369 158q-141 157 -141 415q0 380 211 628q211 249 528 249q229 0 369 -158q139 -157 139 -416q0 -379 -210 -627q-210 -249 -527 -249zM737 283q121 0 202 151q81 150 81 365q0 123 -46 199q-46 75 -120 75q-121 0 -202 -150q-81 -151 -81 -366
q0 -124 46 -198q46 -76 120 -76z" />
    <glyph glyph-name="one" unicode="1" horiz-adv-x="870" 
d="M213 1059l57 317h693l-250 -1396h-402l195 1079h-293z" />
    <glyph glyph-name="two" unicode="2" horiz-adv-x="1161" 
d="M940 553q-78 -71 -319 -250h520l-60 -323h-1038l51 282q119 105 311 251q185 141 252 200q172 151 172 260q0 55 -35.5 87t-97.5 32q-139 0 -317 -193h-29l-133 205l4 29q275 270 574 270q196 0 311 -100t115 -263q0 -235 -281 -487z" />
    <glyph glyph-name="three" unicode="3" horiz-adv-x="1163" 
d="M995 700q178 -109 179 -299q0 -99 -51.5 -189.5t-143.5 -152.5q-160 -106 -397 -106q-177 0 -317 67q-143 66 -210 175l4 28l209 197h29q47 -70 126 -114q80 -44 157 -44q78 0 130 43t52 113q0 69 -55 106t-146 37h-143l49 266h154q78 0 137 41t59 105q0 54 -41.5 87.5
t-111.5 33.5q-132 0 -248 -95h-29l-133 207l4 29q214 168 496 168q210 0 337 -99q128 -101 128 -257q0 -105 -59.5 -197.5t-164.5 -149.5z" />
    <glyph glyph-name="four" unicode="4" horiz-adv-x="1247" 
d="M1110 539h170l-53 -301h-170l-47 -258h-408l47 258h-577l49 274l778 864h361zM782 819l-239 -280h190z" />
    <glyph glyph-name="five" unicode="5" horiz-adv-x="1212" 
d="M756 928q217 0 348 -116t131 -312q0 -289 -223 -439q-160 -109 -385 -108q-174 0 -323 65q-153 65 -220 168l2 29l205 195h28q51 -66 134 -107q84 -41 159 -41q91 0 156 53q63 57 63 146q0 76 -51 121t-137 45q-122 0 -201 -76h-28l-224 108l228 717h858l-57 -317h-568
l-47 -152q72 21 152 21z" />
    <glyph glyph-name="six" unicode="6" horiz-adv-x="1202" 
d="M778 928q222 0 352 -117t130 -315q0 -240 -165 -391q-166 -152 -431 -152q-236 0 -381 130q-146 131 -146 349q0 305 293 625q183 199 438 407h29l174 -209l-2 -28q-71 -49 -260 -201q-83 -69 -129 -113q52 15 98 15zM682 254q80 0 133 59t53 146q0 75 -42 121.5
t-111 46.5q-80 0 -134 -59q-55 -59 -55 -150q0 -74 43 -119t113 -45z" />
    <glyph glyph-name="seven" unicode="7" horiz-adv-x="1067" 
d="M281 1376h1001l-41 -227l-682 -1169h-385l-10 28l620 1045h-561z" />
    <glyph glyph-name="eight" unicode="8" horiz-adv-x="1257" 
d="M1278 1040q-4 -207 -160 -313q158 -107 154 -297q-6 -222 -180 -350q-173 -127 -433 -127q-239 0 -388 111q-148 109 -146 288q2 135 71.5 239.5t196.5 164.5q-91 86 -86 223q2 186 149 305q146 119 371 119q202 0 329 -101q126 -102 122 -262zM801 1128q-60 -1 -103 -46
q-43 -43 -41 -105q0 -55 36 -89t89 -32q61 1 103 47q41 45 39 111q-2 52 -36 84t-87 30zM692 238q84 1 137 61q52 58 52 147q-2 74 -50 119q-50 45 -122 41q-84 -5 -138 -64q-55 -60 -53 -149q1 -71 51 -115q51 -44 123 -40z" />
    <glyph glyph-name="nine" unicode="9" horiz-adv-x="1198" 
d="M801 1403q230 0 369 -128q137 -128 137 -337q0 -325 -322 -696q-148 -165 -350 -351h-29l-194 209l2 29q106 84 227 205q81 92 88 102q-34 -8 -72 -8q-217 0 -345 114q-128 113 -128 308q0 240 175 397q174 156 442 156zM729 729q80 0 137 60q56 59 56 149
q0 73 -42.5 118.5t-111.5 45.5q-82 0 -136 -60q-54 -62 -54 -153q0 -72 41.5 -116t109.5 -44z" />
    <glyph glyph-name="colon" unicode=":" horiz-adv-x="614" 
d="M430 582q-89 0 -150 59q-61 58 -61 147q0 104 78 183q78 78 182 78q89 0 151 -59q60 -60 60 -148q0 -104 -78 -182t-182 -78zM322 -25q-90 0 -150 60q-61 58 -61 147q0 104 78 182q77 78 182 78q89 0 151 -59q60 -59 60 -147q0 -104 -78 -182q-78 -79 -182 -79z" />
    <glyph glyph-name="semicolon" unicode=";" horiz-adv-x="628" 
d="M438 582q-89 0 -150 59q-61 58 -61 147q0 104 78 183q78 78 182 78q89 0 151 -59q60 -60 60 -148q0 -104 -78 -182t-182 -78zM225 -352h-28l-84 90v24q142 124 174 215q-78 12 -126 70q-48 57 -48 135q0 104 78 182q77 78 182 78q92 0 152 -64q59 -65 59 -161
q0 -312 -359 -569z" />
    <glyph glyph-name="less" unicode="&#x3c;" horiz-adv-x="1024" 
d="M1126 1290l19 -18l-53 -330l-519 -293l412 -280l-57 -312l-27 -18l-751 504l38 225z" />
    <glyph glyph-name="equal" unicode="=" horiz-adv-x="1255" 
d="M227 684l47 266h1049l-49 -266h-1047zM154 279l47 266h1048l-49 -266h-1046z" />
    <glyph glyph-name="greater" unicode="&#x3e;" horiz-adv-x="1026" 
d="M336 1272l26 18l750 -522l-39 -225l-936 -504l-18 18l57 332l514 283l-407 291z" />
    <glyph glyph-name="question" unicode="?" horiz-adv-x="1009" 
d="M739 457h-340l11 53q17 85 118 195q17 20 85 75q67 53 103 96q38 44 38 85q0 37 -26 59t-71 22q-43 0 -89.5 -27.5t-75.5 -74.5l-31 -12l-228 96l-2 29q72 133 212 217q142 86 311 86q165 0 265 -82q101 -83 101 -211q0 -73 -38 -144q-39 -73 -81 -115q-56 -56 -106 -100
q-58 -51 -86 -83q-54 -63 -61 -113zM489 -66q-82 0 -136 54q-54 56 -54 135q0 94 71 165q70 70 165 70q82 0 136 -54t54 -134q0 -94 -71 -165t-165 -71z" />
    <glyph glyph-name="at" unicode="@" horiz-adv-x="1839" 
d="M891 -227q-323 0 -538 196q-216 198 -216 498q0 401 283 675q282 273 700 273q325 0 546 -185q220 -186 220 -464q0 -264 -142 -409q-143 -146 -362 -146q-200 0 -243 129q-130 -115 -273 -115q-136 0 -234 92q-97 91 -97 228q0 188 125 313t294 125q150 0 242 -92l12 72
h258l-71 -396q-13 -55 -6 -98t59 -43q75 0 130 78q56 79 56 239q0 210 -157 334q-158 125 -381 125q-302 0 -504 -204q-203 -206 -203 -511q0 -221 161 -361t396 -140q177 0 361 106h28l68 -149l-6 -29q-211 -141 -506 -141zM958 453q59 0 101 52q41 53 41 130q0 51 -31 85
t-76 34q-62 0 -102 -52q-41 -53 -41 -129q0 -53 30.5 -86.5t77.5 -33.5z" />
    <glyph glyph-name="A" unicode="A" horiz-adv-x="1437" 
d="M834 1331h253l365 -1300l-25 -31h-401l-39 201h-461l-114 -201h-400l-12 31zM872 803l-192 -336h256z" />
    <glyph glyph-name="B" unicode="B" horiz-adv-x="1300" 
d="M1133 709q85 -38 136.5 -112t51.5 -173q0 -195 -147 -309q-148 -115 -392 -115h-651l240 1331h604q175 0 275 -85t100 -220q0 -108 -57 -189.5t-160 -127.5zM956 944q0 45 -32.5 74t-83.5 29h-123l-45 -248h145q65 0 102 39t37 106zM580 285h186q77 0 122.5 43.5
t45.5 113.5q0 51 -36.5 83t-96.5 32h-172z" />
    <glyph glyph-name="C" unicode="C" horiz-adv-x="1357" 
d="M813 -25q-282 0 -463 175q-182 174 -182 448q0 208 99 380q98 173 268 271q178 105 419 107q166 0 312 -78q144 -77 227 -199l-6 -28l-285 -211h-28q-39 61 -110 105t-155 44q-135 0 -227 -92q-104 -104 -104 -262q0 -130 80 -212q79 -81 200 -81q155 0 285 127h28
l207 -209l-4 -29q-256 -256 -561 -256z" />
    <glyph glyph-name="D" unicode="D" horiz-adv-x="1495" 
d="M369 1331h622q273 0 424 -149q150 -150 150 -402q0 -346 -220 -563t-585 -217h-631zM592 328h203q154 0 253 111q99 110 99 298q0 126 -70 196q-71 71 -184 71h-178z" />
    <glyph glyph-name="E" unicode="E" horiz-adv-x="1214" 
d="M1366 1331l-59 -327h-592l-33 -185h451l-58 -307h-448l-35 -184h600l-59 -328h-1004l240 1331h997z" />
    <glyph glyph-name="F" unicode="F" horiz-adv-x="1153" 
d="M1354 1331l-60 -327h-579l-39 -216h432l-57 -307h-430l-86 -481h-406l240 1331h985z" />
    <glyph glyph-name="G" unicode="G" horiz-adv-x="1513" 
d="M825 -25q-288 0 -473 175q-186 174 -186 450q0 206 100 378q100 174 271 271q180 105 432 107q170 0 314 -71q141 -70 218 -189l-6 -29l-283 -211h-28q-91 133 -262 133q-140 0 -238 -92q-109 -102 -109 -260q0 -133 84 -214t213 -81t211 70q38 34 72 94h-289l52 287h647
l24 -25q-6 -55 -14 -115q-56 -326 -260 -503q-199 -175 -490 -175z" />
    <glyph glyph-name="H" unicode="H" horiz-adv-x="1495" 
d="M1108 827l92 504h406l-240 -1331h-405l88 500h-424l-90 -500h-406l240 1331h405l-92 -504h426z" />
    <glyph glyph-name="I" unicode="I" horiz-adv-x="663" 
d="M129 0l240 1331h405l-239 -1331h-406z" />
    <glyph glyph-name="J" unicode="J" horiz-adv-x="1064" 
d="M635 494l151 837h404l-129 -721q-62 -343 -195 -488q-135 -147 -413 -147q-127 0 -255 63q-128 62 -182 161l4 28l240 209h29q18 -37 70 -68q52 -32 108 -32q139 0 168 158z" />
    <glyph glyph-name="K" unicode="K" horiz-adv-x="1366" 
d="M1565 1331l12 -31l-533 -546l332 -723l-26 -31h-402l-225 524l-115 -112l-73 -412h-406l240 1331h405l-84 -469l443 469h432z" />
    <glyph glyph-name="L" unicode="L" horiz-adv-x="1050" 
d="M592 328h493l-57 -328h-899l240 1331h405z" />
    <glyph glyph-name="M" unicode="M" horiz-adv-x="1738" 
d="M967 526l487 805h275l-41 -1331h-375l35 575l-349 -575h-231l-141 582l-172 -582h-404l443 1331h245z" />
    <glyph glyph-name="N" unicode="N" horiz-adv-x="1452" 
d="M1042 680l119 651h402l-242 -1331h-262l-412 651l-117 -651h-401l240 1331h264z" />
    <glyph glyph-name="O" unicode="O" horiz-adv-x="1572" 
d="M852 -25q-292 0 -485 178q-195 177 -195 455q0 342 246 555q220 193 543 193q291 0 485 -177q194 -179 194 -456q0 -349 -254 -561q-218 -187 -534 -187zM885 342q131 0 221 78q125 104 125 274q0 133 -87 214t-216 81q-131 0 -221 -78q-125 -104 -125 -274
q0 -133 87 -214t216 -81z" />
    <glyph glyph-name="P" unicode="P" horiz-adv-x="1296" 
d="M369 1331h602q220 0 339 -104q117 -105 117 -279q0 -237 -158 -380q-158 -142 -454 -142h-203l-77 -426h-406zM666 733h186q68 0 111 41t43 113q0 52 -32.5 84.5t-82.5 32.5h-176z" />
    <glyph glyph-name="Q" unicode="Q" horiz-adv-x="1609" 
d="M1386 162q-53 -46 -137 -92l201 -316l-27 -30h-426l-172 251q-283 11 -468 186q-185 176 -185 447q0 342 246 555q220 193 543 193q291 0 485 -177q194 -179 194 -456q0 -349 -254 -561zM582 637q0 -133 87 -214t216 -81q131 0 221 78q125 104 125 274q0 133 -87 214
t-216 81q-131 0 -221 -78q-125 -104 -125 -274z" />
    <glyph glyph-name="R" unicode="R" horiz-adv-x="1341" 
d="M1430 958q0 -156 -82.5 -269t-229.5 -171l170 -487l-24 -31h-392l-159 467h-95l-83 -467h-406l240 1331h614q218 0 332.5 -98t114.5 -275zM889 1004h-174l-49 -271h182q69 0 113.5 40t44.5 112q0 52 -34.5 85.5t-82.5 33.5z" />
    <glyph glyph-name="S" unicode="S" horiz-adv-x="1187" 
d="M621 -25q-178 0 -322 64q-147 63 -217 166l6 28l211 211h29q39 -54 137 -98q95 -43 184 -43q63 0 104.5 26t41.5 70q0 39 -35 61.5t-123 49.5q-13 4 -23 6q-144 45 -247 143q-103 97 -103 246q0 202 155 327q154 124 406 124q155 0 293 -56q136 -57 195 -143l-6 -29
l-213 -206h-27q-40 47 -114 86q-77 39 -162 39q-119 0 -119 -89q0 -66 145 -120q29 -11 66.5 -25.5t45.5 -17.5q30 -12 100 -50q62 -36 93 -71q80 -96 80 -219q0 -237 -165 -358q-167 -122 -416 -122z" />
    <glyph glyph-name="T" unicode="T" horiz-adv-x="1243" 
d="M1401 1004h-397l-179 -1004h-405l178 1004h-395l61 327h1196z" />
    <glyph glyph-name="U" unicode="U" horiz-adv-x="1488" 
d="M221 621l127 710h406l-131 -729q-23 -124 36 -195t172 -71q101 0 168 70.5t91 195.5l131 729h399l-127 -700q-55 -301 -235 -478q-181 -178 -459 -178q-299 0 -465 177q-166 175 -113 469z" />
    <glyph glyph-name="V" unicode="V" horiz-adv-x="1437" 
d="M1253 1331h416l12 -31l-835 -1300h-252l-369 1300l25 31h401l158 -743z" />
    <glyph glyph-name="W" unicode="W" horiz-adv-x="1996" 
d="M1837 1331h387l12 -31l-718 -1300h-252l-140 721l-399 -721h-246l-252 1300l25 31h387l98 -719l371 719h252l113 -737z" />
    <glyph glyph-name="X" unicode="X" horiz-adv-x="1378" 
d="M1577 1331l12 -31l-545 -618l326 -651l-24 -31h-431l-155 377l-303 -377h-437l-12 31l567 647l-307 622l25 31h430l143 -340l275 340h436z" />
    <glyph glyph-name="Y" unicode="Y" horiz-adv-x="1355" 
d="M1565 1331l12 -31l-610 -819l-86 -481h-406l88 487l-327 813l24 31h397l168 -471l330 471h410z" />
    <glyph glyph-name="Z" unicode="Z" horiz-adv-x="1273" 
d="M334 1331h1087l-51 -287l-721 -722h619l-60 -322h-1134l51 287l729 723h-580z" />
    <glyph glyph-name="bracketleft" unicode="[" horiz-adv-x="772" 
d="M989 1511l-47 -266h-225l-219 -1216h225l-47 -267h-592l313 1749h592z" />
    <glyph glyph-name="backslash" unicode="\" horiz-adv-x="1241" 
d="M307 1442h359l528 -1522l-23 -29h-358l-528 1522z" />
    <glyph glyph-name="bracketright" unicode="]" horiz-adv-x="770" 
d="M502 1245h-223l47 266h592l-314 -1749h-592l45 267h226z" />
    <glyph glyph-name="asciicircum" unicode="^" horiz-adv-x="1347" 
d="M801 1331h225l375 -758l-19 -16h-325l-207 420l-358 -420h-326l-14 16z" />
    <glyph glyph-name="underscore" unicode="_" horiz-adv-x="1275" 
d="M55 -311l58 307h1052l-57 -307h-1053z" />
    <glyph glyph-name="grave" unicode="`" horiz-adv-x="763" 
d="M453 1642h20l473 -276l4 -20l-104 -175h-21l-516 193l-4 20z" />
    <glyph glyph-name="a" unicode="a" horiz-adv-x="1144" 
d="M1032 971q170 -111 125 -363l-108 -608h-308l19 98q-134 -123 -316 -123q-162 0 -260 81t-98 214q0 170 135 275q136 104 354 104q96 0 213 -39l7 29q11 53 -29 88q-47 41 -135 41q-54 0 -135 -26q-80 -27 -127 -62h-29l-84 194l4 29q101 77 227 111q129 35 236 35
q193 0 309 -78zM586 211q66 0 113 47q46 46 55 98l6 37q-70 37 -144 37q-69 0 -109 -30.5t-40 -84.5q0 -45 33 -74.5t86 -29.5z" />
    <glyph glyph-name="b" unicode="b" horiz-adv-x="1284" 
d="M911 1049q216 0 329 -146q112 -147 90 -387t-171 -390q-148 -151 -371 -151q-222 0 -329 152l-23 -127h-327l245 1366l373 31l29 -19l-72 -393q109 64 227 64zM737 307q93 0 149 66q54 65 54 162q0 81 -46 131q-46 51 -116 51q-94 0 -148 -65q-55 -65 -55 -163
q0 -81 46 -131q47 -51 116 -51z" />
    <glyph glyph-name="c" unicode="c" horiz-adv-x="1064" 
d="M645 -25q-221 0 -362 138q-142 136 -142 356q0 150 66.5 272t185.5 201q162 105 365 107q285 0 420 -181l-7 -28l-253 -203h-29q-47 80 -150 80q-87 0 -143 -60q-59 -71 -59 -168q0 -82 47 -132t127 -50q85 0 147 66h29l184 -207l-6 -29q-174 -162 -420 -162z" />
    <glyph glyph-name="d" unicode="d" horiz-adv-x="1286" 
d="M1024 1366l373 31l28 -19l-247 -1378h-328l16 86q-127 -111 -293 -111q-185 0 -313 138q-127 136 -127 329q0 263 157 435q156 172 406 172q151 0 254 -86zM690 307q94 0 149 66q54 65 54 162q0 81 -46 131q-46 51 -116 51q-94 0 -148 -65q-55 -65 -55 -163
q0 -81 46 -131q46 -51 116 -51z" />
    <glyph glyph-name="e" unicode="e" horiz-adv-x="1185" 
d="M768 1049q256 0 381 -156t78 -387q-5 -26 -21 -78h-688q-2 -83 48 -126.5t141 -43.5q132 0 241 92h29l137 -166l-6 -28q-187 -179 -461 -181q-224 0 -367 134t-143 352q0 172 88 308q89 137 238 210q139 70 305 70zM555 643h311q-4 50 -30 88q-37 49 -105 49
q-61 0 -104 -30q-50 -38 -72 -107z" />
    <glyph glyph-name="f" unicode="f" horiz-adv-x="909" 
d="M864 1130q-43 -37 -55 -106h262l-51 -287h-262l-133 -737h-402l133 737h-174l51 287h175q44 236 235 356q140 86 311 86q145 0 238 -45l14 -28l-106 -236l-33 -18q-40 27 -109 26q-53 0 -94 -35z" />
    <glyph glyph-name="g" unicode="g" horiz-adv-x="1234" 
d="M983 938l16 86h314l-152 -840q-47 -258 -210 -393t-421 -135q-156 0 -282 55q-129 55 -195 135l4 27l172 195h27q46 -54 128 -91q84 -38 165 -38q87 0 154 42t81 123l9 43q-109 -57 -232 -57q-177 0 -296 115q-120 114 -120 287q0 162 75 293q74 129 204 200
q121 62 262 64q161 0 277 -93q10 -8 20 -18zM545 547q0 -79 43.5 -127.5t111.5 -48.5q86 0 140 57q57 63 57 164q0 79 -43.5 127.5t-112.5 48.5q-87 0 -139 -57q-57 -65 -57 -164z" />
    <glyph glyph-name="h" unicode="h" horiz-adv-x="1255" 
d="M934 1049q178 0 271 -129q93 -130 59 -326l-107 -594h-401l100 569q12 63 -16 103q-27 39 -86 39q-54 0 -93.5 -39t-52.5 -103l-102 -569h-397l245 1366l371 31l29 -19l-76 -415q112 86 256 86z" />
    <glyph glyph-name="i" unicode="i" 
d="M504 1178q-86 0 -146 61q-61 61 -61 145q0 109 79 185t187 76q85 0 147 -62q60 -63 60 -147q0 -110 -78 -183q-80 -75 -188 -75zM510 0h-401l184 1024h401z" />
    <glyph glyph-name="j" unicode="j" horiz-adv-x="628" 
d="M543 1178q-86 0 -146 61q-61 61 -61 145q0 109 79 185t187 76q85 0 147 -62q60 -63 60 -147q0 -110 -78 -183q-79 -75 -188 -75zM186 358l121 666h400l-129 -719q-21 -119 -43 -203q-22 -79 -55 -152q-35 -78 -85 -125q-109 -103 -325 -192h-29l-102 287l6 29
q133 67 168 130q34 60 73 279z" />
    <glyph glyph-name="k" unicode="k" horiz-adv-x="1220" 
d="M1378 1024l15 -29l-437 -442l275 -524l-23 -29h-407l-170 367l-68 -68l-53 -299h-401l245 1366l375 31l29 -19l-129 -712l338 358h411z" />
    <glyph glyph-name="l" unicode="l" 
d="M510 0h-401l245 1366l375 31l29 -19z" />
    <glyph glyph-name="m" unicode="m" horiz-adv-x="1886" 
d="M1569 1049q176 0 268 -128t59 -323l-106 -598h-401l94 522q10 53 10 86q0 101 -107 103q-114 0 -139 -150l-98 -561h-399l90 522q10 53 10 84q0 48 -28.5 76.5t-78.5 28.5q-67 0 -102 -56q-22 -34 -33 -94l-98 -561h-401l184 1024h325l-26 -162q47 80 137 134
q91 53 205 53q212 0 295 -162q51 69 144 116q89 46 196 46z" />
    <glyph glyph-name="n" unicode="n" horiz-adv-x="1257" 
d="M938 1049q178 0 272 -129q93 -129 58 -326l-107 -594h-401l100 569q12 64 -15 103t-87 39q-63 0 -103 -43q-31 -37 -43 -99l-102 -569h-401l184 1024h325l-28 -164q46 80 138 135q92 54 210 54z" />
    <glyph glyph-name="o" unicode="o" horiz-adv-x="1228" 
d="M653 -25q-224 0 -369 139q-147 138 -147 355q0 150 66.5 272t185.5 201q160 105 365 107q223 0 370 -138q146 -140 146 -356q0 -274 -209 -444q-169 -136 -408 -136zM684 307q88 0 143 60q59 71 60 168q0 81 -46 131q-47 51 -116 51q-87 0 -143 -60q-58 -71 -60 -168
q0 -81 46 -131q46 -51 116 -51z" />
    <glyph glyph-name="p" unicode="p" horiz-adv-x="1286" 
d="M907 1049q190 0 310 -136q120 -137 120 -331q0 -265 -157 -435q-157 -172 -389 -172q-167 0 -271 86l-69 -380h-400l242 1343h325l-20 -117q130 142 309 142zM739 307q93 0 149 66q54 65 54 162q0 81 -46 131q-47 51 -116 51q-94 0 -148 -65q-54 -66 -54 -163
q0 -81 46 -131q45 -51 115 -51z" />
    <glyph glyph-name="q" unicode="q" horiz-adv-x="1284" 
d="M1010 889l24 135h326l-242 -1343h-399l63 346q-108 -50 -219 -52q-219 0 -331 148q-112 147 -90 385q23 238 175 389q152 152 363 152q225 0 330 -160zM528 489q0 -79 47 -131q47 -51 115 -51q94 0 149 66q54 65 54 162q0 81 -46 131q-46 51 -116 51q-94 0 -148 -66
q-55 -65 -55 -162z" />
    <glyph glyph-name="r" unicode="r" horiz-adv-x="915" 
d="M1087 1010l13 -29l-123 -285l-33 -18q-62 33 -131 33q-121 0 -178 -88q-17 -26 -43 -162l-82 -461h-401l184 1024h325l-26 -145q52 60 113 100q101 70 213 70q89 0 169 -39z" />
    <glyph glyph-name="s" unicode="s" horiz-adv-x="1040" 
d="M545 -29q-166 0 -295 55q-131 54 -180 136l4 28l200 197h29q38 -46 119 -84q82 -39 156 -39q40 0 60 11.5t19 33.5q0 35 -86 62q-75 25 -127 45q-47 18 -107 57q-116 74 -116 219q0 158 134 260q134 101 350 101q144 0 263 -45q118 -45 173 -121l-4 -29l-197 -184h-29
q-98 98 -227 98q-82 0 -82 -39q0 -18 22 -30t88 -34q64 -23 99 -36q225 -95 225 -293q0 -168 -136 -268q-137 -101 -355 -101z" />
    <glyph glyph-name="t" unicode="t" horiz-adv-x="940" 
d="M1014 737h-283l-55 -303q-19 -121 76 -121q44 0 94 33l26 -14l62 -238l-21 -31q-128 -88 -284 -88q-175 0 -284 104q-109 103 -73 310l64 348h-180l51 287h180l55 305l369 31l29 -19l-58 -317h283z" />
    <glyph glyph-name="u" unicode="u" horiz-adv-x="1236" 
d="M805 426l108 598h400l-183 -1024h-327l16 100q-140 -125 -305 -125q-184 0 -280 123q-97 123 -60 328l107 598h401l-102 -571q-10 -63 13.5 -101.5t78.5 -38.5q57 0 92 35q30 27 41 78z" />
    <glyph glyph-name="v" unicode="v" horiz-adv-x="1159" 
d="M956 1024h369l14 -27l-606 -997h-309l-246 997l23 27h374l78 -578z" />
    <glyph glyph-name="w" unicode="w" horiz-adv-x="1648" 
d="M1452 1024h363l14 -27l-522 -997h-310l-77 514l-263 -514h-319l-150 997l23 27h371l36 -551l265 551h235l80 -543z" />
    <glyph glyph-name="x" unicode="x" horiz-adv-x="1177" 
d="M1335 1024l15 -27l-449 -483l281 -487l-23 -27h-397l-129 260l-219 -260h-408l-14 27l467 495l-269 475l23 27h397l115 -246l203 246h407z" />
    <glyph glyph-name="y" unicode="y" horiz-adv-x="1155" 
d="M965 1024h360l14 -27l-630 -1054q-173 -287 -447 -287q-134 0 -217 47l-8 27l110 241l29 15q41 -23 88 -23q70 0 109 60l55 83l-248 891l23 27h391l94 -522z" />
    <glyph glyph-name="z" unicode="z" horiz-adv-x="1079" 
d="M254 1024h909l-53 -287l-502 -450h459l-51 -287h-944l51 285l534 452h-454z" />
    <glyph glyph-name="braceleft" unicode="{" horiz-adv-x="829" 
d="M741 -238h-108q-283 0 -371 100t-41 378l15 86q10 59 12 101t-24.5 64.5t-90.5 22.5l43 246q91 0 122 43q32 45 50 145l14 86q46 274 174 376q127 101 410 101h109l-47 -266h-50q-114 0 -154 -30q-41 -31 -67 -162l-39 -205q-18 -96 -92 -153q-73 -58 -172 -58
q98 0 154 -57q55 -58 37 -154l-39 -205q-12 -73 -9 -109.5t21 -56.5q19 -23 80 -25q13 -1 61 -1h49z" />
    <glyph glyph-name="bar" unicode="|" horiz-adv-x="534" 
d="M356 -299h-286l315 1749h287z" />
    <glyph glyph-name="braceright" unicode="}" horiz-adv-x="829" 
d="M436 848l37 205q26 121 -13 167q-17 22 -81 24q-14 1 -62 1h-47l47 266h111q281 0 369 -100t43 -377l-15 -86q-25 -87 -8 -138q17 -50 107 -50l-43 -246q-96 0 -126 -51q-17 -27 -25 -56q-3 -13 -17 -81l-15 -86q-46 -274 -174 -376q-127 -102 -409 -102h-111l45 267h49
q116 0 159 31q45 31 67 161l36 205q16 96 91 154q75 57 174 57q-99 0 -151 58q-54 57 -38 153z" />
    <glyph glyph-name="asciitilde" unicode="~" horiz-adv-x="1177" 
d="M895 500q-66 0 -210 36q-146 35 -208 35q-124 0 -186 -71h-29l-69 188l6 29q34 37 59 57q26 20 99 43q71 21 167 21q86 0 236 -36q148 -36 182 -36q129 0 186 72h29l70 -189l-6 -28q-103 -121 -326 -121z" />
    <glyph glyph-name="exclamdown" unicode="&#xa1;" horiz-adv-x="581" 
d="M393 582q-89 0 -150 59q-61 58 -61 147q0 104 78 183q78 78 182 78q89 0 151 -59q60 -60 60 -148q0 -104 -78 -182t-182 -78zM395 -348h-334l-20 24l178 781l29 24h258l20 -24l-102 -781z" />
    <glyph glyph-name="cent" unicode="&#xa2;" horiz-adv-x="1019" 
d="M739 856q-82 0 -138 -62q-56 -64 -56 -157q0 -66 40 -109t99 -43q86 0 147 72h29l170 -188l-6 -29q-138 -126 -285 -158l-39 -207h-284l39 224q-128 45 -205 150q-76 103 -76 243q0 204 122 358q121 151 314 201l35 201h287l-35 -197q162 -39 246 -154l-4 -28l-236 -189
h-29q-40 72 -135 72z" />
    <glyph glyph-name="sterling" unicode="&#xa3;" horiz-adv-x="1236" 
d="M940 1044q-135 0 -162 -145l-14 -80h344l-51 -287h-344l-43 -245h547l-54 -287h-1075l51 287h129l45 245h-129l52 287h129l14 80q41 225 209 341q169 116 373 116q140 0 254 -55t171 -152l-6 -29l-229 -174h-29q-69 98 -182 98z" />
    <glyph glyph-name="currency" unicode="&#xa4;" horiz-adv-x="1409" 
d="M1260 432l139 -153l-252 -232l-156 172q-119 -45 -233 -45q-116 0 -217 45l-193 -172l-205 232l168 151q-45 90 -45 193q0 159 92 290l-135 154l252 231l156 -172q111 43 229 43q123 0 219 -45l193 174l205 -231l-170 -154q45 -83 45 -192q0 -158 -92 -289zM788 465
q90 0 156 68q66 67 66 163q0 79 -50 132q-51 51 -129 51q-93 0 -157 -67q-66 -68 -66 -165q0 -80 51 -131t129 -51z" />
    <glyph glyph-name="yen" unicode="&#xa5;" horiz-adv-x="1435" 
d="M1602 1331l12 -31l-549 -737h166l-31 -184h-215l-12 -70h215l-35 -184h-213l-22 -125h-406l23 125h-216l33 184h215l13 70h-215l32 184h172l-297 737l25 31h397l168 -471l330 471h410z" />
    <glyph glyph-name="brokenbar" unicode="&#xa6;" horiz-adv-x="534" 
d="M250 698l135 752h287l-137 -752h-285zM70 -299l141 793h287l-142 -793h-286z" />
    <glyph glyph-name="section" unicode="&#xa7;" horiz-adv-x="1179" 
d="M1085 987h-28q-82 94 -195 94q-58 0 -91.5 -24t-33.5 -66q0 -68 101 -100q62 -21 107 -38q45 -18 97 -46q61 -33 90 -62q34 -34 57 -85t23 -107q0 -195 -178 -315q31 -72 31 -150q0 -132 -83 -226q-82 -92 -204 -133q-120 -40 -264 -40q-318 0 -463 196l6 29l197 190h29
q37 -49 109 -85q70 -37 136 -37q53 0 87 22.5t34 56.5q0 31 -31.5 50.5t-101.5 40.5q-354 110 -354 333q0 189 194 314q-45 67 -45 151q0 195 157 301q158 105 388 105q286 0 444 -170l-4 -29zM561 551q0 -23 18.5 -44t42.5 -32q18 -9 67 -28q47 -20 71 -31q78 39 78 102
q7 50 -84 91q-11 5 -54.5 22.5t-52.5 21.5q-37 -15 -61.5 -42.5t-24.5 -59.5z" />
    <glyph glyph-name="dieresis" unicode="&#xa8;" horiz-adv-x="1052" 
d="M535 1171q-75 0 -127 55q-54 54 -54 128q0 97 70 164t166 67q74 0 128 -55q54 -56 54 -129q0 -95 -69 -163q-70 -67 -168 -67zM1016 1171q-75 0 -127 55q-53 55 -53 128q0 97 70 164q68 67 165 67q74 0 128 -55q54 -56 54 -129q0 -95 -69 -163q-70 -67 -168 -67z" />
    <glyph glyph-name="copyright" unicode="&#xa9;" horiz-adv-x="1505" 
d="M788 -25q-261 0 -440 169q-180 169 -180 419q0 187 81 351q81 163 220 274q211 168 485 168q260 0 441 -169q180 -169 180 -419q0 -344 -242 -575q-229 -218 -545 -218zM805 125q236 0 409 164q203 191 203 471q0 192 -138 320q-138 126 -341 126q-213 0 -381 -141
q-105 -89 -167 -219t-62 -275q0 -195 138 -320q138 -126 339 -126zM842 268q-159 0 -266 101t-107 247q0 197 136 326q137 129 341 129q201 0 307 -133l-6 -23l-168 -153h-20q-12 27 -45 44t-72 17q-68 0 -116 -49q-48 -50 -48 -125q0 -55 36 -94t89 -39q74 0 121 62h23
l133 -154l-2 -23q-154 -133 -336 -133z" />
    <glyph glyph-name="ordfeminine" unicode="&#xaa;" horiz-adv-x="776" 
d="M602 1352q128 0 217 -60q88 -61 66 -184l-72 -399h-197l9 47q-84 -60 -183 -62q-104 0 -169 51q-66 49 -66 129q0 102 85 163t226 61q66 0 123 -17l4 21q6 37 -15 59.5t-63 22.5q-79 0 -147 -51h-21l-77 98l4 20q125 101 276 101zM518 838q35 0 60.5 22.5t31.5 52.5l8 37
q-31 15 -73 17q-43 0 -68.5 -19.5t-25.5 -52.5q0 -25 19 -41t48 -16z" />
    <glyph glyph-name="guillemotleft" unicode="&#xab;" horiz-adv-x="1241" 
d="M815 897v-23l-313 -294l180 -263v-20l-188 -152h-19l-321 451l6 35l481 448h18zM1186 1079l155 -182v-23l-311 -294l178 -263v-20l-188 -152h-19l-321 451l6 35l481 448h19z" />
    <glyph glyph-name="registered" unicode="&#xae;" horiz-adv-x="903" 
d="M684 1395q144 0 247 -95q101 -96 101 -239q0 -188 -133 -321q-134 -134 -315 -134q-147 0 -250 97q-103 96 -103 237q0 189 134 323q133 132 319 132zM592 713q135 0 234 99q98 100 98 239q0 105 -69 173q-69 66 -179 66q-141 0 -237 -99q-97 -98 -97 -241
q0 -104 72 -170q71 -67 178 -67zM821 1083q0 -85 -84 -120l54 -144h-121l-43 125h-33l-21 -125h-120l65 373h176q127 0 127 -109zM666 1090h-43l-13 -62h45q35 0 35 35q0 27 -24 27z" />
    <glyph glyph-name="overscore" unicode="&#xaf;" horiz-adv-x="1126" 
d="M422 1239l43 246h729l-43 -246h-729z" />
    <glyph glyph-name="degree" unicode="&#xb0;" horiz-adv-x="616" 
d="M457 827q-91 0 -153 66q-62 65 -62 160q0 123 95 213t216 90q94 0 155 -64q60 -64 60 -162q0 -121 -94 -212t-217 -91zM489 1016q35 0 60.5 25.5t25.5 62.5q0 29 -15 46t-40 17q-35 0 -60.5 -25.5t-25.5 -62.5q0 -29 15 -46t40 -17z" />
    <glyph glyph-name="plusminus" unicode="&#xb1;" horiz-adv-x="1236" 
d="M1024 1331l-70 -385h369l-51 -295h-371l-70 -383h-327l69 383h-372l53 295h371l69 385h330zM1128 -137h-1069l54 293h1069z" />
    <glyph glyph-name="acute" unicode="&#xb4;" horiz-adv-x="763" 
d="M285 1366l514 276h20l107 -258l-4 -20l-537 -193h-20l-84 175z" />
    <glyph glyph-name="paragraph" unicode="&#xb6;" horiz-adv-x="1480" 
d="M1659 1450l-41 -225h-504l-264 -1485h-266l135 764h-76q-184 0 -306 104t-122 291q0 131 50 240t138 176q178 135 410 135h846zM1243 1040h266l-233 -1300h-266z" />
    <glyph glyph-name="middot" unicode="&#xb7;" horiz-adv-x="587" 
d="M377 342q-89 0 -147 60q-60 58 -60 147q0 107 76 183q77 77 178 77q87 0 148 -59q59 -61 59 -148q0 -103 -77 -182q-76 -78 -177 -78z" />
    <glyph glyph-name="cedilla" unicode="&#xb8;" horiz-adv-x="780" 
d="M311 -618q-88 0 -173 28q-86 28 -138 74l4 29l111 125h28q66 -48 164 -50q61 0 99 28t38 73q0 52 -56.5 71.5t-160.5 1.5l-37 27l129 264l5 23l215 2l-4 -25l-74 -147q109 0 174 -57q65 -56 65 -146q0 -138 -112 -229q-113 -92 -277 -92z" />
    <glyph glyph-name="ordmasculine" unicode="&#xba;" horiz-adv-x="792" 
d="M545 698q-140 0 -226 80t-86 211q0 158 109 263q110 104 270 104q142 0 227 -81t85 -208q0 -161 -108 -264q-110 -105 -271 -105zM565 905q51 0 87 40q36 41 36 99q0 45 -27.5 75t-70.5 30q-51 0 -86 -39t-35 -98q0 -47 26.5 -77t69.5 -30z" />
    <glyph glyph-name="guillemotright" unicode="&#xbb;" horiz-adv-x="1241" 
d="M461 1079l319 -448l-6 -35l-481 -451h-17l-161 183v20l317 297l-180 260v23l190 151h19zM969 1079h18l320 -448l-7 -35l-479 -451h-18l-162 183v20l317 297l-180 260v23z" />
    <glyph glyph-name="onequarter" unicode="&#xbc;" horiz-adv-x="1759" 
d="M662 590h-304l99 551h-205l41 235h510zM227 -20l-12 28l1303 1364h292l15 -29l-1303 -1363h-295zM1712 766l-80 -449h84l-37 -196h-86l-24 -141h-264l24 141h-373l35 180l418 465h303zM1413 500l-160 -183h127z" />
    <glyph glyph-name="onehalf" unicode="&#xbd;" horiz-adv-x="1941" 
d="M662 590h-304l101 561h-205l39 225h510zM1518 1372h292l15 -29l-1303 -1363h-295l-12 28zM1774 315q-56 -48 -152 -108h262l-43 -227h-647l35 190q8 5 47 30t72 46q86 54 125 82q145 97 145 157q0 26 -21.5 44t-62.5 18q-96 0 -174 -72h-21l-77 143l2 21q157 143 360 143
q127 0 202 -62t75 -169q0 -127 -127 -236z" />
    <glyph glyph-name="threequarters" unicode="&#xbe;" horiz-adv-x="1794" 
d="M831 844q0 -117 -101 -191q-100 -75 -259 -75q-87 0 -172 38t-119 99l2 20l115 133h20q47 -72 162 -71q76 0 76 59q0 62 -90 64h-76l29 157h80q100 0 100 66q0 51 -68 51q-73 0 -141 -55h-20l-74 149l2 21q51 43 131 69q78 25 156 25q118 0 192 -56q72 -57 72 -149
q0 -113 -119 -188q102 -60 102 -166zM1542 1372h293l14 -29l-1302 -1363h-295l-12 28zM1442 766h303l-80 -449h84l-37 -196h-86l-24 -141h-265l25 141h-373l35 180zM1286 317h127l33 183z" />
    <glyph glyph-name="questiondown" unicode="&#xbf;" horiz-adv-x="995" 
d="M629 657q-82 0 -136 55q-55 54 -55 134q0 94 71 165q70 70 165 70q82 0 136 -54t54 -134q0 -95 -70 -165q-71 -71 -165 -71zM432 -340q-167 0 -268 82q-103 82 -103 211q0 74 38 145q37 70 81 114q48 48 108 101q61 52 87 82q56 62 63 113l8 51h340l-10 -53
q-17 -85 -119 -195q-17 -20 -85 -75q-68 -54 -104 -96q-38 -44 -38 -85q0 -37 26 -59.5t72 -22.5q42 0 87 27.5t77 75.5l31 12l225 -96l4 -29q-72 -132 -211 -217q-142 -86 -309 -86z" />
    <glyph glyph-name="Agrave" unicode="&#xc0;" horiz-adv-x="1437" 
d="M1257 1475h-28l-533 219l-4 28l135 224h29l498 -287l6 -29zM834 1331h253l365 -1300l-25 -31h-401l-39 201h-461l-114 -201h-400l-12 31zM872 803l-192 -336h256z" />
    <glyph glyph-name="Aacute" unicode="&#xc1;" horiz-adv-x="1437" 
d="M1325 1694l-532 -219h-29l-102 155l6 29l497 287h29l135 -224zM834 1331h253l365 -1300l-25 -31h-401l-39 201h-461l-114 -201h-400l-12 31zM872 803l-192 -336h256z" />
    <glyph glyph-name="Acircumflex" unicode="&#xc2;" horiz-adv-x="1437" 
d="M1014 1659l-352 -154h-29l-68 170l4 29l455 235h31l364 -235l-4 -29l-117 -149h-28zM834 1331h253l365 -1300l-25 -31h-401l-39 201h-461l-114 -201h-400l-12 31zM872 803l-192 -336h256z" />
    <glyph glyph-name="Atilde" unicode="&#xc3;" horiz-adv-x="1437" 
d="M586 1509h-17l-20 15l45 254q50 55 96 79q46 23 111 23q74 0 221 -43t205 -43q116 0 178 86h16l19 -14l-47 -254q-50 -54 -95 -79q-45 -24 -112 -24q-75 0 -225 43t-199 43q-117 0 -176 -86zM834 1331h253l365 -1300l-25 -31h-401l-39 201h-461l-114 -201h-400l-12 31z
M872 803l-192 -336h256z" />
    <glyph glyph-name="Adieresis" unicode="&#xc4;" horiz-adv-x="1437" 
d="M700 1485q-82 0 -139 59q-57 58 -57 137q0 101 75 175q73 73 177 73q82 0 139 -59q57 -60 57 -139q0 -102 -75 -174t-177 -72zM1231 1485q-82 0 -139 59q-58 58 -58 137q0 101 75 175q74 73 177 73q81 0 140 -59q57 -60 57 -139q0 -102 -75 -174t-177 -72zM0 31l834 1300
h253l365 -1300l-25 -31h-401l-39 201h-461l-114 -201h-400zM872 803l-192 -336h256z" />
    <glyph glyph-name="Aring" unicode="&#xc5;" horiz-adv-x="1437" 
d="M973 1442q-104 0 -176 72q-72 70 -72 180q0 122 92 216q91 93 217 93q103 0 176 -71q72 -72 72 -181q0 -122 -92 -216q-92 -93 -217 -93zM1012 1800q-33 0 -58.5 -25.5t-25.5 -60.5q0 -30 19.5 -49.5t47.5 -19.5q33 0 58.5 25.5t25.5 60.5q0 31 -19 50t-48 19zM834 1331
h253l365 -1300l-25 -31h-401l-39 201h-461l-114 -201h-400l-12 31zM872 803l-192 -336h256z" />
    <glyph glyph-name="AE" unicode="&#xc6;" horiz-adv-x="2111" 
d="M2228 1331l-59 -321h-594l-35 -193h455l-58 -303h-452l-37 -192h604l-57 -322h-1000l37 205h-446l-168 -205h-438l-13 31l1116 1300h1145zM1157 899l-356 -434h278z" />
    <glyph glyph-name="Ccedilla" unicode="&#xc7;" horiz-adv-x="1357" 
d="M909 989q-135 0 -227 -92q-104 -104 -104 -262q0 -130 80 -212q79 -81 200 -81q155 0 285 127h28l207 -209l-4 -29q-232 -232 -504 -254l-24 -47q109 0 174 -56t65 -146q0 -137 -112 -230q-113 -92 -277 -92q-88 0 -173 28q-86 28 -138 74l4 29l111 125h28
q67 -49 164 -49q61 0 99 27.5t38 72.5q0 52 -56.5 72t-160.5 2l-37 27l87 176q-222 45 -358 209q-136 163 -136 399q0 208 99 380q98 173 268 271q178 105 419 107q166 0 312 -78q144 -77 227 -199l-6 -28l-285 -211h-28q-39 61 -110 105t-155 44z" />
    <glyph glyph-name="Egrave" unicode="&#xc8;" horiz-adv-x="1214" 
d="M735 1946h29l498 -287l6 -29l-103 -155h-28l-533 219l-4 28zM1366 1331l-59 -327h-592l-33 -185h451l-58 -307h-448l-35 -184h600l-59 -328h-1004l240 1331h997z" />
    <glyph glyph-name="Eacute" unicode="&#xc9;" horiz-adv-x="1214" 
d="M608 1659l498 287h29l135 -224l-4 -28l-533 -219h-28l-103 155zM1366 1331l-59 -327h-592l-33 -185h451l-58 -307h-448l-35 -184h600l-59 -328h-1004l240 1331h997z" />
    <glyph glyph-name="Ecircumflex" unicode="&#xca;" horiz-adv-x="1214" 
d="M932 1655l-352 -154h-29l-68 170l4 29l455 235h31l364 -235l-4 -29l-116 -149h-29zM1366 1331l-59 -327h-592l-33 -185h451l-58 -307h-448l-35 -184h600l-59 -328h-1004l240 1331h997z" />
    <glyph glyph-name="Edieresis" unicode="&#xcb;" horiz-adv-x="1214" 
d="M618 1481q-82 0 -139 58q-57 59 -57 138q0 101 75 175q73 73 177 73q82 0 139 -59q57 -60 57 -140q0 -102 -75 -173q-75 -72 -177 -72zM1149 1481q-82 0 -139 58q-58 58 -58 138q0 101 75 175q74 73 177 73q81 0 140 -59q57 -60 57 -140q0 -102 -75 -173
q-75 -72 -177 -72zM1366 1331l-59 -327h-592l-33 -185h451l-58 -307h-448l-35 -184h600l-59 -328h-1004l240 1331h997z" />
    <glyph glyph-name="Igrave" unicode="&#xcc;" horiz-adv-x="663" 
d="M442 1946h29l498 -287l6 -29l-103 -155h-28l-533 219l-4 28zM129 0l240 1331h405l-239 -1331h-406z" />
    <glyph glyph-name="Iacute" unicode="&#xcd;" horiz-adv-x="663" 
d="M254 1659l498 287h28l135 -224l-4 -28l-532 -219h-29l-102 155zM129 0l240 1331h405l-239 -1331h-406z" />
    <glyph glyph-name="Icircumflex" unicode="&#xce;" horiz-adv-x="663" 
d="M635 1935h31l364 -235l-4 -29l-117 -149h-28l-256 133l-353 -154h-28l-68 170l4 29zM535 0h-406l240 1331h405z" />
    <glyph glyph-name="Idieresis" unicode="&#xcf;" horiz-adv-x="663" 
d="M311 1481q-82 0 -139 58q-57 59 -57 138q0 101 75 175q73 73 177 73q82 0 139 -59q57 -60 57 -140q0 -102 -75 -173q-75 -72 -177 -72zM842 1481q-82 0 -139 58q-58 58 -58 138q0 101 75 175q74 73 177 73q81 0 140 -59q57 -60 57 -140q0 -102 -75 -173q-75 -72 -177 -72
zM129 0l240 1331h405l-239 -1331h-406z" />
    <glyph glyph-name="Eth" unicode="&#xd0;" horiz-adv-x="1566" 
d="M412 1331h622q273 0 424 -149q150 -150 150 -402q0 -346 -220 -563t-585 -217h-631l94 520h-137l49 287h139zM635 328h203q154 0 253 111q99 110 99 298q0 126 -70 196q-71 71 -184 71h-178l-35 -197h270l-51 -287h-272z" />
    <glyph glyph-name="Ntilde" unicode="&#xd1;" horiz-adv-x="1452" 
d="M612 1505h-16l-21 15l46 254q52 56 97 79t109 23q74 0 222 -43q147 -43 204 -43q117 0 179 86h16l18 -14l-47 -254q-50 -54 -95 -79q-44 -24 -112 -24q-75 0 -225 43t-199 43q-117 0 -176 -86zM1042 680l119 651h402l-242 -1331h-262l-412 651l-117 -651h-401l240 1331
h264z" />
    <glyph glyph-name="Ograve" unicode="&#xd2;" horiz-adv-x="1572" 
d="M866 1946h29l498 -287l6 -29l-103 -155h-28l-533 219l-4 28zM852 -25q-292 0 -485 178q-195 177 -195 455q0 342 246 555q220 193 543 193q291 0 485 -177q194 -179 194 -456q0 -349 -254 -561q-218 -187 -534 -187zM885 342q131 0 221 78q125 104 125 274q0 133 -87 214
t-216 81q-131 0 -221 -78q-125 -104 -125 -274q0 -133 87 -214t216 -81z" />
    <glyph glyph-name="Oacute" unicode="&#xd3;" horiz-adv-x="1572" 
d="M739 1659l498 287h29l135 -224l-4 -28l-533 -219h-28l-103 155zM852 -25q-292 0 -485 178q-195 177 -195 455q0 342 246 555q220 193 543 193q291 0 485 -177q194 -179 194 -456q0 -349 -254 -561q-218 -187 -534 -187zM885 342q131 0 221 78q125 104 125 274
q0 133 -87 214t-216 81q-131 0 -221 -78q-125 -104 -125 -274q0 -133 87 -214t216 -81z" />
    <glyph glyph-name="Ocircumflex" unicode="&#xd4;" horiz-adv-x="1572" 
d="M1063 1655l-352 -154h-29l-68 170l4 29l455 235h31l364 -235l-4 -29l-116 -149h-29zM961 1356q291 0 485 -177q194 -179 194 -456q0 -349 -254 -561q-218 -185 -534 -187q-292 0 -485 178q-195 177 -195 455q0 342 246 555q220 193 543 193zM1106 420q125 104 125 274
q0 133 -87 214t-216 81q-131 0 -221 -78q-125 -104 -125 -274q0 -133 87 -214t216 -81q131 0 221 78z" />
    <glyph glyph-name="Otilde" unicode="&#xd5;" horiz-adv-x="1572" 
d="M1235 1505q-75 0 -225 43t-199 43q-117 0 -176 -86h-17l-20 15l45 254q50 55 96 79q46 23 111 23q74 0 222 -43q147 -43 204 -43q116 0 178 86h16l19 -14l-47 -254q-50 -54 -95 -79q-43 -24 -112 -24zM852 -25q-292 0 -485 178q-195 177 -195 455q0 342 246 555
q220 193 543 193q291 0 485 -177q194 -179 194 -456q0 -349 -254 -561q-218 -187 -534 -187zM885 342q131 0 221 78q125 104 125 274q0 133 -87 214t-216 81q-131 0 -221 -78q-125 -104 -125 -274q0 -133 87 -214t216 -81z" />
    <glyph glyph-name="Odieresis" unicode="&#xd6;" horiz-adv-x="1572" 
d="M750 1481q-82 0 -139 58q-58 58 -58 138q0 101 75 175q73 73 177 73q82 0 139 -59q57 -60 57 -140q0 -102 -74 -173q-75 -72 -177 -72zM1280 1481q-82 0 -139 58q-58 58 -58 138q0 101 75 175q74 73 177 73q81 0 140 -59q57 -60 57 -140q0 -102 -75 -173
q-75 -72 -177 -72zM852 -25q-292 0 -485 178q-195 177 -195 455q0 342 246 555q220 193 543 193q291 0 485 -177q194 -179 194 -456q0 -349 -254 -561q-218 -187 -534 -187zM885 342q131 0 221 78q125 104 125 274q0 133 -87 214t-216 81q-131 0 -221 -78
q-125 -104 -125 -274q0 -133 87 -214t216 -81z" />
    <glyph glyph-name="multiply" unicode="&#xd7;" horiz-adv-x="1269" 
d="M1145 1260l209 -238l-396 -342l312 -346l-277 -246l-299 352l-383 -352l-209 238l392 344l-308 344l281 243l291 -348z" />
    <glyph glyph-name="Oslash" unicode="&#xd8;" horiz-adv-x="1572" 
d="M1759 1491l15 -31l-277 -334q143 -170 143 -403q0 -349 -254 -561q-218 -185 -534 -187q-146 0 -270 48l-119 -144h-363l-14 31l238 287q-152 173 -152 411q0 342 246 555q220 193 543 193q152 0 284 -53l156 188h358zM1106 420q125 104 125 274q0 133 -87 214t-216 81
q-131 0 -221 -78q-125 -104 -125 -274q0 -133 87 -214t216 -81q131 0 221 78z" />
    <glyph glyph-name="Ugrave" unicode="&#xd9;" horiz-adv-x="1488" 
d="M858 1946h29l497 -287l7 -29l-103 -155h-28l-533 219l-4 28zM221 621l127 710h406l-131 -729q-23 -124 36 -195t172 -71q101 0 168 70.5t91 195.5l131 729h399l-127 -700q-55 -301 -235 -478q-181 -178 -459 -178q-299 0 -465 177q-166 175 -113 469z" />
    <glyph glyph-name="Uacute" unicode="&#xda;" horiz-adv-x="1488" 
d="M731 1659l498 287h28l136 -224l-4 -28l-533 -219h-29l-102 155zM221 621l127 710h406l-131 -729q-23 -124 36 -195t172 -71q101 0 168 70.5t91 195.5l131 729h399l-127 -700q-55 -301 -235 -478q-181 -178 -459 -178q-299 0 -465 177q-166 175 -113 469z" />
    <glyph glyph-name="Ucircumflex" unicode="&#xdb;" horiz-adv-x="1488" 
d="M1055 1655l-353 -154h-28l-68 170l4 29l455 235h31l364 -235l-4 -29l-117 -149h-28zM1090 602l131 729h399l-127 -700q-55 -301 -235 -478q-181 -178 -459 -178q-299 0 -465 177q-166 175 -113 469l127 710h406l-131 -729q-23 -124 36 -195t172 -71q101 0 168 70.5
t91 195.5z" />
    <glyph glyph-name="Udieresis" unicode="&#xdc;" horiz-adv-x="1488" 
d="M741 1481q-82 0 -139 58q-57 59 -57 138q0 101 75 175q73 73 177 73q82 0 139 -59q57 -60 57 -140q0 -102 -75 -173q-75 -72 -177 -72zM1272 1481q-82 0 -139 58q-58 58 -58 138q0 101 75 175q74 73 177 73q81 0 140 -59q57 -60 57 -140q0 -102 -75 -173
q-75 -72 -177 -72zM221 621l127 710h406l-131 -729q-23 -124 36 -195t172 -71q101 0 168 70.5t91 195.5l131 729h399l-127 -700q-55 -301 -235 -478q-181 -178 -459 -178q-299 0 -465 177q-166 175 -113 469z" />
    <glyph glyph-name="Yacute" unicode="&#xdd;" horiz-adv-x="1355" 
d="M1296 1694l-532 -219h-29l-102 155l6 29l498 287h28l135 -224zM1565 1331l12 -31l-610 -819l-86 -481h-406l88 487l-327 813l24 31h397l168 -471l330 471h410z" />
    <glyph glyph-name="Thorn" unicode="&#xde;" horiz-adv-x="1335" 
d="M535 0h-406l240 1331h405l-37 -201h197q223 0 351 -104t128 -276q0 -240 -154 -382q-155 -143 -446 -143h-240zM678 801l-47 -271h203q68 0 112.5 42t44.5 112q0 52 -32 84.5t-76 32.5h-205z" />
    <glyph glyph-name="germandbls" unicode="&#xdf;" horiz-adv-x="1306" 
d="M1145 743q90 -37 140 -116.5t50 -186.5q0 -198 -147 -332q-148 -133 -361 -133q-174 0 -260 68l-14 29l152 241l36 19q34 -29 88 -29q66 0 107 50t41 124q0 58 -37 95.5t-96 37.5h-111l45 242h19q59 0 98 39t39 96q0 43 -32 70.5t-81 27.5q-47 0 -78 -24
q-46 -34 -63 -115l-170 -946h-401l161 901q57 322 285 445q131 72 315 71q190 0 317 -100q126 -101 126 -254q0 -203 -168 -320z" />
    <glyph glyph-name="agrave" unicode="&#xe0;" horiz-adv-x="1144" 
d="M659 1642h21l473 -276l4 -20l-104 -175h-21l-516 193l-4 20zM1032 971q170 -111 125 -363l-108 -608h-308l19 98q-134 -123 -316 -123q-162 0 -260 81t-98 214q0 170 135 275q136 104 354 104q96 0 213 -39l7 29q11 53 -29 88q-47 41 -135 41q-54 0 -135 -26
q-80 -27 -127 -62h-29l-84 194l4 29q101 77 227 111q129 35 236 35q193 0 309 -78zM586 211q66 0 113 47q46 46 55 98l6 37q-70 37 -144 37q-69 0 -109 -30.5t-40 -84.5q0 -45 33 -74.5t86 -29.5z" />
    <glyph glyph-name="aacute" unicode="&#xe1;" horiz-adv-x="1144" 
d="M492 1366l514 276h20l107 -258l-5 -20l-536 -193h-21l-84 175zM1032 971q170 -111 125 -363l-108 -608h-308l19 98q-134 -123 -316 -123q-162 0 -260 81t-98 214q0 170 135 275q136 104 354 104q96 0 213 -39l7 29q11 53 -29 88q-47 41 -135 41q-54 0 -135 -26
q-80 -27 -127 -62h-29l-84 194l4 29q101 77 227 111q129 35 236 35q193 0 309 -78zM586 211q66 0 113 47q46 46 55 98l6 37q-70 37 -144 37q-69 0 -109 -30.5t-40 -84.5q0 -45 33 -74.5t86 -29.5z" />
    <glyph glyph-name="acircumflex" unicode="&#xe2;" horiz-adv-x="1144" 
d="M862 1610h33l344 -238l-4 -20l-121 -150h-20l-252 131l-322 -141h-20l-74 160l4 20zM1032 971q170 -111 125 -363l-108 -608h-308l19 98q-134 -123 -316 -123q-162 0 -260 81t-98 214q0 170 135 275q136 104 354 104q96 0 213 -39l7 29q11 53 -29 88q-47 41 -135 41
q-54 0 -135 -26q-80 -27 -127 -62h-29l-84 194l4 29q101 77 227 111q129 35 236 35q193 0 309 -78zM754 356l6 37q-70 37 -144 37q-69 0 -109 -30.5t-40 -84.5q0 -46 33 -75t86 -29q66 0 113 47q48 48 55 98z" />
    <glyph glyph-name="atilde" unicode="&#xe3;" horiz-adv-x="1144" 
d="M981 1210q-64 0 -184 40t-158 40q-102 0 -162 -80h-16l-19 17l39 223q94 94 211 94q65 0 176 -40t160 -40q109 0 168 80h14l21 -16l-41 -223q-50 -50 -96 -73q-44 -22 -113 -22zM1032 971q170 -111 125 -363l-108 -608h-308l19 98q-134 -123 -316 -123q-162 0 -260 81
t-98 214q0 170 135 275q136 104 354 104q96 0 213 -39l7 29q11 53 -29 88q-47 41 -135 41q-54 0 -135 -26q-80 -27 -127 -62h-29l-84 194l4 29q101 77 227 111q129 35 236 35q193 0 309 -78zM586 211q66 0 113 47q46 46 55 98l6 37q-70 37 -144 37q-69 0 -109 -30.5
t-40 -84.5q0 -45 33 -74.5t86 -29.5z" />
    <glyph glyph-name="adieresis" unicode="&#xe4;" horiz-adv-x="1144" 
d="M598 1171q-75 0 -127 55q-53 55 -53 128q0 97 70 164q68 67 165 67q74 0 129 -55q54 -56 54 -129q0 -96 -70 -163t-168 -67zM1079 1171q-75 0 -127 55q-53 55 -53 128q0 97 70 164q68 67 166 67q74 0 128 -55q54 -56 54 -129q0 -96 -70 -163t-168 -67zM1032 971
q170 -111 125 -363l-108 -608h-308l19 98q-134 -123 -316 -123q-162 0 -260 81t-98 214q0 170 135 275q136 104 354 104q96 0 213 -39l7 29q11 53 -29 88q-47 41 -135 41q-54 0 -135 -26q-80 -27 -127 -62h-29l-84 194l4 29q101 77 227 111q129 35 236 35q193 0 309 -78z
M586 211q66 0 113 47q46 46 55 98l6 37q-70 37 -144 37q-69 0 -109 -30.5t-40 -84.5q0 -45 33 -74.5t86 -29.5z" />
    <glyph glyph-name="aring" unicode="&#xe5;" horiz-adv-x="1144" 
d="M815 1114q-107 0 -180 72q-74 71 -74 180q0 125 89 217t214 92q106 0 180 -71q74 -72 74 -181q0 -125 -89 -217t-214 -92zM831 1317q33 0 58.5 25.5t25.5 60.5q0 31 -19 50.5t-48 19.5q-33 0 -58.5 -26t-25.5 -61q0 -31 19 -50t48 -19zM1032 971q170 -111 125 -363
l-108 -608h-308l19 98q-134 -123 -316 -123q-162 0 -260 81t-98 214q0 170 135 275q136 104 354 104q96 0 213 -39l7 29q11 53 -29 88q-47 41 -135 41q-54 0 -135 -26q-80 -27 -127 -62h-29l-84 194l4 29q101 77 227 111q129 35 236 35q193 0 309 -78zM586 211q66 0 113 47
q46 46 55 98l6 37q-70 37 -144 37q-69 0 -109 -30.5t-40 -84.5q0 -45 33 -74.5t86 -29.5z" />
    <glyph glyph-name="ae" unicode="&#xe6;" horiz-adv-x="1871" 
d="M1419 1049q257 0 381 -156t78 -387q-6 -33 -20 -78h-689q-2 -82 48.5 -126t140.5 -44q132 0 241 92h29l137 -166l-6 -28q-187 -179 -461 -181q-251 0 -393 160q-166 -160 -461 -160q-162 0 -260 81t-98 214q0 170 135 275q136 104 354 104q102 0 222 -41l6 31
q8 48 -37 88q-47 41 -135 41q-54 0 -135 -26q-80 -27 -127 -62h-29l-84 194l4 29q101 77 227 111q129 35 236 35q227 0 319 -111q33 22 72 41q139 70 305 70zM1202 625h316q2 60 -31 106q-37 49 -105 49q-60 0 -104 -30q-55 -43 -76 -125zM586 211q65 0 111 44q45 45 55 95
l8 43q-70 37 -144 37q-69 0 -109 -30.5t-40 -84.5q0 -45 33 -74.5t86 -29.5z" />
    <glyph glyph-name="ccedilla" unicode="&#xe7;" horiz-adv-x="1064" 
d="M739 717q-87 0 -143 -60q-59 -71 -59 -168q0 -82 47 -132t127 -50q85 0 147 66h29l184 -207l-6 -29q-146 -139 -348 -157l-25 -50q108 0 175 -56q65 -56 65 -146q0 -137 -112 -230q-113 -92 -277 -92q-88 0 -173 28t-139 74l5 29l110 125h29q67 -49 164 -49q61 0 99 27.5
t38 72.5q0 52 -57 72t-160 2l-37 27l86 178q-168 39 -267 167q-100 127 -100 310q0 150 66.5 272t185.5 201q162 105 365 107q285 0 420 -181l-7 -28l-253 -203h-29q-48 80 -150 80z" />
    <glyph glyph-name="egrave" unicode="&#xe8;" horiz-adv-x="1185" 
d="M1014 1171h-21l-516 193l-4 20l148 258h20l473 -276l4 -20zM768 1049q256 0 381 -156t78 -387q-5 -26 -21 -78h-688q-2 -83 48 -126.5t141 -43.5q132 0 241 92h29l137 -166l-6 -28q-187 -179 -461 -181q-224 0 -367 134t-143 352q0 172 88 308q89 137 238 210
q139 70 305 70zM555 643h311q-4 50 -30 88q-37 49 -105 49q-61 0 -104 -30q-50 -38 -72 -107z" />
    <glyph glyph-name="eacute" unicode="&#xe9;" horiz-adv-x="1185" 
d="M1090 1364l-537 -193h-21l-83 175l4 20l514 276h20l107 -258zM768 1049q256 0 381 -156t78 -387q-5 -26 -21 -78h-688q-2 -83 48 -126.5t141 -43.5q132 0 241 92h29l137 -166l-6 -28q-187 -179 -461 -181q-224 0 -367 134t-143 352q0 172 88 308q89 137 238 210
q139 70 305 70zM555 643h311q-4 50 -30 88q-37 49 -105 49q-61 0 -104 -30q-50 -38 -72 -107z" />
    <glyph glyph-name="ecircumflex" unicode="&#xea;" horiz-adv-x="1185" 
d="M803 1333l-322 -141h-20l-74 160l4 20l432 238h33l344 -238l-4 -20l-121 -150h-20zM768 1049q256 0 381 -156t78 -387q-5 -26 -21 -78h-688q-2 -83 48 -126.5t141 -43.5q132 0 241 92h29l137 -166l-6 -28q-187 -179 -461 -181q-224 0 -367 134t-143 352q0 172 88 308
q89 137 238 210q139 70 305 70zM555 643h311q-4 50 -30 88q-37 49 -105 49q-61 0 -104 -30q-50 -38 -72 -107z" />
    <glyph glyph-name="edieresis" unicode="&#xeb;" horiz-adv-x="1185" 
d="M559 1171q-75 0 -127 55q-53 55 -53 128q0 97 70 164q68 67 165 67q74 0 129 -55q54 -56 54 -129q0 -96 -70 -163t-168 -67zM1040 1171q-75 0 -127 55q-53 55 -53 128q0 97 70 164q68 67 166 67q74 0 128 -55q54 -56 54 -129q0 -96 -70 -163t-168 -67zM768 1049
q256 0 381 -156t78 -387q-5 -26 -21 -78h-688q-2 -83 48 -126.5t141 -43.5q132 0 241 92h29l137 -166l-6 -28q-187 -179 -461 -181q-224 0 -367 134t-143 352q0 172 88 308q89 137 238 210q139 70 305 70zM555 643h311q-4 50 -30 88q-37 49 -105 49q-61 0 -104 -30
q-50 -38 -72 -107z" />
    <glyph glyph-name="igrave" unicode="&#xec;" 
d="M354 1642h21l473 -276l4 -20l-104 -175h-21l-516 193l-4 20zM510 0h-401l184 1024h401z" />
    <glyph glyph-name="iacute" unicode="&#xed;" 
d="M186 1366l514 276h21l106 -258l-4 -20l-536 -193h-21l-84 175zM510 0h-401l184 1024h401z" />
    <glyph glyph-name="icircumflex" unicode="&#xee;" 
d="M551 1610h29l319 -238l-4 -20l-113 -150h-18l-234 131l-297 -141h-18l-68 160l5 20zM510 0h-401l184 1024h401z" />
    <glyph glyph-name="idieresis" unicode="&#xef;" 
d="M293 1171q-75 0 -127 55q-53 55 -53 128q0 97 70 164q68 67 165 67q74 0 128 -55q54 -56 54 -129q0 -95 -69 -163q-70 -67 -168 -67zM774 1171q-75 0 -127 55q-53 55 -53 128q0 97 70 164q68 67 165 67q74 0 129 -55q54 -56 54 -129q0 -96 -70 -163t-168 -67zM510 0h-401
l184 1024h401z" />
    <glyph glyph-name="eth" unicode="&#xf0;" horiz-adv-x="1107" 
d="M1151 1354l-33 -176l-141 -50q213 -371 164 -684q-39 -230 -178 -349.5t-365 -119.5q-194 0 -328 119q-133 118 -133 293q0 231 153 375q152 143 361 143q23 0 60 -6q-40 62 -78 113l-244 -84l-27 18l35 176l109 37l-57 62l6 28l270 205h29q40 -50 125 -168l247 86z
M618 272q74 0 119 55q45 54 45 130q0 70 -36.5 110.5t-98.5 40.5q-74 0 -119 -54t-45 -130q0 -68 37 -110t98 -42z" />
    <glyph glyph-name="ntilde" unicode="&#xf1;" horiz-adv-x="1257" 
d="M559 1210h-16l-19 17l39 223q94 94 211 94q65 0 176 -40t160 -40q109 0 168 80h14l21 -16l-41 -223q-50 -50 -96 -73q-45 -22 -113 -22q-64 0 -184 40t-158 40q-103 0 -162 -80zM938 1049q178 0 272 -129q93 -129 58 -326l-107 -594h-401l100 569q12 64 -15 103t-87 39
q-63 0 -103 -43q-31 -37 -43 -99l-102 -569h-401l184 1024h325l-28 -164q46 80 138 135q92 54 210 54z" />
    <glyph glyph-name="ograve" unicode="&#xf2;" horiz-adv-x="1228" 
d="M670 1642h20l473 -276l4 -20l-104 -175h-21l-516 193l-4 20zM653 -25q-224 0 -369 139q-147 138 -147 355q0 150 66.5 272t185.5 201q160 105 365 107q223 0 370 -138q146 -140 146 -356q0 -274 -209 -444q-169 -136 -408 -136zM684 307q88 0 143 60q59 71 60 168
q0 81 -46 131q-47 51 -116 51q-87 0 -143 -60q-58 -71 -60 -168q0 -81 46 -131q46 -51 116 -51z" />
    <glyph glyph-name="oacute" unicode="&#xf3;" horiz-adv-x="1228" 
d="M502 1366l514 276h20l107 -258l-4 -20l-537 -193h-20l-84 175zM653 -25q-224 0 -369 139q-147 138 -147 355q0 150 66.5 272t185.5 201q160 105 365 107q223 0 370 -138q146 -140 146 -356q0 -274 -209 -444q-169 -136 -408 -136zM684 307q88 0 143 60q59 71 60 168
q0 81 -46 131q-47 51 -116 51q-87 0 -143 -60q-58 -71 -60 -168q0 -81 46 -131q46 -51 116 -51z" />
    <glyph glyph-name="ocircumflex" unicode="&#xf4;" horiz-adv-x="1228" 
d="M852 1333l-322 -141h-20l-74 160l4 20l432 238h33l344 -238l-4 -20l-121 -150h-20zM754 1049q223 0 370 -138q146 -140 146 -356q0 -274 -209 -444q-169 -134 -408 -136q-224 0 -369 139q-147 138 -147 355q0 150 66.5 272t185.5 201q163 107 365 107zM827 367
q59 71 60 168q0 81 -46 131q-47 51 -116 51q-87 0 -143 -60q-58 -71 -60 -168q0 -81 46 -131q46 -51 116 -51q87 1 143 60z" />
    <glyph glyph-name="otilde" unicode="&#xf5;" horiz-adv-x="1228" 
d="M991 1210q-64 0 -184 40t-158 40q-102 0 -162 -80h-16l-18 17l39 223q94 94 210 94q65 0 176 -40t160 -40q109 0 168 80h15l20 -16l-41 -223q-50 -50 -96 -73q-44 -22 -113 -22zM653 -25q-224 0 -369 139q-147 138 -147 355q0 150 66.5 272t185.5 201q160 105 365 107
q223 0 370 -138q146 -140 146 -356q0 -274 -209 -444q-169 -136 -408 -136zM684 307q88 0 143 60q59 71 60 168q0 81 -46 131q-47 51 -116 51q-87 0 -143 -60q-58 -71 -60 -168q0 -81 46 -131q46 -51 116 -51z" />
    <glyph glyph-name="odieresis" unicode="&#xf6;" horiz-adv-x="1228" 
d="M608 1171q-75 0 -127 55q-53 55 -53 128q0 97 70 164q68 67 166 67q74 0 128 -55q54 -56 54 -129q0 -96 -70 -163t-168 -67zM1090 1171q-75 0 -127 55q-54 54 -54 128q0 97 70 164t166 67q74 0 128 -55q54 -56 54 -129q0 -95 -69 -163q-70 -67 -168 -67zM653 -25
q-224 0 -369 139q-147 138 -147 355q0 150 66.5 272t185.5 201q160 105 365 107q223 0 370 -138q146 -140 146 -356q0 -274 -209 -444q-169 -136 -408 -136zM684 307q88 0 143 60q59 71 60 168q0 81 -46 131q-47 51 -116 51q-87 0 -143 -60q-58 -71 -60 -168q0 -81 46 -131
q46 -51 116 -51z" />
    <glyph glyph-name="divide" unicode="&#xf7;" horiz-adv-x="1157" 
d="M762 852q-75 0 -131 56t-56 130q0 98 72 167t170 69q76 0 132 -56q55 -56 55 -133q0 -97 -71 -165t-171 -68zM137 469l51 287h1051l-51 -287h-1051zM600 -47q-76 0 -131 55t-55 131q0 98 72 167q70 69 169 69q76 0 132 -56q55 -56 55 -133q0 -97 -71 -165
q-69 -68 -171 -68z" />
    <glyph glyph-name="oslash" unicode="&#xf8;" horiz-adv-x="1228" 
d="M1419 1155l13 -29l-244 -286q84 -123 84 -285q0 -274 -209 -444q-169 -134 -408 -136q-90 0 -180 27l-92 -106h-354l-13 28l215 252q-92 125 -92 293q0 150 66.5 272t185.5 201q160 105 365 107q108 0 192 -31l119 137h352zM829 367q59 71 60 168q0 81 -46 131
q-47 51 -116 51q-87 0 -143 -60q-58 -71 -60 -168q0 -81 46 -131q46 -51 116 -51q87 1 143 60z" />
    <glyph glyph-name="ugrave" unicode="&#xf9;" horiz-adv-x="1236" 
d="M1057 1171h-21l-516 193l-4 20l148 258h20l473 -276l4 -20zM805 426l108 598h400l-183 -1024h-327l16 100q-140 -125 -305 -125q-184 0 -280 123q-97 123 -60 328l107 598h401l-102 -571q-10 -63 13.5 -101.5t78.5 -38.5q57 0 92 35q30 27 41 78z" />
    <glyph glyph-name="uacute" unicode="&#xfa;" horiz-adv-x="1236" 
d="M1133 1364l-537 -193h-21l-83 175l4 20l514 276h20l107 -258zM805 426l108 598h400l-183 -1024h-327l16 100q-140 -125 -305 -125q-184 0 -280 123q-97 123 -60 328l107 598h401l-102 -571q-10 -63 13.5 -101.5t78.5 -38.5q57 0 92 35q30 27 41 78z" />
    <glyph glyph-name="ucircumflex" unicode="&#xfb;" horiz-adv-x="1236" 
d="M846 1333l-322 -141h-20l-74 160l4 20l432 238h33l344 -238l-4 -20l-121 -150h-20zM805 426l108 598h400l-183 -1024h-327l16 100q-140 -125 -305 -125q-184 0 -280 123q-97 123 -60 328l107 598h401l-102 -571q-10 -63 13.5 -101.5t78.5 -38.5q57 0 92 35q30 27 41 78z
" />
    <glyph glyph-name="udieresis" unicode="&#xfc;" horiz-adv-x="1236" 
d="M602 1171q-75 0 -127 55q-53 55 -53 128q0 97 70 164q68 67 165 67q74 0 129 -55q54 -56 54 -129q0 -96 -70 -163t-168 -67zM1083 1171q-75 0 -127 55q-53 55 -53 128q0 97 70 164q68 67 166 67q74 0 128 -55q54 -56 54 -129q0 -96 -70 -163t-168 -67zM805 426l108 598
h400l-183 -1024h-327l16 100q-140 -125 -305 -125q-184 0 -280 123q-97 123 -60 328l107 598h401l-102 -571q-10 -63 13.5 -101.5t78.5 -38.5q57 0 92 35q30 27 41 78z" />
    <glyph glyph-name="yacute" unicode="&#xfd;" horiz-adv-x="1155" 
d="M1102 1364l-537 -193h-20l-84 175l4 20l514 276h20l107 -258zM965 1024h360l14 -27l-630 -1054q-173 -287 -447 -287q-134 0 -217 47l-8 27l110 241l29 15q41 -23 88 -23q70 0 109 60l55 83l-248 891l23 27h391l94 -522z" />
    <glyph glyph-name="thorn" unicode="&#xfe;" horiz-adv-x="1286" 
d="M907 1049q190 0 310 -136q120 -137 120 -331q0 -265 -157 -435q-157 -172 -389 -172q-167 0 -271 86l-69 -380h-400l301 1650h326l-80 -424q135 142 309 142zM739 307q93 0 149 66q54 65 54 162q0 81 -46 131q-47 51 -116 51q-94 0 -148 -65q-54 -66 -54 -163
q0 -81 46 -131q45 -51 115 -51z" />
    <glyph glyph-name="ydieresis" unicode="&#xff;" horiz-adv-x="1155" 
d="M571 1171q-75 0 -127 55q-53 55 -53 128q0 97 70 164q68 67 166 67q74 0 128 -55q54 -56 54 -129q0 -96 -70 -163t-168 -67zM1053 1171q-75 0 -127 55q-54 54 -54 128q0 97 70 164t166 67q74 0 128 -55q54 -56 54 -129q0 -95 -69 -163q-70 -67 -168 -67zM965 1024h360
l14 -27l-630 -1054q-173 -287 -447 -287q-134 0 -217 47l-8 27l110 241l29 15q41 -23 88 -23q70 0 109 60l55 83l-248 891l23 27h391l94 -522z" />
    <glyph glyph-name="Amacron" unicode="&#x100;" horiz-adv-x="1437" 
d="M629 1782h757l-47 -269h-757zM834 1331h253l365 -1300l-25 -31h-401l-39 201h-461l-114 -201h-400l-12 31zM872 803l-192 -336h256z" />
    <glyph glyph-name="amacron" unicode="&#x101;" horiz-adv-x="1144" 
d="M449 1239l43 246h729l-43 -246h-729zM1032 971q170 -111 125 -363l-108 -608h-308l19 98q-134 -123 -316 -123q-162 0 -260 81t-98 214q0 170 135 275q136 104 354 104q96 0 213 -39l7 29q11 53 -29 88q-47 41 -135 41q-54 0 -135 -26q-80 -27 -127 -62h-29l-84 194l4 29
q101 77 227 111q129 35 236 35q193 0 309 -78zM586 211q66 0 113 47q46 46 55 98l6 37q-70 37 -144 37q-69 0 -109 -30.5t-40 -84.5q0 -45 33 -74.5t86 -29.5z" />
    <glyph glyph-name="Abreve" unicode="&#x102;" horiz-adv-x="1437" 
d="M979 1485q-164 0 -256 107t-80 268h252q-4 -69 26.5 -107.5t88.5 -38.5q111 0 149 146h252q-50 -169 -161 -271q-113 -104 -271 -104zM834 1331h253l365 -1300l-25 -31h-401l-39 201h-461l-114 -201h-400l-12 31zM872 803l-192 -336h256z" />
    <glyph glyph-name="abreve" unicode="&#x103;" horiz-adv-x="1144" 
d="M825 1200q-165 0 -262 108q-98 107 -86 267h252q-2 -65 32.5 -105t92.5 -40q109 0 160 145h252q-50 -167 -166 -270q-117 -105 -275 -105zM1032 971q170 -111 125 -363l-108 -608h-308l19 98q-134 -123 -316 -123q-162 0 -260 81t-98 214q0 170 135 275q136 104 354 104
q96 0 213 -39l7 29q11 53 -29 88q-47 41 -135 41q-54 0 -135 -26q-80 -27 -127 -62h-29l-84 194l4 29q101 77 227 111q129 35 236 35q193 0 309 -78zM586 211q66 0 113 47q46 46 55 98l6 37q-70 37 -144 37q-69 0 -109 -30.5t-40 -84.5q0 -45 33 -74.5t86 -29.5z" />
    <glyph glyph-name="Aogonek" unicode="&#x104;" horiz-adv-x="1437" 
d="M1468 -289l27 -6l33 -149l-8 -27q-98 -53 -201 -53q-128 0 -208 67q-81 67 -81 176q0 73 31 132q32 62 59 88q25 27 72 61h-166l-39 201h-461l-114 -201h-400l-12 31l834 1300h253l365 -1300l-25 -31q-125 -98 -124 -201q0 -47 26.5 -75.5t71.5 -28.5q38 0 67 16z
M872 803l-192 -336h256z" />
    <glyph glyph-name="aogonek" unicode="&#x105;" horiz-adv-x="1144" 
d="M1157 608l-108 -608q-125 -98 -125 -201q0 -47 26.5 -75.5t71.5 -28.5q37 0 68 16l26 -6l33 -149l-8 -27q-98 -53 -201 -53q-128 0 -208 67q-81 67 -81 176q0 73 31 132q32 62 59 88q25 27 72 61h-72l19 98q-134 -123 -316 -123q-162 0 -260 81t-98 214q0 170 135 275
q136 104 354 104q96 0 213 -39l7 29q11 53 -29 88q-47 41 -135 41q-54 0 -135 -26q-80 -27 -127 -62h-29l-84 194l4 29q101 77 227 111q129 35 236 35q195 0 309 -78q170 -111 125 -363zM754 356l6 37q-70 37 -144 37q-69 0 -109 -30.5t-40 -84.5q0 -46 33 -75t86 -29
q66 0 113 47q48 48 55 98z" />
    <glyph glyph-name="Cacute" unicode="&#x106;" horiz-adv-x="1357" 
d="M739 1659l498 287h29l135 -224l-4 -28l-533 -219h-28l-103 155zM813 -25q-282 0 -463 175q-182 174 -182 448q0 208 99 380q98 173 268 271q178 105 419 107q166 0 312 -78q144 -77 227 -199l-6 -28l-285 -211h-28q-39 61 -110 105t-155 44q-135 0 -227 -92
q-104 -104 -104 -262q0 -130 80 -212q79 -81 200 -81q155 0 285 127h28l207 -209l-4 -29q-256 -256 -561 -256z" />
    <glyph glyph-name="cacute" unicode="&#x107;" horiz-adv-x="1064" 
d="M446 1366l515 276h20l106 -258l-4 -20l-536 -193h-21l-84 175zM645 -25q-221 0 -362 138q-142 136 -142 356q0 150 66.5 272t185.5 201q162 105 365 107q285 0 420 -181l-7 -28l-253 -203h-29q-47 80 -150 80q-87 0 -143 -60q-59 -71 -59 -168q0 -82 47 -132t127 -50
q85 0 147 66h29l184 -207l-6 -29q-174 -162 -420 -162z" />
    <glyph glyph-name="Cdotaccent" unicode="&#x10a;" horiz-adv-x="1357" 
d="M1014 1481q-86 0 -146 62q-61 61 -61 145q0 109 79 185q79 75 187 75q85 0 147 -62q60 -63 60 -147q0 -109 -78 -183q-80 -75 -188 -75zM813 -25q-282 0 -463 175q-182 174 -182 448q0 208 99 380q98 173 268 271q178 105 419 107q166 0 312 -78q144 -77 227 -199l-6 -28
l-285 -211h-28q-39 61 -110 105t-155 44q-135 0 -227 -92q-104 -104 -104 -262q0 -130 80 -212q79 -81 200 -81q155 0 285 127h28l207 -209l-4 -29q-256 -256 -561 -256z" />
    <glyph glyph-name="cdotaccent" unicode="&#x10b;" horiz-adv-x="1064" 
d="M764 1178q-86 0 -146 61q-61 61 -61 145q0 109 79 185t187 76q85 0 147 -62q60 -63 60 -147q0 -110 -78 -183q-80 -75 -188 -75zM645 -25q-221 0 -362 138q-142 136 -142 356q0 150 66.5 272t185.5 201q162 105 365 107q285 0 420 -181l-7 -28l-253 -203h-29
q-47 80 -150 80q-87 0 -143 -60q-59 -71 -59 -168q0 -82 47 -132t127 -50q85 0 147 66h29l184 -207l-6 -29q-174 -162 -420 -162z" />
    <glyph glyph-name="Ccaron" unicode="&#x10c;" horiz-adv-x="1357" 
d="M1466 1743l-438 -236h-31l-356 236l4 29l100 129h29l258 -134l350 154h29l59 -149zM909 989q-135 0 -227 -92q-104 -104 -104 -262q0 -130 80 -212q79 -81 200 -81q155 0 285 127h28l207 -209l-4 -29q-256 -256 -561 -256q-282 0 -463 175q-182 174 -182 448
q0 208 99 380q98 173 268 271q178 105 419 107q166 0 312 -78q144 -77 227 -199l-6 -28l-285 -211h-28q-39 61 -110 105t-155 44z" />
    <glyph glyph-name="ccaron" unicode="&#x10d;" horiz-adv-x="1064" 
d="M1112 1589h18l74 -159l-4 -21l-430 -238h-33l-346 238l4 21l119 145h21l247 -129zM758 1049q285 0 420 -181l-7 -28l-253 -203h-29q-47 80 -150 80q-87 0 -143 -60q-59 -71 -59 -168q0 -82 47 -132t127 -50q85 0 147 66h29l184 -207l-6 -29q-174 -162 -420 -162
q-221 0 -362 138q-142 136 -142 356q0 150 66.5 272t185.5 201q164 107 365 107z" />
    <glyph glyph-name="Dcaron" unicode="&#x10e;" horiz-adv-x="1495" 
d="M1358 1743l-438 -236h-31l-357 236l5 29l100 129h29l258 -134l350 154h29l59 -149zM369 1331h622q273 0 424 -149q150 -150 150 -402q0 -346 -220 -563t-585 -217h-631zM592 328h203q154 0 253 111q99 110 99 298q0 126 -70 196q-71 71 -184 71h-178z" />
    <glyph glyph-name="dcaron" unicode="&#x10f;" horiz-adv-x="1490" 
d="M1640 1454h285l14 -20l-233 -430l-27 -21h-192l-17 21l144 430zM950 963l74 403l373 31l28 -19l-247 -1378h-328l16 86q-127 -111 -293 -111q-185 0 -313 138q-127 136 -127 329q0 263 157 435q156 172 406 172q151 0 254 -86zM690 307q94 0 149 66q54 65 54 162
q0 81 -46 131q-46 51 -116 51q-94 0 -148 -65q-55 -65 -55 -163q0 -81 46 -131q46 -51 116 -51z" />
    <glyph glyph-name="Dcroat" unicode="&#x110;" horiz-adv-x="1566" 
d="M412 1331h622q273 0 424 -149q150 -150 150 -402q0 -346 -220 -563t-585 -217h-631l94 520h-137l49 287h139zM635 328h203q154 0 253 111q99 110 99 298q0 126 -70 196q-71 71 -184 71h-178l-35 -197h270l-51 -287h-272z" />
    <glyph glyph-name="dslash" unicode="&#x111;" horiz-adv-x="1284" 
d="M1413 1311h137l-34 -191h-138l-200 -1120h-328l16 86q-127 -111 -293 -111q-185 0 -313 138q-127 136 -127 329q0 263 157 435q156 172 406 172q151 0 254 -86l29 157h-238l35 191h238l20 114l373 31l29 -18zM690 307q94 0 149 66q54 65 54 162q0 81 -46 131
q-46 51 -116 51q-94 0 -148 -65q-55 -65 -55 -163q0 -81 46 -131q46 -51 116 -51z" />
    <glyph glyph-name="Emacron" unicode="&#x112;" horiz-adv-x="1214" 
d="M500 1509l47 269h758l-48 -269h-757zM1366 1331l-59 -327h-592l-33 -185h451l-58 -307h-448l-35 -184h600l-59 -328h-1004l240 1331h997z" />
    <glyph glyph-name="emacron" unicode="&#x113;" horiz-adv-x="1185" 
d="M453 1485h729l-43 -246h-729zM768 1049q256 0 381 -156t78 -387q-5 -26 -21 -78h-688q-2 -83 48 -126.5t141 -43.5q132 0 241 92h29l137 -166l-6 -28q-187 -179 -461 -181q-224 0 -367 134t-143 352q0 172 88 308q89 137 238 210q139 70 305 70zM555 643h311
q-4 50 -30 88q-37 49 -105 49q-61 0 -104 -30q-50 -38 -72 -107z" />
    <glyph glyph-name="Edotaccent" unicode="&#x116;" horiz-adv-x="1214" 
d="M883 1481q-86 0 -146 62q-61 61 -61 145q0 109 79 185q79 75 187 75q85 0 147 -62q60 -63 60 -147q0 -109 -78 -183q-79 -75 -188 -75zM1366 1331l-59 -327h-592l-33 -185h451l-58 -307h-448l-35 -184h600l-59 -328h-1004l240 1331h997z" />
    <glyph glyph-name="edotaccent" unicode="&#x117;" horiz-adv-x="1185" 
d="M770 1178q-86 0 -146 61q-61 61 -61 145q0 109 79 185t187 76q85 0 147 -62q60 -63 60 -147q0 -110 -78 -183q-80 -75 -188 -75zM768 1049q256 0 381 -156t78 -387q-5 -26 -21 -78h-688q-2 -83 48 -126.5t141 -43.5q132 0 241 92h29l137 -166l-6 -28q-187 -179 -461 -181
q-224 0 -367 134t-143 352q0 172 88 308q89 137 238 210q139 70 305 70zM555 643h311q-4 50 -30 88q-37 49 -105 49q-61 0 -104 -30q-50 -38 -72 -107z" />
    <glyph glyph-name="Eogonek" unicode="&#x118;" horiz-adv-x="1214" 
d="M1366 1331l-59 -327h-592l-33 -185h451l-58 -307h-448l-35 -184h600l-59 -328q-125 -98 -125 -201q0 -47 26.5 -75.5t71.5 -28.5q37 0 68 16l26 -6l33 -149l-8 -27q-98 -53 -201 -53q-128 0 -208 67q-81 67 -81 176q0 73 31 132q32 62 59 88q25 27 72 61h-768l240 1331
h997z" />
    <glyph glyph-name="eogonek" unicode="&#x119;" horiz-adv-x="1185" 
d="M768 1049q256 0 381 -156t78 -387q-5 -26 -21 -78h-688q-2 -83 48 -126.5t141 -43.5q132 0 241 92h29l137 -166l-6 -28q-100 -94 -231 -142q-117 -91 -117 -194q0 -47 26.5 -76t71.5 -29q36 0 68 17l26 -6l33 -150l-8 -27q-98 -53 -201 -53q-128 0 -208 67
q-81 67 -81 177q0 141 109 237q-208 17 -333 148q-126 131 -126 336q0 172 88 308q89 137 238 210q139 70 305 70zM555 643h311q-4 50 -30 88q-37 49 -105 49q-61 0 -104 -30q-50 -38 -72 -107z" />
    <glyph glyph-name="Ecaron" unicode="&#x11a;" horiz-adv-x="1214" 
d="M1335 1743l-438 -236h-31l-356 236l4 29l100 129h29l258 -134l350 154h29l59 -149zM1366 1331l-59 -327h-592l-33 -185h451l-58 -307h-448l-35 -184h600l-59 -328h-1004l240 1331h997z" />
    <glyph glyph-name="ecaron" unicode="&#x11b;" horiz-adv-x="1185" 
d="M1206 1409l-430 -238h-33l-346 238l4 21l119 145h21l247 -129l330 143h19l73 -159zM768 1049q256 0 381 -156t78 -387q-5 -26 -21 -78h-688q-2 -83 48 -126.5t141 -43.5q132 0 241 92h29l137 -166l-6 -28q-187 -179 -461 -181q-224 0 -367 134t-143 352q0 172 88 308
q89 137 238 210q139 70 305 70zM555 643h311q-4 50 -30 88q-37 49 -105 49q-61 0 -104 -30q-50 -38 -72 -107z" />
    <glyph glyph-name="Gbreve" unicode="&#x11e;" horiz-adv-x="1513" 
d="M1026 1485q-164 0 -256 107t-80 268h252q-4 -69 26.5 -107.5t88.5 -38.5q111 0 149 146h252q-50 -169 -161 -271q-113 -104 -271 -104zM825 -25q-288 0 -473 175q-186 174 -186 450q0 206 100 378q100 174 271 271q180 105 432 107q170 0 314 -71q141 -70 218 -189
l-6 -29l-283 -211h-28q-91 133 -262 133q-140 0 -238 -92q-109 -102 -109 -260q0 -133 84 -214t213 -81t211 70q38 34 72 94h-289l52 287h647l24 -25q-6 -55 -14 -115q-56 -326 -260 -503q-199 -175 -490 -175z" />
    <glyph glyph-name="gbreve" unicode="&#x11f;" horiz-adv-x="1234" 
d="M774 1200q-164 0 -262 108q-98 107 -86 267h252q-2 -66 32.5 -105.5t92.5 -39.5q109 0 160 145h251q-50 -167 -165 -270q-117 -105 -275 -105zM983 938l16 86h314l-152 -840q-47 -258 -210 -393t-421 -135q-156 0 -282 55q-129 55 -195 135l4 27l172 195h27
q46 -54 128 -91q84 -38 165 -38q87 0 154 42t81 123l9 43q-109 -57 -232 -57q-177 0 -296 115q-120 114 -120 287q0 162 75 293q74 129 204 200q121 62 262 64q161 0 277 -93q10 -8 20 -18zM545 547q0 -79 43.5 -127.5t111.5 -48.5q86 0 140 57q57 63 57 164
q0 79 -43.5 127.5t-112.5 48.5q-87 0 -139 -57q-57 -65 -57 -164z" />
    <glyph glyph-name="Gdotaccent" unicode="&#x120;" horiz-adv-x="1513" 
d="M1012 1485q-86 0 -146 62q-61 61 -61 145q0 109 79 185q80 75 187 75q85 0 147 -62q60 -63 60 -147q0 -109 -78 -183q-80 -75 -188 -75zM825 -25q-288 0 -473 175q-186 174 -186 450q0 206 100 378q100 174 271 271q180 105 432 107q170 0 314 -71q141 -70 218 -189
l-6 -29l-283 -211h-28q-91 133 -262 133q-140 0 -238 -92q-109 -102 -109 -260q0 -133 84 -214t213 -81t211 70q38 34 72 94h-289l52 287h647l24 -25q-6 -55 -14 -115q-56 -326 -260 -503q-199 -175 -490 -175z" />
    <glyph glyph-name="gdotaccent" unicode="&#x121;" horiz-adv-x="1234" 
d="M758 1178q-86 0 -146 61q-61 61 -61 145q0 109 79 185t187 76q85 0 147 -62q60 -63 60 -147q0 -110 -78 -183q-80 -75 -188 -75zM983 938l16 86h314l-152 -840q-47 -258 -210 -393t-421 -135q-156 0 -282 55q-129 55 -195 135l4 27l172 195h27q46 -54 128 -91
q84 -38 165 -38q87 0 154 42t81 123l9 43q-109 -57 -232 -57q-177 0 -296 115q-120 114 -120 287q0 162 75 293q74 129 204 200q121 62 262 64q161 0 277 -93q10 -8 20 -18zM545 547q0 -79 43.5 -127.5t111.5 -48.5q86 0 140 57q57 63 57 164q0 79 -43.5 127.5t-112.5 48.5
q-87 0 -139 -57q-57 -65 -57 -164z" />
    <glyph glyph-name="uni0122" unicode="&#x122;" horiz-adv-x="1513" 
d="M825 -25q-288 0 -473 175q-186 174 -186 450q0 206 100 378q100 174 271 271q180 105 432 107q170 0 314 -71q141 -70 218 -189l-6 -29l-283 -211h-28q-91 133 -262 133q-140 0 -238 -92q-109 -102 -109 -260q0 -133 84 -214t213 -81t211 70q38 34 72 94h-289l52 287h647
l24 -25q-6 -55 -14 -115q-56 -326 -260 -503q-199 -175 -490 -175zM434 -555l133 414l27 20h285l14 -20l-211 -414l-29 -20h-204z" />
    <glyph glyph-name="uni0123" unicode="&#x123;" horiz-adv-x="1234" 
d="M915 1190l-26 -21h-285l-14 21l211 414l28 20h205l15 -20zM983 938l16 86h314l-152 -840q-47 -258 -210 -393t-421 -135q-156 0 -282 55q-129 55 -195 135l4 27l172 195h27q46 -54 128 -91q84 -38 165 -38q87 0 154 42t81 123l9 43q-109 -57 -232 -57q-177 0 -296 115
q-120 114 -120 287q0 162 75 293q74 129 204 200q121 62 262 64q161 0 277 -93q10 -8 20 -18zM545 547q0 -79 43.5 -127.5t111.5 -48.5q86 0 140 57q57 63 57 164q0 79 -43.5 127.5t-112.5 48.5q-87 0 -139 -57q-57 -65 -57 -164z" />
    <glyph glyph-name="Hbar" unicode="&#x126;" horiz-adv-x="1562" 
d="M1602 1194h110l-43 -229h-108l-175 -965h-405l88 500h-424l-90 -500h-405l174 965h-111l41 229h111l24 137h406l-25 -137h426l25 137h405zM702 827h426l25 138h-426z" />
    <glyph glyph-name="hbar" unicode="&#x127;" horiz-adv-x="1255" 
d="M934 1049q178 0 271 -129q93 -130 59 -326l-107 -594h-401l100 569q12 67 -16 105q-31 37 -86 37q-56 0 -94 -39q-38 -38 -52 -103l-102 -569h-397l200 1112h-155l32 191h156l23 122l370 31l29 -18l-25 -135h244l-35 -191h-243l-27 -149q112 86 256 86z" />
    <glyph glyph-name="Itilde" unicode="&#x128;" horiz-adv-x="663" 
d="M797 1505q-75 0 -225 43t-199 43q-117 0 -176 -86h-17l-20 15l45 254q50 55 96 79q46 23 111 23q74 0 221 -43t205 -43q116 0 178 86h16l19 -14l-47 -254q-50 -54 -95 -79q-44 -24 -112 -24zM129 0l240 1331h405l-239 -1331h-406z" />
    <glyph glyph-name="itilde" unicode="&#x129;" 
d="M676 1210q-64 0 -184 40t-158 40q-102 0 -162 -80h-16l-19 17l39 223q94 94 211 94q65 0 176 -40t160 -40q109 0 168 80h14l21 -16l-41 -223q-50 -50 -96 -73q-44 -22 -113 -22zM510 0h-401l184 1024h401z" />
    <glyph glyph-name="Imacron" unicode="&#x12a;" horiz-adv-x="663" 
d="M227 1509l43 269h682l-43 -269h-682zM129 0l240 1331h405l-239 -1331h-406z" />
    <glyph glyph-name="imacron" unicode="&#x12b;" 
d="M143 1239l43 246h729l-43 -246h-729zM510 0h-401l184 1024h401z" />
    <glyph glyph-name="Iogonek" unicode="&#x12e;" horiz-adv-x="663" 
d="M575 -289l27 -6l33 -149l-8 -27q-98 -53 -201 -53q-128 0 -208 67q-81 67 -81 176q0 73 31 132q32 62 59 88q25 27 72 61h-170l240 1331h405l-239 -1331q-125 -98 -125 -201q0 -47 26.5 -75.5t71.5 -28.5q36 0 67 16z" />
    <glyph glyph-name="iogonek" unicode="&#x12f;" 
d="M563 1645q85 0 147 -62q60 -63 60 -147q0 -110 -79 -183q-79 -75 -187 -75q-86 0 -146 61q-61 61 -61 145q0 109 79 185q77 76 187 76zM694 1024l-184 -1024q-125 -98 -125 -201q0 -47 26.5 -75.5t71.5 -28.5q37 0 68 16l27 -6l32 -149l-8 -27q-98 -53 -201 -53
q-128 0 -207 67q-81 67 -81 176q0 73 31 132q30 61 58 88q25 27 72 61h-165l184 1024h401z" />
    <glyph glyph-name="Idot" unicode="&#x130;" horiz-adv-x="663" 
d="M575 1481q-86 0 -146 62q-60 61 -60 145q0 109 79 185q78 75 187 75q85 0 147 -62q60 -63 60 -147q0 -110 -79 -183q-79 -75 -188 -75zM129 0l240 1331h405l-239 -1331h-406z" />
    <glyph glyph-name="dotlessi" unicode="&#x131;" 
d="M510 0h-401l184 1024h401z" />
    <glyph glyph-name="IJ" unicode="&#x132;" horiz-adv-x="1681" 
d="M129 0l240 1331h405l-239 -1331h-406zM1251 494l152 837h403l-129 -721q-62 -343 -195 -488q-134 -147 -413 -147q-127 0 -255 63q-128 62 -181 161l4 28l240 209h28q18 -37 70 -68q52 -32 108 -32q139 0 168 158z" />
    <glyph glyph-name="ij" unicode="&#x133;" horiz-adv-x="1263" 
d="M520 1176q-84 0 -139 57q-55 56 -55 141q0 106 85 187q86 81 193 81q86 0 141 -57q54 -57 54 -143q0 -107 -85 -186q-86 -80 -194 -80zM1167 1176q-83 0 -139 57q-55 56 -55 141q0 106 85 187q86 81 191 81q87 0 142 -57q55 -56 55 -143q0 -107 -85 -186
q-86 -80 -194 -80zM510 0h-401l184 1024h401zM702 -367h-28l-101 287l7 29q6 3 20.5 10t19.5 10t16.5 9t16 9t13.5 8.5t14 9.5t12 9.5t12.5 11.5t11.5 13q28 34 37 47q12 18 26 70q16 61 19 83q5 32 21 119l119 666h401l-129 -719q-21 -119 -43 -203q-20 -76 -54 -152
q-35 -78 -85 -125q-110 -103 -326 -192z" />
    <glyph glyph-name="uni0136" unicode="&#x136;" horiz-adv-x="1366" 
d="M1565 1331l12 -31l-533 -546l332 -723l-26 -31h-402l-225 524l-115 -112l-73 -412h-406l240 1331h405l-84 -469l443 469h432zM573 -141l27 20h285l14 -20l-211 -414l-29 -20h-204l-15 20z" />
    <glyph glyph-name="uni0137" unicode="&#x137;" horiz-adv-x="1220" 
d="M1378 1024l15 -29l-437 -442l275 -524l-23 -29h-407l-170 367l-68 -68l-53 -299h-401l245 1366l375 31l29 -19l-129 -712l338 358h411zM455 -141l26 20h285l14 -20l-211 -414l-28 -20h-205l-14 20z" />
    <glyph glyph-name="kgreenlandic" unicode="&#x138;" horiz-adv-x="1220" 
d="M1378 1024l15 -29l-437 -442l275 -524l-23 -29h-407l-170 367l-68 -68l-53 -299h-401l182 1024l375 31l28 -19l-65 -372l338 360h411z" />
    <glyph glyph-name="Lacute" unicode="&#x139;" horiz-adv-x="1050" 
d="M256 1659l498 287h28l136 -224l-5 -28l-532 -219h-29l-102 155zM592 328h493l-57 -328h-899l240 1331h405z" />
    <glyph glyph-name="lacute" unicode="&#x13a;" 
d="M236 1657l497 287h29l135 -224l-4 -28l-533 -219h-28l-103 155zM510 0h-401l245 1366l375 31l29 -19z" />
    <glyph glyph-name="uni013B" unicode="&#x13b;" horiz-adv-x="1050" 
d="M592 328h493l-57 -328h-899l240 1331h405zM254 -555l133 414l27 20h284l15 -20l-211 -414l-29 -20h-205z" />
    <glyph glyph-name="uni013C" unicode="&#x13c;" 
d="M510 0h-401l245 1366l375 31l29 -19zM-10 -555l133 414l27 20h284l15 -20l-211 -414l-29 -20h-205z" />
    <glyph glyph-name="Lcaron" unicode="&#x13d;" horiz-adv-x="1050" 
d="M803 1004l143 430l25 20h284l17 -20l-234 -430l-28 -21h-193zM592 328h493l-57 -328h-899l240 1331h405z" />
    <glyph glyph-name="lcaron" unicode="&#x13e;" horiz-adv-x="817" 
d="M797 1004l145 430l27 20h282l15 -20l-234 -430l-26 -21h-193zM510 0h-401l245 1366l375 31l29 -19z" />
    <glyph glyph-name="Ldot" unicode="&#x13f;" horiz-adv-x="1091" 
d="M592 328h493l-57 -328h-899l240 1331h405zM979 571q-72 0 -123 52q-51 51 -51 122q0 92 67 156q65 64 158 64q72 0 123 -52q51 -53 51 -125q0 -90 -66 -153q-67 -64 -159 -64z" />
    <glyph glyph-name="ldot" unicode="&#x140;" horiz-adv-x="935" 
d="M510 0h-401l245 1366l375 31l29 -19zM883 518q-77 0 -129 55q-54 54 -54 127q0 95 70 162q71 68 164 68q77 0 129 -55q53 -56 53 -130q0 -97 -69 -161q-71 -66 -164 -66z" />
    <glyph glyph-name="Lslash" unicode="&#x141;" horiz-adv-x="1206" 
d="M770 565l-43 -237h494l-58 -328h-899l70 383l-172 -72l-27 19l60 321l202 84l107 596h405l-75 -411l247 102l25 -18l-55 -322z" />
    <glyph glyph-name="lslash" unicode="&#x142;" horiz-adv-x="833" 
d="M934 1036l27 -18l-48 -260l-176 -86l-121 -672h-401l82 459l-147 -72l-25 19l45 260l180 88l111 612l375 31l28 -19l-73 -411z" />
    <glyph glyph-name="Nacute" unicode="&#x143;" horiz-adv-x="1452" 
d="M1374 1694l-532 -219h-29l-102 155l6 29l497 287h29l135 -224zM1042 680l119 651h402l-242 -1331h-262l-412 651l-117 -651h-401l240 1331h264z" />
    <glyph glyph-name="nacute" unicode="&#x144;" horiz-adv-x="1257" 
d="M1210 1364l-536 -193h-21l-84 175l4 20l514 276h21l106 -258zM938 1049q178 0 272 -129q93 -129 58 -326l-107 -594h-401l100 569q12 64 -15 103t-87 39q-63 0 -103 -43q-31 -37 -43 -99l-102 -569h-401l184 1024h325l-28 -164q46 80 138 135q92 54 210 54z" />
    <glyph glyph-name="uni0145" unicode="&#x145;" horiz-adv-x="1452" 
d="M1042 680l119 651h402l-242 -1331h-262l-412 651l-117 -651h-401l240 1331h264zM596 -141l27 20h284l15 -20l-211 -414l-29 -20h-205l-14 20z" />
    <glyph glyph-name="uni0146" unicode="&#x146;" horiz-adv-x="1257" 
d="M938 1049q178 0 272 -129q93 -129 58 -326l-107 -594h-401l100 569q12 64 -15 103t-87 39q-63 0 -103 -43q-31 -37 -43 -99l-102 -569h-401l184 1024h325l-28 -164q46 80 138 135q92 54 210 54zM457 -141l26 20h285l14 -20l-211 -414l-28 -20h-205l-14 20z" />
    <glyph glyph-name="Ncaron" unicode="&#x147;" horiz-adv-x="1452" 
d="M1444 1743l-438 -236h-31l-357 236l5 29l100 129h29l258 -134l350 154h29l59 -149zM1042 680l119 651h402l-242 -1331h-262l-412 651l-117 -651h-401l240 1331h264z" />
    <glyph glyph-name="ncaron" unicode="&#x148;" horiz-adv-x="1257" 
d="M1239 1589h18l74 -159l-4 -21l-430 -238h-33l-346 238l4 21l119 145h21l247 -129zM938 1049q178 0 272 -129q93 -129 58 -326l-107 -594h-401l100 569q12 64 -15 103t-87 39q-63 0 -103 -43q-31 -37 -43 -99l-102 -569h-401l184 1024h325l-28 -164q46 80 138 135
q92 54 210 54z" />
    <glyph glyph-name="napostrophe" unicode="&#x149;" horiz-adv-x="1282" 
d="M494 1192l-29 -21h-201l-14 21l133 414l27 20h284l15 -20zM954 1049q184 0 280 -126q95 -127 58 -325l-108 -598h-402l103 569q12 64 -14 103t-87 39q-51 0 -90 -33t-55 -88l-104 -590h-402l184 1024h326l-22 -123q142 148 333 148z" />
    <glyph glyph-name="Eng" unicode="&#x14a;" horiz-adv-x="1452" 
d="M805 -518q-97 0 -208 49q-113 50 -159 139l4 31l224 190h30q27 -82 121 -81q60 0 92 41.5t47 123.5l27 146l-336 530l-117 -651h-401l240 1331h264l409 -651l119 651h402l-246 -1358q-41 -229 -168 -360q-128 -131 -344 -131z" />
    <glyph glyph-name="eng" unicode="&#x14b;" horiz-adv-x="1253" 
d="M938 1049q177 0 272 -128q93 -127 58 -327l-43 -250q-53 -292 -174 -444q-122 -151 -385 -248h-29l-59 268l6 29q133 67 168 130q34 60 73 279l35 211q10 65 -16 103.5t-86 38.5q-63 0 -103 -43q-31 -37 -43 -99l-102 -569h-401l184 1024h325l-28 -164q46 80 138 135
q92 54 210 54z" />
    <glyph glyph-name="Omacron" unicode="&#x14c;" horiz-adv-x="1572" 
d="M631 1509l47 269h758l-47 -269h-758zM852 -25q-292 0 -485 178q-195 177 -195 455q0 342 246 555q220 193 543 193q291 0 485 -177q194 -179 194 -456q0 -349 -254 -561q-218 -187 -534 -187zM885 342q131 0 221 78q125 104 125 274q0 133 -87 214t-216 81
q-131 0 -221 -78q-125 -104 -125 -274q0 -133 87 -214t216 -81z" />
    <glyph glyph-name="omacron" unicode="&#x14d;" horiz-adv-x="1228" 
d="M459 1239l43 246h729l-43 -246h-729zM653 -25q-224 0 -369 139q-147 138 -147 355q0 150 66.5 272t185.5 201q160 105 365 107q223 0 370 -138q146 -140 146 -356q0 -274 -209 -444q-169 -136 -408 -136zM684 307q88 0 143 60q59 71 60 168q0 81 -46 131q-47 51 -116 51
q-87 0 -143 -60q-58 -71 -60 -168q0 -81 46 -131q46 -51 116 -51z" />
    <glyph glyph-name="Ohungarumlaut" unicode="&#x150;" horiz-adv-x="1572" 
d="M629 1501l254 354h307l10 -22l-338 -358h-223zM1055 1501l254 354h305l12 -22l-338 -358h-223zM852 -25q-292 0 -485 178q-195 177 -195 455q0 342 246 555q220 193 543 193q291 0 485 -177q194 -179 194 -456q0 -349 -254 -561q-218 -187 -534 -187zM885 342
q131 0 221 78q125 104 125 274q0 133 -87 214t-216 81q-131 0 -221 -78q-125 -104 -125 -274q0 -133 87 -214t216 -81z" />
    <glyph glyph-name="ohungarumlaut" unicode="&#x151;" horiz-adv-x="1228" 
d="M461 1192l188 389l31 21h281l12 -21l-268 -389l-31 -21h-199zM881 1192l188 389l31 21h280l15 -21l-271 -389l-30 -21h-199zM653 -25q-224 0 -369 139q-147 138 -147 355q0 150 66.5 272t185.5 201q160 105 365 107q223 0 370 -138q146 -140 146 -356q0 -274 -209 -444
q-169 -136 -408 -136zM684 307q88 0 143 60q59 71 60 168q0 81 -46 131q-47 51 -116 51q-87 0 -143 -60q-58 -71 -60 -168q0 -81 46 -131q46 -51 116 -51z" />
    <glyph glyph-name="OE" unicode="&#x152;" horiz-adv-x="2238" 
d="M2343 1331l-59 -327h-592l-33 -185h450l-57 -307h-448l-35 -184h600l-60 -328h-901l21 119q-185 -143 -395 -144q-287 0 -476 177q-190 175 -190 448q0 206 100 378q100 174 271 271q180 105 424 107q243 0 419 -156l25 131h936zM881 342q147 0 247 100q98 104 99 252
q0 133 -87 214t-216 81q-119 0 -211 -69q-135 -102 -135 -283q0 -133 87 -214t216 -81z" />
    <glyph glyph-name="oe" unicode="&#x153;" horiz-adv-x="1912" 
d="M1495 1049q257 0 381 -156t78 -387q-4 -26 -21 -78h-688q-2 -82 48.5 -126t140.5 -44q132 0 241 92h29l137 -166l-6 -28q-187 -179 -461 -181q-217 0 -348 125q-167 -125 -373 -125q-224 0 -369 139q-147 138 -147 355q0 150 66.5 272t185.5 201q160 105 365 107
q216 0 340 -129q54 40 96 59q139 70 305 70zM1276 614h315q10 66 -28 117q-39 49 -105 49q-145 0 -182 -166zM684 307q88 0 143 60q59 71 60 168q0 81 -46 131q-47 51 -116 51q-87 0 -143 -60q-58 -71 -60 -168q0 -81 46 -131q46 -51 116 -51z" />
    <glyph glyph-name="Racute" unicode="&#x154;" horiz-adv-x="1341" 
d="M1260 1694l-533 -219h-29l-102 155l6 29l498 287h28l136 -224zM1430 958q0 -156 -82.5 -269t-229.5 -171l170 -487l-24 -31h-392l-159 467h-95l-83 -467h-406l240 1331h614q218 0 332.5 -98t114.5 -275zM889 1004h-174l-49 -271h182q69 0 113.5 40t44.5 112
q0 52 -34.5 85.5t-82.5 33.5z" />
    <glyph glyph-name="racute" unicode="&#x155;" horiz-adv-x="915" 
d="M1022 1364l-537 -193h-20l-84 175l4 20l514 276h21l106 -258zM1087 1010l13 -29l-123 -285l-33 -18q-62 33 -131 33q-121 0 -178 -88q-17 -26 -43 -162l-82 -461h-401l184 1024h325l-26 -145q52 60 113 100q101 70 213 70q89 0 169 -39z" />
    <glyph glyph-name="uni0156" unicode="&#x156;" horiz-adv-x="1341" 
d="M1430 958q0 -156 -82.5 -269t-229.5 -171l170 -487l-24 -31h-392l-159 467h-95l-83 -467h-406l240 1331h614q218 0 332.5 -98t114.5 -275zM889 1004h-174l-49 -271h182q69 0 113.5 40t44.5 112q0 52 -34.5 85.5t-82.5 33.5zM518 -141l27 20h284l15 -20l-211 -414l-29 -20
h-205l-14 20z" />
    <glyph glyph-name="uni0157" unicode="&#x157;" horiz-adv-x="915" 
d="M1087 1010l13 -29l-123 -285l-33 -18q-62 33 -131 33q-121 0 -178 -88q-17 -26 -43 -162l-82 -461h-401l184 1024h325l-26 -145q52 60 113 100q101 70 213 70q89 0 169 -39zM119 -141l26 20h285l14 -20l-211 -414l-28 -20h-205l-14 20z" />
    <glyph glyph-name="Rcaron" unicode="&#x158;" horiz-adv-x="1341" 
d="M1329 1743l-438 -236h-31l-356 236l4 29l100 129h29l258 -134l350 154h29l59 -149zM1430 958q0 -156 -82.5 -269t-229.5 -171l170 -487l-24 -31h-392l-159 467h-95l-83 -467h-406l240 1331h614q218 0 332.5 -98t114.5 -275zM889 1004h-174l-49 -271h182q69 0 113.5 40
t44.5 112q0 52 -34.5 85.5t-82.5 33.5z" />
    <glyph glyph-name="rcaron" unicode="&#x159;" horiz-adv-x="915" 
d="M1051 1589h18l74 -159l-4 -21l-430 -238h-33l-346 238l4 21l119 145h20l248 -129zM918 1049q89 0 169 -39l13 -29l-123 -285l-33 -18q-62 33 -131 33q-121 0 -178 -88q-17 -26 -43 -162l-82 -461h-401l184 1024h325l-26 -145q52 60 113 100q101 70 213 70z" />
    <glyph glyph-name="Sacute" unicode="&#x15a;" horiz-adv-x="1187" 
d="M602 1659l498 287h28l136 -224l-4 -28l-533 -219h-29l-102 155zM621 -25q-178 0 -322 64q-147 63 -217 166l6 28l211 211h29q39 -54 137 -98q95 -43 184 -43q63 0 104.5 26t41.5 70q0 39 -35 61.5t-123 49.5q-13 4 -23 6q-144 45 -247 143q-103 97 -103 246
q0 202 155 327q154 124 406 124q155 0 293 -56q136 -57 195 -143l-6 -29l-213 -206h-27q-40 47 -114 86q-77 39 -162 39q-119 0 -119 -89q0 -66 145 -120q29 -11 66.5 -25.5t45.5 -17.5q30 -12 100 -50q62 -36 93 -71q80 -96 80 -219q0 -237 -165 -358q-167 -122 -416 -122z
" />
    <glyph glyph-name="sacute" unicode="&#x15b;" horiz-adv-x="1040" 
d="M426 1366l514 276h21l106 -258l-4 -20l-537 -193h-20l-84 175zM545 -29q-166 0 -295 55q-131 54 -180 136l4 28l200 197h29q38 -46 119 -84q82 -39 156 -39q40 0 60 11.5t19 33.5q0 35 -86 62q-75 25 -127 45q-47 18 -107 57q-116 74 -116 219q0 158 134 260
q134 101 350 101q144 0 263 -45q118 -45 173 -121l-4 -29l-197 -184h-29q-98 98 -227 98q-82 0 -82 -39q0 -18 22 -30t88 -34q64 -23 99 -36q225 -95 225 -293q0 -168 -136 -268q-137 -101 -355 -101z" />
    <glyph glyph-name="Scedilla" unicode="&#x15e;" horiz-adv-x="1187" 
d="M791 1047q-119 0 -119 -89q0 -66 145 -120q29 -11 66.5 -25.5t45.5 -17.5q30 -12 100 -50q62 -36 93 -71q80 -96 80 -219q0 -203 -126 -323q-125 -119 -331 -148l-26 -54q109 0 174 -56t65 -146q0 -137 -112 -230q-113 -92 -277 -92q-88 0 -173 28q-86 28 -138 74l4 29
l111 125h28q67 -49 164 -49q61 0 99 27.5t38 72.5q0 52 -56.5 72t-160.5 2l-36 27l81 166q-144 13 -268 76q-122 62 -180 149l6 28l211 211h29q39 -54 137 -98q95 -43 184 -43q63 0 104.5 26t41.5 70q0 39 -35 61.5t-123 49.5q-13 4 -23 6q-144 45 -247 143
q-103 97 -103 246q0 202 155 327q154 124 406 124q155 0 293 -56q136 -57 195 -143l-6 -29l-213 -206h-27q-40 47 -114 86q-77 39 -162 39z" />
    <glyph glyph-name="scedilla" unicode="&#x15f;" horiz-adv-x="1040" 
d="M684 772q-82 0 -82 -39q0 -18 22 -30t88 -34q64 -23 99 -36q225 -95 225 -293q0 -143 -102 -239q-103 -97 -277 -121l-24 -50q109 0 174 -56t65 -146q0 -137 -112 -230q-113 -92 -277 -92q-88 0 -173 28q-86 28 -138 74l4 29l111 125h28q67 -49 164 -49q61 0 99 27.5
t38 72.5q0 52 -56.5 72t-160.5 2l-37 27l80 163q-129 13 -231 65q-101 50 -141 120l4 28l200 197h29q38 -46 119 -84q82 -39 156 -39q40 0 60 11.5t19 33.5q0 35 -86 62q-75 25 -127 45q-47 18 -107 57q-116 74 -116 219q0 158 134 260q134 101 350 101q144 0 263 -45
q118 -45 173 -121l-4 -29l-197 -184h-29q-98 98 -227 98z" />
    <glyph glyph-name="Scaron" unicode="&#x160;" horiz-adv-x="1187" 
d="M1245 1921h29l59 -149l-4 -29l-438 -236h-31l-356 236l4 29l100 129h29l258 -134zM825 1356q155 0 293 -56q136 -57 195 -143l-6 -29l-213 -206h-27q-40 47 -114 86q-77 39 -162 39q-119 0 -119 -89q0 -66 145 -120q29 -11 66.5 -25.5t45.5 -17.5q30 -12 100 -50
q62 -36 93 -71q80 -96 80 -219q0 -237 -166 -358q-167 -122 -415 -122q-178 0 -322 64q-147 63 -217 166l6 28l211 211h29q39 -54 137 -98q95 -43 184 -43q63 0 104.5 26t41.5 70q0 39 -35 61.5t-123 49.5q-13 4 -23 6q-144 45 -247 143q-103 97 -103 246q0 202 155 327
q154 124 406 124z" />
    <glyph glyph-name="scaron" unicode="&#x161;" horiz-adv-x="1040" 
d="M1092 1589h18l74 -159l-4 -21l-430 -238h-33l-346 238l4 21l119 145h20l248 -129zM705 1053q144 0 263 -45q118 -45 173 -121l-4 -29l-197 -184h-29q-98 98 -227 98q-82 0 -82 -39q0 -18 22 -30t88 -34q64 -23 99 -36q225 -95 225 -293q0 -168 -136 -268
q-137 -101 -355 -101q-166 0 -295 55q-131 54 -180 136l4 28l200 197h29q38 -46 119 -84q82 -39 156 -39q40 0 60 11.5t19 33.5q0 35 -86 62q-75 25 -127 45q-47 18 -107 57q-116 74 -116 219q0 158 135 260q134 101 349 101z" />
    <glyph glyph-name="uni0162" unicode="&#x162;" horiz-adv-x="1243" 
d="M203 1004l61 327h1196l-59 -327h-397l-179 -1004h-84l-34 -70q109 0 174 -56t65 -146q0 -137 -112 -230q-113 -92 -277 -92q-88 0 -173 28q-86 28 -138 74l4 29l110 125h29q67 -49 164 -49q61 0 99 27.5t38 72.5q0 52 -56.5 72t-160.5 2l-37 27l90 186h-106l178 1004
h-395z" />
    <glyph glyph-name="uni0163" unicode="&#x163;" horiz-adv-x="940" 
d="M1014 737h-283l-55 -303q-19 -121 76 -121q44 0 94 33l26 -14l62 -238l-21 -31q-110 -77 -258 -88l-22 -45q109 0 174 -56t65 -146q0 -137 -112 -230q-113 -92 -277 -92q-88 0 -173 28q-86 28 -138 74l4 29l111 125h28q67 -49 164 -49q61 0 99 27.5t38 72.5
q0 52 -56.5 72t-160.5 2l-37 27l95 192q-110 43 -160 140.5t-25 242.5l64 348h-180l51 287h180l55 305l369 31l29 -19l-58 -317h283z" />
    <glyph glyph-name="Tcaron" unicode="&#x164;" horiz-adv-x="1243" 
d="M1327 1743l-438 -236h-31l-356 236l4 29l100 129h29l258 -134l350 154h29l59 -149zM203 1004l61 327h1196l-59 -327h-397l-179 -1004h-405l178 1004h-395z" />
    <glyph glyph-name="tcaron" unicode="&#x165;" horiz-adv-x="940" 
d="M1057 1606h284l17 -21l-234 -430l-28 -20h-193l-14 20l143 430zM811 1360l29 -19l-58 -317h283l-51 -287h-283l-55 -303q-19 -121 76 -121q44 0 94 33l26 -14l62 -238l-21 -31q-128 -88 -284 -88q-175 0 -284 104q-109 103 -73 310l64 348h-180l51 287h180l55 305z" />
    <glyph glyph-name="Tbar" unicode="&#x166;" horiz-adv-x="1243" 
d="M1460 1331l-59 -327h-397l-60 -332h252l-45 -242h-250l-76 -430h-405l76 430h-246l45 242h244l59 332h-395l61 327h1196z" />
    <glyph glyph-name="tbar" unicode="&#x167;" horiz-adv-x="940" 
d="M1065 1024l-51 -287h-283l-20 -112h190l-39 -183h-184l-2 -8q-19 -121 76 -121q44 0 94 33l26 -14l62 -238l-21 -31q-128 -88 -284 -88q-175 0 -284 104q-109 103 -73 310l11 53h-185l39 183h178l21 112h-180l51 287h180l55 305l369 31l29 -19l-58 -317h283z" />
    <glyph glyph-name="Utilde" unicode="&#x168;" horiz-adv-x="1488" 
d="M1227 1505q-75 0 -225 43t-199 43q-117 0 -176 -86h-17l-20 15l45 254q50 55 96 79q46 23 111 23q74 0 221 -43t205 -43q116 0 178 86h16l19 -14l-47 -254q-50 -54 -95 -79q-43 -24 -112 -24zM221 621l127 710h406l-131 -729q-23 -124 36 -195t172 -71q101 0 168 70.5
t91 195.5l131 729h399l-127 -700q-55 -301 -235 -478q-181 -178 -459 -178q-299 0 -465 177q-166 175 -113 469z" />
    <glyph glyph-name="utilde" unicode="&#x169;" horiz-adv-x="1236" 
d="M481 1210h-16l-19 17l39 223q94 94 211 94q65 0 176 -40t160 -40q109 0 168 80h14l21 -16l-41 -223q-50 -50 -96 -73q-44 -22 -113 -22q-64 0 -184 40t-158 40q-103 0 -162 -80zM805 426l108 598h400l-183 -1024h-327l16 100q-140 -125 -305 -125q-184 0 -280 123
q-97 123 -60 328l107 598h401l-102 -571q-10 -63 13.5 -101.5t78.5 -38.5q57 0 92 35q30 27 41 78z" />
    <glyph glyph-name="Umacron" unicode="&#x16a;" horiz-adv-x="1488" 
d="M623 1509l47 269h757l-47 -269h-757zM221 621l127 710h406l-131 -729q-23 -124 36 -195t172 -71q101 0 168 70.5t91 195.5l131 729h399l-127 -700q-55 -301 -235 -478q-181 -178 -459 -178q-299 0 -465 177q-166 175 -113 469z" />
    <glyph glyph-name="umacron" unicode="&#x16b;" horiz-adv-x="1236" 
d="M496 1485h729l-43 -246h-729zM805 426l108 598h400l-183 -1024h-327l16 100q-140 -125 -305 -125q-184 0 -280 123q-97 123 -60 328l107 598h401l-102 -571q-10 -63 13.5 -101.5t78.5 -38.5q57 0 92 35q30 27 41 78z" />
    <glyph glyph-name="Uring" unicode="&#x16e;" horiz-adv-x="1488" 
d="M1014 1438q-104 0 -176 72q-72 70 -72 180q0 122 92 216q92 93 217 93q104 0 176 -72t72 -180q0 -122 -92 -216q-91 -93 -217 -93zM1036 1640q33 0 58.5 26t25.5 60q0 30 -19.5 50t-47.5 20q-33 0 -58.5 -25.5t-25.5 -60.5q0 -31 19 -50.5t48 -19.5zM221 621l127 710h406
l-131 -729q-23 -124 36 -195t172 -71q101 0 168 70.5t91 195.5l131 729h399l-127 -700q-55 -301 -235 -478q-181 -178 -459 -178q-299 0 -465 177q-166 175 -113 469z" />
    <glyph glyph-name="uring" unicode="&#x16f;" horiz-adv-x="1236" 
d="M819 1114q-107 0 -180 72q-74 71 -74 180q0 125 89 217t214 92q106 0 180 -71q74 -72 74 -181q0 -125 -89 -217t-214 -92zM852 1473q-33 0 -58.5 -26t-25.5 -61q0 -30 19 -49.5t49 -19.5q33 0 58.5 25.5t25.5 60.5q0 31 -19.5 50.5t-48.5 19.5zM805 426l108 598h400
l-183 -1024h-327l16 100q-140 -125 -305 -125q-184 0 -280 123q-97 123 -60 328l107 598h401l-102 -571q-10 -63 13.5 -101.5t78.5 -38.5q57 0 92 35q30 27 41 78z" />
    <glyph glyph-name="Uhungarumlaut" unicode="&#x170;" horiz-adv-x="1488" 
d="M621 1501l253 354h308l10 -22l-338 -358h-223zM1047 1501l253 354h306l12 -22l-338 -358h-223zM221 621l127 710h406l-131 -729q-23 -124 36 -195t172 -71q101 0 168 70.5t91 195.5l131 729h399l-127 -700q-55 -301 -235 -478q-181 -178 -459 -178q-299 0 -465 177
q-166 175 -113 469z" />
    <glyph glyph-name="uhungarumlaut" unicode="&#x171;" horiz-adv-x="1236" 
d="M698 1192l-30 -21h-199l-14 21l188 389l31 21h280l13 -21zM1087 1171h-198l-15 21l189 389l31 21h280l15 -21l-271 -389zM805 426l108 598h400l-183 -1024h-327l16 100q-140 -125 -305 -125q-184 0 -280 123q-97 123 -60 328l107 598h401l-102 -571q-10 -63 13.5 -101.5
t78.5 -38.5q57 0 92 35q30 27 41 78z" />
    <glyph glyph-name="Uogonek" unicode="&#x172;" horiz-adv-x="1488" 
d="M1090 602l131 729h399l-127 -700q-74 -411 -363 -574q-111 -89 -110 -188q0 -47 26.5 -76t71.5 -29q36 0 68 17l26 -6l33 -150l-8 -26q-97 -53 -201 -54q-127 0 -207 68q-81 67 -81 176q0 107 61 186h-10q-299 0 -465 177q-166 175 -113 469l127 710h406l-131 -729
q-23 -124 36 -195t172 -71q101 0 168 70.5t91 195.5z" />
    <glyph glyph-name="uogonek" unicode="&#x173;" horiz-adv-x="1236" 
d="M1171 -289l27 -6l33 -149l-8 -27q-98 -53 -201 -53q-128 0 -208 67q-81 67 -81 176q0 73 31 132q32 62 59 88q25 27 72 61h-92l16 100q-140 -125 -305 -125q-184 0 -280 123q-97 123 -60 328l107 598h401l-102 -571q-10 -63 13.5 -101.5t78.5 -38.5q57 0 92 35
q30 27 41 78l108 598h400l-183 -1024q-125 -98 -124 -201q0 -47 26.5 -75.5t71.5 -28.5q36 0 67 16z" />
    <glyph glyph-name="Wcircumflex" unicode="&#x174;" horiz-adv-x="1996" 
d="M1290 1655l-352 -154h-29l-67 170l4 29l454 235h31l365 -235l-4 -29l-117 -149h-29zM1837 1331h387l12 -31l-718 -1300h-252l-140 721l-399 -721h-246l-252 1300l25 31h387l98 -719l371 719h252l113 -737z" />
    <glyph glyph-name="wcircumflex" unicode="&#x175;" horiz-adv-x="1648" 
d="M1044 1333l-321 -141h-21l-73 160l4 20l432 238h33l344 -238l-4 -20l-121 -150h-21zM1452 1024h363l14 -27l-522 -997h-310l-77 514l-263 -514h-319l-150 997l23 27h371l36 -551l265 551h235l80 -543z" />
    <glyph glyph-name="Ycircumflex" unicode="&#x176;" horiz-adv-x="1355" 
d="M963 1655l-353 -154h-28l-68 170l4 29l455 235h31l364 -235l-4 -29l-117 -149h-28zM1565 1331l12 -31l-610 -819l-86 -481h-406l88 487l-327 813l24 31h397l168 -471l330 471h410z" />
    <glyph glyph-name="ycircumflex" unicode="&#x177;" horiz-adv-x="1155" 
d="M815 1333l-321 -141h-21l-74 160l4 20l433 238h32l344 -238l-4 -20l-121 -150h-20zM965 1024h360l14 -27l-630 -1054q-173 -287 -447 -287q-134 0 -217 47l-8 27l110 241l29 15q41 -23 88 -23q70 0 109 60l55 83l-248 891l23 27h391l94 -522z" />
    <glyph glyph-name="Ydieresis" unicode="&#x178;" horiz-adv-x="1355" 
d="M649 1481q-82 0 -139 58q-57 59 -57 138q0 101 75 175q73 73 177 73q82 0 139 -59q57 -60 57 -140q0 -102 -75 -173q-75 -72 -177 -72zM1180 1481q-82 0 -139 58q-58 58 -58 138q0 101 75 175q74 73 177 73q81 0 140 -59q57 -60 57 -140q0 -102 -75 -173
q-75 -72 -177 -72zM1565 1331l12 -31l-610 -819l-86 -481h-406l88 487l-327 813l24 31h397l168 -471l330 471h410z" />
    <glyph glyph-name="Zacute" unicode="&#x179;" horiz-adv-x="1273" 
d="M1264 1694l-533 -219h-29l-102 155l6 29l498 287h29l135 -224zM334 1331h1087l-51 -287l-721 -722h619l-60 -322h-1134l51 287l729 723h-580z" />
    <glyph glyph-name="zacute" unicode="&#x17a;" horiz-adv-x="1079" 
d="M1042 1364l-536 -193h-21l-84 175l5 20l514 276h20l107 -258zM254 1024h909l-53 -287l-502 -450h459l-51 -287h-944l51 285l534 452h-454z" />
    <glyph glyph-name="Zdotaccent" unicode="&#x17b;" horiz-adv-x="1273" 
d="M881 1481q-86 0 -146 62q-61 61 -61 145q0 109 79 185q78 75 187 75q85 0 147 -62q60 -63 60 -147q0 -109 -78 -183q-79 -75 -188 -75zM334 1331h1087l-51 -287l-721 -722h619l-60 -322h-1134l51 287l729 723h-580z" />
    <glyph glyph-name="zdotaccent" unicode="&#x17c;" horiz-adv-x="1079" 
d="M723 1178q-86 0 -146 61q-61 61 -61 145q0 109 79 185t187 76q85 0 147 -62q60 -63 60 -147q0 -110 -78 -183q-79 -75 -188 -75zM254 1024h909l-53 -287l-502 -450h459l-51 -287h-944l51 285l534 452h-454z" />
    <glyph glyph-name="Zcaron" unicode="&#x17d;" horiz-adv-x="1273" 
d="M1333 1743l-438 -236h-31l-356 236l4 29l100 129h29l258 -134l350 154h29l59 -149zM334 1331h1087l-51 -287l-721 -722h619l-60 -322h-1134l51 287l729 723h-580z" />
    <glyph glyph-name="zcaron" unicode="&#x17e;" horiz-adv-x="1079" 
d="M1159 1409l-430 -238h-33l-346 238l4 21l119 145h21l247 -129l330 143h19l73 -159zM657 737h-454l51 287h909l-53 -287l-502 -450h459l-51 -287h-944l51 285z" />
    <glyph glyph-name="uni01EA" unicode="&#x1ea;" horiz-adv-x="1572" 
d="M961 1356q291 0 485 -177q194 -179 194 -456q0 -349 -254 -561q-102 -89 -251 -142q-113 -95 -113 -190q0 -47 26.5 -75.5t71.5 -28.5q37 0 68 16l26 -6l33 -150l-8 -26q-97 -52 -201 -54q-127 0 -207 68q-81 68 -81 176q0 131 94 225q-290 5 -480 181q-192 176 -192 452
q0 342 246 555q220 193 543 193zM1106 420q125 104 125 274q0 133 -87 214t-216 81q-131 0 -221 -78q-125 -104 -125 -274q0 -133 87 -214t216 -81q131 0 221 78z" />
    <glyph glyph-name="uni01EB" unicode="&#x1eb;" horiz-adv-x="1228" 
d="M754 1049q223 0 370 -138q146 -140 146 -356q0 -274 -209 -444q-69 -55 -154 -88q-115 -90 -114 -193q0 -47 26.5 -75.5t71.5 -28.5q38 0 67 16l27 -6l33 -150l-8 -26q-98 -52 -201 -54q-126 0 -208 68q-81 68 -81 176q0 131 96 227q-209 11 -344 147t-135 345
q0 150 66.5 272t185.5 201q163 107 365 107zM522 489q0 -81 46 -131q46 -51 116 -51q88 0 143 60q59 71 60 168q0 81 -46 131q-47 51 -116 51q-87 0 -143 -60q-60 -71 -60 -168z" />
    <glyph glyph-name="AEacute" unicode="&#x1fc;" horiz-adv-x="2111" 
d="M2042 1694l-533 -219h-28l-103 155l6 29l498 287h29l135 -224zM2228 1331l-59 -321h-594l-35 -193h455l-58 -303h-452l-37 -192h604l-57 -322h-1000l37 205h-446l-168 -205h-438l-13 31l1116 1300h1145zM1157 899l-356 -434h278z" />
    <glyph glyph-name="aeacute" unicode="&#x1fd;" horiz-adv-x="1871" 
d="M1434 1364l-537 -193h-20l-84 175l4 20l514 276h20l107 -258zM1419 1049q257 0 381 -156t78 -387q-6 -33 -20 -78h-689q-2 -82 48.5 -126t140.5 -44q132 0 241 92h29l137 -166l-6 -28q-187 -179 -461 -181q-251 0 -393 160q-166 -160 -461 -160q-162 0 -260 81t-98 214
q0 170 135 275q136 104 354 104q102 0 222 -41l6 31q8 48 -37 88q-47 41 -135 41q-54 0 -135 -26q-80 -27 -127 -62h-29l-84 194l4 29q101 77 227 111q129 35 236 35q227 0 319 -111q33 22 72 41q139 70 305 70zM1202 625h316q2 60 -31 106q-37 49 -105 49q-60 0 -104 -30
q-55 -43 -76 -125zM586 211q65 0 111 44q45 45 55 95l8 43q-70 37 -144 37q-69 0 -109 -30.5t-40 -84.5q0 -45 33 -74.5t86 -29.5z" />
    <glyph glyph-name="Oslashacute" unicode="&#x1fe;" horiz-adv-x="1572" 
d="M1407 1694l-533 -219h-28l-103 155l7 29l497 287h29l135 -224zM1759 1491l15 -31l-277 -334q143 -170 143 -403q0 -349 -254 -561q-218 -185 -534 -187q-146 0 -270 48l-119 -144h-363l-14 31l238 287q-152 173 -152 411q0 342 246 555q220 193 543 193q152 0 284 -53
l156 188h358zM1106 420q125 104 125 274q0 133 -87 214t-216 81q-131 0 -221 -78q-125 -104 -125 -274q0 -133 87 -214t216 -81q131 0 221 78z" />
    <glyph glyph-name="oslashacute" unicode="&#x1ff;" horiz-adv-x="1228" 
d="M991 1364l-536 -193h-21l-84 175l4 20l514 276h21l106 -258zM1419 1155l13 -29l-244 -286q84 -123 84 -285q0 -274 -209 -444q-169 -134 -408 -136q-90 0 -180 27l-92 -106h-354l-13 28l215 252q-92 125 -92 293q0 150 66.5 272t185.5 201q160 105 365 107q108 0 192 -31
l119 137h352zM829 367q59 71 60 168q0 81 -46 131q-47 51 -116 51q-87 0 -143 -60q-58 -71 -60 -168q0 -81 46 -131q46 -51 116 -51q87 1 143 60z" />
    <glyph glyph-name="uni0218" unicode="&#x218;" horiz-adv-x="1187" 
d="M621 -25q-178 0 -322 64q-147 63 -217 166l6 28l211 211h29q39 -54 137 -98q95 -43 184 -43q63 0 104.5 26t41.5 70q0 39 -35 61.5t-123 49.5q-13 4 -23 6q-144 45 -247 143q-103 97 -103 246q0 202 155 327q154 124 406 124q155 0 293 -56q136 -57 195 -143l-6 -29
l-213 -206h-27q-40 47 -114 86q-77 39 -162 39q-119 0 -119 -89q0 -66 145 -120q29 -11 66.5 -25.5t45.5 -17.5q30 -12 100 -50q62 -36 93 -71q80 -96 80 -219q0 -237 -165 -358q-167 -122 -416 -122zM324 -555l133 414l26 20h285l14 -20l-211 -414l-28 -20h-205z" />
    <glyph glyph-name="uni0219" unicode="&#x219;" horiz-adv-x="1040" 
d="M545 -29q-166 0 -295 55q-131 54 -180 136l4 28l200 197h29q38 -46 119 -84q82 -39 156 -39q40 0 60 11.5t19 33.5q0 35 -86 62q-75 25 -127 45q-47 18 -107 57q-116 74 -116 219q0 158 134 260q134 101 350 101q144 0 263 -45q118 -45 173 -121l-4 -29l-197 -184h-29
q-98 98 -227 98q-82 0 -82 -39q0 -18 22 -30t88 -34q64 -23 99 -36q225 -95 225 -293q0 -168 -136 -268q-137 -101 -355 -101zM238 -555l133 414l26 20h285l14 -20l-211 -414l-28 -20h-205z" />
    <glyph glyph-name="uni021A" unicode="&#x21a;" horiz-adv-x="1243" 
d="M1401 1004h-397l-179 -1004h-405l178 1004h-395l61 327h1196zM311 -555l133 414l27 20h285l14 -20l-211 -414l-29 -20h-204z" />
    <glyph glyph-name="uni021B" unicode="&#x21b;" horiz-adv-x="940" 
d="M1014 737h-283l-55 -303q-19 -121 76 -121q44 0 94 33l26 -14l62 -238l-21 -31q-128 -88 -284 -88q-175 0 -284 104q-109 103 -73 310l64 348h-180l51 287h180l55 305l369 31l29 -19l-58 -317h283zM371 -141l26 20h285l14 -20l-211 -414l-28 -20h-205l-14 20z" />
    <glyph glyph-name="uni0237" unicode="&#x237;" horiz-adv-x="628" 
d="M186 358l121 666h400l-129 -719q-21 -119 -43 -203q-22 -79 -55 -152q-35 -78 -85 -125q-109 -103 -325 -192h-29l-102 287l6 29q133 67 168 130q34 60 73 279z" />
    <glyph glyph-name="uni02BC" unicode="&#x2bc;" horiz-adv-x="448" 
d="M266 1196l135 414l25 20h285l16 -20l-217 -414l-29 -20h-200z" />
    <glyph glyph-name="circumflex" unicode="&#x2c6;" horiz-adv-x="1046" 
d="M791 1610h32l344 -238l-4 -20l-121 -150h-20l-252 131l-321 -141h-21l-74 160l4 20z" />
    <glyph glyph-name="caron" unicode="&#x2c7;" horiz-adv-x="1032" 
d="M1085 1589h19l74 -159l-4 -21l-431 -238h-32l-346 238l4 21l118 145h21l248 -129z" />
    <glyph glyph-name="breve" unicode="&#x2d8;" horiz-adv-x="831" 
d="M653 1200q-165 0 -262 108q-98 107 -86 267h252q-2 -65 32.5 -105t92.5 -40q109 0 160 145h252q-50 -167 -166 -270q-117 -105 -275 -105z" />
    <glyph glyph-name="dotaccent" unicode="&#x2d9;" horiz-adv-x="587" 
d="M514 1178q-86 0 -146 61q-61 61 -61 145q0 109 79 185t187 76q85 0 147 -62q60 -63 60 -147q0 -110 -78 -183q-80 -75 -188 -75z" />
    <glyph glyph-name="ring" unicode="&#x2da;" horiz-adv-x="737" 
d="M596 1114q-106 0 -180 72q-74 71 -74 180q0 125 89 217t214 92q106 0 180 -71q74 -72 74 -181q0 -125 -89 -217t-214 -92zM612 1317q33 0 58.5 25.5t25.5 60.5q0 30 -19.5 50t-47.5 20q-33 0 -58.5 -26t-25.5 -61q0 -31 19 -50t48 -19z" />
    <glyph glyph-name="ogonek" unicode="&#x2db;" horiz-adv-x="735" 
d="M502 -514q-128 0 -208 67q-81 67 -81 177q-4 71 29.5 134.5t75.5 99.5q20 20 54 45q33 23 38 28l200 -27q-125 -98 -125 -200q0 -47 27 -76t72 -29q38 0 67 16l27 -6l33 -149l-9 -27q-98 -53 -200 -53z" />
    <glyph glyph-name="tilde" unicode="&#x2dc;" horiz-adv-x="1003" 
d="M895 1210q-64 0 -184 40t-158 40q-102 0 -162 -80h-16l-19 17l39 223q94 94 211 94q65 0 176 -40t160 -40q109 0 168 80h14l21 -16l-41 -223q-50 -50 -96 -73q-44 -22 -113 -22z" />
    <glyph glyph-name="hungarumlaut" unicode="&#x2dd;" horiz-adv-x="921" 
d="M246 1192l188 389l31 21h280l13 -21l-269 -389l-30 -21h-199zM666 1192l188 389l31 21h280l15 -21l-271 -389l-30 -21h-199z" />
    <glyph glyph-name="uni0326" unicode="&#x326;" horiz-adv-x="0" 
d="M-514 -555l133 414l27 20h284l15 -20l-211 -414l-29 -20h-205z" />
    <glyph glyph-name="Wgrave" unicode="&#x1e80;" horiz-adv-x="1996" 
d="M1524 1475h-29l-532 219l-5 28l136 224h28l498 -287l6 -29zM1837 1331h387l12 -31l-718 -1300h-252l-140 721l-399 -721h-246l-252 1300l25 31h387l98 -719l371 719h252l113 -737z" />
    <glyph glyph-name="wgrave" unicode="&#x1e81;" horiz-adv-x="1648" 
d="M1255 1171h-20l-516 193l-4 20l147 258h21l473 -276l4 -20zM1452 1024h363l14 -27l-522 -997h-310l-77 514l-263 -514h-319l-150 997l23 27h371l36 -551l265 551h235l80 -543z" />
    <glyph glyph-name="Wacute" unicode="&#x1e82;" horiz-adv-x="1996" 
d="M1624 1694l-532 -219h-29l-102 155l6 29l497 287h29l135 -224zM1837 1331h387l12 -31l-718 -1300h-252l-140 721l-399 -721h-246l-252 1300l25 31h387l98 -719l371 719h252l113 -737z" />
    <glyph glyph-name="wacute" unicode="&#x1e83;" horiz-adv-x="1648" 
d="M1331 1364l-536 -193h-21l-84 175l4 20l514 276h21l106 -258zM1452 1024h363l14 -27l-522 -997h-310l-77 514l-263 -514h-319l-150 997l23 27h371l36 -551l265 551h235l80 -543z" />
    <glyph glyph-name="Wdieresis" unicode="&#x1e84;" horiz-adv-x="1996" 
d="M977 1481q-82 0 -139 58q-58 58 -58 138q0 101 75 175q74 73 177 73q81 0 140 -59q57 -60 57 -140q0 -102 -75 -173q-75 -72 -177 -72zM1507 1481q-82 0 -139 58q-57 59 -57 138q0 101 75 175q73 73 177 73q82 0 139 -59q57 -60 57 -140q0 -102 -75 -173
q-75 -72 -177 -72zM1837 1331h387l12 -31l-718 -1300h-252l-140 721l-399 -721h-246l-252 1300l25 31h387l98 -719l371 719h252l113 -737z" />
    <glyph glyph-name="wdieresis" unicode="&#x1e85;" horiz-adv-x="1648" 
d="M801 1171q-75 0 -127 55q-53 55 -53 128q0 97 70 164q68 67 165 67q74 0 128 -55q54 -56 54 -129q0 -95 -69 -163q-70 -67 -168 -67zM1282 1171q-75 0 -127 55q-53 55 -53 128q0 97 70 164q68 67 165 67q74 0 129 -55q54 -56 54 -129q0 -96 -70 -163t-168 -67zM1452 1024
h363l14 -27l-522 -997h-310l-77 514l-263 -514h-319l-150 997l23 27h371l36 -551l265 551h235l80 -543z" />
    <glyph glyph-name="uni1E9E" unicode="&#x1e9e;" horiz-adv-x="1374" 
d="M1389 1090l-256 -299q126 -27 196 -114.5t70 -217.5q0 -203 -144 -343q-145 -141 -376 -141q-182 0 -269 66l-14 31l152 258l34 12q27 -27 76 -27q61 0 106 42q44 42 44 108q0 47 -34 81t-81 34h-156l45 221l158 178q-33 57 -104 57q-65 0 -107.5 -44t-54.5 -120
l-160 -872h-399l161 881q44 239 209 363q166 124 418 124q165 0 298 -77t188 -201z" />
    <glyph glyph-name="Ygrave" unicode="&#x1ef2;" horiz-adv-x="1355" 
d="M1196 1475h-29l-532 219l-4 28l135 224h29l497 -287l6 -29zM1565 1331l12 -31l-610 -819l-86 -481h-406l88 487l-327 813l24 31h397l168 -471l330 471h410z" />
    <glyph glyph-name="ygrave" unicode="&#x1ef3;" horiz-adv-x="1155" 
d="M1026 1171h-20l-517 193l-4 20l148 258h20l473 -276l4 -20zM965 1024h360l14 -27l-630 -1054q-173 -287 -447 -287q-134 0 -217 47l-8 27l110 241l29 15q41 -23 88 -23q70 0 109 60l55 83l-248 891l23 27h391l94 -522z" />
    <glyph glyph-name="uni1EF8" unicode="&#x1ef8;" horiz-adv-x="1355" 
d="M535 1505h-17l-20 15l45 254q50 55 96 79q46 23 111 23q74 0 221 -43t205 -43q116 0 178 86h16l19 -14l-48 -254q-50 -54 -95 -79q-44 -24 -111 -24q-75 0 -225 43t-199 43q-117 0 -176 -86zM1565 1331l12 -31l-610 -819l-86 -481h-406l88 487l-327 813l24 31h397
l168 -471l330 471h410z" />
    <glyph glyph-name="uni1EF9" unicode="&#x1ef9;" horiz-adv-x="1155" 
d="M451 1210h-17l-18 17l39 223q94 94 211 94q65 0 176 -40t159 -40q109 0 168 80h15l20 -16l-41 -223q-50 -50 -96 -73q-44 -22 -113 -22q-64 0 -184 40t-158 40q-102 0 -161 -80zM965 1024h360l14 -27l-630 -1054q-173 -287 -447 -287q-134 0 -217 47l-8 27l110 241l29 15
q41 -23 88 -23q70 0 109 60l55 83l-248 891l23 27h391l94 -522z" />
    <glyph glyph-name="endash" unicode="&#x2013;" horiz-adv-x="1247" 
d="M180 461l56 307h1052l-55 -307h-1053z" />
    <glyph glyph-name="emdash" unicode="&#x2014;" horiz-adv-x="1503" 
d="M180 461l56 307h1308l-53 -307h-1311z" />
    <glyph glyph-name="quoteleft" unicode="&#x2018;" horiz-adv-x="532" 
d="M399 655q-85 0 -140 58q-56 58 -56 143q0 130 111 281q110 151 255 258h25l63 -74l-4 -27q-137 -128 -153 -209q63 -16 102 -67t39 -119q0 -100 -73 -172t-169 -72z" />
    <glyph glyph-name="quoteright" unicode="&#x2019;" horiz-adv-x="526" 
d="M336 674h-25l-63 74l4 26q138 129 154 209q-63 16 -102.5 67.5t-39.5 118.5q0 100 73 172t169 72q84 0 140 -57q56 -59 56 -144q0 -128 -110 -280q-112 -152 -256 -258z" />
    <glyph glyph-name="quotesinglbase" unicode="&#x201a;" horiz-adv-x="555" 
d="M154 -379h-25l-63 74l4 26q137 128 153 209q-63 16 -102 67.5t-39 119.5q0 100 72 172q71 71 170 71q84 0 140 -57q56 -58 56 -143q0 -129 -110 -281q-112 -152 -256 -258z" />
    <glyph glyph-name="quotedblleft" unicode="&#x201c;" horiz-adv-x="1036" 
d="M403 680q-85 0 -140 58q-56 58 -56 143q0 129 111 281q108 149 255 257h25l64 -73l-5 -27q-137 -128 -153 -209q63 -16 102 -67.5t39 -118.5q0 -100 -73 -172t-169 -72zM909 680q-85 0 -140 58q-56 58 -56 143q0 129 111 281q108 149 255 257h25l63 -73l-4 -27
q-137 -128 -153 -209q63 -16 102 -67.5t39 -118.5q0 -100 -72 -172t-170 -72z" />
    <glyph glyph-name="quotedblright" unicode="&#x201d;" horiz-adv-x="1030" 
d="M336 674h-25l-63 74l4 26q138 129 154 209q-63 16 -102.5 67.5t-39.5 118.5q0 100 73 172t169 72q84 0 140 -57q56 -59 56 -144q0 -128 -110 -280q-112 -152 -256 -258zM842 674h-25l-63 74l4 26q137 128 153 209q-63 16 -102 67.5t-39 118.5q0 100 72 172q70 72 170 72
q84 0 140 -57q56 -59 56 -144q0 -128 -110 -280q-112 -152 -256 -258z" />
    <glyph glyph-name="quotedblbase" unicode="&#x201e;" horiz-adv-x="1058" 
d="M154 -379h-25l-63 74l4 26q137 128 153 209q-63 16 -102 67.5t-39 119.5q0 100 72 172q71 71 170 71q84 0 140 -57q56 -58 56 -143q0 -129 -110 -281q-112 -152 -256 -258zM659 -379h-24l-64 74l4 26q138 129 154 209q-63 16 -102 67.5t-39 119.5q0 100 73 172
q73 71 168 71q84 0 141 -57q56 -58 56 -143q0 -129 -110 -281q-110 -151 -257 -258z" />
    <glyph glyph-name="dagger" unicode="&#x2020;" horiz-adv-x="1169" 
d="M961 1010h309l-51 -287h-310l-188 -1042h-389l188 1042h-309l51 287h309l62 342h389z" />
    <glyph glyph-name="daggerdbl" unicode="&#x2021;" horiz-adv-x="1169" 
d="M1270 1010l-51 -287h-310l-73 -414h309l-51 -286h-310l-63 -342h-389l63 342h-309l51 286h309l74 414h-309l53 287h309l60 342h389l-61 -342h309z" />
    <glyph glyph-name="bullet" unicode="&#x2022;" horiz-adv-x="774" 
d="M465 305q-112 0 -182 73q-72 73 -72 181q0 129 94 222q95 93 219 93q111 0 183 -72q71 -74 71 -181q0 -129 -94 -222q-94 -94 -219 -94z" />
    <glyph glyph-name="ellipsis" unicode="&#x2026;" horiz-adv-x="1751" 
d="M301 -25q-90 0 -150 60q-61 58 -61 147q0 104 78 182t182 78q89 0 151 -59q60 -59 60 -147q0 -104 -78 -182q-78 -79 -182 -79zM891 -25q-90 0 -150 60q-61 58 -61 147q0 104 78 182t182 78q89 0 151 -59q60 -59 60 -147q0 -104 -78 -182q-78 -79 -182 -79zM1479 -25
q-90 0 -150 60q-61 58 -61 147q0 104 78 182q76 78 182 78q89 0 151 -59q60 -59 60 -147q0 -104 -78 -182q-78 -79 -182 -79z" />
    <glyph glyph-name="perthousand" unicode="&#x2030;" horiz-adv-x="2770" 
d="M543 586q-141 0 -230 96q-90 96 -90 256q0 200 119 331q118 130 287 130q141 0 230 -96q89 -98 89 -254q0 -202 -118 -332q-119 -131 -287 -131zM281 -20l-13 28l1303 1364h293l14 -29l-1303 -1363h-294zM565 807q51 0 96 66q44 65 44 159q0 66 -27 106t-72 40
q-58 0 -99 -63q-40 -64 -40 -161q0 -68 26.5 -107.5t71.5 -39.5zM1520 -47q-142 0 -230 96q-90 96 -90 256q0 200 119 331q118 130 287 130q142 0 230 -96q89 -98 89 -254q0 -202 -118 -332q-119 -131 -287 -131zM2349 -47q-141 0 -230 96q-89 97 -89 256q0 200 119 331
q118 130 286 130q141 0 231 -96q89 -98 89 -254q0 -201 -119 -332t-287 -131zM1542 174q52 0 95 66q44 65 44 159q0 68 -26.5 107t-71.5 39q-59 0 -99 -63q-40 -64 -40 -160q0 -68 26.5 -108t71.5 -40zM2372 174q52 0 95 66q44 65 44 159q0 68 -26.5 107t-71.5 39
q-59 0 -99 -63q-41 -65 -41 -160q0 -68 27 -108t72 -40z" />
    <glyph glyph-name="guilsinglleft" unicode="&#x2039;" horiz-adv-x="714" 
d="M659 1079l156 -182v-23l-313 -294l180 -263v-20l-188 -152h-19l-321 451l6 35l481 448h18z" />
    <glyph glyph-name="guilsinglright" unicode="&#x203a;" horiz-adv-x="714" 
d="M442 1079h19l319 -448l-6 -35l-479 -451h-19l-161 183v20l317 297l-180 260v23z" />
    <glyph glyph-name="fraction" unicode="&#x2044;" horiz-adv-x="1239" 
d="M-51 -20l-12 28l1302 1364h293l14 -29l-1302 -1363h-295z" />
    <glyph glyph-name="Euro" unicode="&#x20ac;" horiz-adv-x="1505" 
d="M1038 991q-171 0 -268 -133h385l14 -29l-71 -131h-391q-5 -28 -7 -65h408l16 -29l-63 -131h-324q67 -133 230 -133q158 0 278 129h27l213 -209l-2 -29q-226 -256 -557 -256q-239 0 -405 136q-167 135 -206 362h-165l-15 29l62 131h108l6 65h-112l-15 29l62 131h102
q77 224 269 361q193 137 442 137q338 0 512 -256l-2 -29l-256 -209h-29q-94 129 -246 129z" />
    <glyph glyph-name="trademark" unicode="&#x2122;" horiz-adv-x="1613" 
d="M293 1331h610l-33 -170h-198l-88 -497h-211l90 497h-201zM1274 928l242 403h159l-35 -667h-206l18 278l-166 -278h-110l-72 299l-86 -299h-209l209 667h160z" />
    <glyph glyph-name="minus" unicode="&#x2212;" horiz-adv-x="1253" 
d="M197 520l53 295h1046l-53 -295h-1046z" />
    <glyph glyph-name="approxequal" unicode="&#x2248;" horiz-adv-x="1216" 
d="M956 743q-66 0 -210 36t-207 36q-125 0 -187 -72h-28l-70 189l6 29q35 38 59 56q26 20 99 43q70 21 168 21q84 0 236 -35q148 -36 182 -36q129 0 186 71h29l69 -188l-6 -29q-34 -38 -58 -56q-27 -22 -99 -43q-69 -22 -169 -22zM868 256q-66 0 -210 36t-207 36
q-125 0 -187 -72h-28l-70 188l6 29q34 37 59 57q26 20 99 43q70 21 168 21q88 0 238 -36q149 -36 179 -36q129 0 187 72h28l70 -188l-6 -29q-103 -121 -326 -121z" />
    <glyph glyph-name="notequal" unicode="&#x2260;" horiz-adv-x="1255" 
d="M1372 999l-47 -266h-393l-109 -139h475l-47 -266h-633l-212 -277h-254l-13 29l191 248h-209l47 266h367l106 139h-446l47 266h604l213 277h256l12 -29l-190 -248h235z" />
    <glyph glyph-name="uniF8FF" unicode="&#xf8ff;" horiz-adv-x="2758" 
d="M1523 1210q-35 -36 -87 -36q-54 0 -87 36q-34 34 -34 88q0 52 34 86.5t87 34.5t86.5 -34.5t33.5 -86.5q0 -53 -33 -88zM365 670h-238q0 310 10 446l13 182h194q0 -5 10 -184q9 -170 11 -444zM938 965v170l238 73l8 -61h352q2 -28 4 -56.5t3 -40t1 -12.5q8 -107 8 -368
h-233q0 254 4 295h-117l4 -129q0 -2 4 -2q1 -1 19 -3q9 0 27 5l8 4v-148q-2 -8 -21 -18q-35 -15 -106 -17q-160 0 -160 131q0 7 2 103q0 13 0.5 25.5t0.5 21t0.5 15t0.5 9.5v3h-47zM756 670l-19 118q-26 -131 -151 -131q-181 0 -183 230q0 135 64.5 201.5t206.5 66.5
q119 0 178.5 -57t58.5 -172v-256h-155zM1831 670h-232q0 238 11 370q6 67 12 107h156l6 -51q6 -92 6 -101l4 21q46 139 162 139q81 0 115 -47.5t36 -159.5l4 -278h-229q0 31 2 111q2 78 2 81q0 51 -31 51q-35 0 -34 -51q0 -17 5 -82t5 -110zM2142 901q0 254 246 254
q141 0 195 -67q53 -68 53 -187q0 -116 -62.5 -180t-185.5 -64q-121 0 -183.5 64.5t-62.5 179.5zM664 817q49 0 49 62q0 55 -49 55q-43 0 -43 -55q0 -62 43 -62zM2388 817q49 0 49 62q0 55 -49 55q-47 0 -47 -55q0 -62 47 -62zM123 397v170l248 82l8 -59h338q-2 -52 -2 -107
q-2 -74 -2 -110q0 -52 32 -54q31 0 31 54v7q0 7 -0.5 18.5t-1 25t-0.5 30v29.5q-2 42 -2 107h217l6 -82q6 -78 6 -215q0 -147 -73.5 -214t-233.5 -67q-88 0 -149 21q-28 7 -41 22v170q10 -9 37 -20q44 -17 110 -19q81 0 125 37q20 17 23 37q-2 -2 -5.5 -4t-8.5 -5.5t-9 -6.5
q-33 -14 -94 -15q-190 0 -190 152v16h-93l4 -125q28 0 43 7l15 6v-152q-11 -11 -31 -18q-42 -15 -106 -17q-150 0 -150 131q0 13 0.5 34.5t1 43.5t1 42.5t1.5 34.5v13h-55zM1300 12h-260q0 290 11 420l12 158h160l6 -60q8 -46 8 -94q29 170 160 170q74 0 116.5 -60.5
t42.5 -168.5q0 -135 -67.5 -207t-192.5 -72q0 -12 2 -22q0 -2 1 -27.5t1 -36.5zM2011 281v-150q-4 -4 -35 -16q-46 -15 -112 -17q-135 0 -204 65.5t-69 182.5q0 260 252 260q107 0 168.5 -62t61.5 -171q0 -13 -7 -54l-4 -20h-245q1 -16 12 -25q25 -26 78 -24q52 0 80 14
q18 11 24 17zM2143 465q-23 23 -23 54t23 53t53 22t53 -22t23 -53t-23 -54t-53 -23t-53 23zM2153 476q18 -19 42.5 -19t43.5 19q18 18 18 42.5t-18 43.5q-19 18 -43.5 18t-42.5 -18q-19 -19 -19 -43.5t19 -42.5zM2167 481v76h33q16 0 23.5 -6t6.5 -19q0 -18 -16 -24l16 -27
h-18l-14 23h-15v-23h-16zM2183 518h17q9 0 12.5 6t0 12.5t-12.5 6.5h-17v-25zM1804 350h80v4v4q2 6 2 9q0 39 -37 39q-45 0 -45 -56zM1262 281l4 -17q28 5 39 10q40 23 38 64q0 43 -38 43q-46 0 -48 -62q0 -16 5 -38z" />
    <glyph glyph-name="J.aalt" horiz-adv-x="1069" 
d="M455 1331h739l-129 -721q-62 -343 -195 -488q-135 -147 -413 -147q-127 0 -255 63q-128 62 -182 161l5 28l239 209h29q18 -37 70 -68q52 -32 108 -32q139 0 168 158l92 510h-336z" />
    <glyph glyph-name="Q.aalt" horiz-adv-x="1609" 
d="M1382 -309q-228 0 -403 157q-18 16 -43 41q-24 24 -44 42q-43 39 -95 46q-273 14 -448 189q-177 174 -177 442q0 195 87 354q87 158 239 257q215 137 473 137q289 0 479 -177q190 -178 190 -456q0 -362 -286 -584q-36 -30 -76 -49q5 0 55 -29q59 -33 113 -32q70 0 115 39
l28 -11l76 -252l-16 -28q-104 -86 -267 -86zM885 342q131 0 221 78q125 104 125 274q0 133 -87 214t-216 81q-131 0 -221 -78q-125 -104 -125 -274q0 -133 87 -214t216 -81z" />
    <glyph glyph-name="i.aalt" 
d="M504 1178q-86 0 -146 61q-61 61 -61 145q0 109 79 185t187 76q85 0 147 -62q60 -63 60 -147q0 -110 -78 -183q-80 -75 -188 -75zM510 0h-401l184 1024h401z" />
    <glyph glyph-name="a.salt" horiz-adv-x="1284" 
d="M1020 889l24 135h316l-182 -1024h-318l17 98q-129 -123 -304 -123q-185 0 -313 138q-127 136 -127 329q0 263 157 435q156 172 406 172q209 0 324 -160zM690 307q94 0 149 66q54 65 54 162q0 81 -46 131q-46 51 -116 51q-94 0 -148 -65q-55 -65 -55 -163q0 -81 46 -131
q46 -51 116 -51z" />
    <glyph glyph-name="aacute.aalt" horiz-adv-x="1284" 
d="M1143 1364l-537 -193h-20l-84 175l4 20l514 276h20l107 -258zM1020 889l24 135h316l-182 -1024h-318l17 98q-129 -123 -304 -123q-185 0 -313 138q-127 136 -127 329q0 263 157 435q156 172 406 172q209 0 324 -160zM690 307q94 0 149 66q54 65 54 162q0 81 -46 131
q-46 51 -116 51q-94 0 -148 -65q-55 -65 -55 -163q0 -81 46 -131q46 -51 116 -51z" />
    <glyph glyph-name="abreve.aalt" horiz-adv-x="1284" 
d="M840 1200q-164 0 -262 108q-99 107 -86 267h251q-2 -65 32.5 -105t92.5 -40q109 0 160 145h252q-50 -167 -165 -270q-117 -105 -275 -105zM1020 889l24 135h316l-182 -1024h-318l17 98q-129 -123 -304 -123q-185 0 -313 138q-127 136 -127 329q0 263 157 435
q156 172 406 172q209 0 324 -160zM690 307q94 0 149 66q54 65 54 162q0 81 -46 131q-46 51 -116 51q-94 0 -148 -65q-55 -65 -55 -163q0 -81 46 -131q46 -51 116 -51z" />
    <glyph glyph-name="acircumflex.aalt" horiz-adv-x="1284" 
d="M856 1333l-321 -141h-21l-74 160l4 20l433 238h32l344 -238l-4 -20l-121 -150h-20zM1020 889l24 135h316l-182 -1024h-318l17 98q-129 -123 -304 -123q-185 0 -313 138q-127 136 -127 329q0 263 157 435q156 172 406 172q209 0 324 -160zM690 307q94 0 149 66
q54 65 54 162q0 81 -46 131q-46 51 -116 51q-94 0 -148 -65q-55 -65 -55 -163q0 -81 46 -131q46 -51 116 -51z" />
    <glyph glyph-name="adieresis.aalt" horiz-adv-x="1284" 
d="M612 1171q-75 0 -127 55q-53 55 -53 128q0 97 70 164q68 67 166 67q74 0 128 -55q54 -56 54 -129q0 -96 -70 -163t-168 -67zM1094 1171q-75 0 -127 55q-54 54 -54 128q0 97 70 164t166 67q74 0 128 -55q54 -56 54 -129q0 -95 -69 -163q-70 -67 -168 -67zM1020 889l24 135
h316l-182 -1024h-318l17 98q-129 -123 -304 -123q-185 0 -313 138q-127 136 -127 329q0 263 157 435q156 172 406 172q209 0 324 -160zM690 307q94 0 149 66q54 65 54 162q0 81 -46 131q-46 51 -116 51q-94 0 -148 -65q-55 -65 -55 -163q0 -81 46 -131q46 -51 116 -51z" />
    <glyph glyph-name="agrave.aalt" horiz-adv-x="1284" 
d="M1067 1171h-20l-517 193l-4 20l148 258h20l473 -276l4 -20zM1020 889l24 135h316l-182 -1024h-318l17 98q-129 -123 -304 -123q-185 0 -313 138q-127 136 -127 329q0 263 157 435q156 172 406 172q209 0 324 -160zM690 307q94 0 149 66q54 65 54 162q0 81 -46 131
q-46 51 -116 51q-94 0 -148 -65q-55 -65 -55 -163q0 -81 46 -131q46 -51 116 -51z" />
    <glyph glyph-name="amacron.aalt" horiz-adv-x="1284" 
d="M506 1485h729l-43 -246h-729zM1020 889l24 135h316l-182 -1024h-318l17 98q-129 -123 -304 -123q-185 0 -313 138q-127 136 -127 329q0 263 157 435q156 172 406 172q209 0 324 -160zM690 307q94 0 149 66q54 65 54 162q0 81 -46 131q-46 51 -116 51q-94 0 -148 -65
q-55 -65 -55 -163q0 -81 46 -131q46 -51 116 -51z" />
    <glyph glyph-name="aogonek.aalt" horiz-adv-x="1284" 
d="M1219 -289l26 -6l33 -149l-8 -27q-98 -53 -201 -53q-128 0 -208 67q-81 67 -81 176q0 73 31 132q32 62 59 88q25 27 72 61h-82l17 98q-129 -123 -304 -123q-185 0 -313 138q-127 136 -127 329q0 263 157 435q156 172 406 172q209 0 324 -160l24 135h316l-182 -1024
q-125 -98 -125 -201q0 -47 26.5 -75.5t71.5 -28.5q37 0 68 16zM690 307q94 0 149 66q54 65 54 162q0 81 -46 131q-46 51 -116 51q-94 0 -148 -65q-55 -65 -55 -163q0 -81 46 -131q46 -51 116 -51z" />
    <glyph glyph-name="aring.aalt" horiz-adv-x="1284" 
d="M829 1114q-107 0 -180 72q-74 71 -74 180q0 126 90 217q89 92 214 92q106 0 180 -71q74 -72 74 -181q0 -125 -89 -217q-90 -92 -215 -92zM862 1473q-33 0 -58.5 -26t-25.5 -61q0 -30 19 -49.5t49 -19.5q33 0 58.5 25.5t25.5 60.5q0 31 -19.5 50.5t-48.5 19.5zM1020 889
l24 135h316l-182 -1024h-318l17 98q-129 -123 -304 -123q-185 0 -313 138q-127 136 -127 329q0 263 157 435q156 172 406 172q209 0 324 -160zM690 307q94 0 149 66q54 65 54 162q0 81 -46 131q-46 51 -116 51q-94 0 -148 -65q-55 -65 -55 -163q0 -81 46 -131
q46 -51 116 -51z" />
    <glyph glyph-name="atilde.aalt" horiz-adv-x="1284" 
d="M492 1210h-17l-18 17l39 223q94 94 211 94q65 0 176 -40t159 -40q109 0 168 80h15l20 -16l-41 -223q-50 -50 -96 -73q-44 -22 -113 -22q-64 0 -184 40t-158 40q-102 0 -161 -80zM1020 889l24 135h316l-182 -1024h-318l17 98q-129 -123 -304 -123q-185 0 -313 138
q-127 136 -127 329q0 263 157 435q156 172 406 172q209 0 324 -160zM690 307q94 0 149 66q54 65 54 162q0 81 -46 131q-46 51 -116 51q-94 0 -148 -65q-55 -65 -55 -163q0 -81 46 -131q46 -51 116 -51z" />
    <glyph glyph-name="ae.aalt" horiz-adv-x="1892" 
d="M1540 1049q223 0 335 -157t64 -386q-6 -33 -20 -78h-668q-2 -79 45.5 -124.5t122.5 -45.5q130 0 242 92h29l137 -166l-6 -28q-187 -179 -420 -181q-188 0 -293 131l-23 -131h-239l18 101q-117 -99 -284 -101q-186 0 -313 138q-128 137 -128 329q0 263 157 435t406 172
q195 0 308 -140l24 140h244l-16 -86q119 86 278 86zM1282 614h315q8 67 -28 117q-37 49 -105 49q-60 0 -104 -30q-58 -46 -78 -136zM696 307q94 0 149 66q54 65 54 162q0 81 -46 131q-47 51 -116 51q-94 0 -148 -65q-54 -66 -54 -163q0 -81 46 -131q45 -51 115 -51z" />
    <glyph glyph-name="aeacute.aalt" horiz-adv-x="1892" 
d="M1509 1364l-536 -193h-21l-84 175l4 20l514 276h21l106 -258zM1540 1049q223 0 335 -157t64 -386q-6 -33 -20 -78h-668q-2 -79 45.5 -124.5t122.5 -45.5q130 0 242 92h29l137 -166l-6 -28q-187 -179 -420 -181q-188 0 -293 131l-23 -131h-239l18 101q-117 -99 -284 -101
q-186 0 -313 138q-128 137 -128 329q0 263 157 435t406 172q195 0 308 -140l24 140h244l-16 -86q119 86 278 86zM1282 614h315q8 67 -28 117q-37 49 -105 49q-60 0 -104 -30q-58 -46 -78 -136zM696 307q94 0 149 66q54 65 54 162q0 81 -46 131q-47 51 -116 51
q-94 0 -148 -65q-54 -66 -54 -163q0 -81 46 -131q45 -51 115 -51z" />
    <glyph glyph-name="f_t.dlig" horiz-adv-x="1695" 
d="M1772 737h-285l-55 -303q-19 -121 77 -121q41 0 95 33l26 -14l60 -238l-19 -31q-130 -88 -299 -88q-173 0 -277 104t-67 310l64 348h-334l-133 -737h-402l133 737h-174l51 287h175q34 193 185 318q149 124 349 124q124 0 215 -45l12 -26l-106 -236l-33 -18q-34 25 -84 24
q-53 0 -89 -35.5t-48 -105.5h334l53 297l373 39l26 -19l-57 -317h285z" />
    <glyph glyph-name="ordfeminine.aalt" horiz-adv-x="892" 
d="M942 905q10 0 16 6l15 -8l-4 -164l-13 -18q-55 -31 -118 -31q-104 0 -138 76q-102 -78 -219 -78q-115 0 -184 78q-70 77 -70 197q0 159 111 275q111 114 262 114q109 0 184 -80l13 65h192l-71 -391q-8 -41 24 -41zM571 897q53 0 94 42q40 41 40 103q0 45 -25 73t-66 28
q-54 0 -91 -42q-38 -43 -38 -104q0 -45 23.5 -72.5t62.5 -27.5z" />
    <glyph glyph-name="ampersand.aalt" horiz-adv-x="1378" 
d="M975 807h530l-47 -250h-137q10 -49 10 -86q0 -238 -185 -390q-184 -153 -466 -153q-247 0 -398 122q-151 121 -151 321q0 147 76 264t213 182q-96 79 -96 207q0 176 137 290q137 113 334 113q154 0 249 -50q94 -49 162 -152l-2 -29l-194 -139h-29q-57 104 -174 104
q-68 0 -113 -39t-45 -90q0 -45 32.5 -71.5t86.5 -26.5h88l-47 -285h-55q-105 0 -175 -64q-71 -65 -71 -165q0 -84 55 -134t148 -50q103 0 173 63t70 162q0 55 -26 96z" />
    <glyph glyph-name="glyph370" horiz-adv-x="0" 
d="M-281 1065l144 430l24 21h285l16 -21l-233 -430l-29 -21h-192z" />
    <glyph glyph-name="acute.aalt" horiz-adv-x="755" 
d="M319 1331l498 287h29l135 -223l-4 -29l-533 -219h-28l-103 156z" />
    <glyph glyph-name="breve.aalt" horiz-adv-x="907" 
d="M686 1178q-164 0 -256 107t-80 267h252q-4 -69 26.5 -107t88.5 -38q112 0 149 145h252q-50 -169 -161 -271q-112 -103 -271 -103z" />
    <glyph glyph-name="caron.aalt" horiz-adv-x="974" 
d="M1075 1618h29l59 -150l-4 -28l-438 -236h-31l-356 236l4 28l100 129h29l258 -133z" />
    <glyph glyph-name="circumflex.aalt" horiz-adv-x="974" 
d="M766 1632h31l364 -235l-4 -29l-117 -149h-28l-256 133l-353 -154h-28l-68 170l4 29z" />
    <glyph glyph-name="dieresis.aalt" horiz-adv-x="1161" 
d="M537 1178q-82 0 -139 58q-58 58 -58 138q0 102 75 175q73 73 177 73q82 0 139 -59q57 -60 57 -140q0 -102 -74 -173q-75 -72 -177 -72zM1067 1178q-82 0 -139 58q-58 58 -58 138q0 102 75 175q74 73 177 73q81 0 140 -59q57 -60 57 -140q0 -103 -75 -173
q-75 -72 -177 -72z" />
    <glyph glyph-name="dotaccent.aalt" horiz-adv-x="624" 
d="M535 1178q-86 0 -146 61q-61 61 -61 145q0 109 79 185q77 76 187 76q85 0 147 -62q60 -63 60 -147q0 -110 -78 -183q-79 -75 -188 -75z" />
    <glyph glyph-name="grave.aalt" horiz-adv-x="757" 
d="M449 1618h28l498 -287l6 -28l-102 -156h-29l-533 219l-4 29z" />
    <glyph glyph-name="hungarumlaut.aalt" horiz-adv-x="1077" 
d="M270 1174l254 354h307l11 -23l-338 -358h-223zM696 1174l254 354h305l13 -23l-338 -358h-223z" />
    <glyph glyph-name="macron.aalt" horiz-adv-x="917" 
d="M297 1206l47 269h758l-47 -269h-758z" />
    <glyph glyph-name="ring.aalt" horiz-adv-x="716" 
d="M586 1135q-104 0 -176 72q-72 71 -72 179q0 122 92 217q91 93 217 93q104 0 176 -72t72 -180q0 -122 -92 -216q-91 -93 -217 -93zM608 1337q33 0 58.5 26t25.5 60q0 30 -19.5 50t-47.5 20q-33 0 -58.5 -25.5t-25.5 -60.5q0 -31 19 -50.5t48 -19.5z" />
    <glyph glyph-name="tilde.aalt" horiz-adv-x="1040" 
d="M981 1202q-75 0 -225 43t-199 43q-117 0 -176 -86h-16l-21 15l45 253q50 55 96 79q45 24 111 24q74 0 222 -43q147 -43 204 -43q116 0 178 86h17l18 -14l-47 -254q-50 -54 -95 -79q-43 -24 -112 -24z" />
    <glyph glyph-name="glyph382" horiz-adv-x="1658" 
d="M367 1475h-29l-62 155l7 29l538 307h29l94 -244l-4 -28zM1417 1475h-28l-64 155l6 29l539 307h28l95 -244l-4 -28zM535 0h-406l240 1331h405zM1231 494l151 837h404l-129 -721q-62 -343 -195 -488q-135 -147 -413 -147q-127 0 -255 63q-128 62 -182 161l4 28l240 209h29
q18 -37 70 -68q52 -32 108 -32q139 0 168 158z" />
    <glyph glyph-name="glyph383" horiz-adv-x="1662" 
d="M365 1475h-29l-62 155l7 29l538 307h29l94 -244l-4 -28zM1229 1475h-29l-63 155l6 29l538 307h29l94 -244l-4 -28zM532 0h-405l242 1331h405zM1049 1331h739l-129 -721q-62 -343 -195 -488q-135 -147 -413 -147q-127 0 -255 63q-128 62 -182 161l4 28l240 209h29
q18 -37 70 -68q52 -32 108 -32q139 0 168 158l92 510h-336z" />
    <glyph glyph-name="glyph384" horiz-adv-x="1325" 
d="M993 1171h-20l-53 175l4 20l555 281h20l86 -263l-4 -20zM293 1171h-21l-63 175l4 20l535 276h20l86 -258l-4 -20zM510 0h-401l184 1024h401zM766 -367h-29l-102 287l6 29q135 68 170 131q34 63 72 278l118 666h402l-129 -719q-23 -130 -42 -203q-18 -71 -53 -151
q-35 -78 -86 -126q-106 -101 -327 -192z" />
    <glyph glyph-name="glyph385" horiz-adv-x="1562" 
d="M446 -121h-362l-14 31l1314 1581h359l14 -31z" />
    <glyph glyph-name="glyph386" horiz-adv-x="1280" 
d="M422 49h-354l-13 29l1051 1231h352l12 -29z" />
    <glyph glyph-name="glyph387" horiz-adv-x="897" 
d="M1044 1047l-57 -324l-860 -395l-25 16l58 324l860 395z" />
    <glyph glyph-name="glyph388" horiz-adv-x="886" 
d="M936 725l-762 -371l-27 19l46 260l763 371l27 -19z" />
    <glyph glyph-name="glyph389" horiz-adv-x="1517" 
d="M213 897l43 246h1386l-45 -246h-1384z" />
    <glyph glyph-name="glyph390" horiz-adv-x="813" 
d="M856 565h-694l35 201h694z" />
    </font>
</defs>
</svg>
