<?xml version="1.0" standalone="no"?>
<!DOCTYPE svg PUBLIC "-//W3C//DTD SVG 1.1//EN" "http://www.w3.org/Graphics/SVG/1.1/DTD/svg11.dtd" >
<svg xmlns="http://www.w3.org/2000/svg" xmlns:xlink="http://www.w3.org/1999/xlink" version="1.1">
<metadata>
Created by FontForge 20190801 at Tue Sep 12 22:01:45 2017
 By Jimmy Wärting
Copyright (c) 2017 by Enrique Hernandez Vasquez. All rights reserved.
</metadata>
<defs>
<font id="IsidoraSans-LightItalic" horiz-adv-x="432" >
  <font-face 
    font-family="Isidora Sans Light Italic"
    font-weight="300"
    font-style="italic"
    font-stretch="normal"
    units-per-em="2048"
    panose-1="0 0 4 0 0 0 0 0 0 0"
    ascent="1638"
    descent="-410"
    x-height="1024"
    cap-height="1331"
    bbox="-338 -406 2636 1786"
    underline-thickness="0"
    underline-position="0"
    unicode-range="U+0020-FB02"
  />
<missing-glyph horiz-adv-x="851" 
d="M158 1397h540v-1704h-540v1704zM567 1227v55h-280v-55h110v-64h-112v-55h282v55h-112v64h112zM455 944v119h-170v-178h282v59h-112zM340 1006h57v-62h-57v62zM567 782v58h-282v-58h112v-61h-112v-57h170v118h112zM567 567v170h-55v-112h-227v-58h282zM567 336v194h-170
v-96h58v39h57v-80h-172v137h-55v-194h282zM567 43v193h-282v-193h282zM340 178h172v-80h-172v80zM567 -53v55h-282v-55h118l-118 -80v-57h282v57h-174l119 80h55z" />
    <glyph glyph-name="uniFB01" unicode="fi" horiz-adv-x="993" 
d="M485 1024h516l-184 -1024h-76l170 954h-438l-170 -954h-78l172 954h-176l10 70h179l8 43q63 350 346 350q81 0 137 -28v-9l-33 -51l-10 -2q-46 19 -104 21q-111 0 -172 -69.5t-88 -211.5zM1018 1362q29 0 51.5 -21.5t22.5 -50.5q0 -41 -28 -69.5t-67 -28.5
q-31 0 -53 21.5t-22 50.5q0 41 28.5 69.5t67.5 28.5z" />
    <glyph glyph-name="uniFB02" unicode="fl" horiz-adv-x="1019" 
d="M1014 1393l69 8l9 -6l-250 -1395h-78l221 1229q-45 119 -205 119q-104 0 -182 -72q-77 -71 -100 -195l-11 -57h320l-12 -68h-320l-172 -956h-78l174 956h-178l10 68h181l10 57q27 155 128 246q100 90 241 90q143 0 210 -90z" />
    <glyph glyph-name=".notdef" horiz-adv-x="851" 
d="M158 1397h540v-1704h-540v1704zM567 1227v55h-280v-55h110v-64h-112v-55h282v55h-112v64h112zM455 944v119h-170v-178h282v59h-112zM340 1006h57v-62h-57v62zM567 782v58h-282v-58h112v-61h-112v-57h170v118h112zM567 567v170h-55v-112h-227v-58h282zM567 336v194h-170
v-96h58v39h57v-80h-172v137h-55v-194h282zM567 43v193h-282v-193h282zM340 178h172v-80h-172v80zM567 -53v55h-282v-55h118l-118 -80v-57h282v57h-174l119 80h55z" />
    <glyph glyph-name="glyph1" horiz-adv-x="0" 
 />
    <glyph glyph-name="glyph2" horiz-adv-x="681" 
 />
    <glyph glyph-name="space" unicode=" " horiz-adv-x="522" 
 />
    <glyph glyph-name="exclam" unicode="!" horiz-adv-x="466" 
d="M307 244h-59l-4 8l182 1073l8 6h80l2 -6l-203 -1073zM236 -25q-32 0 -54 22.5t-22 53.5q0 37 27 64.5t65 27.5q33 0 53.5 -21t20.5 -54q0 -37 -27.5 -65t-62.5 -28z" />
    <glyph glyph-name="quotedbl" unicode="&#x22;" horiz-adv-x="561" 
d="M352 864h-47l66 467h86zM567 864h-47l66 467h86z" />
    <glyph glyph-name="numbersign" unicode="#" horiz-adv-x="1116" 
d="M326 0h-74l129 406h-240l21 65h239l125 389h-250l21 66h250l125 403h71l-125 -403h318l127 403h72l-127 -403h204l-20 -66h-207l-121 -389h211l-22 -65h-209l-127 -406h-74l129 406h-319zM598 860l-123 -389h318l120 389h-315z" />
    <glyph glyph-name="dollar" unicode="$" horiz-adv-x="892" 
d="M731 1403l-24 -139q183 -17 256 -146l-2 -8l-52 -43h-8q-66 127 -246 127q-120 0 -196 -70q-78 -70 -78 -176q0 -71 43 -111q43 -41 139 -94q21 -11 71 -34q59 -29 77 -39q4 -3 24.5 -16.5t36.5 -24.5q41 -29 59 -54q15 -24 33 -67q15 -41 15 -88q0 -144 -101 -236
q-103 -92 -266 -98l-23 -135h-71l24 137q-102 12 -186 69q-83 55 -127 140l2 8l55 41h9q40 -84 125 -135q82 -51 180 -51q135 0 216 72q81 70 81 182q0 92 -64 142q-32 27 -60 43q-29 17 -81 41q-56 26 -78 36q-99 50 -157 110q-58 58 -58 154q0 135 94 225q95 91 242 101
l24 137h72z" />
    <glyph glyph-name="percent" unicode="%" horiz-adv-x="1507" 
d="M496 588q-108 0 -173 84q-65 85 -65 227q0 182 90 320q90 137 234 137q106 0 171 -84q64 -83 64 -225q-1 -185 -90 -322t-231 -137zM199 0l-2 8l1241 1323h82l2 -8l-1239 -1323h-84zM500 657q110 0 177 115q68 116 68 270q0 115 -45.5 180.5t-126.5 65.5
q-108 0 -176 -114q-68 -116 -69 -271q0 -115 45.5 -180.5t126.5 -65.5zM1149 -25q-109 0 -173 84q-65 85 -65 226q0 185 91 321q90 137 235 137q105 0 170 -84q63 -84 63 -227q0 -184 -88 -320q-89 -137 -233 -137zM1155 43q109 0 177 116q67 115 67 271q0 114 -45 179
t-125 65q-110 0 -177 -115q-69 -116 -69 -268q0 -116 45.5 -182t126.5 -66z" />
    <glyph glyph-name="ampersand" unicode="&#x26;" horiz-adv-x="1247" 
d="M1210 59l7 -4l8 -53l-4 -8q-32 -17 -82 -19q-96 0 -168 105q-151 -109 -340 -109q-201 0 -334 117t-133 299q0 144 89 269q89 124 234 192q-21 44 -28 67q-11 44 -13 95q0 152 102 249q100 97 261 97q91 0 169 -40.5t126 -111.5v-8l-55 -43h-9q-84 129 -237 129
q-122 0 -201 -74q-78 -75 -78 -188q0 -92 92 -232l377 -593q125 130 125 294q0 120 -61 199v8l59 43h8q74 -103 74 -241q0 -209 -164 -367q57 -86 117 -86q36 0 59 14zM244 391q0 -152 112 -249q110 -97 279 -97q163 0 297 96l-318 494l-92 153q-123 -58 -200 -166
q-78 -108 -78 -231z" />
    <glyph glyph-name="quotesingle" unicode="'" horiz-adv-x="344" 
d="M352 864h-47l66 467h86z" />
    <glyph glyph-name="parenleft" unicode="(" horiz-adv-x="518" 
d="M272 432q0 -177 45 -356q45 -178 127 -314h-90q-162 286 -161 674q0 555 471 1075h94q-486 -501 -486 -1079z" />
    <glyph glyph-name="parenright" unicode=")" horiz-adv-x="518" 
d="M84 -238h-100q489 506 489 1082q0 175 -44 356q-43 177 -126 311h92q160 -286 160 -671q0 -560 -471 -1078z" />
    <glyph glyph-name="asterisk" unicode="*" horiz-adv-x="903" 
d="M598 633h-70l58 309l-289 -154l-25 60l293 158l-237 153l45 58l233 -154l56 309h69l-55 -309l291 156l24 -60l-295 -155l238 -158l-43 -58l-238 156z" />
    <glyph glyph-name="plus" unicode="+" horiz-adv-x="1058" 
d="M686 649h424l-12 -67h-424l-76 -420h-76l76 420h-428l10 67h430l76 416h74z" />
    <glyph glyph-name="comma" unicode="," horiz-adv-x="380" 
d="M68 -268h-9l-24 22v8q121 135 151 213q-27 0 -47 22t-20 54q0 37 26.5 63.5t67.5 26.5q33 0 54.5 -23t21.5 -59q0 -95 -221 -327z" />
    <glyph glyph-name="hyphen" unicode="-" horiz-adv-x="956" 
d="M244 582l12 65h676l-10 -65h-678z" />
    <glyph glyph-name="period" unicode="." horiz-adv-x="401" 
d="M201 -25q-32 0 -54 22.5t-22 53.5q0 37 27.5 64.5t64.5 27.5q33 0 54.5 -21.5t21.5 -53.5q0 -37 -27.5 -65t-64.5 -28z" />
    <glyph glyph-name="slash" unicode="/" horiz-adv-x="974" 
d="M29 -100l1083 1542h72l2 -6l-1082 -1545h-71z" />
    <glyph glyph-name="zero" unicode="0" horiz-adv-x="1191" 
d="M629 -25q-190 0 -301 147q-111 146 -111 392q0 214 70 403q70 190 208 314q139 125 314 125q190 0 301 -145t111 -394q0 -213 -69 -402q-69 -191 -207 -315q-139 -125 -316 -125zM637 49q153 0 269 115q117 117 175 286q58 170 58 357q0 219 -89 347t-247 128
q-152 0 -269 -114q-118 -115 -175 -286q-58 -170 -58 -358q0 -219 89 -347t247 -128z" />
    <glyph glyph-name="one" unicode="1" horiz-adv-x="548" 
d="M281 1257l12 74h291l-240 -1331h-78l226 1257h-211z" />
    <glyph glyph-name="two" unicode="2" horiz-adv-x="968" 
d="M688 508q-200 -186 -489 -438h696l-12 -70h-811l10 61q309 264 541 484q172 163 242 271q71 110 71 226q0 111 -74 176q-73 64 -188 64q-185 0 -346 -174h-9l-40 43l2 8q180 197 401 197q145 0 241 -84q95 -84 95 -219q0 -130 -77 -254q-75 -121 -253 -291z" />
    <glyph glyph-name="three" unicode="3" horiz-adv-x="1003" 
d="M758 725q100 -37 156.5 -118t56.5 -191q0 -221 -178 -348q-129 -91 -299 -93q-121 0 -227 47q-108 46 -173 138l2 8l54 43h8q53 -81 147 -121q96 -41 197 -41q164 0 276 103q111 102 111 258q0 134 -88 207t-232 73h-77l10 64h84q135 0 247 91q111 91 111 224
q0 94 -72 154q-74 59 -180 59q-165 0 -313 -137h-8l-41 43l2 8q179 160 368 160q139 0 232 -78q92 -78 92 -203q0 -118 -74 -213q-74 -93 -192 -137z" />
    <glyph glyph-name="four" unicode="4" horiz-adv-x="1052" 
d="M1012 1331h41l-164 -905h164l-13 -70h-163l-66 -356h-78l66 356h-697l11 62zM944 1161l-721 -735h590z" />
    <glyph glyph-name="five" unicode="5" horiz-adv-x="1054" 
d="M1098 1331l-17 -74h-583l-146 -489q145 94 310 94q185 0 292 -107q105 -108 105 -278q0 -113 -46 -214t-128 -169q-140 -119 -348 -119q-120 0 -230 49q-113 48 -174 136v8l51 43l9 -2q53 -75 145.5 -117.5t200.5 -42.5q184 0 305 109q133 123 133 313q0 143 -87 230
t-241 87q-105 0 -197 -43q-93 -43 -149 -108h-8l-53 29l200 665h656z" />
    <glyph glyph-name="six" unicode="6" horiz-adv-x="1077" 
d="M688 858q178 0 291 -108q113 -110 113 -281q0 -211 -144 -352q-145 -142 -360 -142q-188 0 -305 108q-117 107 -117 286q0 295 338 675q110 126 315 316h10l43 -41v-8q-186 -167 -309 -303q-133 -149 -205 -275q145 125 330 125zM592 49q178 0 299 118t121 294
q0 143 -94 233t-246 90q-176 0 -300 -117q-124 -118 -124 -294q0 -143 95 -233q94 -91 249 -91z" />
    <glyph glyph-name="seven" unicode="7" horiz-adv-x="886" 
d="M236 1257l14 74h835l-10 -49l-784 -1282h-86l-2 6l768 1251h-735z" />
    <glyph glyph-name="eight" unicode="8" horiz-adv-x="1120" 
d="M858 754q110 -39 173 -124.5t63 -197.5q0 -205 -146 -331q-147 -126 -370 -126q-180 0 -296 101t-116 254q0 147 94 262q95 116 244 162q-146 76 -148 237q0 153 119 260q119 105 287 105q144 0 233 -79q90 -80 90 -202q0 -106 -62 -192q-63 -85 -165 -129zM438 1001
q0 -96 69 -156q67 -61 179 -61q130 0 225 81q93 81 93 202q0 94 -70 155q-70 60 -180 60q-132 0 -223 -81q-93 -81 -93 -200zM588 49q186 0 306 105q120 104 120 270q0 126 -94 208q-95 83 -244 83q-175 0 -302 -107q-126 -108 -126 -266q0 -127 95 -210t245 -83z" />
    <glyph glyph-name="nine" unicode="9" horiz-adv-x="1075" 
d="M733 1356q181 0 296 -107q114 -108 114 -284q0 -303 -342 -703q-91 -106 -285 -293h-8l-45 43l2 8q152 142 268 271q157 182 236 321q-151 -139 -334 -139t-296 109q-114 108 -114 276q0 214 148 356q146 142 360 142zM639 547q177 0 301 120q125 119 125 296
q0 142 -94 230q-95 89 -244 89q-176 0 -299 -120t-123 -294q0 -141 94 -231q93 -90 240 -90z" />
    <glyph glyph-name="colon" unicode=":" horiz-adv-x="448" 
d="M385 864q-33 0 -54.5 21.5t-21.5 54.5q0 37 28 64.5t64 27.5q33 0 54.5 -21.5t21.5 -54.5q0 -37 -27.5 -64.5t-64.5 -27.5zM227 -25q-32 0 -53.5 22.5t-21.5 53.5q0 37 27.5 64.5t64.5 27.5q33 0 53 -21t20 -54q0 -37 -27.5 -65t-62.5 -28z" />
    <glyph glyph-name="semicolon" unicode=";" horiz-adv-x="499" 
d="M422 864q-33 0 -54.5 21.5t-21.5 54.5q0 37 27.5 64.5t64.5 27.5q33 0 54.5 -21.5t21.5 -54.5q0 -37 -27.5 -64.5t-64.5 -27.5zM131 -268h-8l-25 22v8q124 147 152 213q-28 0 -48 22t-20 54q0 37 27.5 63.5t66.5 26.5q33 0 53.5 -22.5t20.5 -59.5q0 -97 -219 -327z" />
    <glyph glyph-name="less" unicode="&#x3c;" horiz-adv-x="940" 
d="M1014 1135l6 -7l-12 -79l-725 -394l581 -391l-14 -74l-8 -6l-668 449l10 53z" />
    <glyph glyph-name="equal" unicode="=" horiz-adv-x="1212" 
d="M287 786l12 68h924l-13 -68h-923zM213 375l12 69h924l-12 -69h-924z" />
    <glyph glyph-name="greater" unicode="&#x3e;" horiz-adv-x="937" 
d="M326 1128l8 7l667 -449l-8 -53l-829 -449l-8 6l14 80l725 394l-584 391z" />
    <glyph glyph-name="question" unicode="?" horiz-adv-x="964" 
d="M567 254h-78l19 102q27 161 194 301q21 18 63 53q18 15 40 33.5t27 22.5q18 16 54 54q37 39 50 66q16 33 28 69q13 40 13 85q0 111 -76.5 176.5t-208.5 65.5q-114 0 -221 -78q-105 -77 -160 -200l-10 -3l-57 19l-2 8q62 146 191 237q130 91 276 91q162 0 257 -83t95 -220
q0 -93 -49 -183q-20 -35 -58 -76q-39 -42 -62 -62q-8 -7 -74 -63q-49 -41 -68 -59q-74 -63 -113 -120.5t-53 -131.5zM489 -25q-32 0 -53.5 22.5t-21.5 53.5q0 37 27.5 64.5t64.5 27.5q33 0 54.5 -21.5t21.5 -53.5q0 -37 -28 -65t-65 -28z" />
    <glyph glyph-name="at" unicode="@" horiz-adv-x="1720" 
d="M840 -248q-283 0 -472 180q-190 181 -190 457q0 373 255 628t626 255q288 0 475 -176q186 -176 186 -447q0 -236 -104 -379q-105 -143 -264 -143q-88 0 -132 51t-36 144q-123 -185 -332 -187q-137 0 -221 88q-84 89 -84 221q0 182 120 311q119 128 300 128q103 0 176 -50
t100 -135l31 174h63l-88 -491q-18 -94 12.5 -142.5t100.5 -48.5q124 0 204 131q79 130 79 324q0 246 -166 403q-166 156 -424 156q-338 0 -569 -232q-232 -232 -232 -577q0 -252 166 -414q167 -161 426 -161q210 0 391 121h8l27 -45v-11q-196 -133 -432 -133zM866 195
q144 0 244 109q100 107 100 261q0 113 -69 185q-71 71 -180 71q-145 0 -244 -109q-99 -110 -99 -261q0 -111 69 -183q67 -73 179 -73z" />
    <glyph glyph-name="A" unicode="A" horiz-adv-x="1306" 
d="M868 1331h50l344 -1323l-7 -8h-73l-84 330h-764l-203 -330h-80l-4 8zM874 1204l-495 -803h700z" />
    <glyph glyph-name="B" unicode="B" horiz-adv-x="1214" 
d="M967 694q100 -35 155.5 -109.5t55.5 -176.5q0 -182 -132 -295q-134 -113 -346 -113h-499l239 1331h447q162 0 253 -76t91 -208q0 -130 -73 -221q-73 -93 -191 -132zM879 1260h-373l-94 -535h379q157 0 258 86q100 85 100 225q0 105 -71 164.5t-199 59.5zM295 72h420
q171 0 277 94t106 244q0 112 -81 179q-82 68 -216 68h-402z" />
    <glyph glyph-name="C" unicode="C" horiz-adv-x="1404" 
d="M848 -25q-277 0 -455 181q-180 180 -180 454q0 161 62 308q62 146 176 247q207 189 514 191q169 0 309 -69q139 -70 211 -187v-8l-58 -39h-8q-65 105 -186 167q-122 60 -272 60q-273 0 -461 -174q-207 -195 -207 -494q0 -242 159 -401q157 -160 400 -160q286 0 491 219h9
l47 -43v-8q-226 -244 -551 -244z" />
    <glyph glyph-name="D" unicode="D" horiz-adv-x="1443" 
d="M440 1331h488q264 0 405 -145q140 -146 140 -398q0 -359 -208 -573q-209 -215 -571 -215h-493zM295 72h403q326 0 510 195q183 193 183 515q0 224 -120 351t-351 127h-412z" />
    <glyph glyph-name="E" unicode="E" horiz-adv-x="1122" 
d="M1276 1331l-14 -71h-754l-98 -551h598l-13 -72h-600l-102 -565h756l-13 -72h-835l239 1331h836z" />
    <glyph glyph-name="F" unicode="F" horiz-adv-x="1024" 
d="M1229 1331l-15 -71h-706l-98 -551h559l-15 -70h-559l-112 -639h-82l239 1331h789z" />
    <glyph glyph-name="G" unicode="G" horiz-adv-x="1495" 
d="M834 -25q-272 0 -449 181q-178 179 -178 454q0 342 237 555q207 189 514 191q166 0 305 -76q138 -77 214 -197v-8l-56 -39h-8q-67 109 -188 177q-121 67 -269 67q-276 0 -462 -174q-207 -195 -207 -494q0 -242 156 -401q154 -160 395 -160q243 4 401 144q169 147 219 419
h-569l14 72h635l8 -8q0 -13 -2 -27q-46 -334 -252 -514q-178 -162 -458 -162z" />
    <glyph glyph-name="H" unicode="H" horiz-adv-x="1413" 
d="M1257 709l113 622h80l-240 -1331h-80l115 637h-850l-112 -637h-82l239 1331h82l-112 -622h847z" />
    <glyph glyph-name="I" unicode="I" horiz-adv-x="483" 
d="M201 0l239 1331h82l-239 -1331h-82z" />
    <glyph glyph-name="J" unicode="J" horiz-adv-x="960" 
d="M758 360l174 971h80l-174 -975q-33 -177 -148 -278q-115 -103 -272 -103q-123 0 -214.5 54.5t-133.5 148.5l2 8l55 39h8q35 -82 111 -129t174 -47q128 0 220 84q91 83 118 227z" />
    <glyph glyph-name="K" unicode="K" horiz-adv-x="1144" 
d="M1358 1331l4 -8l-684 -578l436 -737l-6 -8h-84l-408 694l-245 -207l-88 -487h-82l239 1331h82l-133 -737l873 737h96z" />
    <glyph glyph-name="L" unicode="L" horiz-adv-x="995" 
d="M293 72h682l-12 -72h-762l239 1331h82z" />
    <glyph glyph-name="M" unicode="M" horiz-adv-x="1613" 
d="M829 131l697 1200h51l-96 -1331h-78l82 1126l-651 -1126h-52l-245 1133l-326 -1133h-78l385 1331h49z" />
    <glyph glyph-name="N" unicode="N" horiz-adv-x="1409" 
d="M1153 129l217 1202h78l-244 -1351h-49l-661 1198l-213 -1178h-80l239 1331h52z" />
    <glyph glyph-name="O" unicode="O" horiz-adv-x="1564" 
d="M846 -25q-277 0 -455 181q-180 180 -180 454q0 161 62 308q62 146 176 247q207 189 514 191q277 0 455 -180q179 -182 179 -455q0 -163 -61 -307q-62 -148 -176 -248q-209 -191 -514 -191zM850 51q274 0 461 174q207 195 207 494q0 241 -159 402q-159 159 -401 159
q-274 0 -460 -174q-207 -195 -207 -494q0 -242 159 -401q157 -160 400 -160z" />
    <glyph glyph-name="P" unicode="P" horiz-adv-x="1150" 
d="M440 1331h459q171 0 269 -89q96 -89 96 -236q0 -202 -134 -327q-134 -124 -358 -124h-391l-98 -555h-82zM393 625h404q170 0 278 105q107 104 107 269q0 122 -72.5 191.5t-202.5 69.5h-399z" />
    <glyph glyph-name="Q" unicode="Q" horiz-adv-x="1609" 
d="M963 1356q277 0 455 -180q179 -182 179 -455q0 -163 -61 -307q-62 -148 -176 -248q-117 -110 -277 -156l199 -278l-6 -8h-90l-193 266q-66 -14 -147 -15q-277 0 -455 181q-180 180 -180 454q0 161 62 308q62 146 176 247q209 191 514 191zM1311 225q207 195 207 494
q0 241 -159 402q-159 159 -401 159q-274 0 -460 -174q-207 -195 -207 -494q0 -242 159 -401q157 -160 400 -160q275 0 461 174z" />
    <glyph glyph-name="R" unicode="R" horiz-adv-x="1210" 
d="M1284 1022q0 -167 -101 -282t-278 -142l187 -590l-9 -8h-75l-187 590h-22h-412l-104 -590h-82l239 1331h490q170 0 262 -84t92 -225zM399 659h428q169 0 272 102q103 100 103 255q0 114 -71 179t-201 65h-422z" />
    <glyph glyph-name="S" unicode="S" horiz-adv-x="1042" 
d="M563 -25q-150 0 -272 71q-122 70 -180 181v9l57 43h8q53 -105 159 -166q106 -62 230 -62q166 0 271 81q104 81 104 212q0 81 -42 130q-9 11 -23 27t-18 21q-14 16 -61 44q-14 8 -35 19.5t-28 15.5q-20 11 -76 38q-16 8 -32.5 15.5t-26 12.5t-14.5 7q-44 24 -98 56
q-39 24 -81 61q-86 73 -86 204q0 158 120 260q121 101 309 101q121 0 219.5 -48t152.5 -137v-8l-53 -43h-6q-47 75 -133.5 117.5t-188.5 42.5q-150 0 -245 -80t-95 -199q0 -87 59 -143q58 -55 179 -115q4 -3 57 -28l41 -20.5t22 -10.5q10 -6 55 -29q47 -26 58 -37
q17 -17 46 -38q15 -12 27 -25t17 -20.5t16 -26t15 -25.5q29 -50 29 -131q0 -172 -129 -274q-128 -103 -328 -103z" />
    <glyph glyph-name="T" unicode="T" horiz-adv-x="1046" 
d="M1245 1260h-459l-225 -1260h-80l226 1260h-453l14 71h992z" />
    <glyph glyph-name="U" unicode="U" horiz-adv-x="1419" 
d="M276 520l146 811h80l-146 -809q-39 -211 68 -342t313 -131q201 0 338 129q138 130 178 344l144 809h80l-146 -811q-45 -250 -204 -397q-160 -148 -396 -148q-240 0 -369 151q-129 150 -86 394z" />
    <glyph glyph-name="V" unicode="V" horiz-adv-x="1275" 
d="M1378 1331h86l4 -8l-804 -1323h-50l-327 1323l8 8h74l288 -1192z" />
    <glyph glyph-name="W" unicode="W" horiz-adv-x="1884" 
d="M1987 1331h81l3 -8l-711 -1323h-51l-156 1169l-575 -1169h-50l-237 1323l8 8h80l201 -1167l573 1167h51l156 -1175z" />
    <glyph glyph-name="X" unicode="X" horiz-adv-x="1128" 
d="M1313 1331l4 -8l-584 -655l365 -660l-6 -8h-80l-338 606l-549 -606h-92l-2 8l608 666l-344 649l6 8h80l313 -598l529 598h90z" />
    <glyph glyph-name="Y" unicode="Y" horiz-adv-x="1218" 
d="M1389 1331l2 -8l-650 -815l-92 -508h-80l93 514l-359 809l6 8h78l324 -745l587 745h91z" />
    <glyph glyph-name="Z" unicode="Z" horiz-adv-x="1073" 
d="M322 1331h905l-8 -49l-1047 -1212h870l-12 -70h-981l8 49l1047 1213h-795z" />
    <glyph glyph-name="bracketleft" unicode="[" horiz-adv-x="528" 
d="M743 1511l-10 -67h-203l-290 -1614h202l-12 -68h-278l313 1749h278z" />
    <glyph glyph-name="backslash" unicode="\" horiz-adv-x="972" 
d="M311 1442h70l528 -1542l-6 -9h-72l-526 1543z" />
    <glyph glyph-name="bracketright" unicode="]" horiz-adv-x="526" 
d="M518 1444h-203l11 67h280l-313 -1749h-281l13 68h202z" />
    <glyph glyph-name="asciicircum" unicode="^" horiz-adv-x="1146" 
d="M791 1331h49l338 -766l-4 -8h-76l-301 678l-547 -678h-74l-4 8z" />
    <glyph glyph-name="underscore" unicode="_" horiz-adv-x="1015" 
d="M47 -201l10 66h852l-10 -66h-852z" />
    <glyph glyph-name="grave" unicode="`" horiz-adv-x="536" 
d="M336 1454h6l365 -262v-6l-29 -39h-6l-377 246v6z" />
    <glyph glyph-name="a" unicode="a" horiz-adv-x="1075" 
d="M975 934q92 -111 57 -299l-114 -635h-76l28 160q-68 -87 -171 -136t-218 -49q-157 0 -255 80q-97 79 -97 211q0 160 129 260q129 99 334 99t346 -93l18 115q27 151 -43 240q-78 90 -229 90q-98 0 -190 -39t-150 -107h-8l-39 41l2 9q64 75 168 121q105 47 219 47
q193 0 289 -115zM485 47q151 0 273 85q123 86 147 228l19 97q-143 98 -338 98q-164 0 -270 -79q-107 -80 -107 -204q0 -104 76 -164q74 -61 200 -61z" />
    <glyph glyph-name="b" unicode="b" horiz-adv-x="1277" 
d="M817 1049q201 0 331 -138q130 -139 130 -352q0 -243 -157 -413q-157 -171 -396 -171q-151 0 -264 85q-115 85 -160 233l-51 -293h-78l250 1391l70 6l8 -6l-99 -545q155 203 416 203zM723 47q203 0 339 150q136 148 136 360q0 182 -107 301q-108 119 -282 119
q-206 0 -340 -146q-133 -146 -133 -364q0 -183 107 -302q106 -118 280 -118z" />
    <glyph glyph-name="c" unicode="c" horiz-adv-x="1126" 
d="M668 -25q-208 0 -348 140t-140 354q0 281 213 451q158 129 373 129q268 0 403 -218v-8l-49 -35h-8q-118 187 -344 189q-194 0 -334 -119q-174 -146 -174 -383q0 -186 115 -307q114 -121 297 -121q229 0 372 164h9l41 -37v-8q-164 -191 -426 -191z" />
    <glyph glyph-name="d" unicode="d" horiz-adv-x="1275" 
d="M1274 1391l69 6l9 -6l-250 -1391h-76l35 188q-158 -213 -422 -213q-201 0 -331 139q-130 137 -130 351q0 244 158 414t395 170q147 0 263 -83t161 -229zM647 47q206 0 340 147q133 145 133 363q0 184 -106 302t-281 118q-202 0 -339 -149q-136 -149 -136 -361
q0 -183 109 -301q108 -119 280 -119z" />
    <glyph glyph-name="e" unicode="e" horiz-adv-x="1159" 
d="M752 1049q216 0 337 -153q121 -152 85 -361l-13 -50h-897v-2q-13 -193 103 -314q116 -122 297 -122q244 0 391 172h8l39 -39v-8q-168 -197 -445 -197q-217 0 -352 148q-135 146 -121 366q12 273 213 437q150 123 355 123zM270 557h828q23 182 -72 299q-97 121 -278 121
q-180 0 -310 -113q-136 -118 -168 -307z" />
    <glyph glyph-name="f" unicode="f" horiz-adv-x="630" 
d="M950 1366l2 -8l-37 -49l-8 -4q-61 43 -149 43q-98 0 -160 -56q-75 -69 -104 -225l-9 -43h322l-12 -70h-322l-170 -954h-78l172 954h-176l10 70h179l8 43q34 207 149 291q83 59 203 59q110 0 180 -51z" />
    <glyph glyph-name="g" unicode="g" horiz-adv-x="1212" 
d="M1106 782l43 242h76l-160 -889q-40 -223 -183 -343q-142 -120 -352 -120q-142 0 -254 59q-112 60 -163 165l2 8l55 37h8q41 -93 137.5 -145t227.5 -52q173 0 292 102q118 104 152 289l27 150q-31 -39 -70 -70q-136 -113 -323 -113q-181 0 -303 123q-121 122 -121 310
q0 119 47.5 223t134.5 176q136 115 330 115q197 0 317 -134q52 -57 80 -133zM897 256q174 130 174 358q0 156 -99 259q-101 102 -259 102q-173 0 -291 -103q-144 -128 -146 -337q0 -159 99 -259q98 -102 256 -102q156 0 266 82z" />
    <glyph glyph-name="h" unicode="h" horiz-adv-x="1177" 
d="M801 1049q184 0 276 -122t56 -304l-111 -623h-80l111 618q33 174 -52 271q-72 88 -215 88q-122 0 -228 -66q-108 -69 -157 -172q-30 -53 -41 -131l-110 -608h-78l250 1391l70 6l8 -6l-101 -545q155 203 402 203z" />
    <glyph glyph-name="i" unicode="i" 
d="M432 1206q-31 0 -53.5 21.5t-22.5 50.5q0 39 27 66.5t66 27.5q31 0 52 -20.5t21 -51.5q0 -39 -26.5 -66.5t-63.5 -27.5zM254 0h-78l184 1024h78z" />
    <glyph glyph-name="j" unicode="j" horiz-adv-x="419" 
d="M436 1206q-31 0 -53.5 21.5t-22.5 50.5q0 39 27 66.5t66 27.5q31 0 52 -20.5t21 -51.5q0 -39 -26.5 -66.5t-63.5 -27.5zM172 4l184 1020h78l-184 -1016q-23 -131 -81 -206q-61 -76 -161 -130h-8l-18 54v8q80 45 127 106q45 60 63 164z" />
    <glyph glyph-name="k" unicode="k" horiz-adv-x="966" 
d="M1110 1024l4 -8l-481 -416l317 -592l-8 -8h-78l-291 549l-266 -230l-57 -319h-78l250 1391l70 6l8 -6l-174 -965l692 598h92z" />
    <glyph glyph-name="l" unicode="l" 
d="M254 0h-78l250 1391l70 6l8 -6z" />
    <glyph glyph-name="m" unicode="m" horiz-adv-x="1912" 
d="M1540 1049q178 0 268 -119q90 -118 58 -307l-109 -623h-80l109 618q28 178 -51 271q-70 88 -207 88q-138 0 -259 -96q-123 -99 -151 -244l-114 -637h-80l110 618q31 173 -49 271q-72 88 -209 88q-118 0 -225 -68q-106 -69 -156 -176q-24 -48 -35 -125l-110 -608h-78
l184 1024h74l-33 -174q156 199 391 199q131 0 217.5 -66.5t108.5 -183.5q62 110 178 180t248 70z" />
    <glyph glyph-name="n" unicode="n" horiz-adv-x="1177" 
d="M801 1049q184 0 276 -122t56 -304l-111 -623h-78l111 618q28 160 -45 260q-74 99 -226 99q-118 0 -225 -65q-107 -66 -156 -169q-36 -64 -43 -135l-110 -608h-78l184 1024h74l-33 -180q73 97 178.5 151t225.5 54z" />
    <glyph glyph-name="o" unicode="o" horiz-adv-x="1249" 
d="M670 -25q-212 0 -352 140t-140 354q0 273 207 446q161 132 379 134q214 0 353 -139q140 -140 140 -355q0 -272 -206 -446q-163 -134 -381 -134zM672 47q192 0 332 123q174 146 174 381q0 184 -118 305t-298 121q-192 0 -332 -123q-172 -145 -172 -381q0 -183 117 -305
q117 -121 297 -121z" />
    <glyph glyph-name="p" unicode="p" horiz-adv-x="1275" 
d="M819 1049q199 0 329 -138q130 -139 130 -352q0 -243 -157 -413q-157 -171 -396 -171q-147 0 -263 84t-161 230l-104 -596h-78l237 1331h74l-35 -188q156 213 424 213zM725 47q201 0 337 150q136 148 136 360q0 183 -108 301q-110 119 -281 119q-207 0 -339 -146
q-132 -147 -132 -364q0 -183 108 -301q107 -119 279 -119z" />
    <glyph glyph-name="q" unicode="q" horiz-adv-x="1280" 
d="M1161 731l53 293h78l-237 -1331h-78l86 485q-155 -203 -418 -203q-201 0 -331 139q-130 137 -130 351q0 241 158 413q158 171 395 171q152 0 267 -85q114 -85 157 -233zM655 47q207 0 339 147q132 146 132 363q0 183 -106 301q-107 119 -279 119q-202 0 -339 -149
q-136 -149 -136 -361q0 -183 108 -301q107 -119 281 -119z" />
    <glyph glyph-name="r" unicode="r" horiz-adv-x="673" 
d="M848 1022l2 -8l-35 -60l-8 -2q-38 23 -105 23q-97 0 -174.5 -55.5t-121.5 -151.5q-26 -48 -46 -150l-110 -618h-78l184 1024h74l-29 -160q56 78 101 109q91 76 217 76q83 0 129 -27z" />
    <glyph glyph-name="s" unicode="s" horiz-adv-x="847" 
d="M436 -25q-122 0 -213 51t-133 140l2 8l55 37h7q33 -78 109.5 -122t178.5 -44q130 0 210 65q79 64 79 173q5 46 -42 113q-7 11 -35 32l-28 20q-6 4 -23 13.5t-35.5 19t-21.5 10.5q-37 16 -45 19q-35 14 -42 18q-197 86 -197 236q0 129 96 207q94 78 238 78q98 0 181 -45
q84 -47 122 -121l-2 -9l-53 -34h-8q-33 63 -101.5 101t-148.5 38q-110 0 -175 -58q-67 -58 -67 -151q0 -109 162 -178q57 -25 113 -52q31 -16 90 -56q102 -70 102 -195q0 -143 -102 -228q-104 -86 -273 -86z" />
    <glyph glyph-name="t" unicode="t" horiz-adv-x="663" 
d="M791 954h-332l-123 -686q-41 -221 162 -221q80 0 141 49l8 -2l19 -53l-2 -8q-82 -56 -177 -58q-134 0 -195 75.5t-34 215.5l123 688h-178l12 70h178l60 326l71 6l6 -6l-59 -326h330z" />
    <glyph glyph-name="u" unicode="u" horiz-adv-x="1155" 
d="M975 385l115 639h77l-184 -1024h-76l33 166q-140 -189 -379 -191q-182 0 -274 113t-60 299l115 637h78l-115 -637q-29 -155 44 -247q73 -93 222 -93q122 0 216 58.5t149 160.5q26 44 39 119z" />
    <glyph glyph-name="v" unicode="v" horiz-adv-x="1030" 
d="M1081 1024h78l4 -8l-624 -1016h-45l-281 1016l4 8h78l240 -891z" />
    <glyph glyph-name="w" unicode="w" horiz-adv-x="1478" 
d="M1528 1024h76l4 -8l-527 -1016h-45l-149 877l-447 -877h-47l-176 1016l6 8h74l143 -872l445 872h51l149 -872z" />
    <glyph glyph-name="x" unicode="x" horiz-adv-x="952" 
d="M1073 1024l4 -8l-465 -500l316 -508l-6 -8h-80l-287 463l-432 -463h-90l-2 8l487 516l-293 492l6 8h80l264 -446l410 446h88z" />
    <glyph glyph-name="y" unicode="y" horiz-adv-x="1013" 
d="M1063 1024h80l6 -8l-707 -1159q-59 -99 -118 -142t-134 -43q-78 0 -133 43v9l33 49l10 2q41 -35 95 -35q96 0 174 129l102 168l-252 979l6 8h74l229 -889z" />
    <glyph glyph-name="z" unicode="z" horiz-adv-x="911" 
d="M252 1024h739l-10 -55l-813 -903h709l-13 -66h-811l10 55l814 903h-637z" />
    <glyph glyph-name="braceleft" unicode="{" horiz-adv-x="536" 
d="M457 -238h-35q-160 0 -209 76q-49 75 -14 268l53 293q25 100 14 155q-12 52 -88 52l12 62q50 0 81.5 24.5t42.5 63.5q10 33 24 118l53 293q34 194 110 270q74 74 234 74h35l-12 -67h-33q-121 0 -175 -57q-54 -59 -81 -218l-70 -385q-12 -66 -41.5 -106.5t-64.5 -40.5
q35 0 50 -41t3 -107l-70 -385q-29 -161 4 -217q33 -57 154 -57h33z" />
    <glyph glyph-name="bar" unicode="|" horiz-adv-x="454" 
d="M209 -299h-72l316 1749h71z" />
    <glyph glyph-name="braceright" unicode="}" horiz-adv-x="536" 
d="M420 784l69 385q28 160 -4 218q-35 57 -155 57h-33l12 67h35q160 0 208 -74t13 -270l-51 -293q-30 -102 -15 -154t87 -52l-11 -62q-96 0 -122 -88q-12 -41 -25 -119l-53 -293q-34 -194 -110 -270q-76 -74 -234 -74h-35l10 68h35q121 0 175 57q54 59 81 217l70 385
q10 65 39 106.5t65 41.5q-35 0 -49 40.5t-2 106.5z" />
    <glyph glyph-name="asciitilde" unicode="~" horiz-adv-x="1138" 
d="M909 594q-83 0 -225 36q-143 36 -217 36q-42 0 -91 -20q-48 -21 -73 -52h-6l-33 53l2 6q84 84 213 84q80 0 222 -35q139 -36 221 -36q95 0 157 71h6l31 -53l-2 -6q-80 -84 -205 -84z" />
    <glyph glyph-name="exclamdown" unicode="&#xa1;" horiz-adv-x="448" 
d="M387 881q-33 0 -54.5 21.5t-21.5 53.5q0 37 28 65t64 28q32 0 54 -22.5t22 -53.5q0 -37 -27.5 -64.5t-64.5 -27.5zM209 -307h-80l-4 6l203 1073l6 8h59l4 -8l-182 -1073z" />
    <glyph glyph-name="cent" unicode="&#xa2;" horiz-adv-x="1128" 
d="M860 1352l-29 -150q122 -8 217.5 -63t147.5 -144l-2 -8l-51 -37h-8q-51 85 -141 132.5t-201 47.5q-215 0 -360 -156q-146 -158 -146 -378q0 -173 109 -283q108 -112 286 -112q222 0 373 180h8l43 -37l-2 -8q-162 -194 -408 -207l-28 -154h-70l27 156q-186 14 -302 143
q-116 130 -116 318q0 244 160 419q159 175 395 189l26 152h72z" />
    <glyph glyph-name="sterling" unicode="&#xa3;" horiz-adv-x="1032" 
d="M831 1356q205 0 324 -164v-8l-55 -43h-8q-100 141 -275 141q-142 0 -228.5 -77t-111.5 -222l-47 -268h408l-13 -72h-409l-103 -571h662l-14 -72h-871l14 72h129l103 571h-117l10 72h121l47 268q31 178 144 275.5t290 97.5z" />
    <glyph glyph-name="currency" unicode="&#xa4;" horiz-adv-x="1318" 
d="M1137 344l112 -129l-59 -53l-113 127q-161 -129 -354 -129q-199 0 -324 129l-141 -127l-49 53l141 127q-84 122 -84 270q0 214 158 389l-109 125l60 54l108 -125q161 129 357 129q194 0 325 -131l142 127l49 -54l-142 -127q80 -119 80 -268q1 -222 -157 -387zM729 236
q200 0 343 146q142 145 142 345q0 167 -106 274q-107 107 -277 107q-197 0 -340 -144q-143 -146 -143 -348q0 -163 107 -272q107 -108 274 -108z" />
    <glyph glyph-name="yen" unicode="&#xa5;" horiz-adv-x="1216" 
d="M1378 1331l2 -8l-628 -788h268l-10 -60h-285l-33 -178h285l-12 -61h-283l-43 -236h-80l43 236h-283l11 61h282l33 178h-283l11 60h268l-348 788l6 8h78l323 -745l588 745h90z" />
    <glyph glyph-name="brokenbar" unicode="&#xa6;" horiz-adv-x="454" 
d="M317 698l136 752h71l-137 -752h-70zM137 -299l142 793h71l-141 -793h-72z" />
    <glyph glyph-name="section" unicode="&#xa7;" horiz-adv-x="1062" 
d="M1063 1145h-8q-48 67 -132.5 104t-181.5 37q-132 0 -221 -65q-88 -66 -88 -172q0 -65 59 -128q20 -23 69 -52q54 -32 77 -43q32 -17 92 -44q72 -32 120 -59q43 -25 93 -63q96 -77 96 -191q0 -158 -153 -260q74 -68 73 -176q0 -156 -121 -250t-331 -94q-149 0 -272 56
q-122 55 -177 157l2 8l56 43h8q49 -90 152 -141.5t237 -51.5q167 0 265 74q97 73 97 189q0 62 -43 112q-45 52 -94 80q-57 32 -147 74q-89 43 -122 61q-43 22 -98 62q-104 74 -104 190q0 159 168 254q-88 72 -88 180q0 141 116 231q116 89 294 89q239 0 360 -160v-8z
M352 616q0 -82 72 -140t207 -120q134 -62 190 -102q131 77 131 203q0 81 -65 140q-65 58 -199 121q-128 59 -182 95q-154 -67 -154 -197z" />
    <glyph glyph-name="dieresis" unicode="&#xa8;" horiz-adv-x="684" 
d="M420 1204q-31 0 -52.5 21.5t-21.5 52.5q0 39 27.5 67.5t66.5 28.5q29 0 51.5 -21.5t22.5 -49.5q0 -41 -27.5 -70t-66.5 -29zM709 1204q-31 0 -52.5 21.5t-21.5 52.5q0 39 27.5 67.5t66.5 28.5q31 0 53.5 -21.5t22.5 -49.5q0 -41 -28.5 -70t-67.5 -29z" />
    <glyph glyph-name="copyright" unicode="&#xa9;" horiz-adv-x="1558" 
d="M846 -25q-277 0 -455 181q-180 180 -180 454q0 348 246 561q207 183 506 185q277 0 455 -180q179 -182 179 -455q0 -345 -243 -559q-212 -187 -508 -187zM850 51q271 0 455 170q213 193 213 498q0 241 -159 402q-159 159 -401 159q-263 0 -448 -164q-219 -194 -219 -504
q0 -242 159 -401q157 -160 400 -160zM885 260q-155 0 -262 101t-107 251q0 194 126 328q126 133 316 133q210 0 310 -162v-6l-49 -33h-9q-80 129 -254 129q-162 0 -263 -107q-101 -109 -101 -276q0 -127 82 -206q83 -80 211 -80q164 0 284 129h9l36 -35v-8
q-141 -158 -329 -158z" />
    <glyph glyph-name="ordfeminine" unicode="&#xaa;" horiz-adv-x="778" 
d="M616 1354q107 0 175 -67q69 -67 49 -175l-74 -410h-66l17 99q-88 -105 -238 -107q-93 0 -155 50t-62 126q0 111 85 171q86 59 206 59q115 0 211 -45l10 57q14 83 -35 130q-50 48 -131 48q-128 0 -225 -94h-8l-33 35v6q116 117 274 117zM494 758q89 0 162 53q72 53 85 137
l7 45q-90 45 -203 45q-93 0 -151 -43q-60 -43 -60 -116q0 -53 45 -87t115 -34z" />
    <glyph glyph-name="guillemotleft" unicode="&#xab;" horiz-adv-x="862" 
d="M592 909v-4l-303 -297l192 -289v-6l-49 -39h-6l-225 330l4 21l344 331h6zM858 956l37 -47v-4l-305 -297l192 -289v-6l-47 -39h-8l-225 330l4 21l344 331h8z" />
    <glyph glyph-name="registered" unicode="&#xae;" horiz-adv-x="894" 
d="M672 1358q133 0 222 -86t89 -211q0 -169 -115 -287q-116 -119 -282 -119q-131 0 -220 86q-90 85 -90 213q0 168 115 286t281 118zM594 709q140 0 237 103t97 247q0 105 -74 176q-73 70 -186 70q-139 0 -236 -103q-98 -104 -98 -248q0 -106 74 -175q73 -70 186 -70z
M528 1219h150q121 0 121 -101q0 -44 -30 -81.5t-73 -49.5l60 -178h-62l-57 172h-96l-33 -172h-53zM549 1026h102q39 0 64.5 24t25.5 60q0 59 -67 59h-99z" />
    <glyph glyph-name="overscore" unicode="&#xaf;" horiz-adv-x="1058" 
d="M477 1231l12 67h545l-12 -67h-545z" />
    <glyph glyph-name="degree" unicode="&#xb0;" horiz-adv-x="708" 
d="M504 827q-92 0 -153 66q-62 65 -62 160q0 123 95 213q94 90 216 90q94 0 155 -64q60 -64 60 -162q0 -121 -94 -212t-217 -91zM516 893q90 0 160 69q69 68 69 160q0 72 -45 120t-114 48q-88 0 -159 -68q-71 -69 -71 -159q0 -71 45 -121q45 -49 115 -49z" />
    <glyph glyph-name="plusminus" unicode="&#xb1;" horiz-adv-x="1142" 
d="M807 1094l-74 -416h424l-12 -68h-424l-76 -420h-76l76 420h-428l12 68h428l76 416h74zM1034 0h-928l13 70h930z" />
    <glyph glyph-name="acute" unicode="&#xb4;" horiz-adv-x="536" 
d="M293 1192l366 262h7l41 -55l-2 -6l-375 -246h-8l-29 39v6z" />
    <glyph glyph-name="paragraph" unicode="&#xb6;" horiz-adv-x="1222" 
d="M1419 1450l-12 -70h-446l-302 -1673h-69l155 879h-53q-213 0 -334 85q-122 86 -122 267q0 269 163 390q163 122 443 122h577zM1139 1200h69l-268 -1493h-70z" />
    <glyph glyph-name="middot" unicode="&#xb7;" horiz-adv-x="450" 
d="M319 483q-36 0 -59.5 24t-23.5 60q0 41 31 72q30 31 71 31q35 0 58.5 -24.5t23.5 -59.5q0 -41 -31 -72t-70 -31z" />
    <glyph glyph-name="cedilla" unicode="&#xb8;" horiz-adv-x="575" 
d="M201 -397q-103 0 -174 59l2 8l39 45h8q52 -49 131 -49q61 0 96 25.5t35 70.5t-52 60q-51 16 -126 4l-27 16l72 156l6 27h74l-6 -27l-43 -107q82 2 130 -30.5t48 -91.5q0 -76 -57.5 -121t-155.5 -45z" />
    <glyph glyph-name="ordmasculine" unicode="&#xba;" horiz-adv-x="843" 
d="M569 696q-126 0 -212 80q-85 79 -85 201q0 161 109 270q108 109 264 109q128 0 211 -79q84 -79 84 -202q0 -159 -107 -269q-108 -110 -264 -110zM573 762q125 0 210 90q85 89 85 217q0 96 -64 159q-65 62 -165 62q-125 0 -209 -89q-84 -88 -84 -218q0 -96 65 -158
q65 -63 162 -63z" />
    <glyph glyph-name="guillemotright" unicode="&#xbb;" horiz-adv-x="862" 
d="M354 956l226 -331l-5 -21l-342 -330h-8l-39 45v5l306 299l-191 288v7l47 38h6zM649 956h8l226 -331l-6 -21l-342 -330h-9l-39 45v5l308 299l-193 288v7z" />
    <glyph glyph-name="onequarter" unicode="&#xbc;" horiz-adv-x="1284" 
d="M104 0l-2 8l1241 1323h82l2 -8l-1239 -1323h-84zM412 573h-78l125 691h-146l15 67h221zM1202 750l-90 -500h90l-10 -66h-92l-33 -184h-70l33 184h-381l8 52l492 514h53zM1110 618l-358 -368h290z" />
    <glyph glyph-name="onehalf" unicode="&#xbd;" horiz-adv-x="1398" 
d="M1311 1331h82l2 -8l-1239 -1323h-84l-2 8zM442 573h-77l124 691h-145l14 67h222zM1354 561q0 -52 -33 -107q-33 -57 -62 -86q-6 -6 -104 -100q-94 -87 -229 -200h374l-10 -68h-499l6 45q6 5 158 135q124 107 149 131q97 91 135 140q41 52 41 102q0 57 -39 92t-102 35
q-103 0 -201 -88h-8l-33 39l2 8q121 111 248 111q91 0 149 -51q58 -52 58 -138z" />
    <glyph glyph-name="threequarters" unicode="&#xbe;" horiz-adv-x="1462" 
d="M709 819q0 -106 -80 -178q-79 -72 -199 -72q-70 0 -133 31q-66 32 -100 80v8l36 37h11q29 -41 83 -66.5t109 -25.5q88 0 145 51q56 51 56 129q0 66 -49.5 107t-130.5 41h-56l9 55h59q71 0 126 47q54 47 54 115q0 53 -38.5 83.5t-104.5 30.5q-89 0 -172 -71h-8l-29 34l2 9
q98 92 217 92q92 0 148.5 -46t56.5 -122q0 -131 -139 -195q60 -23 93.5 -69t33.5 -105zM1509 1331h82l2 -8l-1239 -1323h-84l-2 8zM831 236l492 514h53l-90 -500h90l-10 -66h-92l-33 -184h-70l33 184h-381zM924 250h293l67 368z" />
    <glyph glyph-name="questiondown" unicode="&#xbf;" horiz-adv-x="946" 
d="M637 893q-33 0 -54.5 21.5t-21.5 54.5q0 37 27.5 64.5t64.5 27.5q31 0 52.5 -22.5t21.5 -53.5q0 -37 -27.5 -64.5t-62.5 -27.5zM434 -319q-165 0 -259 82q-95 83 -95 221q0 91 49 183q17 33 57 76q39 42 63 63q25 21 74 62q64 54 68 58q138 120 166 252l18 104h78
l-18 -102q-32 -167 -197 -301l-22 -19q-22 -18 -41 -33q-21 -17 -66 -55q-29 -27 -55 -55q-37 -40 -50 -65q-14 -24 -29 -71q-13 -40 -13 -85q0 -112 76.5 -177t210.5 -65q115 0 221 78q106 77 157 201l13 2l57 -17v-8q-59 -146 -189 -237q-131 -92 -274 -92z" />
    <glyph glyph-name="Agrave" unicode="&#xc0;" horiz-adv-x="1306" 
d="M1124 1489l-26 -37h-6l-351 211v6l39 57h6l336 -231zM868 1331h50l344 -1323l-7 -8h-73l-84 330h-764l-203 -330h-80l-4 8zM874 1204l-495 -803h700z" />
    <glyph glyph-name="Aacute" unicode="&#xc1;" horiz-adv-x="1306" 
d="M1108 1663l-350 -211h-6l-25 37v6l338 231h6l39 -57zM868 1331h50l344 -1323l-7 -8h-73l-84 330h-764l-203 -330h-80l-4 8zM874 1204l-495 -803h700z" />
    <glyph glyph-name="Acircumflex" unicode="&#xc2;" horiz-adv-x="1306" 
d="M936 1622l-289 -149h-6l-23 45v6l322 182h10l254 -182v-6l-37 -41h-6zM868 1331h50l344 -1323l-7 -8h-73l-84 330h-764l-203 -330h-80l-4 8zM874 1204l-495 -803h700z" />
    <glyph glyph-name="Atilde" unicode="&#xc3;" horiz-adv-x="1306" 
d="M651 1495h-14l-4 6l14 72q47 71 146 69q55 0 142 -36q86 -37 128 -37q86 0 131 73h14l4 -6l-14 -71q-46 -70 -147 -70q-48 0 -132 37t-141 37q-86 0 -127 -74zM868 1331h50l344 -1323l-7 -8h-73l-84 330h-764l-203 -330h-80l-4 8zM874 1204l-495 -803h700z" />
    <glyph glyph-name="Adieresis" unicode="&#xc4;" horiz-adv-x="1306" 
d="M750 1497q-33 0 -54.5 20.5t-21.5 51.5q0 39 27.5 67.5t66.5 28.5q31 0 53.5 -21t22.5 -51q0 -39 -27.5 -67.5t-66.5 -28.5zM1081 1497q-31 0 -53 21t-22 51q0 39 27.5 67.5t66.5 28.5q33 0 55.5 -20.5t22.5 -51.5q0 -41 -28 -68.5t-69 -27.5zM868 1331h50l344 -1323
l-7 -8h-73l-84 330h-764l-203 -330h-80l-4 8zM874 1204l-495 -803h700z" />
    <glyph glyph-name="Aring" unicode="&#xc5;" horiz-adv-x="1306" 
d="M911 1440q-66 0 -110 44q-45 43 -45 109q0 77 57 136q57 57 135 57q65 0 111 -44q45 -44 45 -108q0 -79 -56 -137q-57 -57 -137 -57zM944 1724q-54 0 -88.5 -37t-34.5 -90q0 -40 27 -68t70 -28q55 0 89 39q33 39 33 88q0 40 -27 68t-69 28zM868 1331h50l344 -1323l-7 -8
h-73l-84 330h-764l-203 -330h-80l-4 8zM874 1204l-495 -803h700z" />
    <glyph glyph-name="AE" unicode="&#xc6;" horiz-adv-x="1890" 
d="M2007 1331l-14 -71h-754l-98 -551h600l-15 -72h-598l-102 -565h754l-13 -72h-833l59 330h-633l-288 -330h-86l-2 8l1155 1323h868zM424 401h582l151 840z" />
    <glyph glyph-name="Ccedilla" unicode="&#xc7;" horiz-adv-x="1404" 
d="M965 1356q169 0 309 -69q139 -70 211 -187v-8l-58 -39h-8q-65 105 -186 167q-122 60 -272 60q-273 0 -461 -174q-207 -195 -207 -494q0 -242 159 -401q157 -160 400 -160q286 0 491 219h9l47 -43v-8q-226 -244 -551 -244h-17l-32 -81q82 2 130 -31t48 -92
q0 -76 -57.5 -121t-155.5 -45q-103 0 -174 59l2 8l39 45h8q52 -49 131 -49q61 0 96 25.5t35 70.5q0 46 -52 61q-53 15 -126 3l-27 16l64 138q-242 29 -394 203q-153 173 -153 425q0 161 62 308q62 146 176 247q209 191 514 191z" />
    <glyph glyph-name="Egrave" unicode="&#xc8;" horiz-adv-x="1122" 
d="M725 1726h6l336 -231l2 -6l-27 -37h-6l-350 211v6zM1276 1331l-14 -71h-754l-98 -551h598l-13 -72h-600l-102 -565h756l-13 -72h-835l239 1331h836z" />
    <glyph glyph-name="Eacute" unicode="&#xc9;" horiz-adv-x="1122" 
d="M700 1495l338 231h6l39 -57l-2 -6l-350 -211h-6l-25 37v6zM1276 1331l-14 -71h-754l-98 -551h598l-13 -72h-600l-102 -565h756l-13 -72h-835l239 1331h836z" />
    <glyph glyph-name="Ecircumflex" unicode="&#xca;" horiz-adv-x="1122" 
d="M893 1622l-289 -149h-6l-23 45v6l322 182h10l254 -182v-6l-37 -41h-6zM1276 1331l-14 -71h-754l-98 -551h598l-13 -72h-600l-102 -565h756l-13 -72h-835l239 1331h836z" />
    <glyph glyph-name="Edieresis" unicode="&#xcb;" horiz-adv-x="1122" 
d="M707 1497q-33 0 -54.5 20.5t-21.5 51.5q0 39 27.5 67.5t66.5 28.5q31 0 53.5 -21t22.5 -51q0 -39 -27.5 -67.5t-66.5 -28.5zM1038 1497q-31 0 -53 21t-22 51q0 39 27.5 67.5t66.5 28.5q33 0 55.5 -20.5t22.5 -51.5q0 -41 -28.5 -68.5t-68.5 -27.5zM1276 1331l-14 -71
h-754l-98 -551h598l-13 -72h-600l-102 -565h756l-13 -72h-835l239 1331h836z" />
    <glyph glyph-name="Igrave" unicode="&#xcc;" horiz-adv-x="483" 
d="M371 1726h6l336 -231l2 -6l-27 -37h-6l-350 211v6zM201 0l239 1331h82l-239 -1331h-82z" />
    <glyph glyph-name="Iacute" unicode="&#xcd;" horiz-adv-x="483" 
d="M322 1495l337 231h7l39 -57l-3 -6l-350 -211h-6l-24 37v6zM201 0l239 1331h82l-239 -1331h-82z" />
    <glyph glyph-name="Icircumflex" unicode="&#xce;" horiz-adv-x="483" 
d="M541 1706h10l254 -182v-6l-37 -41h-6l-225 145l-289 -149h-6l-23 45v6zM283 0h-82l239 1331h82z" />
    <glyph glyph-name="Idieresis" unicode="&#xcf;" horiz-adv-x="483" 
d="M350 1497q-33 0 -54.5 20.5t-21.5 51.5q0 39 28 67.5t67 28.5q31 0 53 -21t22 -51q0 -39 -27.5 -67.5t-66.5 -28.5zM682 1497q-31 0 -53.5 21t-22.5 51q0 39 28 67.5t66 28.5q33 0 55.5 -20.5t22.5 -51.5q0 -41 -28 -68.5t-68 -27.5zM201 0l239 1331h82l-239 -1331h-82z
" />
    <glyph glyph-name="Eth" unicode="&#xd0;" horiz-adv-x="1486" 
d="M455 1331h487q264 0 405 -145q140 -146 140 -398q0 -359 -208 -573q-209 -215 -570 -215h-494l115 637h-180l12 70h180zM309 72h404q326 0 509 195q183 193 183 515q0 224 -120 351t-351 127h-412l-100 -553h418l-15 -70h-415z" />
    <glyph glyph-name="Ntilde" unicode="&#xd1;" horiz-adv-x="1409" 
d="M682 1495h-14l-4 6l14 72q49 70 151 69q57 0 148 -36q89 -37 133 -37q90 0 135 73h15l4 -6l-15 -71q-46 -70 -151 -70q-50 0 -137 37t-146 37q-88 0 -133 -74zM1153 129l217 1202h78l-244 -1351h-49l-661 1198l-213 -1178h-80l239 1331h52z" />
    <glyph glyph-name="Ograve" unicode="&#xd2;" horiz-adv-x="1564" 
d="M864 1726h6l336 -231l2 -6l-26 -37h-6l-351 211v6zM846 -25q-277 0 -455 181q-180 180 -180 454q0 161 62 308q62 146 176 247q207 189 514 191q277 0 455 -180q179 -182 179 -455q0 -163 -61 -307q-62 -148 -176 -248q-209 -191 -514 -191zM850 51q274 0 461 174
q207 195 207 494q0 241 -159 402q-159 159 -401 159q-274 0 -460 -174q-207 -195 -207 -494q0 -242 159 -401q157 -160 400 -160z" />
    <glyph glyph-name="Oacute" unicode="&#xd3;" horiz-adv-x="1564" 
d="M840 1495l338 231h6l39 -57l-2 -6l-351 -211h-6l-24 37v6zM846 -25q-277 0 -455 181q-180 180 -180 454q0 161 62 308q62 146 176 247q207 189 514 191q277 0 455 -180q179 -182 179 -455q0 -163 -61 -307q-62 -148 -176 -248q-209 -191 -514 -191zM850 51q274 0 461 174
q207 195 207 494q0 241 -159 402q-159 159 -401 159q-274 0 -460 -174q-207 -195 -207 -494q0 -242 159 -401q157 -160 400 -160z" />
    <glyph glyph-name="Ocircumflex" unicode="&#xd4;" horiz-adv-x="1564" 
d="M1032 1622l-289 -149h-6l-22 45v6l321 182h11l253 -182v-6l-36 -41h-7zM963 1356q277 0 455 -180q179 -182 179 -455q0 -163 -61 -307q-62 -148 -176 -248q-207 -189 -514 -191q-277 0 -455 181q-180 180 -180 454q0 161 62 308q62 146 176 247q209 191 514 191z
M1311 225q207 195 207 494q0 241 -159 402q-159 159 -401 159q-274 0 -460 -174q-207 -195 -207 -494q0 -242 159 -401q157 -160 400 -160q275 0 461 174z" />
    <glyph glyph-name="Otilde" unicode="&#xd5;" horiz-adv-x="1564" 
d="M1153 1495q-50 0 -137 37t-146 37q-88 0 -133 -74h-14l-4 6l14 72q49 70 152 69q57 0 147 -36q89 -37 133 -37q90 0 135 73h15l4 -6l-14 -71q-48 -70 -152 -70zM846 -25q-277 0 -455 181q-180 180 -180 454q0 161 62 308q62 146 176 247q207 189 514 191q277 0 455 -180
q179 -182 179 -455q0 -163 -61 -307q-62 -148 -176 -248q-209 -191 -514 -191zM850 51q274 0 461 174q207 195 207 494q0 241 -159 402q-159 159 -401 159q-274 0 -460 -174q-207 -195 -207 -494q0 -242 159 -401q157 -160 400 -160z" />
    <glyph glyph-name="Odieresis" unicode="&#xd6;" horiz-adv-x="1564" 
d="M846 1497q-33 0 -54.5 20.5t-21.5 51.5q0 39 27.5 67.5t66.5 28.5q31 0 53.5 -21t22.5 -51q0 -39 -27.5 -67.5t-66.5 -28.5zM1178 1497q-31 0 -53.5 21t-22.5 51q0 39 27.5 67.5t66.5 28.5q33 0 55.5 -20.5t22.5 -51.5q0 -41 -28 -68.5t-68 -27.5zM846 -25
q-277 0 -455 181q-180 180 -180 454q0 161 62 308q62 146 176 247q207 189 514 191q277 0 455 -180q179 -182 179 -455q0 -163 -61 -307q-62 -148 -176 -248q-209 -191 -514 -191zM850 51q274 0 461 174q207 195 207 494q0 241 -159 402q-159 159 -401 159q-274 0 -460 -174
q-207 -195 -207 -494q0 -242 159 -401q157 -160 400 -160z" />
    <glyph glyph-name="multiply" unicode="&#xd7;" horiz-adv-x="1040" 
d="M1059 1098l47 -54l-424 -374l309 -375l-55 -51l-309 374l-426 -374l-47 53l424 377l-306 370l56 50l307 -369z" />
    <glyph glyph-name="Oslash" unicode="&#xd8;" horiz-adv-x="1564" 
d="M1599 1442l-202 -246q201 -180 200 -475q0 -163 -61 -307q-62 -148 -176 -248q-207 -189 -514 -191q-211 0 -373 111l-154 -186h-88l-2 8l187 223q-205 181 -205 479q0 161 62 308q62 146 176 247q207 189 514 191q213 0 374 -113l172 207h88zM291 612q0 -258 176 -417
l819 987q-143 98 -328 98q-274 0 -460 -174q-207 -195 -207 -494zM1311 225q207 195 207 494q0 254 -175 416l-817 -988q136 -96 324 -96q275 0 461 174z" />
    <glyph glyph-name="Ugrave" unicode="&#xd9;" horiz-adv-x="1419" 
d="M811 1726h6l336 -231l2 -6l-27 -37h-6l-350 211v6zM276 520l146 811h80l-146 -809q-39 -211 68 -342t313 -131q201 0 338 129q138 130 178 344l144 809h80l-146 -811q-45 -250 -204 -397q-160 -148 -396 -148q-240 0 -369 151q-129 150 -86 394z" />
    <glyph glyph-name="Uacute" unicode="&#xda;" horiz-adv-x="1419" 
d="M786 1495l338 231h6l39 -57l-2 -6l-350 -211h-6l-25 37v6zM276 520l146 811h80l-146 -809q-39 -211 68 -342t313 -131q201 0 338 129q138 130 178 344l144 809h80l-146 -811q-45 -250 -204 -397q-160 -148 -396 -148q-240 0 -369 151q-129 150 -86 394z" />
    <glyph glyph-name="Ucircumflex" unicode="&#xdb;" horiz-adv-x="1419" 
d="M979 1622l-289 -149h-6l-22 45v6l321 182h10l254 -182v-6l-37 -41h-6zM1253 522l144 809h80l-146 -811q-45 -250 -204 -397q-160 -148 -396 -148q-240 0 -369 151q-129 150 -86 394l146 811h80l-146 -809q-39 -211 68 -342t313 -131q201 0 338 129q138 130 178 344z" />
    <glyph glyph-name="Udieresis" unicode="&#xdc;" horiz-adv-x="1419" 
d="M793 1497q-33 0 -54.5 20.5t-21.5 51.5q0 39 27.5 67.5t66.5 28.5q31 0 53.5 -21t22.5 -51q0 -39 -27.5 -67.5t-66.5 -28.5zM1124 1497q-31 0 -53 21t-22 51q0 39 27.5 67.5t66.5 28.5q33 0 55.5 -20.5t22.5 -51.5q0 -41 -28.5 -68.5t-68.5 -27.5zM276 520l146 811h80
l-146 -809q-39 -211 68 -342t313 -131q201 0 338 129q138 130 178 344l144 809h80l-146 -811q-45 -250 -204 -397q-160 -148 -396 -148q-240 0 -369 151q-129 150 -86 394z" />
    <glyph glyph-name="Yacute" unicode="&#xdd;" horiz-adv-x="1218" 
d="M1051 1663l-351 -211h-6l-24 37v6l338 231h6l39 -57zM1389 1331l2 -8l-650 -815l-92 -508h-80l93 514l-359 809l6 8h78l324 -745l587 745h91z" />
    <glyph glyph-name="Thorn" unicode="&#xde;" horiz-adv-x="1161" 
d="M283 0h-82l239 1331h82l-51 -276h365q172 0 267 -87t95 -235q0 -207 -135 -332q-136 -125 -361 -125h-370zM459 983l-115 -637h385q172 0 280 105q107 104 107 272q0 120 -73 190t-203 70h-381z" />
    <glyph glyph-name="germandbls" unicode="&#xdf;" horiz-adv-x="1157" 
d="M922 754q106 -33 163.5 -112.5t57.5 -195.5q0 -207 -135 -339q-136 -132 -346 -132q-182 0 -281 93l-2 8l41 49l8 2q83 -82 234 -82q175 0 288 110q111 109 111 283q0 132 -87.5 205.5t-240.5 73.5h-57l12 65h53q151 0 254 93q103 91 103 229q0 108 -77 176
q-76 66 -202 66q-156 0 -252 -84q-111 -96 -143 -287l-174 -975h-78l176 979q40 224 176 340q124 98 301 98q155 0 255 -86q98 -86 98 -221q0 -123 -70 -217t-186 -139z" />
    <glyph glyph-name="agrave" unicode="&#xe0;" horiz-adv-x="1075" 
d="M571 1454h7l364 -262v-6l-29 -39h-6l-377 246v6zM975 934q92 -111 57 -299l-114 -635h-76l28 160q-68 -87 -171 -136t-218 -49q-157 0 -255 80q-97 79 -97 211q0 160 129 260q129 99 334 99t346 -93l18 115q27 151 -43 240q-78 90 -229 90q-98 0 -190 -39t-150 -107h-8
l-39 41l2 9q64 75 168 121q105 47 219 47q193 0 289 -115zM485 47q151 0 273 85q123 86 147 228l19 97q-143 98 -338 98q-164 0 -270 -79q-107 -80 -107 -204q0 -104 76 -164q74 -61 200 -61z" />
    <glyph glyph-name="aacute" unicode="&#xe1;" horiz-adv-x="1075" 
d="M528 1192l367 262h6l41 -55l-2 -6l-375 -246h-8l-29 39v6zM975 934q92 -111 57 -299l-114 -635h-76l28 160q-68 -87 -171 -136t-218 -49q-157 0 -255 80q-97 79 -97 211q0 160 129 260q129 99 334 99t346 -93l18 115q27 151 -43 240q-78 90 -229 90q-98 0 -190 -39
t-150 -107h-8l-39 41l2 9q64 75 168 121q105 47 219 47q193 0 289 -115zM485 47q151 0 273 85q123 86 147 228l19 97q-143 98 -338 98q-164 0 -270 -79q-107 -80 -107 -204q0 -104 76 -164q74 -61 200 -61z" />
    <glyph glyph-name="acircumflex" unicode="&#xe2;" horiz-adv-x="1075" 
d="M748 1315l-277 -152h-6l-27 43v6l310 187h16l242 -187l-2 -6l-37 -37h-6zM975 934q92 -111 57 -299l-114 -635h-76l28 160q-68 -87 -171 -136t-218 -49q-157 0 -255 80q-97 79 -97 211q0 160 129 260q129 99 334 99t346 -93l18 115q27 151 -43 240q-78 90 -229 90
q-98 0 -190 -39t-150 -107h-8l-39 41l2 9q64 75 168 121q105 47 219 47q193 0 289 -115zM905 360l19 97q-143 98 -338 98q-164 0 -270 -79q-107 -80 -107 -204q0 -104 76 -164q74 -61 200 -61q151 0 273 85q122 86 147 228z" />
    <glyph glyph-name="atilde" unicode="&#xe3;" horiz-adv-x="1075" 
d="M870 1227q-42 0 -132 35q-87 34 -142 34q-90 0 -131 -69h-14l-5 4l13 67q49 70 145 70q50 0 145 -36q93 -36 134 -36q89 0 129 70h12l4 -4l-10 -68q-52 -67 -148 -67zM975 934q92 -111 57 -299l-114 -635h-76l28 160q-68 -87 -171 -136t-218 -49q-157 0 -255 80
q-97 79 -97 211q0 160 129 260q129 99 334 99t346 -93l18 115q27 151 -43 240q-78 90 -229 90q-98 0 -190 -39t-150 -107h-8l-39 41l2 9q64 75 168 121q105 47 219 47q193 0 289 -115zM485 47q151 0 273 85q123 86 147 228l19 97q-143 98 -338 98q-164 0 -270 -79
q-107 -80 -107 -204q0 -104 76 -164q74 -61 200 -61z" />
    <glyph glyph-name="adieresis" unicode="&#xe4;" horiz-adv-x="1075" 
d="M582 1204q-31 0 -52.5 21.5t-21.5 52.5q0 39 27.5 67.5t66.5 28.5q29 0 51.5 -21.5t22.5 -49.5q0 -41 -27.5 -70t-66.5 -29zM870 1204q-31 0 -52 21.5t-21 52.5q0 39 27.5 67.5t66.5 28.5q31 0 53.5 -21.5t22.5 -49.5q0 -41 -29 -70t-68 -29zM975 934q92 -111 57 -299
l-114 -635h-76l28 160q-68 -87 -171 -136t-218 -49q-157 0 -255 80q-97 79 -97 211q0 160 129 260q129 99 334 99t346 -93l18 115q27 151 -43 240q-78 90 -229 90q-98 0 -190 -39t-150 -107h-8l-39 41l2 9q64 75 168 121q105 47 219 47q193 0 289 -115zM485 47q151 0 273 85
q123 86 147 228l19 97q-143 98 -338 98q-164 0 -270 -79q-107 -80 -107 -204q0 -104 76 -164q74 -61 200 -61z" />
    <glyph glyph-name="aring" unicode="&#xe5;" horiz-adv-x="1075" 
d="M721 1133q-65 0 -111 44q-45 43 -45 107q0 78 57 136q56 57 136 57q65 0 111 -44q44 -44 44 -108q0 -81 -57 -136q-58 -56 -135 -56zM727 1194q52 0 87 38q34 37 34 87q0 42 -26 69t-70 27q-52 0 -87 -39q-34 -38 -34 -88q0 -40 27 -67t69 -27zM975 934q92 -111 57 -299
l-114 -635h-76l28 160q-68 -87 -171 -136t-218 -49q-157 0 -255 80q-97 79 -97 211q0 160 129 260q129 99 334 99t346 -93l18 115q27 151 -43 240q-78 90 -229 90q-98 0 -190 -39t-150 -107h-8l-39 41l2 9q64 75 168 121q105 47 219 47q193 0 289 -115zM485 47q151 0 273 85
q123 86 147 228l19 97q-143 98 -338 98q-164 0 -270 -79q-107 -80 -107 -204q0 -104 76 -164q74 -61 200 -61z" />
    <glyph glyph-name="ae" unicode="&#xe6;" horiz-adv-x="1941" 
d="M1503 1049q215 0 337 -153q122 -154 85 -361l-12 -50h-899q-6 -203 109 -320q114 -118 292 -118q244 0 389 172h8l41 -39v-8q-168 -197 -444 -197q-161 0 -280 81q-120 82 -166 229q-58 -143 -193 -227q-136 -83 -291 -83q-157 0 -255 80q-97 79 -97 211q0 160 130 260
q131 99 333 99q200 0 348 -88l18 110q26 155 -45 240q-73 90 -229 90q-209 0 -350 -160h-8l-39 43v8q162 179 399 181q146 0 237 -66.5t111 -187.5q46 74 117 131q149 123 354 123zM1026 559h821q25 179 -69 297q-100 121 -278 121t-312 -113q-136 -117 -162 -305zM485 47
q152 0 274 87q123 88 148 233l17 92q-152 96 -338 96q-164 0 -270 -79q-107 -80 -107 -204q0 -104 76 -164q74 -61 200 -61z" />
    <glyph glyph-name="ccedilla" unicode="&#xe7;" horiz-adv-x="1126" 
d="M766 1049q268 0 403 -218v-8l-49 -35h-8q-118 187 -344 189q-194 0 -334 -119q-174 -146 -174 -383q0 -186 115 -307q114 -121 297 -121q229 0 372 164h9l41 -37v-8q-157 -183 -412 -191l-33 -81q82 2 130 -31t48 -92q0 -76 -57 -121t-156 -45q-103 0 -174 59l2 8l39 45
h8q52 -49 132 -49q61 0 96 25.5t35 70.5q0 46 -52 61q-53 15 -127 3l-26 16l61 136q-188 20 -308 155t-120 334q0 281 213 451q158 129 373 129z" />
    <glyph glyph-name="egrave" unicode="&#xe8;" horiz-adv-x="1159" 
d="M1001 1186l-28 -39h-6l-377 246v6l41 55h6l364 -262v-6zM752 1049q216 0 337 -153q121 -152 85 -361l-13 -50h-897v-2q-13 -193 103 -314q116 -122 297 -122q244 0 391 172h8l39 -39v-8q-168 -197 -445 -197q-217 0 -352 148q-135 146 -121 366q12 273 213 437
q150 123 355 123zM270 557h828q23 182 -72 299q-97 121 -278 121q-180 0 -310 -113q-136 -118 -168 -307z" />
    <glyph glyph-name="eacute" unicode="&#xe9;" horiz-adv-x="1159" 
d="M999 1393l-374 -246h-9l-28 39v6l366 262h7l40 -55zM752 1049q216 0 337 -153q121 -152 85 -361l-13 -50h-897v-2q-13 -193 103 -314q116 -122 297 -122q244 0 391 172h8l39 -39v-8q-168 -197 -445 -197q-217 0 -352 148q-135 146 -121 366q12 273 213 437
q150 123 355 123zM270 557h828q23 182 -72 299q-97 121 -278 121q-180 0 -310 -113q-136 -118 -168 -307z" />
    <glyph glyph-name="ecircumflex" unicode="&#xea;" horiz-adv-x="1159" 
d="M807 1315l-277 -152h-6l-26 43v6l309 187h16l242 -187l-2 -6l-37 -37h-6zM752 1049q216 0 337 -153q121 -152 85 -361l-13 -50h-897v-2q-13 -193 103 -314q116 -122 297 -122q244 0 391 172h8l39 -39v-8q-168 -197 -445 -197q-217 0 -352 148q-135 146 -121 366
q12 273 213 437q150 123 355 123zM270 557h828q23 182 -72 299q-97 121 -278 121q-180 0 -310 -113q-136 -118 -168 -307z" />
    <glyph glyph-name="edieresis" unicode="&#xeb;" horiz-adv-x="1159" 
d="M641 1204q-31 0 -52.5 21.5t-21.5 52.5q0 39 28 67.5t67 28.5q29 0 51 -21.5t22 -49.5q0 -41 -27.5 -70t-66.5 -29zM930 1204q-31 0 -52.5 21.5t-21.5 52.5q0 39 27.5 67.5t66.5 28.5q31 0 53.5 -21.5t22.5 -49.5q0 -41 -28.5 -70t-67.5 -29zM752 1049q216 0 337 -153
q121 -152 85 -361l-13 -50h-897v-2q-13 -193 103 -314q116 -122 297 -122q244 0 391 172h8l39 -39v-8q-168 -197 -445 -197q-217 0 -352 148q-135 146 -121 366q12 273 213 437q150 123 355 123zM270 557h828q23 182 -72 299q-97 121 -278 121q-180 0 -310 -113
q-136 -118 -168 -307z" />
    <glyph glyph-name="igrave" unicode="&#xec;" 
d="M274 1454h7l364 -262v-6l-29 -39h-6l-377 246v6zM254 0h-78l184 1024h78z" />
    <glyph glyph-name="iacute" unicode="&#xed;" 
d="M231 1192l367 262h6l41 -55l-2 -6l-375 -246h-8l-29 39v6zM254 0h-78l184 1024h78z" />
    <glyph glyph-name="icircumflex" unicode="&#xee;" 
d="M444 1399h17l217 -187l-2 -6l-33 -37h-6l-193 148l-247 -154h-7l-24 43v6zM254 0h-78l184 1024h78z" />
    <glyph glyph-name="idieresis" unicode="&#xef;" 
d="M285 1204q-31 0 -52.5 21.5t-21.5 52.5q0 39 27.5 67.5t66.5 28.5q29 0 51.5 -21.5t22.5 -49.5q0 -41 -27.5 -70t-66.5 -29zM573 1204q-31 0 -52 21.5t-21 52.5q0 39 27.5 67.5t66.5 28.5q31 0 53.5 -21.5t22.5 -49.5q0 -41 -29 -70t-68 -29zM254 0h-78l184 1024h78z" />
    <glyph glyph-name="eth" unicode="&#xf0;" horiz-adv-x="1142" 
d="M1184 1274l6 -6l-10 -60l-215 -75q205 -354 170 -682q-23 -209 -167 -341q-145 -133 -356 -133q-193 0 -318 125q-126 124 -126 318q0 221 153 371q152 149 373 149q105 0 199 -47q93 -47 145 -125q-52 172 -151 338l-246 -86l-4 6l10 59l209 74q-53 87 -131 184l2 9
l53 39h8q83 -107 146 -205zM1059 492q2 165 -100 269q-103 105 -265 105q-189 0 -317 -127q-129 -127 -129 -313q0 -164 103 -270q102 -107 261 -107q189 0 317 128q125 127 130 315z" />
    <glyph glyph-name="ntilde" unicode="&#xf1;" horiz-adv-x="1177" 
d="M555 1227h-14l-4 4l12 67q49 70 145 70q52 0 146 -36t133 -36q89 0 129 70h12l4 -4l-10 -68q-52 -68 -147 -67q-42 0 -132 35q-89 34 -143 34q-90 2 -131 -69zM801 1049q184 0 276 -122t56 -304l-111 -623h-78l111 618q28 160 -45 260q-74 99 -226 99q-118 0 -225 -65
q-107 -66 -156 -169q-36 -64 -43 -135l-110 -608h-78l184 1024h74l-33 -180q73 97 178.5 151t225.5 54z" />
    <glyph glyph-name="ograve" unicode="&#xf2;" horiz-adv-x="1249" 
d="M651 1454h6l365 -262v-6l-29 -39h-6l-377 246v6zM670 -25q-212 0 -352 140t-140 354q0 273 207 446q161 132 379 134q214 0 353 -139q140 -140 140 -355q0 -272 -206 -446q-163 -134 -381 -134zM672 47q192 0 332 123q174 146 174 381q0 184 -118 305t-298 121
q-192 0 -332 -123q-172 -145 -172 -381q0 -183 117 -305q117 -121 297 -121z" />
    <glyph glyph-name="oacute" unicode="&#xf3;" horiz-adv-x="1249" 
d="M608 1192l367 262h6l41 -55l-2 -6l-375 -246h-8l-29 39v6zM670 -25q-212 0 -352 140t-140 354q0 273 207 446q161 132 379 134q214 0 353 -139q140 -140 140 -355q0 -272 -206 -446q-163 -134 -381 -134zM672 47q192 0 332 123q174 146 174 381q0 184 -118 305t-298 121
q-192 0 -332 -123q-172 -145 -172 -381q0 -183 117 -305q117 -121 297 -121z" />
    <glyph glyph-name="ocircumflex" unicode="&#xf4;" horiz-adv-x="1249" 
d="M827 1315l-276 -152h-6l-27 43v6l309 187h17l241 -187l-2 -6l-36 -37h-7zM764 1049q214 0 353 -139q140 -140 140 -355q0 -272 -206 -446q-161 -132 -381 -134q-212 0 -352 140t-140 354q0 273 207 446q163 134 379 134zM1004 170q174 146 174 381q0 184 -118 305
t-298 121q-192 0 -332 -123q-172 -145 -172 -381q0 -183 117 -305q117 -121 297 -121q192 0 332 123z" />
    <glyph glyph-name="otilde" unicode="&#xf5;" horiz-adv-x="1249" 
d="M950 1227q-42 0 -132 35q-87 34 -142 34q-90 0 -131 -69h-15l-4 4l13 67q49 70 145 70q50 0 145 -36q93 -36 134 -36q89 0 129 70h12l4 -4l-10 -68q-52 -67 -148 -67zM670 -25q-212 0 -352 140t-140 354q0 273 207 446q161 132 379 134q214 0 353 -139q140 -140 140 -355
q0 -272 -206 -446q-163 -134 -381 -134zM672 47q192 0 332 123q174 146 174 381q0 184 -118 305t-298 121q-192 0 -332 -123q-172 -145 -172 -381q0 -183 117 -305q117 -121 297 -121z" />
    <glyph glyph-name="odieresis" unicode="&#xf6;" horiz-adv-x="1249" 
d="M662 1204q-31 0 -52.5 21.5t-21.5 52.5q0 39 27.5 67.5t66.5 28.5q29 0 51.5 -21.5t22.5 -49.5q0 -41 -27.5 -70t-66.5 -29zM950 1204q-31 0 -52 21.5t-21 52.5q0 39 27.5 67.5t66.5 28.5q31 0 53.5 -21.5t22.5 -49.5q0 -41 -29 -70t-68 -29zM670 -25q-212 0 -352 140
t-140 354q0 273 207 446q161 132 379 134q214 0 353 -139q140 -140 140 -355q0 -272 -206 -446q-163 -134 -381 -134zM672 47q192 0 332 123q174 146 174 381q0 184 -118 305t-298 121q-192 0 -332 -123q-172 -145 -172 -381q0 -183 117 -305q117 -121 297 -121z" />
    <glyph glyph-name="divide" unicode="&#xf7;" horiz-adv-x="1079" 
d="M705 858q-31 0 -53.5 21.5t-22.5 50.5q0 41 28.5 69.5t67.5 28.5q30 0 52 -22t22 -52q0 -39 -27.5 -67.5t-66.5 -28.5zM238 582l12 69h815l-12 -69h-815zM586 201q-33 0 -54.5 21.5t-21.5 51.5q0 39 27.5 68t66.5 29q31 0 53.5 -21.5t22.5 -50.5q0 -41 -27.5 -69.5
t-66.5 -28.5z" />
    <glyph glyph-name="oslash" unicode="&#xf8;" horiz-adv-x="1249" 
d="M1305 1137l-193 -224q145 -135 145 -358q0 -272 -206 -446q-161 -132 -381 -134q-164 0 -291 88l-137 -157h-82l-4 8l168 195q-144 140 -146 360q0 273 207 446q161 132 379 134q171 0 295 -91l162 187h82zM258 473q0 -183 117 -305l635 733q-109 76 -248 76
q-192 0 -332 -123q-172 -145 -172 -381zM1004 170q174 146 174 381q0 186 -117 303l-633 -731q103 -76 244 -76q192 0 332 123z" />
    <glyph glyph-name="ugrave" unicode="&#xf9;" horiz-adv-x="1155" 
d="M987 1186l-29 -39h-6l-377 246v6l41 55h7l364 -262v-6zM975 385l115 639h77l-184 -1024h-76l33 166q-140 -189 -379 -191q-182 0 -274 113t-60 299l115 637h78l-115 -637q-29 -155 44 -247q73 -93 222 -93q122 0 216 58.5t149 160.5q26 44 39 119z" />
    <glyph glyph-name="uacute" unicode="&#xfa;" horiz-adv-x="1155" 
d="M985 1393l-375 -246h-8l-29 39v6l367 262h6l41 -55zM975 385l115 639h77l-184 -1024h-76l33 166q-140 -189 -379 -191q-182 0 -274 113t-60 299l115 637h78l-115 -637q-29 -155 44 -247q73 -93 222 -93q122 0 216 58.5t149 160.5q26 44 39 119z" />
    <glyph glyph-name="ucircumflex" unicode="&#xfb;" horiz-adv-x="1155" 
d="M793 1315l-277 -152h-6l-27 43v6l310 187h16l242 -187l-2 -6l-37 -37h-6zM975 385l115 639h77l-184 -1024h-76l33 166q-140 -189 -379 -191q-182 0 -274 113t-60 299l115 637h78l-115 -637q-29 -155 44 -247q73 -93 222 -93q122 0 216 58.5t149 160.5q26 44 39 119z" />
    <glyph glyph-name="udieresis" unicode="&#xfc;" horiz-adv-x="1155" 
d="M627 1204q-31 0 -52.5 21.5t-21.5 52.5q0 39 27.5 67.5t66.5 28.5q29 0 51.5 -21.5t22.5 -49.5q0 -41 -27.5 -70t-66.5 -29zM915 1204q-31 0 -52 21.5t-21 52.5q0 39 27.5 67.5t66.5 28.5q31 0 53.5 -21.5t22.5 -49.5q0 -41 -29 -70t-68 -29zM975 385l115 639h77
l-184 -1024h-76l33 166q-140 -189 -379 -191q-182 0 -274 113t-60 299l115 637h78l-115 -637q-29 -155 44 -247q73 -93 222 -93q122 0 216 58.5t149 160.5q26 44 39 119z" />
    <glyph glyph-name="yacute" unicode="&#xfd;" horiz-adv-x="1013" 
d="M905 1393l-375 -246h-8l-28 39v6l366 262h6l41 -55zM1063 1024h80l6 -8l-707 -1159q-59 -99 -118 -142t-134 -43q-78 0 -133 43v9l33 49l10 2q41 -35 95 -35q96 0 174 129l102 168l-252 979l6 8h74l229 -889z" />
    <glyph glyph-name="thorn" unicode="&#xfe;" horiz-adv-x="1273" 
d="M819 1049q199 0 329 -138q130 -139 130 -352q0 -243 -157 -413q-157 -171 -396 -171q-147 0 -263 84t-161 230l-106 -596h-78l295 1638h73l-90 -495q156 213 424 213zM725 47q201 0 337 150q136 148 136 360q0 183 -108 301q-110 119 -281 119q-207 0 -339 -146
q-132 -147 -132 -364q0 -183 108 -301q107 -119 279 -119z" />
    <glyph glyph-name="ydieresis" unicode="&#xff;" horiz-adv-x="1013" 
d="M547 1204q-31 0 -52.5 21.5t-21.5 52.5q0 39 27.5 67.5t66.5 28.5q29 0 51.5 -21.5t22.5 -49.5q0 -41 -27.5 -70t-66.5 -29zM836 1204q-31 0 -52.5 21.5t-21.5 52.5q0 39 27.5 67.5t66.5 28.5q31 0 53.5 -21.5t22.5 -49.5q0 -41 -28.5 -70t-67.5 -29zM1063 1024h80l6 -8
l-707 -1159q-59 -99 -118 -142t-134 -43q-78 0 -133 43v9l33 49l10 2q41 -35 95 -35q96 0 174 129l102 168l-252 979l6 8h74l229 -889z" />
    <glyph glyph-name="Amacron" unicode="&#x100;" horiz-adv-x="1306" 
d="M649 1575h551l-12 -66h-551zM868 1331h50l344 -1323l-7 -8h-73l-84 330h-764l-203 -330h-80l-4 8zM874 1204l-495 -803h700z" />
    <glyph glyph-name="amacron" unicode="&#x101;" horiz-adv-x="1075" 
d="M453 1231l12 67h545l-13 -67h-544zM975 934q92 -111 57 -299l-114 -635h-76l28 160q-68 -87 -171 -136t-218 -49q-157 0 -255 80q-97 79 -97 211q0 160 129 260q129 99 334 99t346 -93l18 115q27 151 -43 240q-78 90 -229 90q-98 0 -190 -39t-150 -107h-8l-39 41l2 9
q64 75 168 121q105 47 219 47q193 0 289 -115zM485 47q151 0 273 85q123 86 147 228l19 97q-143 98 -338 98q-164 0 -270 -79q-107 -80 -107 -204q0 -104 76 -164q74 -61 200 -61z" />
    <glyph glyph-name="Abreve" unicode="&#x102;" horiz-adv-x="1306" 
d="M1091 1515q-80 -67 -179 -67t-164 68q-66 68 -62 176h72q-2 -80 43.5 -129.5t120.5 -49.5q71 0 126 48t85 131h71q-33 -110 -113 -177zM868 1331h50l344 -1323l-7 -8h-73l-84 330h-764l-203 -330h-80l-4 8zM874 1204l-495 -803h700z" />
    <glyph glyph-name="abreve" unicode="&#x103;" horiz-adv-x="1075" 
d="M729 1174q-111 0 -177 68q-67 67 -60 175h71q-2 -80 45 -130t123 -50q75 0 136 49t89 131h72q-33 -110 -113 -177q-79 -66 -186 -66zM975 934q92 -111 57 -299l-114 -635h-76l28 160q-68 -87 -171 -136t-218 -49q-157 0 -255 80q-97 79 -97 211q0 160 129 260
q129 99 334 99t346 -93l18 115q27 151 -43 240q-78 90 -229 90q-98 0 -190 -39t-150 -107h-8l-39 41l2 9q64 75 168 121q105 47 219 47q193 0 289 -115zM485 47q151 0 273 85q123 86 147 228l19 97q-143 98 -338 98q-164 0 -270 -79q-107 -80 -107 -204q0 -104 76 -164
q74 -61 200 -61z" />
    <glyph glyph-name="Aogonek" unicode="&#x104;" horiz-adv-x="1306" 
d="M1298 -287l7 -2l14 -41l-4 -8q-66 -31 -137 -31q-74 0 -119 39t-45 103q0 137 166 237l-82 320h-764l-203 -330h-80l-4 8l821 1323h50l344 -1323l-7 -8q-1 -1 -20.5 -13.5t-46.5 -32.5t-47 -40q-56 -56 -56 -125q0 -45 30 -71.5t79 -26.5q48 0 104 22zM874 1204
l-495 -803h700z" />
    <glyph glyph-name="aogonek" unicode="&#x105;" horiz-adv-x="1075" 
d="M1032 635l-114 -635q-1 -1 -21.5 -13t-47.5 -32t-46 -41q-55 -55 -55 -125q-2 -69 64 -90.5t149 14.5l6 -2l14 -41l-4 -8q-66 -31 -137 -31q-74 0 -119 39t-45 103q0 139 168 239l26 148q-68 -87 -171 -136t-218 -49q-157 0 -255 80q-97 79 -97 211q0 160 129 260
q129 99 334 99t346 -93l18 115q27 151 -43 240q-78 90 -229 90q-98 0 -190 -39t-150 -107h-8l-39 41l2 9q64 75 168 121q105 47 219 47q193 0 289 -115q92 -111 57 -299zM485 47q151 0 273 85q123 86 147 228l19 97q-143 98 -338 98q-164 0 -270 -79q-107 -80 -107 -204
q0 -104 76 -164q74 -61 200 -61z" />
    <glyph glyph-name="Cacute" unicode="&#x106;" horiz-adv-x="1404" 
d="M850 1495l338 231h6l39 -57l-2 -6l-350 -211h-7l-24 37v6zM848 -25q-277 0 -455 181q-180 180 -180 454q0 161 62 308q62 146 176 247q207 189 514 191q169 0 309 -69q139 -70 211 -187v-8l-58 -39h-8q-65 105 -186 167q-122 60 -272 60q-273 0 -461 -174
q-207 -195 -207 -494q0 -242 159 -401q157 -160 400 -160q286 0 491 219h9l47 -43v-8q-226 -244 -551 -244z" />
    <glyph glyph-name="cacute" unicode="&#x107;" horiz-adv-x="1126" 
d="M606 1192l367 262h6l41 -55l-2 -6l-375 -246h-8l-29 39v6zM668 -25q-208 0 -348 140t-140 354q0 281 213 451q158 129 373 129q268 0 403 -218v-8l-49 -35h-8q-118 187 -344 189q-194 0 -334 -119q-174 -146 -174 -383q0 -186 115 -307q114 -121 297 -121q229 0 372 164
h9l41 -37v-8q-164 -191 -426 -191z" />
    <glyph glyph-name="Cdotaccent" unicode="&#x10a;" horiz-adv-x="1404" 
d="M1022 1493q-33 0 -54.5 21.5t-21.5 52.5q0 39 27.5 67.5t66.5 28.5q31 0 53.5 -21.5t22.5 -50.5q0 -41 -27.5 -69.5t-66.5 -28.5zM848 -25q-277 0 -455 181q-180 180 -180 454q0 161 62 308q62 146 176 247q207 189 514 191q169 0 309 -69q139 -70 211 -187v-8l-58 -39
h-8q-65 105 -186 167q-122 60 -272 60q-273 0 -461 -174q-207 -195 -207 -494q0 -242 159 -401q157 -160 400 -160q286 0 491 219h9l47 -43v-8q-226 -244 -551 -244z" />
    <glyph glyph-name="cdotaccent" unicode="&#x10b;" horiz-adv-x="1126" 
d="M807 1206q-31 0 -53.5 21.5t-22.5 50.5q0 39 26.5 66.5t65.5 27.5q31 0 52.5 -20.5t21.5 -51.5q0 -39 -26.5 -66.5t-63.5 -27.5zM668 -25q-208 0 -348 140t-140 354q0 281 213 451q158 129 373 129q268 0 403 -218v-8l-49 -35h-8q-118 187 -344 189q-194 0 -334 -119
q-174 -146 -174 -383q0 -186 115 -307q114 -121 297 -121q229 0 372 164h9l41 -37v-8q-164 -191 -426 -191z" />
    <glyph glyph-name="Ccaron" unicode="&#x10c;" horiz-adv-x="1404" 
d="M1335 1651l-319 -185h-12l-254 185l2 6l32 39h7l227 -146l291 152h6l22 -45zM965 1356q169 0 309 -69q139 -70 211 -187v-8l-58 -39h-8q-65 105 -186 167q-122 60 -272 60q-273 0 -461 -174q-207 -195 -207 -494q0 -242 159 -401q157 -160 400 -160q286 0 491 219h9
l47 -43v-8q-226 -244 -551 -244q-277 0 -455 181q-180 180 -180 454q0 161 62 308q62 146 176 247q209 191 514 191z" />
    <glyph glyph-name="ccaron" unicode="&#x10d;" horiz-adv-x="1126" 
d="M1104 1331l-303 -186h-19l-243 186l2 6l39 37h6l215 -147l272 151h6l27 -41zM766 1049q268 0 403 -218v-8l-49 -35h-8q-118 187 -344 189q-194 0 -334 -119q-174 -146 -174 -383q0 -186 115 -307q114 -121 297 -121q229 0 372 164h9l41 -37v-8q-163 -189 -426 -191
q-208 0 -348 140t-140 354q0 281 213 451q158 129 373 129z" />
    <glyph glyph-name="Dcaron" unicode="&#x10e;" horiz-adv-x="1443" 
d="M1249 1651l-319 -185h-12l-254 185l2 6l32 39h7l227 -146l291 152h6l22 -45zM440 1331h488q264 0 405 -145q140 -146 140 -398q0 -359 -208 -573q-209 -215 -571 -215h-493zM295 72h403q326 0 510 195q183 193 183 515q0 224 -120 351t-351 127h-412z" />
    <glyph glyph-name="dcaron" unicode="&#x10f;" horiz-adv-x="1277" 
d="M1540 1438h76l4 -8l-154 -338l-6 -7h-45l-4 7l121 338zM1159 737l119 654l70 6l8 -6l-252 -1391h-74l35 188q-157 -213 -422 -213q-201 0 -331 139q-130 137 -130 351q0 244 158 414t395 170q147 0 263 -83t161 -229zM651 47q206 0 340 147q133 145 133 363
q0 184 -106 302t-281 118q-202 0 -339 -149q-136 -149 -136 -361q0 -183 109 -301q108 -119 280 -119z" />
    <glyph glyph-name="Dcroat" unicode="&#x110;" horiz-adv-x="1486" 
d="M455 1331h487q264 0 405 -145q140 -146 140 -398q0 -359 -208 -573q-209 -215 -570 -215h-494l115 637h-180l12 70h180zM309 72h404q326 0 509 195q183 193 183 515q0 224 -120 351t-351 127h-412l-100 -553h418l-15 -70h-415z" />
    <glyph glyph-name="dslash" unicode="&#x111;" horiz-adv-x="1273" 
d="M1325 1231h127l-12 -66h-127l-211 -1165h-74l35 188q-157 -213 -424 -213q-199 0 -329 139q-130 137 -130 351q0 244 158 414t393 170q151 0 266 -85t160 -231l78 432h-322l13 66h321l29 160l67 6l11 -6zM649 47q207 0 339 147q132 146 132 363q0 183 -106 301
q-107 119 -279 119q-205 0 -340 -149q-135 -150 -135 -361q0 -183 109 -301q108 -119 280 -119z" />
    <glyph glyph-name="Emacron" unicode="&#x112;" horiz-adv-x="1122" 
d="M594 1509l12 66h551l-12 -66h-551zM1276 1331l-14 -71h-754l-98 -551h598l-13 -72h-600l-102 -565h756l-13 -72h-835l239 1331h836z" />
    <glyph glyph-name="emacron" unicode="&#x113;" horiz-adv-x="1159" 
d="M524 1298h545l-12 -67h-545zM752 1049q216 0 337 -153q121 -152 85 -361l-13 -50h-897v-2q-13 -193 103 -314q116 -122 297 -122q244 0 391 172h8l39 -39v-8q-168 -197 -445 -197q-217 0 -352 148q-135 146 -121 366q12 273 213 437q150 123 355 123zM270 557h828
q23 182 -72 299q-97 121 -278 121q-180 0 -310 -113q-136 -118 -168 -307z" />
    <glyph glyph-name="Edotaccent" unicode="&#x116;" horiz-adv-x="1122" 
d="M872 1493q-33 0 -54 21.5t-21 52.5q0 39 27.5 67.5t66.5 28.5q31 0 53.5 -21.5t22.5 -50.5q0 -41 -28 -69.5t-67 -28.5zM1276 1331l-14 -71h-754l-98 -551h598l-13 -72h-600l-102 -565h756l-13 -72h-835l239 1331h836z" />
    <glyph glyph-name="edotaccent" unicode="&#x117;" horiz-adv-x="1159" 
d="M788 1206q-31 0 -53 21.5t-22 50.5q0 39 26.5 66.5t65.5 27.5q31 0 52.5 -20.5t21.5 -51.5q0 -39 -27 -66.5t-64 -27.5zM752 1049q216 0 337 -153q121 -152 85 -361l-13 -50h-897v-2q-13 -193 103 -314q116 -122 297 -122q244 0 391 172h8l39 -39v-8q-168 -197 -445 -197
q-217 0 -352 148q-135 146 -121 366q12 273 213 437q150 123 355 123zM270 557h828q23 182 -72 299q-97 121 -278 121q-180 0 -310 -113q-136 -118 -168 -307z" />
    <glyph glyph-name="Eogonek" unicode="&#x118;" horiz-adv-x="1122" 
d="M1276 1331l-14 -71h-754l-98 -551h598l-13 -72h-600l-102 -565h756l-13 -72q-1 -1 -20.5 -13.5t-46.5 -32.5t-47 -40q-56 -56 -56 -125q-2 -68 64.5 -90.5t148.5 14.5l6 -2l15 -41l-4 -8q-66 -31 -138 -31q-74 0 -118.5 39t-44.5 103q0 125 147 227h-741l239 1331h836z
" />
    <glyph glyph-name="eogonek" unicode="&#x119;" horiz-adv-x="1159" 
d="M752 1049q216 0 337 -153q121 -152 85 -361l-13 -50h-897v-2q-13 -193 103 -314q116 -122 297 -122q244 0 391 172h8l39 -39v-8q-97 -114 -234 -160q-145 -94 -145 -196q-2 -69 64.5 -91.5t148.5 15.5l6 -2l14 -41l-4 -8q-66 -31 -137 -31q-74 0 -119 39t-45 102
q0 91 90 183q-36 -5 -84 -7q-217 0 -352 148q-135 146 -121 366q12 273 213 437q150 123 355 123zM270 557h828q23 182 -72 299q-97 121 -278 121q-180 0 -310 -113q-136 -118 -168 -307z" />
    <glyph glyph-name="Ecaron" unicode="&#x11a;" horiz-adv-x="1122" 
d="M1186 1651l-320 -185h-12l-254 185l2 6l33 39h6l227 -146l291 152h6l23 -45zM1276 1331l-14 -71h-754l-98 -551h598l-13 -72h-600l-102 -565h756l-13 -72h-835l239 1331h836z" />
    <glyph glyph-name="ecaron" unicode="&#x11b;" horiz-adv-x="1159" 
d="M1085 1331l-303 -186h-18l-244 186l2 6l39 37h6l215 -147l273 151h6l26 -41zM752 1049q216 0 337 -153q121 -152 85 -361l-13 -50h-897v-2q-13 -193 103 -314q116 -122 297 -122q244 0 391 172h8l39 -39v-8q-168 -197 -445 -197q-217 0 -352 148q-135 146 -121 366
q12 273 213 437q150 123 355 123zM270 557h828q23 182 -72 299q-97 121 -278 121q-180 0 -310 -113q-136 -118 -168 -307z" />
    <glyph glyph-name="Gbreve" unicode="&#x11e;" horiz-adv-x="1495" 
d="M1177 1515q-80 -67 -179 -67t-164 68q-66 68 -62 176h72q-2 -80 43.5 -129.5t120.5 -49.5q71 0 126 48t85 131h71q-33 -110 -113 -177zM834 -25q-272 0 -449 181q-178 179 -178 454q0 342 237 555q207 189 514 191q166 0 305 -76q138 -77 214 -197v-8l-56 -39h-8
q-67 109 -188 177q-121 67 -269 67q-276 0 -462 -174q-207 -195 -207 -494q0 -242 156 -401q154 -160 395 -160q243 4 401 144q169 147 219 419h-569l14 72h635l8 -8q0 -13 -2 -27q-46 -334 -252 -514q-178 -162 -458 -162z" />
    <glyph glyph-name="gbreve" unicode="&#x11f;" horiz-adv-x="1212" 
d="M756 1174q-111 0 -177 68q-67 67 -61 175h72q-2 -80 45 -130t123 -50q75 0 135 48.5t90 131.5h72q-33 -110 -113 -177q-80 -66 -186 -66zM1106 782l43 242h76l-160 -889q-40 -223 -183 -343q-142 -120 -352 -120q-142 0 -254 59q-112 60 -163 165l2 8l55 37h8
q41 -93 137.5 -145t227.5 -52q173 0 292 102q118 104 152 289l27 150q-31 -39 -70 -70q-136 -113 -323 -113q-181 0 -303 123q-121 122 -121 310q0 119 47.5 223t134.5 176q136 115 330 115q197 0 317 -134q52 -57 80 -133zM897 256q174 130 174 358q0 156 -99 259
q-101 102 -259 102q-173 0 -291 -103q-144 -128 -146 -337q0 -159 99 -259q98 -102 256 -102q156 0 266 82z" />
    <glyph glyph-name="Gdotaccent" unicode="&#x120;" horiz-adv-x="1495" 
d="M1001 1493q-33 0 -54 21.5t-21 52.5q0 39 27.5 67.5t66.5 28.5q31 0 53.5 -21.5t22.5 -50.5q0 -41 -28 -69.5t-67 -28.5zM834 -25q-272 0 -449 181q-178 179 -178 454q0 342 237 555q207 189 514 191q166 0 305 -76q138 -77 214 -197v-8l-56 -39h-8q-67 109 -188 177
q-121 67 -269 67q-276 0 -462 -174q-207 -195 -207 -494q0 -242 156 -401q154 -160 395 -160q243 4 401 144q169 147 219 419h-569l14 72h635l8 -8q0 -13 -2 -27q-46 -334 -252 -514q-178 -162 -458 -162z" />
    <glyph glyph-name="gdotaccent" unicode="&#x121;" horiz-adv-x="1212" 
d="M756 1206q-31 0 -53.5 21.5t-22.5 50.5q0 39 26.5 66.5t65.5 27.5q31 0 52.5 -20.5t21.5 -51.5q0 -39 -26.5 -66.5t-63.5 -27.5zM1106 782l43 242h76l-160 -889q-40 -223 -183 -343q-142 -120 -352 -120q-142 0 -254 59q-112 60 -163 165l2 8l55 37h8q41 -93 137.5 -145
t227.5 -52q173 0 292 102q118 104 152 289l27 150q-31 -39 -70 -70q-136 -113 -323 -113q-181 0 -303 123q-121 122 -121 310q0 119 47.5 223t134.5 176q136 115 330 115q197 0 317 -134q52 -57 80 -133zM897 256q174 130 174 358q0 156 -99 259q-101 102 -259 102
q-173 0 -291 -103q-144 -128 -146 -337q0 -159 99 -259q98 -102 256 -102q156 0 266 82z" />
    <glyph glyph-name="uni0122" unicode="&#x122;" horiz-adv-x="1495" 
d="M834 -25q-272 0 -449 181q-178 179 -178 454q0 342 237 555q207 189 514 191q166 0 305 -76q138 -77 214 -197v-8l-56 -39h-8q-67 109 -188 177q-121 67 -269 67q-276 0 -462 -174q-207 -195 -207 -494q0 -242 156 -401q154 -160 395 -160q243 4 401 144q169 147 219 419
h-569l14 72h635l8 -8q0 -13 -2 -27q-46 -334 -252 -514q-178 -162 -458 -162zM649 -399l103 290l8 7h71l5 -7l-131 -290l-9 -7h-45z" />
    <glyph glyph-name="uni0123" unicode="&#x123;" horiz-adv-x="1212" 
d="M780 1157l-8 -6h-72l-4 6l131 291l9 6h45l2 -6zM1106 782l43 242h76l-160 -889q-40 -223 -183 -343q-142 -120 -352 -120q-142 0 -254 59q-112 60 -163 165l2 8l55 37h8q41 -93 137.5 -145t227.5 -52q173 0 292 102q118 104 152 289l27 150q-31 -39 -70 -70
q-136 -113 -323 -113q-181 0 -303 123q-121 122 -121 310q0 119 47.5 223t134.5 176q136 115 330 115q197 0 317 -134q52 -57 80 -133zM897 256q174 130 174 358q0 156 -99 259q-101 102 -259 102q-173 0 -291 -103q-144 -128 -146 -337q0 -159 99 -259q98 -102 256 -102
q156 0 266 82z" />
    <glyph glyph-name="Hbar" unicode="&#x126;" horiz-adv-x="1439" 
d="M1395 1020h118l-10 -64h-121l-172 -956h-80l115 637h-850l-112 -637h-82l172 956h-119l12 64h119l55 311h82l-55 -311h848l55 311h80zM410 709h847l46 247h-848z" />
    <glyph glyph-name="hbar" unicode="&#x127;" horiz-adv-x="1177" 
d="M801 1049q184 0 276 -122t56 -304l-111 -623h-80l111 618q31 175 -52 271q-72 88 -215 88q-122 0 -228 -66q-108 -69 -157 -172q-30 -53 -41 -131l-110 -608h-78l205 1137h-141l12 65h139l35 189l70 6l8 -6l-35 -189h311l-10 -65h-313l-54 -291q155 203 402 203z" />
    <glyph glyph-name="Itilde" unicode="&#x128;" horiz-adv-x="483" 
d="M629 1495q-42 0 -115 37t-121 37q-72 0 -110 -74h-13l-4 6l13 72q43 70 127 69q47 0 122 -36q73 -37 111 -37q74 0 113 73h12l2 -6l-10 -71q-40 -70 -127 -70zM201 0l239 1331h82l-239 -1331h-82z" />
    <glyph glyph-name="itilde" unicode="&#x129;" 
d="M557 1227q-38 0 -120 35q-80 34 -128 34q-81 0 -116 -69h-15l-4 4l12 67q43 70 131 70q47 0 130 -36t120 -36q78 0 117 70h10l4 -4l-8 -68q-46 -67 -133 -67zM254 0h-78l184 1024h78z" />
    <glyph glyph-name="Imacron" unicode="&#x12a;" horiz-adv-x="483" 
d="M262 1509l12 66h496l-10 -66h-498zM201 0l239 1331h82l-239 -1331h-82z" />
    <glyph glyph-name="imacron" unicode="&#x12b;" 
d="M180 1231l10 67h490l-10 -67h-490zM254 0h-78l184 1024h78z" />
    <glyph glyph-name="Iogonek" unicode="&#x12e;" horiz-adv-x="483" 
d="M326 -287l6 -2l14 -41l-4 -8q-66 -31 -137 -31q-74 0 -119 39t-45 103q0 135 162 235l237 1323h82l-239 -1331q-1 -1 -22 -13.5t-44.5 -30.5t-48.5 -42t-40.5 -57t-14.5 -68q0 -69 64.5 -90.5t148.5 14.5z" />
    <glyph glyph-name="iogonek" unicode="&#x12f;" 
d="M449 1372q31 0 52 -20.5t21 -51.5q0 -39 -26.5 -66.5t-63.5 -27.5q-31 0 -53.5 21.5t-22.5 50.5q0 39 27 66.5t66 27.5zM438 1024l-184 -1024q-1 -1 -20.5 -13.5t-46.5 -32.5t-47 -40q-56 -56 -56 -125q-2 -68 64.5 -90.5t148.5 14.5l6 -2l14 -41l-4 -8q-66 -31 -137 -31
q-74 0 -119 39t-45 103q0 133 166 239l182 1012h78z" />
    <glyph glyph-name="Idot" unicode="&#x130;" horiz-adv-x="483" 
d="M516 1493q-33 0 -54.5 21.5t-21.5 52.5q0 39 28 67.5t67 28.5q31 0 53 -21.5t22 -50.5q0 -41 -27.5 -69.5t-66.5 -28.5zM201 0l239 1331h82l-239 -1331h-82z" />
    <glyph glyph-name="dotlessi" unicode="&#x131;" 
d="M254 0h-78l184 1024h78z" />
    <glyph glyph-name="IJ" unicode="&#x132;" horiz-adv-x="1306" 
d="M201 0l239 1331h82l-239 -1331h-82zM1106 360l174 971h80l-174 -975q-33 -178 -146 -279q-114 -102 -274 -102q-121 0 -213 54.5t-135 148.5l2 8l55 39h8q37 -82 112 -129t173 -47q128 0 220 84q91 83 118 227z" />
    <glyph glyph-name="ij" unicode="&#x133;" horiz-adv-x="831" 
d="M434 1206q-30 0 -49.5 20.5t-19.5 51.5q0 38 31 66q29 28 69 28q29 0 48 -20.5t19 -51.5q0 -36 -30 -65q-32 -29 -68 -29zM838 1206q-30 0 -49 20.5t-19 51.5q0 38 30 66q28 28 66 28q31 0 51.5 -20.5t20.5 -51.5q0 -36 -30 -65q-32 -29 -70 -29zM254 0h-78l184 1024h78z
M420 -328h-8l-21 54l2 8q80 45 127 106q44 59 64 164l182 1020h78l-182 -1016q-23 -132 -81 -205q-57 -71 -161 -131z" />
    <glyph glyph-name="uni0136" unicode="&#x136;" horiz-adv-x="1144" 
d="M1358 1331l4 -8l-684 -578l436 -737l-6 -8h-84l-408 694l-245 -207l-88 -487h-82l239 1331h82l-133 -737l873 737h96zM586 -109l8 7h72l4 -7l-131 -290l-9 -7h-45l-2 7z" />
    <glyph glyph-name="uni0137" unicode="&#x137;" horiz-adv-x="966" 
d="M1110 1024l4 -8l-481 -416l317 -592l-8 -8h-78l-291 549l-266 -230l-57 -319h-78l250 1391l70 6l8 -6l-174 -965l692 598h92zM500 -109l8 7h72l4 -7l-131 -290l-9 -7h-45l-2 7z" />
    <glyph glyph-name="kgreenlandic" unicode="&#x138;" horiz-adv-x="966" 
d="M1110 1024l4 -8l-481 -416l317 -592l-8 -8h-78l-291 549l-266 -230l-57 -319h-78l184 1024l70 6l8 -4l-108 -602l692 600h92z" />
    <glyph glyph-name="Lacute" unicode="&#x139;" horiz-adv-x="995" 
d="M319 1495l338 231h7l38 -57l-2 -6l-350 -211h-6l-25 37v6zM293 72h682l-12 -72h-762l239 1331h82z" />
    <glyph glyph-name="lacute" unicode="&#x13a;" 
d="M274 1497l338 232h6l39 -58l-2 -6l-350 -211h-6l-25 37v6zM254 0h-78l250 1391l70 6l8 -6z" />
    <glyph glyph-name="uni013B" unicode="&#x13b;" horiz-adv-x="995" 
d="M293 72h682l-12 -72h-762l239 1331h82zM434 -399l103 290l8 7h71l5 -7l-132 -290l-8 -7h-45z" />
    <glyph glyph-name="uni013C" unicode="&#x13c;" 
d="M254 0h-78l250 1391l70 6l8 -6zM53 -399l103 290l8 7h72l4 -7l-131 -290l-9 -7h-45z" />
    <glyph glyph-name="Lcaron" unicode="&#x13d;" horiz-adv-x="995" 
d="M737 1106l107 338l8 6h76l4 -6l-137 -338l-11 -6h-45zM293 72h682l-12 -72h-762l239 1331h82z" />
    <glyph glyph-name="lcaron" unicode="&#x13e;" horiz-adv-x="428" 
d="M573 1092l123 338l6 8h76l4 -8l-153 -338l-6 -7h-45zM254 0h-78l250 1391l70 6l8 -6z" />
    <glyph glyph-name="Ldot" unicode="&#x13f;" horiz-adv-x="1019" 
d="M293 72h682l-12 -72h-762l239 1331h82zM788 582q-32 0 -53.5 21t-21.5 50q0 41 27.5 70t66.5 29q31 0 53.5 -21.5t22.5 -52.5q0 -39 -28 -67.5t-67 -28.5z" />
    <glyph glyph-name="ldot" unicode="&#x140;" horiz-adv-x="448" 
d="M254 0h-78l250 1389l70 8l8 -6zM526 643q-32 0 -53.5 21t-21.5 51q0 39 27.5 67.5t66.5 28.5q31 0 53.5 -21t22.5 -51q0 -39 -28 -67.5t-67 -28.5z" />
    <glyph glyph-name="Lslash" unicode="&#x141;" horiz-adv-x="1056" 
d="M426 575l-92 -503h682l-12 -72h-762l96 537l-215 -99l-6 4l10 66l225 102l129 721h82l-123 -680l297 137l8 -6l-12 -65z" />
    <glyph glyph-name="lslash" unicode="&#x142;" horiz-adv-x="542" 
d="M627 846l8 -6l-12 -64l-189 -88l-123 -688h-78l117 647l-180 -84l-8 4l12 64l188 90l121 670l70 6l8 -6l-112 -629z" />
    <glyph glyph-name="Nacute" unicode="&#x143;" horiz-adv-x="1409" 
d="M1165 1663l-350 -211h-6l-25 37v6l338 231h6l39 -57zM1153 129l217 1202h78l-244 -1351h-49l-661 1198l-213 -1178h-80l239 1331h52z" />
    <glyph glyph-name="nacute" unicode="&#x144;" horiz-adv-x="1177" 
d="M1030 1393l-375 -246h-8l-29 39v6l367 262h6l41 -55zM801 1049q184 0 276 -122t56 -304l-111 -623h-78l111 618q28 160 -45 260q-74 99 -226 99q-118 0 -225 -65q-107 -66 -156 -169q-36 -64 -43 -135l-110 -608h-78l184 1024h74l-33 -180q73 97 178.5 151t225.5 54z" />
    <glyph glyph-name="uni0145" unicode="&#x145;" horiz-adv-x="1409" 
d="M1153 129l217 1202h78l-244 -1351h-49l-661 1198l-213 -1178h-80l239 1331h52zM664 -109l8 7h71l5 -7l-132 -290l-8 -7h-45l-2 7z" />
    <glyph glyph-name="uni0146" unicode="&#x146;" horiz-adv-x="1177" 
d="M801 1049q184 0 276 -122t56 -304l-111 -623h-78l111 618q28 160 -45 260q-74 99 -226 99q-118 0 -225 -65q-107 -66 -156 -169q-36 -64 -43 -135l-110 -608h-78l184 1024h74l-33 -180q73 97 178.5 151t225.5 54zM567 -109l8 7h72l4 -7l-131 -290l-8 -7h-45l-2 7z" />
    <glyph glyph-name="Ncaron" unicode="&#x147;" horiz-adv-x="1409" 
d="M1270 1651l-320 -185h-12l-254 185l2 6l33 39h6l227 -146l291 152h6l23 -45zM1153 129l217 1202h78l-244 -1351h-49l-661 1198l-213 -1178h-80l239 1331h52z" />
    <glyph glyph-name="ncaron" unicode="&#x148;" horiz-adv-x="1177" 
d="M1116 1331l-303 -186h-18l-244 186l2 6l39 37h6l215 -147l272 151h7l26 -41zM801 1049q184 0 276 -122t56 -304l-111 -623h-78l111 618q28 160 -45 260q-74 99 -226 99q-118 0 -225 -65q-107 -66 -156 -169q-36 -64 -43 -135l-110 -608h-78l184 1024h74l-33 -180
q73 97 178.5 151t225.5 54z" />
    <glyph glyph-name="napostrophe" unicode="&#x149;" horiz-adv-x="1171" 
d="M393 1151l-6 -6h-45l-4 6l115 299l6 6h76l4 -6zM797 1049q180 0 271 -114q91 -113 58 -298l-114 -637h-76l113 633q27 156 -48 250t-227 94q-157 0 -275 -101q-119 -102 -147 -255l-10 -56l-102 -565h-78l184 1024h76l-35 -188q71 100 178 156.5t232 56.5z" />
    <glyph glyph-name="Eng" unicode="&#x14a;" horiz-adv-x="1406" 
d="M821 -397q-102 0 -178.5 45t-112.5 121l2 8l48 30h8q32 -61 95.5 -98t143.5 -37q112 0 192 76q81 76 103 205l11 59l-641 1166l-211 -1178h-80l239 1331h49l662 -1200l217 1200h78l-248 -1380q-32 -165 -133 -256q-104 -92 -244 -92z" />
    <glyph glyph-name="eng" unicode="&#x14b;" horiz-adv-x="1177" 
d="M801 1049q184 0 274 -121q89 -121 58 -305l-103 -572q-26 -141 -88 -223q-63 -82 -174 -135h-8l-21 55l4 8q90 45 140 110q49 66 69 179l103 573q29 161 -44 260t-225 99q-125 0 -232 -68t-157 -176q-25 -45 -37 -125l-110 -608h-78l184 1024h74l-33 -180
q73 97 178.5 151t225.5 54z" />
    <glyph glyph-name="Omacron" unicode="&#x14c;" horiz-adv-x="1564" 
d="M733 1509l12 66h551l-12 -66h-551zM846 -25q-277 0 -455 181q-180 180 -180 454q0 161 62 308q62 146 176 247q207 189 514 191q277 0 455 -180q179 -182 179 -455q0 -163 -61 -307q-62 -148 -176 -248q-209 -191 -514 -191zM850 51q274 0 461 174q207 195 207 494
q0 241 -159 402q-159 159 -401 159q-274 0 -460 -174q-207 -195 -207 -494q0 -242 159 -401q157 -160 400 -160z" />
    <glyph glyph-name="omacron" unicode="&#x14d;" horiz-adv-x="1249" 
d="M532 1231l13 67h545l-13 -67h-545zM670 -25q-212 0 -352 140t-140 354q0 273 207 446q161 132 379 134q214 0 353 -139q140 -140 140 -355q0 -272 -206 -446q-163 -134 -381 -134zM672 47q192 0 332 123q174 146 174 381q0 184 -118 305t-298 121q-192 0 -332 -123
q-172 -145 -172 -381q0 -183 117 -305q117 -121 297 -121z" />
    <glyph glyph-name="Ohungarumlaut" unicode="&#x150;" horiz-adv-x="1564" 
d="M793 1456l213 299h86l4 -8l-240 -297h-61zM1030 1456l213 299h86l2 -8l-239 -297h-60zM846 -25q-277 0 -455 181q-180 180 -180 454q0 161 62 308q62 146 176 247q207 189 514 191q277 0 455 -180q179 -182 179 -455q0 -163 -61 -307q-62 -148 -176 -248
q-209 -191 -514 -191zM850 51q274 0 461 174q207 195 207 494q0 241 -159 402q-159 159 -401 159q-274 0 -460 -174q-207 -195 -207 -494q0 -242 159 -401q157 -160 400 -160z" />
    <glyph glyph-name="ohungarumlaut" unicode="&#x151;" horiz-adv-x="1249" 
d="M584 1151l186 299l8 6h80l4 -6l-219 -299l-8 -6h-47zM809 1151l186 299l9 6h81l5 -6l-222 -299l-6 -6h-49zM670 -25q-212 0 -352 140t-140 354q0 273 207 446q161 132 379 134q214 0 353 -139q140 -140 140 -355q0 -272 -206 -446q-163 -134 -381 -134zM672 47
q192 0 332 123q174 146 174 381q0 184 -118 305t-298 121q-192 0 -332 -123q-172 -145 -172 -381q0 -183 117 -305q117 -121 297 -121z" />
    <glyph glyph-name="OE" unicode="&#x152;" horiz-adv-x="2373" 
d="M2480 1331l-14 -71h-754l-98 -551h598l-12 -72h-601l-102 -565h756l-12 -72h-836l49 266q-40 -54 -92 -100q-207 -189 -514 -191q-274 0 -454 181q-181 180 -181 454q0 340 240 555q206 189 514 191q218 0 382 -119q162 -118 222 -313l74 407h835zM1315 225
q205 195 205 494q0 243 -158 403q-158 158 -399 158q-275 0 -463 -174q-207 -195 -207 -494q0 -242 159 -401q157 -160 400 -160q272 0 463 174z" />
    <glyph glyph-name="oe" unicode="&#x153;" horiz-adv-x="2152" 
d="M1745 1049q215 0 337 -153q122 -154 85 -361l-13 -50h-899q-6 -203 109 -320q115 -118 293 -118q244 0 389 172h8l41 -39v-8q-168 -197 -444 -197q-161 0 -285 86t-170 234q-52 -108 -145 -186q-161 -132 -381 -134q-212 0 -352 140t-140 354q0 273 207 446
q161 132 379 134q167 0 294 -89q125 -89 175 -239q55 121 156 205q151 123 356 123zM1004 170q154 127 172 332v10q2 16 2 39q0 184 -118 305t-298 121q-192 0 -332 -123q-172 -145 -172 -381q0 -183 117 -305q117 -121 297 -121q192 0 332 123zM1266 557h823
q25 187 -73 304q-99 116 -275 116q-185 0 -315 -117q-131 -116 -160 -303z" />
    <glyph glyph-name="Racute" unicode="&#x154;" horiz-adv-x="1210" 
d="M1036 1663l-350 -211h-6l-25 37v6l338 231h6l39 -57zM1284 1022q0 -167 -101 -282t-278 -142l187 -590l-9 -8h-75l-187 590h-22h-412l-104 -590h-82l239 1331h490q170 0 262 -84t92 -225zM399 659h428q169 0 272 102q103 100 103 255q0 114 -71 179t-201 65h-422z" />
    <glyph glyph-name="racute" unicode="&#x155;" horiz-adv-x="673" 
d="M836 1393l-375 -246h-8l-29 39v6l367 262h6l41 -55zM848 1022l2 -8l-35 -60l-8 -2q-38 23 -105 23q-97 0 -174.5 -55.5t-121.5 -151.5q-26 -48 -46 -150l-110 -618h-78l184 1024h74l-29 -160q56 78 101 109q91 76 217 76q83 0 129 -27z" />
    <glyph glyph-name="uni0156" unicode="&#x156;" horiz-adv-x="1210" 
d="M1284 1022q0 -167 -101 -282t-278 -142l187 -590l-9 -8h-75l-187 590h-22h-412l-104 -590h-82l239 1331h490q170 0 262 -84t92 -225zM399 659h428q169 0 272 102q103 100 103 255q0 114 -71 179t-201 65h-422zM573 -109l9 7h71l4 -7l-131 -290l-8 -7h-45l-2 7z" />
    <glyph glyph-name="uni0157" unicode="&#x157;" horiz-adv-x="673" 
d="M848 1022l2 -8l-35 -60l-8 -2q-38 23 -105 23q-97 0 -174.5 -55.5t-121.5 -151.5q-26 -48 -46 -150l-110 -618h-78l184 1024h74l-29 -160q56 78 101 109q91 76 217 76q83 0 129 -27zM150 -109l8 7h71l4 -7l-131 -290l-8 -7h-45l-2 7z" />
    <glyph glyph-name="Rcaron" unicode="&#x158;" horiz-adv-x="1210" 
d="M1141 1651l-320 -185h-12l-254 185l2 6l33 39h6l227 -146l291 152h6l23 -45zM1284 1022q0 -167 -101 -282t-278 -142l187 -590l-9 -8h-75l-187 590h-22h-412l-104 -590h-82l239 1331h490q170 0 262 -84t92 -225zM399 659h428q169 0 272 102q103 100 103 255
q0 114 -71 179t-201 65h-422z" />
    <glyph glyph-name="rcaron" unicode="&#x159;" horiz-adv-x="673" 
d="M891 1378h6l27 -41l-2 -6l-304 -186h-18l-244 186l2 6l39 37h6l215 -147zM719 1049q83 0 129 -27l2 -8l-35 -60l-8 -2q-38 23 -105 23q-97 0 -174.5 -55.5t-121.5 -151.5q-26 -48 -46 -150l-110 -618h-78l184 1024h74l-29 -160q56 78 101 109q91 76 217 76z" />
    <glyph glyph-name="Sacute" unicode="&#x15a;" horiz-adv-x="1042" 
d="M618 1495l338 231h7l38 -57l-2 -6l-350 -211h-6l-25 37v6zM563 -25q-150 0 -272 71q-122 70 -180 181v9l57 43h8q53 -105 159 -166q106 -62 230 -62q166 0 271 81q104 81 104 212q0 81 -42 130q-9 11 -23 27t-18 21q-14 16 -61 44q-14 8 -35 19.5t-28 15.5q-20 11 -76 38
q-16 8 -32.5 15.5t-26 12.5t-14.5 7q-44 24 -98 56q-39 24 -81 61q-86 73 -86 204q0 158 120 260q121 101 309 101q121 0 219.5 -48t152.5 -137v-8l-53 -43h-6q-47 75 -133.5 117.5t-188.5 42.5q-150 0 -245 -80t-95 -199q0 -87 59 -143q58 -55 179 -115q4 -3 57 -28
l41 -20.5t22 -10.5q10 -6 55 -29q47 -26 58 -37q17 -17 46 -38q15 -12 27 -25t17 -20.5t16 -26t15 -25.5q29 -50 29 -131q0 -172 -129 -274q-128 -103 -328 -103z" />
    <glyph glyph-name="sacute" unicode="&#x15b;" horiz-adv-x="847" 
d="M436 1192l367 262h6l41 -55l-2 -6l-375 -246h-8l-29 39v6zM436 -25q-122 0 -213 51t-133 140l2 8l55 37h7q33 -78 109.5 -122t178.5 -44q130 0 210 65q79 64 79 173q5 46 -42 113q-7 11 -35 32l-28 20q-6 4 -23 13.5t-35.5 19t-21.5 10.5q-37 16 -45 19q-35 14 -42 18
q-197 86 -197 236q0 129 96 207q94 78 238 78q98 0 181 -45q84 -47 122 -121l-2 -9l-53 -34h-8q-33 63 -101.5 101t-148.5 38q-110 0 -175 -58q-67 -58 -67 -151q0 -109 162 -178q57 -25 113 -52q31 -16 90 -56q102 -70 102 -195q0 -143 -102 -228q-104 -86 -273 -86z" />
    <glyph glyph-name="Scedilla" unicode="&#x15e;" horiz-adv-x="1042" 
d="M748 1356q121 0 219.5 -48t152.5 -137v-8l-53 -43h-6q-47 75 -133.5 117.5t-188.5 42.5q-150 0 -245 -80t-95 -199q0 -87 59 -143q58 -55 179 -115q4 -3 57 -28l41 -20.5t22 -10.5q10 -6 55 -29q47 -26 58 -37q17 -17 46 -38q15 -12 27 -25t17 -20.5t16 -26t15 -25.5
q29 -50 29 -131q0 -166 -122 -267t-310 -110l-33 -81q82 2 130 -31t48 -92q0 -76 -57.5 -121t-155.5 -45q-103 0 -174 59l2 8l39 45h8q52 -49 131 -49q61 0 96 25.5t35 70.5q0 46 -52 61q-53 15 -126 3l-26 16l61 133q-135 12 -243 81q-109 69 -160 169v9l57 43h8
q53 -105 159 -166q106 -62 230 -62q166 0 271 81q104 81 104 212q0 81 -42 130q-9 11 -23 27t-18 21q-14 16 -61 44q-14 8 -35 19.5t-28 15.5q-20 11 -76 38q-16 8 -32.5 15.5t-26 12.5t-14.5 7q-44 24 -98 56q-39 24 -81 61q-86 73 -86 204q0 158 121 260q121 101 308 101z
" />
    <glyph glyph-name="scedilla" unicode="&#x15f;" horiz-adv-x="847" 
d="M596 1049q98 0 181 -45q84 -47 122 -121l-2 -9l-53 -34h-8q-33 63 -101.5 101t-148.5 38q-110 0 -175 -58q-67 -58 -67 -151q0 -109 162 -178q57 -25 113 -52q31 -16 90 -56q102 -70 102 -195q0 -135 -93 -219q-94 -85 -249 -95l-33 -81q82 2 130 -31t48 -92
q0 -76 -57 -121t-156 -45q-103 0 -174 59l2 8l39 45h8q52 -49 132 -49q61 0 96 25.5t35 70.5q0 46 -52 61q-53 15 -127 3l-26 16l61 133q-226 17 -305 189l2 8l55 37h7q33 -78 109.5 -122t178.5 -44q130 0 210 65q79 64 79 173q5 46 -42 113q-7 11 -35 32l-28 20
q-6 4 -23 13.5t-35.5 19t-21.5 10.5q-37 16 -45 19q-35 14 -42 18q-197 86 -197 236q0 129 96 207q94 78 238 78z" />
    <glyph glyph-name="Scaron" unicode="&#x160;" horiz-adv-x="1042" 
d="M1104 1651l-320 -185h-12l-254 185l2 6l33 39h6l227 -146l291 152h6l23 -45zM748 1356q121 0 219.5 -48t152.5 -137v-8l-53 -43h-6q-47 75 -133.5 117.5t-188.5 42.5q-150 0 -245 -80t-95 -199q0 -87 59 -143q58 -55 179 -115q4 -3 57 -28l41 -20.5t22 -10.5
q10 -6 55 -29q47 -26 58 -37q17 -17 46 -38q15 -12 27 -25t17 -20.5t16 -26t15 -25.5q29 -50 29 -131q0 -172 -129 -274q-128 -103 -328 -103q-150 0 -272 71q-122 70 -180 181v9l57 43h8q53 -105 159 -166q106 -62 230 -62q166 0 271 81q104 81 104 212q0 81 -42 130
q-9 11 -23 27t-18 21q-14 16 -61 44q-14 8 -35 19.5t-28 15.5q-20 11 -76 38q-16 8 -32.5 15.5t-26 12.5t-14.5 7q-44 24 -98 56q-39 24 -81 61q-86 73 -86 204q0 158 121 260q121 101 308 101z" />
    <glyph glyph-name="scaron" unicode="&#x161;" horiz-adv-x="847" 
d="M903 1378h6l27 -41l-2 -6l-303 -186h-19l-243 186l2 6l39 37h6l215 -147zM596 1049q98 0 181 -45q84 -47 122 -121l-2 -9l-53 -34h-8q-33 63 -101.5 101t-148.5 38q-110 0 -175 -58q-67 -58 -67 -151q0 -109 162 -178q57 -25 113 -52q31 -16 90 -56q102 -70 102 -195
q0 -143 -102 -228q-104 -86 -273 -86q-122 0 -213 51t-133 140l2 8l55 37h7q33 -78 109.5 -122t178.5 -44q130 0 210 65q79 64 79 173q5 46 -42 113q-7 11 -35 32l-28 20q-6 4 -23 13.5t-35.5 19t-21.5 10.5q-37 16 -45 19q-35 14 -42 18q-197 86 -197 236q0 129 96 207
q94 78 238 78z" />
    <glyph glyph-name="uni0162" unicode="&#x162;" horiz-adv-x="1046" 
d="M254 1260l14 71h992l-15 -71h-459l-225 -1260h-6l-43 -106q82 2 130 -31t48 -92q0 -76 -57.5 -121t-155.5 -45q-103 0 -174 59l2 8l39 45h8q52 -49 131 -49q61 0 96 25.5t35 70.5q0 46 -52 61t-126 3l-26 16l71 156l226 1260h-453z" />
    <glyph glyph-name="uni0163" unicode="&#x163;" horiz-adv-x="663" 
d="M791 954h-332l-123 -686q-41 -221 162 -221q80 0 141 49l8 -2l19 -53l-2 -8q-77 -56 -172 -58l-33 -81q82 2 130 -31t48 -92q0 -76 -57.5 -121t-155.5 -45q-103 0 -174 59l2 8l39 45h8q52 -49 131 -49q61 0 96 25.5t35 70.5q0 46 -52 61q-53 15 -126 3l-27 16l64 138
q-99 18 -141.5 91t-20.5 193l123 688h-178l12 70h178l60 326l71 6l6 -6l-59 -326h330z" />
    <glyph glyph-name="Tcaron" unicode="&#x164;" horiz-adv-x="1046" 
d="M1090 1651l-320 -185h-12l-254 185l2 6l33 39h6l227 -146l291 152h6l23 -45zM254 1260l14 71h992l-15 -71h-459l-225 -1260h-80l226 1260h-453z" />
    <glyph glyph-name="tcaron" unicode="&#x165;" horiz-adv-x="663" 
d="M684 1122l-10 -6h-45l-2 6l106 338l8 6h76l4 -6zM524 1356l6 -6l-59 -326h330l-10 -70h-332l-123 -686q-41 -221 162 -221q80 0 141 49l8 -2l19 -53l-2 -8q-82 -56 -177 -58q-134 0 -195 75.5t-34 215.5l123 688h-178l12 70h178l60 326z" />
    <glyph glyph-name="Tbar" unicode="&#x166;" horiz-adv-x="1046" 
d="M1260 1331l-15 -71h-459l-100 -560h225l-14 -65h-223l-113 -635h-80l113 635h-225l12 65h225l101 560h-453l14 71h992z" />
    <glyph glyph-name="tbar" unicode="&#x167;" horiz-adv-x="663" 
d="M801 1024l-10 -70h-332l-64 -356h273l-15 -66h-270l-47 -264q-41 -221 162 -221q80 0 141 49l8 -2l19 -53l-2 -8q-82 -56 -177 -58q-134 0 -195 75.5t-34 215.5l47 266h-180l12 66h180l64 356h-178l12 70h178l60 326l71 6l6 -6l-59 -326h330z" />
    <glyph glyph-name="Utilde" unicode="&#x168;" horiz-adv-x="1419" 
d="M1100 1495q-50 0 -137 37t-146 37q-88 0 -133 -74h-14l-4 6l14 72q49 70 151 69q56 0 148 -36q89 -37 133 -37q90 0 135 73h15l4 -6l-15 -71q-46 -70 -151 -70zM276 520l146 811h80l-146 -809q-39 -211 68 -342t313 -131q201 0 338 129q138 130 178 344l144 809h80
l-146 -811q-45 -250 -204 -397q-160 -148 -396 -148q-240 0 -369 151q-129 150 -86 394z" />
    <glyph glyph-name="utilde" unicode="&#x169;" horiz-adv-x="1155" 
d="M510 1227h-14l-4 4l12 67q49 70 145 70q51 0 146 -36t133 -36q89 0 129 70h12l4 -4l-10 -68q-52 -68 -148 -67q-42 0 -132 35q-87 34 -142 34q-90 2 -131 -69zM975 385l115 639h77l-184 -1024h-76l33 166q-140 -189 -379 -191q-182 0 -274 113t-60 299l115 637h78
l-115 -637q-29 -155 44 -247q73 -93 222 -93q122 0 216 58.5t149 160.5q26 44 39 119z" />
    <glyph glyph-name="Umacron" unicode="&#x16a;" horiz-adv-x="1419" 
d="M680 1509l12 66h551l-12 -66h-551zM276 520l146 811h80l-146 -809q-39 -211 68 -342t313 -131q201 0 338 129q138 130 178 344l144 809h80l-146 -811q-45 -250 -204 -397q-160 -148 -396 -148q-240 0 -369 151q-129 150 -86 394z" />
    <glyph glyph-name="umacron" unicode="&#x16b;" horiz-adv-x="1155" 
d="M510 1298h545l-13 -67h-544zM975 385l115 639h77l-184 -1024h-76l33 166q-140 -189 -379 -191q-182 0 -274 113t-60 299l115 637h78l-115 -637q-29 -155 44 -247q73 -93 222 -93q122 0 216 58.5t149 160.5q26 44 39 119z" />
    <glyph glyph-name="Uring" unicode="&#x16e;" horiz-adv-x="1419" 
d="M954 1440q-66 0 -110 44q-45 43 -45 109q0 77 57 136q57 57 135 57q65 0 111 -44q45 -44 45 -108q0 -79 -56 -137q-57 -57 -137 -57zM961 1501q54 0 89 39q33 39 33 88q0 40 -27 68t-69 28q-54 0 -88.5 -37t-34.5 -90q0 -40 27.5 -68t69.5 -28zM276 520l146 811h80
l-146 -809q-39 -211 68 -342t313 -131q201 0 338 129q138 130 178 344l144 809h80l-146 -811q-45 -250 -204 -397q-160 -148 -396 -148q-240 0 -369 151q-129 150 -86 394z" />
    <glyph glyph-name="uring" unicode="&#x16f;" horiz-adv-x="1155" 
d="M766 1133q-65 0 -111 44q-45 43 -45 107q0 78 57 136q55 57 136 57q65 0 111 -44q44 -44 44 -108q0 -81 -57 -136q-58 -56 -135 -56zM797 1415q-53 0 -87 -39q-34 -38 -34 -88q0 -40 27 -67t69 -27q52 0 87 38q34 37 34 87q0 42 -26 69t-70 27zM975 385l115 639h77
l-184 -1024h-76l33 166q-140 -189 -379 -191q-182 0 -274 113t-60 299l115 637h78l-115 -637q-29 -155 44 -247q73 -93 222 -93q122 0 216 58.5t149 160.5q26 44 39 119z" />
    <glyph glyph-name="Uhungarumlaut" unicode="&#x170;" horiz-adv-x="1419" 
d="M739 1456l213 299h86l4 -8l-239 -297h-62zM977 1456l213 299h86l2 -8l-240 -297h-59zM276 520l146 811h80l-146 -809q-39 -211 68 -342t313 -131q201 0 338 129q138 130 178 344l144 809h80l-146 -811q-45 -250 -204 -397q-160 -148 -396 -148q-240 0 -369 151
q-129 150 -86 394z" />
    <glyph glyph-name="uhungarumlaut" unicode="&#x171;" horiz-adv-x="1155" 
d="M608 1151l-8 -6h-47l-4 6l186 299l8 6h80l4 -6zM827 1145h-49l-4 6l187 299l8 6h82l4 -6l-221 -299zM975 385l115 639h77l-184 -1024h-76l33 166q-140 -189 -379 -191q-182 0 -274 113t-60 299l115 637h78l-115 -637q-29 -155 44 -247q73 -93 222 -93q122 0 216 58.5
t149 160.5q26 44 39 119z" />
    <glyph glyph-name="Uogonek" unicode="&#x172;" horiz-adv-x="1419" 
d="M1253 522l144 809h80l-146 -811q-33 -177 -125.5 -305.5t-230.5 -189.5l-12 -9q-3 -1 -37 -23q-15 -9 -23 -17q-36 -33 -44 -42q-48 -55 -48 -116q0 -45 29.5 -72t79.5 -27q46 0 104 23l6 -2l14 -41l-4 -8q-66 -31 -137 -31q-74 0 -119 39t-45 102q0 96 90 183
q-40 -7 -98 -9q-240 0 -369 151q-129 150 -86 394l146 811h80l-146 -809q-39 -211 68 -342t313 -131q201 0 338 129q138 130 178 344z" />
    <glyph glyph-name="uogonek" unicode="&#x173;" horiz-adv-x="1155" 
d="M1026 -287l6 -2l15 -41l-5 -8q-66 -31 -137 -31q-74 0 -119 39t-45 103q0 139 168 239l31 154q-140 -189 -379 -191q-182 0 -274 113t-60 299l115 637h78l-115 -637q-29 -155 44 -247q73 -93 222 -93q122 0 216 58.5t149 160.5q26 44 39 119l115 639h77l-184 -1024
q-1 -1 -20.5 -13.5t-46.5 -32.5t-47 -40q-56 -56 -56 -125t64.5 -90.5t148.5 14.5z" />
    <glyph glyph-name="Wcircumflex" unicode="&#x174;" horiz-adv-x="1884" 
d="M1223 1622l-289 -149h-6l-23 45v6l322 182h10l254 -182v-6l-37 -41h-6zM1987 1331h81l3 -8l-711 -1323h-51l-156 1169l-575 -1169h-50l-237 1323l8 8h80l201 -1167l573 1167h51l156 -1175z" />
    <glyph glyph-name="wcircumflex" unicode="&#x175;" horiz-adv-x="1478" 
d="M963 1315l-277 -152h-6l-27 43v6l310 187h16l242 -187l-2 -6l-37 -37h-6zM1528 1024h76l4 -8l-527 -1016h-45l-149 877l-447 -877h-47l-176 1016l6 8h74l143 -872l445 872h51l149 -872z" />
    <glyph glyph-name="Ycircumflex" unicode="&#x176;" horiz-adv-x="1218" 
d="M862 1622l-289 -149h-6l-22 45v6l321 182h11l253 -182v-6l-36 -41h-7zM1389 1331l2 -8l-650 -815l-92 -508h-80l93 514l-359 809l6 8h78l324 -745l587 745h91z" />
    <glyph glyph-name="ycircumflex" unicode="&#x177;" horiz-adv-x="1013" 
d="M713 1315l-277 -152h-6l-27 43v6l310 187h16l242 -187l-2 -6l-37 -37h-6zM1063 1024h80l6 -8l-707 -1159q-59 -99 -118 -142t-134 -43q-78 0 -133 43v9l33 49l10 2q41 -35 95 -35q96 0 174 129l102 168l-252 979l6 8h74l229 -889z" />
    <glyph glyph-name="Ydieresis" unicode="&#x178;" horiz-adv-x="1218" 
d="M676 1497q-33 0 -54.5 20.5t-21.5 51.5q0 39 27.5 67.5t66.5 28.5q31 0 53.5 -21t22.5 -51q0 -39 -27.5 -67.5t-66.5 -28.5zM1008 1497q-31 0 -53.5 21t-22.5 51q0 39 27.5 67.5t66.5 28.5q33 0 55.5 -20.5t22.5 -51.5q0 -41 -27.5 -68.5t-68.5 -27.5zM1389 1331l2 -8
l-650 -815l-92 -508h-80l93 514l-359 809l6 8h78l324 -745l587 745h91z" />
    <glyph glyph-name="Zacute" unicode="&#x179;" horiz-adv-x="1073" 
d="M995 1663l-350 -211h-6l-25 37v6l338 231h6l39 -57zM322 1331h905l-8 -49l-1047 -1212h870l-12 -70h-981l8 49l1047 1213h-795z" />
    <glyph glyph-name="zacute" unicode="&#x17a;" horiz-adv-x="911" 
d="M868 1393l-374 -246h-9l-28 39v6l366 262h6l41 -55zM252 1024h739l-10 -55l-813 -903h709l-13 -66h-811l10 55l814 903h-637z" />
    <glyph glyph-name="Zdotaccent" unicode="&#x17b;" horiz-adv-x="1073" 
d="M786 1493q-33 0 -54 21.5t-21 52.5q0 39 27.5 67.5t66.5 28.5q31 0 53.5 -21.5t22.5 -50.5q0 -41 -28 -69.5t-67 -28.5zM322 1331h905l-8 -49l-1047 -1212h870l-12 -70h-981l8 49l1047 1213h-795z" />
    <glyph glyph-name="zdotaccent" unicode="&#x17c;" horiz-adv-x="911" 
d="M657 1206q-31 0 -53 21.5t-22 50.5q0 39 26.5 66.5t65.5 27.5q31 0 52.5 -20.5t21.5 -51.5q0 -39 -27 -66.5t-64 -27.5zM252 1024h739l-10 -55l-813 -903h709l-13 -66h-811l10 55l814 903h-637z" />
    <glyph glyph-name="Zcaron" unicode="&#x17d;" horiz-adv-x="1073" 
d="M1100 1651l-320 -185h-12l-254 185l2 6l33 39h6l227 -146l291 152h6l23 -45zM322 1331h905l-8 -49l-1047 -1212h870l-12 -70h-981l8 49l1047 1213h-795z" />
    <glyph glyph-name="zcaron" unicode="&#x17e;" horiz-adv-x="911" 
d="M954 1331l-303 -186h-18l-244 186l2 6l39 37h6l215 -147l273 151h6l26 -41zM252 1024h739l-10 -55l-813 -903h709l-13 -66h-811l10 55l814 903h-637z" />
    <glyph glyph-name="uni01EA" unicode="&#x1ea;" horiz-adv-x="1564" 
d="M963 1356q277 0 455 -180q179 -182 179 -455q0 -163 -61 -307q-62 -148 -176 -248q-110 -101 -268 -154q-129 -82 -129 -184q0 -45 29.5 -71.5t78.5 -26.5q48 0 105 22l6 -2l14 -41l-4 -8q-66 -31 -137 -31q-74 0 -119 39t-45 103q0 92 82 174q-60 -9 -127 -11
q-277 0 -455 181q-180 180 -180 454q0 161 62 308q62 146 176 247q209 191 514 191zM1311 225q207 195 207 494q0 241 -159 402q-159 159 -401 159q-274 0 -460 -174q-207 -195 -207 -494q0 -242 159 -401q157 -160 400 -160q275 0 461 174z" />
    <glyph glyph-name="uni01EB" unicode="&#x1eb;" horiz-adv-x="1249" 
d="M764 1049q214 0 353 -139q140 -140 140 -355q0 -272 -206 -446q-84 -69 -187 -103l-12 -6q-7 -5 -17 -12l-20 -14q-18 -12 -22 -16q-17 -13 -44 -42q-49 -51 -49 -117q-2 -68 64.5 -90.5t148.5 15.5l7 -3l14 -40l-4 -9q-68 -32 -137 -30q-74 0 -119 38.5t-45 102.5
q0 103 106 197q-19 -2 -65 -5q-212 0 -352 140t-140 354q0 273 207 446q163 134 379 134zM1004 170q174 146 174 381q0 184 -118 305t-298 121q-192 0 -332 -123q-172 -145 -172 -381q0 -183 117 -305q117 -121 297 -121q192 0 332 123z" />
    <glyph glyph-name="AEacute" unicode="&#x1fc;" horiz-adv-x="1890" 
d="M1815 1663l-351 -211h-6l-24 37v6l338 231h6l39 -57zM2007 1331l-14 -71h-754l-98 -551h600l-15 -72h-598l-102 -565h754l-13 -72h-833l59 330h-633l-288 -330h-86l-2 8l1155 1323h868zM424 401h582l151 840z" />
    <glyph glyph-name="aeacute" unicode="&#x1fd;" horiz-adv-x="1941" 
d="M1343 1393l-374 -246h-8l-29 39v6l366 262h7l41 -55zM1503 1049q215 0 337 -153q122 -154 85 -361l-12 -50h-899q-6 -203 109 -320q114 -118 292 -118q244 0 389 172h8l41 -39v-8q-168 -197 -444 -197q-161 0 -280 81q-120 82 -166 229q-58 -143 -193 -227
q-136 -83 -291 -83q-157 0 -255 80q-97 79 -97 211q0 160 130 260q131 99 333 99q200 0 348 -88l18 110q26 155 -45 240q-73 90 -229 90q-209 0 -350 -160h-8l-39 43v8q162 179 399 181q146 0 237 -66.5t111 -187.5q46 74 117 131q149 123 354 123zM1026 559h821
q25 179 -69 297q-100 121 -278 121t-312 -113q-136 -117 -162 -305zM485 47q152 0 274 87q123 88 148 233l17 92q-152 96 -338 96q-164 0 -270 -79q-107 -80 -107 -204q0 -104 76 -164q74 -61 200 -61z" />
    <glyph glyph-name="Oslashacute" unicode="&#x1fe;" horiz-adv-x="1564" 
d="M1257 1663l-350 -211h-6l-24 37v6l337 231h7l39 -57zM1599 1442l-202 -246q201 -180 200 -475q0 -163 -61 -307q-62 -148 -176 -248q-207 -189 -514 -191q-211 0 -373 111l-154 -186h-88l-2 8l187 223q-205 181 -205 479q0 161 62 308q62 146 176 247q207 189 514 191
q213 0 374 -113l172 207h88zM291 612q0 -258 176 -417l819 987q-143 98 -328 98q-274 0 -460 -174q-207 -195 -207 -494zM1311 225q207 195 207 494q0 254 -175 416l-817 -988q136 -96 324 -96q275 0 461 174z" />
    <glyph glyph-name="oslashacute" unicode="&#x1ff;" horiz-adv-x="1249" 
d="M1053 1393l-375 -246h-8l-29 39v6l367 262h6l41 -55zM1305 1137l-193 -224q145 -135 145 -358q0 -272 -206 -446q-161 -132 -381 -134q-164 0 -291 88l-137 -157h-82l-4 8l168 195q-144 140 -146 360q0 273 207 446q161 132 379 134q171 0 295 -91l162 187h82zM258 473
q0 -183 117 -305l635 733q-109 76 -248 76q-192 0 -332 -123q-172 -145 -172 -381zM1004 170q174 146 174 381q0 186 -117 303l-633 -731q103 -76 244 -76q192 0 332 123z" />
    <glyph glyph-name="uni0218" unicode="&#x218;" horiz-adv-x="1042" 
d="M563 -25q-150 0 -272 71q-122 70 -180 181v9l57 43h8q53 -105 159 -166q106 -62 230 -62q166 0 271 81q104 81 104 212q0 81 -42 130q-9 11 -23 27t-18 21q-14 16 -61 44q-14 8 -35 19.5t-28 15.5q-20 11 -76 38q-16 8 -32.5 15.5t-26 12.5t-14.5 7q-44 24 -98 56
q-39 24 -81 61q-86 73 -86 204q0 158 120 260q121 101 309 101q121 0 219.5 -48t152.5 -137v-8l-53 -43h-6q-47 75 -133.5 117.5t-188.5 42.5q-150 0 -245 -80t-95 -199q0 -87 59 -143q58 -55 179 -115q4 -3 57 -28l41 -20.5t22 -10.5q10 -6 55 -29q47 -26 58 -37
q17 -17 46 -38q15 -12 27 -25t17 -20.5t16 -26t15 -25.5q29 -50 29 -131q0 -172 -129 -274q-128 -103 -328 -103zM399 -399l103 290l8 7h72l4 -7l-131 -290l-9 -7h-45z" />
    <glyph glyph-name="uni0219" unicode="&#x219;" horiz-adv-x="847" 
d="M436 -25q-122 0 -213 51t-133 140l2 8l55 37h7q33 -78 109.5 -122t178.5 -44q130 0 210 65q79 64 79 173q5 46 -42 113q-7 11 -35 32l-28 20q-6 4 -23 13.5t-35.5 19t-21.5 10.5q-37 16 -45 19q-35 14 -42 18q-197 86 -197 236q0 129 96 207q94 78 238 78q98 0 181 -45
q84 -47 122 -121l-2 -9l-53 -34h-8q-33 63 -101.5 101t-148.5 38q-110 0 -175 -58q-67 -58 -67 -151q0 -109 162 -178q57 -25 113 -52q31 -16 90 -56q102 -70 102 -195q0 -143 -102 -228q-104 -86 -273 -86zM281 -399l102 290l8 7h72l4 -7l-131 -290l-8 -7h-45z" />
    <glyph glyph-name="uni021A" unicode="&#x21a;" horiz-adv-x="1046" 
d="M1245 1260h-459l-225 -1260h-80l226 1260h-453l14 71h992zM356 -399l103 290l8 7h72l4 -7l-131 -290l-9 -7h-45z" />
    <glyph glyph-name="uni021B" unicode="&#x21b;" horiz-adv-x="663" 
d="M791 954h-332l-123 -686q-41 -221 162 -221q80 0 141 49l8 -2l19 -53l-2 -8q-82 -56 -177 -58q-134 0 -195 75.5t-34 215.5l123 688h-178l12 70h178l60 326l71 6l6 -6l-59 -326h330zM406 -109l8 7h71l4 -7l-131 -290l-8 -7h-45l-2 7z" />
    <glyph glyph-name="uni0237" unicode="&#x237;" horiz-adv-x="419" 
d="M172 4l184 1020h78l-184 -1016q-23 -131 -81 -206q-61 -76 -161 -130h-8l-18 54v8q80 45 127 106q45 60 63 164z" />
    <glyph glyph-name="uni02BC" unicode="&#x2bc;" horiz-adv-x="325" 
d="M311 1151l113 299l8 6h76l4 -6l-145 -299l-7 -6h-45z" />
    <glyph glyph-name="circumflex" unicode="&#x2c6;" horiz-adv-x="712" 
d="M606 1399h17l241 -187l-2 -6l-37 -37h-6l-213 146l-276 -152h-6l-27 43v6z" />
    <glyph glyph-name="caron" unicode="&#x2c7;" horiz-adv-x="718" 
d="M854 1378h6l27 -41l-2 -6l-303 -186h-19l-244 186l3 6l38 37h7l215 -147z" />
    <glyph glyph-name="breve" unicode="&#x2d8;" horiz-adv-x="727" 
d="M586 1174q-111 0 -177 68q-67 67 -61 175h72q-2 -80 45 -130t123 -50q75 0 135 48.5t90 131.5h72q-33 -110 -113 -177q-80 -66 -186 -66z" />
    <glyph glyph-name="dotaccent" unicode="&#x2d9;" horiz-adv-x="231" 
d="M342 1206q-31 0 -53.5 21.5t-22.5 50.5q0 39 26.5 66.5t65.5 27.5q31 0 52.5 -20.5t21.5 -51.5q0 -39 -26.5 -66.5t-63.5 -27.5z" />
    <glyph glyph-name="ring" unicode="&#x2da;" horiz-adv-x="505" 
d="M469 1133q-65 0 -111 44q-45 43 -45 107q0 78 57 136q56 57 136 57q65 0 111 -44q45 -43 45 -108q0 -81 -57 -136q-59 -56 -136 -56zM475 1194q52 0 87 38q34 37 34 87q0 42 -26 69t-70 27q-52 0 -87 -39q-34 -38 -34 -88q0 -40 27 -67t69 -27z" />
    <glyph glyph-name="ogonek" unicode="&#x2db;" horiz-adv-x="487" 
d="M238 -358q-74 0 -119 38.5t-45 102.5q0 61 41 120q41 61 78 86q33 25 69 46l53 -25q-1 -1 -14 -9t-28.5 -18t-36 -26.5t-35.5 -32.5q-56 -54 -56 -125q-2 -68 64.5 -90.5t148.5 15.5l7 -3l14 -40l-4 -9q-68 -30 -137 -30z" />
    <glyph glyph-name="tilde" unicode="&#x2dc;" horiz-adv-x="743" 
d="M741 1227q-42 0 -132 35q-87 34 -142 34q-91 0 -131 -69h-14l-5 4l13 67q49 70 145 70q53 0 146 -36q91 -36 133 -36q89 0 129 70h12l4 -4l-10 -68q-52 -67 -148 -67z" />
    <glyph glyph-name="hungarumlaut" unicode="&#x2dd;" horiz-adv-x="722" 
d="M266 1151l187 299l8 6h80l4 -6l-219 -299l-9 -6h-47zM492 1151l186 299l8 6h82l4 -6l-221 -299l-6 -6h-49z" />
    <glyph glyph-name="uni0326" unicode="&#x326;" horiz-adv-x="0" 
d="M-338 -399l102 290l9 7h71l4 -7l-131 -290l-8 -7h-45z" />
    <glyph glyph-name="Wgrave" unicode="&#x1e80;" horiz-adv-x="1884" 
d="M1399 1489l-27 -37h-6l-350 211v6l39 57h6l336 -231zM1987 1331h81l3 -8l-711 -1323h-51l-156 1169l-575 -1169h-50l-237 1323l8 8h80l201 -1167l573 1167h51l156 -1175z" />
    <glyph glyph-name="wgrave" unicode="&#x1e81;" horiz-adv-x="1478" 
d="M1157 1186l-29 -39h-6l-377 246v6l41 55h7l364 -262v-6zM1528 1024h76l4 -8l-527 -1016h-45l-149 877l-447 -877h-47l-176 1016l6 8h74l143 -872l445 872h51l149 -872z" />
    <glyph glyph-name="Wacute" unicode="&#x1e82;" horiz-adv-x="1884" 
d="M1411 1663l-350 -211h-6l-25 37v6l338 231h6l39 -57zM1987 1331h81l3 -8l-711 -1323h-51l-156 1169l-575 -1169h-50l-237 1323l8 8h80l201 -1167l573 1167h51l156 -1175z" />
    <glyph glyph-name="wacute" unicode="&#x1e83;" horiz-adv-x="1478" 
d="M1155 1393l-375 -246h-8l-29 39v6l367 262h6l41 -55zM1528 1024h76l4 -8l-527 -1016h-45l-149 877l-447 -877h-47l-176 1016l6 8h74l143 -872l445 872h51l149 -872z" />
    <glyph glyph-name="Wdieresis" unicode="&#x1e84;" horiz-adv-x="1884" 
d="M1036 1497q-33 0 -54 20.5t-21 51.5q0 39 27.5 67.5t66.5 28.5q31 0 53 -21t22 -51q0 -39 -27.5 -67.5t-66.5 -28.5zM1368 1497q-31 0 -53.5 21t-22.5 51q0 39 28 67.5t66 28.5q33 0 55.5 -20.5t22.5 -51.5q0 -41 -27.5 -68.5t-68.5 -27.5zM1987 1331h81l3 -8l-711 -1323
h-51l-156 1169l-575 -1169h-50l-237 1323l8 8h80l201 -1167l573 1167h51l156 -1175z" />
    <glyph glyph-name="wdieresis" unicode="&#x1e85;" horiz-adv-x="1478" 
d="M797 1204q-31 0 -52.5 21.5t-21.5 52.5q0 39 27.5 67.5t66.5 28.5q29 0 51.5 -21.5t22.5 -49.5q0 -41 -27.5 -70t-66.5 -29zM1085 1204q-31 0 -52 21.5t-21 52.5q0 39 27.5 67.5t66.5 28.5q31 0 53.5 -21.5t22.5 -49.5q0 -41 -29 -70t-68 -29zM1528 1024h76l4 -8
l-527 -1016h-45l-149 877l-447 -877h-47l-176 1016l6 8h74l143 -872l445 872h51l149 -872z" />
    <glyph glyph-name="uni1E9E" unicode="&#x1e9e;" horiz-adv-x="1286" 
d="M1292 1153l-391 -385q164 -2 265 -98q100 -97 100 -248q0 -198 -133 -322q-134 -125 -345 -125q-202 0 -323 99l-2 8l41 51l10 2q100 -84 275 -84q173 0 285 104q110 104 110 265q0 123 -82 199q-82 75 -228 75h-90l13 74l391 387q-95 125 -301 125q-185 0 -309 -122
q-122 -121 -160 -324l-150 -834h-80l152 838q44 236 189 377t366 141q128 0 236 -52t161 -151z" />
    <glyph glyph-name="Ygrave" unicode="&#x1ef2;" horiz-adv-x="1218" 
d="M1038 1489l-26 -37h-6l-351 211v6l39 57h6l336 -231zM1389 1331l2 -8l-650 -815l-92 -508h-80l93 514l-359 809l6 8h78l324 -745l587 745h91z" />
    <glyph glyph-name="ygrave" unicode="&#x1ef3;" horiz-adv-x="1013" 
d="M907 1186l-28 -39h-7l-376 246v6l41 55h6l364 -262v-6zM1063 1024h80l6 -8l-707 -1159q-59 -99 -118 -142t-134 -43q-78 0 -133 43v9l33 49l10 2q41 -35 95 -35q96 0 174 129l102 168l-252 979l6 8h74l229 -889z" />
    <glyph glyph-name="uni1EF8" unicode="&#x1ef8;" horiz-adv-x="1218" 
d="M567 1495h-14l-4 6l14 72q49 70 152 69q57 0 147 -36q89 -37 133 -37q90 0 135 73h15l4 -6l-14 -71q-46 -70 -152 -70q-50 0 -137 37t-146 37q-88 0 -133 -74zM1389 1331l2 -8l-650 -815l-92 -508h-80l93 514l-359 809l6 8h78l324 -745l587 745h91z" />
    <glyph glyph-name="uni1EF9" unicode="&#x1ef9;" horiz-adv-x="1013" 
d="M430 1227h-14l-4 4l12 67q49 70 145 70q53 0 146 -36q91 -36 133 -36q89 0 129 70h12l4 -4l-10 -68q-52 -68 -147 -67q-42 0 -132 35q-89 34 -143 34q-90 2 -131 -69zM1063 1024h80l6 -8l-707 -1159q-59 -99 -118 -142t-134 -43q-78 0 -133 43v9l33 49l10 2
q41 -35 95 -35q96 0 174 129l102 168l-252 979l6 8h74l229 -889z" />
    <glyph glyph-name="endash" unicode="&#x2013;" horiz-adv-x="1130" 
d="M244 582l12 65h850l-10 -65h-852z" />
    <glyph glyph-name="emdash" unicode="&#x2014;" horiz-adv-x="1425" 
d="M244 582l12 65h1147l-12 -65h-1147z" />
    <glyph glyph-name="quoteleft" unicode="&#x2018;" horiz-adv-x="389" 
d="M371 989q-33 0 -54.5 22.5t-21.5 57.5q0 58 41 126q39 65 151 183h9l26 -24v-6q-85 -97 -123 -191q27 0 46.5 -22.5t19.5 -53.5q0 -37 -27.5 -64.5t-66.5 -27.5z" />
    <glyph glyph-name="quoteright" unicode="&#x2019;" horiz-adv-x="387" 
d="M340 1001h-6l-29 25v8q89 100 123 189q-27 0 -46.5 22.5t-19.5 52.5q0 37 28 65t67 28q33 0 54 -22.5t21 -57.5q0 -60 -40 -125q-40 -66 -152 -185z" />
    <glyph glyph-name="quotesinglbase" unicode="&#x201a;" horiz-adv-x="385" 
d="M94 -246h-6l-29 25v8q85 97 123 188q-27 0 -46 23.5t-19 54.5q0 36 28.5 63t67.5 27q33 0 53.5 -22.5t20.5 -57.5q0 -60 -41 -127q-40 -64 -152 -182z" />
    <glyph glyph-name="quotedblleft" unicode="&#x201c;" horiz-adv-x="636" 
d="M371 997q-33 0 -53.5 21.5t-20.5 56.5q0 60 41 128q39 65 151 183h7l28 -26v-6q-86 -98 -123 -189q27 0 46.5 -23.5t19.5 -54.5q0 -36 -28.5 -63t-67.5 -27zM618 997q-33 0 -54 22.5t-21 55.5q0 60 41 127q38 61 151 184h8l27 -26v-6q-86 -98 -123 -189q29 0 47.5 -23
t18.5 -55q0 -37 -28 -63.5t-67 -26.5z" />
    <glyph glyph-name="quotedblright" unicode="&#x201d;" horiz-adv-x="632" 
d="M340 1001h-6l-29 25v8q89 100 123 189q-27 0 -46.5 22.5t-19.5 52.5q0 37 28 65t67 28q33 0 54 -22.5t21 -57.5q0 -60 -40 -125q-40 -66 -152 -185zM588 1001h-8l-27 25v8q90 106 123 189q-29 0 -47.5 22t-18.5 53q0 37 28 65t67 28q33 0 54 -22.5t21 -57.5
q0 -58 -41 -125q-39 -64 -151 -185z" />
    <glyph glyph-name="quotedblbase" unicode="&#x201e;" horiz-adv-x="630" 
d="M90 -246h-6l-29 25v8q85 97 123 188q-27 0 -46 23.5t-19 54.5q0 36 28.5 63t67.5 27q33 0 53.5 -22.5t20.5 -57.5q0 -60 -41 -127q-40 -64 -152 -182zM338 -246h-8l-27 25v8q85 97 123 188q-27 0 -46.5 24t-19.5 54q0 37 28 63.5t67 26.5q33 0 54 -22.5t21 -57.5
q0 -60 -40 -125q-41 -66 -152 -184z" />
    <glyph glyph-name="dagger" unicode="&#x2020;" horiz-adv-x="929" 
d="M666 899h317l-12 -68h-318l-207 -1150h-79l206 1150h-315l12 68h316l82 453h80z" />
    <glyph glyph-name="daggerdbl" unicode="&#x2021;" horiz-adv-x="929" 
d="M983 899l-12 -68h-318l-112 -630h317l-12 -68h-318l-82 -452h-79l82 452h-316l12 68h316l112 630h-315l12 68h316l82 453h80l-82 -453h317z" />
    <glyph glyph-name="bullet" unicode="&#x2022;" horiz-adv-x="673" 
d="M426 442q-64 0 -104 45t-39 109q5 70 57 120q53 50 123 50q63 0 105 -45t38 -109q-1 -70 -56 -120t-124 -50z" />
    <glyph glyph-name="ellipsis" unicode="&#x2026;" horiz-adv-x="976" 
d="M201 -25q-32 0 -54 22.5t-22 53.5q0 37 27.5 64.5t64.5 27.5q33 0 54.5 -21.5t21.5 -53.5q0 -37 -27.5 -65t-64.5 -28zM492 -25q-32 0 -54 22.5t-22 53.5q0 37 27.5 64.5t64.5 27.5q33 0 53.5 -21t20.5 -54q0 -37 -27.5 -65t-62.5 -28zM780 -25q-33 0 -55.5 22.5
t-22.5 53.5q0 37 28 64.5t67 27.5q33 0 53 -21t20 -54q0 -37 -27.5 -65t-62.5 -28z" />
    <glyph glyph-name="perthousand" unicode="&#x2030;" horiz-adv-x="2174" 
d="M496 588q-108 0 -173 84q-65 85 -65 227q0 182 90 320q90 137 234 137q106 0 171 -84q64 -83 64 -225q-1 -185 -90 -322t-231 -137zM199 0l-2 8l1241 1323h82l2 -8l-1239 -1323h-84zM500 657q110 0 177 115q68 116 68 270q0 115 -45.5 180.5t-126.5 65.5
q-108 0 -176 -114q-68 -116 -69 -271q0 -115 45.5 -180.5t126.5 -65.5zM1149 -25q-109 0 -173 84q-65 85 -65 226q0 185 91 321q90 137 235 137q105 0 170 -84q63 -84 63 -227q0 -184 -88 -320q-89 -137 -233 -137zM1821 -25q-109 0 -173 84q-65 85 -65 226q0 184 89 321
t235 137q107 0 171 -85t64 -226q-1 -183 -90 -320t-231 -137zM1155 43q109 0 177 116q67 115 67 271q0 114 -45 179t-125 65q-110 0 -177 -115q-69 -116 -69 -268q0 -116 45.5 -182t126.5 -66zM1825 43q109 0 178 116q68 116 68 271q0 114 -46 179t-127 65q-110 0 -177 -115
q-68 -116 -68 -268q0 -116 45.5 -182t126.5 -66z" />
    <glyph glyph-name="guilsinglleft" unicode="&#x2039;" horiz-adv-x="559" 
d="M555 956l37 -47v-4l-303 -297l192 -289v-6l-49 -39h-6l-225 330l4 21l344 331h6z" />
    <glyph glyph-name="guilsinglright" unicode="&#x203a;" horiz-adv-x="559" 
d="M348 956h6l226 -331l-5 -21l-342 -330h-8l-39 45v5l306 299l-191 288v7z" />
    <glyph glyph-name="fraction" unicode="&#x2044;" horiz-adv-x="1009" 
d="M-35 0l-2 8l1241 1323h82l2 -8l-1239 -1323h-84z" />
    <glyph glyph-name="Euro" unicode="&#x20ac;" horiz-adv-x="1427" 
d="M1006 1356q149 0 271 -67t198 -187l-2 -8l-58 -41h-8q-61 106 -170 167q-109 60 -242 60q-196 0 -354 -128q-157 -127 -225 -325h710l4 -8l-34 -59h-699q-20 -82 -20 -170q0 -27 2 -49h686l4 -9l-35 -59h-647q34 -187 166 -305q131 -117 315 -117q132 0 252.5 60
t208.5 168h6l49 -41l-2 -9q-96 -119 -232 -186q-135 -68 -288 -68q-219 0 -370 139q-152 138 -185 359h-149l-4 8l34 60h113q-2 18 -2 43q0 90 18 176h-98l-6 8l35 59h88q72 232 256 380q184 149 414 149z" />
    <glyph glyph-name="trademark" unicode="&#x2122;" horiz-adv-x="1400" 
d="M305 1331h486l-11 -59h-211l-108 -606h-72l111 606h-207zM1044 762l326 569h57l-51 -665h-69l39 495l-285 -495h-64l-106 510l-143 -510h-70l192 665h56z" />
    <glyph glyph-name="minus" unicode="&#x2212;" horiz-adv-x="1216" 
d="M260 631l12 69h924l-12 -69h-924z" />
    <glyph glyph-name="approxequal" unicode="&#x2248;" horiz-adv-x="1138" 
d="M936 743q-80 0 -225 36t-219 36q-42 0 -90 -20q-49 -21 -72 -52h-6l-33 52l2 6q78 86 211 86q82 0 223 -36t221 -36q102 0 156 72h8l31 -53l-2 -7q-84 -84 -205 -84zM883 446q-83 0 -226 36t-217 36q-42 0 -91 -20q-49 -21 -75 -52h-6l-30 52l2 6q83 86 213 86
q80 0 221 -36t221 -36q97 0 158 72h6l31 -53l-3 -7q-75 -84 -204 -84z" />
    <glyph glyph-name="notequal" unicode="&#x2260;" horiz-adv-x="1212" 
d="M1227 864l-13 -65h-342l-200 -264h495l-10 -66h-536l-213 -281h-74l-4 9l209 272h-308l13 66h346l201 264h-500l12 65h539l215 281h76l-3 -8l-206 -273h303z" />
    <glyph glyph-name="uniF8FF" unicode="&#xf8ff;" horiz-adv-x="2758" 
d="M1523 1210q-35 -36 -87 -36q-54 0 -87 36q-34 34 -34 88q0 52 34 86.5t87 34.5t86.5 -34.5t33.5 -86.5q0 -53 -33 -88zM365 670h-238q0 310 10 446l13 182h194q0 -5 10 -184q9 -170 11 -444zM938 965v170l238 73l8 -61h352q2 -28 4 -56.5t3 -40t1 -12.5q8 -107 8 -368
h-233q0 254 4 295h-117l4 -129q0 -2 4 -2q1 -1 19 -3q9 0 27 5l8 4v-148q-2 -8 -21 -18q-35 -15 -106 -17q-160 0 -160 131q0 7 2 103q0 13 0.5 25.5t0.5 21t0.5 15t0.5 9.5v3h-47zM756 670l-19 118q-26 -131 -151 -131q-181 0 -183 230q0 135 64.5 201.5t206.5 66.5
q119 0 178.5 -57t58.5 -172v-256h-155zM1831 670h-232q0 238 11 370q6 67 12 107h156l6 -51q6 -92 6 -101l4 21q46 139 162 139q81 0 115 -47.5t36 -159.5l4 -278h-229q0 31 2 111q2 78 2 81q0 51 -31 51q-35 0 -34 -51q0 -17 5 -82t5 -110zM2142 901q0 254 246 254
q141 0 195 -67q53 -68 53 -187q0 -116 -62.5 -180t-185.5 -64q-121 0 -183.5 64.5t-62.5 179.5zM664 817q49 0 49 62q0 55 -49 55q-43 0 -43 -55q0 -62 43 -62zM2388 817q49 0 49 62q0 55 -49 55q-47 0 -47 -55q0 -62 47 -62zM123 397v170l248 82l8 -59h338q-2 -52 -2 -107
q-2 -74 -2 -110q0 -52 32 -54q31 0 31 54v7q0 7 -0.5 18.5t-1 25t-0.5 30v29.5q-2 42 -2 107h217l6 -82q6 -78 6 -215q0 -147 -73.5 -214t-233.5 -67q-88 0 -149 21q-28 7 -41 22v170q10 -9 37 -20q44 -17 110 -19q81 0 125 37q20 17 23 37q-2 -2 -5.5 -4t-8.5 -5.5t-9 -6.5
q-33 -14 -94 -15q-190 0 -190 152v16h-93l4 -125q28 0 43 7l15 6v-152q-11 -11 -31 -18q-42 -15 -106 -17q-150 0 -150 131q0 13 0.5 34.5t1 43.5t1 42.5t1.5 34.5v13h-55zM1300 12h-260q0 290 11 420l12 158h160l6 -60q8 -46 8 -94q29 170 160 170q74 0 116.5 -60.5
t42.5 -168.5q0 -135 -67.5 -207t-192.5 -72q0 -12 2 -22q0 -2 1 -27.5t1 -36.5zM2011 281v-150q-4 -4 -35 -16q-46 -15 -112 -17q-135 0 -204 65.5t-69 182.5q0 260 252 260q107 0 168.5 -62t61.5 -171q0 -13 -7 -54l-4 -20h-245q1 -16 12 -25q25 -26 78 -24q52 0 80 14
q18 11 24 17zM2143 465q-23 23 -23 54t23 53t53 22t53 -22t23 -53t-23 -54t-53 -23t-53 23zM2153 476q18 -19 42.5 -19t43.5 19q18 18 18 42.5t-18 43.5q-19 18 -43.5 18t-42.5 -18q-19 -19 -19 -43.5t19 -42.5zM2167 481v76h33q16 0 23.5 -6t6.5 -19q0 -18 -16 -24l16 -27
h-18l-14 23h-15v-23h-16zM2183 518h17q9 0 12.5 6t0 12.5t-12.5 6.5h-17v-25zM1804 350h80v4v4q2 6 2 9q0 39 -37 39q-45 0 -45 -56zM1262 281l4 -17q28 5 39 10q40 23 38 64q0 43 -38 43q-46 0 -48 -62q0 -16 5 -38z" />
    <glyph glyph-name="J.aalt" horiz-adv-x="964" 
d="M535 1331h483l-174 -975q-33 -176 -147 -278q-115 -103 -273 -103q-123 0 -214.5 54.5t-133.5 148.5l2 8l55 39h8q35 -82 111 -129t174 -47q128 0 220 84q91 83 118 227l162 897h-406z" />
    <glyph glyph-name="Q.aalt" horiz-adv-x="1609" 
d="M1270 -307q-122 0 -228 104q-22 25 -37 41q-11 11 -24.5 25t-16.5 17l-36 36q-55 54 -107 59q-265 11 -438 189q-172 178 -172 446q0 161 62 308q62 146 176 247q207 189 514 191q277 0 455 -180q179 -182 179 -455q0 -163 -61 -307q-62 -148 -176 -248
q-164 -150 -397 -182q29 -18 120 -111q96 -106 199 -106q75 0 127 38l6 -2l19 -53l-2 -6q-66 -51 -162 -51zM850 51q274 0 461 174q207 195 207 494q0 241 -159 402q-159 159 -401 159q-274 0 -460 -174q-207 -195 -207 -494q0 -242 159 -401q157 -160 400 -160z" />
    <glyph glyph-name="i.aalt" 
d="M432 1206q-31 0 -53.5 21.5t-22.5 50.5q0 39 27 66.5t66 27.5q31 0 52 -20.5t21 -51.5q0 -39 -26.5 -66.5t-63.5 -27.5zM254 0h-78l184 1024h78z" />
    <glyph glyph-name="a.salt" horiz-adv-x="1271" 
d="M1157 733l51 291h76l-182 -1024h-76l35 188q-158 -213 -422 -213q-201 0 -331 139q-130 137 -130 351q0 244 158 414t395 170q151 0 266 -85t160 -231zM647 47q206 0 340 147q133 145 133 363q0 183 -106 301q-107 119 -279 119q-205 0 -340 -149q-135 -150 -135 -361
q0 -183 108 -301q107 -119 279 -119z" />
    <glyph glyph-name="aacute.aalt" horiz-adv-x="1271" 
d="M1038 1393l-374 -246h-9l-28 39v6l366 262h6l41 -55zM1157 733l51 291h76l-182 -1024h-76l35 188q-158 -213 -422 -213q-201 0 -331 139q-130 137 -130 351q0 244 158 414t395 170q151 0 266 -85t160 -231zM647 47q206 0 340 147q133 145 133 363q0 183 -106 301
q-107 119 -279 119q-205 0 -340 -149q-135 -150 -135 -361q0 -183 108 -301q107 -119 279 -119z" />
    <glyph glyph-name="abreve.aalt" horiz-adv-x="1271" 
d="M827 1174q-111 0 -177 68q-66 67 -60 175h72q-2 -80 45 -130t123 -50q75 0 135.5 49t89.5 131h71q-33 -110 -113 -177q-79 -66 -186 -66zM1157 733l51 291h76l-182 -1024h-76l35 188q-158 -213 -422 -213q-201 0 -331 139q-130 137 -130 351q0 244 158 414t395 170
q151 0 266 -85t160 -231zM647 47q206 0 340 147q133 145 133 363q0 183 -106 301q-107 119 -279 119q-205 0 -340 -149q-135 -150 -135 -361q0 -183 108 -301q107 -119 279 -119z" />
    <glyph glyph-name="acircumflex.aalt" horiz-adv-x="1271" 
d="M846 1315l-277 -152h-6l-26 43v6l309 187h16l242 -187l-2 -6l-37 -37h-6zM1157 733l51 291h76l-182 -1024h-76l35 188q-158 -213 -422 -213q-201 0 -331 139q-130 137 -130 351q0 244 158 414t395 170q151 0 266 -85t160 -231zM647 47q206 0 340 147q133 145 133 363
q0 183 -106 301q-107 119 -279 119q-205 0 -340 -149q-135 -150 -135 -361q0 -183 108 -301q107 -119 279 -119z" />
    <glyph glyph-name="adieresis.aalt" horiz-adv-x="1271" 
d="M680 1204q-31 0 -52.5 21.5t-21.5 52.5q0 39 28 67.5t66 28.5q29 0 51.5 -21.5t22.5 -49.5q0 -41 -27.5 -70t-66.5 -29zM969 1204q-31 0 -52.5 21.5t-21.5 52.5q0 39 27.5 67.5t66.5 28.5q31 0 53.5 -21.5t22.5 -49.5q0 -41 -28.5 -70t-67.5 -29zM1157 733l51 291h76
l-182 -1024h-76l35 188q-158 -213 -422 -213q-201 0 -331 139q-130 137 -130 351q0 244 158 414t395 170q151 0 266 -85t160 -231zM647 47q206 0 340 147q133 145 133 363q0 183 -106 301q-107 119 -279 119q-205 0 -340 -149q-135 -150 -135 -361q0 -183 108 -301
q107 -119 279 -119z" />
    <glyph glyph-name="agrave.aalt" horiz-adv-x="1271" 
d="M1040 1186l-28 -39h-6l-377 246v6l41 55h6l364 -262v-6zM1157 733l51 291h76l-182 -1024h-76l35 188q-158 -213 -422 -213q-201 0 -331 139q-130 137 -130 351q0 244 158 414t395 170q151 0 266 -85t160 -231zM647 47q206 0 340 147q133 145 133 363q0 183 -106 301
q-107 119 -279 119q-205 0 -340 -149q-135 -150 -135 -361q0 -183 108 -301q107 -119 279 -119z" />
    <glyph glyph-name="amacron.aalt" horiz-adv-x="1271" 
d="M563 1298h545l-12 -67h-545zM1157 733l51 291h76l-182 -1024h-76l35 188q-158 -213 -422 -213q-201 0 -331 139q-130 137 -130 351q0 244 158 414t395 170q151 0 266 -85t160 -231zM647 47q206 0 340 147q133 145 133 363q0 183 -106 301q-107 119 -279 119
q-205 0 -340 -149q-135 -150 -135 -361q0 -183 108 -301q107 -119 279 -119z" />
    <glyph glyph-name="aogonek.aalt" horiz-adv-x="1271" 
d="M1145 -287l6 -2l14 -41l-4 -8q-66 -31 -137 -31q-74 0 -119 39t-45 103q0 139 168 239l33 176q-158 -213 -422 -213q-201 0 -331 139q-130 137 -130 351q0 244 158 414t395 170q151 0 266 -85t160 -231l51 291h76l-182 -1024q-1 -1 -20.5 -13.5t-46.5 -32.5t-47 -40
q-56 -56 -56 -125t64.5 -90.5t148.5 14.5zM647 47q206 0 340 147q133 145 133 363q0 183 -106 301q-107 119 -279 119q-205 0 -340 -149q-135 -150 -135 -361q0 -183 108 -301q107 -119 279 -119z" />
    <glyph glyph-name="aring.aalt" horiz-adv-x="1271" 
d="M819 1133q-66 0 -110 44q-45 43 -45 107q0 77 56 136q56 57 136 57q65 0 111 -44q45 -43 45 -108q0 -81 -57 -136q-59 -56 -136 -56zM850 1415q-52 0 -87 -39q-34 -38 -34 -88q0 -40 27 -67t69 -27q52 0 87 38q34 37 34 87q0 42 -26 69t-70 27zM1157 733l51 291h76
l-182 -1024h-76l35 188q-158 -213 -422 -213q-201 0 -331 139q-130 137 -130 351q0 244 158 414t395 170q151 0 266 -85t160 -231zM647 47q206 0 340 147q133 145 133 363q0 183 -106 301q-107 119 -279 119q-205 0 -340 -149q-135 -150 -135 -361q0 -183 108 -301
q107 -119 279 -119z" />
    <glyph glyph-name="atilde.aalt" horiz-adv-x="1271" 
d="M563 1227h-14l-4 4l12 67q49 70 145 70q52 0 146 -36t133 -36q89 0 129 70h12l4 -4l-10 -68q-52 -68 -147 -67q-42 0 -132 35q-87 34 -143 34q-90 2 -131 -69zM1157 733l51 291h76l-182 -1024h-76l35 188q-158 -213 -422 -213q-201 0 -331 139q-130 137 -130 351
q0 244 158 414t395 170q151 0 266 -85t160 -231zM647 47q206 0 340 147q133 145 133 363q0 183 -106 301q-107 119 -279 119q-205 0 -340 -149q-135 -150 -135 -361q0 -183 108 -301q107 -119 279 -119z" />
    <glyph glyph-name="ae.aalt" horiz-adv-x="2088" 
d="M1692 1049q215 0 337 -153q121 -152 85 -361l-13 -50h-901q-5 -203 111 -320q114 -118 293 -118q244 0 389 172h10l39 -39v-8q-168 -197 -445 -197q-161 0 -279 86q-117 84 -161 230l-51 -291h-76l35 188q-157 -213 -422 -213q-201 0 -331 139q-130 137 -130 351
q0 244 158 414t395 170q144 0 257 -79q114 -79 163 -218l49 272h76l-37 -203q157 228 449 228zM651 47q206 0 340 147q133 145 133 363q0 182 -107 301q-108 119 -280 119q-202 0 -339 -149q-136 -149 -136 -361q0 -183 109 -301q108 -119 280 -119zM1212 559h824
q27 181 -70 297q-97 121 -278 121q-178 0 -312 -113q-132 -116 -164 -305z" />
    <glyph glyph-name="aeacute.aalt" horiz-adv-x="2088" 
d="M1505 1393l-375 -246h-8l-28 39v6l366 262h6l41 -55zM1692 1049q215 0 337 -153q121 -152 85 -361l-13 -50h-901q-5 -203 111 -320q114 -118 293 -118q244 0 389 172h10l39 -39v-8q-168 -197 -445 -197q-161 0 -279 86q-117 84 -161 230l-51 -291h-76l35 188
q-157 -213 -422 -213q-201 0 -331 139q-130 137 -130 351q0 244 158 414t395 170q144 0 257 -79q114 -79 163 -218l49 272h76l-37 -203q157 228 449 228zM651 47q206 0 340 147q133 145 133 363q0 182 -107 301q-108 119 -280 119q-202 0 -339 -149q-136 -149 -136 -361
q0 -183 109 -301q108 -119 280 -119zM1212 559h824q27 181 -70 297q-97 121 -278 121q-178 0 -312 -113q-132 -116 -164 -305z" />
    <glyph glyph-name="f_t.dlig" horiz-adv-x="1200" 
d="M1329 954h-330l-125 -680q-20 -111 21 -169t137 -58q83 0 144 49l8 -2l20 -49l-4 -10q-90 -59 -186 -60q-127 0 -184.5 77.5t-30.5 217.5l123 684h-447l-172 -954h-78l172 954h-176l10 70h181l6 39q33 178 130 266t228 88q69 0 125 -28v-9l-33 -51l-10 -2q-46 19 -92 21
q-220 0 -272 -285l-7 -39h449l57 322l70 10l8 -6l-59 -326h327z" />
    <glyph glyph-name="ordfeminine.aalt" horiz-adv-x="917" 
d="M938 760l4 -2l6 -43l-4 -6q-26 -17 -63 -19q-41 0 -61.5 29t-12.5 74l2 16q-106 -121 -266 -121q-122 0 -195 79q-74 80 -74 196q0 162 109 277q109 114 269 114q159 0 233 -146l22 131h64l-99 -542q-8 -47 31 -47q19 0 35 10zM551 750q124 0 213 92q88 91 88 229
q0 99 -57 160q-58 61 -154 61q-123 0 -211 -94t-88 -223q0 -98 57 -161q55 -64 152 -64z" />
    <glyph glyph-name="ampersand.aalt" horiz-adv-x="1173" 
d="M981 717h274l-14 -74h-176q59 -83 59 -194q0 -205 -149 -339q-150 -135 -377 -135q-196 0 -318 104t-122 267q0 156 98 272q96 114 254 164q-139 72 -139 230q0 152 108 248q107 96 281 96q218 0 336 -180v-9l-58 -41h-6q-98 156 -278 156q-134 0 -217 -73
q-84 -73 -84 -189q0 -88 66 -143q65 -56 175 -56h66v-2l24 2l-12 -76h-80q-196 0 -323 -111q-129 -112 -129 -284q0 -133 100 -217t264 -84q188 0 313 113t125 280q0 113 -73 201z" />
    <glyph glyph-name="glyph370" horiz-adv-x="0" 
d="M-45 1055l106 338l9 6h75l5 -6l-138 -338l-10 -6h-45z" />
    <glyph glyph-name="acute.aalt" horiz-adv-x="557" 
d="M326 1192l338 231h6l39 -57l-2 -6l-351 -211h-6l-24 37v6z" />
    <glyph glyph-name="breve.aalt" horiz-adv-x="727" 
d="M753 1220q-80 -67 -179 -67t-164 68q-66 68 -62 176h72q-2 -80 43.5 -129t120.5 -49q71 0 126 47.5t85 130.5h71q-33 -110 -113 -177z" />
    <glyph glyph-name="caron.aalt" horiz-adv-x="716" 
d="M866 1399h6l23 -45l-2 -6l-320 -185h-12l-254 185l2 6l33 39h6l227 -146z" />
    <glyph glyph-name="circumflex.aalt" horiz-adv-x="716" 
d="M604 1403h10l254 -182v-7l-37 -40h-6l-225 145l-289 -150h-6l-22 45v7z" />
    <glyph glyph-name="dieresis.aalt" horiz-adv-x="686" 
d="M397 1194q-33 0 -54 20.5t-21 51.5q0 39 27.5 67.5t66.5 28.5q31 0 53.5 -21t22.5 -51q0 -39 -28 -67.5t-67 -28.5zM729 1194q-31 0 -53.5 21t-22.5 51q0 39 28 67.5t67 28.5q33 0 55 -20.5t22 -51.5q0 -41 -27.5 -68.5t-68.5 -27.5z" />
    <glyph glyph-name="dotaccent.aalt" horiz-adv-x="323" 
d="M383 1190q-33 0 -54.5 21.5t-21.5 52.5q0 39 27.5 67.5t66.5 28.5q31 0 53.5 -21.5t22.5 -50.5q0 -41 -27.5 -69.5t-66.5 -28.5z" />
    <glyph glyph-name="grave.aalt" horiz-adv-x="559" 
d="M354 1423h6l336 -231l2 -6l-26 -37h-6l-351 211v6z" />
    <glyph glyph-name="hungarumlaut.aalt" horiz-adv-x="651" 
d="M264 1128l213 299h86l4 -8l-239 -297h-62zM502 1128l213 299h86l2 -8l-240 -297h-59z" />
    <glyph glyph-name="macron.aalt" horiz-adv-x="710" 
d="M297 1206l12 66h551l-12 -66h-551z" />
    <glyph glyph-name="ring.aalt" horiz-adv-x="464" 
d="M446 1120q-66 0 -110 44q-45 44 -45 110q0 78 58 135q57 57 134 57q65 0 111 -44q45 -44 45 -107q0 -79 -56 -137q-57 -58 -137 -58zM453 1182q55 0 89 39q33 39 33 88q0 40 -27 68t-69 28q-54 0 -89 -38q-34 -37 -34 -89q0 -40 27.5 -68t69.5 -28z" />
    <glyph glyph-name="tilde.aalt" horiz-adv-x="823" 
d="M782 1192q-50 0 -137 37t-145 37q-88 0 -133 -74h-15l-4 6l14 72q49 70 152 69q56 0 148 -36q89 -37 133 -37q90 0 135 73h14l4 -6l-14 -71q-48 -70 -152 -70z" />
    <glyph glyph-name="glyph382" horiz-adv-x="1339" 
d="M315 1450h-6l-20 41l2 6l395 232h6l29 -62l-2 -6zM1206 1450h-6l-20 41l2 6l395 232h6l29 -62l-2 -6zM281 0h-80l239 1331h82zM1139 360l174 971h80l-174 -975q-33 -177 -148 -278q-115 -103 -272 -103q-123 0 -214.5 54.5t-133.5 148.5l2 8l55 39h8q35 -82 110.5 -129
t174.5 -47q129 0 220 84q91 83 118 227z" />
    <glyph glyph-name="glyph383" horiz-adv-x="1409" 
d="M324 1450h-7l-20 41v6l395 232h6l29 -62l-2 -6zM1071 1450h-6l-18 41v6l395 232h6l29 -62l-2 -6zM283 0h-82l239 1331h82zM979 1331h483l-174 -975q-33 -178 -146 -279q-114 -102 -274 -102q-121 0 -213 54.5t-135 148.5l2 8l56 39h8q37 -82 111.5 -129t172.5 -47
q130 0 221 84t117 227l162 897h-403z" />
    <glyph glyph-name="glyph384" horiz-adv-x="870" 
d="M272 1145h-6l-24 41v6l370 264h6l37 -59v-6zM711 1145h-4l-25 41v6l371 264h6l37 -59v-6zM254 0h-78l184 1024h78zM459 -328h-8l-21 54v8q79 45 128 106q45 58 65 164l182 1020h78l-183 -1016q-26 -133 -83 -205q-58 -73 -158 -131z" />
    <glyph glyph-name="glyph385" horiz-adv-x="1259" 
d="M209 -100h-88l-2 8l1280 1542h88l2 -8z" />
    <glyph glyph-name="glyph386" horiz-adv-x="1062" 
d="M166 59h-82l-4 9l1065 1230h82l2 -8z" />
    <glyph glyph-name="glyph387" horiz-adv-x="743" 
d="M860 844l-12 -64l-692 -317l-6 4l10 63l694 318z" />
    <glyph glyph-name="glyph388" horiz-adv-x="628" 
d="M707 723l-533 -254l-8 4l8 57l535 254l8 -4z" />
    <glyph glyph-name="glyph389" horiz-adv-x="1517" 
d="M334 979l10 68h1210l-12 -68h-1208z" />
    <glyph glyph-name="glyph390" horiz-adv-x="696" 
d="M721 629h-528l12 65h530z" />
    </font>
</defs>
</svg>
