<?xml version="1.0" standalone="no"?>
<!DOCTYPE svg PUBLIC "-//W3C//DTD SVG 1.1//EN" "http://www.w3.org/Graphics/SVG/1.1/DTD/svg11.dtd" >
<svg xmlns="http://www.w3.org/2000/svg" xmlns:xlink="http://www.w3.org/1999/xlink" version="1.1">
<metadata>
Created by FontForge 20190801 at Tue Sep 12 22:01:45 2017
 By Jimmy Wärting
Copyright (c) 2017 by Enrique Hernandez Vasquez. All rights reserved.
</metadata>
<defs>
<font id="IsidoraSans-Regular" horiz-adv-x="1603" >
  <font-face 
    font-family="Isidora Sans"
    font-weight="400"
    font-stretch="normal"
    units-per-em="2048"
    panose-1="0 0 5 0 0 0 0 0 0 0"
    ascent="1638"
    descent="-410"
    x-height="1024"
    cap-height="1331"
    bbox="-276 -428 2636 1800"
    underline-thickness="0"
    underline-position="0"
    unicode-range="U+0020-FB02"
  />
<missing-glyph horiz-adv-x="1228" 
 />
    <glyph glyph-name="uniFB01" unicode="fi" horiz-adv-x="1036" 
d="M332 1024h528v-1024h-100v936h-428v-936h-101v936h-178v88h178v39q0 178 85 266t219 88q74 0 135 -31l2 -10l-33 -65l-8 -4q-48 20 -92 20q-207 0 -207 -264v-39zM744 1347q28 27 67.5 27t67.5 -27q28 -28 28 -66.5t-27 -67.5q-28 -29 -69 -29t-68 29q-28 28 -27.5 67
t28.5 67z" />
    <glyph glyph-name="uniFB02" unicode="fl" horiz-adv-x="1058" 
d="M780 1393l90 10l11 -6v-1397h-101v1219q-63 110 -221 108q-100 0 -163 -68q-64 -68 -64 -184v-51h323v-86h-323v-938h-101v938h-178v86h178v51q0 156 93 249q91 93 239 93q126 0 217 -80v56z" />
    <glyph glyph-name=".notdef" horiz-adv-x="1228" 
 />
    <glyph glyph-name="glyph1" horiz-adv-x="0" 
 />
    <glyph glyph-name="glyph2" horiz-adv-x="681" 
 />
    <glyph glyph-name="space" unicode=" " horiz-adv-x="524" 
 />
    <glyph glyph-name="exclam" unicode="!" horiz-adv-x="491" 
d="M285 268h-76l-6 8l-17 1047l7 8h106l6 -8l-14 -1047zM315 4q-28 -29 -69 -29t-68 29q-28 29 -28 68.5t28 67.5q27 28 68 28t69 -28q27 -28 27 -67.5t-27 -68.5z" />
    <glyph glyph-name="quotedbl" unicode="&#x22;" horiz-adv-x="591" 
d="M211 854h-59l-25 477h109zM440 854h-59l-25 477h109z" />
    <glyph glyph-name="numbersign" unicode="#" horiz-adv-x="1155" 
d="M350 0h-90l53 395h-243l12 86h244l51 369h-250l12 86h250l55 393h91l-54 -393h305l56 393h90l-53 -393h206l-12 -86h-209l-49 -369h211l-12 -86h-211l-55 -395h-91l56 395h-307zM469 850l-51 -369h305l51 369h-305z" />
    <glyph glyph-name="dollar" unicode="$" horiz-adv-x="927" 
d="M838 399q0 -131 -87 -215t-229 -96v-143h-90v143q-111 11 -208 67q-97 55 -154 144v10l61 56h10q59 -85 150 -134q90 -51 182 -51q118 0 188 61q70 60 70 156q0 70 -47 127q-19 22 -57 44q-40 23 -64 33q-25 11 -81 33q-41 15 -81 32q-66 29 -98 46q-39 21 -84 57
q-90 72 -90 202q0 121 83 201q82 79 220 90v145h90v-145q184 -18 285 -152v-10l-59 -58h-11q-95 131 -266 132q-102 0 -168 -54q-67 -55 -67 -143q0 -82 53 -130t162 -93q2 -1 77 -30q65 -26 81 -34q16 -9 68 -33q49 -24 68 -45q2 -2 9.5 -10t10 -11.5t10 -12t11.5 -13.5
t10 -14t10 -15.5t8.5 -15t8 -17t5.5 -17.5q10 -39 10 -87z" />
    <glyph glyph-name="percent" unicode="%" horiz-adv-x="1540" 
d="M574 694q-79 -106 -207 -106q-127 0 -206 106q-79 104 -79 277t79 279t206 106q128 0 207 -106t79 -279t-79 -277zM211 0l-6 10l1022 1321h92l4 -10l-1020 -1321h-92zM227 756q52 -82 140 -82q89 0 141 82q53 83 53 215q0 134 -53 217q-52 82 -141 82q-88 0 -140 -82
q-53 -83 -53 -217q0 -132 53 -215zM1379 81q-79 -106 -205 -106q-128 0 -207 106q-80 106 -80 277q0 174 79 280q78 105 208 105q126 0 206 -105q78 -107 78 -280t-79 -277zM1032 143q52 -82 142 -82q88 0 140 82t52 215q0 135 -52 217t-140 82q-90 0 -142 -81
q-53 -83 -53 -218q0 -132 53 -215z" />
    <glyph glyph-name="ampersand" unicode="&#x26;" horiz-adv-x="1273" 
d="M1223 78l8 -6l18 -68l-4 -8q-35 -20 -84 -21q-111 0 -203 105q-146 -111 -337 -111q-220 0 -375 142q-156 141 -156 340q0 126 68 230t188 167q-36 53 -47 94q-18 52 -18 109q0 133 95 219t247 86q186 0 319 -154v-10l-65 -57h-11q-102 129 -248 127q-102 -1 -168 -61
q-65 -60 -65 -148q0 -69 37 -131q37 -63 115 -158l434 -535q74 97 73 217q0 140 -98 244v10l70 60h10q123 -134 123 -309q0 -169 -115 -299q73 -87 131 -89q35 0 58 15zM195 446q0 -157 125 -270t303 -113q160 0 276 95l-391 481l-107 137q-95 -52 -150.5 -139.5
t-55.5 -190.5z" />
    <glyph glyph-name="quotesingle" unicode="'" horiz-adv-x="362" 
d="M211 854h-59l-25 477h109z" />
    <glyph glyph-name="parenleft" unicode="(" horiz-adv-x="548" 
d="M399 1511h117q-307 -380 -307 -874q0 -495 307 -875h-117q-301 403 -301 875q0 471 301 874z" />
    <glyph glyph-name="parenright" unicode=")" horiz-adv-x="548" 
d="M150 -238h-117q307 380 307 875q0 494 -307 874h117q301 -403 301 -874q0 -472 -301 -875z" />
    <glyph glyph-name="asterisk" unicode="*" horiz-adv-x="917" 
d="M418 1075v297h82v-297l258 150l43 -74l-258 -147l258 -150l-43 -72l-258 150v-299h-82v299l-258 -150l-43 72l258 150l-258 147l43 72z" />
    <glyph glyph-name="plus" unicode="+" horiz-adv-x="1081" 
d="M588 659h426v-88h-426v-409h-94v409h-428v88h428v406h94v-406z" />
    <glyph glyph-name="comma" unicode="," horiz-adv-x="413" 
d="M127 -272h-10l-35 28v8q112 155 113 213q-37 4 -60.5 31t-23.5 64q0 41 28.5 68.5t69.5 27.5t68.5 -29.5t29.5 -75.5q5 -102 -180 -335z" />
    <glyph glyph-name="hyphen" unicode="-" horiz-adv-x="966" 
d="M141 571v86h684v-86h-684z" />
    <glyph glyph-name="period" unicode="." horiz-adv-x="419" 
d="M278 4q-28 -29 -67 -29t-67 29t-28 68.5t28 67.5t67 28t67 -28q27 -28 27 -67.5t-27 -68.5z" />
    <glyph glyph-name="slash" unicode="/" horiz-adv-x="1009" 
d="M47 -98l821 1540h90l7 -10l-822 -1541h-92z" />
    <glyph glyph-name="zero" unicode="0" horiz-adv-x="1224" 
d="M975 1166q137 -191 137 -500t-137 -500t-362 -191q-226 0 -364 191q-138 190 -138 500t138 500t364 190t362 -190zM217 666q0 -265 109 -429q108 -165 287 -165q178 0 287 165q108 163 108 429q0 267 -108 430q-110 164 -287 164q-179 0 -287 -164q-109 -163 -109 -430z
" />
    <glyph glyph-name="one" unicode="1" horiz-adv-x="581" 
d="M49 1235v96h328v-1331h-103v1235h-225z" />
    <glyph glyph-name="two" unicode="2" horiz-adv-x="1019" 
d="M229 90h707v-90h-866v76q410 406 473 475q123 132 185 238q58 100 58 198q0 125 -81 200q-82 75 -211 75q-184 0 -324 -162h-8l-64 51v10q167 195 400 195q175 0 284 -100t109 -269q0 -110 -61 -220q-59 -107 -193 -257q-71 -78 -408 -420z" />
    <glyph glyph-name="three" unicode="3" horiz-adv-x="1044" 
d="M672 727q120 -40 194 -137q72 -96 72 -228q0 -173 -124 -279q-124 -108 -318 -108q-264 0 -433 193v10l62 58h8q141 -166 363 -166q147 0 241 82q94 81 94 213q0 143 -105 229q-106 86 -265 86h-80v80h82q129 0 223 76q94 75 94 190q0 104 -78 170q-80 66 -202 66
q-182 0 -303 -136h-9l-61 56v10q155 164 381 164q164 0 272 -90q107 -90 107 -236q0 -101 -58 -181t-157 -122z" />
    <glyph glyph-name="four" unicode="4" horiz-adv-x="1093" 
d="M838 0h-105v346h-694v76l749 909h50v-895h178v-90h-178v-346zM735 1122l-563 -686h563v686z" />
    <glyph glyph-name="five" unicode="5" horiz-adv-x="1089" 
d="M553 872q205 0 330 -125q125 -127 125 -321q0 -197 -136 -324t-344 -127q-122 0 -239 52q-119 51 -195 141v10l62 55h10q63 -78 160 -120q95 -43 196 -43q163 0 273 101q108 100 108 257q0 154 -99 251q-98 97 -263 97q-105 0 -197 -45t-139 -110h-10l-72 36l104 674h674
v-96h-588l-73 -461q146 98 313 98z" />
    <glyph glyph-name="six" unicode="6" horiz-adv-x="1107" 
d="M592 868q196 0 324 -127q128 -128 128 -319q0 -195 -133 -321t-340 -126q-238 0 -372 164q-97 115 -99 291q-2 277 254 627q103 142 262 313h9l69 -55v-10q-143 -147 -258 -301q-100 -130 -164 -256q130 120 320 120zM309 169q103 -99 263 -99q159 0 264 99
q104 99 104 251q0 154 -104 253q-105 99 -263 99q-161 0 -264 -99q-104 -101 -104 -253t104 -251z" />
    <glyph glyph-name="seven" unicode="7" horiz-adv-x="915" 
d="M35 1235v96h846v-55l-566 -1276h-104l-4 6l545 1229h-717z" />
    <glyph glyph-name="eight" unicode="8" horiz-adv-x="1150" 
d="M782 756q124 -46 197 -145q72 -99 72 -226q0 -176 -135 -293q-136 -117 -340 -117q-205 0 -340 117q-136 117 -136 293q0 127 72 226q73 99 197 145q-170 90 -170 272q0 140 108 235q107 93 269 93q161 0 269 -93q107 -95 107 -235q0 -182 -170 -272zM383 1196
q-76 -66 -76 -168t76 -168q76 -67 192 -67q115 0 192 68t77 167t-77 167q-76 67 -192 67q-117 0 -192 -66zM575 70q159 0 265 90t106 227t-106 228q-106 90 -265 90q-160 0 -265 -90q-105 -91 -105 -228t105 -227t265 -90z" />
    <glyph glyph-name="nine" unicode="9" horiz-adv-x="1107" 
d="M1008 899q2 -277 -265 -635q-100 -139 -254 -303h-10l-67 57v11q144 148 239 270q121 153 187 287q-134 -123 -303 -123q-204 0 -337 127q-135 128 -135 315q2 203 135 326q132 123 337 123q206 0 339 -125t134 -330zM273 658q104 -101 262 -101q156 0 263 101
q105 100 105 252q0 150 -104 251q-105 99 -264 99t-263 -99q-104 -101 -104 -251q0 -152 105 -252z" />
    <glyph glyph-name="colon" unicode=":" horiz-adv-x="473" 
d="M238 846q-41 0 -69 27.5t-28 68.5t28 68.5t69 27.5q39 0 66.5 -28.5t27.5 -67.5t-27.5 -67.5t-66.5 -28.5zM238 -27q-41 0 -69 28t-28 69t28 68.5t69 27.5q39 0 66.5 -28.5t27.5 -67.5t-27.5 -68t-66.5 -29z" />
    <glyph glyph-name="semicolon" unicode=";" horiz-adv-x="520" 
d="M336 874q-29 -28 -68 -27.5t-67 28.5q-29 29 -29 68t29 67q28 28 66.5 28t68.5 -27q29 -28 29 -69t-29 -68zM184 -272h-8l-37 28v8q114 157 115 213q-37 4 -60.5 31t-23.5 64q0 40 27.5 68t68.5 28q43 0 69.5 -28.5t26.5 -76.5q2 -105 -178 -335z" />
    <glyph glyph-name="less" unicode="&#x3c;" horiz-adv-x="980" 
d="M846 1157l10 -6v-94l-670 -398l670 -397v-94l-10 -6l-785 463v69z" />
    <glyph glyph-name="equal" unicode="=" horiz-adv-x="1232" 
d="M145 774v90h942v-90h-942zM145 365v90h942v-90h-942z" />
    <glyph glyph-name="greater" unicode="&#x3e;" horiz-adv-x="980" 
d="M127 1151l8 6l785 -463v-69l-785 -463l-8 6v94l668 397l-668 398v94z" />
    <glyph glyph-name="question" unicode="?" horiz-adv-x="1001" 
d="M547 276h-101v84q0 92 34 160t110 139q24 21 48 44q43 41 50 49q10 10 42 47q43 50 63 118q10 33 10 72q0 121 -90 197q-89 76 -238 76q-108 0 -202 -74q-93 -74 -119 -187l-11 -4l-84 21l-2 10q34 140 153 235q118 93 267 93q196 0 314 -100t118 -267q0 -73 -38 -158
q-13 -27 -48 -70q-37 -45 -48 -56q-16 -18 -59 -58q-46 -44 -52 -49q-64 -60 -90.5 -112.5t-26.5 -123.5v-86zM496 -25q-39 0 -67 29t-28 68t28 67.5t67 28.5q41 0 68.5 -28t27.5 -68t-27.5 -68.5t-68.5 -28.5z" />
    <glyph glyph-name="at" unicode="@" horiz-adv-x="1744" 
d="M864 -248q-322 0 -544 216t-222 544q0 330 219 545q218 215 553 215q332 0 549 -208t217 -519q0 -194 -85 -303q-85 -111 -218 -111q-84 0 -136 44t-64 124q-97 -166 -308 -166q-164 0 -266 110t-102 271q0 162 103 271q102 108 269 108q190 0 291 -158v154h80v-506
q0 -83 34.5 -127.5t96.5 -44.5q94 0 152 90q57 90 57 244q0 279 -189 460q-190 181 -479 181q-296 0 -486 -189q-191 -191 -191 -485q0 -292 187 -482q188 -192 480 -192q200 0 369 113h8l45 -60v-10q-168 -129 -420 -129zM831 209q125 0 207 84q82 83 82 221q0 136 -82 219
q-82 84 -204 84q-130 0 -209 -87q-80 -88 -80 -218q0 -126 80 -215q79 -88 206 -88z" />
    <glyph glyph-name="A" unicode="A" horiz-adv-x="1343" 
d="M645 1331h55l600 -1321l-4 -10h-102l-143 319h-760l-146 -319h-98l-6 10zM672 1163l-340 -751h678z" />
    <glyph glyph-name="B" unicode="B" horiz-adv-x="1247" 
d="M889 694q117 -37 184.5 -124.5t67.5 -204.5q0 -163 -123 -264q-124 -101 -328 -101h-489v1331h461q205 0 315 -89t110 -255q0 -100 -53 -176.5t-145 -116.5zM674 1239h-369v-506h381q139 0 217 66.5t78 185.5q0 123 -80 188.5t-227 65.5zM305 92h387q162 0 252 73t90 204
q0 125 -90 201q-90 75 -242 75h-397v-553z" />
    <glyph glyph-name="C" unicode="C" horiz-adv-x="1411" 
d="M795 -25q-296 0 -495 199q-200 200 -200 492q0 291 200 491q199 199 495 199q164 0 308 -68q142 -69 236 -190v-11l-67 -53h-10q-81 107 -203 166.5t-264 59.5q-250 0 -420 -170t-170 -424q0 -251 170 -423q169 -171 420 -171q143 0 265 59t202 166h10l67 -53v-11
q-95 -122 -236 -189q-143 -69 -308 -69z" />
    <glyph glyph-name="D" unicode="D" horiz-adv-x="1478" 
d="M201 1331h489q314 0 501 -182q185 -182 185 -481q0 -303 -185 -485q-185 -183 -501 -183h-489v1331zM305 92h385q266 0 423 157t157 417t-157 417q-157 156 -423 156h-385v-1147z" />
    <glyph glyph-name="E" unicode="E" horiz-adv-x="1153" 
d="M1063 1331v-92h-758v-520h602v-92h-602v-535h758v-92h-862v1331h862z" />
    <glyph glyph-name="F" unicode="F" horiz-adv-x="1046" 
d="M1006 1331v-92h-701v-520h559v-92h-559v-627h-104v1331h805z" />
    <glyph glyph-name="G" unicode="G" horiz-adv-x="1517" 
d="M1436 696l10 -8q4 -16 4 -49q0 -269 -182 -459q-195 -205 -488 -205q-289 0 -484 198q-196 197 -196 493q0 295 198 493q199 197 486 197q159 0 300 -67q139 -66 235 -187v-8l-72 -60h-8q-79 103 -200 165q-121 61 -257 61q-242 0 -409 -170q-168 -169 -168 -424
t166 -424q167 -170 407 -170q252 0 418 178q144 151 145 354h-555v92h650z" />
    <glyph glyph-name="H" unicode="H" horiz-adv-x="1445" 
d="M1141 719v612h102v-1331h-102v627h-836v-627h-104v1331h104v-612h836z" />
    <glyph glyph-name="I" unicode="I" horiz-adv-x="505" 
d="M201 0v1331h104v-1331h-104z" />
    <glyph glyph-name="J" unicode="J" horiz-adv-x="983" 
d="M692 373v958h105v-960q0 -183 -111 -290q-110 -106 -274 -106q-252 0 -383 201v10l67 58h10q112 -172 304 -172q124 0 203 82t79 219z" />
    <glyph glyph-name="K" unicode="K" horiz-adv-x="1185" 
d="M1159 1331l6 -10l-604 -588l600 -723l-6 -10h-119l-549 659l-182 -178v-481h-104v1331h104v-719l731 719h123z" />
    <glyph glyph-name="L" unicode="L" horiz-adv-x="1019" 
d="M305 92h684v-92h-788v1331h104v-1239z" />
    <glyph glyph-name="M" unicode="M" horiz-adv-x="1654" 
d="M1376 1331l146 -1331h-99l-114 1075l-455 -1075h-55l-453 1075l-115 -1075h-98l146 1331h55l491 -1167l496 1167h55z" />
    <glyph glyph-name="N" unicode="N" horiz-adv-x="1443" 
d="M1141 182v1149h102v-1351h-55l-885 1146v-1126h-102v1331h55z" />
    <glyph glyph-name="O" unicode="O" 
d="M1305 173q-201 -198 -502 -198t-502 198t-201 493t201 493q202 197 502 197t502 -197q200 -198 200 -493t-200 -493zM803 72q253 0 425 170q171 170 171 424t-171 424q-172 170 -425 170q-255 0 -427 -170q-171 -170 -171 -424t171 -424q172 -170 427 -170z" />
    <glyph glyph-name="P" unicode="P" horiz-adv-x="1173" 
d="M201 1331h465q210 0 328 -104q116 -105 116 -289q0 -185 -118 -288q-118 -105 -326 -105h-361v-545h-104v1331zM305 635h385q144 0 230 81q84 81 84 220q0 138 -84 221q-83 82 -230 82h-385v-604z" />
    <glyph glyph-name="Q" unicode="Q" 
d="M1505 666q0 -212 -110 -382q-111 -170 -297 -249l276 -301l-6 -10h-119l-254 276q-90 -25 -192 -25q-301 0 -502 198t-201 493t201 493q202 197 502 197t502 -197q200 -198 200 -493zM376 1090q-171 -170 -171 -424t171 -424q172 -170 427 -170q253 0 425 170
q171 170 171 424t-171 424q-172 170 -425 170q-255 0 -427 -170z" />
    <glyph glyph-name="R" unicode="R" horiz-adv-x="1245" 
d="M1139 956q0 -145 -81 -240t-231 -124l301 -582l-6 -10h-100l-301 580h-27h-389v-580h-104v1331h493q209 0 327 -100t118 -275zM305 1239v-569h412q144 0 230 80q85 79 85 206t-85 205t-230 78h-412z" />
    <glyph glyph-name="S" unicode="S" horiz-adv-x="1087" 
d="M563 -25q-150 0 -285 69t-212 185v11l67 55h10q72 -102 184 -162q110 -61 228 -61q149 0 243 74q93 74 93 188q0 88 -61 157q-20 23 -74 53q-54 28 -83 41q-12 5 -103 40q-69 24 -103 39q-30 12 -94 40q-29 13 -86 49q-50 32 -78 64q-70 79 -70 197q0 150 115 246
q116 96 299 96q258 0 405 -189v-10l-63 -59h-10q-127 162 -332 162q-135 0 -220 -67t-85 -171q0 -97 68 -153q70 -57 206 -113q17 -6 82 -29q81 -31 86 -33l77 -35q50 -24 76 -41q85 -61 113 -111q41 -77 41 -167q0 -164 -120 -264q-122 -101 -314 -101z" />
    <glyph glyph-name="T" unicode="T" horiz-adv-x="1075" 
d="M1047 1239h-459v-1239h-105v1239h-454v92h1018v-92z" />
    <glyph glyph-name="U" unicode="U" horiz-adv-x="1452" 
d="M182 520v811h105v-807q0 -206 121 -328q120 -124 319 -124t320 124q120 123 120 328v807h103v-811q0 -246 -149 -395q-150 -150 -394 -150q-247 0 -395 150q-150 149 -150 395z" />
    <glyph glyph-name="V" unicode="V" horiz-adv-x="1298" 
d="M1143 1331h104l6 -10l-575 -1321h-55l-578 1321l6 10h107l491 -1147z" />
    <glyph glyph-name="W" unicode="W" horiz-adv-x="1918" 
d="M1765 1331h99l4 -10l-484 -1321h-55l-371 1118l-368 -1118h-55l-486 1321l6 10h109l399 -1122l369 1122h55l375 -1128z" />
    <glyph glyph-name="X" unicode="X" horiz-adv-x="1167" 
d="M1118 1321l-471 -645l494 -666l-4 -10h-115l-442 596l-439 -596h-110l-4 10l493 662l-467 649l4 10h115l416 -579l413 579h111z" />
    <glyph glyph-name="Y" unicode="Y" horiz-adv-x="1261" 
d="M1194 1331l4 -10l-514 -813v-508h-104v508l-521 813l4 10h111l459 -733l457 733h104z" />
    <glyph glyph-name="Z" unicode="Z" horiz-adv-x="1110" 
d="M1022 1276l-829 -1186h872v-90h-1016v55l832 1186h-789v90h930v-55z" />
    <glyph glyph-name="bracketleft" unicode="[" horiz-adv-x="555" 
d="M494 1511v-86h-201v-1577h201v-86h-301v1749h301z" />
    <glyph glyph-name="backslash" unicode="\" horiz-adv-x="1007" 
d="M51 1442h90l822 -1540l-5 -11h-92l-821 1541z" />
    <glyph glyph-name="bracketright" unicode="]" horiz-adv-x="555" 
d="M262 1425h-199v86h299v-1749h-299v86h199v1577z" />
    <glyph glyph-name="asciicircum" unicode="^" horiz-adv-x="1189" 
d="M567 1331h66l487 -766l-6 -8h-96l-418 657l-428 -657h-96l-6 8z" />
    <glyph glyph-name="underscore" unicode="_" horiz-adv-x="1052" 
d="M86 -209v82h881v-82h-881z" />
    <glyph glyph-name="grave" unicode="`" horiz-adv-x="565" 
d="M143 1473h9l331 -269v-8l-39 -49h-6l-356 242v8z" />
    <glyph glyph-name="a" unicode="a" horiz-adv-x="1101" 
d="M530 1049q196 0 305 -106t109 -292v-651h-98v158q-60 -86 -161 -134.5t-216 -48.5q-177 0 -284 91q-109 90 -109 235q0 151 117 242q116 92 307 92q180 0 346 -90v123q0 129 -86 209q-85 79 -230 79q-194 0 -342 -135h-10l-45 64v8q73 72 180 114t217 42zM475 68
q151 0 261 82q110 81 110 219v82q-166 94 -344 94q-145 0 -233 -67q-89 -68 -89 -179q0 -102 82 -166q83 -65 213 -65z" />
    <glyph glyph-name="b" unicode="b" horiz-adv-x="1296" 
d="M688 1049q225 0 371 -155q145 -154 145 -382t-145 -382q-146 -155 -371 -155q-270 0 -416 218v-193h-100v1384l90 13l10 -6v-555q146 213 416 213zM680 68q186 0 303 128t117 316t-117 316t-303 128q-180 0 -299 -120q-119 -122 -119 -324q0 -200 119 -322t299 -122z" />
    <glyph glyph-name="c" unicode="c" horiz-adv-x="1116" 
d="M627 -25q-232 0 -383 154q-152 155 -152 383t152 383q151 154 383 154q129 0 243 -53q110 -54 181 -144v-10l-62 -49h-10q-137 164 -350 163q-191 0 -312 -127q-122 -128 -122 -319q0 -189 122 -316q121 -126 318 -126q217 0 344 163h10l62 -49v-10q-71 -91 -181 -143
q-112 -54 -243 -54z" />
    <glyph glyph-name="d" unicode="d" horiz-adv-x="1294" 
d="M1022 1384l92 13l10 -6v-1391h-102v193q-70 -102 -178 -160t-238 -58q-225 0 -369 155q-145 154 -145 382q0 229 145 383q144 154 369 154q268 0 416 -211v546zM614 68q180 0 299 122t119 322q0 203 -118 324q-118 120 -298 120q-186 0 -303 -128q-118 -127 -118 -316
q0 -188 117 -316q116 -128 302 -128z" />
    <glyph glyph-name="e" unicode="e" horiz-adv-x="1179" 
d="M1094 479h-897q12 -186 133 -298q122 -113 291 -113q105 0 212 48q106 49 164 130h11l61 -51v-11q-71 -98 -193 -153q-122 -56 -253 -56q-219 0 -374 147q-155 146 -155 388q0 230 144 385q142 154 364 154q240 0 375 -179q121 -142 121 -346q0 -22 -4 -45zM602 956
q-168 0 -278 -105q-112 -107 -125 -278h794q-12 134 -82 226q-103 157 -309 157z" />
    <glyph glyph-name="f" unicode="f" horiz-adv-x="669" 
d="M735 1368l2 -8l-35 -68l-10 -4q-66 39 -139 39q-103 0 -162 -67t-59 -197v-39h323v-88h-323v-936h-101v936h-178v88h178v39q0 177 93 265q92 89 227 89q108 0 184 -49z" />
    <glyph glyph-name="g" unicode="g" horiz-adv-x="1243" 
d="M975 854v170h98v-885q0 -225 -136 -346t-349 -121q-146 0 -267 60q-123 62 -194 166v10l63 53h9q134 -197 391 -197q175 0 278 97t103 276v150q-136 -189 -389 -191q-210 0 -349 137q-139 136 -139 339q0 202 140 340q140 137 350 137q256 0 391 -195zM307 296
q107 -108 279 -108t281 109q108 109 108 275t-109 275t-280 109q-170 0 -278 -109q-109 -109 -109 -276q0 -169 108 -275z" />
    <glyph glyph-name="h" unicode="h" horiz-adv-x="1206" 
d="M635 1049q186 0 300 -115q114 -116 114 -301v-633h-101v625q0 151 -89 242q-89 89 -238 89q-153 0 -251 -95t-98 -245v-616h-100v1384l90 13l10 -6v-527q117 185 363 185z" />
    <glyph glyph-name="i" unicode="i" horiz-adv-x="454" 
d="M295 1234q-29 -28 -68 -28t-67 28t-28 68.5t28 68.5t67 28t68 -28t29 -68.5t-29 -68.5zM276 0h-100v1024h100v-1024z" />
    <glyph glyph-name="j" unicode="j" horiz-adv-x="444" 
d="M290 1234q-28 -28 -69 -28t-68 28q-28 28 -28 68.5t28 68.5q27 28 68 28t69 -28q27 -28 27 -68.5t-27 -68.5zM172 0v1024h100v-1012q0 -133 -48 -208q-48 -73 -146 -132h-10l-37 72v8q74 44 107.5 100.5t33.5 147.5z" />
    <glyph glyph-name="k" unicode="k" horiz-adv-x="997" 
d="M967 1014l-447 -443l463 -561l-6 -10h-111l-413 502l-181 -178v-324h-100v1384l90 13l10 -6v-936l574 569h115z" />
    <glyph glyph-name="l" unicode="l" horiz-adv-x="454" 
d="M276 0h-100v1384l92 13l8 -6v-1391z" />
    <glyph glyph-name="m" unicode="m" horiz-adv-x="1943" 
d="M1391 1049q185 0 291 -114q106 -113 106 -302v-633h-102v625q0 153 -82 242q-83 89 -228 89q-151 0 -248 -95q-96 -95 -96 -245v-616h-104v625q0 153 -82 242q-83 89 -228 89q-151 0 -248 -95q-96 -95 -96 -245v-616h-102v1024h96v-168q117 193 365 193q131 0 227 -62
t139 -172q49 109 153 172q104 62 239 62z" />
    <glyph glyph-name="n" unicode="n" horiz-adv-x="1206" 
d="M635 1049q188 0 302 -115q114 -116 114 -301v-633h-103v625q0 149 -89 241q-89 90 -236 90q-153 0 -251 -95t-98 -245v-616h-102v1024h96v-166q117 191 367 191z" />
    <glyph glyph-name="o" unicode="o" horiz-adv-x="1267" 
d="M1023 130q-155 -155 -388 -155t-388 155t-155 382t155 382t388 155t388 -155t155 -382t-155 -382zM320 195q124 -127 315 -127q190 0 314 127t124 317t-124 317t-314 127q-191 0 -315 -127q-125 -128 -125 -317t125 -317z" />
    <glyph glyph-name="p" unicode="p" horiz-adv-x="1296" 
d="M688 1049q225 0 371 -155q145 -154 145 -382t-145 -382q-146 -155 -371 -155q-270 0 -416 218v-500h-100v1331h96v-195q71 104 180 162t240 58zM680 68q186 0 303 128t117 316t-117 316t-303 128q-180 0 -299 -120q-119 -122 -119 -324q0 -200 119 -322t299 -122z" />
    <glyph glyph-name="q" unicode="q" horiz-adv-x="1294" 
d="M1026 834v190h98v-1331h-102v495q-147 -213 -416 -213q-225 0 -369 155q-145 154 -145 382q0 229 145 383q144 154 369 154q271 0 420 -215zM614 68q180 0 299 122t119 322q0 203 -118 324q-118 120 -300 120q-186 0 -302 -128q-117 -128 -117 -316t117 -316
q116 -128 302 -128z" />
    <glyph glyph-name="r" unicode="r" horiz-adv-x="698" 
d="M690 1020l4 -8l-35 -78l-8 -4q-41 26 -104 24q-116 0 -195 -103q-80 -104 -80 -263v-588h-100v1024h96v-174q96 199 293 199q73 0 129 -29z" />
    <glyph glyph-name="s" unicode="s" horiz-adv-x="872" 
d="M432 -25q-242 0 -373 189v10l64 49h10q43 -72 121 -113.5t172 -41.5q116 0 186 51t70 137q0 64 -53 128q-20 24 -65 48q-43 24 -69 34q-31 12 -85 34q-29 11 -31 12q-109 47 -173 98q-81 64 -81 172q0 120 90 193q91 74 231 74q100 0 187 -45q85 -46 135 -123v-11
l-63 -49h-9q-92 135 -254 135q-96 0 -155.5 -45t-59.5 -120q0 -65 46.5 -107t152.5 -88q186 -77 240 -115q119 -85 118 -225q0 -128 -97 -204q-98 -77 -255 -77z" />
    <glyph glyph-name="t" unicode="t" horiz-adv-x="694" 
d="M641 117l10 -2l35 -66l-4 -10q-77 -62 -184 -64q-134 0 -208.5 79.5t-74.5 226.5v655h-180v88h180v319l92 13l8 -6v-326h332v-88h-332v-653q0 -215 189 -215q88 0 137 49z" />
    <glyph glyph-name="u" unicode="u" horiz-adv-x="1181" 
d="M907 408v616h103v-1024h-97v164q-116 -188 -358 -189q-176 0 -287 115q-112 115 -112 301v633h102v-633q0 -145 87 -234t222 -89q154 0 247 95t93 245z" />
    <glyph glyph-name="v" unicode="v" horiz-adv-x="1058" 
d="M922 1024h94l4 -10l-465 -1014h-51l-467 1014l4 10h104l385 -860z" />
    <glyph glyph-name="w" unicode="w" horiz-adv-x="1525" 
d="M1380 1024h101l4 -10l-369 -1014h-53l-301 836l-301 -836h-53l-367 1014l6 10h100l285 -838l301 838h60l299 -842z" />
    <glyph glyph-name="x" unicode="x" horiz-adv-x="987" 
d="M940 1014l-387 -496l403 -508l-6 -10h-106l-359 446l-346 -446h-104l-4 10l399 508l-383 496l4 10h109l336 -436l335 436h103z" />
    <glyph glyph-name="y" unicode="y" horiz-adv-x="1038" 
d="M897 1024h96l6 -10l-503 -1139q-50 -110 -107 -157q-56 -46 -141 -46q-81 0 -142 41l-2 8l33 68l8 4q46 -35 101 -35q52 0 87.5 29.5t65.5 99.5l68 154l-424 973l6 10h103l372 -862z" />
    <glyph glyph-name="z" unicode="z" horiz-adv-x="935" 
d="M885 0h-828v72l662 868h-629v84h758v-72l-662 -868h699v-84z" />
    <glyph glyph-name="braceleft" unicode="{" horiz-adv-x="567" 
d="M522 -238h-41q-167 0 -232 75q-65 76 -65 269v287q0 54 -2 92q-2 29 -12 60q-17 53 -100 53v78q78 0 96 43t18 162v286q0 194 65 270q65 74 232 74h41v-86h-39q-119 0 -158 -52q-40 -52 -40 -206v-356q0 -78 -24.5 -126t-65.5 -48q41 0 65.5 -48t24.5 -124v-359
q0 -154 40 -206t158 -52h39v-86z" />
    <glyph glyph-name="bar" unicode="|" horiz-adv-x="475" 
d="M283 -299h-90v1749h90v-1749z" />
    <glyph glyph-name="braceright" unicode="}" horiz-adv-x="567" 
d="M283 811v356q0 153 -41 206q-40 52 -160 52h-39v86h43q168 0 233 -74q64 -74 64 -270v-286q0 -59 1 -75q1 -23 6 -55t18 -44q29 -31 88 -31v-78q-53 -5 -75.5 -19t-30.5 -55q-4 -31 -6 -56q-1 -16 -1 -75v-287q0 -196 -64 -270q-65 -74 -233 -74h-43v86h39q120 0 160 52
q41 53 41 206v359q0 78 24.5 125t65.5 47q-41 0 -65.5 48t-24.5 126z" />
    <glyph glyph-name="asciitilde" unicode="~" horiz-adv-x="1183" 
d="M836 584q-84 0 -243 36q-161 35 -239 35q-44 0 -85 -20t-62 -51h-8l-49 67v6q73 89 204 91q83 0 247 -36q163 -36 235 -36q98 0 145 72h8l49 -68v-8q-21 -26 -41 -42q-17 -16 -61 -31t-100 -15z" />
    <glyph glyph-name="exclamdown" unicode="&#xa1;" horiz-adv-x="471" 
d="M303 886q-29 -28 -67.5 -28t-67.5 28q-29 27 -29 66t29 68t67.5 29t67.5 -29t29 -68t-29 -66zM289 -307h-107l-6 8l17 1047l6 8h75l7 -8l14 -1047z" />
    <glyph glyph-name="cent" unicode="&#xa2;" horiz-adv-x="1138" 
d="M633 1110q-189 0 -310 -127q-122 -128 -122 -317q0 -192 121 -316q120 -125 315 -125q219 0 344 162h10l62 -49v-10q-141 -187 -402 -197v-156h-90v160q-206 25 -337 174q-130 148 -130 359q0 208 131 359q131 149 336 173v152h90v-148q259 -10 402 -198v-9l-62 -51h-10
q-137 164 -348 164z" />
    <glyph glyph-name="sterling" unicode="&#xa3;" horiz-adv-x="1064" 
d="M625 1264q-129 0 -213 -78t-84 -215v-246h405v-92h-405v-541h661v-92h-895v92h131v541h-119v92h119v244q0 181 114 284q113 103 286 103q213 0 364 -168v-10l-61 -56h-10q-124 142 -293 142z" />
    <glyph glyph-name="currency" unicode="&#xa4;" horiz-adv-x="1349" 
d="M1079 348l131 -127l-69 -67l-129 127q-149 -121 -338 -121q-191 0 -334 121l-129 -127l-72 67l131 127q-117 137 -116 324q0 180 114 323l-127 125l72 68l125 -125q145 121 338 121q190 0 338 -123l127 127l69 -68l-129 -127q115 -142 115 -323t-117 -322zM379 376
q119 -120 297 -120q177 0 296 119q118 118 118 297t-118 297t-296 118t-297 -119q-119 -121 -119 -296t119 -296z" />
    <glyph glyph-name="yen" unicode="&#xa5;" horiz-adv-x="1245" 
d="M1188 1331l4 -10l-496 -782h273v-78h-291v-166h291v-78h-291v-217h-105v217h-292v78h292v166h-292v78h272l-500 782l4 10h111l459 -733l456 733h105z" />
    <glyph glyph-name="brokenbar" unicode="&#xa6;" horiz-adv-x="475" 
d="M193 698v752h90v-752h-90zM193 -299v793h90v-793h-90z" />
    <glyph glyph-name="section" unicode="&#xa7;" horiz-adv-x="1099" 
d="M889 1124h-8q-137 142 -336 144q-123 0 -205 -55t-82 -144q0 -72 52 -115q41 -35 49 -41q17 -15 74 -40q50 -23 76 -33q15 -7 91 -37q91 -36 149 -62q46 -22 117 -68q125 -84 125 -227q0 -141 -119 -225q119 -89 119 -221q0 -139 -118 -224t-314 -85q-156 0 -284 55
t-203 154v8l61 59h10q150 -188 408 -188q149 0 241 62q91 63 91 159q0 77 -64 137q-28 25 -78 52q-47 25 -89 43q-43 16 -107 42q-90 36 -120 49q-41 17 -102 51q-65 36 -93 65q-80 78 -80 177q0 147 135 228q-135 90 -135 219t112 211q110 82 285 82q248 0 401 -166v-8z
M258 623q0 -66 55 -118q54 -53 121 -81q100 -43 174 -73q103 -42 168 -77q105 65 107 172q0 106 -115 174q-55 32 -112 58q-47 20 -137 57q-83 34 -130 58q-131 -53 -131 -170z" />
    <glyph glyph-name="dieresis" unicode="&#xa8;" horiz-adv-x="735" 
d="M275 1234q-29 -28 -68 -28t-66 29q-28 29 -28 67.5t28 67.5q27 29 66 29t68 -28t29 -68.5t-29 -68.5zM594 1234q-30 -28 -68.5 -28t-65.5 29q-28 29 -28 67.5t28 67.5q27 29 65.5 29t68.5 -28q29 -28 29 -68.5t-29 -68.5z" />
    <glyph glyph-name="copyright" unicode="&#xa9;" horiz-adv-x="1585" 
d="M1288 175q-198 -200 -495 -200t-495 200q-198 199 -198 491q0 290 198 490t495 200t495 -200q197 -200 197 -490q0 -291 -197 -491zM366 239q171 -173 427 -173t427 173t171 427t-171 428t-427 174t-427 -174t-171 -428t171 -427zM807 262q-176 0 -293 117t-117 289
t117 289q118 116 293 116q98 0 183.5 -40t139.5 -109l-2 -11l-53 -51h-8q-96 121 -258 121q-145 0 -229 -89q-84 -88 -84 -226t84 -227t229 -89q167 0 258 121h8l53 -53l2 -10q-114 -148 -323 -148z" />
    <glyph glyph-name="ordfeminine" unicode="&#xaa;" horiz-adv-x="796" 
d="M393 1354q113 0 189 -61q75 -61 75 -169v-424h-82v93q-78 -97 -221 -99q-108 0 -179 57q-71 56 -71 148q0 100 77 153q76 52 188 52q109 0 206 -41v45q0 76 -53 120t-133 44q-137 0 -215 -90h-8l-41 51v6q39 48 115 82q74 33 153 33zM358 772q88 0 150 53q61 52 61 127
v37q-84 37 -198 37q-79 0 -126.5 -34t-47.5 -93q0 -57 43.5 -92t117.5 -35z" />
    <glyph glyph-name="guillemotleft" unicode="&#xab;" horiz-adv-x="886" 
d="M451 911v-6l-250 -291l250 -290v-7l-56 -55h-8l-295 340v25l295 340h8zM702 967l56 -56v-6l-250 -291l250 -290v-7l-56 -55h-8l-295 340v25l295 340h8z" />
    <glyph glyph-name="registered" unicode="&#xae;" horiz-adv-x="917" 
d="M203 1260q102 102 256 102q153 0 256 -102q102 -104 102 -254t-102 -252q-103 -103 -256 -103q-154 0 -256 103q-103 102 -103 252q0 152 103 254zM459 715q125 0 208 84q83 85 83 207q0 124 -83 209q-83 83 -208 83q-123 0 -206 -84q-83 -85 -83 -206q0 -122 83 -208
q82 -85 206 -85zM614 1094q0 -81 -79 -109l94 -176h-76l-90 168h-82v-168h-68v408h156q70 0 107.5 -32t37.5 -91zM473 1157h-92v-129h92q33 0 52.5 18.5t19.5 47.5q0 63 -72 63z" />
    <glyph glyph-name="overscore" unicode="&#xaf;" horiz-adv-x="1069" 
d="M258 1229v88h553v-88h-553z" />
    <glyph glyph-name="degree" unicode="&#xb0;" horiz-adv-x="716" 
d="M358 827q-110 0 -186 78q-78 78 -78 187q0 112 78 188q77 76 186 76q111 0 188 -77t77 -187q0 -111 -77 -188t-188 -77zM358 909q76 0 128 54q51 53 51 129q0 75 -51 129q-53 53 -128 53q-73 0 -126 -53q-52 -53 -52 -129q0 -77 52 -129q52 -54 126 -54z" />
    <glyph glyph-name="plusminus" unicode="&#xb1;" horiz-adv-x="1163" 
d="M631 1112v-403h426v-91h-426v-409h-94v409h-428v91h428v403h94zM1057 0h-948v90h948v-90z" />
    <glyph glyph-name="acute" unicode="&#xb4;" horiz-adv-x="565" 
d="M82 1204l334 269h6l61 -76v-8l-354 -242h-8l-39 49v8z" />
    <glyph glyph-name="paragraph" unicode="&#xb6;" horiz-adv-x="1292" 
d="M1223 1450v-90h-457v-1653h-90v879h-78q-249 -2 -392 104q-145 105 -145 332q0 428 537 428h625zM963 1200h90v-1493h-90v1493z" />
    <glyph glyph-name="middot" unicode="&#xb7;" horiz-adv-x="487" 
d="M322 490q-33 -33 -78 -33t-78 33q-33 32 -33 77t33 77t78 32t78 -32q32 -32 32 -77t-32 -77z" />
    <glyph glyph-name="cedilla" unicode="&#xb8;" horiz-adv-x="602" 
d="M285 -428q-115 0 -201 63v11l39 55h10q66 -51 146 -51q62 0 92.5 22t29.5 66q0 57 -65 75q-65 19 -141 1l-31 18l47 164v41h104v-41l-24 -102q209 5 209 -154q0 -76 -58.5 -122t-156.5 -46z" />
    <glyph glyph-name="ordmasculine" unicode="&#xba;" horiz-adv-x="854" 
d="M426 696q-144 0 -238 94q-96 93 -96 236q0 142 96 237q94 93 238 93q145 0 241 -93q95 -95 95 -237q0 -143 -95 -236q-95 -94 -241 -94zM426 780q106 0 175 70t69 177q0 105 -69 176q-69 69 -175 69q-104 0 -173 -69q-69 -71 -69 -176q0 -107 69 -177t173 -70z" />
    <glyph glyph-name="guillemotright" unicode="&#xbb;" horiz-adv-x="886" 
d="M193 967l296 -340v-25l-296 -340h-9l-55 55v7l250 290l-250 291v6l55 56h9zM492 967h8l297 -340v-25l-297 -340h-8l-56 55v7l250 290l-250 291v6z" />
    <glyph glyph-name="onequarter" unicode="&#xbc;" horiz-adv-x="1316" 
d="M336 573h-100v672h-154v86h254v-758zM109 0l-7 10l1022 1321h93l4 -10l-1020 -1321h-92zM1124 0h-90v172h-377v59l400 519h67v-496h93v-82h-93v-172zM1034 592l-266 -338h266v338z" />
    <glyph glyph-name="onehalf" unicode="&#xbd;" horiz-adv-x="1427" 
d="M92 0l-6 10l1022 1321h92l4 -10l-1020 -1321h-92zM356 573h-100v672h-154v86h254v-758zM1350 0h-523v53q59 59 147 140q93 86 128 122q131 131 131 209q0 63 -41 101.5t-107 38.5q-103 0 -188 -91h-10l-49 50v10q110 117 252 117q108 0 171.5 -61.5t63.5 -164.5
q0 -104 -154 -264l-176 -174h353z" />
    <glyph glyph-name="threequarters" unicode="&#xbe;" horiz-adv-x="1476" 
d="M442 989q69 -25 107.5 -77t38.5 -121q0 -98 -74 -161t-192 -63q-70 0 -142 32q-71 32 -112 83v8l43 43h10q78 -88 201 -88q76 0 124 42t48 108q0 69 -53.5 112t-137.5 43h-59v70h67q65 0 111 38q45 38 45 97q0 55 -41 89t-109 34q-102 0 -165 -64h-11l-43 41v11
q86 90 226 90q104 0 170 -54q65 -56 65 -141q0 -117 -117 -172zM281 0l-7 10l1022 1321h93l4 -10l-1020 -1321h-92zM1280 0h-88v172h-379v59l401 519h66v-496h92v-82h-92v-172zM1192 592l-268 -338h268v338z" />
    <glyph glyph-name="questiondown" unicode="&#xbf;" horiz-adv-x="985" 
d="M561 898q-29 -28 -67.5 -28t-67.5 28t-29 67t29 68t67.5 29t67.5 -29t29 -68t-29 -67zM514 -319q-196 0 -314 100q-120 101 -120 266q0 74 39 159q11 26 47 69q34 42 48 57q28 28 59 57q49 46 53 49q62 58 90 112q26 54 26 124v86h103v-84q0 -91 -34.5 -159.5
t-111.5 -139.5q-23 -23 -46 -44t-50 -48q-7 -7 -43 -47q-40 -45 -61 -118q-11 -38 -11 -73q0 -121 91 -197q90 -75 235 -75q112 0 203 73q92 74 121 187l8 4l84 -21l4 -10q-34 -141 -152 -234t-268 -93z" />
    <glyph glyph-name="Agrave" unicode="&#xc0;" horiz-adv-x="1343" 
d="M864 1501l-33 -51h-8l-381 209v6l54 80h8l360 -236v-8zM645 1331h55l600 -1321l-4 -10h-102l-143 319h-760l-146 -319h-98l-6 10zM672 1163l-340 -751h678z" />
    <glyph glyph-name="Aacute" unicode="&#xc1;" horiz-adv-x="1343" 
d="M893 1659l-379 -209h-8l-35 51v8l363 236h8l51 -80v-6zM645 1331h55l600 -1321l-4 -10h-102l-143 319h-760l-146 -319h-98l-6 10zM672 1163l-340 -751h678z" />
    <glyph glyph-name="Acircumflex" unicode="&#xc2;" horiz-adv-x="1343" 
d="M670 1614l-267 -144h-8l-39 60v8l306 184h14l305 -184v-8l-39 -60h-8zM645 1331h55l600 -1321l-4 -10h-102l-143 319h-760l-146 -319h-98l-6 10zM672 1163l-340 -751h678z" />
    <glyph glyph-name="Atilde" unicode="&#xc3;" horiz-adv-x="1343" 
d="M408 1499h-7l-8 6v86q33 74 139 74q56 0 152 -37q95 -37 139 -37q91 0 119 72h6l10 -6v-86q-39 -72 -141 -72q-53 0 -143 37t-146 37q-91 0 -120 -74zM645 1331h55l600 -1321l-4 -10h-102l-143 319h-760l-146 -319h-98l-6 10zM672 1163l-340 -751h678z" />
    <glyph glyph-name="Adieresis" unicode="&#xc4;" horiz-adv-x="1343" 
d="M561 1520q-29 -28 -67.5 -28t-67.5 28t-29 67t29 68t67.5 29t67.5 -29t29 -68t-29 -67zM922 1520q-28 -28 -67 -28t-68 28t-29 67t29 68t68 29t67 -29t28 -68t-28 -67zM645 1331h55l600 -1321l-4 -10h-102l-143 319h-760l-146 -319h-98l-6 10zM672 1163l-340 -751h678z
" />
    <glyph glyph-name="Aring" unicode="&#xc5;" horiz-adv-x="1343" 
d="M803 1492q-52 -52 -131 -52t-131 52q-54 52 -54 128t54 128q52 52 131 52t131 -52q53 -53 53 -128t-53 -128zM749 1695q-30 31 -77 31t-77 -31t-30 -74.5t31 -76.5t76 -33q44 0 76 33q30 33 30 76.5t-29 74.5zM645 1331h55l600 -1321l-4 -10h-102l-143 319h-760
l-146 -319h-98l-6 10zM672 1163l-340 -751h678z" />
    <glyph glyph-name="AE" unicode="&#xc6;" horiz-adv-x="1904" 
d="M1815 1331v-92h-758v-520h602v-92h-602v-535h758v-92h-863v319h-635l-225 -319h-106l-6 10l927 1321h908zM952 1219l-569 -807h569v807z" />
    <glyph glyph-name="Ccedilla" unicode="&#xc7;" horiz-adv-x="1411" 
d="M795 1260q-250 0 -420 -170t-170 -424q0 -251 170 -423q169 -171 420 -171q143 0 265 59t202 166h10l67 -53v-11q-87 -114 -221 -181.5t-291 -76.5l-18 -77q209 5 209 -154q0 -76 -58.5 -122t-156.5 -46q-116 0 -201 64v10l39 55h10q66 -51 146 -51q123 0 123 88
q0 57 -66 75q-65 19 -141 1l-31 18l41 144q-272 26 -446 218q-177 194 -177 468q0 292 200 492q200 198 495 198q164 0 308 -68q142 -69 236 -190v-11l-67 -53h-10q-81 107 -203 166.5t-264 59.5z" />
    <glyph glyph-name="Egrave" unicode="&#xc8;" horiz-adv-x="1153" 
d="M473 1745h8l361 -236v-8l-33 -51h-8l-381 209v6zM1063 1331v-92h-758v-520h602v-92h-602v-535h758v-92h-862v1331h862z" />
    <glyph glyph-name="Eacute" unicode="&#xc9;" horiz-adv-x="1153" 
d="M432 1509l363 236h8l51 -80v-6l-379 -209h-8l-35 51v8zM1063 1331v-92h-758v-520h602v-92h-602v-535h758v-92h-862v1331h862z" />
    <glyph glyph-name="Ecircumflex" unicode="&#xca;" horiz-adv-x="1153" 
d="M631 1614l-266 -144h-9l-39 60v8l306 184h14l305 -184v-8l-39 -60h-8zM1063 1331v-92h-758v-520h602v-92h-602v-535h758v-92h-862v1331h862z" />
    <glyph glyph-name="Edieresis" unicode="&#xcb;" horiz-adv-x="1153" 
d="M521 1520q-29 -28 -68 -28t-68 28t-29 67t29 68t68 29t68 -29t29 -68t-29 -67zM881 1520q-29 -28 -68 -28t-67 28t-28 67t28 68t67 29t68 -29t29 -68t-29 -67zM1063 1331v-92h-758v-520h602v-92h-602v-535h758v-92h-862v1331h862z" />
    <glyph glyph-name="Igrave" unicode="&#xcc;" horiz-adv-x="505" 
d="M100 1745h9l360 -236v-8l-33 -51h-8l-381 209v6zM201 0v1331h104v-1331h-104z" />
    <glyph glyph-name="Iacute" unicode="&#xcd;" horiz-adv-x="505" 
d="M27 1509l362 236h8l52 -80v-6l-379 -209h-9l-34 51v8zM201 0v1331h104v-1331h-104z" />
    <glyph glyph-name="Icircumflex" unicode="&#xce;" horiz-adv-x="505" 
d="M242 1722h14l305 -184v-8l-39 -60h-8l-264 144l-266 -144h-9l-38 60v8zM305 0h-104v1331h104v-1331z" />
    <glyph glyph-name="Idieresis" unicode="&#xcf;" horiz-adv-x="505" 
d="M143 1520q-28 -28 -69 -28t-69 28t-28 67t28 68t69 29t69 -29q27 -29 27 -68t-27 -67zM503 1520q-28 -28 -69 -28t-68 28q-28 28 -28 67t28 68q27 29 68 29t69 -29q27 -29 27 -68t-27 -67zM201 0v1331h104v-1331h-104z" />
    <glyph glyph-name="Eth" unicode="&#xd0;" horiz-adv-x="1490" 
d="M213 1331h489q314 0 501 -182q186 -181 186 -481q0 -303 -185 -485q-186 -183 -502 -183h-489v625h-168v92h168v614zM317 92h385q266 0 423 157t157 417t-156 417q-158 156 -424 156h-385v-522h414v-92h-414v-533z" />
    <glyph glyph-name="Ntilde" unicode="&#xd1;" horiz-adv-x="1443" 
d="M438 1499h-6l-10 6v86q38 74 149 74q60 0 161 -37t147 -37q95 0 127 72h6l10 -6v-86q-39 -72 -150 -72q-56 0 -152 37t-155 37q-98 0 -127 -74zM1141 182v1149h102v-1351h-55l-885 1146v-1126h-102v1331h55z" />
    <glyph glyph-name="Ograve" unicode="&#xd2;" 
d="M643 1745h8l361 -236v-8l-33 -51h-8l-381 209v6zM1305 173q-201 -198 -502 -198t-502 198t-201 493t201 493q202 197 502 197t502 -197q200 -198 200 -493t-200 -493zM803 72q253 0 425 170q171 170 171 424t-171 424q-172 170 -425 170q-255 0 -427 -170
q-171 -170 -171 -424t171 -424q172 -170 427 -170z" />
    <glyph glyph-name="Oacute" unicode="&#xd3;" 
d="M602 1509l363 236h8l51 -80v-6l-379 -209h-8l-35 51v8zM1305 173q-201 -198 -502 -198t-502 198t-201 493t201 493q202 197 502 197t502 -197q200 -198 200 -493t-200 -493zM803 72q253 0 425 170q171 170 171 424t-171 424q-172 170 -425 170q-255 0 -427 -170
q-171 -170 -171 -424t171 -424q172 -170 427 -170z" />
    <glyph glyph-name="Ocircumflex" unicode="&#xd4;" 
d="M799 1614l-267 -144h-8l-39 60v8l306 184h14l305 -184v-8l-39 -60h-8zM301 1159q202 197 502 197t502 -197q200 -198 200 -493t-200 -493q-201 -198 -502 -198t-502 198t-201 493t201 493zM803 72q253 0 425 170q171 170 171 424t-171 424q-172 170 -425 170
q-255 0 -427 -170q-171 -170 -171 -424t171 -424q172 -170 427 -170z" />
    <glyph glyph-name="Otilde" unicode="&#xd5;" 
d="M952 1499q-56 0 -152 37t-155 37q-98 0 -127 -74h-6l-10 6v86q38 74 149 74q60 0 161 -37q99 -37 146 -37q96 0 127 72h7l10 -6v-86q-39 -72 -150 -72zM1305 173q-201 -198 -502 -198t-502 198t-201 493t201 493q202 197 502 197t502 -197q200 -198 200 -493t-200 -493z
M803 72q253 0 425 170q171 170 171 424t-171 424q-172 170 -425 170q-255 0 -427 -170q-171 -170 -171 -424t171 -424q172 -170 427 -170z" />
    <glyph glyph-name="Odieresis" unicode="&#xd6;" 
d="M692 1520q-28 -28 -69 -28t-69 28t-28 67t28 68t69 29t69 -29q27 -29 27 -68t-27 -67zM1052 1520q-28 -28 -69 -28t-68 28q-28 28 -28 67t28 68q27 29 68 29t69 -29q27 -29 27 -68t-27 -67zM1305 173q-201 -198 -502 -198t-502 198t-201 493t201 493q202 197 502 197
t502 -197q200 -198 200 -493t-200 -493zM803 72q253 0 425 170q171 170 171 424t-171 424q-172 170 -425 170q-255 0 -427 -170q-171 -170 -171 -424t171 -424q172 -170 427 -170z" />
    <glyph glyph-name="multiply" unicode="&#xd7;" horiz-adv-x="1069" 
d="M535 608l-369 -368l-64 61l369 369l-369 366l68 66l367 -367l366 367l62 -64l-365 -364l369 -371l-66 -67z" />
    <glyph glyph-name="Oslash" unicode="&#xd8;" 
d="M1366 1438l-141 -213q131 -95 206 -240q74 -148 74 -319q0 -295 -200 -493q-201 -198 -502 -198q-189 0 -350 86l-109 -163h-98l-4 10l133 203q-129 95 -202 239q-73 143 -73 316q0 295 201 493q202 197 502 197q187 0 344 -84l117 176h98zM205 666q0 -143 60 -266
t167 -205l660 995q-128 70 -289 70q-255 0 -427 -170q-171 -170 -171 -424zM803 72q253 0 425 170q171 170 171 424q0 146 -60 269.5t-170 205.5l-661 -998q137 -71 295 -71z" />
    <glyph glyph-name="Ugrave" unicode="&#xd9;" horiz-adv-x="1452" 
d="M567 1745h8l361 -236v-8l-33 -51h-8l-381 209v6zM182 520v811h105v-807q0 -206 121 -328q120 -124 319 -124t320 124q120 123 120 328v807h103v-811q0 -246 -149 -395q-150 -150 -394 -150q-247 0 -395 150q-150 149 -150 395z" />
    <glyph glyph-name="Uacute" unicode="&#xda;" horiz-adv-x="1452" 
d="M526 1509l363 236h8l51 -80v-6l-379 -209h-8l-35 51v8zM182 520v811h105v-807q0 -206 121 -328q120 -124 319 -124t320 124q120 123 120 328v807h103v-811q0 -246 -149 -395q-150 -150 -394 -150q-247 0 -395 150q-150 149 -150 395z" />
    <glyph glyph-name="Ucircumflex" unicode="&#xdb;" horiz-adv-x="1452" 
d="M725 1614l-266 -144h-8l-39 60v8l305 184h14l305 -184v-8l-39 -60h-8zM1167 524v807h103v-811q0 -246 -149 -395q-150 -150 -394 -150q-247 0 -395 150q-150 149 -150 395v811h105v-807q0 -206 121 -328q120 -124 319 -124t320 124q120 123 120 328z" />
    <glyph glyph-name="Udieresis" unicode="&#xdc;" horiz-adv-x="1452" 
d="M615 1520q-29 -28 -68 -28t-67 28t-28 67t28 68t67 29t68 -29t29 -68t-29 -67zM975 1520q-29 -28 -68 -28t-67 28t-28 67t28 68t67 29t68 -29t29 -68t-29 -67zM182 520v811h105v-807q0 -206 121 -328q120 -124 319 -124t320 124q120 123 120 328v807h103v-811
q0 -246 -149 -395q-150 -150 -394 -150q-247 0 -395 150q-150 149 -150 395z" />
    <glyph glyph-name="Yacute" unicode="&#xdd;" horiz-adv-x="1261" 
d="M856 1659l-379 -209h-8l-35 51v8l363 236h8l51 -80v-6zM1194 1331l4 -10l-514 -813v-508h-104v508l-521 813l4 10h111l459 -733l457 733h104z" />
    <glyph glyph-name="Thorn" unicode="&#xde;" horiz-adv-x="1200" 
d="M305 0h-104v1331h104v-272h361q210 0 328 -104q116 -105 116 -289q0 -186 -118 -289q-118 -105 -326 -105h-361v-272zM305 967v-605h385q144 0 230 81q84 81 84 221q0 141 -84 222t-230 81h-385z" />
    <glyph glyph-name="germandbls" unicode="&#xdf;" horiz-adv-x="1187" 
d="M823 760q129 -39 201 -135.5t72 -233.5q0 -191 -124 -303q-125 -113 -317 -113q-165 0 -268 86l-4 9l39 65l8 2q92 -72 219 -71q151 0 248 86q96 85 96 235q0 153 -103 238q-104 86 -272 86h-71v82h67q128 0 211 74q82 73 82 190q0 119 -86 194q-86 74 -221 74
q-145 0 -236 -99q-92 -101 -92 -255v-971h-100v975q0 195 120 319q120 123 308 123q182 0 296 -99t114 -257q-2 -210 -187 -301z" />
    <glyph glyph-name="agrave" unicode="&#xe0;" horiz-adv-x="1101" 
d="M733 1196l-39 -49h-6l-356 242v8l61 76h8l332 -269v-8zM530 1049q196 0 305 -106t109 -292v-651h-98v158q-60 -86 -161 -134.5t-216 -48.5q-177 0 -284 91q-109 90 -109 235q0 151 117 242q116 92 307 92q180 0 346 -90v123q0 129 -86 209q-85 79 -230 79
q-194 0 -342 -135h-10l-45 64v8q73 72 180 114t217 42zM475 68q151 0 261 82q110 81 110 219v82q-166 94 -344 94q-145 0 -233 -67q-89 -68 -89 -179q0 -102 82 -166q83 -65 213 -65z" />
    <glyph glyph-name="aacute" unicode="&#xe1;" horiz-adv-x="1101" 
d="M733 1389l-354 -242h-8l-39 49v8l334 269h6l61 -76v-8zM530 1049q196 0 305 -106t109 -292v-651h-98v158q-60 -86 -161 -134.5t-216 -48.5q-177 0 -284 91q-109 90 -109 235q0 151 117 242q116 92 307 92q180 0 346 -90v123q0 129 -86 209q-85 79 -230 79
q-194 0 -342 -135h-10l-45 64v8q73 72 180 114t217 42zM475 68q151 0 261 82q110 81 110 219v82q-166 94 -344 94q-145 0 -233 -67q-89 -68 -89 -179q0 -102 82 -166q83 -65 213 -65z" />
    <glyph glyph-name="acircumflex" unicode="&#xe2;" horiz-adv-x="1101" 
d="M535 1309l-248 -148h-6l-45 56v8l288 188h21l289 -188v-8l-46 -56h-8zM530 1049q196 0 305 -106t109 -292v-651h-98v158q-60 -86 -161 -134.5t-216 -48.5q-177 0 -284 91q-109 90 -109 235q0 151 117 242q116 92 307 92q180 0 346 -90v123q0 129 -86 209q-85 79 -230 79
q-194 0 -342 -135h-10l-45 64v8q73 72 180 114t217 42zM475 68q151 0 261 82q110 81 110 219v82q-166 94 -344 94q-145 0 -233 -67q-89 -68 -89 -179q0 -102 82 -166q83 -65 213 -65z" />
    <glyph glyph-name="atilde" unicode="&#xe3;" horiz-adv-x="1101" 
d="M256 1225h-6l-6 6v84q16 30 58 50.5t87 20.5q54 0 151 -35q95 -36 134 -36q104 0 135 69h6l6 -4v-84q-35 -72 -147 -71q-46 0 -137 35q-90 34 -146 34q-103 2 -135 -69zM530 1049q196 0 305 -106t109 -292v-651h-98v158q-60 -86 -161 -134.5t-216 -48.5q-177 0 -284 91
q-109 90 -109 235q0 151 117 242q116 92 307 92q180 0 346 -90v123q0 129 -86 209q-85 79 -230 79q-194 0 -342 -135h-10l-45 64v8q73 72 180 114t217 42zM475 68q151 0 261 82q110 81 110 219v82q-166 94 -344 94q-145 0 -233 -67q-89 -68 -89 -179q0 -102 82 -166
q83 -65 213 -65z" />
    <glyph glyph-name="adieresis" unicode="&#xe4;" horiz-adv-x="1101" 
d="M373 1206q-39 0 -66.5 29t-27.5 68t27.5 67.5t66.5 28.5q41 0 68.5 -27.5t27.5 -68.5t-27.5 -69t-68.5 -28zM692 1206q-39 0 -66.5 29t-27.5 68t27.5 67.5t66.5 28.5q41 0 68.5 -27.5t27.5 -68.5t-27.5 -69t-68.5 -28zM530 1049q196 0 305 -106t109 -292v-651h-98v158
q-60 -86 -161 -134.5t-216 -48.5q-177 0 -284 91q-109 90 -109 235q0 151 117 242q116 92 307 92q180 0 346 -90v123q0 129 -86 209q-85 79 -230 79q-194 0 -342 -135h-10l-45 64v8q73 72 180 114t217 42zM475 68q151 0 261 82q110 81 110 219v82q-166 94 -344 94
q-145 0 -233 -67q-89 -68 -89 -179q0 -102 82 -166q83 -65 213 -65z" />
    <glyph glyph-name="aring" unicode="&#xe5;" horiz-adv-x="1101" 
d="M532 1130q-77 0 -132 53q-54 53 -54 128q0 76 55 128q53 52 131 52q81 0 134 -52q53 -53 53 -128t-53 -128q-55 -53 -134 -53zM532 1413q-44 0 -73 -30t-29 -72t29 -72.5t73 -30.5q46 0 74.5 29.5t28.5 73.5t-28.5 73t-74.5 29zM530 1049q196 0 305 -106t109 -292v-651
h-98v158q-60 -86 -161 -134.5t-216 -48.5q-177 0 -284 91q-109 90 -109 235q0 151 117 242q116 92 307 92q180 0 346 -90v123q0 129 -86 209q-85 79 -230 79q-194 0 -342 -135h-10l-45 64v8q73 72 180 114t217 42zM475 68q151 0 261 82q110 81 110 219v82q-166 94 -344 94
q-145 0 -233 -67q-89 -68 -89 -179q0 -102 82 -166q83 -65 213 -65z" />
    <glyph glyph-name="ae" unicode="&#xe6;" horiz-adv-x="1939" 
d="M1853 479h-897q12 -186 133 -298q122 -113 291 -113q106 0 212 48q107 48 165 130h10l62 -51v-11q-71 -98 -194 -153q-122 -56 -253 -56q-152 0 -278 75q-128 75 -195 208q-47 -123 -167 -203q-122 -80 -273 -80q-177 0 -284 91q-109 90 -109 235q0 151 117 242
q116 92 307 92q174 0 346 -88v123q0 128 -87 208q-87 78 -229 78q-91 0 -185 -35q-93 -36 -157 -100h-10l-45 64v10q73 73 181 113q109 41 216 41q153 0 255 -66.5t139 -187.5q66 117 181 186q115 68 257 68q240 0 375 -179q121 -142 121 -346q-2 -30 -5 -45zM1362 956
q-168 0 -278 -105q-111 -107 -126 -278h795q-12 134 -82 226q-103 157 -309 157zM475 68q150 0 261 96q110 96 110 229v58q-166 94 -344 94q-143 0 -231 -67q-89 -68 -89 -179q0 -101 81 -166q82 -65 212 -65z" />
    <glyph glyph-name="ccedilla" unicode="&#xe7;" horiz-adv-x="1116" 
d="M629 956q-191 0 -312 -127q-122 -128 -122 -319q0 -189 122 -316q121 -126 318 -126q217 0 344 163h10l62 -49v-10q-135 -175 -377 -195l-19 -79q209 5 209 -154q0 -76 -58 -122t-157 -46q-115 0 -200 64v10l38 55h11q66 -51 145 -51q123 0 123 88q0 57 -65 75
q-65 19 -142 1l-31 18l41 141q-209 23 -343 173q-134 149 -134 362q0 228 152 383q151 154 383 154q129 0 243 -53q110 -54 181 -144v-10l-62 -49h-10q-136 163 -350 163z" />
    <glyph glyph-name="egrave" unicode="&#xe8;" horiz-adv-x="1179" 
d="M799 1196l-39 -49h-6l-357 242v8l62 76h8l332 -269v-8zM1094 479h-897q12 -186 133 -298q122 -113 291 -113q105 0 212 48q106 49 164 130h11l61 -51v-11q-71 -98 -193 -153q-122 -56 -253 -56q-219 0 -374 147q-155 146 -155 388q0 230 144 385q142 154 364 154
q240 0 375 -179q121 -142 121 -346q0 -22 -4 -45zM602 956q-168 0 -278 -105q-112 -107 -125 -278h794q-12 134 -82 226q-103 157 -309 157z" />
    <glyph glyph-name="eacute" unicode="&#xe9;" horiz-adv-x="1179" 
d="M799 1389l-355 -242h-8l-39 49v8l334 269h6l62 -76v-8zM1094 479h-897q12 -186 133 -298q122 -113 291 -113q105 0 212 48q106 49 164 130h11l61 -51v-11q-71 -98 -193 -153q-122 -56 -253 -56q-219 0 -374 147q-155 146 -155 388q0 230 144 385q142 154 364 154
q240 0 375 -179q121 -142 121 -346q0 -22 -4 -45zM602 956q-168 0 -278 -105q-112 -107 -125 -278h794q-12 134 -82 226q-103 157 -309 157z" />
    <glyph glyph-name="ecircumflex" unicode="&#xea;" horiz-adv-x="1179" 
d="M598 1309l-248 -148h-6l-45 56v8l289 188h20l289 -188v-8l-45 -56h-8zM1094 479h-897q12 -186 133 -298q122 -113 291 -113q105 0 212 48q106 49 164 130h11l61 -51v-11q-71 -98 -193 -153q-122 -56 -253 -56q-219 0 -374 147q-155 146 -155 388q0 230 144 385
q142 154 364 154q240 0 375 -179q121 -142 121 -346q0 -22 -4 -45zM602 956q-168 0 -278 -105q-112 -107 -125 -278h794q-12 134 -82 226q-103 157 -309 157z" />
    <glyph glyph-name="edieresis" unicode="&#xeb;" horiz-adv-x="1179" 
d="M438 1206q-39 0 -66.5 29t-27.5 68t27.5 67.5t66.5 28.5q41 0 69 -27.5t28 -68.5t-28 -69t-69 -28zM758 1206q-39 0 -66.5 29t-27.5 68t27.5 67.5t66.5 28.5q41 0 68.5 -27.5t27.5 -68.5t-27.5 -69t-68.5 -28zM1094 479h-897q12 -186 133 -298q122 -113 291 -113
q105 0 212 48q106 49 164 130h11l61 -51v-11q-71 -98 -193 -153q-122 -56 -253 -56q-219 0 -374 147q-155 146 -155 388q0 230 144 385q142 154 364 154q240 0 375 -179q121 -142 121 -346q0 -22 -4 -45zM602 956q-168 0 -278 -105q-112 -107 -125 -278h794q-12 134 -82 226
q-103 157 -309 157z" />
    <glyph glyph-name="igrave" unicode="&#xec;" horiz-adv-x="454" 
d="M88 1473h8l332 -269v-8l-39 -49h-6l-356 242v8zM276 0h-100v1024h100v-1024z" />
    <glyph glyph-name="iacute" unicode="&#xed;" horiz-adv-x="454" 
d="M27 1204l333 269h7l61 -76v-8l-354 -242h-8l-39 49v8zM276 0h-100v1024h100v-1024z" />
    <glyph glyph-name="icircumflex" unicode="&#xee;" horiz-adv-x="454" 
d="M219 1413h19l260 -188v-8l-41 -56h-8l-222 148l-223 -148h-4l-41 56v8zM276 0h-100v1024h100v-1024z" />
    <glyph glyph-name="idieresis" unicode="&#xef;" horiz-adv-x="454" 
d="M66 1206q-39 0 -67 29t-28 68t28 67.5t67 28.5q41 0 68.5 -27.5t27.5 -68.5t-27.5 -69t-68.5 -28zM385 1206q-39 0 -66.5 29t-27.5 68t27.5 67.5t66.5 28.5q41 0 68.5 -27.5t27.5 -68.5t-27.5 -69t-68.5 -28zM276 0h-100v1024h100v-1024z" />
    <glyph glyph-name="eth" unicode="&#xf0;" horiz-adv-x="1167" 
d="M1006 1198l-218 -80q286 -373 285 -655q0 -209 -139 -348q-140 -140 -350 -140q-212 0 -352 141q-140 140 -140 347q0 206 140 346q139 139 352 139q140 0 256 -67q-58 96 -146 204l-227 -84l-8 9v77l180 66q-93 107 -160 174v8l66 54h8q84 -85 180 -201l262 96l11 -6
v-80zM305 182q106 -112 277 -112q170 0 279 112q108 111 108 281q0 167 -107 280q-108 111 -278 111t-278 -111q-109 -112 -109 -280q0 -170 108 -281z" />
    <glyph glyph-name="ntilde" unicode="&#xf1;" horiz-adv-x="1206" 
d="M356 1225h-6l-6 6v84q16 30 58 50.5t87 20.5q54 0 151 -35q95 -36 134 -36q104 0 135 69h6l7 -4v-84q-38 -72 -148 -71q-46 0 -137 35q-89 34 -145 34q-105 1 -136 -69zM635 1049q188 0 302 -115q114 -116 114 -301v-633h-103v625q0 149 -89 241q-89 90 -236 90
q-153 0 -251 -95t-98 -245v-616h-102v1024h96v-166q117 191 367 191z" />
    <glyph glyph-name="ograve" unicode="&#xf2;" horiz-adv-x="1267" 
d="M494 1473h8l332 -269v-8l-39 -49h-7l-356 242v8zM1023 130q-155 -155 -388 -155t-388 155t-155 382t155 382t388 155t388 -155t155 -382t-155 -382zM320 195q124 -127 315 -127q190 0 314 127t124 317t-124 317t-314 127q-191 0 -315 -127q-125 -128 -125 -317t125 -317z
" />
    <glyph glyph-name="oacute" unicode="&#xf3;" horiz-adv-x="1267" 
d="M432 1204l334 269h6l62 -76v-8l-355 -242h-8l-39 49v8zM1023 130q-155 -155 -388 -155t-388 155t-155 382t155 382t388 155t388 -155t155 -382t-155 -382zM320 195q124 -127 315 -127q190 0 314 127t124 317t-124 317t-314 127q-191 0 -315 -127q-125 -128 -125 -317
t125 -317z" />
    <glyph glyph-name="ocircumflex" unicode="&#xf4;" horiz-adv-x="1267" 
d="M635 1309l-248 -148h-6l-45 56v8l289 188h20l289 -188v-8l-45 -56h-8zM247 894q155 155 388 155t388 -155t155 -382t-155 -382t-388 -155t-388 155t-155 382t155 382zM320 195q124 -127 315 -127q190 0 314 127t124 317t-124 317t-314 127q-191 0 -315 -127
q-125 -128 -125 -317t125 -317z" />
    <glyph glyph-name="otilde" unicode="&#xf5;" horiz-adv-x="1267" 
d="M776 1225q-46 0 -137 35q-89 34 -145 34q-104 0 -136 -69h-6l-6 6v84q16 30 58 50.5t88 20.5q54 0 150 -35q94 -36 134 -36q104 0 135 69h7l6 -4v-84q-35 -71 -148 -71zM1023 130q-155 -155 -388 -155t-388 155t-155 382t155 382t388 155t388 -155t155 -382t-155 -382z
M320 195q124 -127 315 -127q190 0 314 127t124 317t-124 317t-314 127q-191 0 -315 -127q-125 -128 -125 -317t125 -317z" />
    <glyph glyph-name="odieresis" unicode="&#xf6;" horiz-adv-x="1267" 
d="M541 1234q-29 -28 -68 -28t-66 29q-28 29 -28 67.5t28 67.5q27 29 66 29t68 -28t29 -68.5t-29 -68.5zM860 1234q-30 -28 -68 -28t-66 29t-28 67.5t28 67.5t66 29t68 -28q29 -28 29 -68.5t-29 -68.5zM1023 130q-155 -155 -388 -155t-388 155t-155 382t155 382t388 155
t388 -155t155 -382t-155 -382zM320 195q124 -127 315 -127q190 0 314 127t124 317t-124 317t-314 127q-191 0 -315 -127q-125 -128 -125 -317t125 -317z" />
    <glyph glyph-name="divide" unicode="&#xf7;" horiz-adv-x="1083" 
d="M614 874q-28 -28 -66.5 -28t-67.5 28q-28 27 -28 66.5t28 67.5t67 28t67 -28q27 -29 27 -68t-27 -66zM125 569v90h836v-90h-836zM614 216q-19 -22 -48 -26.5t-55 6t-43.5 34.5t-16.5 53q-1 30 16.5 54t43.5 34.5t55 6t48 -26.5q27 -29 27 -68t-27 -67z" />
    <glyph glyph-name="oslash" unicode="&#xf8;" horiz-adv-x="1267" 
d="M1124 1135l-143 -205q197 -155 197 -418q0 -227 -155 -382t-388 -155q-146 0 -273 68l-96 -137h-98l-4 10l123 178q-195 156 -195 418q0 227 155 382t388 155q147 0 272 -68l115 164h98zM195 512q0 -212 147 -340l510 731q-95 53 -217 53q-191 0 -315 -127
q-125 -128 -125 -317zM635 68q190 0 314 127t124 317q0 210 -147 340l-510 -731q97 -53 219 -53z" />
    <glyph glyph-name="ugrave" unicode="&#xf9;" horiz-adv-x="1181" 
d="M782 1196l-39 -49h-6l-356 242v8l61 76h9l331 -269v-8zM907 408v616h103v-1024h-97v164q-116 -188 -358 -189q-176 0 -287 115q-112 115 -112 301v633h102v-633q0 -145 87 -234t222 -89q154 0 247 95t93 245z" />
    <glyph glyph-name="uacute" unicode="&#xfa;" horiz-adv-x="1181" 
d="M782 1389l-354 -242h-8l-39 49v8l334 269h6l61 -76v-8zM907 408v616h103v-1024h-97v164q-116 -188 -358 -189q-176 0 -287 115q-112 115 -112 301v633h102v-633q0 -145 87 -234t222 -89q154 0 247 95t93 245z" />
    <glyph glyph-name="ucircumflex" unicode="&#xfb;" horiz-adv-x="1181" 
d="M582 1309l-248 -148h-6l-45 56v8l288 188h21l289 -188v-8l-45 -56h-9zM907 408v616h103v-1024h-97v164q-116 -188 -358 -189q-176 0 -287 115q-112 115 -112 301v633h102v-633q0 -145 87 -234t222 -89q154 0 247 95t93 245z" />
    <glyph glyph-name="udieresis" unicode="&#xfc;" horiz-adv-x="1181" 
d="M488 1234q-29 -28 -68 -28t-66 29q-28 29 -28 67.5t28 67.5q27 29 66 29t68 -28q28 -28 28 -68.5t-28 -68.5zM807 1234q-30 -28 -68.5 -28t-65.5 29q-28 29 -28 67.5t28 67.5q27 29 65.5 29t68.5 -28q29 -28 29 -68.5t-29 -68.5zM907 408v616h103v-1024h-97v164
q-116 -188 -358 -189q-176 0 -287 115q-112 115 -112 301v633h102v-633q0 -145 87 -234t222 -89q154 0 247 95t93 245z" />
    <glyph glyph-name="yacute" unicode="&#xfd;" horiz-adv-x="1038" 
d="M725 1389l-354 -242h-9l-38 49v8l333 269h7l61 -76v-8zM897 1024h96l6 -10l-503 -1139q-50 -110 -107 -157q-56 -46 -141 -46q-81 0 -142 41l-2 8l33 68l8 4q46 -35 101 -35q52 0 87.5 29.5t65.5 99.5l68 154l-424 973l6 10h103l372 -862z" />
    <glyph glyph-name="thorn" unicode="&#xfe;" horiz-adv-x="1296" 
d="M688 1049q225 0 371 -155q145 -154 145 -382t-145 -382q-146 -155 -371 -155q-270 0 -416 218v-500h-100v1638h96v-502q71 104 180 162t240 58zM680 68q186 0 303 128t117 316t-117 316t-303 128q-180 0 -299 -120q-119 -122 -119 -324q0 -200 119 -322t299 -122z" />
    <glyph glyph-name="ydieresis" unicode="&#xff;" horiz-adv-x="1038" 
d="M430 1234q-30 -28 -68 -28t-66 29t-28 67.5t28 67.5t66 29t68 -28q29 -28 29 -68.5t-29 -68.5zM750 1234q-29 -28 -68 -28t-66 29q-28 29 -28 67.5t28 67.5q27 29 66 29t68 -28q28 -28 28 -68.5t-28 -68.5zM897 1024h96l6 -10l-503 -1139q-50 -110 -107 -157
q-56 -46 -141 -46q-81 0 -142 41l-2 8l33 68l8 4q46 -35 101 -35q52 0 87.5 29.5t65.5 99.5l68 154l-424 973l6 10h103l372 -862z" />
    <glyph glyph-name="Amacron" unicode="&#x100;" horiz-adv-x="1343" 
d="M391 1589h561v-84h-561v84zM645 1331h55l600 -1321l-4 -10h-102l-143 319h-760l-146 -319h-98l-6 10zM672 1163l-340 -751h678z" />
    <glyph glyph-name="amacron" unicode="&#x101;" horiz-adv-x="1101" 
d="M256 1317h553v-88h-553v88zM530 1049q196 0 305 -106t109 -292v-651h-98v158q-60 -86 -161 -134.5t-216 -48.5q-177 0 -284 91q-109 90 -109 235q0 151 117 242q116 92 307 92q180 0 346 -90v123q0 129 -86 209q-85 79 -230 79q-194 0 -342 -135h-10l-45 64v8
q73 72 180 114t217 42zM475 68q151 0 261 82q110 81 110 219v82q-166 94 -344 94q-145 0 -233 -67q-89 -68 -89 -179q0 -102 82 -166q83 -65 213 -65z" />
    <glyph glyph-name="Abreve" unicode="&#x102;" horiz-adv-x="1343" 
d="M672 1448q-101 0 -180 71q-78 71 -93 183h93q12 -78 60 -124t120 -46q71 0 120.5 46t61.5 124h90q-13 -111 -91 -183q-77 -71 -181 -71zM645 1331h55l600 -1321l-4 -10h-102l-143 319h-760l-146 -319h-98l-6 10zM672 1163l-340 -751h678z" />
    <glyph glyph-name="abreve" unicode="&#x103;" horiz-adv-x="1101" 
d="M723 1243q-78 -69 -190 -69q-114 0 -191 70q-79 69 -92 183h90q14 -78 67 -125t126 -47t125.5 47t66.5 125h90q-13 -114 -92 -184zM530 1049q196 0 305 -106t109 -292v-651h-98v158q-60 -86 -161 -134.5t-216 -48.5q-177 0 -284 91q-109 90 -109 235q0 151 117 242
q116 92 307 92q180 0 346 -90v123q0 129 -86 209q-85 79 -230 79q-194 0 -342 -135h-10l-45 64v8q73 72 180 114t217 42zM475 68q151 0 261 82q110 81 110 219v82q-166 94 -344 94q-145 0 -233 -67q-89 -68 -89 -179q0 -102 82 -166q83 -65 213 -65z" />
    <glyph glyph-name="Aogonek" unicode="&#x104;" horiz-adv-x="1343" 
d="M1397 -283l8 -2l27 -51l-2 -10q-65 -37 -150 -37q-90 0 -145.5 49.5t-55.5 130.5q0 115 111 211l-139 311h-760l-146 -319h-98l-6 10l604 1321h55l600 -1321l-4 -10l-20 -16q-23 -16 -68 -68q-41 -47 -41 -109q0 -51 35 -82.5t94 -31.5q42 0 101 24zM672 1163l-340 -751
h678z" />
    <glyph glyph-name="aogonek" unicode="&#x105;" horiz-adv-x="1101" 
d="M1044 -283l9 -2l26 -51l-2 -10q-65 -37 -149 -37q-90 0 -145.5 49.5t-55.5 130.5q0 121 119 217v144q-60 -86 -161 -134.5t-216 -48.5q-177 0 -284 91q-109 90 -109 235q0 151 117 242q116 92 307 92q180 0 346 -90v123q0 129 -86 209q-85 79 -230 79q-194 0 -342 -135
h-10l-45 64v8q73 71 181 114q106 42 216 42q196 0 305 -106t109 -292v-651l-20 -16q-30 -21 -69 -68q-40 -48 -40 -109q0 -51 35 -82.5t94 -31.5q43 0 100 24zM475 68q151 0 261 82q110 81 110 219v82q-166 94 -344 94q-145 0 -233 -67q-89 -68 -89 -179q0 -102 82 -166
q83 -65 213 -65z" />
    <glyph glyph-name="Cacute" unicode="&#x106;" horiz-adv-x="1411" 
d="M596 1509l362 236h9l51 -80v-6l-379 -209h-8l-35 51v8zM795 -25q-296 0 -495 199q-200 200 -200 492q0 291 200 491q199 199 495 199q164 0 308 -68q142 -69 236 -190v-11l-67 -53h-10q-81 107 -203 166.5t-264 59.5q-250 0 -420 -170t-170 -424q0 -251 170 -423
q169 -171 420 -171q143 0 265 59t202 166h10l67 -53v-11q-95 -122 -236 -189q-143 -69 -308 -69z" />
    <glyph glyph-name="cacute" unicode="&#x107;" horiz-adv-x="1116" 
d="M426 1204l334 269h6l61 -76v-8l-354 -242h-8l-39 49v8zM627 -25q-232 0 -383 154q-152 155 -152 383t152 383q151 154 383 154q129 0 243 -53q110 -54 181 -144v-10l-62 -49h-10q-137 164 -350 163q-191 0 -312 -127q-122 -128 -122 -319q0 -189 122 -316
q121 -126 318 -126q217 0 344 163h10l62 -49v-10q-71 -91 -181 -143q-112 -54 -243 -54z" />
    <glyph glyph-name="Cdotaccent" unicode="&#x10a;" horiz-adv-x="1411" 
d="M797 1491q-39 0 -68 28.5t-29 65.5q0 39 29 67.5t68 28.5q37 0 65.5 -28.5t28.5 -67.5q0 -38 -28.5 -66t-65.5 -28zM795 -25q-296 0 -495 199q-200 200 -200 492q0 291 200 491q199 199 495 199q164 0 308 -68q142 -69 236 -190v-11l-67 -53h-10q-81 107 -203 166.5
t-264 59.5q-250 0 -420 -170t-170 -424q0 -251 170 -423q169 -171 420 -171q143 0 265 59t202 166h10l67 -53v-11q-95 -122 -236 -189q-143 -69 -308 -69z" />
    <glyph glyph-name="cdotaccent" unicode="&#x10b;" horiz-adv-x="1116" 
d="M696 1234q-28 -28 -69 -28t-69 28t-28 68.5t28 68.5t69 28t69 -28q27 -28 27 -68.5t-27 -68.5zM627 -25q-232 0 -383 154q-152 155 -152 383t152 383q151 154 383 154q129 0 243 -53q110 -54 181 -144v-10l-62 -49h-10q-137 164 -350 163q-191 0 -312 -127
q-122 -128 -122 -319q0 -189 122 -316q121 -126 318 -126q217 0 344 163h10l62 -49v-10q-71 -91 -181 -143q-112 -54 -243 -54z" />
    <glyph glyph-name="Ccaron" unicode="&#x10c;" horiz-adv-x="1411" 
d="M1108 1651l-305 -185h-12l-308 185v8l39 57h8l267 -143l266 143h6l39 -57v-8zM795 1260q-250 0 -420 -170t-170 -424q0 -251 170 -423q169 -171 420 -171q143 0 265 59t202 166h10l67 -53v-11q-95 -122 -236 -189q-143 -69 -308 -69q-296 0 -495 199q-200 200 -200 492
q0 291 200 491q199 199 495 199q164 0 308 -68q142 -69 236 -190v-11l-67 -53h-10q-81 107 -203 166.5t-264 59.5z" />
    <glyph glyph-name="ccaron" unicode="&#x10d;" horiz-adv-x="1116" 
d="M926 1333l-289 -186h-21l-288 186v8l45 56h6l248 -146l245 146h9l45 -56v-8zM629 956q-191 0 -312 -127q-122 -128 -122 -319q0 -189 122 -316q121 -126 318 -126q217 0 344 163h10l62 -49v-10q-71 -91 -181 -143q-112 -54 -243 -54q-232 0 -383 154q-152 155 -152 383
t152 383q151 154 383 154q129 0 243 -53q110 -54 181 -144v-10l-62 -49h-10q-136 163 -350 163z" />
    <glyph glyph-name="Dcaron" unicode="&#x10e;" horiz-adv-x="1478" 
d="M977 1651l-305 -185h-13l-307 185v8l39 57h8l267 -143l266 143h6l39 -57v-8zM201 1331h489q314 0 501 -182q185 -182 185 -481q0 -303 -185 -485q-185 -183 -501 -183h-489v1331zM305 92h385q266 0 423 157t157 417t-157 417q-157 156 -423 156h-385v-1147z" />
    <glyph glyph-name="dcaron" unicode="&#x10f;" horiz-adv-x="1294" 
d="M1305 1442h98l6 -8l-98 -349l-8 -8h-58l-6 8l57 349zM1022 838v546l92 13l10 -6v-1391h-102v193q-70 -102 -178 -160t-238 -58q-225 0 -369 155q-145 154 -145 382q0 229 145 383q144 154 369 154q268 0 416 -211zM614 68q180 0 299 122t119 322q0 203 -118 324
q-118 120 -298 120q-186 0 -303 -128q-118 -127 -118 -316q0 -188 117 -316q116 -128 302 -128z" />
    <glyph glyph-name="Dcroat" unicode="&#x110;" horiz-adv-x="1490" 
d="M213 1331h489q314 0 501 -182q186 -181 186 -481q0 -303 -185 -485q-186 -183 -502 -183h-489v625h-168v92h168v614zM317 92h385q266 0 423 157t157 417t-156 417q-158 156 -424 156h-385v-522h414v-92h-414v-533z" />
    <glyph glyph-name="dslash" unicode="&#x111;" horiz-adv-x="1296" 
d="M1124 1233h140v-82h-140v-1151h-100v195q-147 -218 -416 -220q-224 0 -370 155t-146 382t146 382t370 155q268 0 416 -211v313h-315v82h315v153l92 11l8 -8v-156zM616 68q180 0 299 122t119 322q0 203 -118 324q-118 120 -300 120q-186 0 -302 -128q-117 -128 -117 -316
t117 -316q116 -128 302 -128z" />
    <glyph glyph-name="Emacron" unicode="&#x112;" horiz-adv-x="1153" 
d="M352 1505v84h561v-84h-561zM1063 1331v-92h-758v-520h602v-92h-602v-535h758v-92h-862v1331h862z" />
    <glyph glyph-name="emacron" unicode="&#x113;" horiz-adv-x="1179" 
d="M322 1317h552v-88h-552v88zM1094 479h-897q12 -186 133 -298q122 -113 291 -113q105 0 212 48q106 49 164 130h11l61 -51v-11q-71 -98 -193 -153q-122 -56 -253 -56q-219 0 -374 147q-155 146 -155 388q0 230 144 385q142 154 364 154q240 0 375 -179q121 -142 121 -346
q0 -22 -4 -45zM602 956q-168 0 -278 -105q-112 -107 -125 -278h794q-12 134 -82 226q-103 157 -309 157z" />
    <glyph glyph-name="Edotaccent" unicode="&#x116;" horiz-adv-x="1153" 
d="M633 1491q-39 0 -67.5 28.5t-28.5 65.5q0 39 28.5 67.5t67.5 28.5q37 0 65.5 -28.5t28.5 -67.5q0 -38 -28.5 -66t-65.5 -28zM1063 1331v-92h-758v-520h602v-92h-602v-535h758v-92h-862v1331h862z" />
    <glyph glyph-name="edotaccent" unicode="&#x117;" horiz-adv-x="1179" 
d="M667 1234q-28 -28 -69 -28t-68 28q-28 28 -28 68.5t28 68.5q27 28 68 28t69 -28q27 -28 27 -68.5t-27 -68.5zM1094 479h-897q12 -186 133 -298q122 -113 291 -113q105 0 212 48q106 49 164 130h11l61 -51v-11q-71 -98 -193 -153q-122 -56 -253 -56q-219 0 -374 147
q-155 146 -155 388q0 230 144 385q142 154 364 154q240 0 375 -179q121 -142 121 -346q0 -22 -4 -45zM602 956q-168 0 -278 -105q-112 -107 -125 -278h794q-12 134 -82 226q-103 157 -309 157z" />
    <glyph glyph-name="Eogonek" unicode="&#x118;" horiz-adv-x="1153" 
d="M1163 -283l8 -2l27 -51l-2 -10q-65 -37 -149 -37q-90 0 -145.5 49.5t-55.5 130.5q0 111 102 203h-747v1331h862v-92h-758v-520h602v-92h-602v-535h758v-92l-21 -16q-23 -16 -68 -68q-40 -46 -40 -109q0 -51 35 -82.5t94 -31.5q43 0 100 24z" />
    <glyph glyph-name="eogonek" unicode="&#x119;" horiz-adv-x="1179" 
d="M1094 479h-897q12 -186 133 -298q122 -113 291 -113q105 0 212 48q106 49 164 130h11l61 -51v-11q-80 -113 -233 -170q-125 -92 -125 -188q0 -52 35 -83.5t94 -31.5q44 0 100 25l8 -2l27 -51l-2 -11q-65 -37 -150 -37q-90 0 -145 49.5t-55 131.5q0 85 65 164l-65 -5
q-219 0 -374 147q-155 146 -155 388q0 230 144 385q142 154 364 154q240 0 375 -179q121 -142 121 -346q0 -22 -4 -45zM602 956q-168 0 -278 -105q-112 -107 -125 -278h794q-12 134 -82 226q-103 157 -309 157z" />
    <glyph glyph-name="Ecaron" unicode="&#x11a;" horiz-adv-x="1153" 
d="M944 1651l-305 -185h-12l-308 185v8l39 57h9l266 -143l266 143h6l39 -57v-8zM1063 1331v-92h-758v-520h602v-92h-602v-535h758v-92h-862v1331h862z" />
    <glyph glyph-name="ecaron" unicode="&#x11b;" horiz-adv-x="1179" 
d="M897 1333l-289 -186h-20l-289 186v8l45 56h6l248 -146l246 146h8l45 -56v-8zM1094 479h-897q12 -186 133 -298q122 -113 291 -113q105 0 212 48q106 49 164 130h11l61 -51v-11q-71 -98 -193 -153q-122 -56 -253 -56q-219 0 -374 147q-155 146 -155 388q0 230 144 385
q142 154 364 154q240 0 375 -179q121 -142 121 -346q0 -22 -4 -45zM602 956q-168 0 -278 -105q-112 -107 -125 -278h794q-12 134 -82 226q-103 157 -309 157z" />
    <glyph glyph-name="Gbreve" unicode="&#x11e;" horiz-adv-x="1517" 
d="M784 1448q-101 0 -180 71t-92 183h92q12 -78 60.5 -124t120.5 -46q71 0 120 46t62 124h90q-13 -111 -91 -183q-79 -71 -182 -71zM1436 696l10 -8q4 -16 4 -49q0 -269 -182 -459q-195 -205 -488 -205q-289 0 -484 198q-196 197 -196 493q0 295 198 493q199 197 486 197
q159 0 300 -67q139 -66 235 -187v-8l-72 -60h-8q-79 103 -200 165q-121 61 -257 61q-242 0 -409 -170q-168 -169 -168 -424t166 -424q167 -170 407 -170q252 0 418 178q144 151 145 354h-555v92h650z" />
    <glyph glyph-name="gbreve" unicode="&#x11f;" horiz-adv-x="1243" 
d="M801 1243q-78 -69 -190 -69q-114 0 -191 70q-79 69 -92 183h90q14 -78 67 -125t126 -47t125 47t67 125h90q-13 -114 -92 -184zM975 854v170h98v-885q0 -225 -136 -346t-349 -121q-146 0 -267 60q-123 62 -194 166v10l63 53h9q134 -197 391 -197q175 0 278 97t103 276v150
q-136 -189 -389 -191q-210 0 -349 137q-139 136 -139 339q0 202 140 340q140 137 350 137q256 0 391 -195zM307 296q107 -108 279 -108t281 109q108 109 108 275t-109 275t-280 109q-170 0 -278 -109q-109 -109 -109 -276q0 -169 108 -275z" />
    <glyph glyph-name="Gdotaccent" unicode="&#x120;" horiz-adv-x="1517" 
d="M786 1491q-39 0 -67.5 28.5t-28.5 65.5q0 39 29 67.5t67 28.5q37 0 66 -28.5t29 -67.5q0 -38 -29 -66t-66 -28zM1436 696l10 -8q4 -16 4 -49q0 -269 -182 -459q-195 -205 -488 -205q-289 0 -484 198q-196 197 -196 493q0 295 198 493q199 197 486 197q159 0 300 -67
q139 -66 235 -187v-8l-72 -60h-8q-79 103 -200 165q-121 61 -257 61q-242 0 -409 -170q-168 -169 -168 -424t166 -424q167 -170 407 -170q252 0 418 178q144 151 145 354h-555v92h650z" />
    <glyph glyph-name="gdotaccent" unicode="&#x121;" horiz-adv-x="1243" 
d="M679 1234q-28 -28 -69 -28t-68 28q-28 28 -28 68.5t28 68.5q27 28 68 28t69 -28t28 -68.5t-28 -68.5zM975 854v170h98v-885q0 -225 -136 -346t-349 -121q-146 0 -267 60q-123 62 -194 166v10l63 53h9q134 -197 391 -197q175 0 278 97t103 276v150q-136 -189 -389 -191
q-210 0 -349 137q-139 136 -139 339q0 202 140 340q140 137 350 137q256 0 391 -195zM307 296q107 -108 279 -108t281 109q108 109 108 275t-109 275t-280 109q-170 0 -278 -109q-109 -109 -109 -276q0 -169 108 -275z" />
    <glyph glyph-name="uni0122" unicode="&#x122;" horiz-adv-x="1517" 
d="M1436 696l10 -8q4 -16 4 -49q0 -269 -182 -459q-195 -205 -488 -205q-289 0 -484 198q-196 197 -196 493q0 295 198 493q199 197 486 197q159 0 300 -67q139 -66 235 -187v-8l-72 -60h-8q-79 103 -200 165q-121 61 -257 61q-242 0 -409 -170q-168 -169 -168 -424
t166 -424q167 -170 407 -170q252 0 418 178q144 151 145 354h-555v92h650zM676 -416l49 305l8 9h94l4 -9l-86 -305l-10 -8h-53z" />
    <glyph glyph-name="uni0123" unicode="&#x123;" horiz-adv-x="1243" 
d="M664 1159l-9 -8h-94l-4 8l86 305l10 9h54l6 -9zM975 854v170h98v-885q0 -225 -136 -346t-349 -121q-146 0 -267 60q-123 62 -194 166v10l63 53h9q134 -197 391 -197q175 0 278 97t103 276v150q-136 -189 -389 -191q-210 0 -349 137q-139 136 -139 339q0 202 140 340
q140 137 350 137q256 0 391 -195zM307 296q107 -108 279 -108t281 109q108 109 108 275t-109 275t-280 109q-170 0 -278 -109q-109 -109 -109 -276q0 -169 108 -275z" />
    <glyph glyph-name="Hbar" unicode="&#x126;" horiz-adv-x="1447" 
d="M1245 1042h119v-81h-119v-963h-102v627h-836v-627h-104v963h-119v81h119v287h104v-287h836v287h102v-287zM307 717h836v244h-836v-244z" />
    <glyph glyph-name="hbar" unicode="&#x127;" horiz-adv-x="1206" 
d="M635 1049q186 0 300 -115q114 -116 114 -301v-633h-101v625q0 151 -89 242q-89 89 -238 89q-153 0 -251 -95t-98 -245v-616h-100v1133h-143v81h143v170l90 13l10 -6v-177h312v-81h-312v-269q117 185 363 185z" />
    <glyph glyph-name="Itilde" unicode="&#x128;" horiz-adv-x="505" 
d="M379 1499q-47 0 -125 37t-127 37q-78 0 -104 -74h-5l-8 6v86q27 74 121 74q50 0 133 -37t121 -37q75 0 104 72h5l8 -6v-86q-33 -72 -123 -72zM201 0v1331h104v-1331h-104z" />
    <glyph glyph-name="itilde" unicode="&#x129;" horiz-adv-x="454" 
d="M356 1225q-42 0 -124 35q-81 34 -132 34q-94 0 -120 -69h-7l-4 6v84q14 32 50.5 51.5t80.5 19.5q46 0 133 -35q85 -36 123 -36q92 0 121 69h6l4 -4v-84q-29 -71 -131 -71zM276 0h-100v1024h100v-1024z" />
    <glyph glyph-name="Imacron" unicode="&#x12a;" horiz-adv-x="505" 
d="M0 1505v84h506v-84h-506zM201 0v1331h104v-1331h-104z" />
    <glyph glyph-name="imacron" unicode="&#x12b;" horiz-adv-x="454" 
d="M-23 1229v88h498v-88h-498zM276 0h-100v1024h100v-1024z" />
    <glyph glyph-name="Iogonek" unicode="&#x12e;" horiz-adv-x="505" 
d="M406 -283l8 -2l26 -51l-2 -10q-65 -37 -149 -37q-90 0 -145.5 49.5t-55.5 130.5q0 113 113 211v1323h104v-1331l-20 -16q-23 -16 -68 -68q-41 -47 -41 -109q0 -51 35 -82.5t94 -31.5q43 0 101 24z" />
    <glyph glyph-name="iogonek" unicode="&#x12f;" horiz-adv-x="454" 
d="M295 1234q-29 -28 -68 -28t-67 28t-28 68.5t28 68.5t67 28t68 -28t29 -68.5t-29 -68.5zM377 -283l8 -2l27 -51l-2 -10q-65 -37 -150 -37q-90 0 -145.5 49.5t-55.5 130.5q0 119 117 215v1012h100v-1024l-20 -16q-23 -16 -68 -68q-41 -47 -41 -109q0 -51 35 -82.5t94 -31.5
q42 0 101 24z" />
    <glyph glyph-name="Idot" unicode="&#x130;" horiz-adv-x="505" 
d="M254 1491q-39 0 -67.5 28.5t-28.5 65.5q0 39 28.5 67.5t67.5 28.5q37 0 65.5 -28.5t28.5 -67.5q0 -38 -28.5 -66t-65.5 -28zM201 0v1331h104v-1331h-104z" />
    <glyph glyph-name="dotlessi" unicode="&#x131;" horiz-adv-x="454" 
d="M276 0h-100v1024h100v-1024z" />
    <glyph glyph-name="IJ" unicode="&#x132;" horiz-adv-x="1363" 
d="M201 0v1331h104v-1331h-104zM1075 373v958h105v-960q0 -183 -111 -290q-110 -106 -274 -106q-255 0 -385 201v10l69 58h10q111 -172 302 -172q123 0 204 82q80 83 80 219z" />
    <glyph glyph-name="ij" unicode="&#x133;" horiz-adv-x="874" 
d="M295 1234q-29 -28 -68 -28t-67 28t-28 68.5t28 68.5t67 28t68 -28t29 -68.5t-29 -68.5zM721 1234q-29 -28 -68 -28t-67 28t-28 68.5t28 68.5t67 28t68 -28t29 -68.5t-29 -68.5zM276 0h-100v1024h100v-1024zM508 -328h-10l-37 72v8q74 43 107.5 99t33.5 149v1024h100
v-1012q0 -132 -48 -209q-48 -75 -146 -131z" />
    <glyph glyph-name="uni0136" unicode="&#x136;" horiz-adv-x="1185" 
d="M1159 1331l6 -10l-604 -588l600 -723l-6 -10h-119l-549 659l-182 -178v-481h-104v1331h104v-719l731 719h123zM600 -111l8 9h94l5 -9l-86 -305l-11 -8h-53l-6 8z" />
    <glyph glyph-name="uni0137" unicode="&#x137;" horiz-adv-x="997" 
d="M967 1014l-447 -443l463 -561l-6 -10h-111l-413 502l-181 -178v-324h-100v1384l90 13l10 -6v-936l574 569h115zM508 -111l8 9h94l4 -9l-86 -305l-10 -8h-53l-6 8z" />
    <glyph glyph-name="kgreenlandic" unicode="&#x138;" horiz-adv-x="997" 
d="M967 1014l-447 -443l463 -561l-6 -10h-111l-413 502l-181 -178v-324h-100v1024h100v-569l574 569h115z" />
    <glyph glyph-name="Lacute" unicode="&#x139;" horiz-adv-x="1019" 
d="M45 1509l363 236h8l51 -80v-6l-379 -209h-8l-35 51v8zM305 92h684v-92h-788v1331h104v-1239z" />
    <glyph glyph-name="lacute" unicode="&#x13a;" horiz-adv-x="454" 
d="M2 1511l363 236h8l51 -80v-6l-379 -209h-8l-35 51v8zM276 0h-100v1384l92 13l8 -6v-1391z" />
    <glyph glyph-name="uni013B" unicode="&#x13b;" horiz-adv-x="1019" 
d="M305 92h684v-92h-788v1331h104v-1239zM492 -416l49 305l8 9h94l4 -9l-86 -305l-10 -8h-53z" />
    <glyph glyph-name="uni013C" unicode="&#x13c;" horiz-adv-x="454" 
d="M276 0h-100v1384l92 13l8 -6v-1391zM125 -416l49 305l8 9h94l5 -9l-86 -305l-11 -8h-53z" />
    <glyph glyph-name="Lcaron" unicode="&#x13d;" horiz-adv-x="1021" 
d="M535 1094l57 348l8 8h98l7 -8l-99 -348l-8 -9h-57zM305 92h684v-92h-788v1331h104v-1239z" />
    <glyph glyph-name="lcaron" unicode="&#x13e;" horiz-adv-x="448" 
d="M401 1085l58 349l8 8h98l6 -8l-98 -349l-8 -8h-57zM276 0h-100v1384l92 13l8 -6v-1391z" />
    <glyph glyph-name="Ldot" unicode="&#x13f;" horiz-adv-x="1028" 
d="M305 92h684v-92h-788v1331h104v-1239zM790 608q-28 -28 -69 -28t-68 28q-28 27 -28 68q0 39 28.5 66.5t67.5 27.5t67.5 -27.5t28.5 -66.5q0 -41 -27 -68z" />
    <glyph glyph-name="ldot" unicode="&#x140;" horiz-adv-x="481" 
d="M276 0h-100v1384l92 13l8 -6v-1391zM514 649q-29 -28 -67.5 -28t-67.5 28q-29 27 -29 66t28 68t68.5 29t68.5 -29t28 -68t-29 -66z" />
    <glyph glyph-name="Lslash" unicode="&#x141;" horiz-adv-x="1064" 
d="M350 571v-479h684v-92h-788v520l-203 -100l-8 6v80l211 104v721h104v-669l273 135l10 -6v-80z" />
    <glyph glyph-name="lslash" unicode="&#x142;" horiz-adv-x="583" 
d="M516 866l8 -6v-80l-180 -92v-688h-100v637l-174 -90l-9 6v80l183 94v657l90 13l10 -6v-613z" />
    <glyph glyph-name="Nacute" unicode="&#x143;" horiz-adv-x="1443" 
d="M944 1659l-379 -209h-8l-35 51v8l363 236h8l51 -80v-6zM1141 182v1149h102v-1351h-55l-885 1146v-1126h-102v1331h55z" />
    <glyph glyph-name="nacute" unicode="&#x144;" horiz-adv-x="1206" 
d="M834 1389l-355 -242h-8l-39 49v8l334 269h6l62 -76v-8zM635 1049q188 0 302 -115q114 -116 114 -301v-633h-103v625q0 149 -89 241q-89 90 -236 90q-153 0 -251 -95t-98 -245v-616h-102v1024h96v-166q117 191 367 191z" />
    <glyph glyph-name="uni0145" unicode="&#x145;" horiz-adv-x="1443" 
d="M1141 182v1149h102v-1351h-55l-885 1146v-1126h-102v1331h55zM670 -111l8 9h94l4 -9l-86 -305l-10 -8h-53l-6 8z" />
    <glyph glyph-name="uni0146" unicode="&#x146;" horiz-adv-x="1206" 
d="M635 1049q188 0 302 -115q114 -116 114 -301v-633h-103v625q0 149 -89 241q-89 90 -236 90q-153 0 -251 -95t-98 -245v-616h-102v1024h96v-166q117 191 367 191zM559 -111l8 9h95l4 -9l-86 -305l-11 -8h-53l-6 8z" />
    <glyph glyph-name="Ncaron" unicode="&#x147;" horiz-adv-x="1443" 
d="M1034 1651l-305 -185h-12l-307 185v8l39 57h8l266 -143l266 143h6l39 -57v-8zM1141 182v1149h102v-1351h-55l-885 1146v-1126h-102v1331h55z" />
    <glyph glyph-name="ncaron" unicode="&#x148;" horiz-adv-x="1206" 
d="M932 1333l-289 -186h-20l-289 186v8l45 56h6l248 -146l246 146h8l45 -56v-8zM635 1049q188 0 302 -115q114 -116 114 -301v-633h-103v625q0 149 -89 241q-89 90 -236 90q-153 0 -251 -95t-98 -245v-616h-102v1024h96v-166q117 191 367 191z" />
    <glyph glyph-name="napostrophe" unicode="&#x149;" horiz-adv-x="1200" 
d="M297 1466l-98 -313l-9 -6h-57l-6 6l57 313l9 7h98zM629 1049q186 0 300 -115q113 -116 113 -301v-633h-100v625q0 149 -90 241q-90 90 -238 90q-153 0 -251 -95q-97 -94 -97 -245v-616h-102v1024h98v-166q117 191 367 191z" />
    <glyph glyph-name="Eng" unicode="&#x14a;" horiz-adv-x="1443" 
d="M1141 180v1151h102v-1403q0 -154 -99 -247q-100 -93 -247 -93q-104 0 -191 43q-90 44 -135 115v10l64 54h10q39 -58 109 -93.5t147 -35.5q109 0 176 70q66 71 66 186v98l-840 1095v-1130h-102v1331h55z" />
    <glyph glyph-name="eng" unicode="&#x14b;" horiz-adv-x="1206" 
d="M635 1049q188 0 302 -115q114 -116 114 -301v-580q0 -135 -51 -220t-154 -140h-10l-39 71v11q78 39 113.5 102t37.5 168v580q0 149 -89 241q-89 90 -236 90q-153 0 -251 -95t-98 -245v-616h-102v1024h96v-166q117 191 367 191z" />
    <glyph glyph-name="Omacron" unicode="&#x14c;" 
d="M522 1505v84h561v-84h-561zM1305 173q-201 -198 -502 -198t-502 198t-201 493t201 493q202 197 502 197t502 -197q200 -198 200 -493t-200 -493zM803 72q253 0 425 170q171 170 171 424t-171 424q-172 170 -425 170q-255 0 -427 -170q-171 -170 -171 -424t171 -424
q172 -170 427 -170z" />
    <glyph glyph-name="omacron" unicode="&#x14d;" horiz-adv-x="1267" 
d="M358 1229v88h553v-88h-553zM1023 130q-155 -155 -388 -155t-388 155t-155 382t155 382t388 155t388 -155t155 -382t-155 -382zM320 195q124 -127 315 -127q190 0 314 127t124 317t-124 317t-314 127q-191 0 -315 -127q-125 -128 -125 -317t125 -317z" />
    <glyph glyph-name="Ohungarumlaut" unicode="&#x150;" 
d="M594 1456l168 303h108l7 -10l-201 -301h-78zM858 1456l170 303h109l4 -10l-201 -301h-78zM1305 173q-201 -198 -502 -198t-502 198t-201 493t201 493q202 197 502 197t502 -197q200 -198 200 -493t-200 -493zM803 72q253 0 425 170q171 170 171 424t-171 424
q-172 170 -425 170q-255 0 -427 -170q-171 -170 -171 -424t171 -424q172 -170 427 -170z" />
    <glyph glyph-name="ohungarumlaut" unicode="&#x151;" horiz-adv-x="1267" 
d="M449 1153l137 313l8 7h102l6 -7l-180 -313l-8 -8h-59zM692 1153l137 313l11 7h102l4 -7l-180 -313l-8 -8h-60zM1023 130q-155 -155 -388 -155t-388 155t-155 382t155 382t388 155t388 -155t155 -382t-155 -382zM320 195q124 -127 315 -127q190 0 314 127t124 317
t-124 317t-314 127q-191 0 -315 -127q-125 -128 -125 -317t125 -317z" />
    <glyph glyph-name="OE" unicode="&#x152;" horiz-adv-x="2351" 
d="M2261 1331v-92h-758v-518v-2h602v-92h-600q-2 -8 -2 -17v-518h758v-92h-862v291q-95 -147 -250 -231q-155 -85 -346 -85q-301 0 -502 198t-201 493t201 493q202 197 502 197q190 0 346 -84t250 -232v291h862zM803 72q253 0 425 170q171 170 171 424t-171 424
q-172 170 -425 170q-255 0 -427 -170q-171 -170 -171 -424t171 -424q172 -170 427 -170z" />
    <glyph glyph-name="oe" unicode="&#x153;" horiz-adv-x="2158" 
d="M2077 524q0 -7 -1 -24.5t-1 -20.5h-897q11 -186 131 -298q122 -113 290 -113q109 0 213 48q103 48 164 130h11l61 -51v-11q-71 -98 -193 -153q-122 -56 -253 -56q-154 0 -284 79q-129 79 -194 216q-66 -136 -195 -215q-131 -80 -294 -80q-233 0 -388 155t-155 382
t155 382t388 155q163 0 294 -81t195 -216q45 104 131 178q136 119 326 119q244 0 383 -181q113 -146 113 -344zM320 195q124 -127 315 -127q190 0 314 127t124 317t-124 317t-314 127q-191 0 -315 -127q-125 -128 -125 -317t125 -317zM1180 567h794q-6 142 -86 246
q-107 143 -307 143q-165 0 -274 -106q-115 -105 -127 -283z" />
    <glyph glyph-name="Racute" unicode="&#x154;" horiz-adv-x="1245" 
d="M815 1659l-379 -209h-8l-35 51v8l363 236h8l51 -80v-6zM1139 956q0 -145 -81 -240t-231 -124l301 -582l-6 -10h-100l-301 580h-27h-389v-580h-104v1331h493q209 0 327 -100t118 -275zM305 1239v-569h412q144 0 230 80q85 79 85 206t-85 205t-230 78h-412z" />
    <glyph glyph-name="racute" unicode="&#x155;" horiz-adv-x="698" 
d="M635 1389l-354 -242h-9l-39 49v8l334 269h6l62 -76v-8zM690 1020l4 -8l-35 -78l-8 -4q-41 26 -104 24q-116 0 -195 -103q-80 -104 -80 -263v-588h-100v1024h96v-174q96 199 293 199q73 0 129 -29z" />
    <glyph glyph-name="uni0156" unicode="&#x156;" horiz-adv-x="1245" 
d="M1139 956q0 -145 -81 -240t-231 -124l301 -582l-6 -10h-100l-301 580h-27h-389v-580h-104v1331h493q209 0 327 -100t118 -275zM305 1239v-569h412q144 0 230 80q85 79 85 206t-85 205t-230 78h-412zM571 -111l9 9h94l4 -9l-86 -305l-10 -8h-54l-6 8z" />
    <glyph glyph-name="uni0157" unicode="&#x157;" horiz-adv-x="698" 
d="M690 1020l4 -8l-35 -78l-8 -4q-41 26 -104 24q-116 0 -195 -103q-80 -104 -80 -263v-588h-100v1024h96v-174q96 199 293 199q73 0 129 -29zM168 -111l8 9h94l4 -9l-86 -305l-10 -8h-53l-6 8z" />
    <glyph glyph-name="Rcaron" unicode="&#x158;" horiz-adv-x="1245" 
d="M905 1651l-305 -185h-12l-307 185v8l38 57h9l266 -143l266 143h6l39 -57v-8zM1139 956q0 -145 -81 -240t-231 -124l301 -582l-6 -10h-100l-301 580h-27h-389v-580h-104v1331h493q209 0 327 -100t118 -275zM305 1239v-569h412q144 0 230 80q85 79 85 206t-85 205t-230 78
h-412z" />
    <glyph glyph-name="rcaron" unicode="&#x159;" horiz-adv-x="698" 
d="M682 1397h8l45 -56v-8l-289 -186h-20l-289 186v8l45 56h6l248 -146zM561 1049q73 0 129 -29l4 -8l-35 -78l-8 -4q-41 26 -104 24q-116 0 -195 -103q-80 -104 -80 -263v-588h-100v1024h96v-174q96 199 293 199z" />
    <glyph glyph-name="Sacute" unicode="&#x15a;" horiz-adv-x="1087" 
d="M358 1509l363 236h8l51 -80v-6l-379 -209h-8l-35 51v8zM563 -25q-150 0 -285 69t-212 185v11l67 55h10q72 -102 184 -162q110 -61 228 -61q149 0 243 74q93 74 93 188q0 88 -61 157q-20 23 -74 53q-54 28 -83 41q-12 5 -103 40q-69 24 -103 39q-30 12 -94 40
q-29 13 -86 49q-50 32 -78 64q-70 79 -70 197q0 150 115 246q116 96 299 96q258 0 405 -189v-10l-63 -59h-10q-127 162 -332 162q-135 0 -220 -67t-85 -171q0 -97 68 -153q70 -57 206 -113q17 -6 82 -29q81 -31 86 -33l77 -35q50 -24 76 -41q85 -61 113 -111q41 -77 41 -167
q0 -164 -120 -264q-122 -101 -314 -101z" />
    <glyph glyph-name="sacute" unicode="&#x15b;" horiz-adv-x="872" 
d="M246 1204l334 269h6l61 -76v-8l-354 -242h-8l-39 49v8zM432 -25q-242 0 -373 189v10l64 49h10q43 -72 121 -113.5t172 -41.5q116 0 186 51t70 137q0 64 -53 128q-20 24 -65 48q-43 24 -69 34q-31 12 -85 34q-29 11 -31 12q-109 47 -173 98q-81 64 -81 172q0 120 90 193
q91 74 231 74q100 0 187 -45q85 -46 135 -123v-11l-63 -49h-9q-92 135 -254 135q-96 0 -155.5 -45t-59.5 -120q0 -65 46.5 -107t152.5 -88q186 -77 240 -115q119 -85 118 -225q0 -128 -97 -204q-98 -77 -255 -77z" />
    <glyph glyph-name="Scedilla" unicode="&#x15e;" horiz-adv-x="1087" 
d="M997 340q0 -156 -110 -255q-112 -100 -289 -110l-18 -77q104 2 156.5 -36.5t51.5 -117.5q0 -76 -58 -122t-157 -46q-115 0 -200 64v10l39 55h10q66 -51 145 -51q123 0 123 88q0 57 -65 75q-65 19 -142 1l-30 18l41 144q-132 17 -246 82q-113 63 -182 167v11l67 55h10
q72 -102 184 -162q110 -61 228 -61q149 0 243 74q93 74 93 188q0 88 -61 157q-20 23 -74 53q-54 28 -83 41q-12 5 -103 40q-69 24 -103 39q-30 12 -94 40q-29 13 -86 49q-50 32 -78 64q-70 79 -70 197q0 150 115 246q116 96 299 96q258 0 405 -189v-10l-63 -59h-10
q-127 162 -332 162q-135 0 -220 -67t-85 -171q0 -97 68 -153q70 -57 206 -113q17 -6 82 -29q81 -31 86 -33l77 -35q50 -24 76 -41q85 -61 113 -111q41 -77 41 -167z" />
    <glyph glyph-name="scedilla" unicode="&#x15f;" horiz-adv-x="872" 
d="M784 256q0 -117 -83 -191q-82 -74 -222 -88l-18 -79q209 5 209 -154q0 -76 -58.5 -122t-156.5 -46q-116 0 -201 64v10l39 55h10q66 -51 146 -51q62 0 92.5 22t29.5 66q0 57 -65 75q-65 19 -141 1l-31 18l41 141q-204 26 -316 187v10l64 49h10q43 -72 121 -113.5
t172 -41.5q116 0 186 51t70 137q0 64 -53 128q-20 24 -65 48q-43 24 -69 34q-31 12 -85 34q-29 11 -31 12q-109 47 -173 98q-81 64 -81 172q0 120 90 193q91 74 231 74q100 0 187 -45q85 -46 135 -123v-11l-63 -49h-9q-92 135 -254 135q-96 0 -155.5 -45t-59.5 -120
q0 -65 46.5 -107t152.5 -88q186 -77 240 -115q118 -84 118 -225z" />
    <glyph glyph-name="Scaron" unicode="&#x160;" horiz-adv-x="1087" 
d="M868 1651l-305 -185h-12l-307 185v8l39 57h8l266 -143l266 143h6l39 -57v-8zM522 756q17 -6 82 -29q81 -31 86 -33l77 -35q50 -24 76 -41q85 -61 113 -111q41 -77 41 -167q0 -164 -120 -264q-122 -101 -314 -101q-150 0 -285 69t-212 185v11l67 55h10q72 -102 184 -162
q110 -61 228 -61q149 0 243 74q93 74 93 188q0 88 -61 157q-20 23 -74 53q-54 28 -83 41q-12 5 -103 40q-69 24 -103 39q-30 12 -94 40q-29 13 -86 49q-50 32 -78 64q-70 79 -70 197q0 150 115 246q116 96 299 96q258 0 405 -189v-10l-63 -59h-10q-127 162 -332 162
q-135 0 -220 -67t-85 -171q0 -97 68 -153q70 -57 206 -113z" />
    <glyph glyph-name="scaron" unicode="&#x161;" horiz-adv-x="872" 
d="M745 1333l-288 -186h-21l-289 186v8l46 56h6l247 -146l246 146h8l45 -56v-8zM426 596q186 -77 240 -115q119 -85 118 -225q0 -128 -97 -204q-98 -77 -255 -77q-242 0 -373 189v10l64 49h10q43 -72 121 -113.5t172 -41.5q116 0 186 51t70 137q0 64 -53 128q-20 24 -65 48
q-43 24 -69 34q-31 12 -85 34q-29 11 -31 12q-109 47 -173 98q-81 64 -81 172q0 120 90 193q91 74 231 74q100 0 187 -45q85 -46 135 -123v-11l-63 -49h-9q-92 135 -254 135q-96 0 -155.5 -45t-59.5 -120q0 -65 46.5 -107t152.5 -88z" />
    <glyph glyph-name="uni0162" unicode="&#x162;" horiz-adv-x="1075" 
d="M588 1239v-1239l-25 -102q209 5 209 -154q0 -76 -58.5 -122t-156.5 -46q-116 0 -201 64v10l39 55h11q66 -51 145 -51q123 0 123 88q0 57 -65 75q-65 19 -142 1l-31 18l47 164v1239h-454v92h1018v-92h-459z" />
    <glyph glyph-name="uni0163" unicode="&#x163;" horiz-adv-x="694" 
d="M496 -25l-19 -77q209 5 209 -154q0 -76 -58.5 -122t-156.5 -46q-116 0 -201 64v10l39 55h10q66 -51 146 -51q123 0 123 88q0 57 -65 75q-65 19 -142 1l-31 18l45 154q-180 58 -180 291v655h-180v88h180v319l92 13l8 -6v-326h332v-88h-332v-653q0 -215 189 -215
q88 0 137 49l10 -2l35 -66l-4 -10q-77 -62 -184 -64h-2z" />
    <glyph glyph-name="Tcaron" unicode="&#x164;" horiz-adv-x="1075" 
d="M848 1651l-305 -185h-13l-307 185v8l39 57h8l267 -143l266 143h6l39 -57v-8zM29 1239v92h1018v-92h-459v-1239h-105v1239h-454z" />
    <glyph glyph-name="tcaron" unicode="&#x165;" horiz-adv-x="694" 
d="M492 1133l-9 -9h-57l-6 9l57 348l8 8h99l6 -8zM641 117l10 -2l35 -66l-4 -10q-77 -62 -184 -64q-134 0 -208.5 79.5t-74.5 226.5v655h-180v88h180v319l92 13l8 -6v-326h332v-88h-332v-653q0 -215 189 -215q88 0 137 49z" />
    <glyph glyph-name="Tbar" unicode="&#x166;" horiz-adv-x="1095" 
d="M1057 1331v-92h-459v-530h227v-82h-227v-627h-104v627h-224v82h224v530h-455v92h1018z" />
    <glyph glyph-name="tbar" unicode="&#x167;" horiz-adv-x="714" 
d="M657 117l11 -2l34 -66l-4 -10q-77 -62 -184 -64q-134 0 -208.5 79.5t-74.5 226.5v227h-180v82h180v346h-180v88h180v319l93 13l8 -6v-326h332v-88h-332v-346h274v-82h-274v-225q0 -215 188 -215q88 0 137 49z" />
    <glyph glyph-name="Utilde" unicode="&#x168;" horiz-adv-x="1452" 
d="M879 1499q-56 0 -152 37t-156 37q-98 0 -127 -74h-6l-10 6v86q38 74 150 74q60 0 161 -37q99 -37 146 -37q95 0 127 72h6l10 -6v-86q-38 -72 -149 -72zM182 520v811h105v-807q0 -206 121 -328q120 -124 319 -124t320 124q120 123 120 328v807h103v-811q0 -246 -149 -395
q-150 -150 -394 -150q-247 0 -395 150q-150 149 -150 395z" />
    <glyph glyph-name="utilde" unicode="&#x169;" horiz-adv-x="1181" 
d="M305 1225h-6l-6 6v84q16 30 58 50.5t87 20.5q54 0 151 -35q94 -36 134 -36q103 0 135 69h6l6 -4v-84q-35 -72 -147 -71q-46 0 -137 35q-89 34 -146 34q-104 2 -135 -69zM907 408v616h103v-1024h-97v164q-116 -188 -358 -189q-176 0 -287 115q-112 115 -112 301v633h102
v-633q0 -145 87 -234t222 -89q154 0 247 95t93 245z" />
    <glyph glyph-name="Umacron" unicode="&#x16a;" horiz-adv-x="1452" 
d="M446 1505v84h562v-84h-562zM182 520v811h105v-807q0 -206 121 -328q120 -124 319 -124t320 124q120 123 120 328v807h103v-811q0 -246 -149 -395q-150 -150 -394 -150q-247 0 -395 150q-150 149 -150 395z" />
    <glyph glyph-name="umacron" unicode="&#x16b;" horiz-adv-x="1181" 
d="M305 1317h553v-88h-553v88zM907 408v616h103v-1024h-97v164q-116 -188 -358 -189q-176 0 -287 115q-112 115 -112 301v633h102v-633q0 -145 87 -234t222 -89q154 0 247 95t93 245z" />
    <glyph glyph-name="Uring" unicode="&#x16e;" horiz-adv-x="1452" 
d="M858 1492q-52 -52 -131 -52t-131 52q-53 53 -53 128t53 128q52 52 131 52t131 -52q53 -53 53 -128t-53 -128zM652 1544q30 -33 75 -33t76 33t31 76.5t-30 74.5t-77 31q-48 0 -76 -31q-30 -31 -30 -74.5t31 -76.5zM182 520v811h105v-807q0 -206 121 -328
q120 -124 319 -124t320 124q120 123 120 328v807h103v-811q0 -246 -149 -395q-150 -150 -394 -150q-247 0 -395 150q-150 149 -150 395z" />
    <glyph glyph-name="uring" unicode="&#x16f;" horiz-adv-x="1181" 
d="M582 1130q-77 0 -132 53q-55 52 -55 128t55 128q53 52 132 52q81 0 133 -52q53 -53 53 -128t-53 -128t-133 -53zM582 1413q-44 0 -73.5 -30t-29.5 -72t29.5 -72.5t73.5 -30.5q46 0 74 29.5t28 73.5t-28 73t-74 29zM907 408v616h103v-1024h-97v164q-116 -188 -358 -189
q-176 0 -287 115q-112 115 -112 301v633h102v-633q0 -145 87 -234t222 -89q154 0 247 95t93 245z" />
    <glyph glyph-name="Uhungarumlaut" unicode="&#x170;" horiz-adv-x="1452" 
d="M518 1456l168 303h109l6 -10l-201 -301h-78zM782 1456l170 303h109l4 -10l-201 -301h-78zM182 520v811h105v-807q0 -206 121 -328q120 -124 319 -124t320 124q120 123 120 328v807h103v-811q0 -246 -149 -395q-150 -150 -394 -150q-247 0 -395 150q-150 149 -150 395z
" />
    <glyph glyph-name="uhungarumlaut" unicode="&#x171;" horiz-adv-x="1181" 
d="M469 1153l-8 -8h-60l-6 8l137 313l9 7h102l6 -7zM705 1145h-60l-6 8l137 313l10 7h103l4 -7l-180 -313zM907 408v616h103v-1024h-97v164q-116 -188 -358 -189q-176 0 -287 115q-112 115 -112 301v633h102v-633q0 -145 87 -234t222 -89q154 0 247 95t93 245z" />
    <glyph glyph-name="Uogonek" unicode="&#x172;" horiz-adv-x="1452" 
d="M1167 524v807h103v-811q0 -173 -77 -303q-76 -128 -214 -190q-125 -92 -125 -189q0 -51 35 -82.5t94 -31.5q43 0 100 24l9 -2l26 -51l-2 -10q-65 -37 -149 -37q-90 0 -145.5 49.5t-55.5 130.5q0 82 57 154q-40 -5 -96 -7q-247 0 -395 150q-150 149 -150 395v811h105v-807
q0 -206 121 -328q120 -124 319 -124t320 124q120 123 120 328z" />
    <glyph glyph-name="uogonek" unicode="&#x173;" horiz-adv-x="1181" 
d="M1110 -283l8 -2l27 -51l-2 -10q-65 -37 -150 -37q-90 0 -145 49t-55 131q0 122 120 217v150q-116 -188 -358 -189q-176 0 -287 115q-112 115 -112 301v633h102v-633q0 -145 87 -234t222 -89q154 0 247 95t93 245v616h103v-1024l-21 -16q-23 -16 -68 -68q-40 -46 -40 -109
q0 -51 35 -82.5t94 -31.5q43 0 100 24z" />
    <glyph glyph-name="Wcircumflex" unicode="&#x174;" horiz-adv-x="1918" 
d="M956 1614l-266 -144h-8l-39 60v8l305 184h15l305 -184v-8l-39 -60h-8zM1765 1331h99l4 -10l-484 -1321h-55l-371 1118l-368 -1118h-55l-486 1321l6 10h109l399 -1122l369 1122h55l375 -1128z" />
    <glyph glyph-name="wcircumflex" unicode="&#x175;" horiz-adv-x="1525" 
d="M764 1309l-248 -148h-6l-45 56v8l289 188h20l289 -188v-8l-45 -56h-8zM1380 1024h101l4 -10l-369 -1014h-53l-301 836l-301 -836h-53l-367 1014l6 10h100l285 -838l301 838h60l299 -842z" />
    <glyph glyph-name="Ycircumflex" unicode="&#x176;" horiz-adv-x="1261" 
d="M631 1614l-266 -144h-9l-39 60v8l306 184h14l305 -184v-8l-39 -60h-8zM1194 1331l4 -10l-514 -813v-508h-104v508l-521 813l4 10h111l459 -733l457 733h104z" />
    <glyph glyph-name="ycircumflex" unicode="&#x177;" horiz-adv-x="1038" 
d="M524 1309l-248 -148h-6l-45 56v8l289 188h21l288 -188v-8l-45 -56h-8zM897 1024h96l6 -10l-503 -1139q-50 -110 -107 -157q-56 -46 -141 -46q-81 0 -142 41l-2 8l33 68l8 4q46 -35 101 -35q52 0 87.5 29.5t65.5 99.5l68 154l-424 973l6 10h103l372 -862z" />
    <glyph glyph-name="Ydieresis" unicode="&#x178;" horiz-adv-x="1261" 
d="M521 1520q-29 -28 -68 -28t-68 28t-29 67t29 68t68 29t68 -29t29 -68t-29 -67zM881 1520q-29 -28 -68 -28t-67 28t-28 67t28 68t67 29t68 -29t29 -68t-29 -67zM1194 1331l4 -10l-514 -813v-508h-104v508l-521 813l4 10h111l459 -733l457 733h104z" />
    <glyph glyph-name="Zacute" unicode="&#x179;" horiz-adv-x="1110" 
d="M778 1659l-379 -209h-8l-35 51v8l363 236h8l51 -80v-6zM1022 1276l-829 -1186h872v-90h-1016v55l832 1186h-789v90h930v-55z" />
    <glyph glyph-name="zacute" unicode="&#x17a;" horiz-adv-x="935" 
d="M270 1204l334 269h6l62 -76v-8l-355 -242h-8l-39 49v8zM885 0h-828v72l662 868h-629v84h758v-72l-662 -868h699v-84z" />
    <glyph glyph-name="Zdotaccent" unicode="&#x17b;" horiz-adv-x="1110" 
d="M557 1491q-39 0 -67.5 28.5t-28.5 65.5q0 39 28.5 67.5t67.5 28.5q37 0 65.5 -28.5t28.5 -67.5q0 -38 -28.5 -66t-65.5 -28zM1022 1276l-829 -1186h872v-90h-1016v55l832 1186h-789v90h930v-55z" />
    <glyph glyph-name="zdotaccent" unicode="&#x17c;" horiz-adv-x="935" 
d="M540 1234q-28 -28 -69 -28t-68 28q-28 28 -28 68.5t28 68.5q27 28 68 28t69 -28q27 -28 27 -68.5t-27 -68.5zM885 0h-828v72l662 868h-629v84h758v-72l-662 -868h699v-84z" />
    <glyph glyph-name="Zcaron" unicode="&#x17d;" horiz-adv-x="1110" 
d="M868 1651l-305 -185h-12l-307 185v8l39 57h8l266 -143l266 143h6l39 -57v-8zM1022 1276l-829 -1186h872v-90h-1016v55l832 1186h-789v90h930v-55z" />
    <glyph glyph-name="zcaron" unicode="&#x17e;" horiz-adv-x="935" 
d="M770 1333l-289 -186h-20l-289 186v8l45 56h6l248 -146l246 146h8l45 -56v-8zM848 952l-662 -868h699v-84h-828v72l662 868h-629v84h758v-72z" />
    <glyph glyph-name="uni01EA" unicode="&#x1ea;" 
d="M1505 666q0 -210 -108 -380q-110 -170 -293 -249l-21 -17q-23 -16 -68 -68q-40 -46 -40 -108q0 -51 35 -82.5t94 -31.5q43 0 100 24l8 -2l27 -51l-2 -10q-65 -37 -150 -37q-90 0 -145 49t-55 131t57 154q-64 -11 -141 -13q-301 0 -502 198t-201 493t201 493
q202 197 502 197t502 -197q200 -198 200 -493zM803 72q253 0 425 170q171 170 171 424t-171 424q-172 170 -425 170q-255 0 -427 -170q-171 -170 -171 -424t171 -424q172 -170 427 -170z" />
    <glyph glyph-name="uni01EB" unicode="&#x1eb;" horiz-adv-x="1267" 
d="M813 2q-125 -96 -125 -188q0 -51 35 -83t94 -32q44 0 101 25l8 -3l26 -51l-2 -10q-65 -37 -149 -37q-90 0 -145.5 49.5t-55.5 130.5q0 88 74 174q-16 -2 -39 -2q-233 0 -388 155t-155 382t155 382t388 155t388 -155t155 -382q0 -181 -100 -317q-100 -137 -265 -193z
M320 829q-125 -128 -125 -317t125 -317q124 -127 315 -127q190 0 314 127t124 317t-124 317t-314 127q-191 0 -315 -127z" />
    <glyph glyph-name="AEacute" unicode="&#x1fc;" horiz-adv-x="1904" 
d="M1606 1659l-379 -209h-8l-35 51v8l362 236h8l52 -80v-6zM1815 1331v-92h-758v-520h602v-92h-602v-535h758v-92h-863v319h-635l-225 -319h-106l-6 10l927 1321h908zM952 1219l-569 -807h569v807z" />
    <glyph glyph-name="aeacute" unicode="&#x1fd;" horiz-adv-x="1939" 
d="M1159 1389l-354 -242h-8l-39 49v8l334 269h6l61 -76v-8zM1853 479h-897q12 -186 133 -298q122 -113 291 -113q106 0 212 48q107 48 165 130h10l62 -51v-11q-71 -98 -194 -153q-122 -56 -253 -56q-152 0 -278 75q-128 75 -195 208q-47 -123 -167 -203q-122 -80 -273 -80
q-177 0 -284 91q-109 90 -109 235q0 151 117 242q116 92 307 92q174 0 346 -88v123q0 128 -87 208q-87 78 -229 78q-91 0 -185 -35q-93 -36 -157 -100h-10l-45 64v10q73 73 181 113q109 41 216 41q153 0 255 -66.5t139 -187.5q66 117 181 186q115 68 257 68q240 0 375 -179
q121 -142 121 -346q-2 -30 -5 -45zM1362 956q-168 0 -278 -105q-111 -107 -126 -278h795q-12 134 -82 226q-103 157 -309 157zM475 68q150 0 261 96q110 96 110 229v58q-166 94 -344 94q-143 0 -231 -67q-89 -68 -89 -179q0 -101 81 -166q82 -65 212 -65z" />
    <glyph glyph-name="Oslashacute" unicode="&#x1fe;" 
d="M1024 1659l-379 -209h-8l-35 51v8l363 236h8l51 -80v-6zM1366 1438l-141 -213q131 -95 206 -240q74 -148 74 -319q0 -295 -200 -493q-201 -198 -502 -198q-189 0 -350 86l-109 -163h-98l-4 10l133 203q-129 95 -202 239q-73 143 -73 316q0 295 201 493q202 197 502 197
q187 0 344 -84l117 176h98zM205 666q0 -143 60 -266t167 -205l660 995q-128 70 -289 70q-255 0 -427 -170q-171 -170 -171 -424zM803 72q253 0 425 170q171 170 171 424q0 146 -60 269.5t-170 205.5l-661 -998q137 -71 295 -71z" />
    <glyph glyph-name="oslashacute" unicode="&#x1ff;" horiz-adv-x="1267" 
d="M834 1389l-355 -242h-8l-39 49v8l334 269h6l62 -76v-8zM1124 1135l-143 -205q197 -155 197 -418q0 -227 -155 -382t-388 -155q-146 0 -273 68l-96 -137h-98l-4 10l123 178q-195 156 -195 418q0 227 155 382t388 155q147 0 272 -68l115 164h98zM195 512q0 -212 147 -340
l510 731q-95 53 -217 53q-191 0 -315 -127q-125 -128 -125 -317zM635 68q190 0 314 127t124 317q0 210 -147 340l-510 -731q97 -53 219 -53z" />
    <glyph glyph-name="uni0218" unicode="&#x218;" horiz-adv-x="1087" 
d="M563 -25q-150 0 -285 69t-212 185v11l67 55h10q72 -102 184 -162q110 -61 228 -61q149 0 243 74q93 74 93 188q0 88 -61 157q-20 23 -74 53q-54 28 -83 41q-12 5 -103 40q-69 24 -103 39q-30 12 -94 40q-29 13 -86 49q-50 32 -78 64q-70 79 -70 197q0 150 115 246
q116 96 299 96q258 0 405 -189v-10l-63 -59h-10q-127 162 -332 162q-135 0 -220 -67t-85 -171q0 -97 68 -153q70 -57 206 -113q17 -6 82 -29q81 -31 86 -33l77 -35q50 -24 76 -41q85 -61 113 -111q41 -77 41 -167q0 -164 -120 -264q-122 -101 -314 -101zM449 -416l49 305
l8 9h94l4 -9l-86 -305l-10 -8h-53z" />
    <glyph glyph-name="uni0219" unicode="&#x219;" horiz-adv-x="872" 
d="M432 -25q-242 0 -373 189v10l64 49h10q43 -72 121 -113.5t172 -41.5q116 0 186 51t70 137q0 64 -53 128q-20 24 -65 48q-43 24 -69 34q-31 12 -85 34q-29 11 -31 12q-109 47 -173 98q-81 64 -81 172q0 120 90 193q91 74 231 74q100 0 187 -45q85 -46 135 -123v-11
l-63 -49h-9q-92 135 -254 135q-96 0 -155.5 -45t-59.5 -120q0 -65 46.5 -107t152.5 -88q186 -77 240 -115q119 -85 118 -225q0 -128 -97 -204q-98 -77 -255 -77zM330 -416l49 305l8 9h94l4 -9l-86 -305l-10 -8h-53z" />
    <glyph glyph-name="uni021A" unicode="&#x21a;" horiz-adv-x="1075" 
d="M1047 1239h-459v-1239h-105v1239h-454v92h1018v-92zM432 -416l49 305l8 9h95l4 -9l-86 -305l-10 -8h-54z" />
    <glyph glyph-name="uni021B" unicode="&#x21b;" horiz-adv-x="694" 
d="M641 117l10 -2l35 -66l-4 -10q-77 -62 -184 -64q-134 0 -208.5 79.5t-74.5 226.5v655h-180v88h180v319l92 13l8 -6v-326h332v-88h-332v-653q0 -215 189 -215q88 0 137 49zM395 -111l8 9h95l4 -9l-86 -305l-10 -8h-54l-6 8z" />
    <glyph glyph-name="uni0237" unicode="&#x237;" horiz-adv-x="444" 
d="M172 0v1024h100v-1012q0 -133 -48 -208q-48 -73 -146 -132h-10l-37 72v8q74 44 107.5 100.5t33.5 147.5z" />
    <glyph glyph-name="uni02BC" unicode="&#x2bc;" horiz-adv-x="344" 
d="M104 1153l56 311l10 9h98l4 -9l-98 -311l-8 -8h-57z" />
    <glyph glyph-name="circumflex" unicode="&#x2c6;" horiz-adv-x="737" 
d="M371 1413h20l289 -188v-8l-45 -56h-8l-246 148l-248 -148h-6l-45 56v8z" />
    <glyph glyph-name="caron" unicode="&#x2c7;" horiz-adv-x="749" 
d="M627 1397h8l45 -56v-8l-289 -186h-20l-289 186v8l45 56h6l248 -146z" />
    <glyph glyph-name="breve" unicode="&#x2d8;" horiz-adv-x="741" 
d="M559 1243q-78 -69 -190 -69q-114 0 -191 70q-79 69 -92 183h90q14 -78 67 -125t126 -47t125.5 47t66.5 125h90q-13 -114 -92 -184z" />
    <glyph glyph-name="dotaccent" unicode="&#x2d9;" horiz-adv-x="264" 
d="M201 1234q-28 -28 -67 -28t-68 28q-28 28 -28 68.5t28 68.5q29 28 68 28t67 -28q29 -28 29 -68.5t-29 -68.5z" />
    <glyph glyph-name="ring" unicode="&#x2da;" horiz-adv-x="532" 
d="M266 1130q-77 0 -132 53q-54 53 -54 128t54 128q53 52 132 52q81 0 134 -52q53 -53 53 -128t-53 -128q-55 -53 -134 -53zM266 1208q46 0 74.5 29.5t28.5 73.5t-28.5 73t-74.5 29q-44 0 -73 -30t-29 -72t29 -72.5t73 -30.5z" />
    <glyph glyph-name="ogonek" unicode="&#x2db;" horiz-adv-x="505" 
d="M328 -375q-90 0 -145.5 49.5t-55.5 130.5q0 79 50 143q49 64 93 91l74 -31l-20 -16q-30 -21 -69 -68q-40 -48 -40 -108q0 -51 35 -83t94 -32q44 0 100 25l9 -2l26 -52l-2 -10q-64 -37 -149 -37z" />
    <glyph glyph-name="tilde" unicode="&#x2dc;" horiz-adv-x="788" 
d="M539 1225q-46 0 -137 35q-90 34 -146 34q-104 0 -135 -69h-6l-6 6v84q16 30 58 50.5t87 20.5q54 0 151 -35q94 -36 134 -36q103 0 135 69h6l6 -4v-84q-35 -71 -147 -71z" />
    <glyph glyph-name="hungarumlaut" unicode="&#x2dd;" horiz-adv-x="737" 
d="M92 1153l137 313l9 7h102l6 -7l-180 -313l-8 -8h-60zM336 1153l137 313l10 7h103l4 -7l-180 -313l-9 -8h-59z" />
    <glyph glyph-name="uni0326" unicode="&#x326;" horiz-adv-x="0" 
d="M-276 -416l49 305l8 9h94l4 -9l-86 -305l-10 -8h-53z" />
    <glyph glyph-name="Wgrave" unicode="&#x1e80;" horiz-adv-x="1918" 
d="M1169 1501l-32 -51h-9l-380 209v6l53 80h8l360 -236v-8zM1765 1331h99l4 -10l-484 -1321h-55l-371 1118l-368 -1118h-55l-486 1321l6 10h109l399 -1122l369 1122h55l375 -1128z" />
    <glyph glyph-name="wgrave" unicode="&#x1e81;" horiz-adv-x="1525" 
d="M963 1196l-39 -49h-6l-357 242v8l62 76h8l332 -269v-8zM1380 1024h101l4 -10l-369 -1014h-53l-301 836l-301 -836h-53l-367 1014l6 10h100l285 -838l301 838h60l299 -842z" />
    <glyph glyph-name="Wacute" unicode="&#x1e82;" horiz-adv-x="1918" 
d="M1182 1659l-379 -209h-8l-35 51v8l362 236h8l52 -80v-6zM1765 1331h99l4 -10l-484 -1321h-55l-371 1118l-368 -1118h-55l-486 1321l6 10h109l399 -1122l369 1122h55l375 -1128z" />
    <glyph glyph-name="wacute" unicode="&#x1e83;" horiz-adv-x="1525" 
d="M963 1389l-355 -242h-8l-39 49v8l334 269h6l62 -76v-8zM1380 1024h101l4 -10l-369 -1014h-53l-301 836l-301 -836h-53l-367 1014l6 10h100l285 -838l301 838h60l299 -842z" />
    <glyph glyph-name="Wdieresis" unicode="&#x1e84;" horiz-adv-x="1918" 
d="M848 1520q-29 -28 -67.5 -28t-67.5 28t-29 67t29 68t67.5 29t67.5 -29t29 -68t-29 -67zM1209 1520q-29 -28 -68 -28t-68 28t-29 67t29 68t68 29t68 -29t29 -68t-29 -67zM1765 1331h99l4 -10l-484 -1321h-55l-371 1118l-368 -1118h-55l-486 1321l6 10h109l399 -1122
l369 1122h55l375 -1128z" />
    <glyph glyph-name="wdieresis" unicode="&#x1e85;" horiz-adv-x="1525" 
d="M602 1206q-39 0 -66.5 29t-27.5 68t27.5 67.5t66.5 28.5q41 0 68.5 -27.5t27.5 -68.5t-27.5 -69t-68.5 -28zM922 1206q-39 0 -67 29t-28 68t28 67.5t67 28.5q41 0 68.5 -27.5t27.5 -68.5t-27.5 -69t-68.5 -28zM1380 1024h101l4 -10l-369 -1014h-53l-301 836l-301 -836
h-53l-367 1014l6 10h100l285 -838l301 838h60l299 -842z" />
    <glyph glyph-name="uni1E9E" unicode="&#x1e9e;" horiz-adv-x="1300" 
d="M1102 1149l-316 -363q199 -11 310 -125q112 -115 112 -278q0 -172 -121 -290t-327 -118q-176 0 -316 95l-4 8l45 69l11 5q116 -80 254 -80q161 0 258 89q96 89 96 222q0 132 -98 221q-98 88 -267 88h-84v94l316 363q-113 111 -295 111q-172 0 -279 -113
q-108 -113 -108 -293v-854h-105v856q0 222 139 361q138 139 357 139q126 0 242 -54q114 -56 180 -153z" />
    <glyph glyph-name="Ygrave" unicode="&#x1ef2;" horiz-adv-x="1261" 
d="M842 1501l-33 -51h-8l-381 209v6l53 80h8l361 -236v-8zM1194 1331l4 -10l-514 -813v-508h-104v508l-521 813l4 10h111l459 -733l457 733h104z" />
    <glyph glyph-name="ygrave" unicode="&#x1ef3;" horiz-adv-x="1038" 
d="M725 1196l-39 -49h-6l-356 242v8l61 76h8l332 -269v-8zM897 1024h96l6 -10l-503 -1139q-50 -110 -107 -157q-56 -46 -141 -46q-81 0 -142 41l-2 8l33 68l8 4q46 -35 101 -35q52 0 87.5 29.5t65.5 99.5l68 154l-424 973l6 10h103l372 -862z" />
    <glyph glyph-name="uni1EF8" unicode="&#x1ef8;" horiz-adv-x="1261" 
d="M350 1499h-6l-10 6v86q38 74 149 74q60 0 161 -37q99 -37 147 -37q95 0 127 72h6l10 -6v-86q-39 -72 -150 -72q-56 0 -152 37t-155 37q-98 0 -127 -74zM1194 1331l4 -10l-514 -813v-508h-104v508l-521 813l4 10h111l459 -733l457 733h104z" />
    <glyph glyph-name="uni1EF9" unicode="&#x1ef9;" horiz-adv-x="1038" 
d="M248 1225h-6l-6 6v84q16 30 58 50.5t87 20.5q54 0 151 -35q95 -36 134 -36q104 0 135 69h6l6 -4v-84q-35 -72 -147 -71q-46 0 -137 35q-90 34 -146 34q-103 2 -135 -69zM897 1024h96l6 -10l-503 -1139q-50 -110 -107 -157q-56 -46 -141 -46q-81 0 -142 41l-2 8l33 68l8 4
q46 -35 101 -35q52 0 87.5 29.5t65.5 99.5l68 154l-424 973l6 10h103l372 -862z" />
    <glyph glyph-name="endash" unicode="&#x2013;" horiz-adv-x="1159" 
d="M141 571v86h879v-86h-879z" />
    <glyph glyph-name="emdash" unicode="&#x2014;" horiz-adv-x="1464" 
d="M141 571v86h1182v-86h-1182z" />
    <glyph glyph-name="quoteleft" unicode="&#x2018;" horiz-adv-x="413" 
d="M266 1389h10l35 -27v-10q-101 -136 -102 -201q37 -4 60.5 -30.5t23.5 -63.5q0 -41 -27.5 -68.5t-68.5 -27.5q-43 0 -70 28.5t-27 75.5q-4 108 166 324z" />
    <glyph glyph-name="quoteright" unicode="&#x2019;" horiz-adv-x="409" 
d="M160 963h-10l-37 28v8q102 141 102 201q-37 6 -59.5 31.5t-22.5 62.5q0 41 27.5 69t68.5 28q43 0 70 -29t27 -76q4 -103 -166 -323z" />
    <glyph glyph-name="quotesinglbase" unicode="&#x201a;" horiz-adv-x="413" 
d="M137 -262h-10l-37 29v10q102 136 105 200q-37 4 -60.5 31t-23.5 64q0 39 28.5 67.5t67.5 28.5q43 0 69.5 -28.5t26.5 -76.5q4 -108 -166 -325z" />
    <glyph glyph-name="quotedblleft" unicode="&#x201c;" horiz-adv-x="692" 
d="M268 1395h8l37 -29v-10q-102 -141 -102 -199q36 -6 59 -33t23 -63q0 -39 -28.5 -66.5t-67.5 -27.5q-42 0 -69.5 28.5t-27.5 73.5q-2 56 34 128q35 72 134 198zM545 1395h10l35 -29v-10q-100 -136 -103 -199q37 -6 60.5 -32.5t23.5 -63.5q0 -39 -28.5 -66.5t-67.5 -27.5
q-43 0 -69.5 28.5t-26.5 73.5q-4 107 166 326z" />
    <glyph glyph-name="quotedblright" unicode="&#x201d;" horiz-adv-x="688" 
d="M160 963h-10l-37 28v8q102 141 102 201q-37 6 -59.5 31.5t-22.5 62.5q0 41 27.5 69t68.5 28q43 0 70 -29t27 -76q4 -103 -166 -323zM436 963h-10l-35 28v8q100 136 103 201q-37 6 -60.5 32t-23.5 62q0 41 28.5 69t67.5 28q43 0 70.5 -29t27.5 -76q0 -112 -168 -323z" />
    <glyph glyph-name="quotedblbase" unicode="&#x201e;" horiz-adv-x="692" 
d="M137 -262h-10l-37 26v11q102 136 105 200q-37 4 -60.5 31t-23.5 64q0 41 28 68.5t68 27.5q43 0 69.5 -28.5t26.5 -76.5q4 -107 -166 -323zM414 -262h-11l-34 26v11q100 136 102 200q-37 4 -60.5 31t-23.5 64q0 41 28.5 68.5t69.5 27.5q43 0 70 -28.5t27 -76.5
q0 -111 -168 -323z" />
    <glyph glyph-name="dagger" unicode="&#x2020;" horiz-adv-x="964" 
d="M535 909h319v-88h-319v-1140h-105v1140h-319v88h319v443h105v-443z" />
    <glyph glyph-name="daggerdbl" unicode="&#x2021;" horiz-adv-x="964" 
d="M854 909v-88h-319v-610h319v-88h-319v-442h-105v442h-319v88h319v610h-319v88h319v443h105v-443h319z" />
    <glyph glyph-name="bullet" unicode="&#x2022;" horiz-adv-x="714" 
d="M489 466q-55 -54 -130 -54q-76 0 -130 54q-55 54 -55 130t55 130q54 54 130 54q75 0 130 -54q54 -54 54 -130t-54 -130z" />
    <glyph glyph-name="ellipsis" unicode="&#x2026;" horiz-adv-x="1054" 
d="M278 4q-28 -29 -67 -29t-67 29t-28 68.5t28 67.5t67 28t67 -28q27 -28 27 -67.5t-27 -68.5zM597 4q-28 -29 -69 -29t-68 29q-28 29 -28 68.5t28 67.5q27 28 68 28t69 -28q28 -29 28 -68t-28 -68zM844 -25q-39 0 -66.5 29t-27.5 68t27.5 67.5t66.5 28.5q41 0 68.5 -28
t27.5 -68t-27.5 -68.5t-68.5 -28.5z" />
    <glyph glyph-name="perthousand" unicode="&#x2030;" horiz-adv-x="2215" 
d="M574 694q-79 -106 -207 -106q-127 0 -206 106q-79 104 -79 277t79 279t206 106q128 0 207 -106t79 -279t-79 -277zM211 0l-6 10l1022 1321h92l4 -10l-1020 -1321h-92zM227 756q52 -82 140 -82q89 0 141 82q53 83 53 215q0 134 -53 217q-52 82 -141 82q-88 0 -140 -82
q-53 -83 -53 -217q0 -132 53 -215zM1379 81q-79 -106 -205 -106q-128 0 -207 106q-80 106 -80 277q0 174 79 280q78 105 208 105q126 0 206 -105q78 -107 78 -280t-79 -277zM2070 81q-79 -106 -206 -106q-128 0 -207 106q-80 106 -80 277q0 173 80 280q79 105 207 105
q126 0 206 -105q78 -107 78 -280q0 -172 -78 -277zM1032 143q52 -82 142 -82q88 0 140 82t52 215q0 135 -52 217t-140 82q-90 0 -142 -81q-53 -83 -53 -218q0 -132 53 -215zM1724 143q52 -82 140 -82t140 82t52 215q0 135 -52 217t-140 82t-140 -81q-53 -83 -53 -218
q0 -132 53 -215z" />
    <glyph glyph-name="guilsinglleft" unicode="&#x2039;" horiz-adv-x="579" 
d="M395 967l56 -56v-6l-250 -291l250 -290v-7l-56 -55h-8l-295 340v25l295 340h8z" />
    <glyph glyph-name="guilsinglright" unicode="&#x203a;" horiz-adv-x="579" 
d="M184 967h9l296 -340v-25l-296 -340h-9l-55 55v7l250 290l-250 291v6z" />
    <glyph glyph-name="fraction" unicode="&#x2044;" horiz-adv-x="1044" 
d="M-31 0l-6 10l1022 1321h92l4 -10l-1020 -1321h-92z" />
    <glyph glyph-name="Euro" unicode="&#x20ac;" horiz-adv-x="1460" 
d="M864 1260q-186 0 -326 -117q-140 -116 -190 -305h692l4 -11l-34 -75h-678q-4 -51 -4 -86q0 -56 10 -115h678l6 -10l-37 -76h-629q56 -177 193 -284q136 -109 315 -109q131 0 243 59t185 166h8l68 -55v-9q-89 -122 -220.5 -190t-283.5 -68q-222 0 -389 136
q-168 135 -225 354h-178l-6 10l36 76h129q-8 53 -8 115q0 35 4 86h-131l-6 10l35 76h117q51 228 222 374q171 144 400 144q152 0 283.5 -68t220.5 -190v-8l-68 -56h-8q-75 107 -186.5 166.5t-241.5 59.5z" />
    <glyph glyph-name="trademark" unicode="&#x2122;" horiz-adv-x="1452" 
d="M270 1260h-204v71h503v-71h-209v-596h-90v596zM1237 1331l74 -667h-86l-51 471l-195 -471h-68l-192 473l-51 -473h-86l71 667h70l223 -545l223 545h68z" />
    <glyph glyph-name="minus" unicode="&#x2212;" horiz-adv-x="1234" 
d="M147 621v90h943v-90h-943z" />
    <glyph glyph-name="approxequal" unicode="&#x2248;" horiz-adv-x="1185" 
d="M836 737q-84 0 -243 36t-241 36q-42 0 -83.5 -20.5t-61.5 -51.5h-8l-52 68v6q78 90 205 90q86 0 249 -36t235 -36q98 0 145 72h6l51 -67v-9q-29 -32 -42 -43q-18 -14 -60 -29q-42 -16 -100 -16zM836 430q-84 0 -243 36t-241 36q-42 0 -83.5 -20.5t-61.5 -51.5h-8l-52 68
v8q79 88 205 88q86 0 249 -36t235 -36q98 0 145 72h6l51 -68v-6q-29 -32 -43 -44q-18 -15 -60 -30q-41 -16 -99 -16z" />
    <glyph glyph-name="notequal" unicode="&#x2260;" horiz-adv-x="1232" 
d="M1092 874v-86h-338l-146 -243h484v-86h-535l-160 -266h-96l-4 12l152 254h-299v86h350l145 243h-495v86h546l160 267h96l4 -13l-151 -254h287z" />
    <glyph glyph-name="uniF8FF" unicode="&#xf8ff;" horiz-adv-x="2758" 
d="M1523 1210q-35 -36 -87 -36q-54 0 -87 36q-34 34 -34 88q0 52 34 86.5t87 34.5t86.5 -34.5t33.5 -86.5q0 -53 -33 -88zM365 670h-238q0 310 10 446l13 182h194q0 -5 10 -184q9 -170 11 -444zM938 965v170l238 73l8 -61h352q2 -28 4 -56.5t3 -40t1 -12.5q8 -107 8 -368
h-233q0 254 4 295h-117l4 -129q0 -2 4 -2q1 -1 19 -3q9 0 27 5l8 4v-148q-2 -8 -21 -18q-35 -15 -106 -17q-160 0 -160 131q0 7 2 103q0 13 0.5 25.5t0.5 21t0.5 15t0.5 9.5v3h-47zM756 670l-19 118q-26 -131 -151 -131q-181 0 -183 230q0 135 64.5 201.5t206.5 66.5
q119 0 178.5 -57t58.5 -172v-256h-155zM1831 670h-232q0 238 11 370q6 67 12 107h156l6 -51q6 -92 6 -101l4 21q46 139 162 139q81 0 115 -47.5t36 -159.5l4 -278h-229q0 31 2 111q2 78 2 81q0 51 -31 51q-35 0 -34 -51q0 -17 5 -82t5 -110zM2142 901q0 254 246 254
q141 0 195 -67q53 -68 53 -187q0 -116 -62.5 -180t-185.5 -64q-121 0 -183.5 64.5t-62.5 179.5zM664 817q49 0 49 62q0 55 -49 55q-43 0 -43 -55q0 -62 43 -62zM2388 817q49 0 49 62q0 55 -49 55q-47 0 -47 -55q0 -62 47 -62zM123 397v170l248 82l8 -59h338q-2 -52 -2 -107
q-2 -74 -2 -110q0 -52 32 -54q31 0 31 54v7q0 7 -0.5 18.5t-1 25t-0.5 30v29.5q-2 42 -2 107h217l6 -82q6 -78 6 -215q0 -147 -73.5 -214t-233.5 -67q-88 0 -149 21q-28 7 -41 22v170q10 -9 37 -20q44 -17 110 -19q81 0 125 37q20 17 23 37q-2 -2 -5.5 -4t-8.5 -5.5t-9 -6.5
q-33 -14 -94 -15q-190 0 -190 152v16h-93l4 -125q28 0 43 7l15 6v-152q-11 -11 -31 -18q-42 -15 -106 -17q-150 0 -150 131q0 13 0.5 34.5t1 43.5t1 42.5t1.5 34.5v13h-55zM1300 12h-260q0 290 11 420l12 158h160l6 -60q8 -46 8 -94q29 170 160 170q74 0 116.5 -60.5
t42.5 -168.5q0 -135 -67.5 -207t-192.5 -72q0 -12 2 -22q0 -2 1 -27.5t1 -36.5zM2011 281v-150q-4 -4 -35 -16q-46 -15 -112 -17q-135 0 -204 65.5t-69 182.5q0 260 252 260q107 0 168.5 -62t61.5 -171q0 -13 -7 -54l-4 -20h-245q1 -16 12 -25q25 -26 78 -24q52 0 80 14
q18 11 24 17zM2143 465q-23 23 -23 54t23 53t53 22t53 -22t23 -53t-23 -54t-53 -23t-53 23zM2153 476q18 -19 42.5 -19t43.5 19q18 18 18 42.5t-18 43.5q-19 18 -43.5 18t-42.5 -18q-19 -19 -19 -43.5t19 -42.5zM2167 481v76h33q16 0 23.5 -6t6.5 -19q0 -18 -16 -24l16 -27
h-18l-14 23h-15v-23h-16zM2183 518h17q9 0 12.5 6t0 12.5t-12.5 6.5h-17v-25zM1804 350h80v4v4q2 6 2 9q0 39 -37 39q-45 0 -45 -56zM1262 281l4 -17q28 5 39 10q40 23 38 64q0 43 -38 43q-46 0 -48 -62q0 -16 5 -38z" />
    <glyph glyph-name="J.aalt" horiz-adv-x="993" 
d="M305 1237v94h504v-960q0 -183 -111 -290q-112 -106 -276 -106q-252 0 -383 201v10l72 58h8q112 -172 301 -172q123 0 204 82t81 219v864h-400z" />
    <glyph glyph-name="Q.aalt" 
d="M1415 -178l8 -4l39 -68l-4 -8q-62 -49 -155 -49q-106 0 -232 102q-5 4 -12.5 11t-20.5 18.5t-23 20.5q-47 42 -59 51q-12 10 -51 38q-56 41 -102 41q-301 0 -502 198t-201 493t201 493q202 197 502 197t502 -197q200 -198 200 -493q0 -247 -146 -432q-148 -186 -382 -238
q38 -27 125 -98q4 -4 27 -23q27 -22 29 -24q12 -8 27 -19q20 -16 32 -21q63 -29 92 -26q62 0 106 37zM376 1090q-171 -170 -171 -424t171 -424q172 -170 427 -170q253 0 425 170q171 170 171 424t-171 424q-172 170 -425 170q-255 0 -427 -170z" />
    <glyph glyph-name="i.aalt" horiz-adv-x="454" 
d="M295 1234q-29 -28 -68 -28t-67 28t-28 68.5t28 68.5t67 28t68 -28t29 -68.5t-29 -68.5zM276 0h-100v1024h100v-1024z" />
    <glyph glyph-name="a.salt" horiz-adv-x="1294" 
d="M1022 838v186h102v-1024h-102v193q-145 -217 -416 -218q-225 0 -369 155q-145 154 -145 382q0 229 145 383q144 154 369 154q268 0 416 -211zM614 68q180 0 299 122t119 322q0 203 -118 324q-118 120 -298 120q-186 0 -303 -128q-118 -127 -118 -316q0 -188 117 -316
q116 -128 302 -128z" />
    <glyph glyph-name="aacute.aalt" horiz-adv-x="1294" 
d="M817 1389l-354 -242h-8l-39 49v8l334 269h6l61 -76v-8zM1022 838v186h102v-1024h-102v193q-145 -217 -416 -218q-225 0 -369 155q-145 154 -145 382q0 229 145 383q144 154 369 154q268 0 416 -211zM614 68q180 0 299 122t119 322q0 203 -118 324q-118 120 -298 120
q-186 0 -303 -128q-118 -127 -118 -316q0 -188 117 -316q116 -128 302 -128z" />
    <glyph glyph-name="abreve.aalt" horiz-adv-x="1294" 
d="M807 1243q-78 -69 -190 -69q-114 0 -191 70q-79 69 -92 183h90q14 -78 67 -125t126 -47t125.5 47t66.5 125h90q-13 -114 -92 -184zM1022 838v186h102v-1024h-102v193q-145 -217 -416 -218q-225 0 -369 155q-145 154 -145 382q0 229 145 383q144 154 369 154
q268 0 416 -211zM614 68q180 0 299 122t119 322q0 203 -118 324q-118 120 -298 120q-186 0 -303 -128q-118 -127 -118 -316q0 -188 117 -316q116 -128 302 -128z" />
    <glyph glyph-name="acircumflex.aalt" horiz-adv-x="1294" 
d="M616 1309l-247 -148h-7l-45 56v8l289 188h21l288 -188v-8l-45 -56h-8zM1022 838v186h102v-1024h-102v193q-145 -217 -416 -218q-225 0 -369 155q-145 154 -145 382q0 229 145 383q144 154 369 154q268 0 416 -211zM614 68q180 0 299 122t119 322q0 203 -118 324
q-118 120 -298 120q-186 0 -303 -128q-118 -127 -118 -316q0 -188 117 -316q116 -128 302 -128z" />
    <glyph glyph-name="adieresis.aalt" horiz-adv-x="1294" 
d="M525 1234q-29 -28 -68 -28t-67 29t-28 67.5t28 67.5t67 29t68 -28t29 -68.5t-29 -68.5zM844 1234q-29 -28 -68 -28t-66 29q-28 29 -28 67.5t28 67.5q27 29 66 29t68 -28q28 -28 28 -68.5t-28 -68.5zM1022 838v186h102v-1024h-102v193q-145 -217 -416 -218
q-225 0 -369 155q-145 154 -145 382q0 229 145 383q144 154 369 154q268 0 416 -211zM614 68q180 0 299 122t119 322q0 203 -118 324q-118 120 -298 120q-186 0 -303 -128q-118 -127 -118 -316q0 -188 117 -316q116 -128 302 -128z" />
    <glyph glyph-name="agrave.aalt" horiz-adv-x="1294" 
d="M817 1196l-39 -49h-6l-356 242v8l61 76h8l332 -269v-8zM1022 838v186h102v-1024h-102v193q-145 -217 -416 -218q-225 0 -369 155q-145 154 -145 382q0 229 145 383q144 154 369 154q268 0 416 -211zM614 68q180 0 299 122t119 322q0 203 -118 324q-118 120 -298 120
q-186 0 -303 -128q-118 -127 -118 -316q0 -188 117 -316q116 -128 302 -128z" />
    <glyph glyph-name="amacron.aalt" horiz-adv-x="1294" 
d="M340 1317h553v-88h-553v88zM1022 838v186h102v-1024h-102v193q-145 -217 -416 -218q-225 0 -369 155q-145 154 -145 382q0 229 145 383q144 154 369 154q268 0 416 -211zM614 68q180 0 299 122t119 322q0 203 -118 324q-118 120 -298 120q-186 0 -303 -128
q-118 -127 -118 -316q0 -188 117 -316q116 -128 302 -128z" />
    <glyph glyph-name="aogonek.aalt" horiz-adv-x="1294" 
d="M1225 -283l8 -2l27 -51l-3 -10q-65 -37 -149 -37q-90 0 -145.5 49.5t-55.5 130.5q0 119 115 213v183q-145 -217 -416 -218q-225 0 -369 155q-145 154 -145 382q0 229 145 383q144 154 369 154q268 0 416 -211v186h102v-1024l-20 -16q-23 -16 -68 -68q-41 -47 -41 -109
q0 -51 35 -82.5t94 -31.5q42 0 101 24zM614 68q180 0 299 122t119 322q0 203 -118 324q-118 120 -298 120q-186 0 -303 -128q-118 -127 -118 -316q0 -188 117 -316q116 -128 302 -128z" />
    <glyph glyph-name="aring.aalt" horiz-adv-x="1294" 
d="M616 1130q-77 0 -132 53q-54 53 -54 128q0 76 55 128q53 52 131 52q81 0 134 -52q53 -53 53 -128t-53 -128q-55 -53 -134 -53zM616 1413q-44 0 -73 -30t-29 -72t29 -72.5t73 -30.5q46 0 74.5 29.5t28.5 73.5t-28.5 73t-74.5 29zM1022 838v186h102v-1024h-102v193
q-145 -217 -416 -218q-225 0 -369 155q-145 154 -145 382q0 229 145 383q144 154 369 154q268 0 416 -211zM614 68q180 0 299 122t119 322q0 203 -118 324q-118 120 -298 120q-186 0 -303 -128q-118 -127 -118 -316q0 -188 117 -316q116 -128 302 -128z" />
    <glyph glyph-name="atilde.aalt" horiz-adv-x="1294" 
d="M340 1225h-6l-6 6v84q16 30 58 50.5t87 20.5q54 0 151 -35q95 -36 134 -36q104 0 135 69h6l6 -4v-84q-38 -72 -147 -71q-46 0 -137 35q-90 34 -146 34q-103 2 -135 -69zM1022 838v186h102v-1024h-102v193q-145 -217 -416 -218q-225 0 -369 155q-145 154 -145 382
q0 229 145 383q144 154 369 154q268 0 416 -211zM614 68q180 0 299 122t119 322q0 203 -118 324q-118 120 -298 120q-186 0 -303 -128q-118 -127 -118 -316q0 -188 117 -316q116 -128 302 -128z" />
    <glyph glyph-name="ae.aalt" horiz-adv-x="2119" 
d="M2034 479h-897q12 -186 133 -298q122 -113 291 -113q106 0 211 48q106 49 163 130h11l63 -51v-11q-72 -97 -194 -153q-121 -56 -252 -56t-246 60q-114 58 -184 166v-201h-101v209q-69 -111 -179 -172.5t-247 -61.5q-225 0 -369 155q-145 154 -145 382q0 229 145 383
q144 154 369 154q136 0 247 -60t179 -166v201h101v-193q67 103 172 160.5t235 57.5q224 0 360 -150q136 -151 136 -375q0 -29 -2 -45zM614 68q180 0 299 122t119 322q0 203 -118 324q-118 120 -298 120q-186 0 -303 -128q-118 -127 -118 -316q0 -188 117 -316
q116 -128 302 -128zM1817 849q-105 107 -275 107t-280 -107q-111 -108 -123 -282h794q-12 173 -116 282z" />
    <glyph glyph-name="aeacute.aalt" horiz-adv-x="2119" 
d="M1284 1389l-354 -242h-8l-39 49v8l334 269h6l61 -76v-8zM2034 479h-897q12 -186 133 -298q122 -113 291 -113q106 0 211 48q106 49 163 130h11l63 -51v-11q-72 -97 -194 -153q-121 -56 -252 -56t-246 60q-114 58 -184 166v-201h-101v209q-69 -111 -179 -172.5t-247 -61.5
q-225 0 -369 155q-145 154 -145 382q0 229 145 383q144 154 369 154q136 0 247 -60t179 -166v201h101v-193q67 103 172 160.5t235 57.5q224 0 360 -150q136 -151 136 -375q0 -29 -2 -45zM614 68q180 0 299 122t119 322q0 203 -118 324q-118 120 -298 120q-186 0 -303 -128
q-118 -127 -118 -316q0 -188 117 -316q116 -128 302 -128zM1817 849q-105 107 -275 107t-280 -107q-111 -108 -123 -282h794q-12 173 -116 282z" />
    <glyph glyph-name="f_t.dlig" horiz-adv-x="1255" 
d="M1200 117l10 -2l35 -66l-2 -10q-79 -62 -184 -64q-134 0 -208.5 79.5t-74.5 226.5v655h-444v-936h-101v936h-178v88h178v39q0 178 85 266t219 88q74 0 135 -31l2 -10l-33 -65l-8 -4q-48 20 -92 20q-207 0 -207 -264v-39h444v319l90 13l11 -6v-326h329v-88h-329v-653
q0 -215 188 -215q86 0 135 49z" />
    <glyph glyph-name="ordfeminine.aalt" horiz-adv-x="933" 
d="M811 772l8 -2l17 -53l-5 -8q-28 -19 -65 -21q-46 0 -74 31.5t-30 83.5q-90 -115 -242 -115q-142 0 -234 96q-92 95 -92 236t91 238q91 96 235 96q152 0 242 -115v100h83v-528q0 -49 35 -49q15 0 31 10zM246 839q67 -73 174 -73t174 70q68 70 68 184q0 117 -68 188
q-67 70 -174 70q-106 0 -174 -75q-68 -76 -68 -183q0 -108 68 -181z" />
    <glyph glyph-name="ampersand.aalt" horiz-adv-x="1216" 
d="M866 729h305v-94h-180q84 -101 84 -232q0 -188 -137 -308q-136 -120 -354 -120q-217 0 -355 120q-139 120 -139 308q0 130 76 228q77 98 201 149q-166 82 -166 260q0 140 103 228q101 88 265 88q229 0 373 -189v-10l-65 -51h-11q-117 156 -297 156q-118 0 -189 -61
q-73 -61 -73 -159q0 -94 76 -152q77 -59 197 -59h67v-2l17 2v-94h-80q-172 0 -281 -93q-110 -93 -110 -240q0 -148 110 -241q109 -93 281 -93q170 0 280 93q109 93 109 240q0 128 -107 232v94z" />
    <glyph glyph-name="glyph370" horiz-adv-x="0" 
d="M-262 1055l57 348l8 8h99l6 -8l-98 -348l-9 -8h-57z" />
    <glyph glyph-name="acute.aalt" horiz-adv-x="583" 
d="M92 1206l363 236h8l51 -80v-6l-379 -209h-8l-35 51v8z" />
    <glyph glyph-name="breve.aalt" horiz-adv-x="741" 
d="M365 1157q-101 0 -180 71q-79 70 -93 183h92q12 -78 60.5 -124t120.5 -46q71 0 120.5 46t61.5 124h90q-13 -111 -91 -183q-77 -71 -181 -71z" />
    <glyph glyph-name="caron.aalt" horiz-adv-x="741" 
d="M637 1413h6l39 -57v-8l-305 -185h-12l-308 185v8l39 57h8l267 -143z" />
    <glyph glyph-name="circumflex.aalt" horiz-adv-x="741" 
d="M358 1419h15l305 -184v-8l-39 -60h-8l-264 144l-267 -144h-8l-39 60v8z" />
    <glyph glyph-name="dieresis.aalt" horiz-adv-x="733" 
d="M254 1217q-29 -29 -67.5 -29t-67.5 29t-29 68t29 67t67.5 28t67.5 -28t29 -67t-29 -68zM615 1217q-29 -29 -68 -29t-67 29t-28 68t28 67t67 28t68 -28t29 -67t-29 -68z" />
    <glyph glyph-name="dotaccent.aalt" horiz-adv-x="354" 
d="M178 1188q-39 0 -67.5 28.5t-28.5 65.5q0 39 28.5 67.5t67.5 28.5q37 0 65.5 -28.5t28.5 -67.5q0 -38 -28.5 -66t-65.5 -28z" />
    <glyph glyph-name="grave.aalt" horiz-adv-x="585" 
d="M133 1442h8l361 -236v-8l-33 -51h-8l-381 209v6z" />
    <glyph glyph-name="hungarumlaut.aalt" horiz-adv-x="712" 
d="M82 1128l168 304h108l7 -11l-201 -301h-78zM346 1128l170 304h109l4 -11l-201 -301h-78z" />
    <glyph glyph-name="macron.aalt" horiz-adv-x="722" 
d="M82 1202v84h561v-84h-561z" />
    <glyph glyph-name="ring.aalt" horiz-adv-x="473" 
d="M369 1179q-55 -53 -131 -53q-78 0 -131 53q-54 53 -54 128t54 128q52 52 131 52q78 0 131 -52q53 -53 53 -128t-53 -128zM162 1231q32 -33 76 -33t76 33q30 33 30 76.5t-29 74.5q-30 31 -77 31q-49 0 -77 -31q-30 -31 -30 -74.5t31 -76.5z" />
    <glyph glyph-name="tilde.aalt" horiz-adv-x="870" 
d="M604 1196q-56 0 -152 37t-155 37q-98 0 -127 -74h-6l-10 6v86q38 74 149 74q60 0 161 -37q99 -37 146 -37q96 0 127 72h6l11 -6v-86q-39 -72 -150 -72z" />
    <glyph glyph-name="glyph382" horiz-adv-x="1392" 
d="M57 1450h-6l-35 51v8l361 236h8l53 -80v-6zM979 1450h-6l-35 51v8l360 236h9l53 -80v-6zM305 0h-104v1331h104v-1331zM821 -25q-253 0 -383 201v10l68 58h10q112 -172 303 -172q124 0 203 82q80 83 80 219v958h104v-960q0 -183 -110 -290q-110 -106 -275 -106z" />
    <glyph glyph-name="glyph383" horiz-adv-x="1437" 
d="M70 1450h-9l-32 51v8l360 236h8l54 -80v-6zM831 1450h-8l-35 51v8l363 236h6l53 -80v-6zM305 0h-104v1331h104v-1331zM866 -25q-252 0 -383 201v10l72 58h8q112 -172 301 -172q123 0 204 82t81 219v864h-399v94h503v-960q0 -183 -111 -290q-112 -106 -276 -106z" />
    <glyph glyph-name="glyph384" horiz-adv-x="901" 
d="M72 1147h-6l-39 49v8l331 269h9l61 -76v-8zM520 1147h-8l-39 49v8l334 269h6l61 -76v-8zM276 0h-100v1024h100v-1024zM535 -328h-11l-37 72v8q75 44 108.5 100.5t33.5 147.5v1024h100v-1012q0 -133 -48 -208q-48 -73 -146 -132z" />
    <glyph glyph-name="glyph385" horiz-adv-x="1265" 
d="M233 -100h-98l-4 10l1022 1540h98l4 -10z" />
    <glyph glyph-name="glyph386" horiz-adv-x="1087" 
d="M166 59h-98l-5 11l859 1228h98l4 -10z" />
    <glyph glyph-name="glyph387" horiz-adv-x="757" 
d="M727 854v-82l-655 -321l-11 4v82l658 323z" />
    <glyph glyph-name="glyph388" horiz-adv-x="657" 
d="M596 717l-504 -258l-10 4v76l504 258l10 -4v-76z" />
    <glyph glyph-name="glyph389" horiz-adv-x="1548" 
d="M145 973v82h1252v-82h-1252z" />
    <glyph glyph-name="glyph390" horiz-adv-x="710" 
d="M631 621h-555v81h555v-81z" />
    </font>
</defs>
</svg>
